<svg width="747" height="954" viewBox="0 0 747 954" fill="none" xmlns="http://www.w3.org/2000/svg">
<path d="M434.339 371.58C434.339 371.58 446.512 402.5 464.516 396.586C466.596 395.903 468.604 395.149 470.559 394.415C482.154 390.062 491.917 386.397 504.192 402.141C507.881 406.872 514.896 401.839 520.286 396.586C520.286 396.586 490.366 355.272 475.191 324.804C475.191 324.804 443.333 363.813 434.339 371.58Z" fill="#392520"/>
<path fill-rule="evenodd" clip-rule="evenodd" d="M304.613 379.205L318.958 357.548H345.153L376.649 341.956L398.478 357.548L421.866 354.117L434.339 371.58C443.333 363.813 475.191 324.804 475.191 324.804C474.482 293.802 460.976 263.928 439.953 242.664C430.338 232.939 419.151 225.015 406.896 219.607C392.233 213.137 376.041 210.269 359.186 212.229C351.123 213.167 342.298 214.9 333.303 217.554C320.27 221.4 306.882 227.181 294.946 235.283L281.213 357.548C287.328 365.466 295.003 372.524 304.613 379.205ZM346.4 244.661C352.945 244.661 358.25 239.356 358.25 232.811C358.25 226.266 352.945 220.961 346.4 220.961C339.856 220.961 334.55 226.266 334.55 232.811C334.55 239.356 339.856 244.661 346.4 244.661ZM328.937 319.503C345.126 319.503 358.25 306.379 358.25 290.19C358.25 274.001 345.126 260.877 328.937 260.877C312.748 260.877 299.624 274.001 299.624 290.19C299.624 306.379 312.748 319.503 328.937 319.503ZM415.629 319.503C431.818 319.503 444.942 306.379 444.942 290.19C444.942 274.001 431.818 260.877 415.629 260.877C399.44 260.877 386.316 274.001 386.316 290.19C386.316 306.379 399.44 319.503 415.629 319.503ZM386.316 244.661C392.86 244.661 398.166 239.356 398.166 232.811C398.166 226.266 392.86 220.961 386.316 220.961C379.771 220.961 374.466 226.266 374.466 232.811C374.466 239.356 379.771 244.661 386.316 244.661Z" fill="#FAFAE6"/>
<path d="M304.613 379.205C317.084 387.873 330.936 393.638 345.536 395.794L353.572 379.205L369.165 371.58L382.574 375.634V393.381C399.122 388.682 421.397 384.764 433.996 371.935C434.218 371.703 434.339 371.58 434.339 371.58L421.866 354.117L398.478 357.548L376.649 341.956L345.153 357.548H318.958L304.613 379.205Z" fill="#BDADA5"/>
<path d="M259.084 281.458C261.115 315.69 266.876 338.982 281.213 357.548L294.946 235.283C284.944 242.073 275.962 250.494 269.063 260.772C264.9 266.974 261.496 273.853 259.084 281.458Z" fill="#534322"/>
<path d="M206.88 281.458C213.902 309.589 228.698 336.769 248.794 354.117C242.267 333.538 250.243 308.856 257.128 287.551C257.795 285.486 258.452 283.453 259.084 281.458C261.496 273.853 264.9 266.974 269.063 260.772L243.564 235.283L206.88 281.458Z" fill="#6E6158"/>
<path d="M269.063 260.772C275.962 250.494 284.944 242.073 294.946 235.283L269.063 203.186L243.564 235.283L269.063 260.772Z" fill="#6C584F"/>
<path d="M269.063 203.186L294.946 235.283C306.882 227.181 320.27 221.4 333.303 217.554L321.765 170.912L269.063 203.186Z" fill="#796D65"/>
<path d="M349.519 153.915L359.186 212.229C376.041 210.269 392.233 213.137 406.896 219.607L421.866 171.306L349.519 153.915Z" fill="#F2F3F0"/>
<path d="M349.519 153.915L321.765 170.912L333.303 217.554C342.298 214.9 351.123 213.167 359.186 212.229L349.519 153.915Z" fill="#BFA8A2"/>
<path d="M300.871 118.136C243.486 136.606 202.329 186.838 202.329 245.908C202.329 257.48 203.909 269.554 206.88 281.458L243.564 235.283L269.063 203.186L321.765 170.912L349.519 153.915L421.866 171.306L311.786 115.057C308.088 115.956 304.448 116.984 300.871 118.136Z" fill="#4C423B"/>
<path d="M453.674 136.452C441.086 128.683 416.253 118.136 416.253 118.136C399.108 109.937 380.763 110.19 360.737 110.467C357.055 110.517 353.317 110.569 349.519 110.569C336.475 110.569 323.828 112.129 311.786 115.057L421.866 171.306L446.813 177.303L459.161 194.281L496.708 245.908C496.708 244.837 496.709 243.771 496.709 242.71C496.733 212.762 496.753 186.977 477.997 164.829C477.997 164.829 466.285 144.236 453.674 136.452Z" fill="#8A8682"/>
<path d="M326.13 87.1809C314.53 97.6145 300.871 118.136 300.871 118.136C304.448 116.984 308.088 115.956 311.786 115.057C323.828 112.129 336.475 110.569 349.519 110.569C353.317 110.569 357.055 110.517 360.737 110.467C380.763 110.19 399.108 109.937 416.253 118.136L416.055 117.742C411.523 108.694 410.016 105.684 410.016 94.6651C410.016 79.5378 414.846 65.5386 423.048 54.1257C423.048 54.1257 355.864 60.4395 326.13 87.1809Z" fill="#C97971"/>
<path d="M423.048 54.1257C414.846 65.5386 410.016 79.5378 410.016 94.6651C410.016 105.684 411.523 108.694 416.055 117.742L416.253 118.136C416.253 118.136 441.086 128.683 453.674 136.452C466.285 144.236 477.997 164.829 477.997 164.829C482.735 164.829 488.921 163.732 493.392 162.829C493.392 162.829 522.149 123.041 519.472 94.6651C517.883 77.821 515.481 66.728 504.192 54.1257C486.902 34.8233 439.953 37.496 439.953 37.496C433.414 42.0344 427.691 47.6657 423.048 54.1257Z" fill="#AB5A52"/>
<path d="M549.097 94.6651C549.097 56.2589 517.963 25.1244 479.556 25.1244C464.84 25.1244 451.191 29.6958 439.953 37.496C439.953 37.496 486.902 34.8233 504.192 54.1257C515.481 66.728 517.883 77.821 519.472 94.6651C522.149 123.041 493.392 162.829 493.392 162.829C525.17 156.414 549.097 128.334 549.097 94.6651Z" fill="#F1C8C9"/>
<path d="M446.813 177.303L421.866 171.306L406.896 219.607C419.151 225.015 430.338 232.939 439.953 242.664L459.161 194.281L446.813 177.303Z" fill="#E5EAE5"/>
<path d="M485.023 304.535C492.158 285.878 496.708 263.443 496.708 245.908L459.161 194.281L439.953 242.664C460.976 263.928 474.482 293.802 475.191 324.804C478.806 319.057 482.128 312.107 485.023 304.535Z" fill="#E0E0E0"/>
<path d="M248.794 354.117L228.524 418.669C228.524 418.669 248.385 423.339 259.084 422.723L281.213 357.548C266.876 338.982 261.115 315.69 259.084 281.458C258.452 283.453 257.795 285.486 257.128 287.551C250.243 308.856 242.267 333.538 248.794 354.117Z" fill="#3A2B11"/>
<path d="M358.25 290.19C358.25 306.379 345.126 319.503 328.937 319.503C312.748 319.503 299.624 306.379 299.624 290.19C299.624 274.001 312.748 260.877 328.937 260.877C345.126 260.877 358.25 274.001 358.25 290.19Z" fill="#E1B4A7"/>
<path d="M358.25 232.811C358.25 239.356 352.945 244.661 346.4 244.661C339.856 244.661 334.55 239.356 334.55 232.811C334.55 226.266 339.856 220.961 346.4 220.961C352.945 220.961 358.25 226.266 358.25 232.811Z" fill="#323232"/>
<path d="M398.166 232.811C398.166 239.356 392.86 244.661 386.316 244.661C379.771 244.661 374.466 239.356 374.466 232.811C374.466 226.266 379.771 220.961 386.316 220.961C392.86 220.961 398.166 226.266 398.166 232.811Z" fill="#323232"/>
<path d="M444.942 290.19C444.942 306.379 431.818 319.503 415.629 319.503C399.44 319.503 386.316 306.379 386.316 290.19C386.316 274.001 399.44 260.877 415.629 260.877C431.818 260.877 444.942 274.001 444.942 290.19Z" fill="#E1B4A7"/>
<path d="M363.671 396.586C370.161 396.201 376.476 395.112 382.574 393.381V375.634L369.165 371.58L353.572 379.205L345.536 395.794C351.472 396.67 357.531 396.95 363.671 396.586Z" fill="#98584B"/>
<path d="M304.613 379.205L310.226 396.586L318.958 414.615L333.303 418.669L345.153 396.586L345.536 395.794C330.936 393.638 317.084 387.873 304.613 379.205Z" fill="#554842"/>
<path d="M311.786 466.068L328.625 457.025L337.717 456.435L333.303 418.669L318.958 414.615L304.613 440.809L311.786 466.068Z" fill="#93A1A3"/>
<path d="M288.086 414.615C288.086 414.615 271.706 421.995 259.084 422.723L283.096 457.025V495.07L294.946 492.494V475.112L311.786 466.068L304.613 440.809L318.958 414.615L310.226 396.586L288.086 414.615Z" fill="#C4A1A8"/>
<path d="M248.794 517.522L215.115 545.276L167.091 588.622L209.19 595.483L255.355 625.108L267.504 577.396L321.765 521.264L341.099 487.274H318.958L294.946 492.494L283.096 495.07L248.794 517.522Z" fill="#D9938A"/>
<path d="M353.572 479.166L341.099 487.274L321.765 521.264L267.504 577.396L255.355 625.108L267.504 632.904L304.613 630.204V577.396L369.165 517.522V483.532L353.572 479.166Z" fill="#B06458"/>
<path d="M382.574 479.166L369.165 483.532V517.522L304.613 577.396V630.204L318.958 629.16L376.649 642.447L363.671 566.17L382.574 525.942L393.02 481.349L382.574 479.166Z" fill="#B06458"/>
<path d="M421.866 479.166L403.467 483.532L393.02 481.349L382.574 525.942L363.671 566.17L376.649 642.447L421.866 652.862L464.516 672.196L527.58 646.625L499.514 605.774L434.339 508.791V477.139L421.866 479.166Z" fill="#D26868"/>
<path d="M481.863 486.981C474.948 484.122 468.624 480.276 464.516 475.112H446.813L434.339 477.139V508.791L499.514 605.774L515.73 541.846L556.581 538.104L481.863 486.981Z" fill="#D9938A"/>
<path d="M464.516 475.112C459.539 468.854 454.921 457.025 454.921 457.025H439.953L410.328 451.724L406.896 451.946L337.717 456.435L328.625 457.025L311.786 466.068L294.946 475.112V492.494L318.958 487.274H341.099L353.572 479.166L369.165 483.532L382.574 479.166L393.02 481.349L403.467 483.532L421.866 479.166L434.339 477.139L446.813 475.112H464.516Z" fill="#D9D9D9"/>
<path d="M333.303 418.669L337.717 456.435L406.896 451.946L410.328 422.723L382.574 393.381L376.649 407.13H353.572L345.153 396.586L333.303 418.669Z" fill="#A4B8C0"/>
<path d="M410.328 422.723L421.866 407.13C411.412 396.325 431.12 374.942 433.996 371.935C421.397 384.764 399.122 388.682 382.574 393.381L410.328 422.723Z" fill="#C3D9DC"/>
<path d="M345.153 396.586L353.572 407.13H376.649L382.574 393.381C376.476 395.112 370.161 396.201 363.671 396.586C357.531 396.95 351.472 396.67 345.536 395.794L345.153 396.586Z" fill="#9D463D"/>
<path d="M259.084 422.723C248.385 423.339 228.524 418.669 228.524 418.669C228.524 418.669 213.564 420.78 202.329 427.088C186.507 435.972 173.64 463.574 173.64 463.574L195.781 451.724C195.781 451.724 201.259 437.58 209.19 435.82C217.431 433.991 223.166 438.963 228.524 445.487C236.871 455.651 228.524 479.166 228.524 479.166L209.19 517.522L173.64 525.942L189.856 538.104L215.115 545.276L248.794 517.522L283.096 495.07V457.025L259.084 422.723Z" fill="#D0726E"/>
<path d="M195.781 451.724L173.64 463.574C173.64 463.574 166.098 470.337 161.166 479.166C156.234 487.995 144.582 496.776 148.381 508.791C151.976 520.159 173.64 525.942 173.64 525.942L209.19 517.522L228.524 479.166C228.524 479.166 236.871 455.651 228.524 445.487C223.166 438.963 217.431 433.991 209.19 435.82C201.259 437.58 195.781 451.724 195.781 451.724Z" fill="#FAFAE6"/>
<path d="M464.516 396.586C446.512 402.5 434.339 371.58 434.339 371.58C434.226 371.699 434.111 371.818 433.996 371.935C431.12 374.942 411.412 396.325 421.866 407.13C427.248 412.694 439.953 415.238 439.953 415.238V457.025H454.921C454.921 457.025 459.539 468.854 464.516 475.112L481.863 486.981C498.877 494.014 519.472 495.07 519.472 495.07L504.192 457.025V402.141C491.917 386.397 482.154 390.062 470.559 394.415C468.604 395.149 466.596 395.903 464.516 396.586Z" fill="#C4A1A8"/>
<path d="M439.953 457.025V415.238C439.953 415.238 427.248 412.694 421.866 407.13L410.328 422.723L406.896 451.946L410.328 451.724L439.953 457.025Z" fill="#93A1A3"/>
<path d="M584.023 418.669C584.023 418.669 573.888 402.801 564.066 396.586C554.976 390.835 539.477 389.125 531.946 388.624C529.254 388.445 527.58 388.42 527.58 388.42C527.58 388.42 524.409 392.567 520.286 396.586C514.896 401.839 507.881 406.872 504.192 402.141V457.025L519.472 495.07L531.946 508.791L549.721 513.157L567.496 517.522L584.023 504.425L567.496 499.747L571.55 487.274L556.581 479.166L564.066 457.025C564.066 457.025 554.976 451.37 552.527 445.487C549.058 437.15 556.581 422.723 556.581 422.723C556.581 422.723 562.376 415.943 567.496 415.238C575.364 414.155 584.023 427.088 584.023 427.088V418.669Z" fill="#D0726E"/>
<path d="M584.023 427.088C584.023 427.088 575.364 414.155 567.496 415.238C562.376 415.943 556.581 422.723 556.581 422.723C556.581 422.723 549.058 437.15 552.527 445.487C554.976 451.37 564.066 457.025 564.066 457.025L556.581 479.166L571.55 487.274L567.496 499.747L584.023 504.425H601.175C601.175 504.425 615.561 490.695 616.767 479.166C617.692 470.323 615.056 465.159 611.466 457.025C605.061 442.516 584.023 427.088 584.023 427.088Z" fill="#FAFAE6"/>
<path d="M531.946 508.791L519.472 495.07C519.472 495.07 498.877 494.014 481.863 486.981L556.581 538.104L571.55 545.5L549.721 513.157L531.946 508.791Z" fill="#E2B0A7"/>
<path d="M520.286 396.586C524.409 392.567 527.58 388.42 527.58 388.42C527.58 388.42 529.254 388.445 531.946 388.624L485.023 304.535C482.128 312.107 478.806 319.057 475.191 324.804C490.366 355.272 520.286 396.586 520.286 396.586Z" fill="#A68447"/>
<path d="M259.084 422.723C271.706 421.995 288.086 414.615 288.086 414.615L310.226 396.586L304.613 379.205C295.003 372.524 287.328 365.466 281.213 357.548L259.084 422.723Z" fill="#231A13"/>
<path d="M746.805 590.445V576.955L659.489 545.276L644.275 566.17L636.101 577.396L571.55 545.5L556.581 538.104L515.73 541.846L499.514 605.774L527.58 646.625L464.516 672.196L421.866 652.862L376.649 642.447L318.958 629.16L304.613 630.204L267.504 632.904L255.355 625.108L209.19 595.483L167.091 588.622L137.154 625.108L112.519 595.483L24.8913 680.304L53.8926 697.767L61.3768 728.639L128.423 697.767L155.865 692.154L178.006 720.531H195.781L209.19 734.876L231.954 732.069L259.084 758.264L315.216 758.888L341.099 784.459L346.712 782.692L357.938 779.157L373.218 786.018L386.94 775.727L414.07 798.492L454.921 786.018L470.357 788.357L485.793 790.696L499.514 779.157H519.472L531.946 762.63H556.581L564.066 743.919L560.323 720.531L571.55 702.444L560.323 688.1L571.55 667.206L564.066 652.862L592.755 632.904L601.175 613.57L611.154 610.139L611.466 595.483L645.768 605.774L690.05 610.139L672.586 620.43H652.629L641.714 632.904L611.466 625.108L614.284 629.16L626.434 646.625H636.101H645.768L672.586 657.539L690.05 646.625L710.007 632.904L720.922 620.43L716.244 610.139V605.774H732.148L737.449 595.483L746.805 590.445Z" fill="#F1C8C9"/>
<path d="M659.489 545.276L567.496 517.522L644.275 566.17L659.489 545.276Z" fill="#CA9192"/>
<path d="M567.496 517.522L549.721 513.157L571.55 545.5L636.101 577.396L644.275 566.17L567.496 517.522Z" fill="#D26868"/>
<path d="M611.154 610.139L601.175 613.57L611.466 625.108L641.714 632.904L652.629 620.43H672.586L690.05 610.139L645.768 605.774L611.466 595.483L611.154 610.139Z" fill="#D7F4F6"/>
<path d="M636.101 646.625H626.434L614.284 629.16L577.475 657.539L584.023 683.734V713.359L577.475 743.919L672.586 692.154L636.101 646.625Z" fill="#F6A5A5"/>
<path d="M560.323 720.531L564.066 743.919H577.475L584.023 713.359V683.734L577.475 657.539L614.284 629.16L611.466 625.108L601.175 613.57L592.755 632.904L564.066 652.862L571.55 667.206L560.323 688.1L571.55 702.444L560.323 720.531Z" fill="#D7F4F6"/>
<path d="M215.115 545.276L189.856 538.104L112.519 595.483L137.154 625.108L167.091 588.622L215.115 545.276Z" fill="#D26868"/>
<path d="M195.781 720.531H178.006L222.287 762.63V775.727L238.503 780.5L283.408 793.719L299.624 798.492L310.226 786.018L335.486 790.696L341.099 784.459L315.216 758.888L259.084 758.264L231.954 732.069L209.19 734.876L195.781 720.531Z" fill="#F6A5A5"/>
<path d="M238.503 780.5L226.965 824.998L231.954 827.506L289.021 856.182L283.408 793.719L238.503 780.5Z" fill="#2D151C"/>
<path d="M310.226 786.018L299.624 798.492L283.408 793.719L289.021 856.182L341.099 842.382L351.39 839.655L346.712 782.692L341.099 784.459L335.486 790.696L310.226 786.018Z" fill="#4A1726"/>
<path d="M289.021 856.182L231.954 827.506C231.954 827.506 213.838 839.203 213.244 850.881C212.908 857.472 214.158 861.731 218 867.097C243.544 880.98 254.653 898.364 283.408 902.647C307.605 906.25 321.187 897.135 345.394 893.603C347.736 889.219 349.815 887.091 351.39 882.377C356.498 867.08 341.099 842.382 341.099 842.382L289.021 856.182Z" fill="#D2F8EC"/>
<path d="M226.965 897.657C239.369 916.753 257.071 919.782 279.666 922.605C301.672 925.354 320.845 928.816 335.486 912.158C340.909 905.988 343.283 901.542 345.394 893.603C321.187 897.135 307.605 906.25 283.408 902.647C254.653 898.364 243.544 880.98 218 867.097C221.501 879.031 220.189 887.227 226.965 897.657Z" fill="#776159"/>
<path d="M454.921 859.613C440.833 857.482 418.435 859.613 418.435 859.613C418.435 859.613 406.793 883.832 400.972 893.603C395.151 903.374 404.892 909.844 404.892 909.844C404.892 909.844 488.41 911.254 541.925 912.158C544.482 906.495 547.455 903.787 548.474 897.657C550.162 887.49 541.301 872.26 541.301 872.26C541.301 872.26 523.469 876.439 511.988 875.517C500.457 874.59 483.454 867.565 483.454 867.565C483.454 867.565 466.359 861.342 454.921 859.613Z" fill="#D2F8EC"/>
<path d="M414.07 922.605C445.262 958.294 511.042 967.335 535.376 926.659C538.566 921.326 540.034 918.077 541.925 912.158C488.41 911.254 404.892 909.844 404.892 909.844C404.892 909.844 410.03 917.983 414.07 922.605Z" fill="#776159"/>
<path d="M454.921 786.018L414.07 798.492V816.267V833.106L408.457 846.827V859.613H418.435C418.435 859.613 440.833 857.482 454.921 859.613C466.359 861.342 483.454 867.565 483.454 867.565L470.357 788.357L454.921 786.018Z" fill="#62192F"/>
<path d="M499.514 779.157L485.793 790.696L470.357 788.357L483.454 867.565C483.454 867.565 500.457 874.59 511.988 875.517C523.469 876.439 541.301 872.26 541.301 872.26L548.474 871.463L541.301 839.655L543.484 814.396L531.946 762.63L519.472 779.157H499.514Z" fill="#A12C53"/>
<path d="M193.406 496.211C193.406 475.224 210.419 458.211 231.406 458.211H551.275C572.262 458.211 589.275 475.224 589.275 496.211V758.371C589.275 779.358 572.262 796.371 551.275 796.371H231.406C210.419 796.371 193.406 779.358 193.406 758.371V496.211Z" fill="#FECACA"/>
<path d="M193.406 496.211C193.406 475.224 210.419 458.211 231.406 458.211H551.275C572.262 458.211 589.275 475.224 589.275 496.211V758.371C589.275 779.358 572.262 796.371 551.275 796.371H231.406C210.419 796.371 193.406 779.358 193.406 758.371V496.211Z" fill="#FECACA"/>
<path d="M231.406 796.371H551.275C572.262 796.371 589.275 779.358 589.275 758.371V496.211C589.275 475.224 572.262 458.211 551.275 458.211H231.406C210.419 458.211 193.406 475.224 193.406 496.211V758.371C193.406 779.358 210.419 796.371 231.406 796.371Z" stroke="#952547" stroke-width="10"/>
<path d="M257.686 673.289C257.286 673.289 256.926 673.149 256.606 672.869C256.326 672.549 256.186 672.189 256.186 671.789V642.689C256.186 642.249 256.326 641.889 256.606 641.609C256.926 641.329 257.286 641.189 257.686 641.189H266.266C268.626 641.189 270.686 641.669 272.446 642.629C274.206 643.549 275.566 644.809 276.526 646.409C277.526 648.009 278.026 649.849 278.026 651.929C278.026 653.849 277.586 655.629 276.706 657.269C275.866 658.909 274.566 660.229 272.806 661.229C271.086 662.229 268.906 662.729 266.266 662.729H259.186V671.789C259.186 672.189 259.046 672.549 258.766 672.869C258.486 673.149 258.126 673.289 257.686 673.289ZM259.186 644.189V659.729H266.266C269.106 659.729 271.266 658.989 272.746 657.509C274.266 655.989 275.026 654.129 275.026 651.929C275.026 649.609 274.206 647.749 272.566 646.349C270.926 644.909 268.826 644.189 266.266 644.189H259.186ZM309.082 673.289C308.402 673.289 307.942 672.969 307.702 672.329C307.302 671.249 306.822 670.049 306.262 668.729C305.702 667.409 305.102 666.029 304.462 664.589H287.542C286.982 666.029 286.442 667.409 285.922 668.729C285.442 670.009 285.002 671.189 284.602 672.269C284.482 672.589 284.282 672.849 284.002 673.049C283.722 673.209 283.422 673.289 283.102 673.289C282.742 673.289 282.402 673.149 282.082 672.869C281.802 672.549 281.662 672.169 281.662 671.729C281.662 671.609 281.682 671.449 281.722 671.249C281.802 671.009 281.982 670.549 282.262 669.869C282.942 668.069 283.742 666.009 284.662 663.689C285.622 661.369 286.642 658.949 287.722 656.429C288.802 653.909 289.902 651.369 291.022 648.809C292.142 646.249 293.222 643.829 294.262 641.549C294.542 640.949 295.022 640.649 295.702 640.649H295.942C296.662 640.649 297.142 640.929 297.382 641.489C298.462 643.809 299.602 646.309 300.802 648.989C302.042 651.669 303.242 654.329 304.402 656.969C305.562 659.569 306.622 662.009 307.582 664.289C308.542 666.529 309.322 668.389 309.922 669.869C310.242 670.589 310.422 671.069 310.462 671.309C310.542 671.549 310.582 671.709 310.582 671.789C310.582 672.189 310.422 672.549 310.102 672.869C309.822 673.149 309.482 673.289 309.082 673.289ZM303.202 661.589C302.042 658.909 300.822 656.169 299.542 653.369C298.262 650.569 297.022 647.909 295.822 645.389C294.702 647.949 293.522 650.629 292.282 653.429C291.082 656.189 289.922 658.909 288.802 661.589H303.202ZM303.142 630.629C301.782 631.429 300.442 632.249 299.122 633.089C297.802 633.929 296.722 634.669 295.882 635.309C295.682 635.469 295.422 635.549 295.102 635.549C294.702 635.549 294.382 635.409 294.142 635.129C293.902 634.849 293.782 634.529 293.782 634.169C293.782 633.689 293.962 633.329 294.322 633.089C295.242 632.489 296.382 631.769 297.742 630.929C299.102 630.049 300.462 629.169 301.822 628.289C302.022 628.169 302.222 628.109 302.422 628.109C302.862 628.109 303.202 628.249 303.442 628.529C303.682 628.809 303.802 629.109 303.802 629.429C303.802 629.989 303.582 630.389 303.142 630.629ZM344.734 670.649C343.254 671.569 341.574 672.329 339.694 672.929C337.854 673.529 335.694 673.829 333.214 673.829C329.774 673.829 326.834 673.109 324.394 671.669C321.994 670.189 320.154 668.209 318.874 665.729C317.594 663.249 316.954 660.489 316.954 657.449C316.954 654.089 317.654 651.149 319.054 648.629C320.494 646.109 322.454 644.149 324.934 642.749C327.414 641.349 330.234 640.649 333.394 640.649C335.154 640.649 336.794 640.829 338.314 641.189C339.874 641.509 341.334 641.909 342.694 642.389C343.334 642.629 343.654 643.089 343.654 643.769C343.654 644.169 343.514 644.529 343.234 644.849C342.994 645.129 342.634 645.269 342.154 645.269C342.034 645.269 341.854 645.229 341.614 645.149C340.454 644.709 339.194 644.349 337.834 644.069C336.474 643.789 334.994 643.649 333.394 643.649C330.794 643.649 328.474 644.229 326.434 645.389C324.434 646.549 322.854 648.169 321.694 650.249C320.534 652.289 319.954 654.689 319.954 657.449C319.954 659.929 320.474 662.189 321.514 664.229C322.554 666.229 324.054 667.829 326.014 669.029C328.014 670.229 330.414 670.829 333.214 670.829C335.174 670.829 336.894 670.629 338.374 670.229C339.894 669.789 341.274 669.229 342.514 668.549V659.849H334.174C333.774 659.849 333.414 659.709 333.094 659.429C332.814 659.109 332.674 658.749 332.674 658.349C332.674 657.909 332.814 657.549 333.094 657.269C333.414 656.989 333.774 656.849 334.174 656.849H343.354C344.114 656.849 344.654 656.969 344.974 657.209C345.334 657.409 345.514 657.789 345.514 658.349V669.149C345.514 669.829 345.254 670.329 344.734 670.649ZM359.564 671.789C359.564 672.189 359.424 672.549 359.144 672.869C358.864 673.149 358.504 673.289 358.064 673.289C357.664 673.289 357.304 673.149 356.984 672.869C356.704 672.549 356.564 672.189 356.564 671.789V642.689C356.564 642.249 356.704 641.889 356.984 641.609C357.304 641.329 357.664 641.189 358.064 641.189C358.504 641.189 358.864 641.329 359.144 641.609C359.424 641.889 359.564 642.249 359.564 642.689V671.789ZM394.895 672.689C393.535 670.849 391.955 668.789 390.155 666.509C388.395 664.229 386.575 661.909 384.695 659.549C382.815 657.149 380.995 654.829 379.235 652.589C377.515 650.349 375.975 648.369 374.615 646.649V671.789C374.615 672.189 374.475 672.549 374.195 672.869C373.915 673.149 373.555 673.289 373.115 673.289C372.715 673.289 372.355 673.149 372.035 672.869C371.755 672.549 371.615 672.189 371.615 671.789V642.689C371.615 642.249 371.755 641.889 372.035 641.609C372.355 641.329 372.695 641.189 373.055 641.189C373.855 641.189 374.395 641.389 374.675 641.789C375.675 643.109 376.975 644.809 378.575 646.889C380.175 648.929 381.915 651.169 383.795 653.609C385.715 656.009 387.635 658.449 389.555 660.929C391.515 663.369 393.315 665.669 394.955 667.829V642.689C394.955 642.249 395.095 641.889 395.375 641.609C395.695 641.329 396.055 641.189 396.455 641.189C396.895 641.189 397.255 641.329 397.535 641.609C397.815 641.889 397.955 642.249 397.955 642.689V671.789C397.955 672.189 397.815 672.549 397.535 672.869C397.255 673.149 396.915 673.289 396.515 673.289C395.715 673.289 395.175 673.089 394.895 672.689ZM434.121 673.289C433.441 673.289 432.981 672.969 432.741 672.329C432.341 671.249 431.861 670.049 431.301 668.729C430.741 667.409 430.141 666.029 429.501 664.589H412.581C412.021 666.029 411.481 667.409 410.961 668.729C410.481 670.009 410.041 671.189 409.641 672.269C409.521 672.589 409.321 672.849 409.041 673.049C408.761 673.209 408.461 673.289 408.141 673.289C407.781 673.289 407.441 673.149 407.121 672.869C406.841 672.549 406.701 672.169 406.701 671.729C406.701 671.609 406.721 671.449 406.761 671.249C406.841 671.009 407.021 670.549 407.301 669.869C407.981 668.069 408.781 666.009 409.701 663.689C410.661 661.369 411.681 658.949 412.761 656.429C413.841 653.909 414.941 651.369 416.061 648.809C417.181 646.249 418.261 643.829 419.301 641.549C419.581 640.949 420.061 640.649 420.741 640.649H420.981C421.701 640.649 422.181 640.929 422.421 641.489C423.501 643.809 424.641 646.309 425.841 648.989C427.081 651.669 428.281 654.329 429.441 656.969C430.601 659.569 431.661 662.009 432.621 664.289C433.581 666.529 434.361 668.389 434.961 669.869C435.281 670.589 435.461 671.069 435.501 671.309C435.581 671.549 435.621 671.709 435.621 671.789C435.621 672.189 435.461 672.549 435.141 672.869C434.861 673.149 434.521 673.289 434.121 673.289ZM428.241 661.589C427.081 658.909 425.861 656.169 424.581 653.369C423.301 650.569 422.061 647.909 420.861 645.389C419.741 647.949 418.561 650.629 417.321 653.429C416.121 656.189 414.961 658.909 413.841 661.589H428.241ZM485.071 672.689C483.711 670.849 482.131 668.789 480.331 666.509C478.571 664.229 476.751 661.909 474.871 659.549C472.991 657.149 471.171 654.829 469.411 652.589C467.691 650.349 466.151 648.369 464.791 646.649V671.789C464.791 672.189 464.651 672.549 464.371 672.869C464.091 673.149 463.731 673.289 463.291 673.289C462.891 673.289 462.531 673.149 462.211 672.869C461.931 672.549 461.791 672.189 461.791 671.789V642.689C461.791 642.249 461.931 641.889 462.211 641.609C462.531 641.329 462.871 641.189 463.231 641.189C464.031 641.189 464.571 641.389 464.851 641.789C465.851 643.109 467.151 644.809 468.751 646.889C470.351 648.929 472.091 651.169 473.971 653.609C475.891 656.009 477.811 658.449 479.731 660.929C481.691 663.369 483.491 665.669 485.131 667.829V642.689C485.131 642.249 485.271 641.889 485.551 641.609C485.871 641.329 486.231 641.189 486.631 641.189C487.071 641.189 487.431 641.329 487.711 641.609C487.991 641.889 488.131 642.249 488.131 642.689V671.789C488.131 672.189 487.991 672.549 487.711 672.869C487.431 673.149 487.091 673.289 486.691 673.289C485.891 673.289 485.351 673.089 485.071 672.689ZM513.317 640.649C516.157 640.649 518.737 641.349 521.057 642.749C523.417 644.149 525.277 646.109 526.637 648.629C528.037 651.109 528.737 653.989 528.737 657.269C528.737 660.389 528.117 663.209 526.877 665.729C525.677 668.209 523.917 670.189 521.597 671.669C519.317 673.109 516.557 673.829 513.317 673.829C510.277 673.829 507.577 673.109 505.217 671.669C502.857 670.189 500.997 668.209 499.637 665.729C498.317 663.249 497.657 660.489 497.657 657.449C497.657 654.089 498.317 651.149 499.637 648.629C500.957 646.109 502.777 644.149 505.097 642.749C507.457 641.349 510.197 640.649 513.317 640.649ZM513.317 643.649C510.797 643.649 508.577 644.249 506.657 645.449C504.777 646.609 503.297 648.229 502.217 650.309C501.177 652.349 500.657 654.729 500.657 657.449C500.657 659.889 501.177 662.129 502.217 664.169C503.297 666.209 504.797 667.829 506.717 669.029C508.637 670.229 510.837 670.829 513.317 670.829C515.957 670.829 518.197 670.229 520.037 669.029C521.917 667.829 523.337 666.209 524.297 664.169C525.257 662.089 525.737 659.789 525.737 657.269C525.737 654.629 525.177 652.289 524.057 650.249C522.977 648.209 521.497 646.609 519.617 645.449C517.737 644.249 515.637 643.649 513.317 643.649ZM223.291 730.289C222.891 730.289 222.531 730.149 222.211 729.869C221.931 729.549 221.791 729.189 221.791 728.789V699.689C221.791 699.289 221.911 698.949 222.151 698.669C222.431 698.349 222.751 698.189 223.111 698.189H239.911C240.351 698.189 240.711 698.329 240.991 698.609C241.271 698.889 241.411 699.249 241.411 699.689C241.411 700.089 241.271 700.449 240.991 700.769C240.711 701.049 240.351 701.189 239.911 701.189H224.791V711.629H237.331C237.771 711.629 238.131 711.769 238.411 712.049C238.691 712.329 238.831 712.689 238.831 713.129C238.831 713.529 238.691 713.889 238.411 714.209C238.131 714.489 237.771 714.629 237.331 714.629H224.791V727.289H240.031C240.471 727.289 240.831 727.429 241.111 727.709C241.391 727.989 241.531 728.349 241.531 728.789C241.531 729.189 241.391 729.549 241.111 729.869C240.831 730.149 240.471 730.289 240.031 730.289H223.291ZM274.309 729.689C272.949 727.849 271.369 725.789 269.569 723.509C267.809 721.229 265.989 718.909 264.109 716.549C262.229 714.149 260.409 711.829 258.649 709.589C256.929 707.349 255.389 705.369 254.029 703.649V728.789C254.029 729.189 253.889 729.549 253.609 729.869C253.329 730.149 252.969 730.289 252.529 730.289C252.129 730.289 251.769 730.149 251.449 729.869C251.169 729.549 251.029 729.189 251.029 728.789V699.689C251.029 699.249 251.169 698.889 251.449 698.609C251.769 698.329 252.109 698.189 252.469 698.189C253.269 698.189 253.809 698.389 254.089 698.789C255.089 700.109 256.389 701.809 257.989 703.889C259.589 705.929 261.329 708.169 263.209 710.609C265.129 713.009 267.049 715.449 268.969 717.929C270.929 720.369 272.729 722.669 274.369 724.829V699.689C274.369 699.249 274.509 698.889 274.789 698.609C275.109 698.329 275.469 698.189 275.869 698.189C276.309 698.189 276.669 698.329 276.949 698.609C277.229 698.889 277.369 699.249 277.369 699.689V728.789C277.369 729.189 277.229 729.549 276.949 729.869C276.669 730.149 276.329 730.289 275.929 730.289C275.129 730.289 274.589 730.089 274.309 729.689ZM310.715 702.209C308.755 701.169 306.275 700.649 303.275 700.649C300.875 700.649 298.655 701.229 296.615 702.389C294.615 703.549 292.995 705.169 291.755 707.249C290.515 709.289 289.895 711.689 289.895 714.449C289.895 716.969 290.435 719.249 291.515 721.289C292.595 723.289 294.155 724.889 296.195 726.089C298.275 727.249 300.755 727.829 303.635 727.829C305.075 727.829 306.415 727.689 307.655 727.409C308.935 727.129 310.075 726.729 311.075 726.209C311.275 726.089 311.495 726.029 311.735 726.029C312.175 726.029 312.535 726.169 312.815 726.449C313.095 726.729 313.235 727.089 313.235 727.529C313.235 728.169 312.955 728.609 312.395 728.849C311.195 729.489 309.855 729.969 308.375 730.289C306.895 730.649 305.315 730.829 303.635 730.829C300.115 730.829 297.095 730.109 294.575 728.669C292.095 727.229 290.195 725.269 288.875 722.789C287.555 720.309 286.895 717.529 286.895 714.449C286.895 711.089 287.655 708.149 289.175 705.629C290.695 703.109 292.695 701.149 295.175 699.749C297.655 698.349 300.355 697.649 303.275 697.649C306.875 697.649 309.835 698.289 312.155 699.569C312.675 699.889 312.935 700.329 312.935 700.889C312.935 701.249 312.795 701.589 312.515 701.909C312.235 702.229 311.875 702.389 311.435 702.389C311.195 702.389 310.955 702.329 310.715 702.209ZM336.54 697.649C339.38 697.649 341.96 698.349 344.28 699.749C346.64 701.149 348.5 703.109 349.86 705.629C351.26 708.109 351.96 710.989 351.96 714.269C351.96 717.389 351.34 720.209 350.1 722.729C348.9 725.209 347.14 727.189 344.82 728.669C342.54 730.109 339.78 730.829 336.54 730.829C333.5 730.829 330.8 730.109 328.44 728.669C326.08 727.189 324.22 725.209 322.86 722.729C321.54 720.249 320.88 717.489 320.88 714.449C320.88 711.089 321.54 708.149 322.86 705.629C324.18 703.109 326 701.149 328.32 699.749C330.68 698.349 333.42 697.649 336.54 697.649ZM336.54 700.649C334.02 700.649 331.8 701.249 329.88 702.449C328 703.609 326.52 705.229 325.44 707.309C324.4 709.349 323.88 711.729 323.88 714.449C323.88 716.889 324.4 719.129 325.44 721.169C326.52 723.209 328.02 724.829 329.94 726.029C331.86 727.229 334.06 727.829 336.54 727.829C339.18 727.829 341.42 727.229 343.26 726.029C345.14 724.829 346.56 723.209 347.52 721.169C348.48 719.089 348.96 716.789 348.96 714.269C348.96 711.629 348.4 709.289 347.28 707.249C346.2 705.209 344.72 703.609 342.84 702.449C340.96 701.249 338.86 700.649 336.54 700.649ZM384.759 729.689C383.399 727.849 381.819 725.789 380.019 723.509C378.259 721.229 376.439 718.909 374.559 716.549C372.679 714.149 370.859 711.829 369.099 709.589C367.379 707.349 365.839 705.369 364.479 703.649V728.789C364.479 729.189 364.339 729.549 364.059 729.869C363.779 730.149 363.419 730.289 362.979 730.289C362.579 730.289 362.219 730.149 361.899 729.869C361.619 729.549 361.479 729.189 361.479 728.789V699.689C361.479 699.249 361.619 698.889 361.899 698.609C362.219 698.329 362.559 698.189 362.919 698.189C363.719 698.189 364.259 698.389 364.539 698.789C365.539 700.109 366.839 701.809 368.439 703.889C370.039 705.929 371.779 708.169 373.659 710.609C375.579 713.009 377.499 715.449 379.419 717.929C381.379 720.369 383.179 722.669 384.819 724.829V699.689C384.819 699.249 384.959 698.889 385.239 698.609C385.559 698.329 385.919 698.189 386.319 698.189C386.759 698.189 387.119 698.329 387.399 698.609C387.679 698.889 387.819 699.249 387.819 699.689V728.789C387.819 729.189 387.679 729.549 387.399 729.869C387.119 730.149 386.779 730.289 386.379 730.289C385.579 730.289 385.039 730.089 384.759 729.689ZM409.945 730.289C409.545 730.289 409.185 730.149 408.865 729.869C408.585 729.549 408.445 729.189 408.445 728.789V701.189H397.225C396.825 701.189 396.465 701.049 396.145 700.769C395.865 700.449 395.725 700.089 395.725 699.689C395.725 699.249 395.865 698.889 396.145 698.609C396.465 698.329 396.825 698.189 397.225 698.189H422.905C423.345 698.189 423.705 698.329 423.985 698.609C424.265 698.889 424.405 699.249 424.405 699.689C424.405 700.089 424.265 700.449 423.985 700.769C423.705 701.049 423.345 701.189 422.905 701.189H411.445V728.789C411.445 729.189 411.305 729.549 411.025 729.869C410.745 730.149 410.385 730.289 409.945 730.289ZM454.278 730.289C453.838 730.289 453.458 730.109 453.138 729.749L443.358 718.349H435.318V728.789C435.318 729.189 435.178 729.549 434.898 729.869C434.618 730.149 434.258 730.289 433.818 730.289C433.418 730.289 433.058 730.149 432.738 729.869C432.458 729.549 432.318 729.189 432.318 728.789V699.689C432.318 699.249 432.458 698.889 432.738 698.609C433.058 698.329 433.418 698.189 433.818 698.189H442.638C444.998 698.189 447.018 698.629 448.698 699.509C450.418 700.389 451.738 701.589 452.658 703.109C453.618 704.589 454.098 706.309 454.098 708.269C454.098 710.429 453.498 712.389 452.298 714.149C451.138 715.909 449.318 717.129 446.838 717.809L455.418 727.829C455.658 728.069 455.778 728.389 455.778 728.789C455.778 729.149 455.638 729.489 455.358 729.809C455.078 730.129 454.718 730.289 454.278 730.289ZM435.318 701.189V715.349H442.638C445.398 715.349 447.498 714.669 448.938 713.309C450.378 711.909 451.098 710.229 451.098 708.269C451.098 706.149 450.298 704.449 448.698 703.169C447.138 701.849 445.118 701.189 442.638 701.189H435.318ZM491.016 730.289C490.336 730.289 489.876 729.969 489.636 729.329C489.236 728.249 488.756 727.049 488.196 725.729C487.636 724.409 487.036 723.029 486.396 721.589H469.476C468.916 723.029 468.376 724.409 467.856 725.729C467.376 727.009 466.936 728.189 466.536 729.269C466.416 729.589 466.216 729.849 465.936 730.049C465.656 730.209 465.356 730.289 465.036 730.289C464.676 730.289 464.336 730.149 464.016 729.869C463.736 729.549 463.596 729.169 463.596 728.729C463.596 728.609 463.616 728.449 463.656 728.249C463.736 728.009 463.916 727.549 464.196 726.869C464.876 725.069 465.676 723.009 466.596 720.689C467.556 718.369 468.576 715.949 469.656 713.429C470.736 710.909 471.836 708.369 472.956 705.809C474.076 703.249 475.156 700.829 476.196 698.549C476.476 697.949 476.956 697.649 477.636 697.649H477.876C478.596 697.649 479.076 697.929 479.316 698.489C480.396 700.809 481.536 703.309 482.736 705.989C483.976 708.669 485.176 711.329 486.336 713.969C487.496 716.569 488.556 719.009 489.516 721.289C490.476 723.529 491.256 725.389 491.856 726.869C492.176 727.589 492.356 728.069 492.396 728.309C492.476 728.549 492.516 728.709 492.516 728.789C492.516 729.189 492.356 729.549 492.036 729.869C491.756 730.149 491.416 730.289 491.016 730.289ZM485.136 718.589C483.976 715.909 482.756 713.169 481.476 710.369C480.196 707.569 478.956 704.909 477.756 702.389C476.636 704.949 475.456 707.629 474.216 710.429C473.016 713.189 471.856 715.909 470.736 718.589H485.136ZM502.901 730.289C502.501 730.289 502.141 730.149 501.821 729.869C501.541 729.549 501.401 729.189 501.401 728.789V699.689C501.401 699.249 501.541 698.889 501.821 698.609C502.141 698.329 502.501 698.189 502.901 698.189H513.461C516.101 698.189 518.561 698.869 520.841 700.229C523.161 701.589 525.021 703.469 526.421 705.869C527.861 708.269 528.581 711.049 528.581 714.209C528.581 717.209 527.941 719.929 526.661 722.369C525.421 724.769 523.661 726.689 521.381 728.129C519.141 729.569 516.501 730.289 513.461 730.289H502.901ZM504.401 701.189V727.289H513.461C515.941 727.289 518.081 726.709 519.881 725.549C521.721 724.349 523.121 722.769 524.081 720.809C525.081 718.809 525.581 716.609 525.581 714.209C525.581 711.689 525.021 709.449 523.901 707.489C522.781 705.529 521.301 703.989 519.461 702.869C517.621 701.749 515.621 701.189 513.461 701.189H504.401ZM562.266 730.289C561.586 730.289 561.126 729.969 560.886 729.329C560.486 728.249 560.006 727.049 559.446 725.729C558.886 724.409 558.286 723.029 557.646 721.589H540.726C540.166 723.029 539.626 724.409 539.106 725.729C538.626 727.009 538.186 728.189 537.786 729.269C537.666 729.589 537.466 729.849 537.186 730.049C536.906 730.209 536.606 730.289 536.286 730.289C535.926 730.289 535.586 730.149 535.266 729.869C534.986 729.549 534.846 729.169 534.846 728.729C534.846 728.609 534.866 728.449 534.906 728.249C534.986 728.009 535.166 727.549 535.446 726.869C536.126 725.069 536.926 723.009 537.846 720.689C538.806 718.369 539.826 715.949 540.906 713.429C541.986 710.909 543.086 708.369 544.206 705.809C545.326 703.249 546.406 700.829 547.446 698.549C547.726 697.949 548.206 697.649 548.886 697.649H549.126C549.846 697.649 550.326 697.929 550.566 698.489C551.646 700.809 552.786 703.309 553.986 705.989C555.226 708.669 556.426 711.329 557.586 713.969C558.746 716.569 559.806 719.009 560.766 721.289C561.726 723.529 562.506 725.389 563.106 726.869C563.426 727.589 563.606 728.069 563.646 728.309C563.726 728.549 563.766 728.709 563.766 728.789C563.766 729.189 563.606 729.549 563.286 729.869C563.006 730.149 562.666 730.289 562.266 730.289ZM556.386 718.589C555.226 715.909 554.006 713.169 552.726 710.369C551.446 707.569 550.206 704.909 549.006 702.389C547.886 704.949 546.706 707.629 545.466 710.429C544.266 713.189 543.106 715.909 541.986 718.589H556.386Z" fill="#62192F"/>
<path d="M247.501 574.199C247.068 574.199 246.678 574.048 246.331 573.744C246.028 573.398 245.876 573.008 245.876 572.574V541.049C245.876 540.616 246.006 540.248 246.266 539.944C246.569 539.598 246.916 539.424 247.306 539.424H265.506C265.983 539.424 266.373 539.576 266.676 539.879C266.979 540.183 267.131 540.573 267.131 541.049C267.131 541.483 266.979 541.873 266.676 542.219C266.373 542.523 265.983 542.674 265.506 542.674H249.126V553.984H262.711C263.188 553.984 263.578 554.136 263.881 554.439C264.184 554.743 264.336 555.133 264.336 555.609C264.336 556.043 264.184 556.433 263.881 556.779C263.578 557.083 263.188 557.234 262.711 557.234H249.126V570.949H265.636C266.113 570.949 266.503 571.101 266.806 571.404C267.109 571.708 267.261 572.098 267.261 572.574C267.261 573.008 267.109 573.398 266.806 573.744C266.503 574.048 266.113 574.199 265.636 574.199H247.501ZM301.341 574.199C300.864 574.199 300.452 574.004 300.106 573.614L289.511 561.264H280.801V572.574C280.801 573.008 280.649 573.398 280.346 573.744C280.042 574.048 279.652 574.199 279.176 574.199C278.742 574.199 278.352 574.048 278.006 573.744C277.702 573.398 277.551 573.008 277.551 572.574V541.049C277.551 540.573 277.702 540.183 278.006 539.879C278.352 539.576 278.742 539.424 279.176 539.424H288.731C291.287 539.424 293.476 539.901 295.296 540.854C297.159 541.808 298.589 543.108 299.586 544.754C300.626 546.358 301.146 548.221 301.146 550.344C301.146 552.684 300.496 554.808 299.196 556.714C297.939 558.621 295.967 559.943 293.281 560.679L302.576 571.534C302.836 571.794 302.966 572.141 302.966 572.574C302.966 572.964 302.814 573.333 302.511 573.679C302.207 574.026 301.817 574.199 301.341 574.199ZM280.801 542.674V558.014H288.731C291.721 558.014 293.996 557.278 295.556 555.804C297.116 554.288 297.896 552.468 297.896 550.344C297.896 548.048 297.029 546.206 295.296 544.819C293.606 543.389 291.417 542.674 288.731 542.674H280.801ZM336.507 574.199C336.03 574.199 335.618 574.004 335.272 573.614L324.677 561.264H315.967V572.574C315.967 573.008 315.815 573.398 315.512 573.744C315.208 574.048 314.818 574.199 314.342 574.199C313.908 574.199 313.518 574.048 313.172 573.744C312.868 573.398 312.717 573.008 312.717 572.574V541.049C312.717 540.573 312.868 540.183 313.172 539.879C313.518 539.576 313.908 539.424 314.342 539.424H323.897C326.453 539.424 328.642 539.901 330.462 540.854C332.325 541.808 333.755 543.108 334.752 544.754C335.792 546.358 336.312 548.221 336.312 550.344C336.312 552.684 335.662 554.808 334.362 556.714C333.105 558.621 331.133 559.943 328.447 560.679L337.742 571.534C338.002 571.794 338.132 572.141 338.132 572.574C338.132 572.964 337.98 573.333 337.677 573.679C337.373 574.026 336.983 574.199 336.507 574.199ZM315.967 542.674V558.014H323.897C326.887 558.014 329.162 557.278 330.722 555.804C332.282 554.288 333.062 552.468 333.062 550.344C333.062 548.048 332.195 546.206 330.462 544.819C328.772 543.389 326.583 542.674 323.897 542.674H315.967ZM362.76 538.839C365.837 538.839 368.632 539.598 371.145 541.114C373.702 542.631 375.717 544.754 377.19 547.484C378.707 550.171 379.465 553.291 379.465 556.844C379.465 560.224 378.793 563.279 377.45 566.009C376.15 568.696 374.243 570.841 371.73 572.444C369.26 574.004 366.27 574.784 362.76 574.784C359.467 574.784 356.542 574.004 353.985 572.444C351.428 570.841 349.413 568.696 347.94 566.009C346.51 563.323 345.795 560.333 345.795 557.039C345.795 553.399 346.51 550.214 347.94 547.484C349.37 544.754 351.342 542.631 353.855 541.114C356.412 539.598 359.38 538.839 362.76 538.839ZM362.76 542.089C360.03 542.089 357.625 542.739 355.545 544.039C353.508 545.296 351.905 547.051 350.735 549.304C349.608 551.514 349.045 554.093 349.045 557.039C349.045 559.683 349.608 562.109 350.735 564.319C351.905 566.529 353.53 568.284 355.61 569.584C357.69 570.884 360.073 571.534 362.76 571.534C365.62 571.534 368.047 570.884 370.04 569.584C372.077 568.284 373.615 566.529 374.655 564.319C375.695 562.066 376.215 559.574 376.215 556.844C376.215 553.984 375.608 551.449 374.395 549.239C373.225 547.029 371.622 545.296 369.585 544.039C367.548 542.739 365.273 542.089 362.76 542.089ZM413.567 574.199C413.091 574.199 412.679 574.004 412.332 573.614L401.737 561.264H393.027V572.574C393.027 573.008 392.876 573.398 392.572 573.744C392.269 574.048 391.879 574.199 391.402 574.199C390.969 574.199 390.579 574.048 390.232 573.744C389.929 573.398 389.777 573.008 389.777 572.574V541.049C389.777 540.573 389.929 540.183 390.232 539.879C390.579 539.576 390.969 539.424 391.402 539.424H400.957C403.514 539.424 405.702 539.901 407.522 540.854C409.386 541.808 410.816 543.108 411.812 544.754C412.852 546.358 413.372 548.221 413.372 550.344C413.372 552.684 412.722 554.808 411.422 556.714C410.166 558.621 408.194 559.943 405.507 560.679L414.802 571.534C415.062 571.794 415.192 572.141 415.192 572.574C415.192 572.964 415.041 573.333 414.737 573.679C414.434 574.026 414.044 574.199 413.567 574.199ZM393.027 542.674V558.014H400.957C403.947 558.014 406.222 557.278 407.782 555.804C409.342 554.288 410.122 552.468 410.122 550.344C410.122 548.048 409.256 546.206 407.522 544.819C405.832 543.389 403.644 542.674 400.957 542.674H393.027ZM461.154 574.199C460.72 574.199 460.33 574.048 459.984 573.744C459.68 573.398 459.529 573.008 459.529 572.574V566.139H441.264C440.83 566.139 440.44 565.988 440.094 565.684C439.79 565.338 439.639 564.948 439.639 564.514C439.639 564.081 439.769 563.734 440.029 563.474L459.464 539.944C459.854 539.468 460.157 539.164 460.374 539.034C460.59 538.861 460.85 538.774 461.154 538.774C461.63 538.774 462.02 538.926 462.324 539.229C462.627 539.533 462.779 539.923 462.779 540.399V562.889H468.174C468.65 562.889 469.04 563.041 469.344 563.344C469.647 563.648 469.799 564.038 469.799 564.514C469.799 564.948 469.647 565.338 469.344 565.684C469.04 565.988 468.65 566.139 468.174 566.139H462.779V572.574C462.779 573.008 462.627 573.398 462.324 573.744C462.02 574.048 461.63 574.199 461.154 574.199ZM459.529 544.949L444.709 562.889H459.529V544.949ZM490.29 538.904C492.89 538.904 495.273 539.663 497.44 541.179C499.65 542.653 501.405 544.733 502.705 547.419C504.048 550.063 504.72 553.161 504.72 556.714C504.72 560.051 504.135 563.084 502.965 565.814C501.838 568.544 500.192 570.711 498.025 572.314C495.902 573.918 493.323 574.719 490.29 574.719C487.517 574.719 485.025 573.918 482.815 572.314C480.605 570.711 478.85 568.566 477.55 565.879C476.293 563.149 475.665 560.138 475.665 556.844C475.665 553.248 476.293 550.106 477.55 547.419C478.807 544.733 480.54 542.653 482.75 541.179C484.96 539.663 487.473 538.904 490.29 538.904ZM490.29 542.154C487.993 542.154 485.978 542.804 484.245 544.104C482.555 545.361 481.233 547.094 480.28 549.304C479.37 551.514 478.915 554.028 478.915 556.844C478.915 559.401 479.392 561.806 480.345 564.059C481.298 566.269 482.62 568.068 484.31 569.454C486.043 570.798 488.037 571.469 490.29 571.469C492.76 571.469 494.818 570.776 496.465 569.389C498.112 568.003 499.347 566.204 500.17 563.994C501.037 561.741 501.47 559.314 501.47 556.714C501.47 553.941 500.972 551.471 499.975 549.304C499.022 547.094 497.7 545.361 496.01 544.104C494.32 542.804 492.413 542.154 490.29 542.154ZM532.501 574.199C532.068 574.199 531.678 574.048 531.331 573.744C531.028 573.398 530.876 573.008 530.876 572.574V566.139H512.611C512.178 566.139 511.788 565.988 511.441 565.684C511.138 565.338 510.986 564.948 510.986 564.514C510.986 564.081 511.116 563.734 511.376 563.474L530.811 539.944C531.201 539.468 531.505 539.164 531.721 539.034C531.938 538.861 532.198 538.774 532.501 538.774C532.978 538.774 533.368 538.926 533.671 539.229C533.975 539.533 534.126 539.923 534.126 540.399V562.889H539.521C539.998 562.889 540.388 563.041 540.691 563.344C540.995 563.648 541.146 564.038 541.146 564.514C541.146 564.948 540.995 565.338 540.691 565.684C540.388 565.988 539.998 566.139 539.521 566.139H534.126V572.574C534.126 573.008 533.975 573.398 533.671 573.744C533.368 574.048 532.978 574.199 532.501 574.199ZM530.876 544.949L516.056 562.889H530.876V544.949Z" fill="#62192F"/>
</svg>
