<svg width="128" height="256" viewBox="0 0 128 256" fill="none" xmlns="http://www.w3.org/2000/svg">
<g filter="url(#filter0_d_3615_548)">
<path d="M79.9466 161.922C82.7311 165.489 83.9153 168.338 85.0471 173.326C85.4722 175.199 85.6757 177.658 85.772 179.742C85.8735 181.939 84.5259 183.409 82.8213 183.072C81.4175 182.794 80.9471 181.511 80.7986 180.017C80.4526 176.534 79.6806 170.185 78.3359 165.969C78.2033 165.553 78.0523 165.117 77.8887 164.672C77.1218 162.585 78.7008 160.326 79.9466 161.922Z" fill="#FFFFE6"/>
<path d="M80.0494 43.9395C80.9229 43.6733 82.0475 43.7404 83.0415 43.9019C84.6533 44.1637 87.1497 44.242 87.2976 45.8682V45.8682C87.406 47.0602 85.4356 46.1987 84.3446 46.6917C82.3316 47.6013 82.0151 49.3641 80.0494 50.372C78.5344 51.1488 77.2185 52.6813 75.8763 51.6338C74.5816 50.6234 75.2711 48.9555 75.8763 47.4289C76.6593 45.4543 78.0172 44.5588 80.0494 43.9395Z" fill="#FFFFE6"/>
<path d="M61.7949 22.1144C62.391 19.7372 57.9283 21.7157 55.816 20.2041C53.7036 18.6925 50.4611 18.49 47.0302 20.2041C45.8589 20.7893 45.109 21.361 44.6294 21.8603C43.8702 22.6505 44.5942 23.5826 45.688 23.5165V23.5165C48.2542 23.3616 49.4768 21.4748 52.0321 21.7584C54.05 21.9823 54.7746 23.7379 56.8032 23.8234C58.8619 23.9103 61.2939 24.1127 61.7949 22.1144Z" fill="#FFFFE6"/>
<path d="M43.6862 79.4351C42.8732 77.7578 40.4324 78.2089 39.2811 77.5957C38.1298 76.9826 36.8747 76.7941 35.7554 77.5957C34.6557 78.3832 34.3706 79.5274 34.5997 80.8603C34.9059 82.6413 36.3915 83.4889 38.1714 83.8034C40.8771 84.2814 44.8843 81.9073 43.6862 79.4351Z" fill="#FFFFE6"/>
<path fill-rule="evenodd" clip-rule="evenodd" d="M90.6846 173.694C90.9199 179.305 90.4161 186.57 89.8792 188.042C89.308 189.607 88.4714 186.412 88.3388 184.671C87.6073 175.067 86.8413 167.955 81.8257 160.45C81.2623 159.607 80.519 158.674 79.8093 157.836L79.8079 157.834C78.3257 156.084 76.7721 154.451 75.1958 152.862C74.1533 151.812 72.9291 150.632 71.8932 149.782C67.1122 145.857 63.7739 144.805 58.2023 144.631C55.355 144.543 50.6447 143.525 49.075 146.839C48.5142 148.022 47.2975 149.729 48.5381 150.15C49.6928 150.541 49.555 148.405 50.6329 147.835C50.8554 147.717 51.0279 147.619 51.2226 147.574C51.2962 147.558 51.3703 147.542 51.4448 147.528C53.1958 147.203 53.9701 149.96 53.3702 151.621C52.7506 153.337 50.1488 153.461 49.075 153.461C49.0033 153.461 48.9195 153.462 48.825 153.463L48.8246 153.463C47.5042 153.478 44.0894 153.518 42.0953 151.253C40.752 149.727 39.9313 148.017 39.4108 145.735C38.5573 141.992 40.1367 137.191 42.0953 134.698C42.4776 134.212 42.8251 133.767 43.1444 133.358V133.358C43.1447 133.357 43.1445 133.357 43.1448 133.357C43.1544 133.348 46.2318 130.5 49.5937 128.502C50.1754 128.156 50.7657 127.836 51.35 127.56C52.6088 126.966 54.0135 126.818 55.4054 126.818V126.818C55.4054 126.818 60.3281 126.242 63.3942 126.818V126.818C70.1149 128.082 76.2087 132.274 80.4476 137.64C80.7218 137.987 81.0014 138.355 81.2888 138.745C81.8247 139.473 81.08 140.473 80.4729 139.859C79.2451 138.617 77.9176 137.39 76.7252 136.538C74.1359 134.687 72.5619 133.918 69.7456 132.859C65.8707 131.402 63.7721 130.516 63.3942 131.02C62.9333 131.633 64.7684 132.067 69.5865 134.139C71.1843 134.826 72.7375 135.626 74.0408 136.538C75.5711 137.609 77.3362 139.475 78.7085 141.06C80.2907 142.887 81.7582 144.889 83.0902 147.059C84.9235 150.046 87.4696 154.693 88.537 158.979C89.9021 164.46 90.4392 167.843 90.6846 173.694ZM48.5381 143.896C47.2177 145.18 47.2781 148.301 45.5852 147.574C44.4184 147.073 44.3754 145.889 44.2038 144.631C43.9597 142.841 44.5897 141.724 45.5852 140.217C46.1673 139.335 47.19 138.581 48.2198 137.988C50.2539 136.819 52.6401 136.538 54.9865 136.538V136.538C57.6458 136.538 60.6121 136.684 62.3765 138.674C62.6959 139.034 62.9374 139.431 63.0343 139.859C63.7527 143.027 57.8099 138.875 54.7124 139.859C51.9665 140.73 50.6029 141.887 48.5381 143.896ZM85.3564 158.301C85.8621 156.806 77.1542 148.093 77.115 146.552C77.055 144.2 77.0644 141.564 74.7801 140.997C72.632 140.464 69.6456 142.086 70.1353 144.244C70.5638 146.133 79.531 155.204 81.4101 156.593C82.7605 157.591 84.8185 159.892 85.3564 158.301Z" fill="#FFFFE6"/>
<path d="M45.5852 147.574C47.2781 148.301 47.2177 145.18 48.5381 143.896C50.6029 141.887 51.9665 140.73 54.7124 139.859C57.8099 138.875 63.7527 143.027 63.0343 139.859C62.9374 139.431 62.6959 139.034 62.3765 138.674C60.6121 136.684 57.6458 136.538 54.9865 136.538V136.538C52.6401 136.538 50.2539 136.819 48.2198 137.988C47.19 138.581 46.1673 139.335 45.5852 140.217C44.5897 141.724 43.9597 142.841 44.2038 144.631C44.3754 145.889 44.4184 147.073 45.5852 147.574Z" fill="#FFFFE6"/>
<path fill-rule="evenodd" clip-rule="evenodd" d="M40.5164 119.064C40.2898 120.049 39.7897 123.303 41.3281 125.135C43.1389 127.291 45.8229 127.608 48.4099 126.496C51.0204 125.373 52.2818 123.182 52.2896 120.34C52.2939 118.753 52.1068 117.678 51.0944 116.455C49.0584 113.996 45.7191 114.923 42.9183 116.455C41.0953 117.453 40.743 118.079 40.5164 119.064ZM62.9062 120.34C64.7924 118.178 58.0312 116.231 55.8928 118.145C55.1484 118.811 54.652 119.346 54.5842 120.343C54.4367 122.512 57.8451 122.125 59.9803 121.715C61.22 121.476 62.0765 121.292 62.9062 120.34ZM33.8318 105.269C35.621 105.806 37.6412 105.659 38.076 107.475C38.2098 108.034 38.243 108.398 38.076 108.948C38.0039 109.186 37.86 109.385 37.6694 109.554C35.9814 111.045 33.3777 111.06 31.1258 111.098V111.098C29.1463 111.131 27.0668 111.636 26.2123 109.85C25.7321 108.847 25.8083 108.038 26.2123 107.002C26.6239 105.946 27.2126 105.45 28.1919 104.88C30.0995 103.768 31.7172 104.635 33.8318 105.269Z" fill="#FFFFE6"/>
<path d="M55.8928 118.145C58.0312 116.231 64.7924 118.178 62.9062 120.34C62.0765 121.292 61.22 121.476 59.9803 121.715C57.8451 122.125 54.4367 122.512 54.5842 120.343C54.652 119.346 55.1484 118.811 55.8928 118.145Z" fill="#FFFFE6"/>
<path d="M41.3281 125.135C39.7897 123.303 40.2898 120.049 40.5164 119.064C40.743 118.079 41.0953 117.453 42.9183 116.455C45.7191 114.923 49.0584 113.996 51.0944 116.455C52.1068 117.678 52.2939 118.753 52.2896 120.34C52.2818 123.182 51.0204 125.373 48.4099 126.496C45.8229 127.608 43.1389 127.291 41.3281 125.135Z" fill="#FFFFE6"/>
<path d="M38.076 107.475C37.6412 105.659 35.621 105.806 33.8318 105.269C31.7172 104.635 30.0995 103.768 28.1919 104.88C27.2126 105.45 26.6239 105.946 26.2123 107.002C25.8083 108.038 25.7321 108.847 26.2123 109.85C27.0668 111.636 29.1463 111.131 31.1258 111.098V111.098C33.3777 111.06 35.9814 111.045 37.6694 109.554C37.86 109.385 38.0039 109.186 38.076 108.948C38.243 108.398 38.2098 108.034 38.076 107.475Z" fill="#FFFFE6"/>
<path fill-rule="evenodd" clip-rule="evenodd" d="M39.2811 77.5957C40.4324 78.2089 42.8732 77.7578 43.6862 79.4351C44.8843 81.9073 40.8771 84.2814 38.1714 83.8034C36.3915 83.4889 34.9059 82.6413 34.5997 80.8603C34.3706 79.5274 34.6557 78.3832 35.7554 77.5957C36.8747 76.7941 38.1298 76.9826 39.2811 77.5957ZM55.816 20.2041C57.9283 21.7157 62.391 19.7372 61.7949 22.1144C61.2939 24.1127 58.8619 23.9103 56.8032 23.8234C54.7746 23.7379 54.05 21.9823 52.0321 21.7584C49.4768 21.4748 48.2542 23.3616 45.688 23.5165V23.5165C44.5942 23.5826 43.8702 22.6505 44.6294 21.8603C45.109 21.361 45.8589 20.7893 47.0302 20.2041C50.4611 18.49 53.7036 18.6925 55.816 20.2041ZM80.0494 43.9395C80.9229 43.6733 82.0475 43.7404 83.0415 43.9019C84.6533 44.1637 87.1497 44.242 87.2976 45.8682V45.8682C87.406 47.0602 85.4356 46.1987 84.3446 46.6917C82.3316 47.6013 82.0151 49.3641 80.0494 50.372C78.5344 51.1488 77.2185 52.6813 75.8763 51.6338C74.5816 50.6234 75.2711 48.9555 75.8763 47.4289C76.6593 45.4543 78.0172 44.5588 80.0494 43.9395ZM98.304 138.297C97.6954 133.092 96.8466 130.277 95.351 125.421C94.3988 122.329 92.9275 118.885 91.4066 115.696L91.4016 115.686L91.3787 115.638C87.6879 107.912 83.1791 100.948 77.9933 95.052C77.9911 95.0496 77.9889 95.0471 77.9867 95.0446L77.9622 95.0167C76.0937 92.8949 74.0989 90.8388 72.2644 89.3681C69.8856 87.461 64.0062 84.1399 62.9764 83.5626C62.8716 83.5039 62.6109 83.3617 62.7156 83.4207V83.4207L62.7162 83.421C62.7582 83.4447 62.8033 83.4701 62.8238 83.482C62.8292 83.4851 62.8328 83.4873 62.8344 83.4883V83.4883C62.8358 83.4892 62.8321 83.4876 62.8306 83.4868C62.8305 83.4867 62.8304 83.4867 62.8302 83.4866C62.8242 83.4835 62.8185 83.4799 62.813 83.4759V83.4759C63.6646 84.1122 64.978 85.3515 66.3359 86.6327L66.3361 86.6329C66.3364 86.6332 66.3368 86.6335 66.3371 86.6338C67.3632 87.602 68.4147 88.5941 69.3115 89.3681L69.5899 89.6372C74.7652 94.6411 79.5379 100.045 83.8637 105.8V105.8C84.2306 106.339 84.581 106.848 84.9165 107.335C84.918 107.337 84.9195 107.34 84.921 107.342L84.9212 107.342C86.7352 109.976 88.1151 111.98 89.3407 114.861L89.3409 114.861C89.8577 116.076 90.408 117.369 91.0558 118.799C91.4158 119.593 91.7318 120.269 92.0249 120.897C92.6356 122.204 93.1485 123.66 93.7543 125.379V125.379C94.2771 126.864 94.7539 128.36 95.1828 129.874C96.3697 134.065 98.7652 142.241 98.304 138.297Z" fill="#FFFFE6"/>
<path fill-rule="evenodd" clip-rule="evenodd" d="M77.3247 188.085C74.9321 186.13 73.3924 185.038 70.6135 184.774C70.4109 184.755 70.2107 184.734 70.0127 184.714L70.0125 184.714C67.3834 184.448 65.1598 184.223 63.3654 186.981C62.1732 188.814 61.9055 190.421 61.7547 192.868C61.6298 194.892 61.8767 196.083 62.2916 198.018C62.6797 199.828 63.5702 201.668 64.5167 203.245V203.245C66.9935 207.37 70.2613 199.147 74.4599 196.797C74.6569 196.686 74.8542 196.601 75.0503 196.546C77.0684 195.982 78.4811 196.733 80.1508 198.386C81.9437 200.16 82.7605 202.014 83.1038 205.008C83.4846 208.329 82.5751 210.397 81.3278 213.234L81.3244 213.242V213.242C81.2579 213.393 81.1892 213.541 81.1141 213.688C80.6836 214.532 79.1148 217.506 78.5618 217.148C77.4082 216.402 79.9795 214.561 80.4499 210.158C80.5781 208.958 80.7435 208.596 80.8145 207.583C80.8849 206.58 80.8145 206.064 80.8145 205.008C80.8145 203.491 79.5287 200.858 77.9861 199.857C76.9266 199.17 76.1324 199.07 74.7818 199.857C73.1688 200.798 72.0494 204.135 71.5128 206.103C71.2455 207.082 70.4954 208.278 71.1504 209.055V209.055V209.055C71.9346 209.984 73.3315 208.575 74.4318 208.056C75.1838 207.702 76.0304 207.531 76.5193 208.172C78.0793 210.217 76.2919 213.991 75.0503 216.411C74.4832 217.516 73.0764 219.092 72.1896 220.032C71.6859 220.566 71.0842 220.994 70.4276 221.322L67.7472 222.659C67.2804 222.893 66.7264 222.869 66.281 222.597V222.597C65.9226 222.378 65.6579 222.015 65.704 221.598C65.7702 220.997 66.0843 220.14 67.2653 219.723C67.6288 219.595 67.9432 219.542 68.2427 219.492C68.7145 219.413 69.1494 219.341 69.6813 218.987C70.0336 218.753 70.3783 218.451 70.6969 218.13C71.9519 216.864 73.3575 215.19 72.8953 213.469V213.469V213.469C72.4823 211.931 70.7422 210.541 69.2342 211.053C68.6466 211.252 68.0976 211.714 67.6961 212.398C66.6812 214.126 65.295 216.154 63.9023 217.148C61.7136 218.71 61.1079 218.491 59.7394 218.048C57.9673 217.473 61.1347 216.211 62.56 213.469C62.6647 213.268 62.7649 213.081 62.8603 212.904C63.3354 212.02 63.6919 211.356 63.9023 210.158C64.3605 207.549 63.8076 205.605 62.56 203.536C61.7449 202.184 61.0786 201.559 59.8755 200.961C58.2985 200.178 56.9037 199.549 55.5803 200.961C54.9397 201.645 54.5689 203.115 54.3852 204.082C54.2856 204.606 54.5238 205.12 54.9039 205.268C55.4622 205.487 55.6643 206.439 55.2915 207.049C54.5528 208.258 53.4967 210.095 52.8958 211.63C52.6996 212.131 52.6055 212.602 52.5157 213.052C52.3821 213.721 52.2581 214.342 51.822 214.941C51.1187 215.907 50.3347 215.887 49.4696 215.864C48.9417 215.851 48.3837 215.836 47.7953 216.044C47.2799 216.227 46.6942 216.47 46.1128 216.728C44.3653 217.503 43.5217 220.165 44.2038 222.502C44.4452 223.329 44.8597 224.039 45.3951 224.544L47.4725 226.501C48.3193 227.299 49.432 227.326 50.299 226.57C50.8184 226.117 51.424 225.946 52.007 226.051C52.9599 226.221 53.4475 227.258 54.2381 227.817V227.817C54.342 227.89 54.4613 227.956 54.589 228.016C55.6541 228.514 56.8519 228.66 57.9673 229.031V229.031C62.1495 230.425 66.4182 231.847 70.6135 230.76C72.6264 230.238 73.8309 229.487 75.4788 228.46C75.805 228.256 76.1486 228.042 76.5193 227.817C76.8794 227.598 77.2064 227.411 77.5137 227.235C78.4863 226.679 79.2629 226.235 80.2776 225.242C80.7187 224.81 81.1347 224.44 81.5266 224.092C82.8533 222.912 83.9037 221.979 84.7145 219.723C84.8699 219.291 85.0714 218.869 85.2742 218.445C85.5878 217.789 85.9043 217.126 86.0567 216.411C86.9964 211.997 86.7586 208.577 86.0567 204.082C85.5573 200.883 84.8829 199.199 83.8083 196.516L83.8067 196.512C83.7162 196.286 83.6227 196.052 83.5263 195.81C83.1093 194.764 82.49 193.98 81.8622 193.186C81.5037 192.733 81.1425 192.275 80.8145 191.764C79.6999 190.025 78.8329 189.317 77.403 188.149L77.3247 188.085Z" fill="#FFFFE6"/>
<path d="M77.115 146.552C77.1542 148.093 85.8621 156.806 85.3564 158.301C84.8185 159.892 82.7605 157.591 81.4101 156.593C79.531 155.204 70.5638 146.133 70.1353 144.244C69.6456 142.086 72.632 140.464 74.7801 140.997C77.0644 141.564 77.055 144.2 77.115 146.552Z" fill="#FFFFE6"/>
<path fill-rule="evenodd" clip-rule="evenodd" d="M35.2089 101.806C33.6584 103.011 31.8874 103.455 30.4159 103.357C25.9439 103.058 21.628 101.577 21.0281 105.269C20.9265 105.895 20.9628 106.421 21.0798 106.922C21.402 108.303 22.4237 109.405 23.5445 110.273V110.273C23.6958 110.39 23.8412 110.511 23.9868 110.635C24.6439 111.195 26.6798 112.854 28.3486 113.412C31.5163 114.47 36.8721 112.731 36.8797 112.728C36.8799 112.728 36.8798 112.728 36.88 112.728V112.728C37.9944 112.461 39.2713 112.156 40.8933 111.891C42.3872 111.647 43.3887 111.344 44.2038 111.098C45.5719 110.683 46.4152 110.428 48.1802 110.879C49.3883 111.188 50.6308 112.071 50.5575 113.316V113.316C50.4277 115.519 47.8314 113.196 44.9201 113.73C41.8202 114.299 38.0487 115.377 36.7324 118.145C35.4161 120.914 35.4097 122.08 36.3297 125.135L36.3558 125.222L36.3771 125.292L36.4019 125.375L36.4047 125.384L36.4049 125.385V125.385C37.3593 128.561 41.8138 128.283 45.1287 128.376L49.5937 128.502C50.1754 128.156 50.7657 127.836 51.35 127.56C52.6088 126.966 54.0135 126.818 55.4054 126.818V126.818V126.818C58.4862 124.336 62.4771 123.049 66.4328 123.142C67.0085 123.155 67.5834 123.202 68.1349 123.295C68.8954 123.424 69.7583 123.645 70.6061 123.897C73.4479 124.74 75.9113 126.484 77.9743 128.613L78.1176 128.761C79.0699 129.743 79.9158 130.824 80.6414 131.984V131.984C80.9874 132.537 81.3614 133.072 81.7501 133.596C83.066 135.37 86.2541 139.833 87.8719 143.529C90.7546 150.114 91.3138 154.702 92.1671 162.291C92.6789 166.844 92.6633 167.302 92.8322 169.758C92.892 170.629 93.3075 172.102 94.3236 170.841C94.3901 170.758 94.4494 170.658 94.502 170.543C96.2681 166.688 94.7538 162.094 94.3236 157.875V157.875C93.6652 151.419 92.1966 147.738 90.5564 141.69C89.9184 139.337 88.8677 136.732 87.7728 134.34C87.1521 132.985 86.5171 131.698 85.9351 130.566C84.4334 127.644 82.6546 124.874 80.6129 122.3V122.3C78.1746 119.227 74.6237 115.131 71.4965 112.995C69.7701 111.815 67.7981 110.566 65.9604 109.437C61.7237 106.836 57.4491 104.053 52.6029 102.944V102.944C52.3697 102.89 52.1241 102.842 51.8698 102.797C47.7286 102.072 43.4649 101.896 39.2827 102.326V102.326C36.2062 102.642 35.2089 101.806 35.2089 101.806ZM41.3281 125.135C39.7897 123.303 40.2898 120.049 40.5164 119.064C40.743 118.079 41.0953 117.453 42.9183 116.455C45.7191 114.923 49.0584 113.996 51.0944 116.455C52.1068 117.678 52.2939 118.753 52.2896 120.34C52.2818 123.182 51.0204 125.373 48.4099 126.496C45.8229 127.608 43.1389 127.291 41.3281 125.135ZM55.8928 118.145C58.0312 116.231 64.7924 118.178 62.9062 120.34C62.0765 121.292 61.22 121.476 59.9803 121.715C57.8451 122.125 54.4367 122.512 54.5842 120.343C54.652 119.346 55.1484 118.811 55.8928 118.145ZM38.076 107.475C37.6412 105.659 35.621 105.806 33.8318 105.269C31.7172 104.635 30.0995 103.768 28.1919 104.88C27.2126 105.45 26.6239 105.946 26.2123 107.002C25.8083 108.038 25.7321 108.847 26.2123 109.85C27.0668 111.636 29.1463 111.131 31.1258 111.098V111.098C33.3777 111.06 35.9814 111.045 37.6694 109.554C37.86 109.385 38.0039 109.186 38.076 108.948C38.243 108.398 38.2098 108.034 38.076 107.475Z" fill="#FFFFE6"/>
<path fill-rule="evenodd" clip-rule="evenodd" d="M38.7881 91.2865C40.3817 91.8612 40.9395 92.8251 42.3628 93.7436C43.8203 94.6841 46.1036 94.3063 46.1651 96.0395C46.2 97.0226 45.6355 97.5081 45.0483 98.2974C44.4179 99.1447 43.9882 99.6376 43.0465 100.116C40.9123 101.2 39.2485 99.9064 37.0079 99.0642V99.0642C34.8845 98.266 32.611 96.993 31.9738 94.8158C31.9343 94.6808 31.9068 94.5461 31.8943 94.4131C31.7726 93.1267 32.0876 92.2238 32.9773 91.2865C34.5394 89.6408 36.6534 90.5167 38.7881 91.2865Z" fill="#FFFFE6"/>
<path d="M42.3628 93.7436C40.9395 92.8251 40.3817 91.8612 38.7881 91.2865C36.6534 90.5167 34.5394 89.6408 32.9773 91.2865C32.0876 92.2238 31.7726 93.1267 31.8943 94.4131C31.9068 94.5461 31.9343 94.6808 31.9738 94.8158C32.611 96.993 34.8845 98.266 37.0079 99.0642V99.0642C39.2485 99.9064 40.9123 101.2 43.0465 100.116C43.9882 99.6376 44.4179 99.1447 45.0483 98.2974C45.6355 97.5081 46.2 97.0226 46.1651 96.0395C46.1036 94.3063 43.8203 94.6841 42.3628 93.7436Z" fill="#FFFFE6"/>
<path fill-rule="evenodd" clip-rule="evenodd" d="M48.4099 91.2865C54.1209 92.9799 56.0281 94.7501 61.5306 99.0642C66.8976 103.272 70.0781 106.516 72.3584 108.843L72.4616 108.948V108.948C77.8251 114.191 84.1854 118.799 87.6097 125.473C88.1408 126.507 88.5423 127.562 88.7272 128.591C89.0488 130.381 89.9515 131.745 88.9214 133.243C88.5701 133.755 87.7728 134.34 87.7728 134.34C87.1521 132.985 86.5171 131.698 85.9351 130.566C84.4334 127.644 82.6546 124.874 80.6129 122.3V122.3C78.1746 119.227 74.6237 115.131 71.4965 112.995C69.7701 111.815 67.7981 110.566 65.9604 109.437C61.7237 106.836 57.4491 104.053 52.6029 102.944V102.944C52.3697 102.89 52.1241 102.842 51.8698 102.797C47.7286 102.072 43.4649 101.896 39.2827 102.326V102.326C36.2062 102.642 35.2089 101.806 35.2089 101.806C35.2089 101.806 31.2079 98.4881 29.2098 95.3348C28.0761 93.5457 28.8474 92.0788 29.7467 91.2865C32.7644 88.628 35.279 88.8825 38.6414 89.2228L38.6417 89.2229V89.2229C41.8973 89.9106 45.2198 90.3406 48.4099 91.2865V91.2865ZM38.7881 91.2865C40.3817 91.8612 40.9395 92.8251 42.3628 93.7436C43.8203 94.6841 46.1036 94.3063 46.1651 96.0395C46.2 97.0226 45.6355 97.5081 45.0483 98.2974C44.4179 99.1447 43.9882 99.6376 43.0465 100.116C40.9123 101.2 39.2485 99.9064 37.0079 99.0642V99.0642C34.8845 98.266 32.611 96.993 31.9738 94.8158C31.9343 94.6808 31.9068 94.5461 31.8943 94.4131C31.7726 93.1267 32.0876 92.2238 32.9773 91.2865C34.5394 89.6408 36.6534 90.5167 38.7881 91.2865Z" fill="#FFFFE6"/>
<path fill-rule="evenodd" clip-rule="evenodd" d="M94.5457 201.205V201.205C93.3807 198.738 95.1002 195.9 96.3012 193.45C96.7615 192.511 97.2722 191.496 97.7815 190.537C98.9056 188.418 101.032 178.298 101.495 176.054C101.552 175.776 101.456 175.497 101.245 175.307V175.307C100.78 174.887 100.033 175.125 99.9074 175.739C98.8197 181.045 94.7154 199.431 91.2299 193.186C90.5499 191.968 91.5808 191.979 91.9554 191.136C92.8848 189.045 95.2963 181.247 96.1564 174.35C96.5088 171.524 96.5978 169.611 96.6941 167.362L96.6941 167.361C96.7054 167.201 96.7116 167.037 96.7132 166.87C96.7985 164.437 96.8713 161.627 96.6933 158.531C96.2618 151.027 95.6153 146.699 93.4719 139.768C92.5815 136.89 92.4244 136.309 92.1296 133.665C91.8349 131.021 92.551 131.569 92.1296 130.571C91.7082 129.573 91.3615 128.582 90.1363 125.678C88.0401 120.709 85.5819 113.824 82.3679 108.89C79.4068 104.344 73.8365 98.2649 71.6094 95.8933C70.9741 95.2169 70.3113 94.5726 69.6101 93.9647V93.9647C66.9311 91.6423 59.6279 85.5857 54.0099 83.4819C52.6419 82.9696 51.7927 82.5384 51.0817 82.1773C49.8228 81.538 48.9976 81.119 46.4933 80.8603C43.989 80.6015 45.1977 83.2767 46.2249 83.8034C48.1399 84.7851 52.4568 84.8908 55.0837 86.0571C57.7106 87.2233 55.9661 87.7283 55.9585 88.8838C55.9345 92.5404 52.8428 86.8063 47.0302 86.0571C43.599 85.6148 41.5211 86.922 38.1714 86.0571C35.8279 85.452 34.171 85.7084 32.534 83.4819C31.1761 81.6351 31.1051 81.0312 31.4602 79.4351C31.8364 77.7441 32.3638 76.576 34.4131 76.1242C36.2923 75.7098 40.3824 70.9572 36.0238 68.7664C31.6653 66.5756 23.482 57.0449 24.4805 62.1444C24.7865 63.7073 25.0551 64.6717 26.1697 65.8561C29.8793 69.7983 27.7969 67.7253 28.9883 68.7664C30.2769 69.8925 32.2471 69.6547 32.534 71.3417C32.9147 73.5801 28.7887 71.5027 26.852 70.1045C24.8093 68.6299 23.2798 66.8137 22.6014 63.9839C22.166 62.1676 21.6689 60.5635 22.6014 59.2014C23.1476 58.4034 23.6549 58.3045 24.4805 58.0977C25.9644 57.7261 26.7386 59.2711 28.2388 59.2014V59.2014C30.7412 59.0851 33.252 59.0783 35.7551 59.1791C35.9076 59.1852 36.0583 59.1926 36.2059 59.2014C38.5479 59.3403 39.9344 61.3717 41.3928 59.9371C43.1719 58.1872 39.4511 56.5497 38.1714 54.4188C37.4865 53.2783 36.83 52.4352 36.2059 51.6338C35.1509 50.2791 34.1887 49.0435 33.3393 46.6917C33.2361 46.4058 33.1361 46.132 33.0397 45.8682C31.7897 42.4458 31.1522 40.7004 31.9971 36.0231C33.3696 28.4241 36.5453 23.6868 41.6612 20.2041C45.0321 17.9093 47.0335 16.8798 50.7885 16.5267C54.8889 16.1412 57.5498 16.0547 61.3886 18.0669L61.558 18.0257L61.6389 18.1976C65.03 19.9704 67.5297 21.2771 69.3115 25.7239C70.4992 28.6879 70.7473 30.806 70.6537 34.1852C70.6497 34.3293 70.6461 34.472 70.6426 34.6135C70.6394 34.7413 70.6364 34.868 70.6334 34.9936C70.5605 38.0637 70.502 40.5237 68.7746 42.6464C67.4004 44.335 66.0113 44.3699 64.3462 44.4118L64.3457 44.4118C63.8772 44.4236 63.3868 44.4359 62.8687 44.4859C61.7477 44.5938 60.8509 44.3221 59.9729 44.056C58.96 43.7491 57.9723 43.4498 56.6944 43.7501C56.2637 43.8513 55.8214 43.896 55.3906 43.9394L55.3902 43.9395L55.39 43.9395L55.3898 43.9395C54.0547 44.0743 52.8297 44.1979 52.3992 45.9574C52.1659 46.9109 51.5662 47.9688 52.3992 48.5326C53.2582 49.114 53.8042 47.6611 54.8153 47.4289C56.9015 46.9498 58.7187 46.9727 60.1842 48.5326C60.7538 49.1388 60.9783 49.5357 61.258 50.372C61.7385 51.8087 62.3409 53.2675 61.258 54.4188C59.7711 55.9997 56.2849 50.0451 56.1575 52.2115C56.1036 53.1275 56.5633 53.6257 56.9628 54.4188C58.0994 56.6748 60.0697 56.7136 61.9182 56.75C63.0773 56.7729 64.1886 56.7948 65.0163 57.3619V57.3619C66.0717 58.0851 64.9996 60.0208 63.9625 60.77C63.7987 60.8883 63.6136 60.9838 63.4056 61.0408C62.0634 61.4087 56.0062 58.2148 56.1575 61.0408C56.2751 63.2392 60.1842 62.8802 60.7211 64.3518C61.0962 65.3798 64.0245 66.3113 62.8687 66.9269C62.3136 67.2227 61.8857 66.9834 61.258 66.9269C58.7106 66.6977 57.6985 64.5298 55.0837 63.9839C52.826 63.5125 50.7386 65.5469 49.1778 63.9839C48.5793 63.3845 47.9844 63.0211 47.8356 62.1444C47.5631 60.5394 49.5018 60.0436 50.7885 59.2014C52.9827 57.7651 56.0852 60.3841 56.9628 58.0977C57.9355 55.5637 53.6029 56.0074 51.5939 53.683C51.1556 53.176 50.7212 52.7202 50.3041 52.2825C48.7327 50.6338 47.405 49.2408 47.0302 46.3253C46.6444 43.3238 46.8827 41.3534 47.8356 38.5997C48.9155 35.4789 49.9769 33.2999 52.3992 32.3457C53.8021 31.7931 54.7629 32.5796 55.816 33.4417C56.543 34.0368 57.3141 34.668 58.3051 34.9194C59.0596 35.1108 59.7694 35.3879 60.4527 35.6546L60.4532 35.6548L60.4534 35.6549C62.3178 36.3826 63.9844 37.0332 65.8216 35.6567C66.9924 34.7795 67.812 34.0788 68.2377 32.3457C68.6776 30.5548 68.2901 29.2717 67.7008 27.5633C67.0037 25.5428 66.6406 24.0122 64.7478 23.5166C61.9511 22.7842 66.2929 28.1513 65.5532 30.8742C65.3896 31.4763 65.3843 31.8571 65.0163 32.3457C63.8296 33.9212 62.0281 31.6696 60.1842 30.8742C59.4535 30.559 58.8969 30.188 58.3539 29.8261C57.6967 29.3879 57.0595 28.9631 56.1575 28.6669C53.5068 27.7964 51.8069 27.6809 49.1778 28.6669C46.316 29.7403 44.5778 30.9983 42.735 34.1852C41.127 36.9662 40.4219 39.1009 40.319 42.6464C40.2044 46.5961 40.9705 49.0846 42.735 52.2115C44.2487 54.8936 47.9203 54.5327 47.8356 57.3619C47.804 58.4151 47.4885 59.0412 47.0302 59.9371C46.7784 60.4295 46.4388 60.6745 46.1108 60.9111C45.7162 61.1958 45.3385 61.4683 45.1511 62.1444C44.6901 63.8072 45.7168 64.8019 46.8049 65.8561C47.1582 66.1985 47.5181 66.5471 47.8356 66.927C51.4992 71.3101 54.7523 72.0774 59.6473 72.0774V72.0774C68.5778 72.0774 76.3295 80.8052 82.2921 87.4536C84.412 89.8172 86.4921 92.3834 88.1029 94.8864C88.2727 95.1503 88.4401 95.41 88.605 95.6659L88.6052 95.6663C92.2306 101.293 94.6829 105.098 96.9617 112.177C98.5614 117.146 99.1002 120.386 99.9161 125.292L99.9162 125.293L99.9217 125.326L99.9218 125.326C100.005 125.829 100.092 126.35 100.183 126.892C101.653 135.645 102.039 135.058 102.914 135.326C104.659 135.86 104.071 133.719 102.331 123.949V123.949C100.253 112.282 95.6165 101.132 90.1609 90.6117C89.6571 89.6403 89.1473 88.7235 88.6398 87.8965C84.8629 81.742 81.8496 79.5319 77.365 74.2847C75.3888 71.9725 75.0693 67.2212 72.2644 68.3985C69.3189 69.6348 77.0573 73.7247 74.9489 76.1242C72.5448 78.8602 70.7878 72.4142 68.7746 69.1343C67.2581 66.6636 63.3782 64.2192 65.5532 62.1444C66.5154 61.2266 67.4856 60.847 68.7746 61.0408C70.3653 61.28 71.1149 65.3465 72.2644 63.9839V63.9839C73.5598 62.4484 71.5086 60.3204 70.2117 58.7863C69.1509 57.5317 67.9231 55.9236 67.1639 54.4188C66.0974 52.3048 66.0534 52.1494 66.627 51.0613C66.6362 51.044 66.6452 51.0267 66.6542 51.0095L66.6651 50.9887L66.687 50.9468L66.7086 50.9053C67.163 50.032 67.4626 49.4565 68.7746 50.372C70.643 51.6758 70.2889 51.8848 71.0695 51.8436C71.7527 51.8075 72.1639 51.9529 72.2644 50.372C72.4925 46.7853 73.3153 44.3071 75.4858 42.2786C77.6397 40.2655 79.8626 41.0687 82.4035 41.9869L82.4039 41.987L82.4041 41.9871C83.0304 42.2134 83.676 42.4466 84.3446 42.6464C89.063 44.0563 92.0165 45.5848 95.351 50.372C95.5763 50.6954 95.7964 51.0057 96.0103 51.3071C97.7414 53.7467 99.0623 55.6083 99.3777 59.2014C99.7342 63.261 99.141 66.3415 96.9617 69.1343C95.1692 71.4314 98.6461 74.7527 96.9617 77.5957C93.873 82.8091 87.521 68.2834 87.2976 65.4554C87.1755 63.9107 88.3132 63.4347 89.5443 62.9195C89.7187 62.8465 89.9178 62.7409 90.1244 62.6189C91.337 61.9026 92.2222 60.7674 93.28 59.8377V59.8377C93.8237 59.3598 94.1965 59.0322 94.8141 57.3619C94.8416 57.2875 94.8688 57.2145 94.8956 57.1428C94.9138 57.0942 94.9318 57.0461 94.9496 56.9986L94.9513 56.994L94.9519 56.9925C95.5439 55.4114 95.8949 54.4736 95.0826 52.9472C94.4172 51.6971 93.0007 52.4083 92.6665 53.3151C92.6086 53.4724 92.4415 53.5309 92.2049 53.52C89.4077 53.392 86.8159 50.8949 84.3446 52.2115V52.2115C83.2877 52.7745 82.6981 53.2775 81.9285 54.4188C80.8486 56.0204 80.6882 57.5799 80.4892 59.5137L80.4892 59.514C80.4395 59.9974 80.3873 60.5041 80.3178 61.0408C80.2612 61.4784 80.2159 61.9826 80.1799 62.4902C80.0407 64.4535 80.3224 66.4176 80.8597 68.311V68.311C81.5656 70.7984 82.7472 73.1184 84.2831 75.1984C87.251 79.2174 92.3291 86.3896 95.351 92.3111C95.5101 92.6229 95.665 92.9258 95.816 93.2211L95.8262 93.2409L95.8279 93.2443C97.9985 97.4887 99.3749 100.18 100.988 105.187C101.705 107.412 102.384 110.073 102.998 112.81C105.523 124.069 107.208 135.546 107.548 147.08V147.08V147.08C107.732 153.349 107.501 159.626 107.016 165.879C106.943 166.816 106.863 167.713 106.779 168.506V168.506C105.903 176.701 103.156 184.565 100.368 192.32C100.214 192.749 100.063 193.167 99.9161 193.572C98.5165 197.435 98.0088 205.094 95.351 202.309C94.9827 201.923 94.7873 201.717 94.5457 201.205ZM98.304 138.297C97.6954 133.092 96.8466 130.277 95.351 125.421C94.3988 122.329 92.9275 118.885 91.4066 115.696L91.4016 115.686L91.3787 115.638C87.6879 107.912 83.1791 100.948 77.9933 95.052C77.9911 95.0496 77.9889 95.0471 77.9867 95.0446L77.9622 95.0167C76.0937 92.8949 74.0989 90.8388 72.2644 89.3681C69.8856 87.461 64.0062 84.1399 62.9764 83.5626C62.8716 83.5039 62.6109 83.3617 62.7156 83.4207V83.4207L62.7162 83.421C62.7582 83.4447 62.8033 83.4701 62.8238 83.482C62.8292 83.4851 62.8328 83.4873 62.8344 83.4883V83.4883C62.8358 83.4892 62.8321 83.4876 62.8306 83.4868C62.8305 83.4867 62.8304 83.4867 62.8302 83.4866C62.8242 83.4835 62.8185 83.4799 62.813 83.4759V83.4759C63.6646 84.1122 64.978 85.3515 66.3359 86.6327L66.3361 86.6329L66.3371 86.6338C67.3632 87.602 68.4147 88.5941 69.3115 89.3681L69.5899 89.6372C74.7652 94.6411 79.5379 100.045 83.8637 105.8V105.8C84.2306 106.339 84.581 106.848 84.9165 107.335L84.921 107.342L84.9212 107.342C86.7352 109.976 88.1151 111.98 89.3407 114.861L89.3409 114.861C89.8577 116.076 90.408 117.369 91.0558 118.799C91.4158 119.593 91.7318 120.269 92.0249 120.897C92.6356 122.204 93.1485 123.66 93.7543 125.379V125.379C94.2771 126.864 94.7539 128.36 95.1828 129.874C96.3697 134.065 98.7652 142.241 98.304 138.297ZM39.2811 77.5957C40.4324 78.2089 42.8732 77.7578 43.6862 79.4351C44.8843 81.9073 40.8771 84.2814 38.1714 83.8034C36.3915 83.4889 34.9059 82.6413 34.5997 80.8603C34.3706 79.5274 34.6557 78.3832 35.7554 77.5957C36.8747 76.7941 38.1298 76.9826 39.2811 77.5957ZM55.816 20.2041C57.9283 21.7157 62.391 19.7372 61.7949 22.1144C61.2939 24.1127 58.8619 23.9103 56.8032 23.8234C54.7746 23.7379 54.05 21.9823 52.0321 21.7584C49.4768 21.4748 48.2542 23.3616 45.688 23.5165V23.5165C44.5942 23.5826 43.8702 22.6505 44.6294 21.8603C45.109 21.361 45.8589 20.7893 47.0302 20.2041C50.4611 18.49 53.7036 18.6925 55.816 20.2041ZM80.0494 43.9395C80.9229 43.6733 82.0475 43.7404 83.0415 43.9019C84.6533 44.1637 87.1497 44.242 87.2976 45.8682V45.8682C87.406 47.0602 85.4356 46.1987 84.3446 46.6917C82.3316 47.6013 82.0151 49.3641 80.0494 50.372C78.5344 51.1488 77.2185 52.6813 75.8763 51.6338C74.5816 50.6234 75.2711 48.9555 75.8763 47.4289C76.6593 45.4543 78.0172 44.5588 80.0494 43.9395Z" fill="#FFFFE6"/>
</g>
<defs>
<filter id="filter0_d_3615_548" x="0.96875" y="0.308594" width="126.641" height="254.836" filterUnits="userSpaceOnUse" color-interpolation-filters="sRGB">
<feFlood flood-opacity="0" result="BackgroundImageFix"/>
<feColorMatrix in="SourceAlpha" type="matrix" values="0 0 0 0 0 0 0 0 0 0 0 0 0 0 0 0 0 0 127 0" result="hardAlpha"/>
<feOffset dy="4"/>
<feGaussianBlur stdDeviation="10"/>
<feComposite in2="hardAlpha" operator="out"/>
<feColorMatrix type="matrix" values="0 0 0 0 0 0 0 0 0 0 0 0 0 0 0 0 0 0 0.25 0"/>
<feBlend mode="normal" in2="BackgroundImageFix" result="effect1_dropShadow_3615_548"/>
<feBlend mode="normal" in="SourceGraphic" in2="effect1_dropShadow_3615_548" result="shape"/>
</filter>
</defs>
</svg>
