<svg width="127" height="256" viewBox="0 0 127 256" fill="none" xmlns="http://www.w3.org/2000/svg">
<g filter="url(#filter0_d_3615_549)">
<path d="M47.819 161.801C45.0346 165.368 43.8503 168.217 42.7185 173.205C42.2935 175.078 42.0899 177.537 41.9936 179.621C41.8921 181.818 43.2398 183.288 44.9443 182.951C46.3481 182.673 46.8185 181.39 46.967 179.896C47.313 176.413 48.0851 170.064 49.4297 165.848C49.5623 165.432 49.7133 164.996 49.8769 164.551C50.6439 162.464 49.0648 160.205 47.819 161.801Z" fill="#FFFFE6"/>
<path d="M47.7162 43.8184C46.8427 43.5522 45.7181 43.6193 44.7241 43.7808C43.1123 44.0426 40.6159 44.1209 40.4681 45.7471V45.7471C40.3597 46.9391 42.3301 46.0776 43.421 46.5706C45.4341 47.4802 45.7506 49.243 47.7162 50.2509C49.2312 51.0277 50.5472 52.5602 51.8893 51.5128C53.184 50.5023 52.4945 48.8344 51.8893 47.3079C51.1064 45.3332 49.7484 44.4377 47.7162 43.8184Z" fill="#FFFFE6"/>
<path d="M65.9707 21.9933C65.3746 19.6161 69.8373 21.5946 71.9497 20.083C74.062 18.5714 77.3045 18.3689 80.7354 20.083C81.9068 20.6682 82.6566 21.24 83.1362 21.7392C83.8954 22.5294 83.1714 23.4615 82.0776 23.3954V23.3954C79.5114 23.2405 78.2888 21.3538 75.7336 21.6373C73.7156 21.8612 72.991 23.6168 70.9625 23.7023C68.9038 23.7892 66.4717 23.9916 65.9707 21.9933Z" fill="#FFFFE6"/>
<path d="M84.0794 79.314C84.8924 77.6367 87.3332 78.0878 88.4845 77.4746C89.6358 76.8615 90.8909 76.673 92.0102 77.4746C93.1099 78.2621 93.395 79.4063 93.1659 80.7392C92.8597 82.5202 91.3741 83.3678 89.5942 83.6823C86.8885 84.1603 82.8813 81.7862 84.0794 79.314Z" fill="#FFFFE6"/>
<path fill-rule="evenodd" clip-rule="evenodd" d="M37.081 173.573C36.8457 179.184 37.3495 186.449 37.8864 187.921C38.4576 189.486 39.2942 186.291 39.4268 184.55C40.1584 174.946 40.9243 167.834 45.9399 160.329C46.5033 159.486 47.2466 158.553 47.9563 157.715C47.9568 157.714 47.9572 157.714 47.9577 157.713C49.4399 155.963 50.9935 154.329 52.5699 152.741C53.6123 151.691 54.8366 150.511 55.8725 149.661C60.6535 145.736 63.9917 144.684 69.5634 144.51C72.4106 144.421 77.1209 143.404 78.6906 146.718C79.2514 147.901 80.4682 149.608 79.2275 150.029C78.0729 150.42 78.2106 148.284 77.1327 147.714C76.9102 147.596 76.7377 147.498 76.543 147.453C76.4694 147.437 76.3953 147.421 76.3208 147.407C74.5698 147.082 73.7956 149.839 74.3954 151.5C75.0151 153.216 77.6168 153.34 78.6906 153.34C78.7623 153.34 78.8466 153.34 78.9411 153.342C80.2615 153.357 83.6763 153.397 85.6703 151.132C87.0136 149.606 87.8343 147.896 88.3548 145.614C89.2083 141.871 87.6289 137.07 85.6703 134.577V134.577C84.9699 133.686 84.2069 132.846 83.3382 132.118C82.1285 131.104 80.2021 129.587 78.1719 128.381C77.5902 128.035 76.9999 127.715 76.4156 127.439C75.1568 126.845 73.7521 126.697 72.3603 126.697V126.697C72.3603 126.697 67.4375 126.121 64.3714 126.697V126.697C57.6507 127.961 51.5569 132.153 47.318 137.519C47.0438 137.866 46.7642 138.234 46.4768 138.624C45.9409 139.352 46.6856 140.351 47.2928 139.737C48.5205 138.496 49.8481 137.269 51.0404 136.417C53.6297 134.566 55.2037 133.797 58.02 132.738C61.8949 131.281 63.9935 130.395 64.3714 130.898C64.8323 131.512 62.9972 131.946 58.1791 134.018C56.5813 134.705 55.0281 135.505 53.7249 136.417C52.1945 137.488 50.4294 139.354 49.0572 140.939C47.4749 142.766 46.0075 144.768 44.6754 146.938C42.8421 149.925 40.296 154.572 39.2286 158.858C37.8635 164.339 37.3265 167.722 37.081 173.573ZM79.2275 143.774C80.548 145.059 80.4876 148.18 82.1805 147.453C83.3472 146.952 83.3902 145.768 83.5618 144.51C83.806 142.72 83.1759 141.603 82.1805 140.096C81.5984 139.214 80.5756 138.459 79.5458 137.867C77.5117 136.698 75.1255 136.417 72.7792 136.417V136.417C70.1198 136.417 67.1536 136.563 65.3891 138.552C65.0697 138.913 64.8282 139.31 64.7313 139.737C64.0129 142.906 69.9557 138.754 73.0532 139.737C75.7991 140.609 77.1628 141.766 79.2275 143.774ZM42.4092 158.18C41.9035 156.685 50.6114 147.972 50.6507 146.431C50.7106 144.079 50.7012 141.443 52.9855 140.876C55.1336 140.343 58.12 141.965 57.6303 144.123C57.2018 146.012 48.2347 155.083 46.3555 156.472C45.0051 157.47 42.9471 159.771 42.4092 158.18Z" fill="#FFFFE6"/>
<path d="M82.1805 147.453C80.4876 148.18 80.548 145.059 79.2275 143.774C77.1628 141.766 75.7991 140.609 73.0532 139.737C69.9557 138.754 64.0129 142.906 64.7313 139.737C64.8282 139.31 65.0697 138.913 65.3891 138.552C67.1536 136.563 70.1198 136.417 72.7792 136.417V136.417C75.1255 136.417 77.5117 136.698 79.5458 137.867C80.5756 138.459 81.5984 139.214 82.1805 140.096C83.1759 141.603 83.806 142.72 83.5618 144.51C83.3902 145.768 83.3472 146.952 82.1805 147.453Z" fill="#FFFFE6"/>
<path fill-rule="evenodd" clip-rule="evenodd" d="M87.2492 118.943C87.4758 119.928 87.9759 123.182 86.4376 125.014C84.6268 127.17 81.9428 127.487 79.3557 126.374C76.7452 125.252 75.4838 123.061 75.476 120.219C75.4717 118.632 75.6588 117.557 76.6712 116.334C78.7073 113.875 82.0465 114.801 84.8474 116.334C86.6703 117.332 87.0227 117.958 87.2492 118.943ZM64.8595 120.219C62.9732 118.057 69.7344 116.11 71.8728 118.024C72.6172 118.69 73.1136 119.225 73.1814 120.222C73.329 122.391 69.9206 122.004 67.7853 121.593C66.5456 121.355 65.6892 121.171 64.8595 120.219ZM93.9338 105.148C92.1446 105.685 90.1244 105.538 89.6897 107.354C89.5558 107.913 89.5226 108.276 89.6897 108.827C89.7617 109.064 89.9056 109.264 90.0962 109.433C91.7842 110.924 94.388 110.939 96.6398 110.976V110.976C98.6193 111.01 100.699 111.515 101.553 109.729C102.034 108.726 101.957 107.917 101.553 106.881C101.142 105.825 100.553 105.329 99.5737 104.759C97.6662 103.647 96.0484 104.514 93.9338 105.148Z" fill="#FFFFE6"/>
<path d="M71.8728 118.024C69.7344 116.11 62.9732 118.057 64.8595 120.219C65.6892 121.171 66.5456 121.355 67.7853 121.593C69.9206 122.004 73.329 122.391 73.1814 120.222C73.1136 119.225 72.6172 118.69 71.8728 118.024Z" fill="#FFFFE6"/>
<path d="M86.4376 125.014C87.9759 123.182 87.4758 119.928 87.2492 118.943C87.0227 117.958 86.6703 117.332 84.8474 116.334C82.0465 114.801 78.7073 113.875 76.6712 116.334C75.6588 117.557 75.4717 118.632 75.476 120.219C75.4838 123.061 76.7452 125.252 79.3557 126.374C81.9428 127.487 84.6268 127.17 86.4376 125.014Z" fill="#FFFFE6"/>
<path d="M89.6897 107.354C90.1244 105.538 92.1446 105.685 93.9338 105.148C96.0484 104.514 97.6662 103.647 99.5737 104.759C100.553 105.329 101.142 105.825 101.553 106.881C101.957 107.917 102.034 108.726 101.553 109.729C100.699 111.515 98.6193 111.01 96.6398 110.976V110.976C94.388 110.939 91.7842 110.924 90.0962 109.433C89.9056 109.264 89.7617 109.064 89.6897 108.827C89.5226 108.276 89.5558 107.913 89.6897 107.354Z" fill="#FFFFE6"/>
<path fill-rule="evenodd" clip-rule="evenodd" d="M88.4845 77.4746C87.3332 78.0878 84.8924 77.6367 84.0794 79.314C82.8813 81.7862 86.8885 84.1603 89.5942 83.6823C91.3741 83.3678 92.8597 82.5202 93.1659 80.7392C93.395 79.4063 93.1099 78.2621 92.0102 77.4746C90.8909 76.673 89.6358 76.8615 88.4845 77.4746ZM71.9497 20.083C69.8373 21.5946 65.3746 19.6161 65.9707 21.9933C66.4717 23.9916 68.9038 23.7892 70.9625 23.7023C72.991 23.6168 73.7156 21.8612 75.7336 21.6373C78.2888 21.3538 79.5114 23.2405 82.0776 23.3954V23.3954C83.1714 23.4615 83.8954 22.5294 83.1362 21.7392C82.6566 21.24 81.9068 20.6682 80.7354 20.083C77.3045 18.3689 74.062 18.5714 71.9497 20.083ZM47.7162 43.8184C46.8427 43.5522 45.7181 43.6193 44.7241 43.7808C43.1123 44.0426 40.6159 44.1209 40.4681 45.7471V45.7471C40.3597 46.9391 42.3301 46.0776 43.421 46.5706C45.4341 47.4802 45.7506 49.243 47.7162 50.2509C49.2312 51.0277 50.5472 52.5602 51.8893 51.5128C53.184 50.5023 52.4945 48.8344 51.8893 47.3079C51.1064 45.3332 49.7484 44.4377 47.7162 43.8184ZM29.4617 138.176C30.0702 132.971 30.919 130.156 32.4146 125.3C33.3669 122.208 34.8381 118.764 36.3591 115.575L36.364 115.565L36.387 115.516C40.0777 107.791 44.5865 100.827 49.7724 94.9309C49.7745 94.9285 49.7767 94.926 49.7789 94.9235L49.8034 94.8956C51.672 92.7738 53.6667 90.7177 55.5012 89.247C57.8804 87.3396 63.7615 84.0176 64.7898 83.4413C64.8943 83.3827 65.1539 83.2411 65.0495 83.2999V83.2999C65.0075 83.3236 64.9624 83.349 64.9418 83.3609C64.9365 83.364 64.9328 83.3662 64.9312 83.3672V83.3672C64.9298 83.3682 64.9335 83.3665 64.935 83.3657C64.9351 83.3656 64.9353 83.3656 64.9354 83.3655C64.9414 83.3624 64.9472 83.3588 64.9526 83.3548V83.3548C64.101 83.9912 62.7875 85.2306 61.4295 86.5118L61.4285 86.5127C60.4024 87.4809 59.351 88.473 58.4541 89.247L58.1758 89.5161C53.0004 94.52 48.2277 99.9242 43.902 105.678V105.678C43.535 106.218 43.1847 106.727 42.8492 107.214C42.8477 107.216 42.8462 107.219 42.8446 107.221C41.0306 109.855 39.6505 111.859 38.425 114.739C37.9081 115.954 37.3577 117.248 36.7098 118.678C36.3498 119.472 36.0338 120.148 35.7407 120.776C35.13 122.083 34.6171 123.538 34.0113 125.258V125.258C33.4885 126.743 33.0118 128.239 32.5829 129.753C31.3959 133.943 29.0005 142.12 29.4617 138.176Z" fill="#FFFFE6"/>
<path fill-rule="evenodd" clip-rule="evenodd" d="M50.4409 187.964C52.8336 186.009 54.3733 184.917 57.1521 184.653C57.3547 184.634 57.5552 184.613 57.7531 184.593C60.3822 184.327 62.6059 184.102 64.4003 186.86C65.5924 188.693 65.8601 190.3 66.011 192.746C66.1358 194.771 65.8889 195.962 65.4741 197.897C65.0859 199.707 64.1954 201.547 63.249 203.124V203.124C60.7722 207.249 57.5043 199.026 53.3057 196.675C53.1087 196.565 52.9114 196.48 52.7154 196.425C50.6972 195.861 49.2845 196.612 47.6148 198.265C45.822 200.039 45.0051 201.893 44.6618 204.887C44.281 208.208 45.1905 210.276 46.4379 213.113L46.4412 213.121V213.121C46.5078 213.272 46.5764 213.42 46.6515 213.567C47.082 214.411 48.6508 217.385 49.2038 217.027C50.3575 216.281 47.7862 214.44 47.3157 210.037C47.1875 208.837 47.0221 208.475 46.9511 207.462C46.8808 206.459 46.9511 205.943 46.9511 204.887C46.9511 203.37 48.2369 200.736 49.7795 199.736C50.839 199.049 51.6332 198.949 52.9838 199.736C54.5968 200.677 55.7162 204.014 56.2529 205.981C56.5201 206.961 57.2702 208.157 56.6153 208.933V208.933V208.933C55.831 209.863 54.4341 208.454 53.3338 207.935C52.5818 207.581 51.7353 207.41 51.2463 208.051C49.6864 210.096 51.4737 213.87 52.7153 216.29C53.2825 217.395 54.6892 218.971 55.576 219.911C56.0797 220.445 56.6814 220.873 57.3381 221.2L60.0184 222.538C60.4853 222.771 61.0392 222.748 61.4846 222.476V222.476C61.8431 222.257 62.1077 221.894 62.0616 221.477C61.9954 220.876 61.6813 220.019 60.5003 219.602C60.1368 219.474 59.8225 219.421 59.5229 219.371C59.0511 219.292 58.6162 219.22 58.0843 218.866C57.732 218.632 57.3874 218.33 57.0687 218.009C55.8137 216.743 54.4081 215.069 54.8704 213.348V213.348V213.348C55.2834 211.81 57.0235 210.42 58.5314 210.931C59.119 211.131 59.668 211.593 60.0695 212.277C61.0845 214.005 62.4707 216.033 63.8634 217.027C66.052 218.589 66.6577 218.37 68.0262 217.926C69.7984 217.352 66.6309 216.09 65.2056 213.348C65.1009 213.147 65.0007 212.96 64.9054 212.783C64.4303 211.898 64.0737 211.235 63.8634 210.037C63.4052 207.428 63.958 205.484 65.2056 203.415C66.0208 202.063 66.687 201.438 67.8901 200.84C69.4671 200.057 70.8619 199.428 72.1853 200.84C72.8259 201.524 73.1967 202.993 73.3804 203.961C73.48 204.485 73.2419 204.999 72.8617 205.147C72.3034 205.366 72.1014 206.318 72.4742 206.928C73.2128 208.137 74.2689 209.974 74.8698 211.509C75.066 212.01 75.1602 212.481 75.25 212.931C75.3835 213.6 75.5075 214.221 75.9436 214.82C76.647 215.786 77.4309 215.766 78.296 215.743C78.8239 215.729 79.3819 215.715 79.9703 215.923C80.4858 216.106 81.0715 216.349 81.6529 216.607C83.4004 217.382 84.244 220.044 83.5618 222.381C83.3205 223.208 82.9059 223.918 82.3705 224.423L80.2932 226.38C79.4463 227.178 78.3336 227.205 77.4666 226.449C76.9472 225.996 76.3416 225.825 75.7586 225.93C74.8058 226.1 74.3181 227.137 73.5275 227.696V227.696C73.4237 227.769 73.3043 227.835 73.1766 227.895C72.1116 228.393 70.9137 228.539 69.7984 228.91V228.91C65.6161 230.304 61.3474 231.726 57.1521 230.639C55.1393 230.117 53.9347 229.366 52.2869 228.339C51.9606 228.135 51.617 227.921 51.2463 227.696C50.8862 227.477 50.5592 227.29 50.2519 227.114C49.2793 226.558 48.5027 226.113 47.488 225.12C47.0469 224.689 46.6309 224.319 46.2391 223.971C44.9123 222.791 43.862 221.858 43.0511 219.602C42.8958 219.17 42.6942 218.748 42.4914 218.324C42.1778 217.667 41.8613 217.005 41.7089 216.29C40.7692 211.876 41.007 208.456 41.7089 203.961C42.2083 200.762 42.8827 199.078 43.9574 196.395L43.9589 196.391C44.0495 196.165 44.1429 195.931 44.2393 195.689C44.6563 194.643 45.2756 193.859 45.9034 193.065C46.2619 192.611 46.6232 192.154 46.9511 191.643C48.0657 189.904 48.9327 189.196 50.3626 188.028L50.4409 187.964Z" fill="#FFFFE6"/>
<path d="M50.6507 146.431C50.6114 147.972 41.9035 156.685 42.4092 158.18C42.9471 159.771 45.0051 157.47 46.3555 156.472C48.2347 155.083 57.2018 146.012 57.6303 144.123C58.12 141.965 55.1336 140.343 52.9855 140.876C50.7012 141.443 50.7106 144.079 50.6507 146.431Z" fill="#FFFFE6"/>
<path fill-rule="evenodd" clip-rule="evenodd" d="M92.5567 101.685C94.1073 102.889 95.8782 103.334 97.3497 103.236C101.822 102.937 106.138 101.456 106.737 105.148C106.839 105.774 106.803 106.3 106.686 106.801C106.364 108.182 105.342 109.284 104.221 110.151V110.151C104.07 110.269 103.924 110.39 103.779 110.514C103.122 111.074 101.086 112.733 99.417 113.291C98.1038 113.729 96.4146 113.687 94.8862 113.487C92.1763 113.133 89.5696 112.21 86.8723 111.77V111.77C85.3784 111.526 84.3769 111.223 83.5618 110.976C82.1937 110.562 81.3505 110.307 79.5854 110.758C78.3773 111.067 77.1348 111.95 77.2081 113.195V113.195C77.3379 115.398 79.9343 113.075 82.8455 113.609C85.9454 114.178 89.7169 115.255 91.0332 118.024C92.3495 120.793 92.3559 121.959 91.4359 125.014L91.4098 125.101L91.3886 125.171L91.3638 125.254L91.3607 125.264V125.264C90.4063 128.44 85.9518 128.162 82.637 128.255L78.1719 128.381C77.5902 128.035 76.9999 127.715 76.4156 127.439C75.1568 126.845 73.7521 126.697 72.3603 126.697V126.697V126.697C69.2795 124.214 65.2885 122.928 61.3328 123.021C60.7571 123.034 60.1822 123.081 59.6308 123.174C58.8703 123.303 58.0073 123.524 57.1595 123.776C54.3178 124.619 51.8543 126.363 49.7913 128.492L49.648 128.64C48.6958 129.622 47.8498 130.703 47.1242 131.863V131.863C46.7782 132.416 46.4042 132.951 46.0155 133.475C44.6997 135.249 41.5116 139.712 39.8937 143.408C37.011 149.993 36.4518 154.581 35.5985 162.17C35.0867 166.723 35.1023 167.181 34.9335 169.637C34.8736 170.508 34.4581 171.981 33.442 170.72C33.3755 170.637 33.3162 170.537 33.2636 170.422C31.4976 166.567 33.0118 161.973 33.442 157.754V157.754C34.1004 151.298 35.569 147.617 37.2092 141.569C37.8472 139.216 38.8979 136.61 39.9928 134.219C40.6136 132.864 41.2485 131.577 41.8305 130.445C43.3322 127.523 45.111 124.753 47.1527 122.179V122.179C49.591 119.106 53.1419 115.01 56.2691 112.874C57.9956 111.694 59.9676 110.444 61.8052 109.316C66.042 106.715 70.3165 103.932 75.1627 102.823V102.823C75.3959 102.769 75.6416 102.721 75.8958 102.676C80.0371 101.951 84.3007 101.775 88.483 102.205V102.205C91.5594 102.521 92.5567 101.685 92.5567 101.685ZM86.4376 125.014C87.9759 123.182 87.4758 119.928 87.2492 118.943C87.0227 117.958 86.6703 117.332 84.8474 116.334C82.0465 114.801 78.7073 113.875 76.6712 116.334C75.6588 117.557 75.4717 118.632 75.476 120.219C75.4838 123.061 76.7452 125.252 79.3557 126.374C81.9428 127.487 84.6268 127.17 86.4376 125.014ZM71.8728 118.024C69.7344 116.11 62.9732 118.057 64.8595 120.219C65.6892 121.171 66.5456 121.355 67.7853 121.593C69.9206 122.004 73.329 122.391 73.1814 120.222C73.1136 119.225 72.6172 118.69 71.8728 118.024ZM89.6897 107.354C90.1244 105.538 92.1446 105.685 93.9338 105.148C96.0484 104.514 97.6662 103.647 99.5737 104.759C100.553 105.329 101.142 105.825 101.553 106.881C101.957 107.917 102.034 108.726 101.553 109.729C100.699 111.515 98.6193 111.01 96.6398 110.976V110.976C94.388 110.939 91.7842 110.924 90.0962 109.433C89.9056 109.264 89.7617 109.064 89.6897 108.827C89.5226 108.276 89.5558 107.913 89.6897 107.354Z" fill="#FFFFE6"/>
<path fill-rule="evenodd" clip-rule="evenodd" d="M88.9776 91.1654C87.384 91.7401 86.8262 92.704 85.4028 93.6225C83.9453 94.563 81.662 94.1852 81.6005 95.9185C81.5657 96.9015 82.1301 97.387 82.7174 98.1763C83.3478 99.0236 83.7775 99.5165 84.7192 99.9947C86.8534 101.079 88.5172 99.7853 90.7577 98.9431V98.9431C92.8811 98.1449 95.1547 96.8719 95.7918 94.6948C95.8313 94.5597 95.8588 94.425 95.8714 94.2921C95.993 93.0056 95.678 92.1027 94.7883 91.1654C93.2262 89.5197 91.1122 90.3956 88.9776 91.1654Z" fill="#FFFFE6"/>
<path d="M85.4028 93.6225C86.8262 92.704 87.384 91.7401 88.9776 91.1654C91.1122 90.3956 93.2262 89.5197 94.7883 91.1654C95.678 92.1027 95.993 93.0056 95.8714 94.2921C95.8588 94.425 95.8313 94.5597 95.7918 94.6948C95.1547 96.8719 92.8811 98.1449 90.7577 98.9431V98.9431C88.5172 99.7853 86.8534 101.079 84.7192 99.9947C83.7775 99.5165 83.3478 99.0236 82.7174 98.1763C82.1301 97.387 81.5657 96.9015 81.6005 95.9185C81.662 94.1852 83.9453 94.563 85.4028 93.6225Z" fill="#FFFFE6"/>
<path fill-rule="evenodd" clip-rule="evenodd" d="M79.3557 91.1654C73.6447 92.8588 71.7375 94.629 66.235 98.9431C60.8681 103.151 57.6876 106.395 55.4073 108.722L55.304 108.827V108.827C49.9406 114.07 43.5802 118.678 40.1559 125.352C39.6249 126.386 39.2233 127.441 39.0384 128.47C38.7168 130.26 37.8141 131.623 38.8442 133.122C39.1955 133.633 39.9928 134.219 39.9928 134.219C40.6136 132.864 41.2485 131.577 41.8305 130.445C43.3322 127.523 45.111 124.753 47.1527 122.179V122.179C49.591 119.106 53.1419 115.01 56.2691 112.874C57.9956 111.694 59.9676 110.444 61.8052 109.316C66.042 106.715 70.3165 103.932 75.1627 102.823V102.823C75.3959 102.769 75.6416 102.721 75.8958 102.676C80.0371 101.951 84.3007 101.775 88.483 102.205V102.205C91.5594 102.521 92.5567 101.685 92.5567 101.685C92.5567 101.685 96.5577 98.367 98.5558 95.2137C99.6895 93.4246 98.9183 91.9577 98.0189 91.1654C95.0012 88.5069 92.4867 88.7614 89.1242 89.1017V89.1017C85.8685 89.7895 82.546 90.2195 79.3557 91.1654V91.1654ZM88.9776 91.1654C87.384 91.7401 86.8262 92.704 85.4028 93.6225C83.9453 94.563 81.662 94.1852 81.6005 95.9185C81.5657 96.9015 82.1301 97.387 82.7174 98.1763C83.3478 99.0236 83.7775 99.5165 84.7192 99.9947C86.8534 101.079 88.5172 99.7853 90.7577 98.9431V98.9431C92.8811 98.1449 95.1547 96.8719 95.7918 94.6948C95.8313 94.5597 95.8588 94.425 95.8714 94.2921C95.993 93.0056 95.678 92.1027 94.7883 91.1654C93.2262 89.5197 91.1122 90.3956 88.9776 91.1654Z" fill="#FFFFE6"/>
<path fill-rule="evenodd" clip-rule="evenodd" d="M33.2199 201.084V201.084C34.3849 198.617 32.6654 195.779 31.4645 193.329C31.0041 192.39 30.4934 191.375 29.9841 190.416C28.86 188.297 26.7338 178.177 26.271 175.933C26.2137 175.655 26.3099 175.375 26.5206 175.186V175.186C26.9858 174.766 27.7325 175.004 27.8582 175.618C28.9459 180.924 33.0502 199.31 36.5357 193.065C37.2157 191.847 36.1848 191.858 35.8102 191.015C34.8808 188.924 32.4693 181.126 31.6093 174.228C31.2569 171.403 31.1678 169.49 31.0715 167.24C31.0602 167.08 31.054 166.916 31.0524 166.749C30.9672 164.315 30.8943 161.506 31.0723 158.409C31.5038 150.905 32.1503 146.578 34.2938 139.647C35.1841 136.768 35.3412 136.188 35.636 133.544C35.9308 130.9 35.2146 131.448 35.636 130.45C36.0574 129.452 36.4041 128.46 37.6293 125.557C39.7256 120.588 42.1837 113.703 45.3978 108.769C48.3588 104.223 53.9291 98.1438 56.1562 95.7722C56.7915 95.0958 57.4543 94.4515 58.1556 93.8436V93.8436C60.8345 91.5212 68.1377 85.4646 73.7557 83.3608C75.1237 82.8485 75.973 82.4173 76.6839 82.0563C77.9428 81.417 78.768 80.9979 81.2723 80.7392C83.7766 80.4804 82.5679 83.1556 81.5407 83.6823C79.6258 84.6641 75.3088 84.7697 72.6819 85.936C70.055 87.1022 71.7995 87.6072 71.8071 88.7627C71.8312 92.4193 74.9228 86.6852 80.7354 85.936C84.1666 85.4937 86.2445 86.8009 89.5942 85.936C91.9378 85.3309 93.5946 85.5873 95.2316 83.3608C96.5895 81.514 96.6605 80.9101 96.3054 79.314C95.9292 77.623 95.4018 76.4549 93.3525 76.0031C91.4734 75.5888 87.3833 70.8361 91.7418 68.6453C96.1003 66.4545 104.284 56.9239 103.285 62.0233C102.979 63.5862 102.71 64.5506 101.596 65.735C97.8864 69.6772 99.9687 67.6042 98.7773 68.6453C97.4887 69.7714 95.5186 69.5336 95.2316 71.2206C94.8509 73.459 98.9769 71.3816 100.914 69.9834C102.956 68.5089 104.486 66.6926 105.164 63.8628C105.6 62.0465 106.097 60.4424 105.164 59.0803C104.618 58.2823 104.111 58.1834 103.285 57.9766C101.801 57.605 101.027 59.15 99.5268 59.0803V59.0803C97.0244 58.964 94.5136 58.9572 92.0105 59.058C91.8581 59.0642 91.7073 59.0715 91.5597 59.0803C89.2177 59.2193 87.8312 61.2506 86.3728 59.816C84.5938 58.0661 88.3145 56.4286 89.5942 54.2977C90.2791 53.1572 90.9357 52.3141 91.5597 51.5128C92.6147 50.158 93.5769 48.9224 94.4263 46.5706C94.5295 46.2847 94.6295 46.0109 94.7259 45.7471C95.9759 42.3247 96.6134 40.5793 95.7685 35.902C94.396 28.303 91.2203 23.5657 86.1044 20.083C82.7335 17.7882 80.7322 16.7587 76.9771 16.4057C72.8767 16.0201 70.2158 15.9336 66.377 17.9458L66.2076 17.9046L66.1268 18.0765C62.7356 19.8493 60.2359 21.1561 58.4541 25.6028C57.2664 28.5668 57.0183 30.6849 57.1119 34.0641C57.1159 34.2082 57.1195 34.3509 57.123 34.4924C57.1262 34.6202 57.1292 34.7469 57.1322 34.8726C57.2051 37.9426 57.2636 40.4026 58.991 42.5253C60.3652 44.2139 61.7543 44.2488 63.4195 44.2907C63.888 44.3025 64.3789 44.3149 64.8969 44.3648C66.0179 44.4727 66.9147 44.201 67.7927 43.9349C68.8056 43.628 69.7934 43.3287 71.0712 43.629C71.502 43.7302 71.945 43.775 72.3759 43.8184C73.7109 43.9532 74.9359 44.0769 75.3664 45.8363C75.5997 46.7898 76.1994 47.8477 75.3664 48.4115C74.5074 48.9929 73.9614 47.5401 72.9504 47.3079C70.8641 46.8287 69.0469 46.8516 67.5814 48.4115C67.0119 49.0177 66.7873 49.4147 66.5076 50.2509C66.0271 51.6876 65.4248 53.1464 66.5076 54.2977C67.9945 55.8786 71.4808 49.924 71.6081 52.0904C71.662 53.0064 71.2024 53.5046 70.8028 54.2977C69.6662 56.5537 67.6959 56.5925 65.8475 56.6289C64.6883 56.6518 63.577 56.6737 62.7493 57.2408V57.2408C61.6939 57.964 62.7661 59.8997 63.8032 60.6489C63.9669 60.7672 64.152 60.8627 64.36 60.9197C65.7023 61.2876 71.7594 58.0937 71.6081 60.9197C71.4905 63.1181 67.5814 62.7591 67.0445 64.2307C66.6694 65.2587 63.7411 66.1902 64.8969 66.8059C65.4521 67.1016 65.88 66.8623 66.5076 66.8059C69.055 66.5766 70.0671 64.4087 72.6819 63.8628C74.9396 63.3914 77.0271 65.4258 78.5878 63.8628C79.1863 63.2634 79.7812 62.9 79.93 62.0233C80.2025 60.4183 78.2638 59.9225 76.9771 59.0803C74.7829 57.644 71.6804 60.263 70.8028 57.9766C69.8301 55.4426 74.1627 55.8863 76.1718 53.5619C76.61 53.0549 77.0444 52.5991 77.4616 52.1614C79.0329 50.5127 80.3606 49.1197 80.7354 46.2042C81.1213 43.2027 80.883 41.2323 79.93 38.4786C78.8501 35.3578 77.7888 33.1788 75.3664 32.2246C73.9635 31.672 73.0027 32.4585 71.9497 33.3206C71.2226 33.9157 70.4515 34.5469 69.4606 34.7983C68.706 34.9897 67.9955 35.2671 67.3123 35.5338C65.4479 36.2615 63.7812 36.9121 61.944 35.5356C60.7732 34.6584 59.9536 33.9577 59.5279 32.2246C59.088 30.4337 59.4755 29.1506 60.0648 27.4422C60.7619 25.4217 61.125 23.8911 63.0178 23.3955C65.8145 22.6631 61.4727 28.0302 62.2124 30.7531C62.376 31.3553 62.3813 31.736 62.7493 32.2246C63.936 33.8001 65.7375 31.5485 67.5814 30.7531C68.3121 30.4379 68.8688 30.0669 69.4117 29.705C70.069 29.2668 70.7062 28.842 71.6081 28.5458C74.2588 27.6753 75.9588 27.5598 78.5878 28.5458C81.4496 29.6192 83.1879 30.8772 85.0306 34.0641C86.6387 36.8451 87.3437 38.9798 87.4466 42.5253C87.5612 46.4751 86.7952 48.9635 85.0306 52.0904C83.5169 54.7725 79.8453 54.4116 79.93 57.2408C79.9616 58.294 80.2771 58.9201 80.7354 59.816C80.9872 60.3084 81.3269 60.5534 81.6548 60.79C82.0494 61.0747 82.4271 61.3472 82.6145 62.0233C83.0755 63.6861 82.0489 64.6808 80.9607 65.735C80.6074 66.0774 80.2475 66.426 79.93 66.8059C76.2664 71.189 73.0133 71.9563 68.1183 71.9563V71.9563C59.1878 71.9563 51.4361 80.6841 45.4735 87.3325C43.3537 89.6961 41.2735 92.2623 39.6627 94.7653C39.4929 95.0292 39.3255 95.2889 39.1606 95.5448C35.5352 101.171 33.0827 104.977 30.8039 112.056C29.2043 117.025 28.6655 120.265 27.8495 125.171L27.844 125.204C27.7603 125.708 27.6735 126.229 27.5825 126.771C26.113 135.524 25.7263 134.937 24.8521 135.205C23.1068 135.738 23.6949 133.598 25.4349 123.828V123.828C27.5129 112.161 32.1492 101.011 37.6047 90.4906C38.1085 89.5192 38.6183 88.6024 39.1258 87.7754C42.9027 81.6209 45.916 79.4108 50.4007 74.1636C52.3769 71.8514 52.6964 67.1001 55.5012 68.2774C58.4467 69.5138 50.7083 73.6036 52.8167 76.0031C55.2208 78.7391 56.9778 72.2932 58.991 69.0132C60.5076 66.5425 64.3874 64.0981 62.2124 62.0233C61.2503 61.1055 60.28 60.7259 58.991 60.9197C57.4003 61.1589 56.6507 65.2254 55.5012 63.8628V63.8628C54.2058 62.3273 56.257 60.1993 57.554 58.6652C58.6147 57.4106 59.8425 55.8025 60.6017 54.2977C61.6682 52.1837 61.7122 52.0283 61.1386 50.9402C61.1295 50.9229 61.1204 50.9056 61.1114 50.8884L61.1005 50.8676L61.0786 50.8257L61.057 50.7842C60.6026 49.9109 60.3031 49.3354 58.991 50.2509C57.1226 51.5547 57.4768 51.7637 56.6962 51.7225C56.0129 51.6864 55.6017 51.8318 55.5012 50.2509C55.2731 46.6642 54.4503 44.186 52.2798 42.1575C50.1259 40.1444 47.9031 40.9476 45.3622 41.8658C44.7359 42.092 44.0897 42.3255 43.421 42.5253C38.7026 43.9352 35.7491 45.4637 32.4146 50.2509C32.1893 50.5743 31.9692 50.8846 31.7553 51.186C30.0242 53.6256 28.7033 55.4872 28.3879 59.0803C28.0315 63.1399 28.6246 66.2204 30.8039 69.0132C32.5964 71.3103 29.1195 74.6316 30.8039 77.4746C33.8926 82.688 40.2446 68.1623 40.4681 65.3343C40.5901 63.7896 39.4525 63.3136 38.2213 62.7984C38.0469 62.7254 37.8478 62.6198 37.6412 62.4978C36.4286 61.7815 35.5434 60.6463 34.4856 59.7166V59.7166C33.9419 59.2387 33.5691 58.9111 32.9515 57.2408C32.924 57.1664 32.8968 57.0934 32.87 57.0217C32.8518 56.9731 32.8339 56.925 32.8161 56.8775L32.8143 56.8729L32.8138 56.8714C32.2218 55.2903 31.8707 54.3525 32.6831 52.8262C33.3484 51.576 34.765 52.2872 35.0991 53.194C35.1571 53.3513 35.3241 53.4098 35.5607 53.399C38.3579 53.2709 40.9498 50.7738 43.421 52.0904V52.0904C44.4779 52.6534 45.0675 53.1564 45.8371 54.2977C46.917 55.8993 47.0774 57.4588 47.2764 59.3926C47.3261 59.876 47.3783 60.383 47.4478 60.9197C47.5045 61.3573 47.5497 61.8615 47.5857 62.3691C47.7249 64.3324 47.4432 66.2965 46.9059 68.1899V68.1899C46.2 70.6773 45.0185 72.9973 43.4825 75.0773C40.5146 79.0963 35.4366 86.2685 32.4146 92.1901C32.2555 92.5018 32.1006 92.8047 31.9496 93.1L31.9395 93.1198L31.9377 93.1232C29.7671 97.3676 28.3908 100.059 26.7772 105.066C26.0602 107.291 25.3819 109.951 24.768 112.689C22.2427 123.948 20.5576 135.425 20.2178 146.959V146.959V146.959C20.0332 153.227 20.2644 159.505 20.7501 165.757C20.823 166.695 20.9021 167.592 20.9869 168.385V168.385C21.863 176.58 24.6095 184.443 27.3977 192.199C27.5517 192.627 27.7029 193.046 27.8495 193.451C29.2491 197.313 29.7568 204.973 32.4146 202.188C32.783 201.802 32.9783 201.596 33.2199 201.084ZM29.4617 138.176C30.0702 132.971 30.919 130.156 32.4146 125.3C33.3669 122.208 34.8381 118.764 36.3591 115.575L36.364 115.565L36.387 115.516C40.0777 107.791 44.5865 100.827 49.7724 94.9309C49.7745 94.9285 49.7767 94.926 49.7789 94.9235L49.8034 94.8956C51.672 92.7738 53.6667 90.7177 55.5012 89.247C57.8804 87.3396 63.7615 84.0176 64.7898 83.4413C64.8943 83.3827 65.1539 83.2411 65.0495 83.2999V83.2999C65.0075 83.3236 64.9624 83.349 64.9418 83.3609C64.9365 83.364 64.9328 83.3662 64.9312 83.3672V83.3672C64.9298 83.3682 64.9335 83.3665 64.935 83.3657C64.9351 83.3656 64.9353 83.3656 64.9354 83.3655C64.9414 83.3624 64.9472 83.3588 64.9526 83.3548V83.3548C64.101 83.9912 62.7875 85.2306 61.4295 86.5118L61.4285 86.5127C60.4024 87.4809 59.351 88.473 58.4541 89.247L58.1758 89.5161C53.0004 94.52 48.2277 99.9242 43.902 105.678V105.678C43.535 106.218 43.1847 106.727 42.8492 107.214L42.8446 107.221C41.0306 109.855 39.6505 111.859 38.425 114.739C37.9081 115.954 37.3577 117.248 36.7098 118.678C36.3498 119.472 36.0338 120.148 35.7407 120.776C35.13 122.083 34.6171 123.538 34.0113 125.258V125.258C33.4885 126.743 33.0118 128.239 32.5829 129.753C31.3959 133.943 29.0005 142.12 29.4617 138.176ZM88.4845 77.4746C87.3332 78.0878 84.8924 77.6367 84.0794 79.314C82.8813 81.7862 86.8885 84.1603 89.5942 83.6823C91.3741 83.3678 92.8597 82.5202 93.1659 80.7392C93.395 79.4063 93.1099 78.2621 92.0102 77.4746C90.8909 76.673 89.6358 76.8615 88.4845 77.4746ZM71.9497 20.083C69.8373 21.5946 65.3746 19.6161 65.9707 21.9933C66.4717 23.9916 68.9038 23.7892 70.9625 23.7023C72.991 23.6168 73.7156 21.8612 75.7336 21.6373C78.2888 21.3538 79.5114 23.2405 82.0776 23.3954V23.3954C83.1714 23.4615 83.8954 22.5294 83.1362 21.7392C82.6566 21.24 81.9068 20.6682 80.7354 20.083C77.3045 18.3689 74.062 18.5714 71.9497 20.083ZM47.7162 43.8184C46.8427 43.5522 45.7181 43.6193 44.7241 43.7808C43.1123 44.0426 40.6159 44.1209 40.4681 45.7471V45.7471C40.3597 46.9391 42.3301 46.0776 43.421 46.5706C45.4341 47.4802 45.7506 49.243 47.7162 50.2509C49.2312 51.0277 50.5472 52.5602 51.8893 51.5128C53.184 50.5023 52.4945 48.8344 51.8893 47.3079C51.1064 45.3332 49.7484 44.4377 47.7162 43.8184Z" fill="#FFFFE6"/>
</g>
<defs>
<filter id="filter0_d_3615_549" x="0.15625" y="0.1875" width="126.641" height="254.836" filterUnits="userSpaceOnUse" color-interpolation-filters="sRGB">
<feFlood flood-opacity="0" result="BackgroundImageFix"/>
<feColorMatrix in="SourceAlpha" type="matrix" values="0 0 0 0 0 0 0 0 0 0 0 0 0 0 0 0 0 0 127 0" result="hardAlpha"/>
<feOffset dy="4"/>
<feGaussianBlur stdDeviation="10"/>
<feComposite in2="hardAlpha" operator="out"/>
<feColorMatrix type="matrix" values="0 0 0 0 0 0 0 0 0 0 0 0 0 0 0 0 0 0 0.25 0"/>
<feBlend mode="normal" in2="BackgroundImageFix" result="effect1_dropShadow_3615_549"/>
<feBlend mode="normal" in="SourceGraphic" in2="effect1_dropShadow_3615_549" result="shape"/>
</filter>
</defs>
</svg>
