<svg width="283" height="273" viewBox="0 0 283 273" fill="none" xmlns="http://www.w3.org/2000/svg">
<g filter="url(#filter0_d_3628_871)">
<path d="M136.351 135.622C136.351 135.622 136.35 135.619 136.347 135.612M129.103 126.665C122.949 124.349 115.334 127.901 114.249 134.308C113.412 139.25 115.972 143.193 120.39 145.684C122.591 146.924 125.978 146.87 128.444 146.603M129.103 126.665C129.103 126.665 120.535 122.661 114.648 122.048C104.901 121.033 90.3756 128.049 90.3756 128.049C90.3756 128.049 83.8621 128.741 81.8188 125.194C79.5505 121.257 83.0779 119.183 84.9548 115.086M129.103 126.665C133.233 128.219 136.219 135.303 136.347 135.612M215.839 130.009C215.839 130.009 224.402 129.806 229.274 125.074C234.938 119.574 238.371 116.696 238.688 104.525C238.827 99.2271 229.775 79.347 220.238 80.7615C216.503 81.3154 215.82 83.4852 215.507 86.6223C215.117 90.525 223.69 88.2208 223.69 92.6311C223.689 99.8043 204.506 111.216 198.721 111.076C184.625 110.737 172.389 117.545 172.389 117.545C172.389 117.545 192.222 104.844 193.523 91.3289C194.612 80.022 192.574 66.679 183.777 64.0574C181.868 63.4885 178.879 65.8853 178.879 65.8853C178.879 65.8853 176.858 41.4038 163.746 37.1397C152.48 33.4762 135.484 35.0349 131.595 45.0789C130.429 48.0914 130.87 50.1948 132.343 52.422M215.839 130.009C215.839 130.009 227.49 134.952 227.176 141.072C226.812 148.183 215.118 150.31 210.696 149.018M215.839 130.009L201.182 129.164C201.182 129.164 191.513 129.352 185.613 130.937C181.541 132.031 175.541 134.791 175.541 134.791M210.696 149.018C206.274 147.726 203.795 147.002 199.373 145.709M210.696 149.018L199.373 145.709M199.373 145.709C199.373 145.709 205.135 151.49 204.104 155.624C203.462 158.196 199.972 161.01 199.972 161.01M199.373 145.709C199.373 145.709 193.028 141.055 188.295 140.634C183.83 140.237 177.167 143.284 177.167 143.284M199.972 161.01C199.972 161.01 204.111 170.124 205.824 176.261C208.283 185.07 203.102 192.377 209.002 199.425C212.005 203.011 217.489 203.098 221.688 204.456M199.972 161.01C199.972 161.01 190.272 160.779 184.466 158.844C182.485 158.184 180.224 157.08 178.162 155.953M167.814 208.026C170.026 206.453 172.008 202.327 172.008 202.327C172.008 202.327 181.698 221.224 197.629 224.252C206.478 225.934 215.831 222.403 215.831 222.403C215.831 222.403 228.709 215.315 227.054 209.339C226.282 206.554 224.219 205.274 221.688 204.456M167.814 208.026C163.93 210.788 156.248 204.259 151.449 198.707C146.943 193.495 144.732 182.464 144.732 182.464C144.732 182.464 136.522 204.102 125.318 212.505C114.995 220.249 106.698 225.011 93.8395 222.971C82.7417 221.21 73.5469 213.802 66.1134 204.597C61.9784 199.477 61.6906 195.973 62.8222 192.622M167.814 208.026C167.814 208.026 163.1 204.115 160.57 201.152C153.887 193.322 149.737 177.214 149.737 177.214M73.8663 67.7846C61.3858 74.2758 57.6659 80.2661 53.301 89.8273C48.2226 100.951 50.1837 107.854 55.0711 117.635C57.2578 122.012 62.5394 127.724 62.5394 127.724C62.5394 127.724 59.1075 129.744 57.6492 131.73C56.4646 133.343 55.5157 136.387 55.5157 136.387C55.5157 136.387 62.7 144.029 74.8337 145.237C81.9647 145.947 93.9513 140.407 98.7766 140.564C109.084 140.9 109.852 143.906 109.852 143.906C109.852 143.906 97.3574 150.786 89.0362 154.561C78.3389 159.414 78.9355 179.593 78.8511 185.668C78.7843 190.478 73.3971 194.454 73.3971 194.454C73.3971 194.454 69.8904 193.714 68.4117 192.17C66.1967 189.857 67.0076 184.148 67.0076 184.148C65.5308 187.372 63.7249 189.948 62.8222 192.622M73.8663 67.7846C81.6229 63.7504 96.5687 63.6907 100.738 71.4082C103.735 76.9549 104.978 83.8485 99.8209 87.423C97.0562 89.3394 92.4701 89.4555 92.4701 89.4555C92.4701 89.4555 95.5243 79.5971 90.8793 78.3961C86.3002 77.2122 83.271 82.09 82.611 86.5833C81.9146 91.324 85.4344 93.8524 88.914 97.2177C96.8666 104.909 106.839 96.374 117.035 100.709C122.037 102.836 128.992 107.832 128.992 107.832C128.992 107.832 128.485 102.052 131.13 94.0186C132.766 89.05 147.368 68.0281 148.216 61.7031C149.502 52.0993 139.986 50.6123 139.986 50.6123C139.986 50.6123 136.791 57.9903 133.506 53.9787C133.069 53.4451 132.679 52.9303 132.343 52.422M73.8663 67.7846C73.8663 67.7846 65.8615 74.3521 63.6119 80.2283C61.0351 86.9592 59.3126 92.2488 61.3611 99.1991C63.012 104.801 66.3158 108.331 71.0532 111.812C75.5477 115.114 84.9548 115.086 84.9548 115.086M62.8222 192.622C62.8222 192.622 67.3739 202.495 73.2097 204.016C80.1134 205.815 85.6993 202.026 89.5351 196.112C92.2405 191.941 91.8609 180.929 91.5115 175.774M91.2873 173.039L97.8933 158.619M91.2873 173.039C91.2873 173.039 91.3435 174.148 91.5115 175.774M91.2873 173.039C91.2873 173.039 91.3978 174.096 91.5115 175.774M113.897 154.026L105.121 181.737C105.121 181.737 100.468 189.545 96.1404 188.545C93.1613 187.857 91.9521 180.038 91.5115 175.774M91.1595 77.7844C91.1595 77.7844 88.1782 76.4093 86.134 76.2222C84.2784 76.0523 82.8277 76.2203 81.401 76.6946M78.0546 78.2746C76.0289 79.432 74.5658 80.8087 73.4799 82.4001M78.0546 78.2746C78.0546 78.2746 76.956 85.5251 77.8618 90.0418C78.5498 93.4724 81.0198 98.4456 81.0198 98.4456M78.0546 78.2746C79.265 77.583 80.3262 77.0519 81.401 76.6946M84.9548 115.086C81.1405 114.489 78.9017 113.464 75.9586 110.965C70.0958 105.988 69.1988 99.7495 70.319 92.2236C70.8945 88.3571 71.6543 85.0753 73.4799 82.4001M84.9548 115.086C91.0322 113.67 100.517 111.458 100.517 111.458M132.343 52.422C132.343 52.422 134.07 47.6353 136.356 45.4943C140.299 41.8008 144.551 41.1119 149.889 42.248C156.861 43.7317 160.089 48.7334 162.53 55.3865C164.069 59.579 164.303 62.3527 163.59 66.7372C162.617 72.7198 156.229 78.7413 152.34 81.9154M152.826 119.644C150.587 118.048 147.778 117.229 144.708 117.381C140.663 117.58 137.821 118.805 135.532 122.1C132.581 126.35 136.204 135.265 136.347 135.612M152.826 119.644C155.056 121.234 156.721 123.594 157.516 126.534C158.578 130.458 155.696 136.737 155.696 136.737C155.696 136.737 162.49 133.092 166.973 133.918C171.626 134.776 175.473 136.497 176.803 141.007C177.031 141.781 177.149 142.542 177.167 143.284M152.826 119.644C152.826 119.644 152.897 110.339 155.187 105.04C157.673 99.2863 161.74 99.3087 164.331 94.5312C167.699 88.3209 173.463 79.2365 168.11 76.8299C163.584 74.7952 156.385 79.0613 152.34 81.9154M177.167 143.284C177.256 146.889 174.999 150.034 171.74 152.058M171.74 152.058C171.053 152.485 170.323 152.861 169.56 153.182C164.91 155.137 156.739 151.067 156.739 151.067C156.739 151.067 162.353 156.066 162.503 160.281C162.662 164.727 160.836 168.198 156.809 170.116C152.195 172.315 147.667 170.492 144.04 166.847C140.623 163.413 140.681 154.98 140.681 154.98C140.681 154.98 137.067 164.385 131.739 165.673C127.656 166.66 124.26 166.125 121.221 163.204C118.107 160.211 117.157 156.618 118.488 152.56C119.652 149.011 124.963 147.334 128.444 146.603M171.74 152.058C171.74 152.058 174.663 154.04 178.162 155.953M178.162 155.953C178.162 155.953 180.731 162.316 180.916 166.594C181.146 171.889 176.932 174.61 177.978 179.814C178.84 184.104 179.549 188.06 183.723 189.488C190.075 191.661 190.794 174.053 190.794 174.053C190.794 174.053 190.516 188.849 194.749 196.889C198.515 204.042 201.071 210.49 209.058 211.933C214.09 212.843 220.321 214.12 221.835 209.298C222.4 207.497 221.688 204.456 221.688 204.456M185.211 69.6418C185.211 69.6418 184.254 81.5119 182.025 88.727C178.723 99.4147 168.311 113.87 168.311 113.87M187.064 85.5129C187.064 85.5129 182.521 96.9313 178.693 103.783C175.782 108.995 170.441 116.653 170.441 116.653M179.523 82.0582C179.523 82.0582 175.221 92.4252 171.865 98.7731C169.199 103.816 164.464 111.367 164.464 111.367M174.131 85.111C174.131 85.111 169.943 95.3491 166.588 101.576C164.334 105.761 160.356 112.033 160.356 112.033M224.229 108.062C224.229 108.062 216.282 113.343 210.698 115.773C204.897 118.297 201.295 118.833 195.196 120.552C188.59 122.414 178.155 124.874 178.155 124.874M224.368 115.603C224.368 115.603 219.18 119.134 215.477 120.635C210.387 122.697 207.086 122.472 201.682 123.523C193.342 125.146 180.234 127.211 180.234 127.211M218.05 106.759C212.258 109.595 207.358 113.04 199.839 115.436C193.424 117.48 182.893 118.743 182.893 118.743C177.524 119.788 178.403 121.113 178.403 121.113M215.078 141.79C215.078 141.79 205.868 137.081 199.457 136.017C193.151 134.971 183.118 136.384 183.118 136.384M209.793 143.204C203.341 141.808 199.723 141.025 193.27 139.628M211.016 133.669C211.016 133.669 203.446 132.822 198.577 132.666C194.096 132.522 187.103 132.809 187.103 132.809M163.948 50.6053C163.948 50.6053 166.637 57.0617 167.284 61.4291C167.882 65.4588 167.354 71.8447 167.354 71.8447M165.684 46.8143C165.684 46.8143 169.53 55.3212 170.479 61.1274C171.258 65.8838 170.848 73.4455 170.848 73.4455M170.486 51.684C170.486 51.684 173.194 59.3207 173.799 64.4135C174.402 69.4979 173.556 77.5038 173.556 77.5038M158.457 87.3704C158.457 87.3704 150.8 94.1279 148.385 99.9267C145.835 106.05 146.734 116.853 146.734 116.853M155.597 97.5072C155.597 97.5072 150.602 102.76 149.448 107.036C148.408 110.886 149.585 117.266 149.585 117.266M132.479 122.02C132.479 122.02 124.421 115.643 118.251 114.183C108.165 111.795 92.4745 120.024 92.4745 120.024M130.719 117.309C130.719 117.309 130.201 116.855 129.316 116.13M95.3085 107.09C95.3085 107.09 105.853 103.814 114.279 106.725C119.787 108.629 126.463 113.791 129.316 116.13M131.684 123.755C131.684 123.755 126.298 120.868 122.615 119.6C119.113 118.394 113.401 117.361 113.401 117.361M129.316 116.13C129.316 116.13 123.487 112.86 119.433 111.602C116.231 110.608 111.023 109.901 111.023 109.901M73.4799 82.4001C73.4799 82.4001 72.5785 91.5754 74.7621 96.8076C76.0101 99.7979 79.2329 103.818 79.2329 103.818M81.401 76.6946C81.401 76.6946 79.6958 83.3846 80.1696 87.8139C80.6056 91.8887 83.4109 98.2214 83.4109 98.2214M62.8725 138.058C63.3183 138.262 71.6287 139.446 75.7282 140.013C79.8276 140.579 84.3635 138.099 84.3635 138.099M64.3623 134.806C64.3623 134.806 70.4688 137.129 74.5661 137.763C78.3531 138.348 84.3635 138.099 84.3635 138.099M84.3635 138.099L91.1225 136.601M69.6696 131.367C69.6696 131.367 78.0436 135.963 83.9419 136.734C86.0977 137.016 88.6836 136.886 91.1225 136.601M112.327 149.738C112.327 149.738 103.155 157.423 100.542 164.228C98.8198 168.711 98.5759 176.378 98.5759 176.378M126.87 169.076C126.87 169.076 122.806 186.253 115.423 194.062C111.261 198.464 108.476 200.843 102.881 203.235C97.5068 205.532 88.1349 206.02 88.1349 206.02M123.514 167.539C123.514 167.539 117.643 182.423 111.315 190.272C108.664 193.56 107.445 195.841 103.89 198.146C100.704 200.213 94.7722 201.601 94.7722 201.601M79.7402 209.633C79.7402 209.633 87.1585 212.679 92.1348 212.686C98.6017 212.695 107.825 207.581 107.825 207.581M93.2046 218.403C93.2046 218.403 103.586 218.169 109.646 215.875C116.634 213.229 120.039 210.243 125.335 205.021C132.836 197.624 139.301 181.984 139.301 181.984L142.724 172.049M140.583 169.724C140.583 169.724 135.905 182.272 131.494 189.565C127.5 196.167 125.606 200.492 119.572 205.33C116.575 207.733 111.197 210.513 111.197 210.513M139.914 164.957C139.914 164.957 135.289 178.329 130.359 185.813C127.32 190.425 121.501 196.846 121.501 196.846M136.395 164.333C136.395 164.333 132.927 172.701 130.216 177.822C127.64 182.688 122.949 189.905 122.949 189.905M155.384 175.822C155.384 175.822 158.114 187.464 161.393 194.336C163.51 198.773 167.758 205.21 167.758 205.21M159.188 175.823C159.188 175.823 160.979 186.967 164.139 193.363C166.078 197.289 170.203 202.81 170.203 202.81M163.52 172.357C163.52 172.357 164.651 182.798 166.931 189.069C168.669 193.85 172.729 200.754 172.729 200.754M183.208 161.592C183.208 161.592 187.452 167.096 187.687 171.217C187.86 174.248 185.992 178.788 185.992 178.788M190.193 162.634C192.741 167.837 194.17 170.754 196.718 175.956M195.629 163.958C195.629 163.958 199.652 175.249 201.239 182.723C202.399 188.183 203.371 196.846 203.371 196.846M128.444 146.603C130.241 146.226 131.551 146.101 131.551 146.101C131.551 146.101 130.242 146.409 128.444 146.603ZM152.34 81.9154C150.511 83.2059 149.327 84.2078 149.327 84.2078C149.327 84.2078 150.577 83.3541 152.34 81.9154ZM91.1225 136.601L92.9989 136.185L99.499 135.055C99.499 135.055 95.5534 136.084 91.1225 136.601ZM146.053 134.43C139.929 133.729 134.883 138.827 134.489 143.581C133.996 149.541 138.897 153.353 144.892 154.09C149.973 154.714 152.536 153.106 154.639 148.503C157.509 142.226 152.989 135.224 146.053 134.43Z" stroke="#D87F7F" stroke-linecap="round" stroke-linejoin="round" shape-rendering="crispEdges"/>
</g>
<path d="M137.158 130.359C131.035 129.659 125.989 134.756 125.595 139.511C125.101 145.47 130.002 149.283 135.998 150.019C141.078 150.643 143.641 149.036 145.745 144.433C148.614 138.155 144.094 131.153 137.158 130.359Z" fill="#D87F7F"/>
<path fill-rule="evenodd" clip-rule="evenodd" d="M158.078 129.848C153.595 129.021 146.801 132.667 146.801 132.667C146.801 132.667 149.683 126.387 148.622 122.463C147.826 119.523 146.161 117.163 143.932 115.574C141.692 113.978 138.884 113.159 135.814 113.31C131.768 113.51 128.926 114.734 126.638 118.029C123.686 122.28 127.31 131.195 127.453 131.541C127.324 131.233 124.338 124.148 120.208 122.594C114.055 120.279 106.439 123.831 105.354 130.238C104.517 135.18 107.077 139.123 111.495 141.613C113.696 142.854 117.084 142.8 119.549 142.533C121.347 142.156 122.656 142.031 122.656 142.031C122.656 142.031 121.348 142.338 119.549 142.533C116.068 143.263 110.757 144.94 109.593 148.49C108.262 152.548 109.213 156.141 112.326 159.133C115.366 162.055 118.761 162.59 122.845 161.602C128.172 160.315 131.786 150.909 131.786 150.909C131.786 150.909 131.729 159.343 135.146 162.777C138.772 166.422 143.3 168.244 147.915 166.046C151.942 164.128 153.768 160.657 153.609 156.211C153.458 151.996 147.845 146.996 147.845 146.996C147.845 146.996 156.016 151.066 160.665 149.112C161.428 148.791 162.159 148.414 162.845 147.988C166.104 145.964 168.361 142.819 168.272 139.213C168.254 138.472 168.137 137.711 167.908 136.936C166.579 132.427 162.731 130.705 158.078 129.848ZM125.595 139.511C125.989 134.756 131.035 129.659 137.158 130.359C144.094 131.153 148.614 138.155 145.745 144.433C143.641 149.036 141.078 150.643 135.998 150.019C130.002 149.283 125.101 145.47 125.595 139.511Z" fill="#D87F7F"/>
<path d="M146.801 132.667C146.801 132.667 153.595 129.021 158.078 129.848C162.731 130.705 166.579 132.427 167.908 136.936C168.137 137.711 168.254 138.472 168.272 139.213C168.272 139.213 174.936 136.167 179.401 136.564C184.134 136.985 190.478 141.639 190.478 141.639L201.802 144.948C206.224 146.24 217.917 144.113 218.281 137.002C218.595 130.882 206.944 125.938 206.944 125.938C206.944 125.938 215.508 125.735 220.38 121.004C226.043 115.503 229.476 112.626 229.794 100.455C229.932 95.1568 220.881 75.2767 211.344 76.6912C207.609 77.2451 206.925 79.4148 206.612 82.5519C206.223 86.4547 214.795 84.1504 214.795 88.5608C214.795 95.734 195.612 107.145 189.826 107.006C175.73 106.667 163.494 113.475 163.494 113.475C163.494 113.475 183.327 100.774 184.629 87.2586C185.717 75.9517 183.68 62.6087 174.882 59.9871C172.973 59.4182 169.984 61.815 169.984 61.815C169.984 61.815 167.964 37.3335 154.851 33.0694C143.586 29.4059 126.589 30.9646 122.701 41.0086C121.534 44.021 121.975 46.1245 123.448 48.3517C123.448 48.3517 125.175 43.565 127.461 41.424C131.404 37.7305 135.656 37.0416 140.995 38.1777C147.967 39.6614 151.195 44.663 153.636 51.3162C155.174 55.5087 155.408 58.2824 154.695 62.6669C153.723 68.6495 147.335 74.671 143.445 77.8451C147.49 74.991 154.69 70.7248 159.216 72.7596C164.569 75.1661 158.805 84.2506 155.437 90.4609C152.845 95.2384 148.778 95.216 146.292 100.969C144.003 106.268 143.932 115.574 143.932 115.574C146.161 117.163 147.826 119.523 148.622 122.463C149.683 126.387 146.801 132.667 146.801 132.667Z" fill="#D87F7F"/>
<path d="M126.638 118.029C128.926 114.734 131.768 113.51 135.814 113.31C138.884 113.159 141.692 113.978 143.932 115.574C143.932 115.574 144.003 106.268 146.292 100.969C148.778 95.216 152.845 95.2384 155.437 90.4609C158.805 84.2506 164.569 75.1661 159.216 72.7596C154.69 70.7248 147.49 74.991 143.445 77.8451C141.682 79.2837 140.432 80.1375 140.432 80.1375C140.432 80.1375 141.616 79.1356 143.445 77.8451C147.335 74.671 153.723 68.6495 154.695 62.6669C155.408 58.2824 155.174 55.5087 153.636 51.3162C151.195 44.663 147.967 39.6614 140.995 38.1777C135.656 37.0416 131.404 37.7305 127.461 41.424C125.175 43.565 123.448 48.3517 123.448 48.3517C123.784 48.86 124.174 49.3748 124.611 49.9084C127.897 53.92 131.091 46.5419 131.091 46.5419C131.091 46.5419 140.608 48.029 139.321 57.6328C138.474 63.9577 123.872 84.9797 122.235 89.9483C119.59 97.9814 120.097 103.761 120.097 103.761C120.097 103.761 113.143 98.7661 108.14 96.639C97.945 92.3037 87.9721 100.839 80.0195 93.1474C76.5398 89.7821 73.0201 87.2537 73.7164 82.513C74.3765 78.0197 77.4057 73.1419 81.9847 74.3258C86.6298 75.5268 83.5756 85.3852 83.5756 85.3852C83.5756 85.3852 88.1617 85.2691 90.9264 83.3527C96.083 79.7782 94.84 72.8846 91.8435 67.3379C87.6742 59.6204 72.7284 59.6801 64.9718 63.7143C64.9718 63.7143 56.967 70.2818 54.7174 76.158C52.1406 82.8889 50.4181 88.1785 52.4665 95.1288C54.1175 100.73 57.4213 104.26 62.1587 107.741C66.6531 111.044 76.0603 111.016 76.0603 111.016C74.1833 115.113 70.656 117.186 72.9243 121.124C74.9675 124.671 81.4811 123.978 81.4811 123.978C81.4811 123.978 96.0061 116.963 105.753 117.978C111.641 118.591 120.208 122.594 120.208 122.594C124.338 124.148 127.324 131.233 127.453 131.541C127.31 131.195 123.686 122.28 126.638 118.029Z" fill="#D87F7F"/>
<path fill-rule="evenodd" clip-rule="evenodd" d="M160.665 149.112C156.016 151.066 147.845 146.996 147.845 146.996C147.845 146.996 153.458 151.996 153.609 156.211C153.768 160.657 151.942 164.128 147.915 166.046C143.3 168.244 138.772 166.422 135.146 162.777C131.729 159.343 131.786 150.909 131.786 150.909C131.786 150.909 128.172 160.315 122.845 161.602C118.761 162.59 115.366 162.055 112.326 159.133C109.213 156.141 108.262 152.548 109.593 148.49C110.757 144.94 116.068 143.263 119.549 142.533C117.084 142.8 113.696 142.854 111.495 141.613C107.077 139.123 104.517 135.18 105.354 130.238C106.439 123.831 114.055 120.279 120.208 122.594C120.208 122.594 111.641 118.591 105.753 117.978C96.0061 116.963 81.4811 123.978 81.4811 123.978C81.4811 123.978 74.9675 124.671 72.9243 121.124C70.656 117.186 74.1833 115.113 76.0603 111.016C76.0603 111.016 66.6531 111.044 62.1587 107.741C57.4213 104.26 54.1175 100.73 52.4665 95.1288C50.4181 88.1785 52.1406 82.8889 54.7174 76.158C56.967 70.2818 64.9718 63.7143 64.9718 63.7143C52.4913 70.2055 48.7714 76.1958 44.4065 85.757C39.3281 96.8812 41.2891 103.784 46.1766 113.565C48.3632 117.941 53.6449 123.654 53.6449 123.654C53.6449 123.654 50.213 125.674 48.7546 127.66C47.5701 129.273 46.6211 132.317 46.6211 132.317C46.6211 132.317 53.8054 139.959 65.9392 141.167C73.0702 141.877 85.0568 136.336 89.8821 136.494C100.189 136.83 100.957 139.836 100.957 139.836C100.957 139.836 88.4629 146.716 80.1417 150.491C69.4444 155.344 70.0409 175.523 69.9566 181.597C69.8898 186.408 64.5026 190.384 64.5026 190.384C64.5026 190.384 60.9958 189.644 59.5172 188.1C57.3022 185.787 58.1131 180.078 58.1131 180.078C56.6362 183.301 54.8303 185.878 53.9277 188.551C53.9277 188.551 58.4794 198.425 64.3152 199.945C71.2189 201.744 76.8048 197.956 80.6406 192.042C83.3459 187.87 82.9664 176.859 82.617 171.703C82.449 170.077 82.3927 168.968 82.3927 168.968C82.3927 168.968 82.5033 170.026 82.617 171.703C82.9664 176.859 83.3459 187.87 80.6406 192.042C76.8048 197.956 71.2189 201.744 64.3152 199.945C58.4794 198.425 53.9277 188.551 53.9277 188.551C52.796 191.903 53.0839 195.406 57.2189 200.527C64.6524 209.732 73.8471 217.14 84.945 218.901C97.8038 220.941 106.1 216.178 116.424 208.435C127.627 200.032 135.838 178.394 135.838 178.394C135.838 178.394 138.049 189.424 142.554 194.637C147.353 200.189 155.035 206.717 158.92 203.955C161.132 202.383 163.114 198.256 163.114 198.256C163.114 198.256 172.804 217.153 188.734 220.182C197.583 221.864 206.936 218.332 206.936 218.332C206.936 218.332 219.815 211.244 218.159 205.269C217.388 202.483 215.324 201.204 212.794 200.385C212.794 200.385 213.505 203.426 212.94 205.227C211.426 210.049 205.195 208.772 200.163 207.863C192.177 206.419 189.621 199.972 185.855 192.819C181.621 184.779 181.899 169.983 181.899 169.983C181.899 169.983 181.18 187.59 174.828 185.418C170.655 183.99 169.946 180.034 169.084 175.744C168.037 170.539 172.251 167.818 172.022 162.524C171.836 158.245 169.267 151.883 169.267 151.883C165.768 149.97 162.845 147.988 162.845 147.988C162.159 148.414 161.428 148.791 160.665 149.112ZM90.6045 130.985L84.1044 132.115L82.2279 132.531C86.6589 132.013 90.6045 130.985 90.6045 130.985Z" fill="#D87F7F"/>
<path d="M196.93 172.191C195.217 166.054 191.077 156.939 191.077 156.939C191.077 156.939 181.377 156.709 175.572 154.774C173.591 154.114 171.329 153.01 169.267 151.883C169.267 151.883 171.836 158.245 172.022 162.524C172.251 167.818 168.037 170.539 169.084 175.744C169.946 180.034 170.655 183.99 174.828 185.418C181.18 187.59 181.899 169.983 181.899 169.983C181.899 169.983 181.621 184.779 185.855 192.819C189.621 199.972 192.177 206.419 200.163 207.863C205.195 208.772 211.426 210.049 212.94 205.227C213.505 203.426 212.794 200.385 212.794 200.385C208.595 199.028 203.11 198.941 200.108 195.355C194.207 188.307 199.388 181 196.93 172.191Z" fill="#D87F7F"/>
<path d="M195.209 151.554C196.24 147.42 190.478 141.639 190.478 141.639C190.478 141.639 184.134 136.985 179.401 136.564C174.936 136.167 168.272 139.213 168.272 139.213C168.361 142.819 166.104 145.964 162.845 147.988C162.845 147.988 165.768 149.97 169.267 151.883C171.329 153.01 173.591 154.114 175.572 154.774C181.377 156.709 191.077 156.939 191.077 156.939C191.077 156.939 194.568 154.125 195.209 151.554Z" fill="#D87F7F"/>
<path d="M127.457 131.552C127.457 131.552 127.455 131.548 127.453 131.541M120.208 122.594C114.055 120.279 106.439 123.831 105.354 130.238C104.517 135.18 107.077 139.123 111.495 141.613C113.696 142.854 117.084 142.8 119.549 142.533M120.208 122.594C120.208 122.594 111.641 118.591 105.753 117.978C96.0061 116.963 81.4811 123.978 81.4811 123.978C81.4811 123.978 74.9675 124.671 72.9243 121.124C70.656 117.186 74.1833 115.113 76.0603 111.016M120.208 122.594C124.338 124.148 127.324 131.233 127.453 131.541M206.944 125.938C206.944 125.938 215.508 125.735 220.38 121.004C226.043 115.503 229.476 112.626 229.794 100.455C229.932 95.1568 220.881 75.2767 211.344 76.6912C207.609 77.2451 206.925 79.4148 206.612 82.5519C206.223 86.4547 214.795 84.1504 214.795 88.5608C214.795 95.734 195.612 107.145 189.826 107.006C175.73 106.667 163.494 113.475 163.494 113.475C163.494 113.475 183.327 100.774 184.629 87.2586C185.717 75.9517 183.68 62.6087 174.882 59.9871C172.973 59.4182 169.984 61.815 169.984 61.815C169.984 61.815 167.964 37.3335 154.851 33.0694C143.586 29.4059 126.589 30.9646 122.701 41.0086C121.534 44.021 121.975 46.1245 123.448 48.3517M206.944 125.938C206.944 125.938 218.595 130.882 218.281 137.002C217.917 144.113 206.224 146.24 201.802 144.948M206.944 125.938L192.288 125.094C192.288 125.094 182.618 125.282 176.719 126.867C172.646 127.961 166.647 130.721 166.647 130.721M201.802 144.948C197.38 143.656 194.901 142.931 190.478 141.639M201.802 144.948L190.478 141.639M190.478 141.639C190.478 141.639 196.24 147.42 195.209 151.554C194.568 154.125 191.077 156.939 191.077 156.939M190.478 141.639C190.478 141.639 184.134 136.985 179.401 136.564C174.936 136.167 168.272 139.213 168.272 139.213M191.077 156.939C191.077 156.939 195.217 166.054 196.93 172.191C199.388 181 194.207 188.307 200.108 195.355C203.11 198.941 208.595 199.028 212.794 200.385M191.077 156.939C191.077 156.939 181.377 156.709 175.572 154.774C173.591 154.114 171.329 153.01 169.267 151.883M158.92 203.955C161.132 202.383 163.114 198.256 163.114 198.256C163.114 198.256 172.804 217.153 188.734 220.182C197.583 221.864 206.936 218.332 206.936 218.332C206.936 218.332 219.815 211.244 218.159 205.269C217.388 202.483 215.324 201.204 212.794 200.385M158.92 203.955C155.035 206.717 147.353 200.189 142.554 194.637C138.049 189.424 135.838 178.394 135.838 178.394C135.838 178.394 127.627 200.032 116.424 208.435C106.1 216.178 97.8038 220.941 84.945 218.901C73.8471 217.14 64.6524 209.732 57.2189 200.527C53.0839 195.406 52.796 191.903 53.9277 188.551M158.92 203.955C158.92 203.955 154.206 200.045 151.676 197.081C144.992 189.252 140.843 173.144 140.843 173.144M64.9718 63.7143C52.4913 70.2055 48.7714 76.1958 44.4065 85.757C39.3281 96.8812 41.2891 103.784 46.1766 113.565C48.3632 117.941 53.6449 123.654 53.6449 123.654C53.6449 123.654 50.213 125.674 48.7546 127.66C47.5701 129.273 46.6211 132.317 46.6211 132.317C46.6211 132.317 53.8054 139.959 65.9392 141.167C73.0702 141.877 85.0568 136.336 89.8821 136.494C100.189 136.83 100.957 139.836 100.957 139.836C100.957 139.836 88.4629 146.716 80.1417 150.491C69.4444 155.344 70.0409 175.523 69.9566 181.597C69.8898 186.408 64.5026 190.384 64.5026 190.384C64.5026 190.384 60.9958 189.644 59.5172 188.1C57.3022 185.787 58.1131 180.078 58.1131 180.078C56.6362 183.301 54.8303 185.878 53.9277 188.551M64.9718 63.7143C72.7284 59.6801 87.6742 59.6204 91.8435 67.3379C94.84 72.8846 96.083 79.7782 90.9264 83.3527C88.1617 85.2691 83.5756 85.3852 83.5756 85.3852C83.5756 85.3852 86.6298 75.5268 81.9847 74.3258C77.4057 73.1419 74.3765 78.0197 73.7164 82.513C73.0201 87.2537 76.5398 89.7821 80.0195 93.1474C87.9721 100.839 97.945 92.3037 108.14 96.639C113.143 98.7661 120.097 103.761 120.097 103.761C120.097 103.761 119.59 97.9814 122.235 89.9483C123.872 84.9797 138.474 63.9577 139.321 57.6328C140.608 48.029 131.091 46.5419 131.091 46.5419C131.091 46.5419 127.897 53.92 124.611 49.9084C124.174 49.3748 123.784 48.86 123.448 48.3517M64.9718 63.7143C64.9718 63.7143 56.967 70.2818 54.7174 76.158C52.1406 82.8889 50.4181 88.1785 52.4665 95.1288C54.1175 100.73 57.4213 104.26 62.1587 107.741C66.6531 111.044 76.0603 111.016 76.0603 111.016M53.9277 188.551C53.9277 188.551 58.4794 198.425 64.3152 199.945C71.2189 201.744 76.8048 197.956 80.6406 192.042C83.3459 187.87 82.9664 176.859 82.617 171.703M82.3927 168.968L88.9988 154.549M82.3927 168.968C82.3927 168.968 82.449 170.077 82.617 171.703M82.3927 168.968C82.3927 168.968 82.5033 170.026 82.617 171.703M105.003 149.956L96.2261 177.667C96.2261 177.667 91.5739 185.474 87.2459 184.475C84.2667 183.787 83.0575 175.968 82.617 171.703M82.265 73.7141C82.265 73.7141 79.2837 72.339 77.2395 72.1519C75.3839 71.982 73.9331 72.15 72.5065 72.6242M69.16 74.2043C67.1343 75.3617 65.6713 76.7384 64.5853 78.3298M69.16 74.2043C69.16 74.2043 68.0615 81.4548 68.9672 85.9714C69.6552 89.4021 72.1253 94.3753 72.1253 94.3753M69.16 74.2043C70.3705 73.5127 71.4316 72.9816 72.5065 72.6242M76.0603 111.016C72.246 110.419 70.0072 109.393 67.0641 106.895C61.2013 101.917 60.3043 95.6792 61.4245 88.1533C62 84.2868 62.7598 81.0049 64.5853 78.3298M76.0603 111.016C82.1377 109.599 91.6225 107.388 91.6225 107.388M123.448 48.3517C123.448 48.3517 125.175 43.565 127.461 41.424C131.404 37.7305 135.656 37.0416 140.995 38.1777C147.967 39.6614 151.195 44.663 153.636 51.3162C155.174 55.5087 155.408 58.2824 154.695 62.6669C153.723 68.6495 147.335 74.671 143.445 77.8451M143.932 115.574C141.692 113.978 138.884 113.159 135.814 113.31C131.768 113.51 128.926 114.734 126.638 118.029C123.686 122.28 127.31 131.195 127.453 131.541M143.932 115.574C146.161 117.163 147.826 119.523 148.622 122.463C149.683 126.387 146.801 132.667 146.801 132.667C146.801 132.667 153.595 129.021 158.078 129.848C162.731 130.705 166.579 132.427 167.908 136.936C168.137 137.711 168.254 138.472 168.272 139.213M143.932 115.574C143.932 115.574 144.003 106.268 146.292 100.969C148.778 95.216 152.845 95.2384 155.437 90.4609C158.805 84.2506 164.569 75.1661 159.216 72.7596C154.69 70.7248 147.49 74.991 143.445 77.8451M168.272 139.213C168.361 142.819 166.104 145.964 162.845 147.988M162.845 147.988C162.159 148.414 161.428 148.791 160.665 149.112C156.016 151.066 147.845 146.996 147.845 146.996C147.845 146.996 153.458 151.996 153.609 156.211C153.768 160.657 151.942 164.128 147.915 166.046C143.3 168.244 138.772 166.422 135.146 162.777C131.729 159.343 131.786 150.909 131.786 150.909C131.786 150.909 128.172 160.315 122.845 161.602C118.761 162.59 115.366 162.055 112.326 159.133C109.213 156.141 108.262 152.548 109.593 148.49C110.757 144.94 116.068 143.263 119.549 142.533M162.845 147.988C162.845 147.988 165.768 149.97 169.267 151.883M169.267 151.883C169.267 151.883 171.836 158.245 172.022 162.524C172.251 167.818 168.037 170.539 169.084 175.744C169.946 180.034 170.655 183.99 174.828 185.418C181.18 187.59 181.899 169.983 181.899 169.983C181.899 169.983 181.621 184.779 185.855 192.819C189.621 199.972 192.177 206.419 200.163 207.863C205.195 208.772 211.426 210.049 212.94 205.227C213.505 203.426 212.794 200.385 212.794 200.385M176.316 65.5714C176.316 65.5714 175.359 77.4416 173.13 84.6567C169.828 95.3444 159.416 109.799 159.416 109.799M178.169 81.4425C178.169 81.4425 173.627 92.861 169.799 99.713C166.887 104.924 161.547 112.583 161.547 112.583M170.628 77.9879C170.628 77.9879 166.326 88.3548 162.971 94.7028C160.305 99.7458 155.57 107.297 155.57 107.297M165.237 81.0407C165.237 81.0407 161.048 91.2788 157.694 97.5058C155.439 101.691 151.461 107.963 151.461 107.963M215.334 103.992C215.334 103.992 207.387 109.273 201.803 111.703C196.002 114.227 192.401 114.762 186.301 116.481C179.695 118.343 169.261 120.804 169.261 120.804M215.473 111.533C215.473 111.533 210.286 115.064 206.582 116.564C201.492 118.626 198.191 118.401 192.787 119.453C184.447 121.076 171.34 123.14 171.34 123.14M209.155 102.689C203.364 105.524 198.463 108.97 190.945 111.366C184.529 113.41 173.999 114.672 173.999 114.672C168.629 115.718 169.509 117.043 169.509 117.043M206.184 137.719C206.184 137.719 196.973 133.01 190.563 131.947C184.256 130.9 174.224 132.314 174.224 132.314M200.899 139.134C194.446 137.738 190.828 136.954 184.375 135.558M202.121 129.598C202.121 129.598 194.551 128.752 189.683 128.596C185.202 128.452 178.208 128.739 178.208 128.739M155.053 46.535C155.053 46.535 157.742 52.9914 158.39 57.3588C158.987 61.3885 158.459 67.7744 158.459 67.7744M156.79 42.744C156.79 42.744 160.635 51.2509 161.585 57.0571C162.363 61.8134 161.953 69.3752 161.953 69.3752M161.592 47.6137C161.592 47.6137 164.3 55.2504 164.904 60.3431C165.508 65.4276 164.662 73.4335 164.662 73.4335M149.562 83.3001C149.562 83.3001 141.905 90.0576 139.49 95.8564C136.94 101.979 137.84 112.783 137.84 112.783M146.702 93.4369C146.702 93.4369 141.708 98.6893 140.553 102.965C139.514 106.815 140.691 113.196 140.691 113.196M123.584 117.95C123.584 117.95 115.527 111.573 109.356 110.112C99.2701 107.725 83.5799 115.954 83.5799 115.954M121.824 113.239C121.824 113.239 121.307 112.785 120.421 112.059M86.414 103.02C86.414 103.02 96.9583 99.744 105.384 102.655C110.893 104.558 117.568 109.721 120.421 112.059M122.789 119.685C122.789 119.685 117.404 116.798 113.721 115.53C110.218 114.324 104.507 113.291 104.507 113.291M120.421 112.059C120.421 112.059 114.592 108.79 110.539 107.532C107.337 106.538 102.128 105.831 102.128 105.831M64.5853 78.3298C64.5853 78.3298 63.6839 87.5051 65.8676 92.7373C67.1156 95.7276 70.3384 99.7475 70.3384 99.7475M72.5065 72.6242C72.5065 72.6242 70.8013 79.3143 71.2751 83.7436C71.711 87.8184 74.5164 94.1511 74.5164 94.1511M53.978 133.987C54.4238 134.191 62.7342 135.376 66.8336 135.942C70.9331 136.509 75.469 134.029 75.469 134.029M55.4678 130.735C55.4678 130.735 61.5743 133.059 65.6716 133.692C69.4586 134.278 75.469 134.029 75.469 134.029M75.469 134.029L82.2279 132.531M60.7751 127.297C60.7751 127.297 69.1491 131.893 75.0473 132.663C77.2032 132.945 79.7891 132.815 82.2279 132.531M103.432 145.667C103.432 145.667 94.2603 153.353 91.6472 160.157C89.9253 164.641 89.6814 172.307 89.6814 172.307M117.975 165.006C117.975 165.006 113.912 182.183 106.529 189.992C102.367 194.394 99.5816 196.773 93.9868 199.164C88.6123 201.461 79.2403 201.949 79.2403 201.949M114.619 163.469C114.619 163.469 108.749 178.352 102.42 186.201C99.7691 189.49 98.55 191.77 94.9959 194.076C91.8094 196.142 85.8777 197.531 85.8777 197.531M70.8457 205.563C70.8457 205.563 78.264 208.609 83.2403 208.616C89.7071 208.624 98.93 203.511 98.93 203.511M84.31 214.333C84.31 214.333 94.6919 214.099 100.752 211.804C107.74 209.159 111.145 206.173 116.44 200.951C123.942 193.553 130.406 177.914 130.406 177.914L133.829 167.978M131.689 165.654C131.689 165.654 127.011 178.201 122.599 185.495C118.606 192.096 116.711 196.422 110.677 201.26C107.68 203.662 102.302 206.443 102.302 206.443M131.019 160.886C131.019 160.886 126.394 174.259 121.464 181.742C118.426 186.355 112.606 192.776 112.606 192.776M127.501 160.263C127.501 160.263 124.033 168.631 121.321 173.752C118.745 178.618 114.055 185.835 114.055 185.835M146.489 171.752C146.489 171.752 149.22 183.394 152.499 190.266C154.615 194.702 158.863 201.139 158.863 201.139M150.293 171.752C150.293 171.752 152.085 182.896 155.244 189.293C157.183 193.218 161.309 198.74 161.309 198.74M154.625 168.287C154.625 168.287 155.756 178.728 158.036 184.999C159.775 189.78 163.834 196.684 163.834 196.684M174.313 157.521C174.313 157.521 178.558 163.026 178.793 167.147C178.966 170.178 177.097 174.717 177.097 174.717M181.298 158.564C183.847 163.766 185.275 166.683 187.824 171.886M186.734 159.888C186.734 159.888 190.757 171.178 192.344 178.653C193.504 184.112 194.477 192.775 194.477 192.775M119.549 142.533C121.347 142.156 122.656 142.031 122.656 142.031C122.656 142.031 121.348 142.338 119.549 142.533ZM143.445 77.8451C141.616 79.1356 140.432 80.1375 140.432 80.1375C140.432 80.1375 141.682 79.2837 143.445 77.8451ZM82.2279 132.531L84.1044 132.115L90.6045 130.985C90.6045 130.985 86.6589 132.013 82.2279 132.531ZM137.158 130.359C131.035 129.659 125.989 134.756 125.595 139.511C125.101 145.47 130.002 149.283 135.998 150.019C141.078 150.643 143.641 149.036 145.745 144.433C148.614 138.155 144.094 131.153 137.158 130.359Z" stroke="#F4D1D1" stroke-linecap="round" stroke-linejoin="round"/>
<defs>
<filter id="filter0_d_3628_871" x="29.8203" y="18.832" width="229.371" height="230.375" filterUnits="userSpaceOnUse" color-interpolation-filters="sRGB">
<feFlood flood-opacity="0" result="BackgroundImageFix"/>
<feColorMatrix in="SourceAlpha" type="matrix" values="0 0 0 0 0 0 0 0 0 0 0 0 0 0 0 0 0 0 127 0" result="hardAlpha"/>
<feOffset dy="4"/>
<feGaussianBlur stdDeviation="10"/>
<feComposite in2="hardAlpha" operator="out"/>
<feColorMatrix type="matrix" values="0 0 0 0 0 0 0 0 0 0 0 0 0 0 0 0 0 0 0.25 0"/>
<feBlend mode="normal" in2="BackgroundImageFix" result="effect1_dropShadow_3628_871"/>
<feBlend mode="normal" in="SourceGraphic" in2="effect1_dropShadow_3628_871" result="shape"/>
</filter>
</defs>
</svg>
