<svg width="1293" height="5266" viewBox="0 0 1293 5266" fill="none" xmlns="http://www.w3.org/2000/svg">
<path d="M1.51491 5176.4C1.51491 5176.4 26.4762 5050.73 64.0019 4979.19C128.362 4856.48 210.716 4819.55 315.653 4729.06C427.008 4633.03 507.05 4601.24 618.441 4505.26C714.835 4422.2 772.624 4377.29 851.018 4277.07C910.184 4201.42 920.308 4142.4 982.666 4069.36C1029.63 4014.35 1074.03 4000.11 1117.24 3942.1C1238.45 3779.34 1179.26 3629.99 1187.45 3427.21C1190.93 3341.03 1215.57 3287.88 1187.45 3206.34C1161.49 3131.06 1117.48 3103.3 1066.04 3042.51C936.199 2889.08 812.152 2855.02 674.025 2709C531.919 2558.78 492.882 2440.51 355.146 2286.27C271.741 2192.87 184.898 2170.57 129.883 2058.08C59.5664 1914.31 55.8358 1797.12 115.256 1648.51C158.977 1539.16 211.996 1486.18 305.413 1414.47C398.306 1343.17 478.141 1351.2 578.947 1291.6C752.746 1188.85 838.535 1105.15 965.112 947.857C1097.99 782.733 1168.61 676.226 1226.94 472.464C1277.75 295.01 1266.44 1.46111 1266.44 1.46111L1291.68 1.46167C1291.68 1.46167 1298.92 294.79 1248.42 472.464C1188.28 684.064 1117.14 795.887 979.254 967.288C853.01 1124.22 769.096 1210.17 594.724 1310.96C493.895 1369.24 413.873 1358.79 320.746 1428.72C226.66 1499.37 173.011 1552.37 129.883 1661.84C73.1206 1805.92 77.6088 1918.8 145.304 2058.08C200.411 2171.46 289.697 2192.2 373.619 2286.27C504.547 2433.02 545.943 2542.98 681.343 2685.61C823.238 2835.09 950.041 2866.7 1082.6 3024.52C1138.7 3091.32 1183.86 3123.89 1212.37 3206.34C1245.31 3301.55 1217.52 3363.71 1212.37 3464.33C1202.24 3662.51 1257.78 3810.35 1135.47 3966.62C1093.29 4020.51 1050.27 4032.45 1005.69 4084.38C948.248 4151.3 940.194 4206.04 887.928 4277.07C776.627 4428.33 683.56 4488.42 537.044 4605.9C457.959 4669.31 406.063 4695.1 327.956 4759.71C232.181 4838.94 161.312 4872.55 97.4455 4979.19C33.5793 5085.82 97.4634 5264.86 97.4634 5264.86L1.51491 5176.4Z" fill="#D87F7F" stroke="#FECACA"/>
</svg>
