<svg width="254" height="605" viewBox="0 0 254 605" fill="none" xmlns="http://www.w3.org/2000/svg">
<g filter="url(#filter0_d_3628_874)">
<path d="M91.6749 150.986C91.6749 150.986 76.0778 151.531 67.1304 146.507C57.6551 141.187 51.9036 137.679 48.4042 125.376C44.2385 110.73 43.0233 95.8945 51.4122 81.3426C60.7312 65.1772 73.5852 55.891 91.6749 51.3163C120.517 44.0226 144.7 53.3561 164.645 73.1933C164.645 73.1933 182.492 92.2704 183.795 104.84C185.063 117.079 171.4 132.49 171.4 132.49C167.719 135.079 162.055 136.176 157.329 136.627M91.6749 150.986C91.6749 150.986 65.5143 144.71 59.4646 128.703C55.1923 117.399 53.629 106.739 59.4646 93.7647C65.8728 79.5174 79.418 72.3848 94.1333 69.3939C106.247 66.9318 117.951 71.1582 126.796 77.3188C139.69 86.2985 143.432 94.5708 146.28 106.068C150.614 123.57 146.896 131.549 139.69 145.321C130.206 163.445 120.038 170.891 100.723 175.979C82.3064 180.829 66.5528 176.87 49.723 167.956C33.3974 159.309 27.0122 151.327 19.3521 135.866C11.1259 119.262 10.8596 107.309 12.7622 88.8771C14.3402 73.5893 18.7197 64.5617 26.5151 51.3163C38.7874 30.4638 55.6726 19.9726 77.8017 11.8039C96.941 4.73894 106.836 6.52699 125.077 9.51116C152.34 13.9712 168.042 22.8906 187.825 42.173C206.102 59.9884 212.035 73.8835 221.061 97.7581C228.829 118.305 233.889 130.297 232.808 151.909C232.098 166.116 229.641 174.068 224.785 187.438C218.906 203.629 212.337 213.511 202.508 229.143C193.817 242.966 178.083 263.078 178.083 263.078C178.083 263.078 160.626 290.784 157.669 302.845C155.431 311.973 161.178 314.079 161.178 314.079L173.785 319.809C173.785 319.809 171.073 322.355 167.099 325.016M91.6749 150.986L100.723 149.325C100.723 149.325 113.446 144.495 118.72 138.11C127.445 127.547 130.862 114.925 123.521 103.357C119.009 96.2477 113.967 92.7714 105.687 91.2393C99.0315 90.0077 94.4832 90.5258 88.5395 93.7647C81.6108 97.5403 76.1931 109.759 76.1931 109.759C76.235 102.255 82.026 93.7647 88.5395 90.1403C94.8279 86.6412 99.79 84.8401 106.697 86.2704C114.98 87.9857 120.3 90.6415 125.442 97.2755C132.195 105.988 135.002 114.018 132.667 125.376C129.702 139.795 124.343 144.484 111.632 151.909C98.7946 159.409 85.7451 161.814 71.163 158.916C52.2964 155.166 41.7593 146.153 33.6664 128.703C26.2576 112.728 25.6584 101.452 30.9227 83.6943C37.3778 61.9202 48.9112 48.5608 69.1053 37.2807C92.8592 24.0123 111.36 21.4432 138.383 30.8789C161.104 38.8126 178.852 48.0351 188.684 67.8019C196.394 83.3036 192.453 97.7581 187.825 113.646C184.89 123.72 178.636 132.65 168.927 136.627C163.804 138.726 157.329 136.627 157.329 136.627M143.987 287.719C143.987 287.719 136.31 295.064 133.959 301.185M143.987 287.719C143.987 287.719 146.388 286.809 147.905 286.173C157.104 282.319 170.019 273.393 170.019 273.393C170.019 273.393 160.179 280.198 155.611 286.173C150.205 293.246 146.392 298.047 146.229 306.947C146.135 312.084 145.937 315.679 148.992 319.809C150.948 322.453 152.565 323.776 155.611 325.016C159.766 326.707 167.099 325.016 167.099 325.016M143.987 287.719C143.987 287.719 140.986 289.146 136.638 290.775M133.959 301.185C131.487 307.624 129.966 311.91 132.572 318.791C135.603 326.797 140.958 329.26 148.992 330.752C155.103 331.887 162.1 328.361 167.099 325.016M133.959 301.185C133.959 301.185 122.987 320.853 118.719 334.513C114.509 347.989 112.275 355.972 112.3 370.09C112.326 384.067 118.719 405.3 118.719 405.3C118.719 405.3 115.944 404.528 112.3 403.179M107.877 294.679C97.8093 293.114 85.743 289.802 85.743 289.802L104.734 275.399C104.734 275.399 80.1016 278.067 65.4815 273.393C52.8693 269.36 47.9045 265.871 38.9141 256.15C34.7084 251.603 30.2604 244.465 27.0138 238.771M107.877 294.679C110.483 295.084 112.955 295.372 115.049 295.455C117.084 295.536 119.288 295.354 121.541 294.998M107.877 294.679L94.1453 298.203C94.1453 298.203 79.3837 301.705 69.7551 302.845C61.4915 303.823 56.7927 304.5 48.4824 304.071C40.9595 303.684 36.5571 303.566 29.4103 301.185C22.3197 298.823 12.5389 292.151 12.5389 292.151C12.5389 292.151 12.1066 297.684 12.5389 301.185C13.7735 311.183 17.2716 317.002 24.459 324.06C32.1394 331.602 38.7078 334.546 49.3993 335.797C62.8553 337.371 82.592 325.711 82.592 325.711C82.592 325.711 69.93 334.759 62.2821 342.425C49.1307 355.609 44.1532 366.807 35.4621 383.11C24.3804 403.898 19.6754 416.107 15.1063 438.859C10.5793 461.402 9.91651 476.65 13.3255 499.193C15.155 511.291 18.6217 519.16 21.7888 528.407M144.611 573.148C127.151 588.183 111.506 592.224 88.8271 589.785C63.8362 587.098 52.9069 575.045 37.1125 555.492C29.5056 546.075 24.9222 537.554 21.7888 528.407M144.611 573.148C154.665 564.49 162.631 560.513 168.783 548.524C179.297 528.035 175.277 504.054 161.402 485.674C150.768 471.586 132.657 468.895 117.116 470.182C96.5707 471.884 86.7214 499.088 90.1737 516.798C92.7803 530.169 113.767 531.102 113.767 531.102C113.767 531.102 114.867 516.351 123.01 513.094C132.271 509.389 136.808 512.724 143.046 517.581C147.56 521.095 150.995 528.901 150.995 528.901M144.611 573.148L145.877 569.674M150.995 528.901C146.645 524.931 134.763 514.965 128.061 516.798C120.407 518.892 115.629 526.336 118.535 533.119C119.972 536.472 123.99 536.142 125.321 539.538C128.443 547.507 113.827 547.484 105.332 548.524C93.5724 549.962 76.3569 539.538 76.3569 539.538M150.995 528.901C150.995 528.901 153.15 538.631 152.594 547.353C152.036 556.126 145.877 569.674 145.877 569.674M76.3569 539.538C76.3569 539.538 86.1286 526.564 86.9933 516.798C87.9147 506.391 79.4745 491.124 79.4745 491.124C79.4745 491.124 66.3322 501.878 57.6517 499.193C50.7319 497.053 45.2138 491.124 45.2138 491.124C45.2138 491.124 43.4029 474.576 43.6983 463.952C44.0288 452.065 47.3821 433.725 47.3821 433.725M76.3569 539.538C76.3569 539.538 69.2054 545.389 63.661 546.504C57.2963 547.784 49.31 545.433 49.31 545.433M47.3821 433.725C47.3821 433.725 48.4724 444.931 52.872 450.685C57.2717 456.438 65.768 457.099 72.9408 458.17M47.3821 433.725C47.3821 433.725 51.325 419.996 54.7398 411.525C56.825 406.352 60.5858 398.495 60.5858 398.495C60.5858 398.495 53.489 414.968 52.872 426.172C52.4456 433.914 50.8074 439.257 54.7398 445.94C57.4914 450.616 65.0195 455.287 65.0195 455.287L72.9408 458.17M157.329 136.627C155.131 136.837 153.135 136.907 151.637 136.922M151.637 136.922C149.942 136.939 148.882 136.887 148.882 136.887C148.882 136.887 145.054 145.378 146.631 149.325C148.198 153.249 154.994 156.188 154.994 156.188C154.994 156.188 149.693 161.613 142.341 167.661C138.742 170.622 134.088 176.118 131.35 179.499M151.637 136.922C151.637 136.922 150.187 143.019 151.637 146.443C153.551 150.966 161.802 153.846 161.802 153.846L146.631 168.429C146.631 168.429 140.551 175.85 136.179 178.123C133.84 179.339 131.35 179.499 131.35 179.499M131.35 179.499C129.95 181.228 129.051 182.404 129.051 182.404C129.051 182.404 138.773 187.226 146.631 188.999C163.942 192.906 177.121 192.324 192.631 181.922C201.083 176.255 213.012 163.445 213.012 163.445C213.012 163.445 199.301 185.196 184.911 194.682C175.378 200.967 170.023 205.74 158.104 208.622C139.194 213.196 126.235 212.033 107.278 206.585C99.5493 204.364 88.9419 201.223 88.9419 201.223C88.9419 201.223 87.1847 211.955 90.122 218.095C93.9135 226.02 106.454 233.567 106.454 233.567C106.454 233.567 91.7003 226.691 83.5321 226.691C75.364 226.691 70.7596 226.054 62.6163 226.691C54.635 227.314 50.4825 229.252 42.3604 229.842C34.5286 230.411 22.2173 229.842 22.2173 229.842C22.2173 229.842 24.1473 233.744 27.0138 238.771M221.061 106.068L222.663 120.548C222.663 120.548 225.453 138.076 224.785 149.325C224.073 161.33 222.704 168.183 218.632 179.499C212.61 196.235 207.044 205.534 194.451 218.095C188.543 223.987 183.571 228.01 176.558 232.53M176.558 232.53C170.061 237.766 162.876 241.723 155.611 245.827C148.346 249.93 123.793 253.61 103.169 252.97C82.6006 252.331 51.3653 244.909 51.3653 244.909C42.3461 242.649 29.4103 235.697 29.4103 235.697C29.4103 235.697 70.813 244.261 97.7253 244.909C115.809 245.345 126.263 246.219 143.987 242.606C157.611 239.83 163.348 236.867 176.558 232.53ZM222.663 132.49C222.663 132.49 213.483 171.909 208.845 182.404C200.612 201.034 188.682 209.375 171.4 220.152C160.181 227.148 142.341 233.567 142.341 233.567M210.284 170.35C210.284 170.35 201.251 187.721 192.631 196.546C184.629 204.741 179.285 208.93 168.927 213.819C161.503 217.322 148.882 220.152 148.882 220.152M91.6749 203.455C91.6749 203.455 96.0608 211.953 100.723 215.546C107.738 220.952 114.993 222.922 124.398 223.827C137.62 225.098 145.014 226.6 157.329 223.031C168.069 219.918 182.072 208.622 182.072 208.622L192.631 201.223M133.959 271.263C133.959 271.263 149.957 270.174 159.967 263.078C169.977 255.983 175.589 250.419 185.599 243.323C195.609 236.228 200.844 226.454 200.844 226.454L196.022 235.637C196.022 235.637 192.45 241.452 189.787 244.909C181.772 255.315 175.398 259.758 164.49 267.075C151.364 275.88 143.04 279.967 127.801 284.163C115.023 287.681 94.1453 288.519 94.1453 288.519M130.875 306.947L117.414 325.711C117.414 325.711 107.141 342.418 105.854 355.603C105.069 363.644 104.4 369.06 105.854 377.478C107.549 387.29 115.095 401.243 115.095 401.243C115.095 401.243 102.634 387.457 99.9906 377.478C97.9943 369.941 98.8766 366.587 99.9906 358.87C101.79 346.406 113.393 328.726 113.393 328.726L136.638 290.775M136.638 290.775C132.379 292.372 126.827 294.164 121.541 294.998M136.638 290.775L113.393 312.7C113.393 312.7 76.8545 344.343 60.5858 370.09C49.2596 388.015 43.9045 399.026 37.5412 419.252C28.6296 447.579 24.2962 466.302 28.6453 494.769C30.8131 508.958 33.7169 521.354 47.2278 526.201C57.7179 529.964 67.9101 529.404 75.2992 521.061C81.5772 513.972 82.2182 504.851 79.4745 497.176C79.4745 497.176 72.2084 502.338 66.7987 503.467C62.4155 504.382 59.5319 505.022 55.3329 503.467C49.8934 501.452 45.2138 492.594 45.2138 492.594M104.849 330.752C104.849 330.752 93.3049 343.263 90.944 353.353C89.2428 360.624 89.2509 365.201 90.944 372.474C92.5715 379.465 94.8678 383.108 98.9133 389.037C103.199 395.319 112.3 403.179 112.3 403.179M112.3 403.179C108.003 401.588 102.497 399.193 98.9133 396.314C91.0318 389.982 85.5994 382.436 83.8757 372.474C82.5807 364.989 87.1766 355.603 87.1766 355.603C87.1766 355.603 69.4848 378.84 66.8209 393.563C65.5459 400.611 66.3912 401.406 66.8209 406.4C68.288 423.455 68.4399 432.185 77.6406 444.911C80.7286 449.182 87.1766 450.779 86.4315 455.287C85.7578 459.362 80.1851 459.251 72.9408 458.17M67.3221 263.078C67.3221 263.078 52.2949 258.305 43.8677 252.97C36.5962 248.366 27.0138 238.771 27.0138 238.771M121.541 294.998L98.9133 315.826C98.9133 315.826 82.4803 329.075 73.5207 339.113C64.7284 348.964 53.5845 366.421 53.5845 366.421M49.31 545.433C49.31 545.433 59.9685 559.537 70.9501 565.54C85.8519 573.686 97.5214 578.097 113.767 573.148C124.443 569.896 133.311 567.435 137.373 557.04C140.618 548.732 141.991 536.907 133.916 533.119C129.933 531.25 123.93 534.306 123.93 534.306M49.31 545.433C49.31 545.433 39.0843 543.324 33.8881 540.721C27.629 537.585 21.7888 528.407 21.7888 528.407M145.877 569.674L156.746 558.819C156.746 558.819 169.259 534.361 161.402 519.875C154.887 507.863 146.095 497.32 132.43 497.176M132.43 497.176C129.434 497.144 125.407 498.03 123.01 498.638M132.43 497.176L123.01 498.638M120.965 499.193C120.965 499.193 121.769 498.953 123.01 498.638M17.1261 298.203C17.1261 298.203 20.8278 305.334 24.459 308.834C29.6979 313.884 34.0627 315.237 41.0169 317.379C52.6019 320.947 72.0575 317.379 72.0575 317.379M22.8808 302.845C22.8808 302.845 29.1651 307.918 33.8671 309.88C38.3213 311.738 45.8997 312.7 45.8997 312.7M82.6136 455.287C82.6136 455.287 72.6602 451.178 68.7755 445.94C65.0088 440.861 65.1636 436.703 63.8334 430.521C60.584 415.419 65.0195 390.983 65.0195 390.983C65.0195 390.983 60.3402 402.052 59.0889 409.566C57.656 418.171 56.9743 423.441 59.0889 431.904C61.0893 439.911 62.1236 445.801 68.7755 450.685C73.3662 454.055 82.6136 455.287 82.6136 455.287Z" stroke="#D87F7F"/>
<path d="M101.452 150.986C101.452 150.986 85.8551 151.531 76.9077 146.507C67.4325 141.187 61.6809 137.679 58.1816 125.376C54.0159 110.73 52.8007 95.8945 61.1895 81.3426C70.5086 65.1772 83.3625 55.891 101.452 51.3163C130.294 44.0226 154.478 53.3561 174.422 73.1933C174.422 73.1933 192.27 92.2704 193.572 104.84C194.841 117.079 181.178 132.49 181.178 132.49C177.496 135.079 171.832 136.176 167.106 136.627C164.908 136.837 162.913 136.907 161.414 136.922C159.719 136.939 158.66 136.887 158.66 136.887C158.66 136.887 154.831 145.378 156.408 149.325C157.975 153.249 164.772 156.188 164.772 156.188C164.772 156.188 159.47 161.613 152.119 167.661C148.52 170.622 143.866 176.118 141.128 179.499C139.727 181.228 138.828 182.404 138.828 182.404C138.828 182.404 148.55 187.226 156.408 188.999C173.72 192.906 186.898 192.324 202.409 181.922C210.86 176.255 222.79 163.445 222.79 163.445C222.79 163.445 209.079 185.196 194.688 194.682C185.155 200.967 179.8 205.74 167.881 208.622C148.971 213.196 136.013 212.033 117.055 206.585C109.327 204.364 98.7193 201.223 98.7193 201.223C98.7193 201.223 96.9621 211.955 99.8994 218.095C103.691 226.02 116.231 233.567 116.231 233.567C116.231 233.567 101.478 226.691 93.3095 226.691C85.1413 226.691 80.537 226.054 72.3937 226.691C64.4124 227.314 60.2599 229.252 52.1377 229.842C44.3059 230.411 31.9946 229.842 31.9946 229.842C31.9946 229.842 33.9247 233.744 36.7911 238.771C40.0377 244.465 44.4857 251.603 48.6914 256.15C57.6819 265.871 62.6467 269.36 75.2589 273.393C89.879 278.067 114.512 275.399 114.512 275.399L95.5204 289.802C95.5204 289.802 107.587 293.114 117.654 294.679L103.923 298.203C103.923 298.203 89.1611 301.705 79.5324 302.845C71.2688 303.823 66.57 304.5 58.2597 304.071C50.7368 303.684 46.3344 303.566 39.1877 301.185C32.097 298.823 22.3163 292.151 22.3163 292.151C22.3163 292.151 21.8839 297.684 22.3163 301.185C23.5508 311.183 27.0489 317.002 34.2363 324.06C41.9167 331.602 48.4852 334.546 59.1767 335.797C72.6327 337.371 92.3694 325.711 92.3694 325.711C92.3694 325.711 79.7073 334.759 72.0594 342.425C58.908 355.609 53.9305 366.807 45.2394 383.11C34.1577 403.898 29.4527 416.107 24.8837 438.859C20.3567 461.402 19.6938 476.65 23.1028 499.193C24.9323 511.291 28.399 519.16 31.5662 528.407C34.6996 537.554 39.2829 546.075 46.8899 555.492C62.6842 575.045 73.6136 587.098 98.6044 589.785C121.283 592.224 136.928 588.183 154.388 573.148C164.442 564.49 172.408 560.513 178.56 548.524C189.074 528.035 185.054 504.054 171.18 485.674C160.545 471.586 142.434 468.895 126.893 470.182C106.348 471.884 96.4987 499.088 99.951 516.798C102.558 530.169 123.545 531.102 123.545 531.102C123.545 531.102 124.645 516.351 132.787 513.094C142.048 509.389 146.585 512.724 152.823 517.581C157.337 521.095 160.772 528.901 160.772 528.901C156.423 524.931 144.54 514.965 137.839 516.798C130.185 518.892 125.406 526.336 128.313 533.119C129.749 536.472 133.767 536.142 135.098 539.538C138.221 547.507 123.604 547.484 115.109 548.524C103.35 549.962 86.1343 539.538 86.1343 539.538C86.1343 539.538 95.9059 526.564 96.7706 516.798C97.692 506.391 89.2518 491.124 89.2518 491.124C89.2518 491.124 76.1095 501.878 67.429 499.193C60.5092 497.053 54.9911 491.124 54.9911 491.124C54.9911 491.124 53.1802 474.576 53.4756 463.952C53.8062 452.065 57.1594 433.725 57.1594 433.725C57.1594 433.725 58.2497 444.931 62.6494 450.685C67.049 456.438 75.5454 457.099 82.7182 458.17C89.9625 459.251 95.5352 459.362 96.2088 455.287C96.954 450.779 90.506 449.182 87.418 444.911C78.2172 432.185 78.0653 423.455 76.5982 406.4C76.1686 401.406 75.3232 400.611 76.5982 393.563C79.2621 378.84 96.954 355.603 96.954 355.603C96.954 355.603 92.358 364.989 93.653 372.474C95.3767 382.436 100.809 389.982 108.691 396.314C112.274 399.193 117.78 401.588 122.078 403.179C125.721 404.528 128.496 405.3 128.496 405.3C128.496 405.3 122.103 384.067 122.078 370.09C122.052 355.972 124.286 347.989 128.496 334.513C132.764 320.853 143.737 301.185 143.737 301.185C141.264 307.624 139.744 311.91 142.349 318.791C145.381 326.797 150.735 329.26 158.77 330.752C164.88 331.887 171.877 328.361 176.876 325.016C180.851 322.355 183.563 319.809 183.563 319.809L170.956 314.078C170.956 314.078 165.208 311.973 167.446 302.845C170.403 290.784 187.86 263.078 187.86 263.078C187.86 263.078 203.594 242.966 212.286 229.143C222.115 213.511 228.683 203.629 234.563 187.438C239.418 174.068 241.875 166.116 242.585 151.909C243.666 130.297 238.606 118.305 230.838 97.7581C221.812 73.8835 215.88 59.9884 197.602 42.173C177.819 22.8906 162.118 13.9712 134.855 9.51116C116.613 6.52699 106.718 4.73894 87.5791 11.8039C65.4499 19.9726 48.5647 30.4638 36.2924 51.3163C28.4971 64.5617 24.1176 73.5893 22.5396 88.8771C20.637 107.309 20.9032 119.262 29.1295 135.866C36.7896 151.327 43.1747 159.309 59.5003 167.956C76.3301 176.87 92.0837 180.829 110.501 175.979C129.815 170.891 139.983 163.445 149.467 145.321C156.674 131.549 160.392 123.57 156.057 106.068C153.209 94.5708 149.467 86.2985 136.574 77.3188C127.728 71.1582 116.024 66.9318 103.911 69.3939C89.1954 72.3848 75.6501 79.5174 69.242 93.7647C63.4064 106.739 64.9697 117.399 69.242 128.703C75.2916 144.71 101.452 150.986 101.452 150.986Z" fill="#D87F7F"/>
<path d="M101.452 150.986C101.452 150.986 85.8551 151.531 76.9077 146.507C67.4325 141.187 61.6809 137.679 58.1816 125.376C54.0159 110.73 52.8007 95.8945 61.1895 81.3426C70.5086 65.1772 83.3625 55.891 101.452 51.3163C130.294 44.0226 154.478 53.3561 174.422 73.1933C174.422 73.1933 192.27 92.2704 193.572 104.84C194.841 117.079 181.178 132.49 181.178 132.49C177.496 135.079 171.832 136.176 167.106 136.627M101.452 150.986C101.452 150.986 75.2916 144.71 69.242 128.703C64.9697 117.399 63.4064 106.739 69.242 93.7647C75.6501 79.5174 89.1954 72.3848 103.911 69.3939C116.024 66.9318 127.728 71.1582 136.574 77.3188C149.467 86.2985 153.209 94.5708 156.057 106.068C160.392 123.57 156.674 131.549 149.467 145.321C139.983 163.445 129.815 170.891 110.501 175.979C92.0837 180.829 76.3301 176.87 59.5003 167.956C43.1747 159.309 36.7895 151.327 29.1295 135.866C20.9032 119.262 20.637 107.309 22.5396 88.8771C24.1176 73.5893 28.4971 64.5617 36.2924 51.3163C48.5647 30.4638 65.4499 19.9726 87.5791 11.8039C106.718 4.73894 116.613 6.52699 134.855 9.51116C162.118 13.9712 177.819 22.8906 197.602 42.173C215.88 59.9884 221.812 73.8835 230.838 97.7581C238.606 118.305 243.666 130.297 242.585 151.909C241.875 166.116 239.418 174.068 234.563 187.438C228.683 203.629 222.115 213.511 212.286 229.143C203.594 242.966 187.86 263.078 187.86 263.078C187.86 263.078 170.403 290.784 167.446 302.845C165.208 311.973 170.956 314.079 170.956 314.079L183.563 319.809C183.563 319.809 180.851 322.355 176.876 325.016M101.452 150.986L110.501 149.325C110.501 149.325 123.223 144.495 128.497 138.11C137.222 127.547 140.64 114.925 133.298 103.357C128.787 96.2477 123.744 92.7714 115.465 91.2393C108.809 90.0077 104.261 90.5258 98.3169 93.7647C91.3882 97.5403 85.9704 109.759 85.9704 109.759C86.0124 102.255 91.8034 93.7647 98.3169 90.1403C104.605 86.6412 109.567 84.8401 116.474 86.2704C124.757 87.9857 130.077 90.6415 135.219 97.2755C141.972 105.988 144.779 114.018 142.444 125.376C139.479 139.795 134.12 144.484 121.409 151.909C108.572 159.409 95.5225 161.814 80.9404 158.916C62.0737 155.166 51.5366 146.153 43.4437 128.703C36.0349 112.728 35.4357 101.452 40.7001 83.6943C47.1552 61.9202 58.6885 48.5608 78.8826 37.2807C102.637 24.0123 121.137 21.4432 148.16 30.8789C170.881 38.8126 188.63 48.0351 198.461 67.8019C206.171 83.3036 202.23 97.7581 197.602 113.646C194.667 123.72 188.413 132.65 178.704 136.627C173.581 138.726 167.106 136.627 167.106 136.627M153.765 287.719C153.765 287.719 146.087 295.064 143.737 301.185M153.765 287.719C153.765 287.719 156.165 286.809 157.682 286.173C166.882 282.319 179.796 273.393 179.796 273.393C179.796 273.393 169.956 280.198 165.388 286.173C159.982 293.246 156.169 298.047 156.007 306.947C155.913 312.084 155.714 315.679 158.77 319.809C160.726 322.453 162.342 323.776 165.388 325.016C169.543 326.707 176.876 325.016 176.876 325.016M153.765 287.719C153.765 287.719 150.763 289.146 146.416 290.775M143.737 301.185C141.264 307.624 139.744 311.91 142.349 318.791C145.381 326.797 150.735 329.26 158.77 330.752C164.88 331.887 171.877 328.361 176.876 325.016M143.737 301.185C143.737 301.185 132.764 320.853 128.496 334.513C124.286 347.989 122.052 355.972 122.078 370.09C122.103 384.067 128.496 405.3 128.496 405.3C128.496 405.3 125.721 404.528 122.078 403.179M117.654 294.679C107.587 293.114 95.5204 289.802 95.5204 289.802L114.512 275.399C114.512 275.399 89.879 278.067 75.2588 273.393C62.6467 269.36 57.6819 265.871 48.6914 256.15C44.4857 251.603 40.0377 244.465 36.7911 238.771M117.654 294.679C120.26 295.084 122.732 295.372 124.826 295.455C126.862 295.536 129.066 295.354 131.318 294.998M117.654 294.679L103.923 298.203C103.923 298.203 89.1611 301.705 79.5324 302.845C71.2688 303.823 66.57 304.5 58.2597 304.071C50.7368 303.684 46.3344 303.566 39.1877 301.185C32.097 298.823 22.3163 292.151 22.3163 292.151C22.3163 292.151 21.8839 297.684 22.3163 301.185C23.5508 311.183 27.0489 317.002 34.2363 324.06C41.9167 331.602 48.4852 334.546 59.1767 335.797C72.6327 337.371 92.3694 325.711 92.3694 325.711C92.3694 325.711 79.7073 334.759 72.0594 342.425C58.908 355.609 53.9305 366.807 45.2394 383.11C34.1577 403.898 29.4527 416.107 24.8837 438.859C20.3567 461.402 19.6938 476.65 23.1028 499.193C24.9323 511.291 28.399 519.16 31.5662 528.407M154.388 573.148C136.928 588.183 121.283 592.224 98.6045 589.785C73.6136 587.098 62.6842 575.045 46.8899 555.492C39.2829 546.075 34.6996 537.554 31.5662 528.407M154.388 573.148C164.442 564.49 172.408 560.513 178.56 548.524C189.074 528.035 185.054 504.054 171.18 485.674C160.545 471.586 142.434 468.895 126.893 470.182C106.348 471.884 96.4987 499.088 99.951 516.798C102.558 530.169 123.545 531.102 123.545 531.102C123.545 531.102 124.645 516.351 132.787 513.094C142.048 509.389 146.585 512.724 152.823 517.581C157.337 521.095 160.772 528.901 160.772 528.901M154.388 573.148L155.654 569.674M160.772 528.901C156.423 524.931 144.54 514.965 137.839 516.798C130.185 518.892 125.406 526.336 128.313 533.119C129.749 536.472 133.767 536.142 135.098 539.538C138.221 547.507 123.604 547.484 115.109 548.524C103.35 549.962 86.1343 539.538 86.1343 539.538M160.772 528.901C160.772 528.901 162.927 538.631 162.372 547.353C161.813 556.126 155.654 569.674 155.654 569.674M86.1343 539.538C86.1343 539.538 95.9059 526.564 96.7706 516.798C97.692 506.391 89.2518 491.124 89.2518 491.124C89.2518 491.124 76.1095 501.878 67.429 499.193C60.5093 497.053 54.9911 491.124 54.9911 491.124C54.9911 491.124 53.1802 474.576 53.4756 463.952C53.8062 452.065 57.1594 433.725 57.1594 433.725M86.1343 539.538C86.1343 539.538 78.9827 545.389 73.4383 546.504C67.0736 547.784 59.0873 545.433 59.0873 545.433M57.1594 433.725C57.1594 433.725 58.2497 444.931 62.6494 450.685C67.049 456.438 75.5454 457.099 82.7182 458.17M57.1594 433.725C57.1594 433.725 61.1024 419.996 64.5172 411.525C66.6024 406.352 70.3632 398.495 70.3632 398.495C70.3632 398.495 63.2663 414.968 62.6494 426.172C62.223 433.914 60.5847 439.257 64.5172 445.94C67.2687 450.616 74.7969 455.287 74.7969 455.287L82.7182 458.17M167.106 136.627C164.908 136.837 162.913 136.907 161.414 136.922M161.414 136.922C159.719 136.939 158.66 136.887 158.66 136.887C158.66 136.887 154.831 145.378 156.408 149.325C157.975 153.249 164.772 156.188 164.772 156.188C164.772 156.188 159.47 161.613 152.119 167.661C148.52 170.622 143.866 176.118 141.128 179.499M161.414 136.922C161.414 136.922 159.964 143.019 161.414 146.443C163.329 150.966 171.58 153.846 171.58 153.846L156.408 168.429C156.408 168.429 150.329 175.85 145.956 178.123C143.617 179.339 141.128 179.499 141.128 179.499M141.128 179.499C139.727 181.228 138.828 182.404 138.828 182.404C138.828 182.404 148.55 187.226 156.408 188.999C173.72 192.906 186.898 192.324 202.409 181.922C210.86 176.255 222.79 163.445 222.79 163.445C222.79 163.445 209.079 185.196 194.688 194.682C185.155 200.967 179.8 205.74 167.881 208.622C148.971 213.196 136.013 212.033 117.055 206.585C109.327 204.364 98.7193 201.223 98.7193 201.223C98.7193 201.223 96.9621 211.955 99.8994 218.095C103.691 226.02 116.231 233.567 116.231 233.567C116.231 233.567 101.478 226.691 93.3095 226.691C85.1413 226.691 80.537 226.054 72.3937 226.691C64.4124 227.314 60.2599 229.252 52.1377 229.842C44.3059 230.411 31.9946 229.842 31.9946 229.842C31.9946 229.842 33.9246 233.744 36.7911 238.771M230.838 106.068L232.44 120.548C232.44 120.548 235.23 138.076 234.563 149.325C233.85 161.33 232.482 168.183 228.41 179.499C222.387 196.235 216.822 205.534 204.228 218.095C198.321 223.987 193.349 228.01 186.335 232.53M186.335 232.53C179.838 237.766 172.653 241.723 165.388 245.827C158.123 249.93 133.571 253.61 112.947 252.97C92.378 252.331 61.1426 244.909 61.1426 244.909C52.1234 242.649 39.1877 235.697 39.1877 235.697C39.1877 235.697 80.5903 244.261 107.503 244.909C125.586 245.345 136.04 246.219 153.765 242.606C167.389 239.83 173.125 236.867 186.335 232.53ZM232.44 132.49C232.44 132.49 223.26 171.909 218.622 182.404C210.389 201.034 198.46 209.375 181.178 220.152C169.959 227.148 152.119 233.567 152.119 233.567M220.061 170.35C220.061 170.35 211.028 187.721 202.409 196.546C194.406 204.741 189.062 208.93 178.704 213.819C171.28 217.322 158.66 220.152 158.66 220.152M101.452 203.455C101.452 203.455 105.838 211.953 110.501 215.546C117.515 220.952 124.77 222.922 134.176 223.827C147.397 225.098 154.791 226.6 167.106 223.031C177.846 219.918 191.85 208.622 191.85 208.622L202.409 201.223M143.737 271.263C143.737 271.263 159.734 270.174 169.744 263.078C179.754 255.983 185.366 250.419 195.376 243.323C205.386 236.228 210.622 226.454 210.622 226.454L205.799 235.637C205.799 235.637 202.227 241.452 199.565 244.909C191.549 255.315 185.175 259.758 174.267 267.075C161.141 275.88 152.817 279.967 137.578 284.163C124.801 287.681 103.923 288.519 103.923 288.519M140.652 306.947L127.191 325.711C127.191 325.711 116.918 342.418 115.632 355.603C114.847 363.644 114.177 369.06 115.632 377.478C117.327 387.29 124.872 401.243 124.872 401.243C124.872 401.243 112.411 387.457 109.768 377.478C107.772 369.941 108.654 366.587 109.768 358.87C111.567 346.406 123.17 328.726 123.17 328.726L146.416 290.775M146.416 290.775C142.156 292.372 136.604 294.164 131.318 294.998M146.416 290.775L123.17 312.7C123.17 312.7 86.6319 344.343 70.3632 370.09C59.0369 388.015 53.6819 399.026 47.3185 419.252C38.4069 447.579 34.0736 466.302 38.4226 494.769C40.5905 508.958 43.4943 521.354 57.0051 526.201C67.4953 529.964 77.6874 529.404 85.0765 521.061C91.3546 513.972 91.9955 504.851 89.2518 497.176C89.2518 497.176 81.9858 502.338 76.576 503.467C72.1928 504.382 69.3092 505.022 65.1102 503.467C59.6708 501.452 54.9911 492.594 54.9911 492.594M114.626 330.752C114.626 330.752 103.082 343.263 100.721 353.353C99.0201 360.624 99.0283 365.201 100.721 372.474C102.349 379.465 104.645 383.108 108.691 389.037C112.977 395.319 122.078 403.179 122.078 403.179M122.078 403.179C117.78 401.588 112.274 399.193 108.691 396.314C100.809 389.982 95.3767 382.436 93.653 372.474C92.358 364.989 96.954 355.603 96.954 355.603C96.954 355.603 79.2621 378.84 76.5982 393.563C75.3232 400.611 76.1686 401.406 76.5982 406.4C78.0653 423.455 78.2172 432.185 87.418 444.911C90.506 449.182 96.954 450.779 96.2088 455.287C95.5352 459.362 89.9625 459.251 82.7182 458.17M77.0994 263.078C77.0994 263.078 62.0723 258.305 53.6451 252.97C46.3735 248.366 36.7911 238.771 36.7911 238.771M131.318 294.998L108.691 315.826C108.691 315.826 92.2576 329.075 83.2981 339.113C74.5057 348.964 63.3619 366.421 63.3619 366.421M59.0873 545.433C59.0873 545.433 69.7458 559.537 80.7274 565.54C95.6293 573.686 107.299 578.097 123.545 573.148C134.221 569.896 143.089 567.435 147.15 557.04C150.395 548.732 151.768 536.907 143.694 533.119C139.71 531.25 133.707 534.306 133.707 534.306M59.0873 545.433C59.0873 545.433 48.8617 543.324 43.6654 540.721C37.4064 537.585 31.5662 528.407 31.5662 528.407M155.654 569.674L166.523 558.819C166.523 558.819 179.036 534.361 171.18 519.875C164.665 507.863 155.872 497.32 142.208 497.176M142.208 497.176C139.212 497.144 135.185 498.03 132.787 498.638M142.208 497.176L132.787 498.638M130.742 499.193C130.742 499.193 131.546 498.953 132.787 498.638M26.9034 298.203C26.9034 298.203 30.6052 305.334 34.2363 308.834C39.4752 313.884 43.8401 315.237 50.7942 317.379C62.3793 320.947 81.8349 317.379 81.8349 317.379M32.6581 302.845C32.6581 302.845 38.9425 307.918 43.6444 309.88C48.0986 311.738 55.677 312.7 55.677 312.7M92.3909 455.287C92.3909 455.287 82.4376 451.178 78.5529 445.94C74.7861 440.861 74.9409 436.703 73.6107 430.521C70.3613 415.419 74.7969 390.983 74.7969 390.983C74.7969 390.983 70.1175 402.052 68.8663 409.566C67.4333 418.171 66.7516 423.441 68.8663 431.904C70.8666 439.911 71.901 445.801 78.5529 450.685C83.1436 454.055 92.3909 455.287 92.3909 455.287Z" stroke="#F4D1D1"/>
</g>
<defs>
<filter id="filter0_d_3628_874" x="0.667969" y="0.386719" width="252.562" height="604.559" filterUnits="userSpaceOnUse" color-interpolation-filters="sRGB">
<feFlood flood-opacity="0" result="BackgroundImageFix"/>
<feColorMatrix in="SourceAlpha" type="matrix" values="0 0 0 0 0 0 0 0 0 0 0 0 0 0 0 0 0 0 127 0" result="hardAlpha"/>
<feOffset dy="4"/>
<feGaussianBlur stdDeviation="5"/>
<feComposite in2="hardAlpha" operator="out"/>
<feColorMatrix type="matrix" values="0 0 0 0 0 0 0 0 0 0 0 0 0 0 0 0 0 0 0.25 0"/>
<feBlend mode="normal" in2="BackgroundImageFix" result="effect1_dropShadow_3628_874"/>
<feBlend mode="normal" in="SourceGraphic" in2="effect1_dropShadow_3628_874" result="shape"/>
</filter>
</defs>
</svg>
