<svg width="253" height="606" viewBox="0 0 253 606" fill="none" xmlns="http://www.w3.org/2000/svg">
<g filter="url(#filter0_d_3628_873)">
<path d="M161.931 151.392C161.931 151.392 177.528 151.937 186.475 146.913C195.95 141.593 201.702 138.085 205.201 125.782C209.367 111.136 210.582 96.3007 202.193 81.7489C192.874 65.5834 180.02 56.2973 161.931 51.7226C133.089 44.4288 108.905 53.7624 88.9607 73.5996C88.9607 73.5996 71.1132 92.6767 69.8105 105.246C68.5421 117.485 82.2053 132.897 82.2053 132.897C85.8867 135.485 91.5506 136.582 96.2769 137.033M161.931 151.392C161.931 151.392 188.091 145.116 194.141 129.109C198.413 117.805 199.976 107.145 194.141 94.1709C187.733 79.9237 174.187 72.791 159.472 69.8002C147.358 67.3381 135.655 71.5644 126.809 77.725C113.916 86.7047 110.174 94.977 107.326 106.474C102.991 123.976 106.709 131.955 113.916 145.727C123.4 163.852 133.567 171.298 152.882 176.385C171.299 181.236 187.053 177.277 203.882 168.362C220.208 159.715 226.593 151.733 234.253 136.272C242.48 119.669 242.746 107.715 240.843 89.2834C239.265 73.9955 234.886 64.968 227.09 51.7226C214.818 30.8701 197.933 20.3789 175.804 12.2102C156.665 5.14519 146.77 6.93324 128.528 9.91741C101.265 14.3774 85.5635 23.2969 65.7809 42.5793C47.5033 60.3947 41.5706 74.2898 32.5448 98.1643C24.7769 118.712 19.7166 130.703 20.7974 152.316C21.5079 166.522 23.9649 174.474 28.82 187.844C34.6998 204.035 41.2681 213.918 51.097 229.549C59.7889 243.372 75.5225 263.485 75.5225 263.485C75.5225 263.485 92.9795 291.19 95.9367 303.251C98.1749 312.38 92.427 314.485 92.427 314.485L79.8202 320.215C79.8202 320.215 82.5322 322.762 86.5069 325.422M161.931 151.392L152.882 149.731C152.882 149.731 140.159 144.901 134.886 138.516C126.161 127.953 122.743 115.331 130.084 103.763C134.596 96.654 139.638 93.1776 147.918 91.6456C154.574 90.4139 159.122 90.9321 165.066 94.1709C171.995 97.9466 177.412 110.165 177.412 110.165C177.37 102.662 171.579 94.1709 165.066 90.5466C158.778 87.0474 153.815 85.2463 146.909 86.6766C138.625 88.392 133.305 91.0478 128.164 97.6818C121.411 106.394 118.603 114.424 120.939 125.782C123.904 140.201 129.263 144.89 141.974 152.316C154.811 159.815 167.86 162.221 182.442 159.322C201.309 155.573 211.846 146.56 219.939 129.109C227.348 113.134 227.947 101.858 222.683 84.1005C216.228 62.3264 204.694 48.967 184.5 37.687C160.746 24.4185 142.246 21.8495 115.223 31.2851C92.5014 39.2189 74.7533 48.4414 64.9219 68.2081C57.2117 83.7099 61.1524 98.1643 65.7809 114.052C68.7156 124.126 74.9694 133.056 84.6789 137.033C89.8018 139.132 96.2769 137.033 96.2769 137.033M109.618 288.125C109.618 288.125 117.296 295.47 119.646 301.591M109.618 288.125C109.618 288.125 107.218 287.215 105.701 286.58C96.501 282.725 83.5868 273.799 83.5868 273.799C83.5868 273.799 93.427 280.604 97.9945 286.58C103.4 293.652 107.214 298.453 107.376 307.353C107.47 312.49 107.668 316.085 104.613 320.215C102.657 322.859 101.04 324.182 97.9945 325.422C93.8394 327.113 86.5069 325.422 86.5069 325.422M109.618 288.125C109.618 288.125 112.62 289.552 116.967 291.182M119.646 301.591C122.119 308.03 123.639 312.316 121.034 319.198C118.002 327.203 112.648 329.666 104.613 331.158C98.5023 332.293 91.5059 328.768 86.5069 325.422M119.646 301.591C119.646 301.591 130.618 321.259 134.887 334.92C139.097 348.395 141.331 356.378 141.305 370.496C141.28 384.473 134.887 405.706 134.887 405.706C134.887 405.706 137.662 404.935 141.305 403.586M145.729 295.085C155.796 293.52 167.862 290.208 167.862 290.208L148.871 275.805C148.871 275.805 173.504 278.474 188.124 273.799C200.736 269.767 205.701 266.278 214.691 256.556C218.897 252.009 223.345 244.871 226.592 239.177M145.729 295.085C143.123 295.49 140.651 295.778 138.556 295.861C136.521 295.942 134.317 295.76 132.065 295.404M145.729 295.085L159.46 298.609C159.46 298.609 174.222 302.111 183.85 303.251C192.114 304.229 196.813 304.906 205.123 304.478C212.646 304.09 217.048 303.972 224.195 301.591C231.286 299.229 241.067 292.558 241.067 292.558C241.067 292.558 241.499 298.09 241.067 301.591C239.832 311.589 236.334 317.409 229.147 324.467C221.466 332.009 214.898 334.952 204.206 336.203C190.75 337.777 171.013 326.117 171.013 326.117C171.013 326.117 183.676 335.165 191.323 342.832C204.475 356.015 209.452 367.213 218.143 383.517C229.225 404.305 233.93 416.513 238.499 439.266C243.026 461.808 243.689 477.056 240.28 499.599C238.45 511.698 234.984 519.567 231.817 528.813M108.995 573.554C126.455 588.589 142.099 592.631 164.778 590.192C189.769 587.504 200.699 575.451 216.493 555.899C224.1 546.482 228.683 537.96 231.817 528.813M108.995 573.554C98.9405 564.897 90.9747 560.919 84.8225 548.93C74.3086 528.441 78.3288 504.461 92.2031 486.08C102.838 471.992 120.949 469.301 136.489 470.588C157.035 472.29 166.884 499.494 163.432 517.204C160.825 530.576 139.838 531.508 139.838 531.508C139.838 531.508 138.738 516.757 130.596 513.5C121.334 509.796 116.797 513.13 110.559 517.987C106.045 521.501 102.611 529.308 102.611 529.308M108.995 573.554L107.729 570.081M102.611 529.308C106.96 525.337 118.843 515.371 125.544 517.204C133.198 519.298 137.976 526.742 135.07 533.526C133.633 536.878 129.616 536.548 128.285 539.944C125.162 547.913 139.778 547.89 148.274 548.93C160.033 550.369 177.249 539.944 177.249 539.944M102.611 529.308C102.611 529.308 100.456 539.037 101.011 547.759C101.57 556.533 107.729 570.081 107.729 570.081M177.249 539.944C177.249 539.944 167.477 526.97 166.612 517.204C165.691 506.798 174.131 491.53 174.131 491.53C174.131 491.53 187.273 502.284 195.954 499.599C202.874 497.459 208.392 491.53 208.392 491.53C208.392 491.53 210.203 474.982 209.907 464.358C209.577 452.471 206.223 434.131 206.223 434.131M177.249 539.944C177.249 539.944 184.4 545.795 189.944 546.91C196.309 548.19 204.295 545.839 204.295 545.839M206.223 434.131C206.223 434.131 205.133 445.337 200.733 451.091C196.334 456.845 187.837 457.506 180.665 458.576M206.223 434.131C206.223 434.131 202.28 420.402 198.866 411.931C196.78 406.759 193.02 398.902 193.02 398.902C193.02 398.902 200.116 415.375 200.733 426.578C201.16 434.321 202.798 439.663 198.866 446.346C196.114 451.023 188.586 455.693 188.586 455.693L180.665 458.576M96.2769 137.033C98.4749 137.243 100.47 137.313 101.969 137.328M101.969 137.328C103.663 137.346 104.723 137.293 104.723 137.293C104.723 137.293 108.552 145.784 106.975 149.731C105.408 153.655 98.6112 156.594 98.6112 156.594C98.6112 156.594 103.913 162.019 111.264 168.067C114.863 171.028 119.517 176.524 122.255 179.905M101.969 137.328C101.969 137.328 103.418 143.426 101.969 146.85C100.054 151.372 91.8033 154.252 91.8033 154.252L106.975 168.835C106.975 168.835 113.054 176.256 117.426 178.529C119.766 179.745 122.255 179.905 122.255 179.905M122.255 179.905C123.656 181.634 124.555 182.811 124.555 182.811C124.555 182.811 114.833 187.633 106.975 189.406C89.663 193.312 76.4849 192.73 60.9742 182.329C52.5226 176.661 40.5933 163.852 40.5933 163.852C40.5933 163.852 54.3042 185.602 68.6946 195.089C78.2276 201.373 83.5829 206.146 95.5016 209.028C114.412 213.602 127.37 212.439 146.328 206.991C154.056 204.77 164.664 201.63 164.664 201.63C164.664 201.63 166.421 212.362 163.483 218.501C159.692 226.426 147.152 233.973 147.152 233.973C147.152 233.973 161.905 227.097 170.073 227.097C178.241 227.097 182.846 226.461 190.989 227.097C198.97 227.72 203.123 229.659 211.245 230.248C219.077 230.817 231.388 230.248 231.388 230.248C231.388 230.248 229.458 234.15 226.592 239.177M32.5448 106.474L30.9427 120.954C30.9427 120.954 28.1525 138.482 28.82 149.731C29.5324 161.736 30.901 168.589 34.973 179.905C40.9955 196.641 46.561 205.94 59.1544 218.501C65.0622 224.394 70.0341 228.416 77.0475 232.937M77.0475 232.937C83.5444 238.172 90.7294 242.129 97.9945 246.233C105.26 250.337 129.812 254.017 150.436 253.376C171.005 252.737 202.24 245.315 202.24 245.315C211.259 243.055 224.195 236.103 224.195 236.103C224.195 236.103 182.792 244.668 155.88 245.315C137.797 245.751 127.343 246.625 109.618 243.012C95.9942 240.236 90.2579 237.273 77.0475 232.937ZM30.9427 132.897C30.9427 132.897 40.1225 172.315 44.7607 182.811C52.9935 201.44 64.9232 209.781 82.2053 220.558C93.4242 227.555 111.264 233.973 111.264 233.973M43.3213 170.756C43.3213 170.756 52.355 188.127 60.9742 196.953C68.977 205.147 74.3203 209.337 84.6789 214.225C92.1029 217.729 104.723 220.558 104.723 220.558M161.931 203.862C161.931 203.862 157.545 212.359 152.882 215.952C145.868 221.358 138.612 223.329 129.207 224.233C115.986 225.504 108.591 227.006 96.2769 223.437C85.5368 220.324 71.533 209.028 71.533 209.028L60.9742 201.63M119.646 271.669C119.646 271.669 103.649 270.58 93.6387 263.485C83.6287 256.389 78.0165 250.825 68.0064 243.729C57.9964 236.634 52.7611 226.86 52.7611 226.86L57.5837 236.043C57.5837 236.043 61.1554 241.858 63.8182 245.315C71.8333 255.721 78.2073 260.164 89.1154 267.481C102.241 276.286 110.566 280.373 125.805 284.569C138.582 288.088 159.46 288.925 159.46 288.925M122.731 307.353L136.192 326.117C136.192 326.117 146.464 342.825 147.751 356.009C148.536 364.05 149.206 369.466 147.751 377.884C146.056 387.697 138.511 401.65 138.511 401.65C138.511 401.65 150.972 387.863 153.615 377.884C155.611 370.347 154.729 366.993 153.615 359.277C151.815 346.812 140.212 329.133 140.212 329.133L116.967 291.182M116.967 291.182C121.227 292.778 126.778 294.57 132.065 295.404M116.967 291.182L140.212 313.106C140.212 313.106 176.751 344.749 193.02 370.496C204.346 388.422 209.701 399.432 216.064 419.659C224.976 447.985 229.309 466.708 224.96 495.175C222.792 509.364 219.889 521.76 206.378 526.607C195.888 530.37 185.695 529.81 178.306 521.467C172.028 514.378 171.387 505.257 174.131 497.582C174.131 497.582 181.397 502.744 186.807 503.873C191.19 504.788 194.074 505.428 198.273 503.873C203.712 501.859 208.392 493 208.392 493M148.756 331.158C148.756 331.158 160.301 343.669 162.662 353.76C164.363 361.03 164.355 365.608 162.662 372.88C161.034 379.872 158.738 383.514 154.692 389.444C150.406 395.726 141.305 403.586 141.305 403.586M141.305 403.586C145.603 401.994 151.109 399.599 154.692 396.72C162.574 390.388 168.006 382.843 169.73 372.88C171.025 365.395 166.429 356.009 166.429 356.009C166.429 356.009 184.121 379.246 186.785 393.97C188.06 401.017 187.214 401.812 186.785 406.806C185.317 423.861 185.166 432.592 175.965 445.317C172.877 449.588 166.429 451.186 167.174 455.693C167.848 459.768 173.42 459.657 180.665 458.576M186.283 263.485C186.283 263.485 201.311 258.711 209.738 253.376C217.009 248.773 226.592 239.177 226.592 239.177M132.065 295.404L154.692 316.233C154.692 316.233 171.125 329.481 180.085 339.519C188.877 349.37 200.021 366.827 200.021 366.827M204.295 545.839C204.295 545.839 193.637 559.943 182.655 565.946C167.754 574.093 156.084 578.503 139.838 573.554C129.162 570.302 120.294 567.841 116.233 557.446C112.988 549.139 111.615 537.313 119.689 533.526C123.673 531.657 129.676 534.712 129.676 534.712M204.295 545.839C204.295 545.839 214.521 543.73 219.717 541.127C225.976 537.991 231.817 528.813 231.817 528.813M107.729 570.081L96.8597 559.225C96.8597 559.225 84.3463 534.767 92.2031 520.281C98.7181 508.269 107.511 497.726 121.175 497.582M121.175 497.582C124.171 497.551 128.198 498.437 130.596 499.045M121.175 497.582L130.596 499.045M132.641 499.599C132.641 499.599 131.836 499.359 130.596 499.045M236.479 298.609C236.479 298.609 232.778 305.74 229.147 309.24C223.908 314.29 219.543 315.643 212.589 317.785C201.004 321.353 181.548 317.785 181.548 317.785M230.725 303.251C230.725 303.251 224.44 308.325 219.738 310.286C215.284 312.145 207.706 313.106 207.706 313.106M170.992 455.693C170.992 455.693 180.945 451.584 184.83 446.346C188.597 441.267 188.442 437.109 189.772 430.927C193.021 415.825 188.586 391.39 188.586 391.39C188.586 391.39 193.265 402.458 194.517 409.972C195.949 418.577 196.631 423.847 194.517 432.311C192.516 440.317 191.482 446.207 184.83 451.091C180.239 454.461 170.992 455.693 170.992 455.693Z" stroke="#D87F7F"/>
<path d="M152.153 151.392C152.153 151.392 167.75 151.937 176.698 146.913C186.173 141.593 191.925 138.085 195.424 125.782C199.59 111.136 200.805 96.3007 192.416 81.7489C183.097 65.5834 170.243 56.2972 152.153 51.7226C123.312 44.4288 99.1277 53.7624 79.1833 73.5996C79.1833 73.5996 61.3358 92.6767 60.0332 105.246C58.7648 117.485 72.428 132.897 72.428 132.897C76.1093 135.485 81.7733 136.582 86.4995 137.033C88.6976 137.243 90.6928 137.313 92.1915 137.328C93.8861 137.346 94.9458 137.293 94.9458 137.293C94.9458 137.293 98.7743 145.784 97.1976 149.731C95.6304 153.655 88.8338 156.594 88.8338 156.594C88.8338 156.594 94.1352 162.019 101.487 168.067C105.086 171.028 109.74 176.524 112.478 179.905C113.878 181.634 114.778 182.811 114.778 182.811C114.778 182.811 105.055 187.633 97.1976 189.406C79.8857 193.312 66.7075 192.73 51.1968 182.329C42.7452 176.661 30.8159 163.852 30.8159 163.852C30.8159 163.852 44.5269 185.602 58.9172 195.089C68.4503 201.373 73.8055 206.146 85.7242 209.028C104.634 213.602 117.593 212.439 136.55 206.991C144.279 204.77 154.886 201.63 154.886 201.63C154.886 201.63 156.643 212.362 153.706 218.501C149.915 226.426 137.375 233.973 137.375 233.973C137.375 233.973 152.128 227.097 160.296 227.097C168.464 227.097 173.068 226.461 181.212 227.097C189.193 227.72 193.346 229.659 201.468 230.248C209.3 230.817 221.611 230.248 221.611 230.248C221.611 230.248 219.681 234.15 216.814 239.177C213.568 244.871 209.12 252.009 204.914 256.556C195.924 266.278 190.959 269.767 178.347 273.799C163.726 278.474 139.094 275.805 139.094 275.805L158.085 290.208C158.085 290.208 146.019 293.52 135.951 295.085L149.683 298.609C149.683 298.609 164.444 302.111 174.073 303.251C182.337 304.229 187.035 304.906 195.346 304.478C202.869 304.09 207.271 303.972 214.418 301.591C221.508 299.229 231.289 292.558 231.289 292.558C231.289 292.558 231.722 298.09 231.289 301.591C230.055 311.589 226.557 317.409 219.369 324.467C211.689 332.009 205.12 334.952 194.429 336.203C180.973 337.777 161.236 326.117 161.236 326.117C161.236 326.117 173.898 335.165 181.546 342.832C194.697 356.015 199.675 367.213 208.366 383.517C219.448 404.305 224.153 416.513 228.722 439.266C233.249 461.808 233.912 477.056 230.503 499.599C228.673 511.698 225.206 519.567 222.039 528.813C218.906 537.96 214.323 546.482 206.716 555.899C190.921 575.451 179.992 587.504 155.001 590.192C132.322 592.631 116.677 588.589 99.2173 573.555C89.1631 564.897 81.1973 560.919 75.0451 548.93C64.5312 528.441 68.5514 504.461 82.4258 486.08C93.0603 471.992 111.171 469.301 126.712 470.588C147.257 472.29 157.107 499.494 153.654 517.204C151.048 530.576 130.061 531.508 130.061 531.508C130.061 531.508 128.961 516.757 120.819 513.5C111.557 509.796 107.02 513.13 100.782 517.987C96.2681 521.501 92.8335 529.308 92.8335 529.308C97.1829 525.337 109.066 515.371 115.767 517.204C123.421 519.298 128.199 526.742 125.293 533.526C123.856 536.878 119.838 536.548 118.507 539.944C115.385 547.913 130.001 547.89 138.496 548.93C150.256 550.369 167.471 539.944 167.471 539.944C167.471 539.944 157.7 526.97 156.835 517.204C155.913 506.798 164.354 491.53 164.354 491.53C164.354 491.53 177.496 502.284 186.176 499.599C193.096 497.459 198.614 491.53 198.614 491.53C198.614 491.53 200.425 474.982 200.13 464.358C199.799 452.471 196.446 434.131 196.446 434.131C196.446 434.131 195.356 445.337 190.956 451.091C186.556 456.845 178.06 457.506 170.887 458.576C163.643 459.657 158.07 459.768 157.397 455.693C156.651 451.186 163.099 449.588 166.188 445.317C175.388 432.592 175.54 423.861 177.007 406.806C177.437 401.812 178.282 401.017 177.007 393.97C174.343 379.246 156.651 356.009 156.651 356.009C156.651 356.009 161.247 365.395 159.952 372.88C158.229 382.843 152.796 390.388 144.915 396.72C141.331 399.599 135.826 401.994 131.528 403.586C127.884 404.935 125.109 405.706 125.109 405.706C125.109 405.706 131.502 384.473 131.528 370.496C131.553 356.378 129.32 348.395 125.109 334.92C120.841 321.259 109.869 301.591 109.869 301.591C112.341 308.03 113.862 312.316 111.256 319.198C108.225 327.203 102.871 329.666 94.8356 331.158C88.725 332.293 81.7286 328.768 76.7296 325.422C72.7549 322.762 70.0429 320.215 70.0429 320.215L82.6497 314.485C82.6497 314.485 88.3976 312.38 86.1594 303.251C83.2022 291.19 65.7451 263.485 65.7451 263.485C65.7451 263.485 50.0115 243.372 41.3197 229.549C31.4907 213.918 24.9225 204.035 19.0427 187.844C14.1876 174.474 11.7306 166.522 11.0201 152.316C9.93926 130.703 14.9995 118.712 22.7675 98.1643C31.7932 74.2898 37.726 60.3947 56.0035 42.5793C75.7861 23.2969 91.488 14.3774 118.751 9.91741C136.992 6.93324 146.887 5.14519 166.026 12.2102C188.156 20.3789 205.041 30.8701 217.313 51.7226C225.108 64.968 229.488 73.9955 231.066 89.2834C232.969 107.715 232.702 119.669 224.476 136.272C216.816 151.733 210.431 159.715 194.105 168.362C177.275 177.277 161.522 181.236 143.105 176.385C123.79 171.298 113.622 163.852 104.139 145.727C96.9319 131.955 93.2139 123.976 97.5486 106.474C100.396 94.977 104.139 86.7047 117.032 77.725C125.877 71.5644 137.581 67.3381 149.695 69.8002C164.41 72.791 177.955 79.9237 184.364 94.1709C190.199 107.145 188.636 117.805 184.364 129.109C178.314 145.116 152.153 151.392 152.153 151.392Z" fill="#D87F7F"/>
<path d="M152.153 151.392C152.153 151.392 167.75 151.937 176.698 146.913C186.173 141.593 191.925 138.085 195.424 125.782C199.59 111.136 200.805 96.3007 192.416 81.7489C183.097 65.5834 170.243 56.2973 152.153 51.7226C123.312 44.4288 99.1277 53.7624 79.1833 73.5996C79.1833 73.5996 61.3358 92.6767 60.0332 105.246C58.7648 117.485 72.428 132.897 72.428 132.897C76.1093 135.485 81.7733 136.582 86.4995 137.033M152.153 151.392C152.153 151.392 178.314 145.116 184.364 129.109C188.636 117.805 190.199 107.145 184.364 94.1709C177.955 79.9237 164.41 72.791 149.695 69.8002C137.581 67.3381 125.877 71.5644 117.032 77.725C104.139 86.7047 100.396 94.977 97.5486 106.474C93.2139 123.976 96.9319 131.955 104.139 145.727C113.622 163.852 123.79 171.298 143.105 176.385C161.522 181.236 177.275 177.277 194.105 168.362C210.431 159.715 216.816 151.733 224.476 136.272C232.702 119.669 232.968 107.715 231.066 89.2834C229.488 73.9955 225.108 64.968 217.313 51.7226C205.041 30.8701 188.156 20.3789 166.026 12.2102C146.887 5.14519 136.992 6.93324 118.751 9.91741C91.488 14.3774 75.7861 23.2969 56.0035 42.5793C37.726 60.3947 31.7932 74.2898 22.7674 98.1643C14.9995 118.712 9.93926 130.703 11.0201 152.316C11.7306 166.522 14.1876 174.474 19.0427 187.844C24.9225 204.035 31.4907 213.918 41.3197 229.549C50.0115 243.372 65.7451 263.485 65.7451 263.485C65.7451 263.485 83.2022 291.19 86.1594 303.251C88.3976 312.38 82.6497 314.485 82.6497 314.485L70.0429 320.215C70.0429 320.215 72.7549 322.762 76.7296 325.422M152.153 151.392L143.105 149.731C143.105 149.731 130.382 144.901 125.108 138.516C116.383 127.953 112.966 115.331 120.307 103.763C124.819 96.654 129.861 93.1776 138.141 91.6456C144.797 90.4139 149.345 90.9321 155.289 94.1709C162.217 97.9466 167.635 110.165 167.635 110.165C167.593 102.662 161.802 94.1709 155.289 90.5466C149 87.0474 144.038 85.2463 137.131 86.6766C128.848 88.392 123.528 91.0478 118.386 97.6818C111.633 106.394 108.826 114.424 111.161 125.782C114.126 140.201 119.485 144.89 132.196 152.316C145.034 159.815 158.083 162.221 172.665 159.322C191.532 155.573 202.069 146.56 210.162 129.109C217.571 113.134 218.17 101.858 212.905 84.1005C206.45 62.3264 194.917 48.967 174.723 37.687C150.969 24.4185 132.468 21.8495 105.446 31.2851C82.7241 39.2189 64.976 48.4414 55.1445 68.2081C47.4344 83.7099 51.3751 98.1643 56.0035 114.052C58.9383 124.126 65.192 133.056 74.9016 137.033C80.0245 139.132 86.4995 137.033 86.4995 137.033M99.8407 288.125C99.8407 288.125 107.518 295.47 109.869 301.591M99.8407 288.125C99.8407 288.125 97.4404 287.215 95.9236 286.58C86.7237 282.725 73.8095 273.799 73.8095 273.799C73.8095 273.799 83.6496 280.604 88.2172 286.58C93.623 293.652 97.4362 298.453 97.5989 307.353C97.6928 312.49 97.891 316.085 94.8356 320.215C92.8798 322.859 91.2631 324.182 88.2172 325.422C84.062 327.113 76.7296 325.422 76.7296 325.422M99.8407 288.125C99.8407 288.125 102.842 289.552 107.19 291.182M109.869 301.591C112.341 308.03 113.862 312.316 111.256 319.198C108.225 327.203 102.871 329.666 94.8356 331.158C88.725 332.293 81.7286 328.768 76.7296 325.422M109.869 301.591C109.869 301.591 120.841 321.259 125.109 334.92C129.32 348.395 131.553 356.378 131.528 370.496C131.502 384.473 125.109 405.706 125.109 405.706C125.109 405.706 127.884 404.935 131.528 403.586M135.951 295.085C146.019 293.52 158.085 290.208 158.085 290.208L139.094 275.805C139.094 275.805 163.726 278.474 178.347 273.799C190.959 269.767 195.924 266.278 204.914 256.556C209.12 252.009 213.568 244.871 216.814 239.177M135.951 295.085C133.345 295.49 130.873 295.778 128.779 295.861C126.744 295.942 124.54 295.76 122.287 295.404M135.951 295.085L149.683 298.609C149.683 298.609 164.444 302.111 174.073 303.251C182.337 304.229 187.035 304.906 195.346 304.478C202.869 304.09 207.271 303.972 214.418 301.591C221.508 299.229 231.289 292.558 231.289 292.558C231.289 292.558 231.722 298.09 231.289 301.591C230.055 311.589 226.557 317.409 219.369 324.467C211.689 332.009 205.12 334.952 194.429 336.203C180.973 337.777 161.236 326.117 161.236 326.117C161.236 326.117 173.898 335.165 181.546 342.832C194.697 356.015 199.675 367.213 208.366 383.517C219.448 404.305 224.153 416.513 228.722 439.266C233.249 461.808 233.912 477.056 230.503 499.599C228.673 511.698 225.206 519.567 222.039 528.813M99.2173 573.554C116.677 588.589 132.322 592.631 155.001 590.192C179.992 587.504 190.921 575.451 206.716 555.899C214.323 546.482 218.906 537.96 222.039 528.813M99.2173 573.554C89.1631 564.897 81.1973 560.919 75.0451 548.93C64.5312 528.441 68.5514 504.461 82.4258 486.08C93.0603 471.992 111.171 469.301 126.712 470.588C147.257 472.29 157.107 499.494 153.654 517.204C151.048 530.576 130.061 531.508 130.061 531.508C130.061 531.508 128.961 516.757 120.819 513.5C111.557 509.796 107.02 513.13 100.782 517.987C96.2681 521.501 92.8335 529.308 92.8335 529.308M99.2173 573.554L97.9516 570.081M92.8335 529.308C97.1829 525.337 109.066 515.371 115.767 517.204C123.421 519.298 128.199 526.742 125.293 533.526C123.856 536.878 119.838 536.548 118.507 539.944C115.385 547.913 130.001 547.89 138.496 548.93C150.256 550.369 167.471 539.944 167.471 539.944M92.8335 529.308C92.8335 529.308 90.6786 539.037 91.2337 547.759C91.7922 556.533 97.9516 570.081 97.9516 570.081M167.471 539.944C167.471 539.944 157.7 526.97 156.835 517.204C155.913 506.798 164.354 491.53 164.354 491.53C164.354 491.53 177.496 502.284 186.176 499.599C193.096 497.459 198.614 491.53 198.614 491.53C198.614 491.53 200.425 474.982 200.13 464.358C199.799 452.471 196.446 434.131 196.446 434.131M167.471 539.944C167.471 539.944 174.623 545.795 180.167 546.91C186.532 548.19 194.518 545.839 194.518 545.839M196.446 434.131C196.446 434.131 195.356 445.337 190.956 451.091C186.556 456.845 178.06 457.506 170.887 458.576M196.446 434.131C196.446 434.131 192.503 420.402 189.088 411.931C187.003 406.759 183.242 398.902 183.242 398.902C183.242 398.902 190.339 415.375 190.956 426.578C191.383 434.321 193.021 439.663 189.088 446.346C186.337 451.023 178.809 455.693 178.809 455.693L170.887 458.576M86.4995 137.033C88.6976 137.243 90.6928 137.313 92.1915 137.328M92.1915 137.328C93.8861 137.346 94.9458 137.293 94.9458 137.293C94.9458 137.293 98.7743 145.784 97.1976 149.731C95.6304 153.655 88.8338 156.594 88.8338 156.594C88.8338 156.594 94.1352 162.019 101.487 168.067C105.086 171.028 109.74 176.524 112.478 179.905M92.1915 137.328C92.1915 137.328 93.6411 143.426 92.1915 146.85C90.2769 151.372 82.026 154.252 82.026 154.252L97.1976 168.835C97.1976 168.835 103.277 176.256 107.649 178.529C109.988 179.745 112.478 179.905 112.478 179.905M112.478 179.905C113.878 181.634 114.778 182.811 114.778 182.811C114.778 182.811 105.055 187.633 97.1976 189.406C79.8857 193.312 66.7075 192.73 51.1968 182.329C42.7452 176.661 30.8159 163.852 30.8159 163.852C30.8159 163.852 44.5269 185.602 58.9172 195.089C68.4503 201.373 73.8055 206.146 85.7242 209.028C104.634 213.602 117.593 212.439 136.55 206.991C144.279 204.77 154.886 201.63 154.886 201.63C154.886 201.63 156.643 212.362 153.706 218.501C149.915 226.426 137.375 233.973 137.375 233.973C137.375 233.973 152.128 227.097 160.296 227.097C168.464 227.097 173.068 226.461 181.212 227.097C189.193 227.72 193.346 229.659 201.468 230.248C209.3 230.817 221.611 230.248 221.611 230.248C221.611 230.248 219.681 234.15 216.814 239.177M22.7674 106.474L21.1654 120.954C21.1654 120.954 18.3752 138.482 19.0427 149.731C19.7551 161.736 21.1237 168.589 25.1956 179.905C31.2182 196.641 36.7836 205.94 49.3771 218.501C55.2848 224.394 60.2568 228.416 67.2702 232.937M67.2702 232.937C73.767 238.172 80.952 242.129 88.2172 246.233C95.4823 250.337 120.035 254.017 140.659 253.376C161.227 252.737 192.463 245.315 192.463 245.315C201.482 243.055 214.418 236.103 214.418 236.103C214.418 236.103 173.015 244.668 146.103 245.315C128.019 245.751 117.565 246.625 99.8407 243.012C86.2169 240.236 80.4806 237.273 67.2702 232.937ZM21.1654 132.897C21.1654 132.897 30.3451 172.315 34.9833 182.811C43.2161 201.44 55.1458 209.781 72.428 220.558C83.6469 227.555 101.487 233.973 101.487 233.973M33.544 170.756C33.544 170.756 42.5776 188.127 51.1968 196.953C59.1996 205.147 64.543 209.337 74.9016 214.225C82.3256 217.729 94.9458 220.558 94.9458 220.558M152.153 203.862C152.153 203.862 147.767 212.359 143.105 215.952C136.09 221.358 128.835 223.329 119.43 224.233C106.209 225.504 98.8141 227.006 86.4995 223.437C75.7595 220.324 61.7556 209.028 61.7556 209.028L51.1968 201.63M109.869 271.669C109.869 271.669 93.8714 270.58 83.8613 263.485C73.8513 256.389 68.2391 250.825 58.2291 243.729C48.2191 236.634 42.9838 226.86 42.9838 226.86L47.8063 236.043C47.8063 236.043 51.3781 241.858 54.0408 245.315C62.056 255.721 68.43 260.164 79.338 267.481C92.4641 276.286 100.789 280.373 116.027 284.569C128.805 288.088 149.683 288.925 149.683 288.925M112.953 307.353L126.414 326.117C126.414 326.117 136.687 342.825 137.974 356.009C138.759 364.05 139.428 369.466 137.974 377.884C136.279 387.697 128.733 401.65 128.733 401.65C128.733 401.65 141.194 387.863 143.837 377.884C145.834 370.347 144.952 366.993 143.837 359.277C142.038 346.812 130.435 329.133 130.435 329.133L107.19 291.182M107.19 291.182C111.449 292.778 117.001 294.57 122.287 295.404M107.19 291.182L130.435 313.106C130.435 313.106 166.974 344.749 183.242 370.496C194.569 388.422 199.924 399.432 206.287 419.659C215.199 447.985 219.532 466.708 215.183 495.175C213.015 509.364 210.111 521.76 196.6 526.607C186.11 530.37 175.918 529.81 168.529 521.467C162.251 514.378 161.61 505.257 164.354 497.582C164.354 497.582 171.62 502.744 177.029 503.873C181.413 504.788 184.296 505.428 188.495 503.873C193.935 501.859 198.614 493 198.614 493M138.979 331.158C138.979 331.158 150.523 343.669 152.884 353.76C154.585 361.03 154.577 365.608 152.884 372.88C151.257 379.872 148.96 383.514 144.915 389.444C140.629 395.726 131.528 403.586 131.528 403.586M131.528 403.586C135.826 401.994 141.331 399.599 144.915 396.72C152.796 390.388 158.229 382.843 159.952 372.88C161.247 365.395 156.651 356.009 156.651 356.009C156.651 356.009 174.343 379.246 177.007 393.97C178.282 401.017 177.437 401.812 177.007 406.806C175.54 423.861 175.388 432.592 166.188 445.317C163.099 449.588 156.651 451.186 157.397 455.693C158.07 459.768 163.643 459.657 170.887 458.576M176.506 263.485C176.506 263.485 191.533 258.711 199.96 253.376C207.232 248.773 216.814 239.177 216.814 239.177M122.287 295.404L144.915 316.233C144.915 316.233 161.348 329.481 170.307 339.519C179.1 349.37 190.244 366.827 190.244 366.827M194.518 545.839C194.518 545.839 183.86 559.943 172.878 565.946C157.976 574.093 146.307 578.503 130.061 573.554C119.385 570.302 110.517 567.841 106.456 557.446C103.21 549.139 101.837 537.313 109.912 533.526C113.896 531.657 119.898 534.712 119.898 534.712M194.518 545.839C194.518 545.839 204.744 543.73 209.94 541.127C216.199 537.991 222.039 528.813 222.039 528.813M97.9516 570.081L87.0823 559.225C87.0823 559.225 74.569 534.767 82.4258 520.281C88.9408 508.269 97.7335 497.726 111.398 497.582M111.398 497.582C114.394 497.551 118.421 498.437 120.819 499.045M111.398 497.582L120.819 499.045M122.863 499.599C122.863 499.599 122.059 499.359 120.819 499.045M226.702 298.609C226.702 298.609 223 305.74 219.369 309.24C214.13 314.29 209.765 315.643 202.811 317.785C191.226 321.353 171.771 317.785 171.771 317.785M220.947 303.251C220.947 303.251 214.663 308.325 209.961 310.286C205.507 312.145 197.928 313.106 197.928 313.106M161.215 455.693C161.215 455.693 171.168 451.584 175.053 446.346C178.819 441.267 178.665 437.109 179.995 430.927C183.244 415.825 178.809 391.39 178.809 391.39C178.809 391.39 183.488 402.458 184.739 409.972C186.172 418.577 186.854 423.847 184.739 432.311C182.739 440.317 181.704 446.207 175.053 451.091C170.462 454.461 161.215 455.693 161.215 455.693Z" stroke="#F4D1D1"/>
</g>
<defs>
<filter id="filter0_d_3628_873" x="0.375" y="0.792969" width="252.562" height="604.559" filterUnits="userSpaceOnUse" color-interpolation-filters="sRGB">
<feFlood flood-opacity="0" result="BackgroundImageFix"/>
<feColorMatrix in="SourceAlpha" type="matrix" values="0 0 0 0 0 0 0 0 0 0 0 0 0 0 0 0 0 0 127 0" result="hardAlpha"/>
<feOffset dy="4"/>
<feGaussianBlur stdDeviation="5"/>
<feComposite in2="hardAlpha" operator="out"/>
<feColorMatrix type="matrix" values="0 0 0 0 0 0 0 0 0 0 0 0 0 0 0 0 0 0 0.25 0"/>
<feBlend mode="normal" in2="BackgroundImageFix" result="effect1_dropShadow_3628_873"/>
<feBlend mode="normal" in="SourceGraphic" in2="effect1_dropShadow_3628_873" result="shape"/>
</filter>
</defs>
</svg>
