<svg width="47" height="67" viewBox="0 0 47 67" fill="none" xmlns="http://www.w3.org/2000/svg">
<path fill-rule="evenodd" clip-rule="evenodd" d="M43.6863 37.4909C41.9286 35.0457 39.4384 33.1407 36.2158 31.7759C38.4423 30.468 40.1122 28.762 41.2255 26.658C42.3973 24.5539 42.9832 22.1371 42.9832 19.4076C42.9832 15.825 42.1629 12.669 40.5223 9.9394C38.9403 7.20984 36.6845 5.1058 33.7549 3.62729C30.8253 2.09191 27.3683 1.32422 23.3841 1.32422H19.3434L17.5043 2.1175L18.9545 3.62729L20.4178 4.08363L21.9603 7.55293L21.1737 9.80219C25.5681 9.80219 28.3644 10.5081 30.4152 12.1572C32.4659 13.7494 33.4913 16.1662 33.4913 19.4076C33.4913 22.4783 32.4659 24.7245 30.4152 26.1462C28.423 27.5109 20.9715 28.1933 16.4013 28.1933L16.5771 30.7097V33.6311V36.5526H23.472C28.1008 36.5526 31.4698 37.3203 33.5791 38.8557C35.7471 40.3911 36.831 42.8079 36.831 46.1061C36.831 49.518 35.6592 52.1907 33.3155 54.1242C30.9718 56.0007 27.632 56.939 23.2962 56.939H16.6606L14.3359 57.201L15.395 59.4329V62.0628L14.8589 65.2983H23.2962C30.4444 65.2983 36.0693 63.5923 40.1708 60.1804C44.2723 56.7116 46.323 52.0201 46.323 46.1061C46.323 42.751 45.4441 39.8793 43.6863 37.4909Z" fill="#FFFFE6"/>
<path d="M8.98892 45.067C8.13212 46.1647 7.76773 47.0414 7.41945 48.5763C7.28867 49.1526 7.22603 49.909 7.1964 50.5505C7.16517 51.2264 7.57986 51.6789 8.10435 51.575C8.5363 51.4895 8.68106 51.0948 8.72675 50.635C8.83322 49.5633 9.07078 47.6097 9.48452 46.3122C9.52533 46.1843 9.5718 46.0503 9.62213 45.9133C9.85813 45.271 9.37225 44.5759 8.98892 45.067Z" fill="#FECACA"/>
<path d="M8.95728 8.7632C8.68849 8.68129 8.34246 8.70192 8.03659 8.75161C7.54064 8.83218 6.77249 8.85626 6.72698 9.35664V9.35664C6.69363 9.72345 7.29993 9.45835 7.63562 9.61004C8.25505 9.88995 8.35243 10.4324 8.95728 10.7425C9.42345 10.9815 9.82838 11.4531 10.2414 11.1308C10.6397 10.8199 10.4276 10.3066 10.2414 9.83691C10.0004 9.22931 9.5826 8.95376 8.95728 8.7632Z" fill="#FECACA"/>
<path d="M14.5743 2.04749C14.3909 1.316 15.7641 1.92479 16.414 1.45967C17.064 0.994555 18.0618 0.932244 19.1175 1.45967C19.4779 1.63975 19.7086 1.81567 19.8562 1.96929C20.0898 2.21243 19.867 2.49925 19.5305 2.47893V2.47893C18.7408 2.43124 18.3646 1.85069 17.5784 1.93794C16.9574 2.00685 16.7345 2.54703 16.1103 2.57336C15.4768 2.60009 14.7285 2.66238 14.5743 2.04749Z" fill="#FECACA"/>
<path d="M20.1464 19.6854C20.3966 19.1692 21.1476 19.3081 21.5019 19.1194C21.8562 18.9307 22.2424 18.8727 22.5868 19.1194C22.9252 19.3617 23.0129 19.7138 22.9424 20.1239C22.8482 20.6719 22.3911 20.9327 21.8434 21.0295C21.0108 21.1766 19.7778 20.4461 20.1464 19.6854Z" fill="#FECACA"/>
<path fill-rule="evenodd" clip-rule="evenodd" d="M5.68478 48.6894C5.61237 50.4158 5.76739 52.6515 5.93259 53.1043C6.10835 53.586 6.36579 52.6027 6.4066 52.067C6.63169 49.1119 6.86737 46.9235 8.41069 44.6142C8.58406 44.3548 8.81279 44.0676 9.03115 43.8097L9.03159 43.8092C9.48766 43.2706 9.96573 42.768 10.4508 42.2793C10.7716 41.9561 11.1483 41.5931 11.467 41.3314C12.9381 40.1238 13.9653 39.8001 15.6798 39.7466C16.5559 39.7193 18.0053 39.4062 18.4883 40.4258C18.6608 40.7901 19.0352 41.3151 18.6535 41.4446C18.2982 41.5652 18.3406 40.9077 18.0089 40.7323C17.9404 40.6961 17.8874 40.6659 17.8274 40.6522C17.8048 40.647 17.782 40.6423 17.7591 40.6381C17.2203 40.538 16.982 41.3862 17.1666 41.8974C17.3573 42.4254 18.1579 42.4634 18.4883 42.4634C18.5103 42.4634 18.5361 42.4637 18.5652 42.4641L18.5653 42.4641C18.9716 42.4688 20.0224 42.4812 20.636 41.7842C21.0493 41.3147 21.3018 40.7885 21.462 40.0862C21.7246 38.9345 21.2386 37.4571 20.636 36.6902C20.5183 36.5405 20.4114 36.4035 20.3131 36.2776V36.2776C20.3131 36.2775 20.3131 36.2776 20.313 36.2775C20.3101 36.2747 19.3632 35.3983 18.3287 34.7835C18.1497 34.6772 17.968 34.5786 17.7882 34.4938C17.4009 34.311 16.9687 34.2655 16.5404 34.2655V34.2655C16.5404 34.2655 15.0256 34.0881 14.0822 34.2655V34.2655C12.0142 34.6542 10.1391 35.9442 8.83475 37.5954C8.75037 37.7022 8.66433 37.8152 8.5759 37.9354C8.41102 38.1594 8.64017 38.4669 8.82698 38.278C9.20478 37.8959 9.61326 37.5184 9.98014 37.2562C10.7769 36.6867 11.2612 36.45 12.1278 36.1242C13.3201 35.6759 13.9659 35.4034 14.0822 35.5582C14.224 35.747 13.6593 35.8804 12.1768 36.518C11.6851 36.7295 11.2072 36.9756 10.8062 37.2562C10.3353 37.5857 9.79215 38.1599 9.3699 38.6476C8.88304 39.2099 8.43148 39.826 8.02161 40.4937C7.4575 41.4127 6.67405 42.8427 6.34561 44.1614C5.92556 45.848 5.76029 46.8891 5.68478 48.6894ZM18.6535 39.5202C19.0598 39.9155 19.0412 40.8759 19.5621 40.6522C19.9211 40.498 19.9344 40.1337 19.9872 39.7466C20.0623 39.1959 19.8684 38.8521 19.5621 38.3882C19.383 38.1169 19.0683 37.8847 18.7514 37.7025C18.1255 37.3426 17.3913 37.2562 16.6693 37.2562V37.2562C15.851 37.2562 14.9383 37.3011 14.3953 37.9134C14.297 38.0242 14.2227 38.1464 14.1929 38.278C13.9719 39.2531 15.8005 37.9754 16.7536 38.278C17.5985 38.5463 18.0181 38.902 18.6535 39.5202ZM7.32429 43.9529C7.16869 43.4928 9.84814 40.8119 9.86023 40.3377C9.87867 39.6139 9.87579 38.8029 10.5787 38.6284C11.2397 38.4643 12.1586 38.9635 12.0079 39.6276C11.8761 40.2087 9.11681 42.9999 8.53859 43.4273C8.12305 43.7344 7.4898 44.4423 7.32429 43.9529Z" fill="#FECACA"/>
<path d="M19.5621 40.6522C19.0412 40.8759 19.0598 39.9155 18.6535 39.5202C18.0181 38.902 17.5985 38.5463 16.7536 38.278C15.8005 37.9754 13.9719 39.2531 14.1929 38.278C14.2227 38.1464 14.297 38.0242 14.3953 37.9134C14.9383 37.3011 15.851 37.2562 16.6693 37.2562V37.2562C17.3913 37.2562 18.1255 37.3426 18.7514 37.7025C19.0683 37.8847 19.383 38.1169 19.5621 38.3882C19.8684 38.8521 20.0623 39.1959 19.9872 39.7466C19.9344 40.1337 19.9211 40.498 19.5621 40.6522Z" fill="#FECACA"/>
<path fill-rule="evenodd" clip-rule="evenodd" d="M21.1218 31.8793C21.1915 32.1824 21.3454 33.1837 20.8721 33.7474C20.3149 34.411 19.489 34.5085 18.6929 34.1661C17.8897 33.8207 17.5015 33.1464 17.4991 32.2722C17.4978 31.7837 17.5554 31.453 17.8669 31.0767C18.4934 30.32 19.5209 30.605 20.3827 31.0767C20.9437 31.3837 21.0521 31.5762 21.1218 31.8793ZM14.2324 32.2722C13.6519 31.6067 15.7324 31.0078 16.3904 31.5967C16.6195 31.8017 16.7722 31.9663 16.7931 32.273C16.8385 32.9404 15.7897 32.8212 15.1327 32.695C14.7512 32.6217 14.4877 32.5649 14.2324 32.2722ZM23.1787 27.6347C22.6281 27.7998 22.0065 27.7545 21.8727 28.3134C21.8315 28.4855 21.8213 28.5973 21.8727 28.7666C21.8949 28.8397 21.9392 28.9013 21.9978 28.953C22.5172 29.4118 23.3184 29.4165 24.0113 29.4281V29.4281C24.6204 29.4382 25.2603 29.5936 25.5233 29.0442C25.671 28.7355 25.6476 28.4867 25.5233 28.1678C25.3966 27.8429 25.2154 27.6904 24.9141 27.5148C24.3272 27.1729 23.8294 27.4394 23.1787 27.6347Z" fill="#FECACA"/>
<path d="M16.3904 31.5967C15.7324 31.0078 13.6519 31.6067 14.2324 32.2722C14.4877 32.5649 14.7512 32.6217 15.1327 32.695C15.7897 32.8212 16.8385 32.9404 16.7931 32.273C16.7722 31.9663 16.6195 31.8017 16.3904 31.5967Z" fill="#FECACA"/>
<path d="M20.8721 33.7474C21.3454 33.1837 21.1915 32.1824 21.1218 31.8793C21.0521 31.5762 20.9437 31.3837 20.3827 31.0767C19.5209 30.605 18.4934 30.32 17.8669 31.0767C17.5554 31.453 17.4978 31.7837 17.4991 32.2722C17.5015 33.1464 17.8897 33.8207 18.6929 34.1661C19.489 34.5085 20.3149 34.411 20.8721 33.7474Z" fill="#FECACA"/>
<path d="M21.8727 28.3134C22.0065 27.7545 22.6281 27.7998 23.1787 27.6347C23.8294 27.4394 24.3272 27.1729 24.9141 27.5148C25.2154 27.6904 25.3966 27.8429 25.5233 28.1678C25.6476 28.4867 25.671 28.7355 25.5233 29.0442C25.2603 29.5936 24.6204 29.4382 24.0113 29.4281V29.4281C23.3184 29.4165 22.5172 29.4118 21.9978 28.953C21.9392 28.9013 21.8949 28.8397 21.8727 28.7666C21.8213 28.5973 21.8315 28.4855 21.8727 28.3134Z" fill="#FECACA"/>
<path fill-rule="evenodd" clip-rule="evenodd" d="M21.5019 19.1194C21.1476 19.3081 20.3966 19.1692 20.1464 19.6854C19.7778 20.4461 21.0108 21.1766 21.8434 21.0295C22.3911 20.9327 22.8482 20.6719 22.9424 20.1239C23.0129 19.7138 22.9252 19.3617 22.5868 19.1194C22.2424 18.8727 21.8562 18.9307 21.5019 19.1194ZM16.414 1.45967C15.7641 1.92479 14.3909 1.316 14.5743 2.04749C14.7285 2.66238 15.4768 2.60009 16.1103 2.57336C16.7345 2.54703 16.9574 2.00685 17.5784 1.93794C18.3646 1.85069 18.7408 2.43124 19.5305 2.47893V2.47893C19.867 2.49925 20.0898 2.21243 19.8562 1.96929C19.7086 1.81567 19.4779 1.63975 19.1175 1.45967C18.0618 0.932244 17.064 0.994555 16.414 1.45967ZM8.95728 8.7632C8.68849 8.68129 8.34246 8.70192 8.03659 8.75161C7.54064 8.83218 6.77249 8.85626 6.72698 9.35664V9.35664C6.69363 9.72345 7.29993 9.45835 7.63562 9.61004C8.25505 9.88995 8.35243 10.4324 8.95728 10.7425C9.42345 10.9815 9.82838 11.4531 10.2414 11.1308C10.6397 10.8199 10.4276 10.3066 10.2414 9.83691C10.0004 9.22931 9.5826 8.95376 8.95728 8.7632ZM3.34025 37.7974C3.5275 36.196 3.78869 35.3296 4.24889 33.8354C4.54191 32.884 4.99463 31.8243 5.46262 30.8431L5.46415 30.8399L5.47121 30.8251C6.60688 28.4478 7.99425 26.3051 9.58997 24.4908C9.59064 24.49 9.59131 24.4893 9.59198 24.4885L9.59953 24.4799C10.1745 23.827 10.7883 23.1944 11.3528 22.7418C12.0847 22.155 13.8939 21.1331 14.2107 20.9554C14.243 20.9374 14.3232 20.8936 14.291 20.9118V20.9118L14.2908 20.9119C14.2779 20.9191 14.264 20.927 14.2577 20.9306C14.256 20.9316 14.2549 20.9323 14.2544 20.9326V20.9326C14.254 20.9329 14.2551 20.9323 14.2556 20.9321C14.2556 20.9321 14.2557 20.9321 14.2557 20.932C14.2576 20.9311 14.2593 20.93 14.261 20.9288V20.9288C13.999 21.1246 13.5948 21.5059 13.177 21.9001L13.1769 21.9002C13.1768 21.9003 13.1767 21.9004 13.1766 21.9005C12.8609 22.1984 12.5374 22.5036 12.2614 22.7418L12.1757 22.8246C10.5833 24.3643 9.11467 26.0272 7.78362 27.7979V27.7979C7.6707 27.964 7.5629 28.1205 7.45966 28.2704C7.4592 28.2711 7.45874 28.2718 7.45827 28.2724L7.4582 28.2725C6.90001 29.083 6.47542 29.6996 6.09831 30.586L6.09824 30.5861C5.93921 30.9599 5.7699 31.3579 5.57054 31.7978C5.45977 32.0423 5.36255 32.2503 5.27234 32.4434C5.08443 32.8455 4.92662 33.2935 4.74022 33.8227V33.8227C4.57933 34.2794 4.43264 34.7398 4.30067 35.2058C3.93544 36.4952 3.19834 39.0111 3.34025 37.7974Z" fill="#FECACA"/>
<path fill-rule="evenodd" clip-rule="evenodd" d="M9.79569 53.1175C10.5319 52.516 11.0057 52.18 11.8608 52.0987C11.9231 52.0928 11.9847 52.0866 12.0456 52.0804L12.0457 52.0804C12.8547 51.9985 13.5389 51.9292 14.0911 52.7779C14.4579 53.3418 14.5402 53.8364 14.5867 54.5891C14.6251 55.2121 14.5491 55.5786 14.4215 56.174C14.302 56.731 14.028 57.2972 13.7368 57.7823V57.7823C12.9747 59.0517 11.9691 56.5214 10.6772 55.7981C10.6166 55.7642 10.5559 55.738 10.4955 55.7211C9.87455 55.5475 9.43986 55.7786 8.92607 56.2871C8.37441 56.8331 8.12307 57.4035 8.01744 58.3247C7.90026 59.3467 8.18011 59.9832 8.56392 60.8561L8.56496 60.8585V60.8585C8.58543 60.905 8.60655 60.9505 8.62966 60.9958C8.76214 61.2555 9.24487 62.1704 9.41503 62.0604C9.77001 61.8308 8.9788 61.2644 8.83404 59.9096C8.79459 59.5404 8.7437 59.4289 8.72185 59.1172C8.70021 58.8085 8.72185 58.6499 8.72185 58.3247C8.72185 57.8581 9.1175 57.0477 9.59217 56.7399C9.91818 56.5285 10.1626 56.4976 10.5781 56.7399C11.0745 57.0293 11.4189 58.0563 11.5841 58.6616C11.6663 58.9632 11.8971 59.3311 11.6956 59.57V59.57V59.57C11.4542 59.856 11.0244 59.4223 10.6859 59.2628C10.4545 59.1539 10.194 59.1013 10.0435 59.2985C9.56351 59.9278 10.1135 61.0888 10.4955 61.8335C10.67 62.1736 11.1029 62.6586 11.3758 62.9478C11.5308 63.1121 11.7159 63.2437 11.918 63.3446L12.7427 63.7563C12.8864 63.828 13.0568 63.8207 13.1939 63.7371V63.7371C13.3042 63.6697 13.3856 63.5581 13.3714 63.4297C13.3511 63.2449 13.2544 62.9812 12.891 62.8527C12.7792 62.8132 12.6824 62.7971 12.5903 62.7817C12.4451 62.7575 12.3113 62.7351 12.1476 62.6263C12.0392 62.5543 11.9331 62.4613 11.8351 62.3624C11.4489 61.9731 11.0164 61.458 11.1587 60.9283V60.9283V60.9283C11.2857 60.4552 11.8212 60.0274 12.2852 60.1848C12.466 60.2461 12.6349 60.3882 12.7585 60.5987C13.0708 61.1306 13.4973 61.7546 13.9258 62.0604C14.5993 62.5409 14.7857 62.4737 15.2068 62.3372C15.7521 62.1603 14.7774 61.772 14.3389 60.9284C14.3066 60.8664 14.2758 60.8091 14.2465 60.7544C14.1003 60.4823 13.9906 60.2781 13.9258 59.9096C13.7849 59.1066 13.955 58.5086 14.3389 57.872C14.5897 57.456 14.7947 57.2634 15.1649 57.0796C15.6501 56.8385 16.0793 56.645 16.4865 57.0796C16.6837 57.2899 16.7978 57.7422 16.8543 58.0398C16.8849 58.2012 16.8117 58.3592 16.6947 58.405C16.5229 58.4723 16.4607 58.7652 16.5754 58.9529C16.8027 59.3249 17.1277 59.8901 17.3126 60.3624C17.373 60.5166 17.4019 60.6617 17.4296 60.8C17.4707 61.0059 17.5088 61.1969 17.643 61.3812C17.8594 61.6785 18.1007 61.6723 18.3669 61.6654C18.5293 61.6611 18.701 61.6567 18.882 61.7208C19.0406 61.777 19.2209 61.8517 19.3998 61.9311C19.9375 62.1697 20.1971 62.9887 19.9872 63.7078C19.9129 63.9622 19.7854 64.1808 19.6206 64.3361L18.9814 64.9383C18.7208 65.1838 18.3784 65.1922 18.1116 64.9595C17.9518 64.8201 17.7655 64.7676 17.5861 64.7998C17.2929 64.8523 17.1428 65.1713 16.8996 65.3432V65.3432C16.8676 65.3658 16.8309 65.3862 16.7916 65.4046C16.4639 65.5577 16.0953 65.6026 15.7521 65.7169V65.7169C14.4652 66.1457 13.1517 66.5834 11.8608 66.2488C11.2414 66.0883 10.8708 65.8572 10.3637 65.5411C10.2633 65.4785 10.1576 65.4126 10.0435 65.3432C9.9327 65.2758 9.83208 65.2183 9.73752 65.1642C9.43826 64.993 9.19929 64.8564 8.88705 64.5508C8.75134 64.418 8.62333 64.3042 8.50275 64.197C8.09451 63.8341 7.77131 63.5468 7.52181 62.8527C7.474 62.7197 7.41197 62.5899 7.34959 62.4594C7.25307 62.2575 7.1557 62.0537 7.1088 61.8335C6.81965 60.4755 6.89282 59.4232 7.1088 58.0398C7.26248 57.0556 7.46998 56.5374 7.80066 55.7117L7.80113 55.7106C7.829 55.6409 7.85775 55.5691 7.88742 55.4947C8.01574 55.1727 8.20631 54.9316 8.39947 54.6872C8.50978 54.5476 8.62094 54.4069 8.72185 54.2495C9.06482 53.7145 9.3316 53.4966 9.7716 53.1372L9.79569 53.1175Z" fill="#FECACA"/>
<path d="M9.86023 40.3377C9.84814 40.8119 7.16869 43.4928 7.32429 43.9529C7.4898 44.4423 8.12305 43.7344 8.53859 43.4273C9.11681 42.9999 11.8761 40.2087 12.0079 39.6276C12.1586 38.9635 11.2397 38.4643 10.5787 38.6284C9.87579 38.8029 9.87867 39.6139 9.86023 40.3377Z" fill="#FECACA"/>
<path fill-rule="evenodd" clip-rule="evenodd" d="M22.7549 26.5692C23.2321 26.9397 23.777 27.0765 24.2298 27.0462C25.6058 26.9542 26.9339 26.4985 27.1184 27.6347C27.1497 27.8271 27.1385 27.9891 27.1025 28.1434C27.0034 28.5681 26.689 28.9072 26.3441 29.1742V29.1742C26.2976 29.2103 26.2528 29.2476 26.208 29.2858C26.0058 29.458 25.3794 29.9686 24.8659 30.1401C23.8912 30.4658 22.2432 29.9307 22.2408 29.9299C22.2408 29.9299 22.2408 29.9299 22.2407 29.9299V29.9299C21.8978 29.8478 21.5049 29.7537 21.0058 29.6722C20.5462 29.5972 20.238 29.504 19.9872 29.4281C19.5662 29.3007 19.3067 29.2221 18.7636 29.3609C18.3919 29.4558 18.0095 29.7277 18.0321 30.1108V30.1108C18.072 30.7887 18.8709 30.0739 19.7668 30.2382C20.7206 30.4133 21.8811 30.7448 22.2862 31.5967C22.6912 32.4486 22.6931 32.8076 22.4101 33.7474L22.402 33.7741L22.3955 33.7959L22.3879 33.8212L22.387 33.8242L22.3869 33.8244V33.8244C22.0933 34.8016 20.7226 34.7162 19.7026 34.7449L18.3287 34.7835C18.1497 34.6772 17.968 34.5786 17.7882 34.4938C17.4009 34.311 16.9687 34.2655 16.5404 34.2655V34.2655V34.2655C15.5924 33.5015 14.3644 33.1057 13.1472 33.1342C12.97 33.1383 12.7931 33.1528 12.6234 33.1814C12.3894 33.2209 12.1239 33.289 11.863 33.3665C10.9886 33.6261 10.2306 34.1626 9.5958 34.8176L9.55171 34.8631C9.25869 35.1655 8.99838 35.4979 8.77511 35.8549V35.8549C8.66866 36.0251 8.55356 36.1897 8.43397 36.3509C8.02907 36.8968 7.04808 38.2703 6.55026 39.4075C5.66324 41.4337 5.49115 42.8453 5.22861 45.1807C5.07112 46.5816 5.07591 46.7225 5.02396 47.4781C5.00553 47.7461 4.8777 48.1995 4.56502 47.8114C4.54456 47.786 4.52633 47.7552 4.51012 47.7198C3.96671 46.5336 4.43265 45.1199 4.56502 43.8218V43.8218C4.76761 41.8352 5.21951 40.7025 5.72423 38.8415C5.92053 38.1176 6.24384 37.3158 6.58074 36.58C6.77175 36.1629 6.96714 35.767 7.14622 35.4185C7.60829 34.5195 8.15565 33.6671 8.78388 32.8752V32.8752C9.53417 31.9295 10.6268 30.6693 11.5891 30.0119C12.1203 29.6489 12.7271 29.2644 13.2925 28.9173C14.5962 28.1169 15.9115 27.2603 17.4027 26.9191V26.9191C17.4745 26.9027 17.5501 26.8877 17.6283 26.874C18.9026 26.6508 20.2145 26.5968 21.5014 26.7291V26.7291C22.4481 26.8264 22.7549 26.5692 22.7549 26.5692ZM20.8721 33.7474C21.3454 33.1837 21.1915 32.1824 21.1218 31.8793C21.0521 31.5762 20.9437 31.3837 20.3827 31.0767C19.5209 30.605 18.4934 30.32 17.8669 31.0767C17.5554 31.453 17.4978 31.7837 17.4991 32.2722C17.5015 33.1464 17.8897 33.8207 18.6929 34.1661C19.489 34.5085 20.3149 34.411 20.8721 33.7474ZM16.3904 31.5967C15.7324 31.0078 13.6519 31.6067 14.2324 32.2722C14.4877 32.5649 14.7512 32.6217 15.1327 32.695C15.7897 32.8212 16.8385 32.9404 16.7931 32.273C16.7722 31.9663 16.6195 31.8017 16.3904 31.5967ZM21.8727 28.3134C22.0065 27.7545 22.6281 27.7998 23.1787 27.6347C23.8294 27.4394 24.3272 27.1729 24.9141 27.5148C25.2154 27.6904 25.3966 27.8429 25.5233 28.1678C25.6476 28.4867 25.671 28.7355 25.5233 29.0442C25.2603 29.5936 24.6204 29.4382 24.0113 29.4281V29.4281C23.3184 29.4165 22.5172 29.4118 21.9978 28.953C21.9392 28.9013 21.8949 28.8397 21.8727 28.7666C21.8213 28.5973 21.8315 28.4855 21.8727 28.3134Z" fill="#FECACA"/>
<path fill-rule="evenodd" clip-rule="evenodd" d="M21.6536 23.3321C21.1633 23.509 20.9916 23.8055 20.5536 24.0882C20.1052 24.3776 19.4026 24.2613 19.3837 24.7947C19.3729 25.0971 19.5466 25.2465 19.7273 25.4894C19.9213 25.7501 20.0535 25.9018 20.3433 26.0489C21 26.3824 21.512 25.9845 22.2014 25.7253V25.7253C22.8548 25.4797 23.5543 25.088 23.7504 24.4181C23.7626 24.3766 23.771 24.3351 23.7749 24.2942C23.8123 23.8984 23.7154 23.6205 23.4416 23.3321C22.961 22.8257 22.3105 23.0952 21.6536 23.3321Z" fill="#FECACA"/>
<path d="M20.5536 24.0882C20.9916 23.8055 21.1633 23.509 21.6536 23.3321C22.3105 23.0952 22.961 22.8257 23.4416 23.3321C23.7154 23.6205 23.8123 23.8984 23.7749 24.2942C23.771 24.3351 23.7626 24.3766 23.7504 24.4181C23.5543 25.088 22.8548 25.4797 22.2014 25.7253V25.7253C21.512 25.9845 21 26.3824 20.3433 26.0489C20.0535 25.9018 19.9213 25.7501 19.7273 25.4894C19.5466 25.2465 19.3729 25.0971 19.3837 24.7947C19.4026 24.2613 20.1052 24.3776 20.5536 24.0882Z" fill="#FECACA"/>
<path fill-rule="evenodd" clip-rule="evenodd" d="M18.6929 23.3321C16.9356 23.8532 16.3488 24.3979 14.6556 25.7253C13.0042 27.0201 12.0255 28.0185 11.3239 28.7342L11.2921 28.7666V28.7666C9.64172 30.38 7.6846 31.798 6.63092 33.8514C6.46753 34.1698 6.34397 34.4943 6.28708 34.8109C6.18812 35.3616 5.91036 35.7813 6.22731 36.2425C6.33541 36.3998 6.58074 36.58 6.58074 36.58C6.77175 36.1629 6.96714 35.767 7.14622 35.4185C7.60829 34.5195 8.15565 33.6671 8.78388 32.8752V32.8752C9.53417 31.9295 10.6268 30.6693 11.5891 30.0119C12.1203 29.6489 12.7271 29.2644 13.2925 28.9173C14.5962 28.1169 15.9115 27.2603 17.4027 26.9191V26.9191C17.4745 26.9027 17.5501 26.8877 17.6283 26.874C18.9026 26.6508 20.2145 26.5968 21.5014 26.7291V26.7291C22.4481 26.8264 22.7549 26.5692 22.7549 26.5692C22.7549 26.5692 23.9861 25.5481 24.6009 24.5778C24.9497 24.0273 24.7124 23.5759 24.4357 23.3321C23.5071 22.5141 22.7334 22.5924 21.6988 22.6971L21.6987 22.6971V22.6971C20.6969 22.9088 19.6745 23.0411 18.6929 23.3321V23.3321ZM21.6536 23.3321C21.1633 23.509 20.9916 23.8055 20.5536 24.0882C20.1052 24.3776 19.4026 24.2613 19.3837 24.7947C19.3729 25.0971 19.5466 25.2465 19.7273 25.4894C19.9213 25.7501 20.0535 25.9018 20.3433 26.0489C21 26.3824 21.512 25.9845 22.2014 25.7253V25.7253C22.8548 25.4797 23.5543 25.088 23.7504 24.4181C23.7626 24.3766 23.771 24.3351 23.7749 24.2942C23.8123 23.8984 23.7154 23.6205 23.4416 23.3321C22.961 22.8257 22.3105 23.0952 21.6536 23.3321Z" fill="#FECACA"/>
<path fill-rule="evenodd" clip-rule="evenodd" d="M4.4967 57.1547V57.1547C4.85518 56.3955 4.32607 55.5224 3.95653 54.7685C3.81488 54.4795 3.65773 54.1673 3.50103 53.8719C3.15512 53.2201 2.50089 50.106 2.35847 49.4156C2.34084 49.3301 2.37043 49.244 2.43527 49.1856V49.1856C2.57842 49.0566 2.80817 49.1297 2.84687 49.3185C3.18155 50.9514 4.44447 56.6088 5.51698 54.6872C5.72622 54.3123 5.40901 54.3157 5.29373 54.0564C5.00775 53.4131 4.26572 51.0134 4.00108 48.8911C3.89265 48.0215 3.86524 47.4331 3.83561 46.7408L3.83561 46.7407C3.83214 46.6914 3.83022 46.641 3.82973 46.5896C3.8035 45.8408 3.78109 44.9763 3.83587 44.0235C3.96863 41.7145 4.16756 40.3827 4.82712 38.2502C5.10109 37.3644 5.14942 37.1859 5.24013 36.3722C5.33084 35.5586 5.11046 35.7274 5.24013 35.4202C5.3698 35.1131 5.47649 34.808 5.85348 33.9145C6.49852 32.3857 7.25489 30.2671 8.24388 28.7488C9.15502 27.35 10.869 25.4794 11.5543 24.7497C11.7498 24.5415 11.9538 24.3433 12.1695 24.1562V24.1562C12.9938 23.4416 15.2411 21.5779 16.9698 20.9306C17.3907 20.773 17.652 20.6403 17.8708 20.5292C18.2582 20.3325 18.5121 20.2035 19.2827 20.1239C20.0533 20.0443 19.6813 20.8675 19.3653 21.0295C18.776 21.3316 17.4477 21.3641 16.6394 21.723C15.8311 22.0819 16.3678 22.2372 16.3702 22.5928C16.3776 23.7179 17.3289 21.9535 19.1175 21.723C20.1733 21.5869 20.8126 21.9891 21.8434 21.723C22.5645 21.5368 23.0743 21.6157 23.578 20.9306C23.9958 20.3623 24.0177 20.1765 23.9084 19.6854C23.7927 19.165 23.6304 18.8056 22.9998 18.6666C22.4216 18.5391 21.163 17.0767 22.5042 16.4026C23.8453 15.7284 26.3634 12.7958 26.0561 14.3649C25.962 14.8458 25.8793 15.1426 25.5364 15.5071C24.3949 16.7201 25.0357 16.0822 24.6691 16.4026C24.2725 16.7491 23.6663 16.6759 23.578 17.195C23.4609 17.8837 24.7305 17.2445 25.3264 16.8143C25.955 16.3606 26.4256 15.8017 26.6343 14.9309C26.7683 14.3721 26.9213 13.8785 26.6343 13.4593C26.4663 13.2138 26.3102 13.1834 26.0561 13.1197C25.5995 13.0054 25.3613 13.4808 24.8997 13.4593V13.4593C24.1297 13.4236 23.3571 13.4215 22.5869 13.4525C22.54 13.4544 22.4936 13.4566 22.4482 13.4593C21.7275 13.5021 21.3009 14.1272 20.8521 13.6857C20.3047 13.1473 21.4496 12.6434 21.8434 11.9877C22.0541 11.6368 22.2561 11.3774 22.4482 11.1308C22.7728 10.7139 23.0689 10.3337 23.3302 9.61004C23.362 9.52208 23.3928 9.43783 23.4224 9.35665C23.807 8.30357 24.0032 7.7665 23.7432 6.32726C23.3209 3.98902 22.3437 2.53132 20.7695 1.45967C19.7323 0.753564 19.1165 0.436773 17.961 0.328132C16.6993 0.2095 15.8805 0.182867 14.6993 0.802037L14.6472 0.789367L14.6223 0.842254C13.5788 1.38776 12.8097 1.78986 12.2614 3.15813C11.8959 4.07019 11.8196 4.72195 11.8484 5.76172C11.8496 5.80606 11.8507 5.84999 11.8518 5.89353C11.8528 5.93283 11.8537 5.97182 11.8546 6.0105C11.8771 6.95517 11.8951 7.71212 12.4266 8.3653C12.8494 8.88489 13.2769 8.89563 13.7893 8.90851L13.7894 8.90851C13.9336 8.91214 14.0845 8.91595 14.2439 8.9313C14.5888 8.96453 14.8648 8.88091 15.1349 8.79903C15.4466 8.70459 15.7505 8.61251 16.1437 8.70491C16.2763 8.73606 16.4124 8.74979 16.5449 8.76316L16.5451 8.76318L16.5451 8.76319L16.5452 8.7632C16.956 8.80466 17.3329 8.84271 17.4654 9.38411C17.5372 9.6775 17.7217 10.003 17.4654 10.1765C17.2011 10.3554 17.0331 9.90835 16.722 9.83691C16.08 9.68947 15.5209 9.69651 15.0699 10.1765C14.8947 10.363 14.8256 10.4852 14.7395 10.7425C14.5916 11.1846 14.4063 11.6335 14.7395 11.9877C15.197 12.4742 16.2698 10.6419 16.309 11.3085C16.3255 11.5904 16.1841 11.7437 16.0611 11.9877C15.7114 12.6819 15.1051 12.6939 14.5364 12.7051C14.1797 12.7121 13.8377 12.7188 13.5831 12.8933V12.8933C13.2583 13.1159 13.5882 13.7115 13.9073 13.942C13.9577 13.9784 14.0147 14.0078 14.0787 14.0253C14.4917 14.1385 16.3555 13.1558 16.309 14.0253C16.2727 14.7018 15.0699 14.5913 14.9047 15.0442C14.7893 15.3605 13.8882 15.6471 14.2439 15.8365C14.4147 15.9275 14.5464 15.8539 14.7395 15.8365C15.5234 15.766 15.8348 15.0989 16.6394 14.9309C17.3341 14.7859 17.9764 15.4119 18.4566 14.9309C18.6408 14.7465 18.8239 14.6347 18.8697 14.3649C18.9535 13.8711 18.3569 13.7185 17.961 13.4593C17.2858 13.0174 16.3312 13.8233 16.0611 13.1197C15.7618 12.34 17.095 12.4765 17.7132 11.7613C17.8481 11.6053 17.9817 11.4651 18.1101 11.3304C18.5936 10.8231 19.0021 10.3944 19.1175 9.4973C19.2362 8.57374 19.1629 7.96744 18.8697 7.12011C18.5373 6.1598 18.2108 5.48931 17.4654 5.19571C17.0337 5.02568 16.7381 5.26768 16.414 5.53294C16.1903 5.71608 15.9531 5.91029 15.6481 5.98765C15.416 6.04655 15.1975 6.13181 14.9873 6.21387L14.9871 6.21393L14.9871 6.21396C14.4134 6.43789 13.9006 6.63807 13.3352 6.21452C12.975 5.9446 12.7228 5.72898 12.5918 5.19571C12.4565 4.64464 12.5757 4.24982 12.757 3.72414C12.9715 3.10242 13.0832 2.63145 13.6657 2.47894C14.5262 2.25359 13.1902 3.90507 13.4178 4.74293C13.4682 4.9282 13.4698 5.04536 13.5831 5.19571C13.9482 5.6805 14.5025 4.98766 15.0699 4.74293C15.2948 4.64594 15.466 4.53177 15.6331 4.4204C15.8353 4.28558 16.0314 4.15487 16.309 4.06373C17.1246 3.79588 17.6477 3.76032 18.4566 4.06373C19.3372 4.39401 19.8721 4.78111 20.4391 5.76172C20.9339 6.61747 21.1509 7.27432 21.1825 8.3653C21.2178 9.58065 20.9821 10.3464 20.4391 11.3085C19.9734 12.1338 18.8436 12.0228 18.8697 12.8933C18.8794 13.2174 18.9764 13.41 19.1175 13.6857C19.1949 13.8372 19.2995 13.9126 19.4004 13.9854C19.5218 14.073 19.638 14.1569 19.6957 14.3649C19.8375 14.8766 19.5216 15.1827 19.1868 15.5071C19.0781 15.6124 18.9673 15.7197 18.8697 15.8365C17.7423 17.1853 16.7413 17.4214 15.2351 17.4214V17.4214C12.4871 17.4214 10.1019 20.107 8.26718 22.1527C7.6149 22.88 6.97482 23.6696 6.47918 24.4398C6.42692 24.521 6.37541 24.6009 6.32467 24.6797L6.32461 24.6798C5.20905 26.4111 4.45448 27.5821 3.75328 29.7602C3.26105 31.2892 3.09526 32.2861 2.84419 33.7958L2.84416 33.796L2.84248 33.8061L2.84245 33.8063C2.81669 33.9612 2.79004 34.1214 2.76204 34.2882C2.30984 36.9814 2.19087 36.8009 1.92186 36.8832C1.38483 37.0475 1.56579 36.3889 2.10121 33.3826V33.3826C2.74061 29.7925 4.16721 26.3617 5.84591 23.1245C6.00093 22.8256 6.15781 22.5435 6.31397 22.289C7.47613 20.3952 8.40335 19.7152 9.7833 18.1006C10.3914 17.3891 10.4897 15.9271 11.3528 16.2894C12.2591 16.6698 9.87796 17.9282 10.5267 18.6666C11.2665 19.5085 11.8071 17.525 12.4266 16.5158C12.8932 15.7555 14.0871 15.0034 13.4178 14.3649C13.1218 14.0825 12.8232 13.9657 12.4266 14.0253C11.9371 14.0989 11.7065 15.3502 11.3528 14.9309V14.9309C10.9542 14.4585 11.5853 13.8037 11.9844 13.3316C12.3108 12.9456 12.6886 12.4508 12.9222 11.9877C13.2504 11.3372 13.2639 11.2894 13.0874 10.9546C13.0846 10.9493 13.0818 10.944 13.079 10.9387L13.0757 10.9323L13.069 10.9194L13.0623 10.9066C12.9225 10.6379 12.8303 10.4608 12.4266 10.7425C11.8517 11.1437 11.9607 11.208 11.7205 11.1953C11.5102 11.1842 11.3837 11.2289 11.3528 10.7425C11.2826 9.63885 11.0294 8.8763 10.3615 8.2521C9.69876 7.63267 9.01478 7.87983 8.23293 8.16235L8.23279 8.1624L8.23273 8.16242C8.04002 8.23205 7.84137 8.30382 7.63563 8.3653C6.18374 8.79912 5.27495 9.26946 4.24889 10.7425C4.17958 10.842 4.11184 10.9375 4.04603 11.0302C3.51335 11.7809 3.10691 12.3537 3.00985 13.4593C2.90018 14.7085 3.0827 15.6564 3.75328 16.5158C4.30484 17.2226 3.23498 18.2446 3.75328 19.1194C4.70369 20.7236 6.65823 16.2539 6.72699 15.3838C6.76454 14.9084 6.41448 14.762 6.03564 14.6034C5.98199 14.581 5.92072 14.5485 5.85715 14.5109C5.48404 14.2905 5.21164 13.9412 4.88614 13.6551V13.6551C4.71885 13.5081 4.60413 13.4073 4.4141 12.8933C4.40563 12.8704 4.39727 12.848 4.38903 12.8259C4.38343 12.8109 4.3779 12.7962 4.37243 12.7815L4.3719 12.7801L4.37172 12.7797C4.18956 12.2931 4.08153 12.0046 4.3315 11.5349C4.53623 11.1502 4.97211 11.3691 5.07493 11.6481C5.09276 11.6965 5.14417 11.7145 5.21697 11.7112C6.07767 11.6718 6.87521 10.9034 7.63563 11.3085V11.3085C7.96084 11.4818 8.14225 11.6365 8.37906 11.9877C8.71136 12.4805 8.76073 12.9604 8.82194 13.5555L8.82195 13.5556C8.83725 13.7043 8.8533 13.8602 8.87468 14.0253C8.89212 14.16 8.90605 14.3151 8.91713 14.4713C8.95996 15.0754 8.87326 15.6798 8.70794 16.2624V16.2624C8.49074 17.0278 8.12716 17.7417 7.65454 18.3817C6.7413 19.6184 5.17877 21.8253 4.24889 23.6474C4.19994 23.7433 4.15228 23.8365 4.10581 23.9274L4.10269 23.9335L4.10216 23.9345C3.43425 25.2406 3.01073 26.0687 2.51423 27.6094C2.29361 28.2941 2.08488 29.1127 1.89598 29.9549C1.11896 33.4195 0.600436 36.9511 0.49588 40.5001V40.5001V40.5001C0.439056 42.4289 0.510222 44.3606 0.659664 46.2845C0.682079 46.573 0.706444 46.8491 0.732534 47.0931V47.0931C1.0021 49.6147 1.8472 52.0343 2.70515 54.4207C2.75256 54.5525 2.79907 54.6814 2.84419 54.8059C3.27484 55.9944 3.43107 58.3513 4.24889 57.4943C4.36224 57.3755 4.42235 57.3122 4.4967 57.1547ZM3.34025 37.7974C3.5275 36.196 3.78869 35.3296 4.24889 33.8354C4.54191 32.884 4.99463 31.8243 5.46262 30.8431L5.46415 30.8399L5.47121 30.8251C6.60688 28.4478 7.99425 26.3051 9.58997 24.4908C9.59064 24.49 9.59131 24.4893 9.59198 24.4885L9.59953 24.4799C10.1745 23.827 10.7883 23.1944 11.3528 22.7418C12.0847 22.155 13.8939 21.1331 14.2107 20.9554C14.243 20.9374 14.3232 20.8936 14.291 20.9118V20.9118L14.2908 20.9119C14.2779 20.9191 14.264 20.927 14.2577 20.9306C14.256 20.9316 14.2549 20.9323 14.2544 20.9326V20.9326C14.254 20.9329 14.2551 20.9323 14.2556 20.9321C14.2556 20.9321 14.2557 20.9321 14.2557 20.932C14.2576 20.9311 14.2593 20.93 14.261 20.9288V20.9288C13.999 21.1246 13.5948 21.5059 13.177 21.9001L13.1769 21.9002L13.1766 21.9005C12.8609 22.1984 12.5374 22.5036 12.2614 22.7418L12.1757 22.8246C10.5833 24.3643 9.11467 26.0272 7.78362 27.7979V27.7979C7.6707 27.964 7.5629 28.1205 7.45966 28.2704L7.45827 28.2724L7.4582 28.2725C6.90001 29.083 6.47542 29.6996 6.09831 30.586L6.09824 30.5861C5.93921 30.9599 5.7699 31.3579 5.57054 31.7978C5.45977 32.0423 5.36255 32.2503 5.27234 32.4434C5.08443 32.8455 4.92662 33.2935 4.74022 33.8227V33.8227C4.57933 34.2794 4.43264 34.7398 4.30067 35.2058C3.93544 36.4952 3.19834 39.0111 3.34025 37.7974ZM21.5019 19.1194C21.1476 19.3081 20.3966 19.1692 20.1464 19.6854C19.7778 20.4461 21.0108 21.1766 21.8434 21.0295C22.3911 20.9327 22.8482 20.6719 22.9424 20.1239C23.0129 19.7138 22.9252 19.3617 22.5868 19.1194C22.2424 18.8727 21.8562 18.9307 21.5019 19.1194ZM16.414 1.45967C15.7641 1.92479 14.3909 1.316 14.5743 2.04749C14.7285 2.66238 15.4768 2.60009 16.1103 2.57336C16.7345 2.54703 16.9574 2.00685 17.5784 1.93794C18.3646 1.85069 18.7408 2.43124 19.5305 2.47893V2.47893C19.867 2.49925 20.0898 2.21243 19.8562 1.96929C19.7086 1.81567 19.4779 1.63975 19.1175 1.45967C18.0618 0.932244 17.064 0.994555 16.414 1.45967ZM8.95728 8.7632C8.68849 8.68129 8.34246 8.70192 8.03659 8.75161C7.54064 8.83218 6.77249 8.85626 6.72698 9.35664V9.35664C6.69363 9.72345 7.29993 9.45835 7.63562 9.61004C8.25505 9.88995 8.35243 10.4324 8.95728 10.7425C9.42345 10.9815 9.82838 11.4531 10.2414 11.1308C10.6397 10.8199 10.4276 10.3066 10.2414 9.83691C10.0004 9.22931 9.5826 8.95376 8.95728 8.7632Z" fill="#FECACA"/>
</svg>
