<svg width="196" height="257" viewBox="0 0 196 257" fill="none" xmlns="http://www.w3.org/2000/svg">
<g filter="url(#filter0_d_3677_8)">
<path fill-rule="evenodd" clip-rule="evenodd" d="M166.916 138.455C161.203 130.508 153.111 124.317 142.638 119.882C149.874 115.631 155.301 110.087 158.918 103.249C162.727 96.4113 164.631 88.557 164.631 79.6863C164.631 68.0435 161.965 57.7868 156.633 48.9161C151.492 40.0454 144.161 33.2076 134.64 28.4026C125.119 23.4129 113.885 20.918 100.936 20.918H87.8048L81.8281 23.496L86.5409 28.4026L91.2965 29.8857L96.3093 41.1604L93.7529 48.4702C108.034 48.4702 117.122 50.7642 123.786 56.1236C130.451 61.2981 133.783 69.1524 133.783 79.6863C133.783 89.6659 130.451 96.9657 123.786 101.586C117.312 106.021 93.096 108.239 78.2435 108.239L78.8147 116.417V125.911V135.405H101.222C116.265 135.405 127.214 137.9 134.069 142.89C141.114 147.88 144.637 155.734 144.637 166.453C144.637 177.541 140.829 186.227 133.212 192.51C125.595 198.609 114.742 201.658 100.651 201.658H79.086L71.5312 202.51L74.973 209.763V218.31L73.2307 228.825H100.651C123.882 228.825 142.162 223.281 155.491 212.192C168.82 200.919 175.485 185.673 175.485 166.453C175.485 155.549 172.628 146.217 166.916 138.455Z" stroke="#D87F7F" shape-rendering="crispEdges"/>
</g>
<g filter="url(#filter1_d_3677_8)">
<path d="M72.6953 19.2036C76.5341 17.1914 79.1951 17.2779 83.2955 17.6635C87.0505 18.0165 89.0519 19.0461 92.4227 21.3408C97.5386 24.8235 100.714 29.5609 102.087 37.1598C102.932 41.8371 102.294 43.5825 101.044 47.0049C100.948 47.2687 100.848 47.5425 100.745 47.8284C99.8953 50.1802 98.9331 51.4158 97.8781 52.7706C97.254 53.5719 96.5975 54.415 95.9126 55.5555C94.6329 57.6865 90.9121 59.3239 92.6912 61.0739C94.1496 62.5084 95.5361 60.4771 97.8781 60.3381C98.0257 60.3293 98.1764 60.322 98.3289 60.3158C100.832 60.215 103.343 60.2218 105.845 60.3381V60.3381C107.345 60.4078 108.12 58.8628 109.603 59.2344C110.429 59.4412 110.936 59.5401 111.483 60.3381C112.415 61.7002 111.918 63.3043 111.483 65.1206C110.804 67.9504 109.275 69.7667 107.232 71.2413C105.295 72.6394 101.169 74.7168 101.55 72.4784C101.837 70.7914 103.807 71.0292 105.096 69.9031C106.287 68.862 104.205 70.9351 107.914 66.9928C109.029 65.8084 109.297 64.844 109.603 63.2812C110.602 58.1817 102.419 67.7123 98.0602 69.9031C93.7016 72.0939 97.7917 76.8466 99.6709 77.2609C101.72 77.7127 102.248 78.8808 102.624 80.5719C102.979 82.1679 102.908 82.7718 101.55 84.6186C99.913 86.8451 98.2561 86.5887 95.9126 87.1938C92.5629 88.0587 90.4849 86.7515 87.0538 87.1938C81.2412 87.9431 78.1495 93.6771 78.1255 90.0205C78.1178 88.865 76.3734 88.36 79.0003 87.1938C81.6272 86.0275 85.9441 85.9219 87.8591 84.9401C88.8863 84.4135 90.095 81.7382 87.5906 81.997C85.0863 82.2557 84.2612 82.6748 83.0022 83.3141C82.2913 83.6751 81.4421 84.1063 80.0741 84.6186C74.4561 86.7224 67.1529 92.779 64.4739 95.1015V95.1015C63.7727 95.7093 63.1099 96.3536 62.4746 97.0301C60.2475 99.4016 54.6772 105.481 51.7161 110.027C48.5021 114.961 46.0439 121.846 43.9476 126.814C42.7225 129.718 42.3758 130.71 41.9543 131.708C41.5329 132.706 42.2491 132.157 41.9543 134.802C41.6596 137.446 41.5025 138.026 40.6121 140.905C38.4687 147.835 37.8221 152.163 37.3907 159.667C37.2127 162.764 37.2855 165.573 37.3707 168.007M72.6953 19.2036L72.526 19.1624M72.6953 19.2036C72.6475 19.2286 72.5735 19.1376 72.526 19.1624M72.6953 19.2036C72.7292 19.1859 72.6613 19.2214 72.6953 19.2036ZM72.6953 19.2036C72.7387 19.1809 72.6516 19.2265 72.6953 19.2036ZM98.8751 102.943C98.8751 102.943 102.876 99.6248 104.874 96.4715C106.008 94.6824 105.237 93.2155 104.337 92.4232C101.32 89.7647 98.805 90.0192 95.4426 90.3595V90.3595C92.1868 91.0473 88.8644 91.4773 85.6741 92.4232V92.4232C79.9631 94.1166 78.0558 95.8868 72.5534 100.201C67.1864 104.409 64.0059 107.653 61.7256 109.979M98.8751 102.943C100.426 104.147 102.197 104.592 103.668 104.494C108.14 104.194 112.456 102.713 113.056 106.406C113.157 107.031 113.121 107.558 113.004 108.059C112.682 109.439 111.66 110.542 110.539 111.409V111.409C110.388 111.526 110.243 111.648 110.097 111.772C109.44 112.332 107.404 113.991 105.735 114.548C104.422 114.987 102.733 114.945 101.205 114.745C98.4946 114.391 95.888 113.468 93.1906 113.028V113.028C91.6968 112.784 90.6953 112.481 89.8802 112.234C88.512 111.82 87.6688 111.565 85.9038 112.016C84.6957 112.324 83.4532 113.208 83.5265 114.453V114.453C83.6563 116.656 86.2526 114.333 89.1639 114.867C92.2638 115.436 96.0353 116.513 97.3516 119.282C98.6679 122.05 98.6742 123.217 97.7543 126.272M98.8751 102.943C98.8751 102.943 97.8778 103.779 94.8013 103.463V103.463C90.6191 103.033 86.3554 103.208 82.2142 103.934C81.9599 103.978 81.7143 104.027 81.4811 104.081V104.081C76.6349 105.189 72.3603 107.973 68.1236 110.574C66.2859 111.702 64.3139 112.952 62.5875 114.131C59.4603 116.268 55.9094 120.363 53.471 123.437V123.437C51.4294 126.011 49.6506 128.781 48.1489 131.702C47.5669 132.835 46.9319 134.121 46.3111 135.477M97.7543 126.272L97.7281 126.358M97.7543 126.272C97.7455 126.301 97.7368 126.33 97.7281 126.358M37.3898 168.498C37.3786 168.338 37.3724 168.174 37.3707 168.007M37.3898 168.498C37.4861 170.748 37.5752 172.66 37.9276 175.486C38.7877 182.383 41.1991 190.182 42.1285 192.273C42.5032 193.116 43.5341 193.105 42.8541 194.323C39.3686 200.568 35.2643 182.182 34.1766 176.875C34.0508 176.262 33.3042 176.024 32.8389 176.443V176.443C32.6282 176.633 32.5321 176.913 32.5894 177.191C33.0522 179.435 35.1784 189.555 36.3025 191.673C36.8118 192.633 37.3225 193.648 37.7828 194.587C38.9838 197.037 40.7033 199.875 39.5383 202.342V202.342C39.2967 202.854 39.1013 203.06 38.733 203.446C36.0752 206.231 35.5674 198.571 34.1679 194.709C34.0212 194.304 33.8701 193.885 33.716 193.457C30.9278 185.701 28.1813 177.838 27.3053 169.643V169.643C27.2205 168.85 27.1413 167.953 27.0685 167.015C26.5828 160.763 26.3515 154.485 26.5362 148.217V148.217V148.217C26.876 136.683 28.5611 125.206 31.0863 113.946C31.7002 111.209 32.3786 108.549 33.0955 106.324C34.7091 101.317 36.0855 98.6254 38.2561 94.381M37.3898 168.498C37.3828 168.334 37.3765 168.171 37.3707 168.007M44.2048 189.179C44.7417 190.65 45.4792 189.342 45.547 188.443C45.6148 187.543 45.6799 186.665 45.7452 185.808M44.2048 189.179C43.6679 187.707 43.1641 180.441 43.3994 174.831C43.6448 168.98 44.1819 165.597 45.547 160.116C46.6144 155.83 49.1605 151.183 50.9938 148.196M44.2048 189.179C44.7759 190.744 45.6126 187.548 45.7452 185.808M56.7593 189.222C59.1519 187.267 60.6916 186.175 63.4705 185.911C63.6731 185.891 63.8735 185.871 64.0715 185.851C66.7006 185.585 68.9242 185.36 70.7186 188.118C71.9107 189.951 72.1784 191.558 72.3293 194.004C72.4542 196.029 72.2073 197.22 71.7924 199.155C71.4042 200.965 70.5137 202.805 69.5673 204.382V204.382C67.0905 208.507 63.8227 200.284 59.624 197.933C59.4271 197.823 59.2298 197.738 59.0337 197.683C57.0156 197.119 55.6029 197.87 53.9331 199.522C52.1403 201.297 51.3235 203.15 50.9802 206.144C50.5994 209.466 51.5089 211.534 52.7562 214.371M56.7593 189.222L56.681 189.286M56.7593 189.222C56.733 189.243 56.7069 189.265 56.681 189.286M56.1218 96.1534C57.9903 94.0316 59.985 91.9755 61.8196 90.5048C64.1988 88.5974 70.0798 85.2754 71.1081 84.6991C71.2126 84.6405 71.4722 84.4989 71.3678 84.5577V84.5577C71.3258 84.5814 71.2807 84.6068 71.2602 84.6187C71.2548 84.6218 71.2511 84.624 71.2496 84.625V84.625C71.2482 84.626 71.2519 84.6243 71.2534 84.6235C71.2535 84.6235 71.2536 84.6234 71.2538 84.6233C71.2598 84.6202 71.2655 84.6166 71.271 84.6126V84.6126C70.4194 85.249 69.1058 86.4884 67.7479 87.7696L67.7469 87.7705C66.7208 88.7387 65.6693 89.7308 64.7725 90.5048L64.4941 90.774C59.3188 95.7778 54.5461 101.182 50.2203 106.936V106.936C49.8534 107.476 49.503 107.985 49.1675 108.472M56.1218 96.1534C56.1136 96.1627 56.1054 96.172 56.0973 96.1813M56.1218 96.1534L56.0973 96.1813M42.6824 116.822C42.6807 116.826 42.6791 116.829 42.6774 116.833M42.6824 116.822L42.7053 116.774M42.6824 116.822L42.6774 116.833M42.6824 116.822C42.69 116.806 42.6977 116.79 42.7053 116.774M45.7452 185.808C46.4767 176.204 47.2427 169.092 52.2582 161.587C52.8217 160.744 53.565 159.811 54.2746 158.973C54.2751 158.972 54.2756 158.972 54.2761 158.971M58.8882 153.999C59.9307 152.948 61.1549 151.769 62.1908 150.918C66.9718 146.994 70.3101 145.942 75.8817 145.768C78.729 145.679 83.4393 144.662 85.009 147.975C85.5698 149.159 86.7865 150.865 85.5459 151.286C84.3912 151.678 84.529 149.541 83.4511 148.971C83.2285 148.854 83.0561 148.756 82.8614 148.711C82.7878 148.694 82.7137 148.679 82.6392 148.665C80.8882 148.34 80.1139 151.097 80.7138 152.758C81.3334 154.474 83.9352 154.597 85.009 154.597C85.0807 154.597 85.1649 154.598 85.2594 154.599C86.5798 154.615 89.9946 154.655 91.9886 152.39C93.332 150.864 94.1527 149.154 94.6731 146.872C95.5267 143.129 93.9473 138.327 91.9886 135.835V135.835C91.2883 134.944 90.5252 134.104 89.6566 133.376C88.4468 132.362 86.5204 130.845 84.4903 129.639M58.8882 153.999V153.999C57.303 155.596 55.7304 157.254 54.2761 158.971V158.971M58.8882 153.999C57.3119 155.587 55.7583 157.221 54.2761 158.971M55.3755 142.196C56.7478 140.612 58.5129 138.745 60.0432 137.675C61.3464 136.763 62.8997 135.963 64.4975 135.276C69.3155 133.203 71.1507 132.77 70.6898 132.156C70.3119 131.653 68.2133 132.539 64.3384 133.996C61.5221 135.055 59.9481 135.824 57.3587 137.675C56.1664 138.527 54.8389 139.754 53.6111 140.995C53.004 141.609 52.2593 140.61 52.7951 139.882C53.0825 139.491 53.3621 139.124 53.6364 138.777C57.8753 133.411 63.9691 129.218 70.6898 127.955V127.955C73.7559 127.379 78.6786 127.955 78.6786 127.955M55.3755 142.196C53.7933 144.024 52.3258 146.026 50.9938 148.196M55.3755 142.196V142.196C53.7787 144.041 52.3378 146.015 51.058 148.092C51.0367 148.126 51.0153 148.161 50.9938 148.196M56.681 189.286C55.2511 190.454 54.3841 191.162 53.2695 192.901C52.9415 193.412 52.5803 193.869 52.2218 194.323C51.594 195.117 50.9747 195.901 50.5577 196.947C50.4613 197.189 50.3678 197.422 50.2772 197.649M56.0973 96.1813C56.0951 96.1838 56.0929 96.1863 56.0907 96.1888M42.6774 116.833C41.1565 120.022 39.6852 123.465 38.733 126.557C37.2374 131.414 36.3885 134.229 35.78 139.433C35.3188 143.378 37.7143 135.201 38.9012 131.011C39.3301 129.497 39.8068 128 40.3297 126.516V126.516C40.9355 124.796 41.4484 123.34 42.059 122.033C42.3522 121.406 42.6681 120.73 43.0281 119.936C43.676 118.506 44.2265 117.212 44.7433 115.997C45.9689 113.117 47.349 111.113 49.163 108.479M42.6774 116.833C42.6867 116.813 42.696 116.794 42.7053 116.774M38.2561 94.381L38.2578 94.3776M38.2561 94.381C38.2567 94.3799 38.2573 94.3787 38.2578 94.3776M39.1327 58.1307L39.1321 58.1292C38.5401 56.5481 38.189 55.6103 39.0014 54.084C39.6668 52.8338 41.0833 53.545 41.4175 54.4519C41.4754 54.6091 41.6425 54.6676 41.8791 54.6568C44.6762 54.5287 47.2681 52.0316 49.7394 53.3482V53.3482C50.7963 53.9112 51.3858 54.4142 52.1554 55.5555C53.2354 57.1571 53.3958 58.7166 53.5947 60.6504C53.6445 61.1338 53.6966 61.6409 53.7661 62.1775C53.8228 62.6151 53.8681 63.1193 53.9041 63.6269C54.0433 65.5902 53.7615 67.5543 53.2242 69.4477V69.4477C52.5184 71.9351 51.3368 74.2552 49.8008 76.3351C46.8329 80.3541 41.7549 87.5264 38.733 93.4479C38.5739 93.7596 38.419 94.0625 38.268 94.3578M39.1327 58.1307L39.1344 58.1353M39.1327 58.1307C39.1333 58.1323 39.1339 58.1338 39.1344 58.1353M39.1344 58.1353C39.1522 58.1828 39.1702 58.2309 39.1884 58.2795C39.2152 58.3512 39.2423 58.4242 39.2699 58.4986C39.8874 60.1689 40.2603 60.4966 40.8039 60.9744V60.9744C41.8618 61.9041 42.747 63.0393 43.9596 63.7556C44.1662 63.8776 44.3653 63.9833 44.5397 64.0562C45.7708 64.5714 46.9085 65.0474 46.7864 66.5921C46.563 69.4201 40.211 83.9458 37.1223 78.7324C35.4379 75.8894 38.9148 72.5681 37.1223 70.271C34.943 67.4782 34.3498 64.3977 34.7062 60.3381C35.0217 56.745 36.3426 54.8835 38.0737 52.4438C38.2876 52.1424 38.5077 51.8321 38.733 51.5087C42.0675 46.7215 45.021 45.193 49.7394 43.7832C50.408 43.5833 51.0543 43.3499 51.6805 43.1236C54.2214 42.2054 56.4443 41.4022 58.5982 43.4153C60.7686 45.4438 61.5914 47.922 61.8196 51.5087C61.9201 53.0896 62.3313 52.9442 63.0145 52.9803C63.7951 53.0215 63.441 52.8125 65.3094 51.5087C66.6214 50.5932 66.921 51.1687 67.3754 52.042M67.3754 52.042L67.397 52.0835M67.3754 52.042C67.3826 52.0557 67.3898 52.0696 67.397 52.0835M67.397 52.0835L67.4189 52.1255M67.397 52.0835C67.4043 52.0974 67.4116 52.1114 67.4189 52.1255M67.4297 52.1462C67.4387 52.1634 67.4478 52.1807 67.457 52.1981C68.0306 53.2861 67.9866 53.4416 66.9201 55.5555C66.1609 57.0603 64.9331 58.6684 63.8723 59.923C62.5753 61.4571 60.5242 63.5851 61.8196 65.1206V65.1206C62.9691 66.4832 63.7187 62.4167 65.3094 62.1775C66.5984 61.9837 67.5686 62.3633 68.5308 63.2812C70.7058 65.3559 66.8259 67.8003 65.3094 70.271C63.2961 73.551 61.5392 79.9969 59.1351 77.2609C57.0267 74.8614 64.7651 70.7716 61.8196 69.5352C59.0147 68.3579 58.6952 73.1093 56.719 75.4215C52.2344 80.6686 49.221 82.8788 45.4442 89.0332C44.9367 89.8602 44.4268 90.777 43.9231 91.7485C38.4675 102.269 33.8313 113.419 31.7533 125.086V125.086C30.0133 134.856 29.4251 136.996 31.1704 136.462C32.0447 136.195 32.4313 136.782 33.9009 128.029C33.9919 127.487 34.0786 126.966 34.1623 126.462M67.4297 52.1462L67.4189 52.1255M67.4297 52.1462C67.4261 52.1393 67.4225 52.1324 67.4189 52.1255M34.1679 126.429C34.9838 121.522 35.5226 118.283 37.1223 113.314C39.4011 106.235 41.8535 102.429 45.479 96.8026C45.6439 96.5467 45.8112 96.287 45.9811 96.0231C47.5918 93.5201 49.672 90.9539 51.7918 88.5903C57.7545 81.9419 65.5061 73.2141 74.4367 73.2141V73.2141C79.3316 73.2141 82.5848 72.4468 86.2484 68.0637C86.5659 67.6838 86.9257 67.3352 87.2791 66.9928C88.3672 65.9386 89.3939 64.9439 88.9329 63.2812C88.7454 62.605 88.3678 62.3325 87.9732 62.0478C87.6452 61.8112 87.3056 61.5662 87.0538 61.0739C86.5955 60.1779 86.28 59.5519 86.2484 58.4986C86.1637 55.6694 89.8353 56.0304 91.3489 53.3482C93.1135 50.2213 93.8796 47.7329 93.765 43.7832C93.6621 40.2376 92.957 38.1029 91.3489 35.3219C89.5062 32.135 87.768 30.877 84.9062 29.8036C82.2771 28.8176 80.5772 28.9332 77.9265 29.8036C77.0245 30.0998 76.3873 30.5246 75.7301 30.9628C75.1871 31.3247 74.6305 31.6958 73.8998 32.0109C72.0559 32.8063 70.2543 35.0579 69.0677 33.4824C68.6996 32.9938 68.6944 32.6131 68.5308 32.0109C67.7911 29.288 72.1328 23.9209 69.3361 24.6533C67.4434 25.1489 67.0802 26.6795 66.3832 28.7C65.7938 30.4084 65.4064 31.6915 65.8463 33.4824C66.272 35.2155 67.0915 35.9162 68.2623 36.7934C70.0996 38.1699 71.7662 37.5193 73.6306 36.7916C74.3139 36.5249 75.0244 36.2475 75.7789 36.0561C76.7699 35.8047 77.541 35.1736 78.268 34.5784C79.3211 33.7163 80.2819 32.9298 81.6848 33.4824C84.1071 34.4366 85.1684 36.6156 86.2484 39.7364C87.2013 42.4902 87.4396 44.4605 87.0538 47.462C86.6789 50.3775 85.3512 51.7706 83.7799 53.4192C83.3627 53.8569 82.9284 54.3127 82.4901 54.8197C80.4811 57.1441 76.1485 56.7004 77.1211 59.2344C77.9988 61.5208 81.1013 58.9018 83.2955 60.3381C84.5821 61.1803 86.5209 61.6761 86.2484 63.2812C86.0996 64.1578 85.5047 64.5212 84.9062 65.1206C83.3454 66.6836 81.258 64.6492 79.0003 65.1206C76.3855 65.6665 75.3734 67.8344 72.826 68.0637C72.1983 68.1202 71.7704 68.3594 71.2153 68.0637C70.0594 67.448 72.9878 66.5165 73.3629 65.4885C73.8998 64.0169 77.8088 64.3759 77.9265 62.1775C78.0777 59.3515 72.0206 62.5454 70.6784 62.1775C70.4704 62.1205 70.2853 62.0251 70.1215 61.9067C69.0844 61.1575 68.0123 59.2218 69.0677 58.4986V58.4986C69.8954 57.9315 71.0067 57.9096 72.1658 57.8868C74.0143 57.8504 75.9846 57.8115 77.1211 55.5555C77.5207 54.7624 77.9804 54.2642 77.9265 53.3482C77.7991 51.1818 74.3129 57.1364 72.826 55.5555C71.7431 54.4042 72.3455 52.9454 72.826 51.5087C73.1057 50.6725 73.3302 50.2755 73.8998 49.6693C75.3653 48.1094 77.1825 48.0865 79.2687 48.5657C80.2797 48.7979 80.8258 50.2507 81.6848 49.6693C82.5177 49.1055 81.9181 48.0476 81.6848 47.0941C81.2543 45.3347 80.0292 45.211 78.6942 45.0763C78.2634 45.0328 77.8203 44.9881 77.3896 44.8868C76.1117 44.5865 75.124 44.8858 74.1111 45.1927C73.2331 45.4588 72.3363 45.7306 71.2153 45.6226C70.6972 45.5727 70.2064 45.5603 69.7378 45.5485C68.0727 45.5066 66.6836 45.4718 65.3094 43.7832C63.5819 41.6604 63.5235 39.2004 63.4505 36.1304C63.4475 36.0047 63.4445 35.878 63.4414 35.7502C63.4379 35.6087 63.4342 35.466 63.4303 35.3219C63.3367 31.9428 63.5848 29.8246 64.7725 26.8606C66.5543 22.4139 69.0539 21.1071 72.4451 19.3343M34.1679 126.429L34.1623 126.462M34.1679 126.429C34.1661 126.44 34.1642 126.451 34.1623 126.462M72.4451 19.3343L72.526 19.1624M72.4451 19.3343C72.6953 19.2034 72.771 19.0345 72.526 19.1624M61.6224 110.085L61.7256 109.979M61.6224 110.085C61.6566 110.05 61.691 110.015 61.7256 109.979M61.6224 110.085V110.085C56.2589 115.328 49.8986 119.936 46.4742 126.609C45.9432 127.644 45.5417 128.699 45.3568 129.728C45.0352 131.517 44.1325 132.881 45.1625 134.38C45.5139 134.891 46.3111 135.477 46.3111 135.477M42.7053 116.774C42.8776 116.414 43.6901 116.505 43.8629 116.152V116.152C47.2284 109.273 50.7813 102.373 55.7673 96.5611C55.8742 96.4365 55.982 96.3124 56.0907 96.1888M42.7053 116.774C46.3961 109.048 50.9049 102.085 56.0907 96.1888M97.6791 126.522V126.522C96.7247 129.697 92.2702 129.42 88.9553 129.513L84.4903 129.639M97.6791 126.522L97.6821 126.511M97.6791 126.522C97.68 126.518 97.6812 126.515 97.6821 126.511M97.6821 126.511L97.7069 126.429M97.6821 126.511C97.6904 126.484 97.6986 126.457 97.7069 126.429M38.2578 94.3776L38.268 94.3578M38.2578 94.3776C38.2612 94.371 38.2646 94.3644 38.268 94.3578M49.163 108.479L49.1675 108.472M49.163 108.479C49.1645 108.476 49.166 108.474 49.1675 108.472M50.2757 197.652C49.2011 200.336 48.5267 202.02 48.0273 205.219C47.3254 209.714 47.0876 213.134 48.0273 217.547C48.1797 218.263 48.4961 218.925 48.8098 219.582C49.0125 220.006 49.2141 220.428 49.3695 220.86C50.1803 223.115 51.2307 224.049 52.5574 225.228C52.9493 225.577 53.3653 225.947 53.8063 226.378C54.8211 227.371 55.5977 227.815 56.5703 228.372C56.8775 228.547 57.2045 228.734 57.5647 228.953C57.9354 229.179 58.279 229.393 58.6052 229.597C60.2531 230.624 61.4576 231.375 63.4705 231.897C67.6658 232.984 71.9345 231.562 76.1167 230.168V230.168C77.232 229.796 78.4299 229.651 79.4949 229.153C79.6227 229.093 79.742 229.027 79.8459 228.953V228.953C80.6365 228.395 81.1241 227.358 82.0769 227.187C82.6599 227.083 83.2656 227.254 83.785 227.706C84.6519 228.463 85.7647 228.435 86.6115 227.638L88.6888 225.68C89.2243 225.176 89.6388 224.466 89.8802 223.639C90.5623 221.302 89.7187 218.64 87.9712 217.865C87.3898 217.607 86.8041 217.364 86.2887 217.181C85.7003 216.973 85.1422 216.987 84.6144 217.001C83.7493 217.023 82.9653 217.044 82.2619 216.077C81.8259 215.478 81.7019 214.858 81.5683 214.189C81.4785 213.739 81.3844 213.268 81.1881 212.766C80.5873 211.232 79.5312 209.395 78.7925 208.186C78.4197 207.576 78.6217 206.624 79.1801 206.405C79.5602 206.256 79.7984 205.743 79.6988 205.219C79.5151 204.251 79.1442 202.781 78.5036 202.098C77.1802 200.685 75.7854 201.314 74.2085 202.098C73.0054 202.695 72.3391 203.321 71.524 204.673C70.2764 206.742 69.7235 208.685 70.1817 211.295C70.392 212.493 70.7486 213.156 71.2237 214.041C71.3191 214.218 71.4193 214.404 71.524 214.606C72.9493 217.348 76.1167 218.609 74.3445 219.184C72.9761 219.628 72.3704 219.846 70.1817 218.285C68.789 217.291 67.4028 215.263 66.3879 213.534C65.9864 212.851 65.4374 212.389 64.8498 212.189C63.3418 211.678 61.6017 213.068 61.1887 214.606V214.606V214.606C60.7265 216.327 62.132 218.001 63.387 219.266C63.7057 219.588 64.0504 219.89 64.4026 220.124C64.9346 220.478 65.3695 220.55 65.8413 220.629C66.1408 220.679 66.4552 220.731 66.8187 220.86C67.9997 221.277 68.3138 222.134 68.38 222.735C68.4261 223.152 68.1614 223.515 67.8029 223.734V223.734C67.3576 224.006 66.8036 224.029 66.3367 223.796L63.6564 222.458C62.9998 222.13 62.398 221.703 61.8944 221.169C61.0076 220.229 59.6008 218.653 59.0337 217.547C57.7921 215.127 56.0047 211.354 57.5647 209.309C58.0536 208.668 58.9002 208.839 59.6522 209.193C60.7525 209.711 62.1494 211.121 62.9336 210.191V210.191V210.191C63.5885 209.415 62.8385 208.219 62.5712 207.239C62.0346 205.272 60.9152 201.934 59.3022 200.994C57.9516 200.207 57.1573 200.307 56.0979 200.994C54.5553 201.994 53.2694 204.628 53.2694 206.144C53.2695 207.201 53.1991 207.716 53.2694 208.72C53.3405 209.733 53.5059 210.095 53.6341 211.295C54.1045 215.698 56.6758 217.539 55.5222 218.285C54.9692 218.642 53.4004 215.669 52.9698 214.825C52.8947 214.678 52.8261 214.53 52.7596 214.379V214.379M50.2757 197.652L50.2772 197.649M50.2757 197.652C50.2762 197.651 50.2767 197.65 50.2772 197.649M52.7562 214.371L52.7596 214.379M52.7562 214.371C52.7573 214.374 52.7585 214.376 52.7596 214.379M78.6786 127.955V127.955C75.5978 125.472 71.6069 124.186 67.6512 124.279C67.0754 124.292 66.5006 124.339 65.9491 124.432C65.1886 124.561 64.3257 124.782 63.4779 125.033C60.6361 125.877 58.1727 127.621 56.1097 129.75L55.9664 129.897C55.0141 130.88 54.1682 131.96 53.4425 133.121V133.121C53.0966 133.674 52.7225 134.208 52.3339 134.732C51.018 136.506 47.8299 140.97 46.2121 144.666C43.3294 151.251 42.7701 155.838 41.9169 163.428C41.4051 167.981 41.4207 168.439 41.2518 170.894C41.1919 171.765 40.7765 173.239 39.7604 171.977C39.6938 171.895 39.6346 171.795 39.5819 171.68C37.8159 167.825 39.3302 163.23 39.7604 159.012V159.012C40.4187 152.556 41.8874 148.875 43.5276 142.826C44.1656 140.474 45.2163 137.868 46.3111 135.477M78.6786 127.955V127.955C80.0705 127.955 81.4752 128.103 82.734 128.697C83.3183 128.973 83.9085 129.293 84.4903 129.639M78.6786 127.955C78.9456 128.17 79.2072 128.375 79.4564 128.563C79.7491 128.783 80.1076 128.894 80.4738 128.894V128.894C80.84 128.894 81.1863 129.057 81.5472 129.119C81.8026 129.163 82.0239 129.105 82.3062 129.135C82.7856 129.185 83.2323 129.415 83.7069 129.5L84.4903 129.639M97.7069 126.429L97.7281 126.358M97.7069 126.429C97.714 126.406 97.721 126.382 97.7281 126.358M55.748 167.105C54.4034 171.322 53.6314 177.671 53.2854 181.154C53.1369 182.648 52.6664 183.931 51.2627 184.209C49.5581 184.546 48.2105 183.076 48.3119 180.879C48.4083 178.794 48.6118 176.336 49.0368 174.463C50.1687 169.475 51.3529 166.626 54.1374 163.059C55.3832 161.463 56.9622 163.722 56.1952 165.809C56.0317 166.254 55.8807 166.69 55.748 167.105ZM88.4988 148.711C86.8059 149.438 86.8663 146.317 85.5459 145.032C83.4811 143.023 82.1175 141.867 79.3715 140.995C76.2741 140.012 70.3313 144.164 71.0496 140.995C71.1466 140.568 71.3881 140.17 71.7075 139.81C73.4719 137.821 76.4382 137.675 79.0975 137.675V137.675C81.4439 137.675 83.8301 137.955 85.8641 139.125C86.894 139.717 87.9167 140.472 88.4988 141.353C89.4943 142.861 90.1243 143.978 89.8802 145.768C89.7085 147.026 89.6656 148.21 88.4988 148.711ZM92.7559 126.272C94.2942 124.44 93.7942 121.185 93.5676 120.2C93.341 119.215 92.9886 118.59 91.1657 117.592C88.3649 116.059 85.0256 115.133 82.9896 117.592C81.9772 118.815 81.7901 119.89 81.7944 121.477C81.8022 124.318 83.0636 126.51 85.6741 127.632C88.2611 128.745 90.9451 128.428 92.7559 126.272ZM78.1912 119.282C76.0528 117.368 69.2916 119.315 71.1778 121.477C72.0075 122.428 72.864 122.613 74.1037 122.851C76.2389 123.262 79.6473 123.649 79.4998 121.48C79.4319 120.483 78.9356 119.948 78.1912 119.282ZM56.969 147.689C56.9298 149.23 48.2219 157.943 48.7276 159.438C49.2655 161.029 51.3234 158.728 52.6739 157.73C54.553 156.341 63.5202 147.27 63.9487 145.381C64.4384 143.223 61.452 141.601 59.3039 142.134C57.0196 142.701 57.029 145.337 56.969 147.689ZM96.008 108.612C96.4428 106.795 98.463 106.943 100.252 106.406C102.367 105.771 103.985 104.905 105.892 106.016C106.871 106.587 107.46 107.083 107.872 108.139C108.276 109.175 108.352 109.983 107.872 110.987C107.017 112.772 104.938 112.267 102.958 112.234V112.234C100.706 112.197 98.1026 112.181 96.4146 110.69C96.224 110.522 96.0801 110.322 96.008 110.085C95.841 109.534 95.8741 109.171 96.008 108.612ZM91.7211 94.8803C93.1445 93.9618 93.7023 92.9979 95.2959 92.4232C97.4306 91.6534 99.5446 90.7776 101.107 92.4232C101.996 93.3605 102.311 94.2634 102.19 95.5499C102.177 95.6828 102.15 95.8175 102.11 95.9526C101.473 98.1297 99.1995 99.4027 97.0761 100.201V100.201C94.8355 101.043 93.1717 102.336 91.0375 101.253C90.0958 100.774 89.6661 100.281 89.0357 99.4341C88.4485 98.6449 87.884 98.1593 87.9189 97.1763C87.9804 95.443 90.2637 95.8208 91.7211 94.8803ZM90.3978 80.5719C91.2108 78.8945 93.6516 79.3456 94.8029 78.7324C95.9542 78.1193 97.2093 77.9308 98.3286 78.7324C99.4282 79.52 99.7134 80.6641 99.4843 81.997C99.1781 83.778 97.6925 84.6256 95.9126 84.9401C93.2069 85.4181 89.1996 83.044 90.3978 80.5719ZM72.2891 23.2511C71.693 20.8739 76.1557 22.8524 78.268 21.3408C80.3803 19.8292 83.6229 19.6267 87.0538 21.3408C88.2251 21.926 88.975 22.4978 89.4546 22.997C90.2138 23.7872 89.4898 24.7193 88.396 24.6533V24.6533C85.8297 24.4983 84.6072 22.6116 82.0519 22.8951C80.034 23.1191 79.3093 24.8746 77.2808 24.9602C75.2221 25.047 72.7901 25.2494 72.2891 23.2511ZM54.0346 45.0763C53.161 44.8101 52.0365 44.8771 51.0425 45.0386C49.4307 45.3005 46.9343 45.3787 46.7864 47.0049V47.0049C46.678 48.197 48.6484 47.3354 49.7394 47.8284C51.7524 48.738 52.0689 50.5008 54.0346 51.5087C55.5496 52.2855 56.8655 53.818 58.2076 52.7706C59.5023 51.7602 58.8129 50.0922 58.2076 48.5657C57.4247 46.5911 56.0668 45.6956 54.0346 45.0763Z" stroke="#C77575" shape-rendering="crispEdges"/>
</g>
<g filter="url(#filter2_d_3677_8)">
<path fill-rule="evenodd" clip-rule="evenodd" d="M161.684 138.447C155.971 130.5 147.878 124.309 137.405 119.874C144.641 115.623 150.068 110.079 153.686 103.241C157.494 96.4035 159.399 88.5492 159.399 79.6785C159.399 68.0357 156.733 57.779 151.401 48.9083C146.26 40.0376 138.929 33.1998 129.408 28.3948C119.887 23.405 108.652 20.9102 95.704 20.9102H82.5724L76.5956 23.4882L81.3085 28.3948L86.0641 29.8779L91.0769 41.1526L88.5205 48.4624C102.802 48.4624 111.889 50.7564 118.554 56.1157C125.219 61.2903 128.551 69.1446 128.551 79.6785C128.551 89.6581 125.219 96.9579 118.554 101.578C112.08 106.013 87.8636 108.231 73.011 108.231L73.5823 116.409V125.903V135.398H95.9896C111.033 135.398 121.982 137.892 128.837 142.882C135.882 147.872 139.405 155.726 139.405 166.445C139.405 177.533 135.596 186.219 127.98 192.503C120.363 198.601 109.509 201.651 95.4184 201.651H73.8536L66.2988 202.502L69.7406 209.755V218.302L67.9983 228.817H95.4184C118.649 228.817 136.929 223.273 150.258 212.185C163.588 200.911 170.252 185.665 170.252 166.445C170.252 155.541 167.396 146.209 161.684 138.447Z" fill="#D87F7F"/>
<path fill-rule="evenodd" clip-rule="evenodd" d="M161.684 138.447C155.971 130.5 147.878 124.309 137.405 119.874C144.641 115.623 150.068 110.079 153.686 103.241C157.494 96.4035 159.399 88.5492 159.399 79.6785C159.399 68.0357 156.733 57.779 151.401 48.9083C146.26 40.0376 138.929 33.1998 129.408 28.3948C119.887 23.405 108.652 20.9102 95.704 20.9102H82.5724L76.5956 23.4882L81.3085 28.3948L86.0641 29.8779L91.0769 41.1526L88.5205 48.4624C102.802 48.4624 111.889 50.7564 118.554 56.1157C125.219 61.2903 128.551 69.1446 128.551 79.6785C128.551 89.6581 125.219 96.9579 118.554 101.578C112.08 106.013 87.8636 108.231 73.011 108.231L73.5823 116.409V125.903V135.398H95.9896C111.033 135.398 121.982 137.892 128.837 142.882C135.882 147.872 139.405 155.726 139.405 166.445C139.405 177.533 135.596 186.219 127.98 192.503C120.363 198.601 109.509 201.651 95.4184 201.651H73.8536L66.2988 202.502L69.7406 209.755V218.302L67.9983 228.817H95.4184C118.649 228.817 136.929 223.273 150.258 212.185C163.588 200.911 170.252 185.665 170.252 166.445C170.252 155.541 167.396 146.209 161.684 138.447Z" stroke="#F4D1D1"/>
</g>
<g filter="url(#filter3_d_3677_8)">
<path d="M48.905 163.051C46.1205 166.618 44.9363 169.467 43.8044 174.455C43.3794 176.328 43.1758 178.787 43.0795 180.871C42.978 183.068 44.3257 184.538 46.0302 184.201C47.434 183.923 47.9045 182.64 48.0529 181.146C48.399 177.663 49.171 171.314 50.5156 167.098C50.6482 166.682 50.7993 166.246 50.9628 165.801C51.7298 163.714 50.1508 161.455 48.905 163.051Z" fill="#D87F7F"/>
<path d="M48.8022 45.0684C47.9286 44.8022 46.8041 44.8693 45.81 45.0308C44.1983 45.2926 41.7019 45.3709 41.554 46.9971V46.9971C41.4456 48.1891 43.416 47.3276 44.507 47.8206C46.52 48.7302 46.8365 50.493 48.8022 51.5009C50.3171 52.2777 51.6331 53.8102 52.9752 52.7628C54.2699 51.7523 53.5805 50.0844 52.9752 48.5579C52.1923 46.5832 50.8344 45.6877 48.8022 45.0684Z" fill="#D87F7F"/>
<path d="M67.0566 23.2433C66.4606 20.8661 70.9233 22.8446 73.0356 21.333C75.1479 19.8214 78.3905 19.6189 81.8213 21.333C82.9927 21.9182 83.7426 22.49 84.2222 22.9892C84.9813 23.7794 84.2573 24.7115 83.1636 24.6454V24.6454C80.5973 24.4905 79.3747 22.6037 76.8195 22.8873C74.8016 23.1112 74.0769 24.8668 72.0484 24.9523C69.9897 25.0392 67.5577 25.2416 67.0566 23.2433Z" fill="#D87F7F"/>
<path d="M85.1654 80.564C85.9784 78.8867 88.4191 79.3378 89.5705 78.7246C90.7218 78.1115 91.9768 77.923 93.0962 78.7246C94.1958 79.5122 94.481 80.6563 94.2519 81.9892C93.9457 83.7702 92.4601 84.6178 90.6801 84.9323C87.9744 85.4103 83.9672 83.0362 85.1654 80.564Z" fill="#D87F7F"/>
<path fill-rule="evenodd" clip-rule="evenodd" d="M38.167 174.823C37.9317 180.434 38.4354 187.699 38.9723 189.171C39.5435 190.736 40.3802 187.541 40.5128 185.8C41.2443 176.196 42.0102 169.084 47.0258 161.579C47.5892 160.736 48.3326 159.803 49.0422 158.965L49.0436 158.963C50.5258 157.213 52.0795 155.579 53.6558 153.991C54.6983 152.941 55.9225 151.761 56.9584 150.911C61.7394 146.986 65.0777 145.934 70.6493 145.76C73.4965 145.671 78.2069 144.654 79.7766 147.968C80.3373 149.151 81.5541 150.858 80.3134 151.279C79.1588 151.67 79.2966 149.534 78.2187 148.964C77.9961 148.846 77.8237 148.748 77.629 148.703C77.5554 148.687 77.4812 148.671 77.4067 148.657C75.6557 148.332 74.8815 151.089 75.4814 152.75C76.101 154.466 78.7028 154.59 79.7766 154.59C79.8483 154.59 79.932 154.59 80.0265 154.592L80.027 154.592C81.3474 154.607 84.7622 154.647 86.7562 152.382C88.0996 150.856 88.9202 149.146 89.4407 146.864C90.2943 143.121 88.7148 138.32 86.7562 135.827C86.374 135.341 86.0265 134.896 85.7071 134.487V134.487C85.7069 134.486 85.707 134.486 85.7068 134.486C85.6971 134.477 82.6198 131.629 79.2578 129.631C78.6761 129.285 78.0859 128.965 77.5015 128.689C76.2427 128.095 74.8381 127.947 73.4462 127.947V127.947C73.4462 127.947 68.5235 127.371 65.4573 127.947V127.947C58.7367 129.211 52.6429 133.403 48.4039 138.769C48.1297 139.116 47.8501 139.484 47.5627 139.874C47.0269 140.602 47.7716 141.601 48.3787 140.987C49.6065 139.746 50.934 138.519 52.1263 137.667C54.7156 135.816 56.2897 135.047 59.106 133.988C62.9809 132.531 65.0795 131.645 65.4573 132.148C65.9182 132.762 64.0831 133.196 59.2651 135.268C57.6672 135.955 56.114 136.755 54.8108 137.667C53.2804 138.738 51.5153 140.604 50.1431 142.189C48.5609 144.016 47.0934 146.018 45.7614 148.188C43.9281 151.175 41.382 155.822 40.3146 160.108C38.9495 165.589 38.4124 168.972 38.167 174.823ZM80.3135 145.024C81.6339 146.309 81.5735 149.43 83.2664 148.703C84.4332 148.202 84.4761 147.018 84.6477 145.76C84.8919 143.97 84.2618 142.853 83.2664 141.346C82.6843 140.464 81.6615 139.709 80.6317 139.117C78.5976 137.948 76.2115 137.667 73.8651 137.667V137.667C71.2058 137.667 68.2395 137.813 66.4751 139.802C66.1556 140.163 65.9141 140.56 65.8172 140.987C65.0989 144.156 71.0417 140.004 74.1391 140.987C76.885 141.859 78.2487 143.016 80.3135 145.024ZM43.4952 159.43C42.9895 157.935 51.6973 149.222 51.7366 147.681C51.7965 145.329 51.7872 142.693 54.0714 142.126C56.2196 141.593 59.2059 143.215 58.7163 145.373C58.2878 147.262 49.3206 156.333 47.4415 157.722C46.091 158.72 44.0331 161.021 43.4952 159.43Z" fill="#D87F7F"/>
<path d="M83.2664 148.703C81.5735 149.43 81.6339 146.309 80.3135 145.024C78.2487 143.016 76.885 141.859 74.1391 140.987C71.0417 140.004 65.0989 144.156 65.8172 140.987C65.9141 140.56 66.1556 140.163 66.4751 139.802C68.2395 137.813 71.2058 137.667 73.8651 137.667V137.667C76.2115 137.667 78.5976 137.948 80.6317 139.117C81.6615 139.709 82.6843 140.464 83.2664 141.346C84.2618 142.853 84.8919 143.97 84.6477 145.76C84.4761 147.018 84.4332 148.202 83.2664 148.703Z" fill="#D87F7F"/>
<path fill-rule="evenodd" clip-rule="evenodd" d="M88.3352 120.193C88.5618 121.178 89.0618 124.432 87.5235 126.264C85.7127 128.42 83.0287 128.737 80.4416 127.624C77.8312 126.502 76.5697 124.311 76.562 121.469C76.5577 119.882 76.7448 118.807 77.7572 117.584C79.7932 115.125 83.1325 116.051 85.9333 117.584C87.7562 118.582 88.1086 119.208 88.3352 120.193ZM65.9454 121.469C64.0592 119.307 70.8204 117.36 72.9587 119.274C73.7031 119.94 74.1995 120.475 74.2673 121.472C74.4149 123.641 71.0065 123.254 68.8713 122.843C67.6316 122.605 66.7751 122.421 65.9454 121.469ZM95.0198 106.398C93.2306 106.935 91.2103 106.788 90.7756 108.604C90.6417 109.163 90.6086 109.526 90.7756 110.077C90.8477 110.314 90.9916 110.514 91.1821 110.683C92.8701 112.174 95.4739 112.189 97.7258 112.226V112.226C99.7052 112.26 101.785 112.765 102.639 110.979C103.12 109.976 103.043 109.167 102.639 108.131C102.228 107.075 101.639 106.579 100.66 106.009C98.7521 104.897 97.1344 105.764 95.0198 106.398Z" fill="#D87F7F"/>
<path d="M72.9587 119.274C70.8204 117.36 64.0592 119.307 65.9454 121.469C66.7751 122.421 67.6316 122.605 68.8713 122.843C71.0065 123.254 74.4149 123.641 74.2673 121.472C74.1995 120.475 73.7031 119.94 72.9587 119.274Z" fill="#D87F7F"/>
<path d="M87.5235 126.264C89.0618 124.432 88.5618 121.178 88.3352 120.193C88.1086 119.208 87.7562 118.582 85.9333 117.584C83.1325 116.051 79.7932 115.125 77.7572 117.584C76.7448 118.807 76.5577 119.882 76.562 121.469C76.5697 124.311 77.8312 126.502 80.4416 127.624C83.0287 128.737 85.7127 128.42 87.5235 126.264Z" fill="#D87F7F"/>
<path d="M90.7756 108.604C91.2103 106.788 93.2306 106.935 95.0198 106.398C97.1344 105.764 98.7521 104.897 100.66 106.009C101.639 106.579 102.228 107.075 102.639 108.131C103.043 109.167 103.12 109.976 102.639 110.979C101.785 112.765 99.7052 112.26 97.7258 112.226V112.226C95.4739 112.189 92.8701 112.174 91.1821 110.683C90.9916 110.514 90.8477 110.314 90.7756 110.077C90.6086 109.526 90.6417 109.163 90.7756 108.604Z" fill="#D87F7F"/>
<path fill-rule="evenodd" clip-rule="evenodd" d="M89.5705 78.7246C88.4191 79.3378 85.9784 78.8867 85.1654 80.564C83.9672 83.0362 87.9744 85.4103 90.6801 84.9323C92.4601 84.6178 93.9457 83.7702 94.2519 81.9892C94.481 80.6563 94.1958 79.5122 93.0962 78.7246C91.9768 77.923 90.7218 78.1115 89.5705 78.7246ZM73.0356 21.333C70.9233 22.8446 66.4606 20.8661 67.0566 23.2433C67.5577 25.2416 69.9897 25.0392 72.0484 24.9523C74.0769 24.8668 74.8016 23.1112 76.8195 22.8873C79.3747 22.6037 80.5973 24.4905 83.1636 24.6454V24.6454C84.2573 24.7115 84.9813 23.7794 84.2222 22.9892C83.7426 22.49 82.9927 21.9182 81.8213 21.333C78.3905 19.6189 75.1479 19.8214 73.0356 21.333ZM48.8022 45.0684C47.9286 44.8022 46.8041 44.8693 45.81 45.0308C44.1983 45.2926 41.7019 45.3709 41.554 46.9971V46.9971C41.4456 48.1891 43.416 47.3276 44.507 47.8206C46.52 48.7302 46.8365 50.493 48.8022 51.5009C50.3171 52.2777 51.6331 53.8102 52.9752 52.7628C54.2699 51.7523 53.5805 50.0844 52.9752 48.5579C52.1923 46.5832 50.8344 45.6877 48.8022 45.0684ZM30.5476 139.426C31.1561 134.221 32.0049 131.406 33.5005 126.55C34.4528 123.458 35.9241 120.014 37.445 116.825L37.45 116.815L37.4729 116.766C41.1637 109.041 45.6724 102.077 50.8583 96.1809C50.8605 96.1785 50.8627 96.176 50.8649 96.1735L50.8894 96.1456C52.7579 94.0238 54.7526 91.9677 56.5871 90.497C58.966 88.5899 64.8454 85.2688 65.8752 84.6916C65.98 84.6328 66.2407 84.4906 66.136 84.5496V84.5496L66.1354 84.5499C66.0934 84.5736 66.0483 84.599 66.0277 84.6109C66.0224 84.614 66.0187 84.6162 66.0172 84.6172V84.6172C66.0158 84.6181 66.0194 84.6165 66.0209 84.6157C66.0211 84.6156 66.0212 84.6156 66.0213 84.6155C66.0273 84.6124 66.0331 84.6088 66.0386 84.6048V84.6048C65.187 85.2412 63.8736 86.4804 62.5157 87.7616L62.5155 87.7618C62.5151 87.7621 62.5148 87.7624 62.5144 87.7627C61.4883 88.7309 60.4369 89.723 59.5401 90.497L59.2617 90.7661C54.0864 95.77 49.3136 101.174 44.9879 106.928V106.928C44.6209 107.468 44.2706 107.977 43.9351 108.464C43.9336 108.466 43.9321 108.469 43.9306 108.471L43.9303 108.471C42.1163 111.105 40.7364 113.109 39.5109 115.989L39.5107 115.99C38.9938 117.205 38.4436 118.498 37.7957 119.928C37.4357 120.722 37.1198 121.398 36.8266 122.026C36.2159 123.333 35.7031 124.788 35.0973 126.508V126.508C34.5744 127.993 34.0977 129.489 33.6688 131.003C32.4819 135.193 30.0864 143.37 30.5476 139.426Z" fill="#D87F7F"/>
<path fill-rule="evenodd" clip-rule="evenodd" d="M51.5269 189.214C53.9195 187.259 55.4592 186.167 58.2381 185.903C58.4406 185.884 58.6409 185.863 58.8388 185.843L58.8391 185.843C61.4682 185.577 63.6918 185.352 65.4862 188.11C66.6783 189.943 66.946 191.55 67.0969 193.996C67.2218 196.021 66.9748 197.212 66.56 199.147C66.1718 200.957 65.2813 202.797 64.3349 204.374V204.374C61.8581 208.499 58.5903 200.276 54.3916 197.925C54.1947 197.815 53.9974 197.73 53.8013 197.675C51.7832 197.111 50.3705 197.862 48.7007 199.515C46.9079 201.289 46.0911 203.143 45.7478 206.137C45.367 209.458 46.2764 211.526 47.5238 214.363L47.5272 214.371V214.371C47.5937 214.522 47.6623 214.67 47.7374 214.817C48.168 215.661 49.7368 218.635 50.2898 218.277C51.4434 217.531 48.8721 215.69 48.4016 211.287C48.2734 210.087 48.108 209.725 48.037 208.712C47.9667 207.709 48.037 207.193 48.037 206.137C48.037 204.62 49.3228 201.986 50.8655 200.986C51.9249 200.299 52.7192 200.199 54.0697 200.986C55.6828 201.927 56.8021 205.264 57.3388 207.231C57.6061 208.211 58.3561 209.407 57.7012 210.183V210.183V210.183C56.9169 211.113 55.5201 209.704 54.4198 209.185C53.6678 208.831 52.8212 208.66 52.3322 209.301C50.7723 211.346 52.5596 215.12 53.8013 217.54C54.3684 218.645 55.7751 220.221 56.6619 221.161C57.1656 221.695 57.7673 222.123 58.424 222.45L61.1043 223.788C61.5712 224.021 62.1252 223.998 62.5705 223.726V223.726C62.929 223.507 63.1936 223.144 63.1476 222.727C63.0813 222.126 62.7673 221.269 61.5863 220.852C61.2228 220.724 60.9084 220.671 60.6088 220.621C60.1371 220.542 59.7021 220.47 59.1702 220.116C58.818 219.882 58.4733 219.58 58.1546 219.259C56.8996 217.993 55.4941 216.319 55.9563 214.598V214.598V214.598C56.3693 213.06 58.1094 211.67 59.6173 212.181C60.205 212.381 60.754 212.843 61.1555 213.527C62.1704 215.255 63.5566 217.283 64.9493 218.277C67.138 219.839 67.7436 219.62 69.1121 219.176C70.8843 218.602 67.7169 217.34 66.2915 214.598C66.1868 214.397 66.0867 214.21 65.9913 214.033C65.5162 213.148 65.1596 212.485 64.9493 211.287C64.4911 208.678 65.044 206.734 66.2915 204.665C67.1067 203.313 67.7729 202.688 68.976 202.09C70.553 201.307 71.9478 200.678 73.2712 202.09C73.9118 202.774 74.2827 204.243 74.4664 205.211C74.566 205.735 74.3278 206.249 73.9477 206.397C73.3893 206.616 73.1873 207.568 73.5601 208.178C74.2987 209.387 75.3549 211.224 75.9557 212.759C76.1519 213.26 76.2461 213.731 76.3359 214.181C76.4695 214.85 76.5935 215.471 77.0295 216.07C77.7329 217.036 78.5169 217.016 79.382 216.993C79.9098 216.979 80.4679 216.965 81.0562 217.173C81.5717 217.356 82.1574 217.599 82.7388 217.857C84.4863 218.632 85.3299 221.294 84.6477 223.631C84.4064 224.458 83.9919 225.168 83.4564 225.673L81.3791 227.63C80.5323 228.428 79.4195 228.455 78.5525 227.699C78.0332 227.246 77.4275 227.075 76.8445 227.18C75.8917 227.35 75.404 228.387 74.6135 228.946V228.946C74.5096 229.019 74.3903 229.085 74.2625 229.145C73.1975 229.643 71.9996 229.789 70.8843 230.16V230.16C66.7021 231.554 62.4334 232.976 58.2381 231.889C56.2252 231.367 55.0207 230.616 53.3728 229.589C53.0466 229.385 52.7029 229.171 52.3322 228.946C51.9721 228.727 51.6451 228.54 51.3378 228.364C50.3653 227.808 49.5887 227.363 48.5739 226.37C48.1329 225.939 47.7169 225.569 47.325 225.221C45.9983 224.041 44.9479 223.108 44.1371 220.852C43.9817 220.42 43.7801 219.998 43.5774 219.574C43.2637 218.917 42.9473 218.255 42.7949 217.54C41.8552 213.126 42.0929 209.706 42.7949 205.211C43.2943 202.012 43.9686 200.328 45.0433 197.645L45.0448 197.641C45.1354 197.415 45.2288 197.181 45.3253 196.939C45.7423 195.893 46.3616 195.109 46.9894 194.315C47.3479 193.861 47.7091 193.404 48.037 192.893C49.1517 191.154 50.0186 190.446 51.4486 189.278L51.5269 189.214Z" fill="#D87F7F"/>
<path d="M51.7366 147.681C51.6973 149.222 42.9895 157.935 43.4952 159.43C44.0331 161.021 46.091 158.72 47.4415 157.722C49.3206 156.333 58.2878 147.262 58.7163 145.373C59.2059 143.215 56.2196 141.593 54.0714 142.126C51.7872 142.693 51.7965 145.329 51.7366 147.681Z" fill="#D87F7F"/>
<path fill-rule="evenodd" clip-rule="evenodd" d="M93.6426 102.935C95.1932 104.139 96.9642 104.584 98.4356 104.486C102.908 104.187 107.224 102.706 107.823 106.398C107.925 107.024 107.889 107.55 107.772 108.051C107.45 109.432 106.428 110.534 105.307 111.401V111.401C105.156 111.519 105.01 111.64 104.865 111.764C104.208 112.324 102.172 113.983 100.503 114.541C97.3352 115.599 91.9795 113.86 91.9719 113.857C91.9716 113.857 91.9718 113.857 91.9715 113.857V113.857C90.8572 113.59 89.5802 113.285 87.9582 113.02C86.4644 112.776 85.4629 112.473 84.6477 112.226C83.2796 111.812 82.4364 111.557 80.6714 112.008C79.4633 112.317 78.2207 113.2 78.2941 114.445V114.445C78.4238 116.648 81.0202 114.325 83.9315 114.859C87.0314 115.428 90.8029 116.505 92.1192 119.274C93.4355 122.043 93.4418 123.209 92.5218 126.264L92.4957 126.351L92.4745 126.421L92.4497 126.504L92.4468 126.513L92.4466 126.514V126.514C91.4923 129.69 87.0378 129.412 83.7229 129.505L79.2578 129.631C78.6761 129.285 78.0859 128.965 77.5015 128.689C76.2427 128.095 74.8381 127.947 73.4462 127.947V127.947V127.947C70.3654 125.464 66.3744 124.178 62.4188 124.271C61.843 124.284 61.2681 124.331 60.7167 124.424C59.9562 124.553 59.0933 124.774 58.2455 125.026C55.4037 125.869 52.9402 127.613 50.8773 129.742L50.734 129.89C49.7817 130.872 48.9357 131.953 48.2101 133.113V133.113C47.8642 133.666 47.4901 134.201 47.1015 134.725C45.7856 136.499 42.5975 140.962 40.9797 144.658C38.097 151.243 37.5377 155.831 36.6845 163.42C36.1727 167.973 36.1882 168.431 36.0194 170.887C35.9595 171.758 35.5441 173.231 34.5279 171.97C34.4614 171.887 34.4022 171.787 34.3495 171.672C32.5835 167.817 34.0977 163.223 34.5279 159.004V159.004C35.1863 152.548 36.6549 148.867 38.2952 142.819C38.9331 140.466 39.9838 137.86 41.0787 135.469C41.6995 134.114 42.3345 132.827 42.9164 131.695C44.4181 128.773 46.197 126.003 48.2386 123.429V123.429C50.677 120.356 54.2278 116.26 57.355 114.124C59.0815 112.944 61.0535 111.694 62.8911 110.566C67.1279 107.965 71.4025 105.182 76.2487 104.073V104.073C76.4818 104.019 76.7275 103.971 76.9817 103.926C81.123 103.201 85.3866 103.025 89.5689 103.455V103.455C92.6454 103.771 93.6426 102.935 93.6426 102.935ZM87.5235 126.264C89.0618 124.432 88.5618 121.178 88.3352 120.193C88.1086 119.208 87.7562 118.582 85.9333 117.584C83.1325 116.051 79.7932 115.125 77.7572 117.584C76.7448 118.807 76.5577 119.882 76.562 121.469C76.5697 124.311 77.8312 126.502 80.4416 127.624C83.0287 128.737 85.7127 128.42 87.5235 126.264ZM72.9587 119.274C70.8204 117.36 64.0592 119.307 65.9454 121.469C66.7751 122.421 67.6316 122.605 68.8713 122.843C71.0065 123.254 74.4149 123.641 74.2673 121.472C74.1995 120.475 73.7031 119.94 72.9587 119.274ZM90.7756 108.604C91.2103 106.788 93.2306 106.935 95.0198 106.398C97.1344 105.764 98.7521 104.897 100.66 106.009C101.639 106.579 102.228 107.075 102.639 108.131C103.043 109.167 103.12 109.976 102.639 110.979C101.785 112.765 99.7052 112.26 97.7258 112.226V112.226C95.4739 112.189 92.8701 112.174 91.1821 110.683C90.9916 110.514 90.8477 110.314 90.7756 110.077C90.6086 109.526 90.6417 109.163 90.7756 108.604Z" fill="#D87F7F"/>
<path fill-rule="evenodd" clip-rule="evenodd" d="M90.0635 92.4154C88.4699 92.9901 87.9121 93.954 86.4887 94.8725C85.0312 95.813 82.748 95.4352 82.6865 97.1685C82.6516 98.1515 83.2161 98.637 83.8033 99.4263C84.4337 100.274 84.8634 100.766 85.8051 101.245C87.9393 102.329 89.6031 101.035 91.8437 100.193V100.193C93.967 99.3949 96.2406 98.1219 96.8777 95.9448C96.9173 95.8097 96.9447 95.675 96.9573 95.542C97.0789 94.2556 96.764 93.3527 95.8743 92.4154C94.3122 90.7697 92.1981 91.6456 90.0635 92.4154Z" fill="#D87F7F"/>
<path d="M86.4887 94.8725C87.9121 93.954 88.4699 92.9901 90.0635 92.4154C92.1981 91.6456 94.3122 90.7697 95.8743 92.4154C96.764 93.3527 97.0789 94.2556 96.9573 95.542C96.9447 95.675 96.9173 95.8097 96.8777 95.9448C96.2406 98.1219 93.967 99.3949 91.8437 100.193V100.193C89.6031 101.035 87.9393 102.329 85.8051 101.245C84.8634 100.766 84.4337 100.274 83.8033 99.4263C83.2161 98.637 82.6516 98.1515 82.6865 97.1685C82.748 95.4352 85.0312 95.813 86.4887 94.8725Z" fill="#D87F7F"/>
<path fill-rule="evenodd" clip-rule="evenodd" d="M80.4416 92.4154C74.7307 94.1088 72.8234 95.879 67.321 100.193C61.954 104.401 58.7735 107.645 56.4932 109.972L56.39 110.077V110.077C51.0265 115.32 44.6661 119.928 41.2418 126.602C40.7108 127.636 40.3092 128.691 40.1244 129.72C39.8028 131.51 38.9001 132.874 39.9301 134.372C40.2815 134.883 41.0787 135.469 41.0787 135.469C41.6995 134.114 42.3345 132.827 42.9164 131.695C44.4181 128.773 46.197 126.003 48.2386 123.429V123.429C50.677 120.356 54.2278 116.26 57.355 114.124C59.0815 112.944 61.0535 111.694 62.8911 110.566C67.1279 107.965 71.4025 105.182 76.2487 104.073V104.073C76.4818 104.019 76.7275 103.971 76.9817 103.926C81.123 103.201 85.3866 103.025 89.5689 103.455V103.455C92.6454 103.771 93.6426 102.935 93.6426 102.935C93.6426 102.935 97.6437 99.617 99.6418 96.4637C100.775 94.6746 100.004 93.2077 99.1049 92.4154C96.0872 89.7569 93.5726 90.0114 90.2102 90.3517L90.2099 90.3518V90.3518C86.9543 91.0395 83.6318 91.4695 80.4416 92.4154V92.4154ZM90.0635 92.4154C88.4699 92.9901 87.9121 93.954 86.4887 94.8725C85.0312 95.813 82.748 95.4352 82.6865 97.1685C82.6516 98.1515 83.2161 98.637 83.8033 99.4263C84.4337 100.274 84.8634 100.766 85.8051 101.245C87.9393 102.329 89.6031 101.035 91.8437 100.193V100.193C93.967 99.3949 96.2406 98.1219 96.8777 95.9448C96.9173 95.8097 96.9447 95.675 96.9573 95.542C97.0789 94.2556 96.764 93.3527 95.8743 92.4154C94.3122 90.7697 92.1981 91.6456 90.0635 92.4154Z" fill="#D87F7F"/>
<path fill-rule="evenodd" clip-rule="evenodd" d="M34.3059 202.334V202.334C35.4709 199.867 33.7514 197.029 32.5504 194.579C32.0901 193.64 31.5794 192.625 31.0701 191.666C29.9459 189.547 27.8198 179.427 27.3569 177.183C27.2996 176.905 27.3958 176.625 27.6065 176.436V176.436C28.0717 176.016 28.8184 176.254 28.9442 176.868C30.0318 182.174 34.1362 200.56 37.6217 194.315C38.3016 193.097 37.2708 193.108 36.8961 192.265C35.9667 190.174 33.5552 182.376 32.6952 175.478C32.3428 172.653 32.2537 170.74 32.1574 168.49L32.1574 168.49C32.1462 168.33 32.1399 168.166 32.1383 167.999C32.0531 165.565 31.9803 162.756 32.1583 159.659C32.5897 152.156 33.2362 147.828 35.3797 140.897C36.2701 138.018 36.4271 137.438 36.7219 134.794C37.0167 132.15 36.3005 132.698 36.7219 131.7C37.1433 130.702 37.4901 129.71 38.7152 126.807C40.8115 121.838 43.2696 114.953 46.4837 110.019C49.4448 105.473 55.0151 99.3938 57.2422 97.0222C57.8775 96.3458 58.5403 95.7015 59.2415 95.0936V95.0936C61.9204 92.7712 69.2237 86.7146 74.8417 84.6108C76.2097 84.0985 77.0589 83.6673 77.7698 83.3063C79.0288 82.667 79.8539 82.2479 82.3582 81.9892C84.8625 81.7304 83.6538 84.4056 82.6267 84.9323C80.7117 85.914 76.3948 86.0197 73.7679 87.186C71.141 88.3522 72.8854 88.8572 72.893 90.0127C72.9171 93.6693 76.0087 87.9352 81.8213 87.186C85.2525 86.7437 87.3305 88.0509 90.6801 87.186C93.0237 86.5809 94.6806 86.8373 96.3176 84.6108C97.6754 82.764 97.7465 82.1601 97.3914 80.564C97.0151 78.873 96.4877 77.7049 94.4384 77.2531C92.5593 76.8388 88.4692 72.0861 92.8277 69.8953C97.1863 67.7045 105.37 58.1739 104.371 63.2733C104.065 64.8362 103.796 65.8006 102.682 66.985C98.9723 70.9273 101.055 68.8542 99.8633 69.8953C98.5746 71.0214 96.6045 70.7836 96.3176 72.4706C95.9368 74.709 100.063 72.6316 102 71.2334C104.042 69.7589 105.572 67.9426 106.25 65.1128C106.686 63.2965 107.183 61.6924 106.25 60.3303C105.704 59.5323 105.197 59.4334 104.371 59.2266C102.887 58.855 102.113 60.4 100.613 60.3303V60.3303C98.1103 60.214 95.5995 60.2072 93.0965 60.308C92.944 60.3141 92.7933 60.3215 92.6457 60.3303C90.3036 60.4693 88.9172 62.5006 87.4588 61.066C85.6797 59.3161 89.4005 57.6786 90.6801 55.5477C91.365 54.4072 92.0216 53.5641 92.6457 52.7628C93.7007 51.408 94.6629 50.1724 95.5122 47.8206C95.6155 47.5347 95.7155 47.2609 95.8118 46.9971C97.0618 43.5747 97.6993 41.8293 96.8545 37.152C95.4819 29.553 92.3062 24.8157 87.1903 21.333C83.8194 19.0382 81.8181 18.0087 78.063 17.6557C73.9626 17.2701 71.3017 17.1836 67.4629 19.1958L67.2936 19.1546L67.2127 19.3265C63.8215 21.0993 61.3219 22.4061 59.5401 26.8528C58.3524 29.8168 58.1043 31.935 58.1978 35.3141C58.2018 35.4582 58.2055 35.6009 58.209 35.7424C58.2121 35.8702 58.2151 35.9969 58.2181 36.1226C58.2911 39.1926 58.3495 41.6526 60.077 43.7753C61.4511 45.4639 62.8403 45.4988 64.5054 45.5407L64.5059 45.5407C64.9744 45.5525 65.4648 45.5649 65.9829 45.6148C67.1039 45.7227 68.0007 45.451 68.8787 45.1849C69.8916 44.878 70.8793 44.5787 72.1572 44.879C72.5879 44.9802 73.0302 45.0249 73.461 45.0683L73.4614 45.0684L73.4616 45.0684L73.4618 45.0684C74.7968 45.2032 76.0218 45.3268 76.4524 47.0863C76.6857 48.0398 77.2853 49.0977 76.4524 49.6615C75.5933 50.2429 75.0473 48.79 74.0363 48.5579C71.9501 48.0787 70.1329 48.1016 68.6673 49.6615C68.0978 50.2677 67.8732 50.6646 67.5936 51.5009C67.1131 52.9376 66.5107 54.3964 67.5936 55.5477C69.0804 57.1286 72.5667 51.174 72.6941 53.3404C72.7479 54.2564 72.2883 54.7546 71.8887 55.5477C70.7521 57.8037 68.7819 57.8425 66.9334 57.8789C65.7742 57.9018 64.663 57.9237 63.8353 58.4908V58.4908C62.7798 59.214 63.852 61.1497 64.8891 61.8989C65.0528 62.0172 65.238 62.1127 65.446 62.1697C66.7882 62.5376 72.8453 59.3437 72.6941 62.1697C72.5764 64.3681 68.6673 64.0091 68.1304 65.4807C67.7554 66.5087 64.827 67.4402 65.9829 68.0559C66.538 68.3516 66.9659 68.1123 67.5935 68.0559C70.141 67.8266 71.153 65.6587 73.7679 65.1128C76.0256 64.6414 78.113 66.6758 79.6737 65.1128C80.2723 64.5134 80.8672 64.15 81.016 63.2733C81.2885 61.6683 79.3497 61.1725 78.063 60.3303C75.8688 58.894 72.7664 61.513 71.8887 59.2266C70.916 56.6926 75.2486 57.1363 77.2577 54.8119C77.696 54.3049 78.1303 53.8491 78.5475 53.4114C80.1188 51.7628 81.4465 50.3697 81.8213 47.4542C82.2072 44.4527 81.9689 42.4823 81.016 39.7286C79.936 36.6078 78.8747 34.4288 76.4524 33.4746C75.0494 32.922 74.0887 33.7085 73.0356 34.5706C72.3085 35.1657 71.5375 35.7969 70.5465 36.0483C69.792 36.2397 69.0821 36.5168 68.3989 36.7835L68.3984 36.7837L68.3982 36.7838C66.5338 37.5115 64.8671 38.1621 63.0299 36.7856C61.8591 35.9084 61.0396 35.2077 60.6139 33.4746C60.174 31.6837 60.5614 30.4006 61.1508 28.6922C61.8478 26.6717 62.211 25.1411 64.1037 24.6455C66.9004 23.9131 62.5586 29.2802 63.2984 32.0031C63.462 32.6053 63.4672 32.986 63.8353 33.4746C65.0219 35.0501 66.8235 32.7985 68.6673 32.0031C69.3981 31.6879 69.9547 31.3169 70.4976 30.955C71.1549 30.5168 71.7921 30.092 72.6941 29.7958C75.3448 28.9254 77.0447 28.8098 79.6737 29.7958C82.5356 30.8692 84.2738 32.1272 86.1165 35.3141C87.7246 38.0951 88.4297 40.2298 88.5326 43.7753C88.6472 47.7251 87.8811 50.2135 86.1165 53.3404C84.6029 56.0225 80.9312 55.6616 81.016 58.4908C81.0475 59.544 81.3631 60.1701 81.8213 61.066C82.0732 61.5584 82.4128 61.8034 82.7408 62.04C83.1354 62.3247 83.513 62.5972 83.7005 63.2733C84.1614 64.9361 83.1348 65.9308 82.0467 66.985C81.6933 67.3274 81.3335 67.676 81.016 68.0559C77.3524 72.439 74.0992 73.2063 69.2042 73.2063V73.2063C60.2737 73.2063 52.5221 81.9341 46.5594 88.5825C44.4396 90.9461 42.3594 93.5123 40.7487 96.0153C40.5788 96.2792 40.4114 96.5389 40.2465 96.7948L40.2463 96.7952C36.6209 102.422 34.1687 106.227 31.8899 113.306C30.2902 118.275 29.7514 121.515 28.9355 126.421L28.9354 126.422L28.9299 126.454L28.9298 126.455C28.8461 126.958 28.7595 127.479 28.6685 128.021C27.1989 136.774 26.8123 136.187 25.938 136.455C24.1927 136.988 24.7808 134.848 26.5209 125.078V125.078C28.5988 113.411 33.2351 102.261 38.6906 91.7406C39.1944 90.7692 39.7043 89.8524 40.2118 89.0254C43.9886 82.8709 47.002 80.6608 51.4866 75.4136C53.4628 73.1014 53.7823 68.3501 56.5871 69.5274C59.5326 70.7638 51.7942 74.8536 53.9026 77.2531C56.3067 79.9891 58.0637 73.5432 60.077 70.2632C61.5935 67.7925 65.4734 65.3481 63.2984 63.2733C62.3362 62.3555 61.366 61.9759 60.077 62.1697C58.4863 62.4089 57.7367 66.4754 56.5871 65.1128V65.1128C55.2918 63.5773 57.3429 61.4493 58.6399 59.9152C59.7006 58.6606 60.9285 57.0525 61.6877 55.5477C62.7542 53.4337 62.7982 53.2783 62.2246 52.1902C62.2154 52.1729 62.2063 52.1556 62.1973 52.1384L62.1865 52.1176L62.1646 52.0757L62.143 52.0342C61.6885 51.1609 61.389 50.5854 60.077 51.5009C58.2085 52.8047 58.5627 53.0137 57.7821 52.9725C57.0988 52.9364 56.6877 53.0818 56.5871 51.5009C56.359 47.9142 55.5362 45.436 53.3658 43.4075C51.2119 41.3944 48.989 42.1976 46.4481 43.1158L46.4476 43.1159L46.4475 43.116C45.8212 43.3423 45.1756 43.5755 44.507 43.7753C39.7885 45.1852 36.8351 46.7137 33.5005 51.5009C33.2753 51.8243 33.0551 52.1346 32.8413 52.436C31.1101 54.8756 29.7893 56.7372 29.4738 60.3303C29.1174 64.3899 29.7106 67.4704 31.8899 70.2632C33.6824 72.5603 30.2055 75.8816 31.8899 78.7246C34.9786 83.938 41.3306 69.4123 41.554 66.5843C41.6761 65.0396 40.5384 64.5636 39.3072 64.0484C39.1329 63.9754 38.9338 63.8698 38.7272 63.7478C37.5146 63.0315 36.6294 61.8963 35.5715 60.9666V60.9666C35.0278 60.4887 34.655 60.1611 34.0374 58.4908C34.0099 58.4164 33.9827 58.3434 33.956 58.2717C33.9378 58.2231 33.9198 58.175 33.902 58.1275L33.9003 58.1229L33.8997 58.1214C33.3077 56.5403 32.9566 55.6025 33.769 54.0762C34.4344 52.826 35.8509 53.5372 36.185 54.444C36.243 54.6013 36.4101 54.6598 36.6467 54.649C39.4438 54.5209 42.0357 52.0238 44.507 53.3404V53.3404C45.5639 53.9034 46.1534 54.4064 46.923 55.5477C48.003 57.1493 48.1634 58.7088 48.3623 60.6426L48.3624 60.6429C48.4121 61.1263 48.4642 61.633 48.5337 62.1697C48.5904 62.6073 48.6357 63.1115 48.6717 63.6191C48.8109 65.5824 48.5291 67.5465 47.9918 69.4399V69.4399C47.286 71.9273 46.1044 74.2473 44.5684 76.3273C41.6005 80.3463 36.5225 87.5186 33.5005 93.4401C33.3415 93.7518 33.1866 94.0547 33.0355 94.35L33.0254 94.3698L33.0237 94.3732C30.8531 98.6176 29.4767 101.309 27.8631 106.316C27.1461 108.541 26.4678 111.201 25.8539 113.939C23.3287 125.198 21.6436 136.675 21.3038 148.209V148.209V148.209C21.1191 154.477 21.3504 160.755 21.836 167.007C21.9089 167.945 21.9881 168.842 22.0729 169.635V169.635C22.9489 177.83 25.6954 185.693 28.4836 193.449C28.6377 193.877 28.7888 194.296 28.9354 194.701C30.335 198.563 30.8427 206.223 33.5005 203.438C33.8689 203.052 34.0643 202.846 34.3059 202.334ZM30.5476 139.426C31.1561 134.221 32.0049 131.406 33.5005 126.55C34.4528 123.458 35.9241 120.014 37.445 116.825L37.45 116.815L37.4729 116.766C41.1637 109.041 45.6724 102.077 50.8583 96.1809C50.8605 96.1785 50.8627 96.176 50.8649 96.1735L50.8894 96.1456C52.7579 94.0238 54.7526 91.9677 56.5871 90.497C58.966 88.5899 64.8454 85.2688 65.8752 84.6916C65.98 84.6328 66.2407 84.4906 66.136 84.5496V84.5496L66.1354 84.5499C66.0934 84.5736 66.0483 84.599 66.0277 84.6109C66.0224 84.614 66.0187 84.6162 66.0172 84.6172V84.6172C66.0158 84.6181 66.0194 84.6165 66.0209 84.6157C66.0211 84.6156 66.0212 84.6156 66.0213 84.6155C66.0273 84.6124 66.0331 84.6088 66.0386 84.6048V84.6048C65.187 85.2412 63.8736 86.4804 62.5157 87.7616L62.5155 87.7618L62.5144 87.7627C61.4883 88.7309 60.4369 89.723 59.5401 90.497L59.2617 90.7661C54.0864 95.77 49.3136 101.174 44.9879 106.928V106.928C44.6209 107.468 44.2706 107.977 43.9351 108.464L43.9306 108.471L43.9303 108.471C42.1163 111.105 40.7364 113.109 39.5109 115.989L39.5107 115.99C38.9938 117.205 38.4436 118.498 37.7957 119.928C37.4357 120.722 37.1198 121.398 36.8266 122.026C36.2159 123.333 35.7031 124.788 35.0973 126.508V126.508C34.5744 127.993 34.0977 129.489 33.6688 131.003C32.4819 135.193 30.0864 143.37 30.5476 139.426ZM89.5705 78.7246C88.4191 79.3378 85.9784 78.8867 85.1654 80.564C83.9672 83.0362 87.9744 85.4103 90.6801 84.9323C92.4601 84.6178 93.9457 83.7702 94.2519 81.9892C94.481 80.6563 94.1958 79.5122 93.0962 78.7246C91.9768 77.923 90.7218 78.1115 89.5705 78.7246ZM73.0356 21.333C70.9233 22.8446 66.4606 20.8661 67.0566 23.2433C67.5577 25.2416 69.9897 25.0392 72.0484 24.9523C74.0769 24.8668 74.8016 23.1112 76.8195 22.8873C79.3747 22.6037 80.5973 24.4905 83.1636 24.6454V24.6454C84.2573 24.7115 84.9813 23.7794 84.2222 22.9892C83.7426 22.49 82.9927 21.9182 81.8213 21.333C78.3905 19.6189 75.1479 19.8214 73.0356 21.333ZM48.8022 45.0684C47.9286 44.8022 46.8041 44.8693 45.81 45.0308C44.1983 45.2926 41.7019 45.3709 41.554 46.9971V46.9971C41.4456 48.1891 43.416 47.3276 44.507 47.8206C46.52 48.7302 46.8365 50.493 48.8022 51.5009C50.3171 52.2777 51.6331 53.8102 52.9752 52.7628C54.2699 51.7523 53.5805 50.0844 52.9752 48.5579C52.1923 46.5832 50.8344 45.6877 48.8022 45.0684Z" fill="#D87F7F"/>
<path d="M67.4629 19.1958C71.3017 17.1836 73.9626 17.2701 78.063 17.6557C81.8181 18.0087 83.8194 19.0382 87.1903 21.333C92.3062 24.8157 95.4819 29.553 96.8545 37.152C97.6993 41.8293 97.0618 43.5747 95.8118 46.9971C95.7155 47.2609 95.6155 47.5347 95.5122 47.8206C94.6629 50.1724 93.7007 51.408 92.6457 52.7628C92.0216 53.5641 91.365 54.4072 90.6801 55.5477C89.4005 57.6786 85.6797 59.3161 87.4588 61.066C88.9172 62.5006 90.3036 60.4693 92.6457 60.3303C92.7933 60.3215 92.944 60.3141 93.0965 60.308C95.5995 60.2072 98.1103 60.214 100.613 60.3303V60.3303C102.113 60.4 102.887 58.855 104.371 59.2266C105.197 59.4334 105.704 59.5323 106.25 60.3303C107.183 61.6924 106.686 63.2965 106.25 65.1128C105.572 67.9426 104.042 69.7589 102 71.2334C100.063 72.6316 95.9368 74.709 96.3176 72.4706C96.6045 70.7836 98.5746 71.0214 99.8633 69.8953C101.055 68.8542 98.9723 70.9273 102.682 66.985C103.796 65.8006 104.065 64.8362 104.371 63.2733C105.37 58.1739 97.1863 67.7045 92.8277 69.8953C88.4692 72.0861 92.5593 76.8388 94.4384 77.2531C96.4877 77.7049 97.0151 78.873 97.3914 80.564C97.7465 82.1601 97.6754 82.764 96.3176 84.6108C94.6806 86.8373 93.0237 86.5809 90.6801 87.186C87.3305 88.0509 85.2525 86.7437 81.8213 87.186C76.0087 87.9352 72.9171 93.6693 72.893 90.0127C72.8854 88.8572 71.141 88.3522 73.7679 87.186C76.3948 86.0197 80.7117 85.914 82.6267 84.9323C83.6538 84.4056 84.8625 81.7304 82.3582 81.9892C79.8539 82.2479 79.0288 82.667 77.7698 83.3063C77.0589 83.6673 76.2097 84.0985 74.8417 84.6108C69.2237 86.7146 61.9204 92.7712 59.2415 95.0936V95.0936C58.5403 95.7015 57.8775 96.3458 57.2422 97.0222C55.0151 99.3938 49.4448 105.473 46.4837 110.019C43.2696 114.953 40.8115 121.838 38.7152 126.807C37.4901 129.71 37.1433 130.702 36.7219 131.7C36.3005 132.698 37.0167 132.15 36.7219 134.794C36.4271 137.438 36.2701 138.018 35.3797 140.897C33.2362 147.828 32.5897 152.156 32.1583 159.659C31.9803 162.756 32.0531 165.565 32.1383 167.999M67.4629 19.1958L67.2936 19.1546M67.4629 19.1958C67.4151 19.2208 67.3411 19.1298 67.2936 19.1546M67.4629 19.1958C67.4968 19.1781 67.4288 19.2136 67.4629 19.1958ZM67.4629 19.1958C67.5063 19.1731 67.4192 19.2187 67.4629 19.1958ZM93.6426 102.935C93.6426 102.935 97.6437 99.617 99.6418 96.4637C100.775 94.6746 100.004 93.2077 99.1049 92.4154C96.0872 89.7569 93.5726 90.0114 90.2102 90.3517L90.2099 90.3518V90.3518C86.9543 91.0395 83.6318 91.4695 80.4416 92.4154V92.4154C74.7307 94.1088 72.8234 95.879 67.321 100.193C61.954 104.401 58.7735 107.645 56.4932 109.972M93.6426 102.935C95.1932 104.139 96.9642 104.584 98.4356 104.486C102.908 104.187 107.224 102.706 107.823 106.398C107.925 107.024 107.889 107.55 107.772 108.051C107.45 109.432 106.428 110.534 105.307 111.401V111.401C105.156 111.519 105.01 111.64 104.865 111.764C104.208 112.324 102.172 113.983 100.503 114.541C97.3352 115.599 91.9795 113.86 91.9719 113.857C91.9716 113.857 91.9718 113.857 91.9715 113.857V113.857C90.8572 113.59 89.5802 113.285 87.9582 113.02C86.4644 112.776 85.4629 112.473 84.6477 112.226C83.2796 111.812 82.4364 111.557 80.6714 112.008C79.4633 112.317 78.2207 113.2 78.2941 114.445V114.445C78.4238 116.648 81.0202 114.325 83.9315 114.859C87.0314 115.428 90.8029 116.505 92.1192 119.274C93.4355 122.043 93.4418 123.209 92.5218 126.264M93.6426 102.935C93.6426 102.935 92.6454 103.771 89.5689 103.455V103.455C85.3866 103.025 81.123 103.201 76.9817 103.926C76.7275 103.971 76.4818 104.019 76.2487 104.073V104.073C71.4025 105.182 67.1279 107.965 62.8911 110.566C61.0535 111.694 59.0815 112.944 57.355 114.124C54.2278 116.26 50.677 120.356 48.2386 123.429V123.429C46.197 126.003 44.4181 128.773 42.9164 131.695C42.3345 132.827 41.6995 134.114 41.0787 135.469M92.5218 126.264L92.4957 126.351M92.5218 126.264C92.5131 126.293 92.5044 126.322 92.4957 126.351M38.9723 189.171C39.5092 190.642 40.2468 189.335 40.3146 188.435C40.3824 187.535 40.4474 186.658 40.5128 185.8M38.9723 189.171C38.4354 187.699 37.9317 180.434 38.167 174.823C38.4124 168.972 38.9495 165.589 40.3146 160.108C41.382 155.822 43.9281 151.175 45.7614 148.188M38.9723 189.171C39.5435 190.736 40.3802 187.541 40.5128 185.8M51.5269 189.214C53.9195 187.259 55.4592 186.167 58.2381 185.903C58.4406 185.884 58.6409 185.863 58.8388 185.843L58.8391 185.843C61.4682 185.577 63.6918 185.352 65.4862 188.11C66.6783 189.943 66.946 191.55 67.0969 193.996C67.2218 196.021 66.9748 197.212 66.56 199.147C66.1718 200.957 65.2813 202.797 64.3349 204.374V204.374C61.8581 208.499 58.5903 200.276 54.3916 197.925C54.1947 197.815 53.9974 197.73 53.8013 197.675C51.7832 197.111 50.3705 197.862 48.7007 199.515C46.9079 201.289 46.0911 203.143 45.7478 206.137C45.367 209.458 46.2764 211.526 47.5238 214.363M51.5269 189.214L51.4486 189.278M51.5269 189.214C51.5006 189.235 51.4745 189.257 51.4486 189.278M50.8894 96.1456C52.7579 94.0238 54.7526 91.9677 56.5871 90.497C58.966 88.5899 64.8454 85.2688 65.8752 84.6916C65.98 84.6328 66.2407 84.4906 66.136 84.5496V84.5496L66.1354 84.5499C66.0934 84.5736 66.0483 84.599 66.0277 84.6109C66.0224 84.614 66.0187 84.6162 66.0172 84.6172V84.6172C66.0158 84.6181 66.0194 84.6165 66.0209 84.6157C66.0211 84.6156 66.0212 84.6156 66.0213 84.6155C66.0273 84.6124 66.0331 84.6088 66.0386 84.6048V84.6048C65.187 85.2412 63.8736 86.4804 62.5157 87.7616L62.5155 87.7618M50.8894 96.1456C50.8812 96.1549 50.873 96.1642 50.8649 96.1735M50.8894 96.1456L50.8649 96.1735M37.45 116.815C37.4483 116.818 37.4466 116.821 37.445 116.825M37.45 116.815L37.4729 116.766M37.45 116.815L37.445 116.825M37.45 116.815C37.4576 116.799 37.4652 116.783 37.4729 116.766M40.5128 185.8C41.2443 176.196 42.0102 169.084 47.0258 161.579C47.5892 160.736 48.3326 159.803 49.0422 158.965M49.0422 158.965C49.0427 158.964 49.0432 158.964 49.0436 158.963M49.0422 158.965L49.0436 158.963M53.6558 153.991C54.6983 152.941 55.9225 151.761 56.9584 150.911C61.7394 146.986 65.0777 145.934 70.6493 145.76C73.4965 145.671 78.2069 144.654 79.7766 147.968C80.3373 149.151 81.5541 150.858 80.3134 151.279C79.1588 151.67 79.2966 149.534 78.2187 148.964C77.9961 148.846 77.8237 148.748 77.629 148.703C77.5554 148.687 77.4812 148.671 77.4067 148.657C75.6557 148.332 74.8815 151.089 75.4814 152.75C76.101 154.466 78.7028 154.59 79.7766 154.59C79.8483 154.59 79.932 154.59 80.0265 154.592L80.027 154.592C81.3474 154.607 84.7622 154.647 86.7562 152.382C88.0996 150.856 88.9202 149.146 89.4407 146.864C90.2943 143.121 88.7148 138.32 86.7562 135.827C86.374 135.341 86.0265 134.896 85.7071 134.487V134.487C85.7069 134.486 85.707 134.486 85.7068 134.486C85.6971 134.477 82.6198 131.629 79.2578 129.631M53.6558 153.991V153.991C52.0706 155.588 50.498 157.246 49.0436 158.963V158.963M53.6558 153.991C52.0795 155.579 50.5258 157.213 49.0436 158.963M50.1431 142.189C51.5153 140.604 53.2804 138.738 54.8108 137.667C56.114 136.755 57.6672 135.955 59.2651 135.268C64.0831 133.196 65.9182 132.762 65.4573 132.148C65.0795 131.645 62.9809 132.531 59.106 133.988C56.2897 135.047 54.7156 135.816 52.1263 137.667C50.934 138.519 49.6065 139.746 48.3787 140.987C47.7716 141.601 47.0269 140.602 47.5627 139.874C47.8501 139.484 48.1297 139.116 48.4039 138.769C52.6429 133.403 58.7367 129.211 65.4573 127.947V127.947C68.5235 127.371 73.4462 127.947 73.4462 127.947M50.1431 142.189C48.5609 144.016 47.0934 146.018 45.7614 148.188M50.1431 142.189V142.189C48.5463 144.033 47.1053 146.007 45.8255 148.084C45.8043 148.118 45.7829 148.153 45.7614 148.188M51.4486 189.278C50.0186 190.446 49.1517 191.154 48.037 192.893C47.7091 193.404 47.3479 193.861 46.9894 194.315C46.3616 195.109 45.7423 195.893 45.3253 196.939C45.2288 197.181 45.1354 197.415 45.0448 197.641M50.8649 96.1735C50.8627 96.176 50.8605 96.1785 50.8583 96.1809M37.445 116.825C35.9241 120.014 34.4528 123.458 33.5005 126.55C32.0049 131.406 31.1561 134.221 30.5476 139.426C30.0864 143.37 32.4819 135.193 33.6688 131.003C34.0977 129.489 34.5744 127.993 35.0973 126.508V126.508C35.7031 124.788 36.2159 123.333 36.8266 122.026C37.1198 121.398 37.4357 120.722 37.7957 119.928C38.4436 118.498 38.9938 117.205 39.5107 115.99L39.5109 115.989C40.7364 113.109 42.1163 111.105 43.9303 108.471L43.9306 108.471M37.445 116.825C37.4543 116.805 37.4636 116.786 37.4729 116.766M32.1383 167.999C32.1399 168.166 32.1462 168.33 32.1574 168.49L32.1574 168.49M32.1383 167.999C32.1441 168.163 32.1504 168.327 32.1574 168.49M33.0237 94.3732C30.8531 98.6176 29.4767 101.309 27.8631 106.316C27.1461 108.541 26.4678 111.201 25.8539 113.939C23.3287 125.198 21.6436 136.675 21.3038 148.209V148.209V148.209C21.1191 154.477 21.3504 160.755 21.836 167.007C21.9089 167.945 21.9881 168.842 22.0729 169.635V169.635C22.9489 177.83 25.6954 185.693 28.4836 193.449C28.6377 193.877 28.7888 194.296 28.9354 194.701C30.335 198.563 30.8427 206.223 33.5005 203.438C33.8689 203.052 34.0643 202.846 34.3059 202.334V202.334C35.4709 199.867 33.7514 197.029 32.5504 194.579C32.0901 193.64 31.5794 192.625 31.0701 191.666C29.9459 189.547 27.8198 179.427 27.3569 177.183C27.2996 176.905 27.3958 176.625 27.6065 176.436V176.436C28.0717 176.016 28.8184 176.254 28.9442 176.868C30.0318 182.174 34.1362 200.56 37.6217 194.315C38.3016 193.097 37.2708 193.108 36.8961 192.265C35.9667 190.174 33.5552 182.376 32.6952 175.478C32.3428 172.653 32.2537 170.74 32.1574 168.49M33.0237 94.3732L33.0254 94.3698M33.0237 94.3732C33.0243 94.3721 33.0248 94.3709 33.0254 94.3698M33.8997 58.1214C33.3077 56.5403 32.9566 55.6025 33.769 54.0762C34.4344 52.826 35.8509 53.5372 36.185 54.444C36.243 54.6013 36.4101 54.6598 36.6467 54.649C39.4438 54.5209 42.0357 52.0238 44.507 53.3404V53.3404C45.5639 53.9034 46.1534 54.4064 46.923 55.5477C48.003 57.1493 48.1634 58.7088 48.3623 60.6426L48.3624 60.6429C48.4121 61.1263 48.4642 61.633 48.5337 62.1697C48.5904 62.6073 48.6357 63.1115 48.6717 63.6191C48.8109 65.5824 48.5291 67.5465 47.9918 69.4399V69.4399C47.286 71.9273 46.1044 74.2473 44.5684 76.3273C41.6005 80.3463 36.5225 87.5186 33.5005 93.4401C33.3415 93.7518 33.1866 94.0547 33.0355 94.35M33.8997 58.1214L33.9003 58.1229M33.8997 58.1214C33.8999 58.1219 33.9001 58.1224 33.9003 58.1229M33.9003 58.1229L33.902 58.1275M33.9003 58.1229C33.9009 58.1244 33.9014 58.126 33.902 58.1275M33.902 58.1275C33.9198 58.175 33.9378 58.2231 33.956 58.2717C33.9827 58.3434 34.0099 58.4164 34.0374 58.4908C34.655 60.1611 35.0278 60.4887 35.5715 60.9666V60.9666C36.6294 61.8963 37.5146 63.0315 38.7272 63.7478C38.9338 63.8698 39.1329 63.9754 39.3072 64.0484C40.5384 64.5636 41.6761 65.0396 41.554 66.5843C41.3306 69.4123 34.9786 83.938 31.8899 78.7246C30.2055 75.8816 33.6824 72.5603 31.8899 70.2632C29.7106 67.4704 29.1174 64.3899 29.4738 60.3303C29.7893 56.7372 31.1101 54.8756 32.8413 52.436C33.0551 52.1346 33.2753 51.8243 33.5005 51.5009C36.8351 46.7137 39.7885 45.1852 44.507 43.7753C45.1756 43.5755 45.8212 43.3423 46.4475 43.116L46.4476 43.1159L46.4481 43.1158C48.989 42.1976 51.2119 41.3944 53.3658 43.4075C55.5362 45.436 56.359 47.9142 56.5871 51.5009C56.6877 53.0818 57.0988 52.9364 57.7821 52.9725C58.5627 53.0137 58.2085 52.8047 60.077 51.5009C61.389 50.5854 61.6885 51.1609 62.143 52.0342M62.143 52.0342L62.1646 52.0757M62.143 52.0342C62.1501 52.0479 62.1573 52.0618 62.1646 52.0757M62.1646 52.0757L62.1865 52.1176M62.1646 52.0757C62.1718 52.0896 62.1791 52.1036 62.1865 52.1176M62.1973 52.1384C62.2063 52.1556 62.2154 52.1729 62.2246 52.1902C62.7982 53.2783 62.7542 53.4337 61.6877 55.5477C60.9285 57.0525 59.7006 58.6606 58.6399 59.9152C57.3429 61.4493 55.2918 63.5773 56.5871 65.1128V65.1128C57.7367 66.4754 58.4863 62.4089 60.077 62.1697C61.366 61.9759 62.3362 62.3555 63.2984 63.2733C65.4734 65.3481 61.5935 67.7925 60.077 70.2632C58.0637 73.5432 56.3067 79.9891 53.9026 77.2531C51.7942 74.8536 59.5326 70.7638 56.5871 69.5274C53.7823 68.3501 53.4628 73.1014 51.4866 75.4136C47.002 80.6608 43.9886 82.8709 40.2118 89.0254C39.7043 89.8524 39.1944 90.7692 38.6906 91.7406C33.2351 102.261 28.5988 113.411 26.5209 125.078V125.078C24.7808 134.848 24.1927 136.988 25.938 136.455C26.8123 136.187 27.1989 136.774 28.6685 128.021C28.7595 127.479 28.8461 126.958 28.9298 126.455L28.9299 126.454M62.1973 52.1384L62.1865 52.1176M62.1973 52.1384C62.1937 52.1315 62.1901 52.1245 62.1865 52.1176M73.4616 45.0684L73.4618 45.0684C74.7968 45.2032 76.0218 45.3268 76.4524 47.0863C76.6857 48.0398 77.2853 49.0977 76.4524 49.6615C75.5933 50.2429 75.0473 48.79 74.0363 48.5579C71.9501 48.0787 70.1329 48.1016 68.6673 49.6615C68.0978 50.2677 67.8732 50.6646 67.5936 51.5009C67.1131 52.9376 66.5107 54.3964 67.5936 55.5477C69.0804 57.1286 72.5667 51.174 72.6941 53.3404C72.7479 54.2564 72.2883 54.7546 71.8887 55.5477C70.7521 57.8037 68.7819 57.8425 66.9334 57.8789C65.7742 57.9018 64.663 57.9237 63.8353 58.4908V58.4908C62.7798 59.214 63.852 61.1497 64.8891 61.8989C65.0528 62.0172 65.238 62.1127 65.446 62.1697C66.7882 62.5376 72.8453 59.3437 72.6941 62.1697C72.5764 64.3681 68.6673 64.0091 68.1304 65.4807C67.7554 66.5087 64.827 67.4402 65.9829 68.0559C66.538 68.3516 66.9659 68.1123 67.5935 68.0559C70.141 67.8266 71.153 65.6587 73.7679 65.1128C76.0256 64.6414 78.113 66.6758 79.6737 65.1128C80.2723 64.5134 80.8672 64.15 81.016 63.2733C81.2885 61.6683 79.3497 61.1725 78.063 60.3303C75.8688 58.894 72.7664 61.513 71.8887 59.2266C70.916 56.6926 75.2486 57.1363 77.2577 54.8119C77.696 54.3049 78.1303 53.8491 78.5475 53.4114C80.1188 51.7628 81.4465 50.3697 81.8213 47.4542C82.2072 44.4527 81.9689 42.4823 81.016 39.7286C79.936 36.6078 78.8747 34.4288 76.4524 33.4746C75.0494 32.922 74.0887 33.7085 73.0356 34.5706C72.3085 35.1657 71.5375 35.7969 70.5465 36.0483C69.792 36.2397 69.0821 36.5168 68.3989 36.7835L68.3984 36.7837L68.3982 36.7838C66.5338 37.5115 64.8671 38.1621 63.0299 36.7856C61.8591 35.9084 61.0396 35.2077 60.6139 33.4746C60.174 31.6837 60.5614 30.4006 61.1508 28.6922C61.8478 26.6717 62.211 25.1411 64.1037 24.6455C66.9004 23.9131 62.5586 29.2802 63.2984 32.0031C63.462 32.6053 63.4672 32.986 63.8353 33.4746C65.0219 35.0501 66.8235 32.7985 68.6673 32.0031C69.3981 31.6879 69.9547 31.3169 70.4976 30.955C71.1549 30.5168 71.7921 30.092 72.6941 29.7958C75.3448 28.9254 77.0447 28.8098 79.6737 29.7958C82.5356 30.8692 84.2738 32.1272 86.1165 35.3141C87.7246 38.0951 88.4297 40.2298 88.5326 43.7753C88.6472 47.7251 87.8811 50.2135 86.1165 53.3404C84.6029 56.0225 80.9312 55.6616 81.016 58.4908C81.0475 59.544 81.3631 60.1701 81.8213 61.066C82.0732 61.5584 82.4128 61.8034 82.7408 62.04C83.1354 62.3247 83.513 62.5972 83.7005 63.2733C84.1614 64.9361 83.1348 65.9308 82.0467 66.985C81.6933 67.3274 81.3335 67.676 81.016 68.0559C77.3524 72.439 74.0992 73.2063 69.2042 73.2063V73.2063C60.2737 73.2063 52.5221 81.9341 46.5594 88.5825C44.4396 90.9461 42.3594 93.5123 40.7487 96.0153C40.5788 96.2792 40.4114 96.5389 40.2465 96.7948L40.2463 96.7952C36.6209 102.422 34.1687 106.227 31.8899 113.306C30.2902 118.275 29.7514 121.515 28.9355 126.421L28.9354 126.422M73.4616 45.0684L73.4614 45.0684L73.461 45.0683M73.4616 45.0684L73.461 45.0683M67.2127 19.3265C63.8215 21.0993 61.3219 22.4061 59.5401 26.8528C58.3524 29.8168 58.1043 31.935 58.1978 35.3141C58.2018 35.4582 58.2055 35.6009 58.209 35.7424C58.2121 35.8702 58.2151 35.9969 58.2181 36.1226C58.2911 39.1926 58.3495 41.6526 60.077 43.7753C61.4511 45.4639 62.8403 45.4988 64.5054 45.5407L64.5059 45.5407C64.9744 45.5525 65.4648 45.5649 65.9829 45.6148C67.1039 45.7227 68.0007 45.451 68.8787 45.1849C69.8916 44.878 70.8793 44.5787 72.1572 44.879C72.5879 44.9802 73.0302 45.0249 73.461 45.0683M67.2127 19.3265L67.2936 19.1546M67.2127 19.3265C67.4629 19.1956 67.5386 19.0267 67.2936 19.1546M56.39 110.077L56.4932 109.972M56.39 110.077C56.4242 110.042 56.4586 110.007 56.4932 109.972M56.39 110.077V110.077C51.0265 115.32 44.6661 119.928 41.2418 126.602C40.7108 127.636 40.3092 128.691 40.1244 129.72C39.8028 131.51 38.9001 132.874 39.9301 134.372C40.2815 134.883 41.0787 135.469 41.0787 135.469M62.5155 87.7618L62.5144 87.7627M62.5155 87.7618C62.5151 87.7621 62.5148 87.7624 62.5144 87.7627M37.4729 116.766C37.6451 116.406 38.4577 116.497 38.6305 116.144V116.144C41.9959 109.265 45.5488 102.366 50.5349 96.5533C50.6418 96.4287 50.7496 96.3046 50.8583 96.1809M37.4729 116.766C41.1637 109.041 45.6724 102.077 50.8583 96.1809M92.4468 126.513L92.4466 126.514V126.514C91.4923 129.69 87.0378 129.412 83.7229 129.505L79.2578 129.631M92.4468 126.513L92.4497 126.504M92.4468 126.513C92.4478 126.51 92.4488 126.507 92.4497 126.504M28.9354 126.422L28.9299 126.454M28.9354 126.422C28.9336 126.433 28.9317 126.444 28.9299 126.454M92.4497 126.504L92.4745 126.421M92.4497 126.504C92.4579 126.476 92.4662 126.449 92.4745 126.421M33.0254 94.3698L33.0355 94.35M33.0254 94.3698C33.0288 94.3632 33.0322 94.3566 33.0355 94.35M43.9306 108.471L43.9351 108.464M43.9306 108.471C43.9321 108.469 43.9336 108.466 43.9351 108.464M45.0433 197.645C43.9686 200.328 43.2943 202.012 42.7949 205.211C42.0929 209.706 41.8552 213.126 42.7949 217.54C42.9473 218.255 43.2637 218.917 43.5774 219.574C43.7801 219.998 43.9817 220.42 44.1371 220.852C44.9479 223.108 45.9983 224.041 47.325 225.221C47.7169 225.569 48.1329 225.939 48.5739 226.37C49.5887 227.363 50.3653 227.808 51.3378 228.364C51.6451 228.54 51.9721 228.727 52.3322 228.946C52.7029 229.171 53.0466 229.385 53.3728 229.589C55.0207 230.616 56.2252 231.367 58.2381 231.889C62.4334 232.976 66.7021 231.554 70.8843 230.16V230.16C71.9996 229.789 73.1975 229.643 74.2625 229.145C74.3903 229.085 74.5096 229.019 74.6135 228.946V228.946C75.404 228.387 75.8917 227.35 76.8445 227.18C77.4275 227.075 78.0332 227.246 78.5525 227.699C79.4195 228.455 80.5323 228.428 81.3791 227.63L83.4564 225.673C83.9919 225.168 84.4064 224.458 84.6477 223.631C85.3299 221.294 84.4863 218.632 82.7388 217.857C82.1574 217.599 81.5717 217.356 81.0562 217.173C80.4679 216.965 79.9098 216.979 79.382 216.993C78.5169 217.016 77.7329 217.036 77.0295 216.07C76.5935 215.471 76.4695 214.85 76.3359 214.181C76.2461 213.731 76.1519 213.26 75.9557 212.759C75.3549 211.224 74.2987 209.387 73.5601 208.178C73.1873 207.568 73.3893 206.616 73.9477 206.397C74.3278 206.249 74.566 205.735 74.4664 205.211C74.2827 204.243 73.9118 202.774 73.2712 202.09C71.9478 200.678 70.553 201.307 68.976 202.09C67.7729 202.688 67.1067 203.313 66.2915 204.665C65.044 206.734 64.4911 208.678 64.9493 211.287C65.1596 212.485 65.5162 213.148 65.9913 214.033C66.0867 214.21 66.1868 214.397 66.2915 214.598C67.7169 217.34 70.8843 218.602 69.1121 219.176C67.7436 219.62 67.138 219.839 64.9493 218.277C63.5566 217.283 62.1704 215.255 61.1555 213.527C60.754 212.843 60.205 212.381 59.6173 212.181C58.1094 211.67 56.3693 213.06 55.9563 214.598V214.598V214.598C55.4941 216.319 56.8996 217.993 58.1546 219.259C58.4733 219.58 58.818 219.882 59.1702 220.116C59.7021 220.47 60.1371 220.542 60.6088 220.621C60.9084 220.671 61.2228 220.724 61.5863 220.852C62.7673 221.269 63.0813 222.126 63.1476 222.727C63.1936 223.144 62.929 223.507 62.5705 223.726V223.726C62.1252 223.998 61.5712 224.021 61.1043 223.788L58.424 222.45C57.7673 222.123 57.1656 221.695 56.6619 221.161C55.7751 220.221 54.3684 218.645 53.8013 217.54C52.5596 215.12 50.7723 211.346 52.3322 209.301C52.8212 208.66 53.6678 208.831 54.4198 209.185C55.5201 209.704 56.9169 211.113 57.7012 210.183V210.183V210.183C58.3561 209.407 57.6061 208.211 57.3388 207.231C56.8021 205.264 55.6828 201.927 54.0697 200.986C52.7192 200.199 51.9249 200.299 50.8655 200.986C49.3228 201.986 48.037 204.62 48.037 206.137C48.037 207.193 47.9667 207.709 48.037 208.712C48.108 209.725 48.2734 210.087 48.4016 211.287C48.8721 215.69 51.4434 217.531 50.2898 218.277C49.7368 218.635 48.168 215.661 47.7374 214.817C47.6623 214.67 47.5937 214.522 47.5272 214.371V214.371M45.0433 197.645L45.0448 197.641M45.0433 197.645C45.0438 197.643 45.0443 197.642 45.0448 197.641M47.5238 214.363L47.5272 214.371M47.5238 214.363C47.5249 214.366 47.526 214.368 47.5272 214.371M73.4462 127.947V127.947C70.3654 125.464 66.3744 124.178 62.4188 124.271C61.843 124.284 61.2681 124.331 60.7167 124.424C59.9562 124.553 59.0933 124.774 58.2455 125.026C55.4037 125.869 52.9402 127.613 50.8773 129.742L50.734 129.89C49.7817 130.872 48.9357 131.953 48.2101 133.113V133.113C47.8642 133.666 47.4901 134.201 47.1015 134.725C45.7856 136.499 42.5975 140.962 40.9797 144.658C38.097 151.243 37.5377 155.831 36.6845 163.42C36.1727 167.973 36.1882 168.431 36.0194 170.887C35.9595 171.758 35.5441 173.231 34.5279 171.97C34.4614 171.887 34.4022 171.787 34.3495 171.672C32.5835 167.817 34.0977 163.223 34.5279 159.004V159.004C35.1863 152.548 36.6549 148.867 38.2952 142.819C38.9331 140.466 39.9838 137.86 41.0787 135.469M73.4462 127.947V127.947C74.8381 127.947 76.2427 128.095 77.5015 128.689C78.0859 128.965 78.6761 129.285 79.2578 129.631M73.4462 127.947C73.7132 128.162 73.9748 128.367 74.224 128.555C74.5167 128.775 74.8752 128.886 75.2414 128.886V128.886C75.6076 128.886 75.9539 129.05 76.3148 129.112C76.5701 129.156 76.7914 129.098 77.0737 129.127C77.5532 129.177 77.9999 129.408 78.4745 129.492L79.2578 129.631M92.4745 126.421L92.4957 126.351M92.4745 126.421C92.4815 126.398 92.4886 126.374 92.4957 126.351M62.5144 87.7627C61.4883 88.7309 60.4369 89.723 59.5401 90.497L59.2617 90.7661C54.0864 95.77 49.3136 101.174 44.9879 106.928V106.928C44.6209 107.468 44.2706 107.977 43.9351 108.464M50.5156 167.098C49.171 171.314 48.399 177.663 48.0529 181.146C47.9045 182.64 47.434 183.923 46.0302 184.201C44.3257 184.538 42.978 183.068 43.0795 180.871C43.1758 178.787 43.3794 176.328 43.8044 174.455C44.9363 169.467 46.1205 166.618 48.905 163.051C50.1508 161.455 51.7298 163.714 50.9628 165.801C50.7993 166.246 50.6482 166.682 50.5156 167.098ZM83.2664 148.703C81.5735 149.43 81.6339 146.309 80.3135 145.024C78.2487 143.016 76.885 141.859 74.1391 140.987C71.0417 140.004 65.0989 144.156 65.8172 140.987C65.9141 140.56 66.1556 140.163 66.4751 139.802C68.2395 137.813 71.2058 137.667 73.8651 137.667V137.667C76.2115 137.667 78.5976 137.948 80.6317 139.117C81.6615 139.709 82.6843 140.464 83.2664 141.346C84.2618 142.853 84.8919 143.97 84.6477 145.76C84.4761 147.018 84.4332 148.202 83.2664 148.703ZM87.5235 126.264C89.0618 124.432 88.5618 121.178 88.3352 120.193C88.1086 119.208 87.7562 118.582 85.9333 117.584C83.1325 116.051 79.7932 115.125 77.7572 117.584C76.7448 118.807 76.5577 119.882 76.562 121.469C76.5697 124.311 77.8312 126.502 80.4416 127.624C83.0287 128.737 85.7127 128.42 87.5235 126.264ZM72.9587 119.274C70.8204 117.36 64.0592 119.307 65.9454 121.469C66.7751 122.421 67.6316 122.605 68.8713 122.843C71.0065 123.254 74.4149 123.641 74.2673 121.472C74.1995 120.475 73.7031 119.94 72.9587 119.274ZM51.7366 147.681C51.6973 149.222 42.9895 157.935 43.4952 159.43C44.0331 161.021 46.091 158.72 47.4415 157.722C49.3206 156.333 58.2878 147.262 58.7163 145.373C59.2059 143.215 56.2196 141.593 54.0714 142.126C51.7872 142.693 51.7965 145.329 51.7366 147.681ZM90.7756 108.604C91.2103 106.788 93.2306 106.935 95.0198 106.398C97.1344 105.764 98.7521 104.897 100.66 106.009C101.639 106.579 102.228 107.075 102.639 108.131C103.043 109.167 103.12 109.976 102.639 110.979C101.785 112.765 99.7052 112.26 97.7258 112.226V112.226C95.4739 112.189 92.8701 112.174 91.1821 110.683C90.9916 110.514 90.8477 110.314 90.7756 110.077C90.6086 109.526 90.6417 109.163 90.7756 108.604ZM86.4887 94.8725C87.9121 93.954 88.4699 92.9901 90.0635 92.4154C92.1981 91.6456 94.3122 90.7697 95.8743 92.4154C96.764 93.3527 97.0789 94.2556 96.9573 95.542C96.9447 95.675 96.9173 95.8097 96.8777 95.9448C96.2406 98.1219 93.967 99.3949 91.8437 100.193V100.193C89.6031 101.035 87.9393 102.329 85.8051 101.245C84.8634 100.766 84.4337 100.274 83.8033 99.4263C83.2161 98.637 82.6516 98.1515 82.6865 97.1685C82.748 95.4352 85.0312 95.813 86.4887 94.8725ZM85.1654 80.564C85.9784 78.8867 88.4191 79.3378 89.5705 78.7246C90.7218 78.1115 91.9768 77.923 93.0962 78.7246C94.1958 79.5122 94.481 80.6563 94.2519 81.9892C93.9457 83.7702 92.4601 84.6178 90.6801 84.9323C87.9744 85.4103 83.9672 83.0362 85.1654 80.564ZM67.0566 23.2433C66.4606 20.8661 70.9233 22.8446 73.0356 21.333C75.1479 19.8214 78.3905 19.6189 81.8213 21.333C82.9927 21.9182 83.7426 22.49 84.2222 22.9892C84.9813 23.7794 84.2573 24.7115 83.1636 24.6454V24.6454C80.5973 24.4905 79.3747 22.6037 76.8195 22.8873C74.8016 23.1112 74.0769 24.8668 72.0484 24.9523C69.9897 25.0392 67.5577 25.2416 67.0566 23.2433ZM48.8022 45.0684C47.9286 44.8022 46.8041 44.8693 45.81 45.0308C44.1983 45.2926 41.7019 45.3709 41.554 46.9971V46.9971C41.4456 48.1891 43.416 47.3276 44.507 47.8206C46.52 48.7302 46.8365 50.493 48.8022 51.5009C50.3171 52.2777 51.6331 53.8102 52.9752 52.7628C54.2699 51.7523 53.5805 50.0844 52.9752 48.5579C52.1923 46.5832 50.8344 45.6877 48.8022 45.0684Z" stroke="#F4D1D1"/>
</g>
<defs>
<filter id="filter0_d_3677_8" x="50.7793" y="4.41797" width="145.205" height="248.906" filterUnits="userSpaceOnUse" color-interpolation-filters="sRGB">
<feFlood flood-opacity="0" result="BackgroundImageFix"/>
<feColorMatrix in="SourceAlpha" type="matrix" values="0 0 0 0 0 0 0 0 0 0 0 0 0 0 0 0 0 0 127 0" result="hardAlpha"/>
<feOffset dy="4"/>
<feGaussianBlur stdDeviation="10"/>
<feComposite in2="hardAlpha" operator="out"/>
<feColorMatrix type="matrix" values="0 0 0 0 0 0 0 0 0 0 0 0 0 0 0 0 0 0 0.25 0"/>
<feBlend mode="normal" in2="BackgroundImageFix" result="effect1_dropShadow_3677_8"/>
<feBlend mode="normal" in="SourceGraphic" in2="effect1_dropShadow_3677_8" result="shape"/>
</filter>
<filter id="filter1_d_3677_8" x="5.97266" y="0.945312" width="127.643" height="255.836" filterUnits="userSpaceOnUse" color-interpolation-filters="sRGB">
<feFlood flood-opacity="0" result="BackgroundImageFix"/>
<feColorMatrix in="SourceAlpha" type="matrix" values="0 0 0 0 0 0 0 0 0 0 0 0 0 0 0 0 0 0 127 0" result="hardAlpha"/>
<feOffset dy="4"/>
<feGaussianBlur stdDeviation="10"/>
<feComposite in2="hardAlpha" operator="out"/>
<feColorMatrix type="matrix" values="0 0 0 0 0 0 0 0 0 0 0 0 0 0 0 0 0 0 0.25 0"/>
<feBlend mode="normal" in2="BackgroundImageFix" result="effect1_dropShadow_3677_8"/>
<feBlend mode="normal" in="SourceGraphic" in2="effect1_dropShadow_3677_8" result="shape"/>
</filter>
<filter id="filter2_d_3677_8" x="45.5469" y="4.41016" width="145.205" height="248.906" filterUnits="userSpaceOnUse" color-interpolation-filters="sRGB">
<feFlood flood-opacity="0" result="BackgroundImageFix"/>
<feColorMatrix in="SourceAlpha" type="matrix" values="0 0 0 0 0 0 0 0 0 0 0 0 0 0 0 0 0 0 127 0" result="hardAlpha"/>
<feOffset dy="4"/>
<feGaussianBlur stdDeviation="10"/>
<feComposite in2="hardAlpha" operator="out"/>
<feColorMatrix type="matrix" values="0 0 0 0 0 0 0 0 0 0 0 0 0 0 0 0 0 0 0.25 0"/>
<feBlend mode="normal" in2="BackgroundImageFix" result="effect1_dropShadow_3677_8"/>
<feBlend mode="normal" in="SourceGraphic" in2="effect1_dropShadow_3677_8" result="shape"/>
</filter>
<filter id="filter3_d_3677_8" x="0.740234" y="0.9375" width="127.643" height="255.836" filterUnits="userSpaceOnUse" color-interpolation-filters="sRGB">
<feFlood flood-opacity="0" result="BackgroundImageFix"/>
<feColorMatrix in="SourceAlpha" type="matrix" values="0 0 0 0 0 0 0 0 0 0 0 0 0 0 0 0 0 0 127 0" result="hardAlpha"/>
<feOffset dy="4"/>
<feGaussianBlur stdDeviation="10"/>
<feComposite in2="hardAlpha" operator="out"/>
<feColorMatrix type="matrix" values="0 0 0 0 0 0 0 0 0 0 0 0 0 0 0 0 0 0 0.25 0"/>
<feBlend mode="normal" in2="BackgroundImageFix" result="effect1_dropShadow_3677_8"/>
<feBlend mode="normal" in="SourceGraphic" in2="effect1_dropShadow_3677_8" result="shape"/>
</filter>
</defs>
</svg>
