<svg width="196" height="257" viewBox="0 0 196 257" fill="none" xmlns="http://www.w3.org/2000/svg">
<g filter="url(#filter0_d_3679_12)">
<path fill-rule="evenodd" clip-rule="evenodd" d="M166.322 138.447C160.61 130.5 152.517 124.309 142.044 119.874C149.28 115.623 154.707 110.079 158.325 103.241C162.133 96.4035 164.037 88.5492 164.037 79.6785C164.037 68.0357 161.371 57.779 156.04 48.9083C150.898 40.0376 143.567 33.1998 134.047 28.3948C124.526 23.405 113.291 20.9102 100.343 20.9102H87.211L81.2343 23.4882L85.9471 28.3948L90.7028 29.8779L95.7155 41.1526L93.1592 48.4624C107.44 48.4624 116.528 50.7564 123.193 56.1157C129.857 61.2903 133.19 69.1446 133.19 79.6785C133.19 89.6581 129.857 96.9579 123.193 101.578C116.719 106.013 92.5022 108.231 77.6497 108.231L78.221 116.409V125.903V135.398H100.628C115.671 135.398 126.62 137.892 133.475 142.882C140.521 147.872 144.043 155.726 144.043 166.445C144.043 177.533 140.235 186.219 132.618 192.503C125.002 198.601 114.148 201.651 100.057 201.651H78.4923L70.9375 202.502L74.3793 209.755V218.302L72.637 228.817H100.057C123.288 228.817 141.568 223.273 154.897 212.185C168.226 200.911 174.891 185.665 174.891 166.445C174.891 155.541 172.035 146.209 166.322 138.447Z" stroke="#4F879E" shape-rendering="crispEdges"/>
</g>
<g filter="url(#filter1_d_3679_12)">
<path d="M72.1016 19.1958C75.9404 17.1836 78.6013 17.2701 82.7017 17.6557C86.4568 18.0087 88.4581 19.0382 91.829 21.333C96.9449 24.8157 100.121 29.553 101.493 37.152C102.338 41.8293 101.7 43.5747 100.451 46.9971C100.354 47.2609 100.254 47.5347 100.151 47.8206C99.3015 50.1724 98.3394 51.408 97.2843 52.7628C96.6603 53.5641 96.0037 54.4072 95.3188 55.5477C94.0391 57.6786 90.3184 59.3161 92.0974 61.066C93.5558 62.5006 94.9423 60.4693 97.2843 60.3303C97.4319 60.3215 97.5827 60.3142 97.7351 60.308C100.238 60.2072 102.749 60.214 105.251 60.3303V60.3303C106.752 60.4 107.526 58.855 109.01 59.2266C109.835 59.4334 110.343 59.5323 110.889 60.3303C111.821 61.6924 111.324 63.2965 110.889 65.1128C110.21 67.9426 108.681 69.7589 106.638 71.2334C104.701 72.6316 100.576 74.709 100.956 72.4706C101.243 70.7836 103.213 71.0214 104.502 69.8953C105.693 68.8542 103.611 70.9272 107.321 66.985C108.435 65.8006 108.704 64.8362 109.01 63.2733C110.008 58.1739 101.825 67.7045 97.4664 69.8953C93.1079 72.0861 97.198 76.8388 99.0771 77.2531C101.126 77.7049 101.654 78.873 102.03 80.564C102.385 82.1601 102.314 82.764 100.956 84.6108C99.3192 86.8373 97.6624 86.5809 95.3188 87.186C91.9691 88.0509 89.8912 86.7437 86.46 87.186C80.6474 87.9352 77.5558 93.6693 77.5317 90.0127C77.5241 88.8572 75.7796 88.3522 78.4065 87.186C81.0334 86.0197 85.3504 85.9141 87.2653 84.9323C88.2925 84.4056 89.5012 81.7304 86.9969 81.9892C84.4926 82.2479 83.6674 82.667 82.4085 83.3063C81.6976 83.6673 80.8484 84.0985 79.4803 84.6108C73.8623 86.7146 66.5591 92.7712 63.8802 95.0936V95.0936C63.179 95.7015 62.5161 96.3458 61.8808 97.0222C59.6537 99.3938 54.0834 105.473 51.1224 110.019C47.9083 114.953 45.4502 121.838 43.3539 126.807C42.1287 129.71 41.782 130.702 41.3606 131.7C40.9392 132.698 41.6554 132.15 41.3606 134.794C41.0658 137.438 40.9087 138.018 40.0184 140.897C37.8749 147.828 37.2284 152.155 36.797 159.659C36.6189 162.756 36.6918 165.565 36.777 167.999M72.1016 19.1958L71.9323 19.1546M72.1016 19.1958C72.0537 19.2208 71.9798 19.1298 71.9323 19.1546M72.1016 19.1958C72.1355 19.1781 72.0675 19.2136 72.1016 19.1958ZM72.1016 19.1958C72.145 19.1731 72.0579 19.2187 72.1016 19.1958ZM98.2813 102.935C98.2813 102.935 102.282 99.617 104.28 96.4637C105.414 94.6746 104.643 93.2077 103.744 92.4154C100.726 89.7569 98.2113 90.0114 94.8489 90.3517V90.3517C91.5931 91.0395 88.2706 91.4695 85.0803 92.4154V92.4154C79.3693 94.1088 77.4621 95.879 71.9596 100.193C66.5927 104.401 63.4122 107.645 61.1319 109.972M98.2813 102.935C99.8319 104.139 101.603 104.584 103.074 104.486C107.546 104.187 111.862 102.706 112.462 106.398C112.564 107.024 112.527 107.55 112.41 108.051C112.088 109.432 111.067 110.534 109.946 111.401V111.401C109.794 111.519 109.649 111.64 109.503 111.764C108.846 112.324 106.81 113.983 105.142 114.541C103.828 114.979 102.139 114.937 100.611 114.737C97.9009 114.383 95.2942 113.46 92.5969 113.02V113.02C91.1031 112.776 90.1016 112.473 89.2864 112.226C87.9183 111.812 87.0751 111.557 85.31 112.008C84.102 112.317 82.8594 113.2 82.9327 114.445V114.445C83.0625 116.648 85.6589 114.325 88.5702 114.859C91.67 115.428 95.4415 116.505 96.7578 119.274C98.0741 122.043 98.0805 123.209 97.1605 126.264M98.2813 102.935C98.2813 102.935 97.284 103.771 94.2076 103.455V103.455C90.0253 103.025 85.7617 103.201 81.6204 103.926C81.3662 103.971 81.1205 104.019 80.8873 104.073V104.073C76.0411 105.182 71.7666 107.965 67.5298 110.566C65.6922 111.694 63.7202 112.944 61.9937 114.124C58.8665 116.26 55.3156 120.356 52.8773 123.429V123.429C50.8356 126.003 49.0568 128.773 47.5551 131.695C46.9731 132.827 46.3382 134.114 45.7174 135.469M97.1605 126.264L97.1344 126.351M97.1605 126.264C97.1518 126.293 97.1431 126.322 97.1344 126.351M36.7961 168.49C36.7848 168.33 36.7786 168.166 36.777 167.999M36.7961 168.49C36.8924 170.74 36.9815 172.653 37.3339 175.478C38.1939 182.376 40.6054 190.174 41.5348 192.265C41.9094 193.108 42.9403 193.097 42.2603 194.315C38.7748 200.56 34.6705 182.174 33.5828 176.868C33.4571 176.254 32.7104 176.016 32.2452 176.436V176.436C32.0345 176.625 31.9383 176.905 31.9956 177.183C32.4585 179.427 34.5846 189.547 35.7088 191.666C36.218 192.625 36.7287 193.64 37.1891 194.579C38.39 197.029 40.1095 199.867 38.9446 202.334V202.334C38.7029 202.846 38.5076 203.052 38.1392 203.438C35.4814 206.223 34.9737 198.563 33.5741 194.701C33.4275 194.296 33.2764 193.877 33.1223 193.449C30.3341 185.693 27.5876 177.83 26.7115 169.635V169.635C26.6267 168.842 26.5476 167.945 26.4747 167.007C25.9891 160.755 25.7578 154.477 25.9424 148.209V148.209V148.209C26.2822 136.675 27.9673 125.198 30.4926 113.939C31.1065 111.201 31.7848 108.541 32.5018 106.316C34.1154 101.309 35.4917 98.6176 37.6624 94.3732M36.7961 168.49C36.7891 168.326 36.7827 168.163 36.777 167.999M43.611 189.171C44.1479 190.642 44.8855 189.335 44.9533 188.435C45.021 187.535 45.0861 186.658 45.1515 185.8M43.611 189.171C43.0741 187.699 42.5703 180.434 42.8057 174.823C43.0511 168.972 43.5882 165.589 44.9533 160.108C46.0206 155.822 48.5667 151.175 50.4 148.188M43.611 189.171C44.1822 190.736 45.0189 187.541 45.1515 185.8M56.1656 189.214C58.5582 187.259 60.0979 186.167 62.8768 185.903C63.0793 185.884 63.2798 185.863 63.4777 185.843C66.1068 185.577 68.3305 185.352 70.1249 188.11C71.317 189.943 71.5847 191.55 71.7356 193.996C71.8604 196.021 71.6135 197.212 71.1987 199.147C70.8105 200.957 69.92 202.797 68.9736 204.374V204.374C66.4968 208.499 63.2289 200.276 59.0303 197.925C58.8333 197.815 58.6361 197.73 58.44 197.675C56.4218 197.111 55.0091 197.862 53.3394 199.515C51.5466 201.289 50.7297 203.143 50.3865 206.137C50.0056 209.458 50.9151 211.526 52.1625 214.363M56.1656 189.214L56.0872 189.278M56.1656 189.214C56.1393 189.235 56.1132 189.257 56.0872 189.278M55.528 96.1456C57.3966 94.0238 59.3913 91.9677 61.2258 90.497C63.605 88.5896 69.4861 85.2676 70.5144 84.6913C70.6189 84.6327 70.8785 84.4911 70.7741 84.5499V84.5499C70.7321 84.5736 70.687 84.599 70.6664 84.6109C70.6611 84.614 70.6574 84.6162 70.6558 84.6172V84.6172C70.6544 84.6182 70.6581 84.6165 70.6596 84.6157C70.6597 84.6156 70.6599 84.6156 70.66 84.6155C70.666 84.6124 70.6718 84.6088 70.6773 84.6048V84.6048C69.8257 85.2412 68.5121 86.4806 67.1541 87.7618L67.1531 87.7627C66.127 88.7309 65.0756 89.723 64.1787 90.497L63.9004 90.7661C58.725 95.77 53.9523 101.174 49.6266 106.928V106.928C49.2596 107.468 48.9093 107.977 48.5738 108.464M55.528 96.1456C55.5199 96.1549 55.5117 96.1642 55.5035 96.1735M55.528 96.1456L55.5035 96.1735M42.0886 116.815C42.087 116.818 42.0853 116.821 42.0837 116.825M42.0886 116.815L42.1116 116.766M42.0886 116.815L42.0837 116.825M42.0886 116.815C42.0963 116.799 42.1039 116.783 42.1116 116.766M45.1515 185.8C45.883 176.196 46.6489 169.084 51.6645 161.579C52.2279 160.736 52.9712 159.803 53.6809 158.965C53.6814 158.964 53.6818 158.964 53.6823 158.963M58.2945 153.991C59.337 152.941 60.5612 151.761 61.5971 150.911C66.3781 146.986 69.7163 145.934 75.288 145.76C78.1352 145.671 82.8455 144.654 84.4152 147.968C84.976 149.151 86.1928 150.858 84.9521 151.279C83.7975 151.67 83.9352 149.534 82.8573 148.964C82.6348 148.846 82.4623 148.748 82.2676 148.703C82.194 148.687 82.1199 148.671 82.0454 148.657C80.2944 148.332 79.5202 151.089 80.12 152.75C80.7397 154.466 83.3414 154.59 84.4152 154.59C84.487 154.59 84.5712 154.59 84.6657 154.592C85.9861 154.607 89.4009 154.647 91.3949 152.382C92.7382 150.856 93.5589 149.146 94.0794 146.864C94.933 143.121 93.3535 138.32 91.3949 135.827V135.827C90.6945 134.936 89.9315 134.096 89.0628 133.368C87.8531 132.354 85.9267 130.837 83.8965 129.631M58.2945 153.991V153.991C56.7092 155.588 55.1366 157.246 53.6823 158.963V158.963M58.2945 153.991C56.7181 155.579 55.1645 157.213 53.6823 158.963M54.7818 142.189C56.154 140.604 57.9191 138.738 59.4495 137.667C60.7527 136.755 62.3059 135.955 63.9037 135.268C68.7218 133.196 70.5569 132.762 70.096 132.148C69.7182 131.645 67.6195 132.531 63.7447 133.988C60.9283 135.047 59.3543 135.816 56.765 137.667C55.5727 138.519 54.2452 139.746 53.0174 140.987C52.4102 141.601 51.6656 140.602 52.2014 139.874C52.4888 139.484 52.7684 139.116 53.0426 138.769C57.2815 133.403 63.3754 129.211 70.096 127.947V127.947C73.1621 127.371 78.0849 127.947 78.0849 127.947M54.7818 142.189C53.1996 144.016 51.7321 146.018 50.4 148.188M54.7818 142.189V142.189C53.185 144.033 51.744 146.007 50.4642 148.084C50.4429 148.118 50.4215 148.153 50.4 148.188M56.0872 189.278C54.6573 190.446 53.7903 191.154 52.6757 192.893C52.3478 193.404 51.9865 193.861 51.628 194.315C51.0003 195.109 50.381 195.893 49.9639 196.939C49.8675 197.181 49.7741 197.415 49.6835 197.641M55.5035 96.1735C55.5013 96.176 55.4992 96.1785 55.497 96.1809M42.0837 116.825C40.5627 120.014 39.0915 123.458 38.1392 126.55C36.6436 131.406 35.7948 134.221 35.1863 139.426C34.7251 143.37 37.1205 135.193 38.3075 131.003C38.7364 129.489 39.2131 127.993 39.736 126.508V126.508C40.3417 124.788 40.8546 123.333 41.4653 122.026C41.7584 121.398 42.0744 120.722 42.4344 119.928C43.0823 118.498 43.6327 117.204 44.1496 115.989C45.3751 113.109 46.7552 111.105 48.5692 108.471M42.0837 116.825C42.093 116.805 42.1023 116.786 42.1116 116.766M37.6624 94.3732L37.6641 94.3698M37.6624 94.3732C37.6629 94.372 37.6635 94.3709 37.6641 94.3698M38.539 58.1229L38.5384 58.1214C37.9464 56.5403 37.5953 55.6025 38.4077 54.0762C39.073 52.826 40.4896 53.5372 40.8237 54.444C40.8817 54.6013 41.0487 54.6598 41.2853 54.649C44.0825 54.5209 46.6744 52.0238 49.1456 53.3404V53.3404C50.2025 53.9034 50.7921 54.4064 51.5617 55.5477C52.6416 57.1493 52.8021 58.7088 53.001 60.6426C53.0507 61.126 53.1029 61.633 53.1724 62.1697C53.2291 62.6073 53.2743 63.1115 53.3103 63.6191C53.4495 65.5824 53.1678 67.5465 52.6305 69.4399V69.4399C51.9246 71.9273 50.7431 74.2473 49.2071 76.3273C46.2392 80.3463 41.1612 87.5185 38.1392 93.4401C37.9801 93.7518 37.8252 94.0547 37.6742 94.35M38.539 58.1229L38.5407 58.1275M38.539 58.1229C38.5395 58.1245 38.5401 58.126 38.5407 58.1275M38.5407 58.1275C38.5585 58.175 38.5765 58.2231 38.5946 58.2717C38.6214 58.3434 38.6486 58.4164 38.6761 58.4908C39.2937 60.1611 39.6665 60.4887 40.2102 60.9666V60.9666C41.268 61.8963 42.1533 63.0315 43.3658 63.7478C43.5724 63.8698 43.7715 63.9754 43.9459 64.0484C45.1771 64.5636 46.3147 65.0396 46.1927 66.5843C45.9692 69.4123 39.6172 83.938 36.5285 78.7246C34.8441 75.8816 38.321 72.5603 36.5285 70.2632C34.3492 67.4704 33.7561 64.3899 34.1125 60.3303C34.4279 56.7372 35.7488 54.8756 37.48 52.436C37.6938 52.1346 37.9139 51.8243 38.1392 51.5009C41.4738 46.7137 44.4272 45.1852 49.1456 43.7753C49.8143 43.5755 50.4605 43.342 51.0868 43.1158C53.6277 42.1976 55.8505 41.3944 58.0044 43.4075C60.1749 45.436 60.9977 47.9142 61.2258 51.5009C61.3263 53.0818 61.7375 52.9364 62.4208 52.9725C63.2014 53.0137 62.8472 52.8047 64.7156 51.5009C66.0277 50.5854 66.3272 51.1609 66.7816 52.0342M66.7816 52.0342L66.8032 52.0757M66.7816 52.0342C66.7888 52.0479 66.796 52.0618 66.8032 52.0757M66.8032 52.0757L66.8252 52.1176M66.8032 52.0757C66.8105 52.0896 66.8178 52.1036 66.8252 52.1176M66.836 52.1384C66.845 52.1556 66.8541 52.1729 66.8632 52.1902C67.4368 53.2783 67.3929 53.4337 66.3263 55.5477C65.5671 57.0525 64.3393 58.6606 63.2786 59.9152C61.9816 61.4493 59.9305 63.5773 61.2258 65.1128V65.1128C62.3754 66.4754 63.1249 62.4089 64.7156 62.1697C66.0047 61.9759 66.9749 62.3555 67.937 63.2733C70.112 65.3481 66.2322 67.7925 64.7156 70.2632C62.7024 73.5432 60.9454 79.9891 58.5413 77.2531C56.4329 74.8536 64.1713 70.7638 61.2258 69.5274C58.421 68.3501 58.1015 73.1014 56.1253 75.4136C51.6406 80.6608 48.6273 82.8709 44.8504 89.0254C44.3429 89.8524 43.8331 90.7692 43.3293 91.7406C37.8738 102.261 33.2375 113.411 31.1596 125.078V125.078C29.4195 134.848 28.8314 136.988 30.5767 136.455C31.4509 136.187 31.8376 136.774 33.3071 128.021C33.3981 127.479 33.4849 126.958 33.5686 126.454M66.836 52.1384L66.8252 52.1176M66.836 52.1384C66.8324 52.1315 66.8288 52.1245 66.8252 52.1176M33.5741 126.421C34.3901 121.515 34.9289 118.275 36.5285 113.306C38.8073 106.227 41.2598 102.421 44.8852 96.7948C45.0501 96.5389 45.2175 96.2792 45.3873 96.0153C46.9981 93.5123 49.0783 90.9461 51.1981 88.5825C57.1608 81.9341 64.9124 73.2063 73.8429 73.2063V73.2063C78.7379 73.2063 81.9911 72.439 85.6547 68.0559C85.9722 67.676 86.332 67.3274 86.6853 66.985C87.7735 65.9308 88.8001 64.9361 88.3391 63.2733C88.1517 62.5972 87.774 62.3247 87.3795 62.04C87.0515 61.8034 86.7118 61.5584 86.46 61.066C86.0017 60.1701 85.6862 59.544 85.6547 58.4908C85.5699 55.6616 89.2416 56.0225 90.7552 53.3404C92.5198 50.2135 93.2858 47.7251 93.1712 43.7753C93.0683 40.2298 92.3633 38.0951 90.7552 35.3141C88.9125 32.1272 87.1742 30.8692 84.3124 29.7958C81.6834 28.8098 79.9834 28.9253 77.3327 29.7958C76.4308 30.092 75.7936 30.5168 75.1363 30.955C74.5934 31.3169 74.0367 31.6879 73.306 32.0031C71.4621 32.7985 69.6606 35.0501 68.4739 33.4746C68.1059 32.986 68.1006 32.6053 67.937 32.0031C67.1973 29.2802 71.5391 23.9131 68.7424 24.6455C66.8496 25.1411 66.4865 26.6717 65.7894 28.6922C65.2001 30.4006 64.8126 31.6837 65.2525 33.4746C65.6782 35.2077 66.4978 35.9084 67.6686 36.7856C69.5058 38.1621 71.1725 37.5115 73.0369 36.7838C73.7201 36.5171 74.4306 36.2397 75.1852 36.0483C76.1761 35.7969 76.9472 35.1657 77.6743 34.5706C78.7274 33.7085 79.6881 32.922 81.091 33.4746C83.5134 34.4288 84.5747 36.6078 85.6547 39.7286C86.6076 42.4823 86.8459 44.4527 86.46 47.4542C86.0852 50.3697 84.7575 51.7627 83.1862 53.4114C82.769 53.8491 82.3346 54.3049 81.8964 54.8119C79.8873 57.1363 75.5547 56.6926 76.5274 59.2266C77.405 61.513 80.5075 58.894 82.7017 60.3303C83.9884 61.1725 85.9271 61.6683 85.6547 63.2733C85.5058 64.15 84.9109 64.5134 84.3124 65.1128C82.7517 66.6758 80.6642 64.6414 78.4065 65.1128C75.7917 65.6587 74.7797 67.8266 72.2322 68.0559C71.6046 68.1123 71.1767 68.3516 70.6215 68.0559C69.4657 67.4402 72.394 66.5087 72.7691 65.4807C73.306 64.0091 77.2151 64.3681 77.3327 62.1697C77.484 59.3437 71.4269 62.5376 70.0846 62.1697C69.8766 62.1127 69.6915 62.0172 69.5278 61.8989C68.4907 61.1497 67.4185 59.214 68.4739 58.4908V58.4908C69.3016 57.9237 70.4129 57.9018 71.5721 57.8789C73.4205 57.8425 75.3908 57.8037 76.5274 55.5477C76.927 54.7546 77.3866 54.2564 77.3327 53.3404C77.2054 51.174 73.7191 57.1286 72.2322 55.5477C71.1494 54.3964 71.7517 52.9376 72.2322 51.5009C72.5119 50.6647 72.7365 50.2677 73.306 49.6615C74.7715 48.1016 76.5888 48.0787 78.675 48.5579C79.686 48.7901 80.232 50.2429 81.091 49.6615C81.924 49.0977 81.3243 48.0398 81.091 47.0863C80.6605 45.3269 79.4355 45.2032 78.1005 45.0684C77.6696 45.025 77.2266 44.9802 76.7958 44.879C75.518 44.5787 74.5302 44.878 73.5174 45.1849C72.6394 45.451 71.7425 45.7227 70.6215 45.6148C70.1035 45.5649 69.6126 45.5525 69.1441 45.5407C67.479 45.4988 66.0898 45.4639 64.7156 43.7753C62.9882 41.6526 62.9297 39.1926 62.8568 36.1226C62.8538 35.9969 62.8508 35.8702 62.8476 35.7424C62.8442 35.6009 62.8405 35.4582 62.8365 35.3141C62.7429 31.9349 62.9911 29.8168 64.1788 26.8528C65.9605 22.4061 68.4602 21.0993 71.8514 19.3265M33.5741 126.421L33.5686 126.454M33.5741 126.421C33.5723 126.432 33.5704 126.444 33.5686 126.454M71.8514 19.3265L71.9323 19.1546M71.8514 19.3265C72.1016 19.1956 72.1773 19.0267 71.9323 19.1546M61.0286 110.077L61.1319 109.972M61.0286 110.077C61.0628 110.042 61.0973 110.007 61.1319 109.972M61.0286 110.077V110.077C55.6652 115.32 49.3048 119.928 45.8805 126.602C45.3495 127.636 44.9479 128.691 44.763 129.72C44.4414 131.51 43.5388 132.873 44.5688 134.372C44.9201 134.883 45.7174 135.469 45.7174 135.469M42.1116 116.766C42.2838 116.406 43.0964 116.497 43.2691 116.144V116.144C46.6346 109.265 50.1875 102.366 55.1736 96.5533C55.2804 96.4287 55.3883 96.3046 55.497 96.1809M42.1116 116.766C45.8024 109.041 50.3111 102.077 55.497 96.1809M97.0853 126.514V126.514C96.1309 129.69 91.6764 129.412 88.3616 129.505L83.8965 129.631M97.0853 126.514L97.0884 126.504M97.0853 126.514C97.0863 126.511 97.0874 126.507 97.0884 126.504M97.0884 126.504L97.1132 126.421M97.0884 126.504C97.0966 126.476 97.1049 126.449 97.1132 126.421M37.6641 94.3698L37.6742 94.35M37.6641 94.3698C37.6675 94.3632 37.6708 94.3566 37.6742 94.35M48.5692 108.471L48.5738 108.464M48.5692 108.471C48.5708 108.469 48.5723 108.466 48.5738 108.464M49.682 197.645C48.6073 200.328 47.933 202.012 47.4335 205.211C46.7316 209.706 46.4938 213.126 47.4335 217.54C47.5859 218.255 47.9024 218.917 48.2161 219.574C48.4188 219.998 48.6204 220.42 48.7758 220.852C49.5866 223.108 50.6369 224.041 51.9637 225.221C52.3555 225.569 52.7715 225.939 53.2126 226.37C54.2273 227.363 55.004 227.808 55.9765 228.364C56.2838 228.54 56.6108 228.727 56.9709 228.946C57.3416 229.171 57.6852 229.385 58.0115 229.589C59.6594 230.616 60.8639 231.367 62.8768 231.889C67.072 232.976 71.3407 231.554 75.523 230.16V230.16C76.6383 229.789 77.8362 229.643 78.9012 229.145C79.0289 229.085 79.1483 229.019 79.2521 228.946V228.946C80.0427 228.387 80.5304 227.35 81.4832 227.18C82.0662 227.075 82.6718 227.246 83.1912 227.699C84.0582 228.455 85.171 228.428 86.0178 227.63L88.0951 225.673C88.6306 225.168 89.0451 224.458 89.2864 223.631C89.9686 221.294 89.125 218.632 87.3775 217.857C86.7961 217.599 86.2104 217.356 85.6949 217.173C85.1065 216.965 84.5485 216.979 84.0206 216.993C83.1555 217.016 82.3716 217.036 81.6682 216.07C81.2321 215.471 81.1082 214.85 80.9746 214.181C80.8848 213.731 80.7906 213.26 80.5944 212.759C79.9935 211.224 78.9374 209.387 78.1988 208.178C77.826 207.568 78.028 206.616 78.5863 206.397C78.9665 206.249 79.2046 205.735 79.105 205.211C78.9213 204.243 78.5505 202.774 77.9099 202.09C76.5865 200.678 75.1917 201.307 73.6147 202.09C72.4116 202.688 71.7454 203.313 70.9302 204.665C69.6827 206.734 69.1298 208.678 69.588 211.287C69.7983 212.485 70.1549 213.148 70.63 214.033C70.7254 214.21 70.8255 214.397 70.9302 214.598C72.3555 217.34 75.523 218.602 73.7508 219.176C72.3823 219.62 71.7767 219.839 69.588 218.277C68.1953 217.283 66.8091 215.255 65.7941 213.527C65.3926 212.843 64.8436 212.381 64.256 212.181C62.7481 211.67 61.008 213.06 60.595 214.598V214.598V214.598C60.1327 216.319 61.5383 217.993 62.7933 219.259C63.112 219.58 63.4567 219.882 63.8089 220.116C64.3408 220.47 64.7758 220.542 65.2475 220.621C65.5471 220.671 65.8615 220.724 66.2249 220.852C67.406 221.269 67.72 222.126 67.7863 222.727C67.8323 223.144 67.5677 223.507 67.2092 223.726V223.726C66.7638 223.998 66.2099 224.021 65.743 223.788L63.0627 222.45C62.406 222.123 61.8043 221.695 61.3006 221.161C60.4138 220.221 59.0071 218.645 58.44 217.54C57.1983 215.12 55.411 211.346 56.9709 209.301C57.4599 208.66 58.3064 208.831 59.0585 209.185C60.1587 209.704 61.5556 211.113 62.3399 210.183V210.183V210.183C62.9948 209.407 62.2448 208.211 61.9775 207.231C61.4408 205.264 60.3214 201.927 58.7084 200.986C57.3578 200.199 56.5636 200.299 55.5041 200.986C53.9615 201.986 52.6757 204.62 52.6757 206.137C52.6757 207.193 52.6054 207.709 52.6757 208.712C52.7467 209.725 52.9121 210.087 53.0403 211.287C53.5108 215.69 56.0821 217.531 54.9284 218.277C54.3754 218.635 52.8067 215.661 52.3761 214.817C52.301 214.67 52.2324 214.522 52.1658 214.371V214.371M49.682 197.645L49.6835 197.641M49.682 197.645C49.6825 197.643 49.683 197.642 49.6835 197.641M52.1625 214.363L52.1658 214.371M52.1625 214.363C52.1636 214.366 52.1647 214.368 52.1658 214.371M78.0849 127.947V127.947C75.0041 125.464 71.0131 124.178 67.0574 124.271C66.4817 124.284 65.9068 124.331 65.3554 124.424C64.5949 124.553 63.7319 124.774 62.8841 125.026C60.0424 125.869 57.5789 127.613 55.5159 129.742L55.3727 129.89C54.4204 130.872 53.5744 131.953 52.8488 133.113V133.113C52.5029 133.666 52.1288 134.201 51.7401 134.725C50.4243 136.499 47.2362 140.962 45.6183 144.658C42.7356 151.243 42.1764 155.831 41.3232 163.42C40.8114 167.973 40.8269 168.431 40.6581 170.887C40.5982 171.758 40.1827 173.231 39.1666 171.97C39.1001 171.887 39.0408 171.787 38.9882 171.672C37.2222 167.817 38.7364 163.223 39.1666 159.004V159.004C39.825 152.548 41.2936 148.867 42.9338 142.819C43.5718 140.466 44.6225 137.86 45.7174 135.469M78.0849 127.947V127.947C79.4768 127.947 80.8814 128.095 82.1402 128.689C82.7246 128.965 83.3148 129.285 83.8965 129.631M78.0849 127.947C78.3518 128.162 78.6134 128.367 78.8627 128.555C79.1554 128.775 79.5139 128.886 79.8801 128.886V128.886C80.2463 128.886 80.5925 129.05 80.9535 129.112C81.2088 129.156 81.4301 129.098 81.7124 129.127C82.1919 129.177 82.6385 129.408 83.1132 129.492L83.8965 129.631M97.1132 126.421L97.1344 126.351M97.1132 126.421C97.1202 126.398 97.1273 126.374 97.1344 126.351M55.1543 167.098C53.8097 171.314 53.0376 177.663 52.6916 181.146C52.5431 182.64 52.0727 183.923 50.6689 184.201C48.9644 184.538 47.6167 183.068 47.7182 180.871C47.8145 178.787 48.0181 176.328 48.4431 174.455C49.575 169.467 50.7592 166.618 53.5436 163.051C54.7894 161.455 56.3685 163.714 55.6015 165.801C55.4379 166.246 55.2869 166.682 55.1543 167.098ZM87.9051 148.703C86.2122 149.43 86.2726 146.309 84.9521 145.024C82.8874 143.016 81.5237 141.859 78.7778 140.987C75.6803 140.004 69.7376 144.156 70.4559 140.987C70.5528 140.56 70.7943 140.163 71.1137 139.802C72.8782 137.813 75.8445 137.667 78.5038 137.667V137.667C80.8502 137.667 83.2363 137.948 85.2704 139.117C86.3002 139.709 87.323 140.464 87.9051 141.346C88.9005 142.853 89.5306 143.97 89.2864 145.76C89.1148 147.018 89.0718 148.202 87.9051 148.703ZM92.1622 126.264C93.7005 124.432 93.2004 121.178 92.9738 120.193C92.7473 119.208 92.3949 118.582 90.572 117.584C87.7711 116.051 84.4319 115.125 82.3958 117.584C81.3834 118.807 81.1963 119.882 81.2007 121.469C81.2084 124.311 82.4699 126.502 85.0803 127.624C87.6674 128.737 90.3514 128.42 92.1622 126.264ZM77.5974 119.274C75.459 117.36 68.6978 119.307 70.5841 121.469C71.4138 122.421 72.2702 122.605 73.5099 122.843C75.6452 123.254 79.0536 123.641 78.906 121.472C78.8382 120.475 78.3418 119.94 77.5974 119.274ZM56.3753 147.681C56.336 149.222 47.6281 157.935 48.1338 159.43C48.6717 161.021 50.7297 158.72 52.0801 157.722C53.9593 156.333 62.9264 147.262 63.3549 145.373C63.8446 143.215 60.8582 141.593 58.7101 142.126C56.4259 142.693 56.4352 145.329 56.3753 147.681ZM95.4143 108.604C95.849 106.788 97.8692 106.935 99.6584 106.398C101.773 105.764 103.391 104.897 105.298 106.009C106.278 106.579 106.866 107.075 107.278 108.131C107.682 109.167 107.758 109.976 107.278 110.979C106.423 112.765 104.344 112.26 102.364 112.226V112.226C100.113 112.189 97.5088 112.174 95.8208 110.683C95.6303 110.514 95.4864 110.314 95.4143 110.077C95.2473 109.526 95.2804 109.163 95.4143 108.604ZM91.1274 94.8725C92.5508 93.954 93.1086 92.9901 94.7022 92.4154C96.8368 91.6456 98.9508 90.7697 100.513 92.4154C101.403 93.3527 101.718 94.2556 101.596 95.5421C101.583 95.675 101.556 95.8097 101.516 95.9448C100.879 98.1219 98.6057 99.3949 96.4824 100.193V100.193C94.2418 101.035 92.578 102.329 90.4438 101.245C89.5021 100.766 89.0724 100.274 88.442 99.4263C87.8547 98.637 87.2903 98.1515 87.3251 97.1685C87.3866 95.4352 89.6699 95.813 91.1274 94.8725ZM89.8041 80.564C90.617 78.8867 93.0578 79.3378 94.2091 78.7246C95.3604 78.1115 96.6155 77.923 97.7349 78.7246C98.8345 79.5121 99.1197 80.6563 98.8905 81.9892C98.5843 83.7702 97.0987 84.6178 95.3188 84.9323C92.6131 85.4103 88.6059 83.0362 89.8041 80.564ZM71.6953 23.2433C71.0993 20.8661 75.5619 22.8446 77.6743 21.333C79.7866 19.8214 83.0291 19.6189 86.46 21.333C87.6314 21.9182 88.3812 22.49 88.8609 22.9892C89.62 23.7794 88.896 24.7115 87.8022 24.6454V24.6454C85.236 24.4905 84.0134 22.6038 81.4582 22.8873C79.4402 23.1112 78.7156 24.8668 76.6871 24.9523C74.6284 25.0392 72.1964 25.2416 71.6953 23.2433ZM53.4408 45.0684C52.5673 44.8022 51.4427 44.8693 50.4487 45.0308C48.837 45.2926 46.3405 45.3709 46.1927 46.9971V46.9971C46.0843 48.1891 48.0547 47.3276 49.1456 47.8206C51.1587 48.7302 51.4752 50.493 53.4408 51.5009C54.9558 52.2777 56.2718 53.8102 57.6139 52.7628C58.9086 51.7523 58.2192 50.0844 57.6139 48.5579C56.831 46.5832 55.473 45.6877 53.4408 45.0684Z" stroke="#538FA7" shape-rendering="crispEdges"/>
</g>
<g filter="url(#filter2_d_3679_12)">
<path fill-rule="evenodd" clip-rule="evenodd" d="M161.09 138.439C155.377 130.492 147.285 124.301 136.812 119.866C144.047 115.616 149.474 110.071 153.092 103.233C156.901 96.3957 158.805 88.5414 158.805 79.6707C158.805 68.0279 156.139 57.7712 150.807 48.9005C145.666 40.0298 138.335 33.192 128.814 28.387C119.293 23.3972 108.059 20.9023 95.1102 20.9023H81.9786L76.0019 23.4804L80.7147 28.387L85.4704 29.8701L90.4831 41.1448L87.9268 48.4546C102.208 48.4546 111.296 50.7486 117.96 56.1079C124.625 61.2825 127.957 69.1368 127.957 79.6707C127.957 89.6502 124.625 96.9501 117.96 101.57C111.486 106.006 87.2698 108.223 72.4173 108.223L72.9885 116.401V125.895V135.39H95.3959C110.439 135.39 121.388 137.885 128.243 142.874C135.288 147.864 138.811 155.718 138.811 166.437C138.811 177.526 135.003 186.211 127.386 192.495C119.769 198.593 108.915 201.643 94.8246 201.643H73.2599L65.7051 202.494L69.1469 209.748V218.294L67.4046 228.809H94.8246C118.056 228.809 136.336 223.265 149.665 212.177C162.994 200.904 169.659 185.657 169.659 166.437C169.659 155.534 166.802 146.201 161.09 138.439Z" fill="#C6D7DE"/>
<path fill-rule="evenodd" clip-rule="evenodd" d="M161.09 138.439C155.377 130.492 147.285 124.301 136.812 119.866C144.047 115.616 149.474 110.071 153.092 103.233C156.901 96.3957 158.805 88.5414 158.805 79.6707C158.805 68.0279 156.139 57.7712 150.807 48.9005C145.666 40.0298 138.335 33.192 128.814 28.387C119.293 23.3972 108.059 20.9023 95.1102 20.9023H81.9786L76.0019 23.4804L80.7147 28.387L85.4704 29.8701L90.4831 41.1448L87.9268 48.4546C102.208 48.4546 111.296 50.7486 117.96 56.1079C124.625 61.2825 127.957 69.1368 127.957 79.6707C127.957 89.6502 124.625 96.9501 117.96 101.57C111.486 106.006 87.2698 108.223 72.4173 108.223L72.9885 116.401V125.895V135.39H95.3959C110.439 135.39 121.388 137.885 128.243 142.874C135.288 147.864 138.811 155.718 138.811 166.437C138.811 177.526 135.003 186.211 127.386 192.495C119.769 198.593 108.915 201.643 94.8246 201.643H73.2599L65.7051 202.494L69.1469 209.748V218.294L67.4046 228.809H94.8246C118.056 228.809 136.336 223.265 149.665 212.177C162.994 200.904 169.659 185.657 169.659 166.437C169.659 155.534 166.802 146.201 161.09 138.439Z" stroke="#398EB0"/>
</g>
<g filter="url(#filter3_d_3679_12)">
<path d="M48.3112 163.043C45.5267 166.61 44.3425 169.459 43.2107 174.448C42.7857 176.321 42.5821 178.779 42.4858 180.863C42.3843 183.06 43.732 184.531 45.4365 184.193C46.8403 183.915 47.3107 182.633 47.4592 181.138C47.8052 177.655 48.5773 171.306 49.9219 167.09C50.0545 166.674 50.2055 166.239 50.3691 165.793C51.136 163.706 49.557 161.447 48.3112 163.043Z" fill="#ACC7D2"/>
<path d="M48.2084 45.0606C47.3349 44.7944 46.2103 44.8615 45.2163 45.023C43.6045 45.2848 41.1081 45.3631 40.9602 46.9893V46.9893C40.8518 48.1813 42.8222 47.3198 43.9132 47.8128C45.9262 48.7224 46.2427 50.4852 48.2084 51.4931C49.7234 52.2699 51.0394 53.8024 52.3815 52.7549C53.6762 51.7445 52.9867 50.0766 52.3815 48.55C51.5986 46.5754 50.2406 45.6799 48.2084 45.0606Z" fill="#ACC7D2"/>
<path d="M66.4629 23.2355C65.8668 20.8583 70.3295 22.8368 72.4418 21.3252C74.5542 19.8136 77.7967 19.6111 81.2276 21.3252C82.3989 21.9104 83.1488 22.4821 83.6284 22.9814C84.3876 23.7716 83.6636 24.7037 82.5698 24.6376V24.6376C80.0036 24.4827 78.781 22.5959 76.2258 22.8795C74.2078 23.1034 73.4832 24.8589 71.4547 24.9445C69.396 25.0314 66.9639 25.2338 66.4629 23.2355Z" fill="#ACC7D2"/>
<path d="M84.5716 80.5562C85.3846 78.8788 87.8254 79.33 88.9767 78.7168C90.128 78.1037 91.3831 77.9152 92.5024 78.7168C93.6021 79.5043 93.8872 80.6485 93.6581 81.9814C93.3519 83.7624 91.8663 84.61 90.0864 84.9244C87.3807 85.4025 83.3735 83.0284 84.5716 80.5562Z" fill="#ACC7D2"/>
<path fill-rule="evenodd" clip-rule="evenodd" d="M37.5732 174.815C37.3379 180.426 37.8417 187.691 38.3786 189.163C38.9498 190.729 39.7864 187.533 39.919 185.792C40.6505 176.188 41.4165 169.076 46.4321 161.572C46.9955 160.729 47.7388 159.795 48.4485 158.957L48.4499 158.955C49.9321 157.205 51.4857 155.572 53.062 153.983C54.1045 152.933 55.3288 151.753 56.3646 150.903C61.1457 146.978 64.4839 145.926 70.0555 145.752C72.9028 145.664 77.6131 144.646 79.1828 147.96C79.7436 149.144 80.9603 150.85 79.7197 151.271C78.5651 151.663 78.7028 149.526 77.6249 148.956C77.4024 148.838 77.2299 148.74 77.0352 148.695C76.9616 148.679 76.8875 148.663 76.813 148.65C75.062 148.324 74.2878 151.081 74.8876 152.742C75.5072 154.458 78.109 154.582 79.1828 154.582C79.2545 154.582 79.3383 154.583 79.4328 154.584L79.4332 154.584C80.7536 154.599 84.1685 154.639 86.1625 152.374C87.5058 150.848 88.3265 149.138 88.847 146.856C89.7005 143.113 88.1211 138.312 86.1625 135.819C85.7802 135.333 85.4327 134.888 85.1134 134.479V134.479C85.1131 134.478 85.1133 134.479 85.113 134.478C85.1034 134.469 82.0261 131.621 78.6641 129.623C78.0824 129.277 77.4921 128.957 76.9078 128.681C75.649 128.088 74.2443 127.939 72.8524 127.939V127.939C72.8524 127.939 67.9297 127.363 64.8636 127.939V127.939C58.1429 129.203 52.0491 133.395 47.8102 138.761C47.536 139.108 47.2564 139.476 46.969 139.866C46.4331 140.594 47.1778 141.594 47.785 140.98C49.0127 139.738 50.3403 138.511 51.5326 137.659C54.1219 135.808 55.6959 135.039 58.5122 133.98C62.3871 132.523 64.4857 131.638 64.8636 132.141C65.3245 132.754 63.4894 133.188 58.6713 135.26C57.0735 135.947 55.5203 136.747 54.2171 137.659C52.6867 138.73 50.9216 140.596 49.5493 142.181C47.9671 144.008 46.4996 146.01 45.1676 148.18C43.3343 151.167 40.7882 155.814 39.7208 160.1C38.3557 165.581 37.8186 168.964 37.5732 174.815ZM79.7197 145.017C81.0401 146.301 80.9797 149.423 82.6726 148.696C83.8394 148.194 83.8824 147.01 84.054 145.752C84.2982 143.963 83.6681 142.845 82.6726 141.338C82.0905 140.456 81.0678 139.702 80.038 139.109C78.0039 137.94 75.6177 137.659 73.2713 137.659V137.659C70.612 137.659 67.6457 137.805 65.8813 139.795C65.5619 140.155 65.3204 140.552 65.2235 140.98C64.5051 144.149 70.4479 139.996 73.5454 140.98C76.2913 141.851 77.6549 143.008 79.7197 145.017ZM42.9014 159.422C42.3957 157.927 51.1036 149.214 51.1428 147.673C51.2028 145.321 51.1934 142.685 53.4777 142.118C55.6258 141.585 58.6122 143.207 58.1225 145.366C57.694 147.254 48.7269 156.325 46.8477 157.714C45.4973 158.712 43.4393 161.013 42.9014 159.422Z" fill="#ACC7D2"/>
<path d="M82.6726 148.696C80.9797 149.423 81.0401 146.301 79.7197 145.017C77.6549 143.008 76.2913 141.851 73.5454 140.98C70.4479 139.996 64.5051 144.149 65.2235 140.98C65.3204 140.552 65.5619 140.155 65.8813 139.795C67.6457 137.805 70.612 137.659 73.2713 137.659V137.659C75.6177 137.659 78.0039 137.94 80.038 139.109C81.0678 139.702 82.0905 140.456 82.6726 141.338C83.6681 142.845 84.2982 143.963 84.054 145.752C83.8824 147.01 83.8394 148.194 82.6726 148.696Z" fill="#ACC7D2"/>
<path fill-rule="evenodd" clip-rule="evenodd" d="M87.7414 120.185C87.968 121.17 88.4681 124.424 86.9298 126.256C85.1189 128.412 82.4349 128.729 79.8479 127.617C77.2374 126.494 75.976 124.303 75.9682 121.462C75.9639 119.874 76.151 118.799 77.1634 117.576C79.1995 115.117 82.5387 116.044 85.3395 117.576C87.1625 118.574 87.5148 119.2 87.7414 120.185ZM65.3517 121.462C63.4654 119.299 70.2266 117.352 72.365 119.266C73.1094 119.932 73.6058 120.468 73.6736 121.464C73.8212 123.633 70.4127 123.246 68.2775 122.836C67.0378 122.597 66.1813 122.413 65.3517 121.462ZM94.426 106.39C92.6368 106.927 90.6166 106.78 90.1819 108.596C90.048 109.156 90.0148 109.519 90.1819 110.069C90.2539 110.307 90.3978 110.507 90.5884 110.675C92.2764 112.166 94.8802 112.181 97.132 112.219V112.219C99.1115 112.252 101.191 112.757 102.046 110.971C102.526 109.968 102.45 109.159 102.046 108.123C101.634 107.067 101.045 106.571 100.066 106.001C98.1584 104.89 96.5406 105.756 94.426 106.39Z" fill="#ACC7D2"/>
<path d="M72.365 119.266C70.2266 117.352 63.4654 119.299 65.3517 121.462C66.1813 122.413 67.0378 122.597 68.2775 122.836C70.4127 123.246 73.8212 123.633 73.6736 121.464C73.6058 120.468 73.1094 119.932 72.365 119.266Z" fill="#ACC7D2"/>
<path d="M86.9298 126.256C88.4681 124.424 87.968 121.17 87.7414 120.185C87.5148 119.2 87.1625 118.574 85.3395 117.576C82.5387 116.044 79.1995 115.117 77.1634 117.576C76.151 118.799 75.9639 119.874 75.9682 121.462C75.976 124.303 77.2374 126.494 79.8479 127.617C82.4349 128.729 85.1189 128.412 86.9298 126.256Z" fill="#ACC7D2"/>
<path d="M90.1819 108.596C90.6166 106.78 92.6368 106.927 94.426 106.39C96.5406 105.756 98.1584 104.89 100.066 106.001C101.045 106.571 101.634 107.067 102.046 108.123C102.45 109.159 102.526 109.968 102.046 110.971C101.191 112.757 99.1115 112.252 97.132 112.219V112.219C94.8802 112.181 92.2764 112.166 90.5884 110.675C90.3978 110.507 90.2539 110.307 90.1819 110.069C90.0148 109.519 90.048 109.156 90.1819 108.596Z" fill="#ACC7D2"/>
<path fill-rule="evenodd" clip-rule="evenodd" d="M88.9767 78.7168C87.8254 79.33 85.3846 78.8788 84.5716 80.5562C83.3735 83.0284 87.3807 85.4025 90.0864 84.9244C91.8663 84.61 93.3519 83.7624 93.6581 81.9814C93.8872 80.6485 93.6021 79.5043 92.5024 78.7168C91.3831 77.9152 90.128 78.1037 88.9767 78.7168ZM72.4418 21.3252C70.3295 22.8368 65.8668 20.8583 66.4629 23.2355C66.9639 25.2338 69.396 25.0314 71.4547 24.9445C73.4832 24.8589 74.2078 23.1034 76.2258 22.8795C78.781 22.5959 80.0036 24.4827 82.5698 24.6376V24.6376C83.6636 24.7037 84.3876 23.7716 83.6284 22.9814C83.1488 22.4821 82.3989 21.9104 81.2276 21.3252C77.7967 19.6111 74.5542 19.8136 72.4418 21.3252ZM48.2084 45.0606C47.3349 44.7944 46.2103 44.8615 45.2163 45.023C43.6045 45.2848 41.1081 45.3631 40.9602 46.9893V46.9893C40.8518 48.1813 42.8222 47.3198 43.9132 47.8128C45.9262 48.7224 46.2427 50.4852 48.2084 51.4931C49.7234 52.2699 51.0394 53.8024 52.3815 52.7549C53.6762 51.7445 52.9867 50.0766 52.3815 48.55C51.5986 46.5754 50.2406 45.6799 48.2084 45.0606ZM29.9538 139.418C30.5624 134.213 31.4112 131.398 32.9068 126.542C33.8591 123.45 35.3303 120.006 36.8512 116.817L36.8562 116.807L36.8792 116.759C40.5699 109.033 45.0787 102.069 50.2645 96.1731C50.2667 96.1706 50.2689 96.1681 50.2711 96.1657L50.2956 96.1378C52.1642 94.016 54.1589 91.9599 55.9934 90.4892C58.3722 88.5821 64.2516 85.261 65.2814 84.6837C65.3863 84.625 65.6469 84.4828 65.5422 84.5418V84.5418L65.5416 84.5421C65.4997 84.5658 65.4546 84.5912 65.434 84.6031C65.4287 84.6062 65.425 84.6084 65.4234 84.6094V84.6094C65.422 84.6103 65.4257 84.6087 65.4272 84.6079C65.4273 84.6078 65.4274 84.6078 65.4276 84.6077C65.4336 84.6046 65.4394 84.601 65.4448 84.597V84.597C64.5932 85.2333 63.2798 86.4726 61.9219 87.7538L61.9217 87.754C61.9214 87.7543 61.921 87.7546 61.9207 87.7549C60.8946 88.7231 59.8431 89.7152 58.9463 90.4892L58.668 90.7583C53.4926 95.7622 48.7199 101.166 44.3942 106.921V106.921C44.0272 107.46 43.6769 107.969 43.3414 108.456C43.3398 108.459 43.3383 108.461 43.3368 108.463L43.3366 108.463C41.5226 111.097 40.1427 113.101 38.9171 115.982L38.9169 115.982C38.4001 117.197 37.8499 118.49 37.202 119.92C36.842 120.714 36.526 121.39 36.2329 122.018C35.6222 123.325 35.1093 124.781 34.5035 126.5V126.5C33.9807 127.985 33.504 129.481 33.0751 130.995C31.8881 135.186 29.4926 143.362 29.9538 139.418Z" fill="#ACC7D2"/>
<path fill-rule="evenodd" clip-rule="evenodd" d="M50.9331 189.206C53.3258 187.251 54.8655 186.159 57.6443 185.895C57.8469 185.876 58.0471 185.856 58.2451 185.836L58.2453 185.836C60.8744 185.569 63.098 185.344 64.8925 188.102C66.0846 189.935 66.3523 191.542 66.5032 193.989C66.628 196.013 66.3811 197.204 65.9662 199.139C65.5781 200.949 64.6876 202.79 63.7411 204.366V204.366C61.2644 208.491 57.9965 200.268 53.7979 197.918C53.6009 197.807 53.4036 197.722 53.2075 197.667C51.1894 197.103 49.7767 197.854 48.107 199.507C46.3141 201.281 45.4973 203.135 45.154 206.129C44.7732 209.45 45.6827 211.519 46.93 214.355L46.9334 214.363V214.363C46.9999 214.514 47.0686 214.662 47.1437 214.809C47.5742 215.653 49.143 218.627 49.696 218.269C50.8497 217.523 48.2783 215.682 47.8079 211.279C47.6797 210.08 47.5143 209.717 47.4433 208.704C47.373 207.701 47.4433 207.185 47.4433 206.129C47.4433 204.612 48.7291 201.979 50.2717 200.978C51.3312 200.291 52.1254 200.191 53.476 200.978C55.089 201.919 56.2084 205.256 56.7451 207.224C57.0123 208.204 57.7624 209.399 57.1074 210.176V210.176V210.176C56.3232 211.105 54.9263 209.696 53.826 209.177C53.074 208.823 52.2274 208.652 51.7385 209.293C50.1786 211.338 51.9659 215.112 53.2075 217.532C53.7747 218.637 55.1814 220.213 56.0682 221.153C56.5719 221.687 57.1736 222.115 57.8303 222.443L60.5106 223.781C60.9775 224.014 61.5314 223.99 61.9768 223.718V223.718C62.3352 223.499 62.5999 223.137 62.5538 222.719C62.4876 222.119 62.1735 221.262 60.9925 220.844C60.629 220.716 60.3146 220.663 60.0151 220.613C59.5433 220.535 59.1084 220.462 58.5765 220.108C58.2242 219.874 57.8796 219.572 57.5609 219.251C56.3059 217.985 54.9003 216.311 55.3626 214.59V214.59V214.59C55.7755 213.052 57.5157 211.662 59.0236 212.174C59.6112 212.373 60.1602 212.835 60.5617 213.519C61.5767 215.248 62.9629 217.275 64.3556 218.269C66.5442 219.831 67.1499 219.612 68.5184 219.169C70.2906 218.594 67.1231 217.332 65.6978 214.59C65.5931 214.389 65.4929 214.202 65.3976 214.025C64.9224 213.141 64.5659 212.477 64.3556 211.279C63.8973 208.67 64.4502 206.726 65.6978 204.657C66.513 203.305 67.1792 202.68 68.3823 202.082C69.9593 201.299 71.3541 200.67 72.6775 202.082C73.3181 202.766 73.6889 204.236 73.8726 205.203C73.9722 205.727 73.734 206.241 73.3539 206.39C72.7956 206.608 72.5935 207.56 72.9663 208.17C73.705 209.379 74.7611 211.216 75.362 212.751C75.5582 213.252 75.6523 213.724 75.7421 214.173C75.8757 214.842 75.9997 215.463 76.4358 216.062C77.1391 217.028 77.9231 217.008 78.7882 216.985C79.3161 216.972 79.8741 216.957 80.4625 217.165C80.978 217.348 81.5636 217.591 82.145 217.849C83.8925 218.624 84.7362 221.286 84.054 223.623C83.8127 224.45 83.3981 225.16 82.8627 225.665L80.7853 227.622C79.9385 228.42 78.8258 228.447 77.9588 227.691C77.4394 227.238 76.8338 227.067 76.2508 227.172C75.2979 227.343 74.8103 228.379 74.0197 228.938V228.938C73.9158 229.011 73.7965 229.078 73.6688 229.137C72.6037 229.635 71.4059 229.781 70.2906 230.152V230.152C66.1083 231.546 61.8396 232.968 57.6443 231.881C55.6314 231.359 54.4269 230.608 52.779 229.581C52.4528 229.378 52.1092 229.163 51.7385 228.938C51.3784 228.719 51.0514 228.532 50.7441 228.356C49.7715 227.8 48.9949 227.356 47.9802 226.363C47.5391 225.931 47.1231 225.561 46.7312 225.213C45.4045 224.034 44.3542 223.1 43.5433 220.844C43.3879 220.412 43.1864 219.99 42.9836 219.566C42.67 218.91 42.3535 218.247 42.2011 217.532C41.2614 213.118 41.4992 209.699 42.2011 205.203C42.7005 202.004 43.3749 200.32 44.4495 197.637L44.4511 197.633C44.5417 197.407 44.6351 197.173 44.7315 196.932C45.1485 195.885 45.7678 195.102 46.3956 194.307C46.7541 193.854 47.1154 193.397 47.4433 192.885C48.5579 191.146 49.4249 190.438 50.8548 189.27L50.9331 189.206Z" fill="#ACC7D2"/>
<path d="M51.1428 147.673C51.1036 149.214 42.3957 157.927 42.9014 159.422C43.4393 161.013 45.4973 158.712 46.8477 157.714C48.7269 156.325 57.694 147.254 58.1225 145.366C58.6122 143.207 55.6258 141.585 53.4777 142.118C51.1934 142.685 51.2028 145.321 51.1428 147.673Z" fill="#ACC7D2"/>
<path fill-rule="evenodd" clip-rule="evenodd" d="M93.0489 102.928C94.5995 104.132 96.3704 104.576 97.8419 104.478C102.314 104.179 106.63 102.698 107.23 106.39C107.331 107.016 107.295 107.542 107.178 108.043C106.856 109.424 105.834 110.526 104.713 111.394V111.394C104.562 111.511 104.417 111.632 104.271 111.756C103.614 112.316 101.578 113.975 99.9092 114.533C96.7415 115.591 91.3857 113.852 91.3781 113.849C91.3779 113.849 91.378 113.849 91.3778 113.849V113.849C90.2634 113.583 88.9865 113.277 87.3645 113.012C85.8706 112.768 84.8691 112.465 84.054 112.219C82.6859 111.805 81.8427 111.549 80.0776 112C78.8695 112.309 77.627 113.193 77.7003 114.437V114.437C77.8301 116.641 80.4264 114.317 83.3377 114.852C86.4376 115.42 90.2091 116.498 91.5254 119.266C92.8417 122.035 92.8481 123.202 91.9281 126.256L91.902 126.343L91.8807 126.413L91.856 126.496L91.8531 126.505L91.8529 126.506V126.506C90.8985 129.682 86.444 129.404 83.1291 129.498L78.6641 129.623C78.0824 129.277 77.4921 128.957 76.9078 128.681C75.649 128.088 74.2443 127.939 72.8524 127.939V127.939V127.939C69.7716 125.457 65.7807 124.17 61.825 124.263C61.2493 124.276 60.6744 124.323 60.1229 124.417C59.3625 124.545 58.4995 124.766 57.6517 125.018C54.81 125.862 52.3465 127.605 50.2835 129.734L50.1402 129.882C49.188 130.864 48.342 131.945 47.6164 133.105V133.105C47.2704 133.658 46.8964 134.193 46.5077 134.717C45.1919 136.491 42.0038 140.955 40.3859 144.65C37.5032 151.235 36.944 155.823 36.0907 163.412C35.5789 167.965 35.5945 168.423 35.4257 170.879C35.3658 171.75 34.9503 173.223 33.9342 171.962C33.8677 171.879 33.8084 171.779 33.7558 171.664C31.9897 167.809 33.504 163.215 33.9342 158.996V158.996C34.5926 152.54 36.0612 148.859 37.7014 142.811C38.3394 140.458 39.3901 137.853 40.485 135.462C41.1057 134.106 41.7407 132.819 42.3227 131.687C43.8244 128.765 45.6032 125.995 47.6449 123.421V123.421C50.0832 120.348 53.6341 116.252 56.7613 114.116C58.4878 112.936 60.4597 111.687 62.2974 110.559C66.5341 107.958 70.8087 105.174 75.6549 104.065V104.065C75.8881 104.012 76.1338 103.963 76.388 103.918C80.5292 103.193 84.7929 103.017 88.9752 103.447V103.447C92.0516 103.763 93.0489 102.928 93.0489 102.928ZM86.9298 126.256C88.4681 124.424 87.968 121.17 87.7414 120.185C87.5148 119.2 87.1625 118.574 85.3395 117.576C82.5387 116.044 79.1995 115.117 77.1634 117.576C76.151 118.799 75.9639 119.874 75.9682 121.462C75.976 124.303 77.2374 126.494 79.8479 127.617C82.4349 128.729 85.1189 128.412 86.9298 126.256ZM72.365 119.266C70.2266 117.352 63.4654 119.299 65.3517 121.462C66.1813 122.413 67.0378 122.597 68.2775 122.836C70.4127 123.246 73.8212 123.633 73.6736 121.464C73.6058 120.468 73.1094 119.932 72.365 119.266ZM90.1819 108.596C90.6166 106.78 92.6368 106.927 94.426 106.39C96.5406 105.756 98.1584 104.89 100.066 106.001C101.045 106.571 101.634 107.067 102.046 108.123C102.45 109.159 102.526 109.968 102.046 110.971C101.191 112.757 99.1115 112.252 97.132 112.219V112.219C94.8802 112.181 92.2764 112.166 90.5884 110.675C90.3978 110.507 90.2539 110.307 90.1819 110.069C90.0148 109.519 90.048 109.156 90.1819 108.596Z" fill="#ACC7D2"/>
<path fill-rule="evenodd" clip-rule="evenodd" d="M89.4697 92.4076C87.8761 92.9823 87.3184 93.9462 85.895 94.8647C84.4375 95.8052 82.1542 95.4274 82.0927 97.1606C82.0578 98.1437 82.6223 98.6292 83.2095 99.4185C83.8399 100.266 84.2696 100.759 85.2114 101.237C87.3456 102.321 89.0093 101.028 91.2499 100.185V100.185C93.3733 99.3871 95.6469 98.114 96.284 95.9369C96.3235 95.8019 96.351 95.6672 96.3635 95.5342C96.4852 94.2478 96.1702 93.3449 95.2805 92.4076C93.7184 90.7619 91.6044 91.6378 89.4697 92.4076Z" fill="#ACC7D2"/>
<path d="M85.895 94.8647C87.3184 93.9462 87.8761 92.9823 89.4697 92.4076C91.6044 91.6378 93.7184 90.7619 95.2805 92.4076C96.1702 93.3449 96.4852 94.2478 96.3635 95.5342C96.351 95.6672 96.3235 95.8019 96.284 95.9369C95.6469 98.114 93.3733 99.3871 91.2499 100.185V100.185C89.0093 101.028 87.3456 102.321 85.2114 101.237C84.2696 100.759 83.8399 100.266 83.2095 99.4185C82.6223 98.6292 82.0578 98.1437 82.0927 97.1606C82.1542 95.4274 84.4375 95.8052 85.895 94.8647Z" fill="#ACC7D2"/>
<path fill-rule="evenodd" clip-rule="evenodd" d="M79.8479 92.4076C74.1369 94.101 72.2297 95.8712 66.7272 100.185C61.3603 104.393 58.1797 107.638 55.8995 109.964L55.7962 110.069V110.069C50.4327 115.312 44.0724 119.92 40.6481 126.594C40.117 127.629 39.7155 128.683 39.5306 129.712C39.209 131.502 38.3063 132.866 39.3364 134.364C39.6877 134.876 40.485 135.462 40.485 135.462C41.1057 134.106 41.7407 132.819 42.3227 131.687C43.8244 128.765 45.6032 125.995 47.6449 123.421V123.421C50.0832 120.348 53.6341 116.252 56.7613 114.116C58.4878 112.936 60.4597 111.687 62.2974 110.559C66.5341 107.958 70.8087 105.174 75.6549 104.065V104.065C75.8881 104.012 76.1338 103.963 76.388 103.918C80.5292 103.193 84.7929 103.017 88.9752 103.447V103.447C92.0516 103.763 93.0489 102.928 93.0489 102.928C93.0489 102.928 97.0499 99.6092 99.048 96.4559C100.182 94.6668 99.4104 93.1999 98.5111 92.4076C95.4934 89.7491 92.9789 90.0036 89.6164 90.3439L89.6161 90.344V90.344C86.3606 91.0317 83.038 91.4617 79.8479 92.4076V92.4076ZM89.4697 92.4076C87.8761 92.9823 87.3184 93.9462 85.895 94.8647C84.4375 95.8052 82.1542 95.4274 82.0927 97.1606C82.0578 98.1437 82.6223 98.6292 83.2095 99.4185C83.8399 100.266 84.2696 100.759 85.2114 101.237C87.3456 102.321 89.0093 101.028 91.2499 100.185V100.185C93.3733 99.3871 95.6469 98.114 96.284 95.9369C96.3235 95.8019 96.351 95.6672 96.3635 95.5342C96.4852 94.2478 96.1702 93.3449 95.2805 92.4076C93.7184 90.7619 91.6044 91.6378 89.4697 92.4076Z" fill="#ACC7D2"/>
<path fill-rule="evenodd" clip-rule="evenodd" d="M33.7121 202.326V202.326C34.8771 199.859 33.1576 197.022 31.9567 194.572C31.4963 193.632 30.9856 192.618 30.4763 191.658C29.3522 189.539 27.226 179.419 26.7632 177.175C26.7059 176.898 26.802 176.618 27.0128 176.428V176.428C27.478 176.008 28.2247 176.246 28.3504 176.86C29.4381 182.166 33.5424 200.552 37.0279 194.307C37.7079 193.089 36.677 193.1 36.3024 192.257C35.373 190.167 32.9615 182.368 32.1014 175.471C31.7491 172.645 31.66 170.732 31.5637 168.483L31.5637 168.482C31.5524 168.322 31.5462 168.158 31.5446 167.991C31.4593 165.558 31.3865 162.748 31.5645 159.652C31.996 152.148 32.6425 147.82 34.7859 140.889C35.6763 138.011 35.8334 137.431 36.1282 134.786C36.423 132.142 35.7068 132.69 36.1282 131.692C36.5496 130.694 36.8963 129.703 38.1215 126.799C40.2178 121.83 42.6759 114.945 45.8899 110.011C48.851 105.465 54.4213 99.386 56.6484 97.0144C57.2837 96.3379 57.9465 95.6937 58.6477 95.0858V95.0858C61.3267 92.7634 68.6299 86.7068 74.2479 84.603C75.6159 84.0907 76.4652 83.6595 77.1761 83.2984C78.435 82.6591 79.2602 82.2401 81.7645 81.9814C84.2688 81.7226 83.0601 84.3978 82.0329 84.9244C80.118 85.9062 75.801 86.0119 73.1741 87.1782C70.5472 88.3444 72.2917 88.8494 72.2993 90.0049C72.3233 93.6615 75.415 87.9274 81.2276 87.1782C84.6588 86.7359 86.7367 88.0431 90.0864 87.1782C92.43 86.5731 94.0868 86.8295 95.7238 84.603C97.0817 82.7562 97.1527 82.1523 96.7976 80.5562C96.4214 78.8652 95.894 77.6971 93.8447 77.2453C91.9655 76.8309 87.8755 72.0783 92.234 69.8875C96.5925 67.6967 104.776 58.166 103.777 63.2655C103.471 64.8284 103.203 65.7928 102.088 66.9772C98.3786 70.9194 100.461 68.8464 99.2695 69.8875C97.9809 71.0136 96.0108 70.7758 95.7238 72.4627C95.3431 74.7011 99.4691 72.6238 101.406 71.2256C103.449 69.751 104.978 67.9348 105.656 65.105C106.092 63.2887 106.589 61.6846 105.656 60.3225C105.11 59.5245 104.603 59.4256 103.777 59.2188C102.293 58.8472 101.519 60.3922 100.019 60.3225V60.3225C97.5166 60.2062 95.0058 60.1994 92.5027 60.3002C92.3503 60.3063 92.1995 60.3137 92.0519 60.3225C89.7099 60.4614 88.3234 62.4928 86.865 61.0582C85.0859 59.3083 88.8067 57.6708 90.0864 55.5399C90.7713 54.3994 91.4278 53.5563 92.0519 52.7549C93.1069 51.4002 94.0691 50.1646 94.9185 47.8128C95.0217 47.5269 95.1217 47.2531 95.2181 46.9893C96.4681 43.5669 97.1056 41.8215 96.2607 37.1442C94.8882 29.5452 91.7125 24.8079 86.5966 21.3252C83.2257 19.0304 81.2244 18.0009 77.4693 17.6478C73.3689 17.2623 70.708 17.1757 66.8692 19.188L66.6998 19.1468L66.619 19.3187C63.2278 21.0915 60.7281 22.3982 58.9463 26.845C57.7586 29.809 57.5105 31.9271 57.6041 35.3063C57.6081 35.4503 57.6117 35.5931 57.6152 35.7346C57.6184 35.8623 57.6214 35.9891 57.6244 36.1147C57.6973 39.1848 57.7558 41.6448 59.4832 43.7675C60.8574 45.4561 62.2465 45.491 63.9116 45.5329L63.9121 45.5329C64.3807 45.5447 64.8711 45.557 65.3891 45.6069C66.5101 45.7149 67.4069 45.4432 68.2849 45.1771C69.2978 44.8702 70.2856 44.5709 71.5634 44.8712C71.9941 44.9724 72.4364 45.0171 72.8673 45.0605L72.8676 45.0606L72.8678 45.0606L72.8681 45.0606C74.2031 45.1954 75.4281 45.319 75.8586 47.0785C76.0919 48.032 76.6916 49.0899 75.8586 49.6537C74.9996 50.2351 74.4536 48.7822 73.4426 48.55C71.3563 48.0709 69.5391 48.0938 68.0736 49.6537C67.504 50.2599 67.2795 50.6568 66.9998 51.4931C66.5193 52.9298 65.917 54.3886 66.9998 55.5399C68.4867 57.1208 71.973 51.1662 72.1003 53.3326C72.1542 54.2486 71.6945 54.7468 71.295 55.5399C70.1584 57.7959 68.1881 57.8347 66.3397 57.8711C65.1805 57.894 64.0692 57.9159 63.2415 58.483V58.483C62.1861 59.2062 63.2582 61.1419 64.2953 61.8911C64.4591 62.0094 64.6442 62.1049 64.8522 62.1619C66.1944 62.5298 72.2516 59.3359 72.1003 62.1619C71.9827 64.3603 68.0736 64.0013 67.5367 65.4729C67.1616 66.5009 64.2333 67.4324 65.3891 68.048C65.9443 68.3437 66.3721 68.1045 66.9998 68.048C69.5472 67.8188 70.5593 65.6509 73.1741 65.105C75.4318 64.6336 77.5192 66.668 79.08 65.105C79.6785 64.5056 80.2734 64.1422 80.4222 63.2655C80.6947 61.6605 78.756 61.1647 77.4693 60.3225C75.2751 58.8862 72.1726 61.5052 71.295 59.2188C70.3223 56.6848 74.6549 57.1285 76.6639 54.8041C77.1022 54.2971 77.5366 53.8413 77.9538 53.4036C79.5251 51.7549 80.8528 50.3619 81.2276 47.4464C81.6134 44.4449 81.3751 42.4745 80.4222 39.7208C79.3423 36.5999 78.281 34.4209 75.8586 33.4668C74.4557 32.9142 73.4949 33.7007 72.4419 34.5628C71.7148 35.1579 70.9437 35.7891 69.9527 36.0405C69.1982 36.2319 68.4884 36.509 67.8051 36.7757L67.8046 36.7759L67.8044 36.776C65.94 37.5037 64.2734 38.1543 62.4362 36.7778C61.2654 35.9006 60.4458 35.1999 60.0201 33.4668C59.5802 31.6759 59.9677 30.3928 60.557 28.6844C61.2541 26.6639 61.6172 25.1333 63.51 24.6377C66.3067 23.9053 61.9649 29.2724 62.7046 31.9953C62.8682 32.5974 62.8735 32.9782 63.2415 33.4668C64.4282 35.0423 66.2297 32.7907 68.0736 31.9953C68.8043 31.6801 69.361 31.3091 69.9039 30.9471C70.5611 30.509 71.1983 30.0842 72.1003 29.788C74.751 28.9175 76.4509 28.802 79.08 29.788C81.9418 30.8614 83.68 32.1194 85.5228 35.3063C87.1308 38.0873 87.8359 40.222 87.9388 43.7675C88.0534 47.7172 87.2873 50.2057 85.5228 53.3326C84.0091 56.0147 80.3375 55.6538 80.4222 58.483C80.4538 59.5362 80.7693 60.1623 81.2276 61.0582C81.4794 61.5506 81.8191 61.7956 82.147 62.0322C82.5416 62.3169 82.9193 62.5894 83.1067 63.2655C83.5677 64.9283 82.541 65.923 81.4529 66.9772C81.0996 67.3196 80.7397 67.6682 80.4222 68.048C76.7586 72.4311 73.5055 73.1985 68.6105 73.1985V73.1985C59.68 73.1985 51.9283 81.9263 45.9657 88.5747C43.8458 90.9383 41.7657 93.5045 40.1549 96.0075C39.9851 96.2714 39.8177 96.5311 39.6528 96.787L39.6526 96.7873C36.0272 102.414 33.5749 106.219 31.2961 113.298C29.6964 118.267 29.1576 121.507 28.3417 126.413L28.3416 126.414L28.3362 126.447L28.3361 126.447C28.2523 126.951 28.1657 127.471 28.0747 128.013C26.6051 136.766 26.2185 136.179 25.3442 136.447C23.599 136.981 24.1871 134.84 25.9271 125.07V125.07C28.0051 113.403 32.6413 102.253 38.0969 91.7328C38.6007 90.7614 39.1105 89.8446 39.618 89.0176C43.3949 82.8631 46.4082 80.653 50.8929 75.4058C52.8691 73.0936 53.1885 68.3423 55.9934 69.5196C58.9389 70.7559 51.2005 74.8458 53.3089 77.2453C55.713 79.9813 57.47 73.5353 59.4832 70.2554C60.9997 67.7847 64.8796 65.3403 62.7046 63.2655C61.7425 62.3477 60.7722 61.9681 59.4832 62.1619C57.8925 62.4011 57.1429 66.4676 55.9934 65.1049V65.1049C54.698 63.5695 56.7492 61.4415 58.0461 59.9074C59.1069 58.6528 60.3347 57.0447 61.0939 55.5399C62.1604 53.4259 62.2044 53.2705 61.6308 52.1824C61.6217 52.165 61.6126 52.1478 61.6036 52.1306L61.5927 52.1098L61.5708 52.0679L61.5492 52.0263C61.0948 51.1531 60.7953 50.5776 59.4832 51.4931C57.6148 52.7969 57.969 53.0059 57.1884 52.9646C56.5051 52.9285 56.0939 53.074 55.9934 51.4931C55.7653 47.9064 54.9425 45.4282 52.772 43.3996C50.6181 41.3866 48.3953 42.1898 45.8544 43.108L45.8539 43.1081L45.8537 43.1082C45.2274 43.3345 44.5819 43.5677 43.9132 43.7675C39.1948 45.1774 36.2413 46.7059 32.9068 51.4931C32.6815 51.8165 32.4614 52.1268 32.2475 52.4282C30.5164 54.8678 29.1955 56.7294 28.8801 60.3225C28.5237 64.382 29.1168 67.4626 31.2961 70.2554C33.0886 72.5525 29.6117 75.8738 31.2961 78.7168C34.3848 83.9302 40.7368 69.4045 40.9603 66.5765C41.0823 65.0318 39.9447 64.5558 38.7135 64.0406C38.5391 63.9676 38.34 63.862 38.1334 63.74C36.9208 63.0237 36.0356 61.8885 34.9778 60.9588V60.9588C34.4341 60.4809 34.0613 60.1533 33.4437 58.483C33.4162 58.4086 33.389 58.3356 33.3622 58.2639C33.344 58.2153 33.326 58.1672 33.3083 58.1197L33.3065 58.1151L33.306 58.1136C32.714 56.5325 32.3629 55.5947 33.1752 54.0683C33.8406 52.8182 35.2571 53.5294 35.5913 54.4362C35.6492 54.5935 35.8163 54.652 36.0529 54.6411C38.8501 54.5131 41.442 52.016 43.9132 53.3326V53.3326C44.9701 53.8956 45.5597 54.3985 46.3293 55.5399C47.4092 57.1415 47.5696 58.701 47.7686 60.6348L47.7686 60.6351C47.8183 61.1185 47.8705 61.6252 47.94 62.1619C47.9967 62.5995 48.0419 63.1037 48.0779 63.6113C48.2171 65.5746 47.9354 67.5387 47.3981 69.4321V69.4321C46.6922 71.9195 45.5106 74.2395 43.9747 76.3195C41.0068 80.3385 35.9288 87.5107 32.9068 93.4322C32.7477 93.744 32.5928 94.0468 32.4418 94.3422L32.4317 94.362L32.4299 94.3654C30.2593 98.6098 28.8829 101.301 27.2694 106.308C26.5524 108.533 25.8741 111.194 25.2602 113.931C22.7349 125.19 21.0498 136.667 20.71 148.201V148.201V148.201C20.5254 154.47 20.7566 160.747 21.2423 167C21.3151 167.937 21.3943 168.834 21.4791 169.628V169.628C22.3552 177.822 25.1016 185.686 27.8899 193.441C28.0439 193.87 28.1951 194.289 28.3417 194.693C29.7413 198.556 30.249 206.215 32.9068 203.43C33.2751 203.044 33.4705 202.838 33.7121 202.326ZM29.9538 139.418C30.5624 134.213 31.4112 131.398 32.9068 126.542C33.8591 123.45 35.3303 120.006 36.8512 116.817L36.8562 116.807L36.8792 116.759C40.5699 109.033 45.0787 102.069 50.2645 96.1731C50.2667 96.1706 50.2689 96.1681 50.2711 96.1657L50.2956 96.1378C52.1642 94.016 54.1589 91.9599 55.9934 90.4892C58.3722 88.5821 64.2516 85.261 65.2814 84.6837C65.3863 84.625 65.6469 84.4828 65.5422 84.5418V84.5418L65.5416 84.5421C65.4997 84.5658 65.4546 84.5912 65.434 84.6031C65.4287 84.6062 65.425 84.6084 65.4234 84.6094V84.6094C65.422 84.6103 65.4257 84.6087 65.4272 84.6079C65.4273 84.6078 65.4274 84.6078 65.4276 84.6077C65.4336 84.6046 65.4394 84.601 65.4448 84.597V84.597C64.5932 85.2333 63.2798 86.4726 61.9219 87.7538L61.9217 87.754L61.9207 87.7549C60.8946 88.7231 59.8431 89.7152 58.9463 90.4892L58.668 90.7583C53.4926 95.7622 48.7199 101.166 44.3942 106.921V106.921C44.0272 107.46 43.6769 107.969 43.3414 108.456L43.3368 108.463L43.3366 108.463C41.5226 111.097 40.1427 113.101 38.9171 115.982L38.9169 115.982C38.4001 117.197 37.8499 118.49 37.202 119.92C36.842 120.714 36.526 121.39 36.2329 122.018C35.6222 123.325 35.1093 124.781 34.5035 126.5V126.5C33.9807 127.985 33.504 129.481 33.0751 130.995C31.8881 135.186 29.4926 143.362 29.9538 139.418ZM88.9767 78.7168C87.8254 79.33 85.3846 78.8788 84.5716 80.5562C83.3735 83.0284 87.3807 85.4025 90.0864 84.9244C91.8663 84.61 93.3519 83.7624 93.6581 81.9814C93.8872 80.6485 93.6021 79.5043 92.5024 78.7168C91.3831 77.9152 90.128 78.1037 88.9767 78.7168ZM72.4418 21.3252C70.3295 22.8368 65.8668 20.8583 66.4629 23.2355C66.9639 25.2338 69.396 25.0314 71.4547 24.9445C73.4832 24.8589 74.2078 23.1034 76.2258 22.8795C78.781 22.5959 80.0036 24.4827 82.5698 24.6376V24.6376C83.6636 24.7037 84.3876 23.7716 83.6284 22.9814C83.1488 22.4821 82.3989 21.9104 81.2276 21.3252C77.7967 19.6111 74.5542 19.8136 72.4418 21.3252ZM48.2084 45.0606C47.3349 44.7944 46.2103 44.8615 45.2163 45.023C43.6045 45.2848 41.1081 45.3631 40.9602 46.9893V46.9893C40.8518 48.1813 42.8222 47.3198 43.9132 47.8128C45.9262 48.7224 46.2427 50.4852 48.2084 51.4931C49.7234 52.2699 51.0394 53.8024 52.3815 52.7549C53.6762 51.7445 52.9867 50.0766 52.3815 48.55C51.5986 46.5754 50.2406 45.6799 48.2084 45.0606Z" fill="#ACC7D2"/>
<path d="M66.8692 19.188C70.708 17.1757 73.3689 17.2623 77.4693 17.6478C81.2244 18.0009 83.2257 19.0304 86.5966 21.3252C91.7125 24.8079 94.8882 29.5452 96.2607 37.1442C97.1056 41.8215 96.4681 43.5669 95.2181 46.9893C95.1217 47.2531 95.0217 47.5269 94.9185 47.8128C94.0691 50.1646 93.1069 51.4002 92.0519 52.7549C91.4278 53.5563 90.7713 54.3994 90.0864 55.5399C88.8067 57.6708 85.0859 59.3083 86.865 61.0582C88.3234 62.4928 89.7099 60.4614 92.0519 60.3225C92.1995 60.3137 92.3503 60.3063 92.5027 60.3002C95.0058 60.1994 97.5166 60.2062 100.019 60.3225V60.3225C101.519 60.3922 102.293 58.8472 103.777 59.2188C104.603 59.4256 105.11 59.5245 105.656 60.3225C106.589 61.6846 106.092 63.2887 105.656 65.105C104.978 67.9348 103.449 69.751 101.406 71.2256C99.4691 72.6238 95.3431 74.7011 95.7238 72.4627C96.0108 70.7758 97.9809 71.0136 99.2695 69.8875C100.461 68.8464 98.3786 70.9194 102.088 66.9772C103.203 65.7928 103.471 64.8284 103.777 63.2655C104.776 58.166 96.5925 67.6967 92.234 69.8875C87.8755 72.0783 91.9655 76.8309 93.8447 77.2453C95.894 77.6971 96.4214 78.8652 96.7976 80.5562C97.1527 82.1523 97.0817 82.7562 95.7238 84.603C94.0868 86.8295 92.43 86.5731 90.0864 87.1782C86.7367 88.0431 84.6588 86.7359 81.2276 87.1782C75.415 87.9274 72.3233 93.6615 72.2993 90.0049C72.2917 88.8494 70.5472 88.3444 73.1741 87.1782C75.801 86.0119 80.118 85.9062 82.0329 84.9244C83.0601 84.3978 84.2688 81.7226 81.7645 81.9814C79.2602 82.2401 78.435 82.6591 77.1761 83.2984C76.4652 83.6595 75.6159 84.0907 74.2479 84.603C68.6299 86.7068 61.3267 92.7634 58.6477 95.0858V95.0858C57.9465 95.6937 57.2837 96.3379 56.6484 97.0144C54.4213 99.386 48.851 105.465 45.8899 110.011C42.6759 114.945 40.2178 121.83 38.1215 126.799C36.8963 129.703 36.5496 130.694 36.1282 131.692C35.7068 132.69 36.423 132.142 36.1282 134.786C35.8334 137.431 35.6763 138.011 34.7859 140.889C32.6425 147.82 31.996 152.148 31.5645 159.652C31.3865 162.748 31.4593 165.558 31.5446 167.991M66.8692 19.188L66.6998 19.1468M66.8692 19.188C66.8213 19.213 66.7473 19.122 66.6998 19.1468M66.8692 19.188C66.9031 19.1702 66.8351 19.2058 66.8692 19.188ZM66.8692 19.188C66.9126 19.1652 66.8255 19.2109 66.8692 19.188ZM93.0489 102.928C93.0489 102.928 97.0499 99.6092 99.048 96.4559C100.182 94.6668 99.4104 93.1999 98.5111 92.4076C95.4934 89.7491 92.9789 90.0036 89.6164 90.3439L89.6161 90.344V90.344C86.3606 91.0317 83.038 91.4617 79.8479 92.4076V92.4076C74.1369 94.101 72.2297 95.8712 66.7272 100.185C61.3603 104.393 58.1797 107.638 55.8995 109.964M93.0489 102.928C94.5995 104.132 96.3704 104.576 97.8419 104.478C102.314 104.179 106.63 102.698 107.23 106.39C107.331 107.016 107.295 107.542 107.178 108.043C106.856 109.424 105.834 110.526 104.713 111.394V111.394C104.562 111.511 104.417 111.632 104.271 111.756C103.614 112.316 101.578 113.975 99.9092 114.533C96.7415 115.591 91.3857 113.852 91.3781 113.849C91.3779 113.849 91.378 113.849 91.3778 113.849V113.849C90.2634 113.583 88.9865 113.277 87.3645 113.012C85.8706 112.768 84.8691 112.465 84.054 112.219C82.6859 111.805 81.8427 111.549 80.0776 112C78.8695 112.309 77.627 113.193 77.7003 114.437V114.437C77.8301 116.641 80.4264 114.317 83.3377 114.852C86.4376 115.42 90.2091 116.498 91.5254 119.266C92.8417 122.035 92.8481 123.202 91.9281 126.256M93.0489 102.928C93.0489 102.928 92.0516 103.763 88.9752 103.447V103.447C84.7929 103.017 80.5292 103.193 76.388 103.918C76.1338 103.963 75.8881 104.012 75.6549 104.065V104.065C70.8087 105.174 66.5341 107.958 62.2974 110.559C60.4597 111.687 58.4878 112.936 56.7613 114.116C53.6341 116.252 50.0832 120.348 47.6449 123.421V123.421C45.6032 125.995 43.8244 128.765 42.3227 131.687C41.7407 132.819 41.1057 134.106 40.485 135.462M91.9281 126.256L91.902 126.343M91.9281 126.256C91.9193 126.285 91.9106 126.314 91.902 126.343M38.3786 189.163C38.9155 190.635 39.653 189.327 39.7208 188.427C39.7886 187.528 39.8537 186.65 39.919 185.792M38.3786 189.163C37.8417 187.691 37.3379 180.426 37.5732 174.815C37.8186 168.964 38.3557 165.581 39.7208 160.1C40.7882 155.814 43.3343 151.167 45.1676 148.18M38.3786 189.163C38.9498 190.729 39.7864 187.533 39.919 185.792M50.9331 189.206C53.3258 187.251 54.8655 186.159 57.6443 185.895C57.8469 185.876 58.0471 185.856 58.2451 185.836L58.2453 185.836C60.8744 185.569 63.098 185.344 64.8925 188.102C66.0846 189.935 66.3523 191.542 66.5032 193.989C66.628 196.013 66.3811 197.204 65.9662 199.139C65.5781 200.949 64.6876 202.79 63.7411 204.366V204.366C61.2644 208.491 57.9965 200.268 53.7979 197.918C53.6009 197.807 53.4036 197.722 53.2075 197.667C51.1894 197.103 49.7767 197.854 48.107 199.507C46.3141 201.281 45.4973 203.135 45.154 206.129C44.7732 209.45 45.6827 211.519 46.93 214.355M50.9331 189.206L50.8548 189.27M50.9331 189.206C50.9068 189.228 50.8807 189.249 50.8548 189.27M50.2956 96.1378C52.1642 94.016 54.1589 91.9599 55.9934 90.4892C58.3722 88.5821 64.2516 85.261 65.2814 84.6837C65.3863 84.625 65.6469 84.4828 65.5422 84.5418V84.5418L65.5416 84.5421C65.4997 84.5658 65.4546 84.5912 65.434 84.6031C65.4287 84.6062 65.425 84.6084 65.4234 84.6094V84.6094C65.422 84.6103 65.4257 84.6087 65.4272 84.6079C65.4273 84.6078 65.4274 84.6078 65.4276 84.6077C65.4336 84.6046 65.4394 84.601 65.4448 84.597V84.597C64.5932 85.2333 63.2798 86.4726 61.9219 87.7538L61.9217 87.754M50.2956 96.1378C50.2874 96.1471 50.2793 96.1564 50.2711 96.1657M50.2956 96.1378L50.2711 96.1657M36.8562 116.807C36.8546 116.81 36.8529 116.814 36.8512 116.817M36.8562 116.807L36.8792 116.759M36.8562 116.807L36.8512 116.817M36.8562 116.807C36.8639 116.791 36.8715 116.775 36.8792 116.759M39.919 185.792C40.6505 176.188 41.4165 169.076 46.4321 161.572C46.9955 160.729 47.7388 159.795 48.4485 158.957M48.4485 158.957C48.4489 158.956 48.4494 158.956 48.4499 158.955M48.4485 158.957L48.4499 158.955M53.062 153.983C54.1045 152.933 55.3288 151.753 56.3646 150.903C61.1457 146.978 64.4839 145.926 70.0555 145.752C72.9028 145.664 77.6131 144.646 79.1828 147.96C79.7436 149.144 80.9603 150.85 79.7197 151.271C78.5651 151.663 78.7028 149.526 77.6249 148.956C77.4024 148.838 77.2299 148.74 77.0352 148.695C76.9616 148.679 76.8875 148.663 76.813 148.65C75.062 148.324 74.2878 151.081 74.8876 152.742C75.5072 154.458 78.109 154.582 79.1828 154.582C79.2545 154.582 79.3383 154.583 79.4328 154.584L79.4332 154.584C80.7536 154.599 84.1685 154.639 86.1625 152.374C87.5058 150.848 88.3265 149.138 88.847 146.856C89.7005 143.113 88.1211 138.312 86.1625 135.819C85.7802 135.333 85.4327 134.888 85.1134 134.479V134.479C85.1131 134.478 85.1133 134.479 85.113 134.478C85.1034 134.469 82.0261 131.621 78.6641 129.623M53.062 153.983V153.983C51.4768 155.581 49.9042 157.238 48.4499 158.955V158.955M53.062 153.983C51.4857 155.572 49.9321 157.205 48.4499 158.955M49.5493 142.181C50.9216 140.596 52.6867 138.73 54.2171 137.659C55.5203 136.747 57.0735 135.947 58.6713 135.26C63.4894 133.188 65.3245 132.754 64.8636 132.141C64.4857 131.638 62.3871 132.523 58.5122 133.98C55.6959 135.039 54.1219 135.808 51.5326 137.659C50.3403 138.511 49.0127 139.738 47.785 140.98C47.1778 141.594 46.4331 140.594 46.969 139.866C47.2564 139.476 47.536 139.108 47.8102 138.761C52.0491 133.395 58.1429 129.203 64.8636 127.939V127.939C67.9297 127.363 72.8524 127.939 72.8524 127.939M49.5493 142.181C47.9671 144.008 46.4996 146.01 45.1676 148.18M49.5493 142.181V142.181C47.9526 144.025 46.5116 145.999 45.2318 148.076C45.2105 148.111 45.1891 148.145 45.1676 148.18M50.8548 189.27C49.4249 190.438 48.5579 191.146 47.4433 192.885C47.1154 193.397 46.7541 193.854 46.3956 194.307C45.7678 195.102 45.1485 195.885 44.7315 196.932C44.6351 197.173 44.5417 197.407 44.4511 197.633M50.2711 96.1657C50.2689 96.1681 50.2667 96.1706 50.2645 96.1731M36.8512 116.817C35.3303 120.006 33.8591 123.45 32.9068 126.542C31.4112 131.398 30.5624 134.213 29.9538 139.418C29.4926 143.362 31.8881 135.186 33.0751 130.995C33.504 129.481 33.9807 127.985 34.5035 126.5V126.5C35.1093 124.781 35.6222 123.325 36.2329 122.018C36.526 121.39 36.842 120.714 37.202 119.92C37.8499 118.49 38.4001 117.197 38.9169 115.982L38.9171 115.982C40.1427 113.101 41.5226 111.097 43.3366 108.463L43.3368 108.463M36.8512 116.817C36.8605 116.798 36.8698 116.778 36.8792 116.759M31.5446 167.991C31.5462 168.158 31.5524 168.322 31.5637 168.482L31.5637 168.483M31.5446 167.991C31.5503 168.155 31.5567 168.319 31.5637 168.483M32.4299 94.3654C30.2593 98.6098 28.8829 101.301 27.2694 106.308C26.5524 108.533 25.8741 111.194 25.2602 113.931C22.7349 125.19 21.0498 136.667 20.71 148.201V148.201V148.201C20.5254 154.47 20.7566 160.747 21.2423 167C21.3151 167.937 21.3943 168.834 21.4791 169.628V169.628C22.3552 177.822 25.1016 185.686 27.8899 193.441C28.0439 193.87 28.1951 194.289 28.3417 194.693C29.7413 198.556 30.249 206.215 32.9068 203.43C33.2751 203.044 33.4705 202.838 33.7121 202.326V202.326C34.8771 199.859 33.1576 197.022 31.9567 194.572C31.4963 193.632 30.9856 192.618 30.4763 191.658C29.3522 189.539 27.226 179.419 26.7632 177.175C26.7059 176.898 26.802 176.618 27.0128 176.428V176.428C27.478 176.008 28.2247 176.246 28.3504 176.86C29.4381 182.166 33.5424 200.552 37.0279 194.307C37.7079 193.089 36.677 193.1 36.3024 192.257C35.373 190.167 32.9615 182.368 32.1014 175.471C31.7491 172.645 31.66 170.732 31.5637 168.483M32.4299 94.3654L32.4317 94.362M32.4299 94.3654C32.4305 94.3642 32.4311 94.3631 32.4317 94.362M33.306 58.1136C32.714 56.5325 32.3629 55.5947 33.1752 54.0683C33.8406 52.8182 35.2571 53.5294 35.5913 54.4362C35.6492 54.5935 35.8163 54.652 36.0529 54.6411C38.8501 54.5131 41.442 52.016 43.9132 53.3326V53.3326C44.9701 53.8956 45.5597 54.3985 46.3293 55.5399C47.4092 57.1415 47.5696 58.701 47.7686 60.6348L47.7686 60.6351C47.8183 61.1185 47.8705 61.6252 47.94 62.1619C47.9967 62.5995 48.0419 63.1037 48.0779 63.6113C48.2171 65.5746 47.9354 67.5387 47.3981 69.4321V69.4321C46.6922 71.9195 45.5106 74.2395 43.9747 76.3195C41.0068 80.3385 35.9288 87.5107 32.9068 93.4322C32.7477 93.744 32.5928 94.0468 32.4418 94.3422M33.306 58.1136L33.3065 58.1151M33.306 58.1136C33.3061 58.1141 33.3063 58.1146 33.3065 58.1151M33.3065 58.1151L33.3083 58.1197M33.3065 58.1151C33.3071 58.1166 33.3077 58.1182 33.3083 58.1197M33.3083 58.1197C33.326 58.1672 33.344 58.2153 33.3622 58.2639C33.389 58.3356 33.4162 58.4086 33.4437 58.483C34.0613 60.1533 34.4341 60.4809 34.9778 60.9588V60.9588C36.0356 61.8885 36.9208 63.0237 38.1334 63.74C38.34 63.862 38.5391 63.9676 38.7135 64.0406C39.9447 64.5558 41.0823 65.0318 40.9603 66.5765C40.7368 69.4045 34.3848 83.9302 31.2961 78.7168C29.6117 75.8738 33.0886 72.5525 31.2961 70.2554C29.1168 67.4626 28.5237 64.382 28.8801 60.3225C29.1955 56.7294 30.5164 54.8678 32.2475 52.4282C32.4614 52.1268 32.6815 51.8165 32.9068 51.4931C36.2413 46.7059 39.1948 45.1774 43.9132 43.7675C44.5819 43.5677 45.2274 43.3345 45.8537 43.1082L45.8539 43.1081L45.8544 43.108C48.3953 42.1898 50.6181 41.3866 52.772 43.3996C54.9425 45.4282 55.7653 47.9064 55.9934 51.4931C56.0939 53.074 56.5051 52.9285 57.1884 52.9646C57.969 53.0059 57.6148 52.7969 59.4832 51.4931C60.7953 50.5776 61.0948 51.1531 61.5492 52.0263M61.5492 52.0263L61.5708 52.0679M61.5492 52.0263C61.5564 52.0401 61.5636 52.0539 61.5708 52.0679M61.5708 52.0679L61.5927 52.1098M61.5708 52.0679C61.5781 52.0818 61.5854 52.0958 61.5927 52.1098M61.6036 52.1306C61.6126 52.1478 61.6217 52.165 61.6308 52.1824C62.2044 53.2705 62.1604 53.4259 61.0939 55.5399C60.3347 57.0447 59.1069 58.6528 58.0461 59.9074C56.7492 61.4415 54.698 63.5695 55.9934 65.1049V65.1049C57.1429 66.4676 57.8925 62.4011 59.4832 62.1619C60.7722 61.9681 61.7425 62.3477 62.7046 63.2655C64.8796 65.3403 60.9997 67.7847 59.4832 70.2554C57.47 73.5353 55.713 79.9813 53.3089 77.2453C51.2005 74.8458 58.9389 70.7559 55.9934 69.5196C53.1885 68.3423 52.8691 73.0936 50.8929 75.4058C46.4082 80.653 43.3949 82.8631 39.618 89.0176C39.1105 89.8446 38.6007 90.7614 38.0969 91.7328C32.6413 102.253 28.0051 113.403 25.9271 125.07V125.07C24.1871 134.84 23.599 136.981 25.3442 136.447C26.2185 136.179 26.6051 136.766 28.0747 128.013C28.1657 127.471 28.2523 126.951 28.3361 126.447L28.3362 126.447M61.6036 52.1306L61.5927 52.1098M61.6036 52.1306C61.5999 52.1236 61.5963 52.1167 61.5927 52.1098M72.8678 45.0606L72.8681 45.0606C74.2031 45.1954 75.4281 45.319 75.8586 47.0785C76.0919 48.032 76.6916 49.0899 75.8586 49.6537C74.9996 50.2351 74.4536 48.7822 73.4426 48.55C71.3563 48.0709 69.5391 48.0938 68.0736 49.6537C67.504 50.2599 67.2795 50.6568 66.9998 51.4931C66.5193 52.9298 65.917 54.3886 66.9998 55.5399C68.4867 57.1208 71.973 51.1662 72.1003 53.3326C72.1542 54.2486 71.6945 54.7468 71.295 55.5399C70.1584 57.7959 68.1881 57.8347 66.3397 57.8711C65.1805 57.894 64.0692 57.9159 63.2415 58.483V58.483C62.1861 59.2062 63.2582 61.1419 64.2953 61.8911C64.4591 62.0094 64.6442 62.1049 64.8522 62.1619C66.1944 62.5298 72.2516 59.3359 72.1003 62.1619C71.9827 64.3603 68.0736 64.0013 67.5367 65.4729C67.1616 66.5009 64.2333 67.4324 65.3891 68.048C65.9443 68.3437 66.3721 68.1045 66.9998 68.048C69.5472 67.8188 70.5593 65.6509 73.1741 65.105C75.4318 64.6336 77.5192 66.668 79.08 65.105C79.6785 64.5056 80.2734 64.1422 80.4222 63.2655C80.6947 61.6605 78.756 61.1647 77.4693 60.3225C75.2751 58.8862 72.1726 61.5052 71.295 59.2188C70.3223 56.6848 74.6549 57.1285 76.6639 54.8041C77.1022 54.2971 77.5366 53.8413 77.9538 53.4036C79.5251 51.7549 80.8528 50.3619 81.2276 47.4464C81.6134 44.4449 81.3751 42.4745 80.4222 39.7208C79.3423 36.5999 78.281 34.4209 75.8586 33.4668C74.4557 32.9142 73.4949 33.7007 72.4419 34.5628C71.7148 35.1579 70.9437 35.7891 69.9527 36.0405C69.1982 36.2319 68.4884 36.509 67.8051 36.7757L67.8046 36.7759L67.8044 36.776C65.94 37.5037 64.2734 38.1543 62.4362 36.7778C61.2654 35.9006 60.4458 35.1999 60.0201 33.4668C59.5802 31.6759 59.9677 30.3928 60.557 28.6844C61.2541 26.6639 61.6172 25.1333 63.51 24.6377C66.3067 23.9053 61.9649 29.2724 62.7046 31.9953C62.8682 32.5974 62.8735 32.9782 63.2415 33.4668C64.4282 35.0423 66.2297 32.7907 68.0736 31.9953C68.8043 31.6801 69.361 31.3091 69.9039 30.9471C70.5611 30.509 71.1983 30.0842 72.1003 29.788C74.751 28.9175 76.4509 28.802 79.08 29.788C81.9418 30.8614 83.68 32.1194 85.5228 35.3063C87.1308 38.0873 87.8359 40.222 87.9388 43.7675C88.0534 47.7172 87.2873 50.2057 85.5228 53.3326C84.0091 56.0147 80.3375 55.6538 80.4222 58.483C80.4538 59.5362 80.7693 60.1623 81.2276 61.0582C81.4794 61.5506 81.8191 61.7956 82.147 62.0322C82.5416 62.3169 82.9193 62.5894 83.1067 63.2655C83.5677 64.9283 82.541 65.923 81.4529 66.9772C81.0996 67.3196 80.7397 67.6682 80.4222 68.048C76.7586 72.4311 73.5055 73.1985 68.6105 73.1985V73.1985C59.68 73.1985 51.9283 81.9263 45.9657 88.5747C43.8458 90.9383 41.7657 93.5045 40.1549 96.0075C39.9851 96.2714 39.8177 96.5311 39.6528 96.787L39.6526 96.7873C36.0272 102.414 33.5749 106.219 31.2961 113.298C29.6964 118.267 29.1576 121.507 28.3417 126.413L28.3416 126.414M72.8678 45.0606L72.8676 45.0606L72.8673 45.0605M72.8678 45.0606L72.8673 45.0605M66.619 19.3187C63.2278 21.0915 60.7281 22.3982 58.9463 26.845C57.7586 29.809 57.5105 31.9271 57.6041 35.3063C57.6081 35.4503 57.6117 35.5931 57.6152 35.7346C57.6184 35.8623 57.6214 35.9891 57.6244 36.1147C57.6973 39.1848 57.7558 41.6448 59.4832 43.7675C60.8574 45.4561 62.2465 45.491 63.9116 45.5329L63.9121 45.5329C64.3807 45.5447 64.8711 45.557 65.3891 45.6069C66.5101 45.7149 67.4069 45.4432 68.2849 45.1771C69.2978 44.8702 70.2856 44.5709 71.5634 44.8712C71.9941 44.9724 72.4364 45.0171 72.8673 45.0605M66.619 19.3187L66.6998 19.1468M66.619 19.3187C66.8692 19.1878 66.9448 19.0188 66.6998 19.1468M55.7962 110.069L55.8995 109.964M55.7962 110.069C55.8304 110.034 55.8648 109.999 55.8995 109.964M55.7962 110.069V110.069C50.4327 115.312 44.0724 119.92 40.6481 126.594C40.117 127.629 39.7155 128.683 39.5306 129.712C39.209 131.502 38.3063 132.866 39.3364 134.364C39.6877 134.876 40.485 135.462 40.485 135.462M61.9217 87.754L61.9207 87.7549M61.9217 87.754C61.9214 87.7543 61.921 87.7546 61.9207 87.7549M36.8792 116.759C37.0514 116.398 37.864 116.489 38.0367 116.136V116.136C41.4022 109.257 44.9551 102.358 49.9412 96.5455C50.048 96.4209 50.1558 96.2968 50.2645 96.1731M36.8792 116.759C40.5699 109.033 45.0787 102.069 50.2645 96.1731M91.8531 126.505L91.8529 126.506V126.506C90.8985 129.682 86.444 129.404 83.1291 129.498L78.6641 129.623M91.8531 126.505L91.856 126.496M91.8531 126.505C91.854 126.502 91.855 126.499 91.856 126.496M28.3416 126.414L28.3362 126.447M28.3416 126.414C28.3398 126.425 28.338 126.436 28.3362 126.447M91.856 126.496L91.8807 126.413M91.856 126.496C91.8642 126.468 91.8724 126.441 91.8807 126.413M32.4317 94.362L32.4418 94.3422M32.4317 94.362C32.435 94.3554 32.4384 94.3488 32.4418 94.3422M43.3368 108.463L43.3414 108.456M43.3368 108.463C43.3383 108.461 43.3398 108.459 43.3414 108.456M44.4495 197.637C43.3749 200.32 42.7005 202.004 42.2011 205.203C41.4992 209.699 41.2614 213.118 42.2011 217.532C42.3535 218.247 42.67 218.91 42.9836 219.566C43.1864 219.99 43.3879 220.412 43.5433 220.844C44.3542 223.1 45.4045 224.034 46.7312 225.213C47.1231 225.561 47.5391 225.931 47.9802 226.363C48.9949 227.356 49.7715 227.8 50.7441 228.356C51.0514 228.532 51.3784 228.719 51.7385 228.938C52.1092 229.163 52.4528 229.378 52.779 229.581C54.4269 230.608 55.6314 231.359 57.6443 231.881C61.8396 232.968 66.1083 231.546 70.2906 230.152V230.152C71.4059 229.781 72.6037 229.635 73.6688 229.137C73.7965 229.078 73.9158 229.011 74.0197 228.938V228.938C74.8103 228.379 75.2979 227.343 76.2508 227.172C76.8338 227.067 77.4394 227.238 77.9588 227.691C78.8258 228.447 79.9385 228.42 80.7853 227.622L82.8627 225.665C83.3981 225.16 83.8127 224.45 84.054 223.623C84.7362 221.286 83.8925 218.624 82.145 217.849C81.5636 217.591 80.978 217.348 80.4625 217.165C79.8741 216.957 79.3161 216.972 78.7882 216.985C77.9231 217.008 77.1391 217.028 76.4358 216.062C75.9997 215.463 75.8757 214.842 75.7421 214.173C75.6523 213.724 75.5582 213.252 75.362 212.751C74.7611 211.216 73.705 209.379 72.9663 208.17C72.5935 207.56 72.7956 206.608 73.3539 206.39C73.734 206.241 73.9722 205.727 73.8726 205.203C73.6889 204.236 73.3181 202.766 72.6775 202.082C71.3541 200.67 69.9593 201.299 68.3823 202.082C67.1792 202.68 66.513 203.305 65.6978 204.657C64.4502 206.726 63.8973 208.67 64.3556 211.279C64.5659 212.477 64.9224 213.141 65.3976 214.025C65.4929 214.202 65.5931 214.389 65.6978 214.59C67.1231 217.332 70.2906 218.594 68.5184 219.169C67.1499 219.612 66.5442 219.831 64.3556 218.269C62.9629 217.275 61.5767 215.248 60.5617 213.519C60.1602 212.835 59.6112 212.373 59.0236 212.174C57.5157 211.662 55.7755 213.052 55.3626 214.59V214.59V214.59C54.9003 216.311 56.3059 217.985 57.5609 219.251C57.8796 219.572 58.2242 219.874 58.5765 220.108C59.1084 220.462 59.5433 220.535 60.0151 220.613C60.3146 220.663 60.629 220.716 60.9925 220.844C62.1735 221.262 62.4876 222.119 62.5538 222.719C62.5999 223.137 62.3352 223.499 61.9768 223.718V223.718C61.5314 223.99 60.9775 224.014 60.5106 223.781L57.8303 222.443C57.1736 222.115 56.5719 221.687 56.0682 221.153C55.1814 220.213 53.7747 218.637 53.2075 217.532C51.9659 215.112 50.1786 211.338 51.7385 209.293C52.2274 208.652 53.074 208.823 53.826 209.177C54.9263 209.696 56.3232 211.105 57.1074 210.176V210.176V210.176C57.7624 209.399 57.0123 208.204 56.7451 207.224C56.2084 205.256 55.089 201.919 53.476 200.978C52.1254 200.191 51.3312 200.291 50.2717 200.978C48.7291 201.979 47.4433 204.612 47.4433 206.129C47.4433 207.185 47.373 207.701 47.4433 208.704C47.5143 209.717 47.6797 210.08 47.8079 211.279C48.2783 215.682 50.8497 217.523 49.696 218.269C49.143 218.627 47.5742 215.653 47.1437 214.809C47.0686 214.662 46.9999 214.514 46.9334 214.363V214.363M44.4495 197.637L44.4511 197.633M44.4495 197.637C44.4501 197.636 44.4506 197.634 44.4511 197.633M46.93 214.355L46.9334 214.363M46.93 214.355C46.9312 214.358 46.9323 214.361 46.9334 214.363M72.8524 127.939V127.939C69.7716 125.457 65.7807 124.17 61.825 124.263C61.2493 124.276 60.6744 124.323 60.1229 124.417C59.3625 124.545 58.4995 124.766 57.6517 125.018C54.81 125.862 52.3465 127.605 50.2835 129.734L50.1402 129.882C49.188 130.864 48.342 131.945 47.6164 133.105V133.105C47.2704 133.658 46.8964 134.193 46.5077 134.717C45.1919 136.491 42.0038 140.955 40.3859 144.65C37.5032 151.235 36.944 155.823 36.0907 163.412C35.5789 167.965 35.5945 168.423 35.4257 170.879C35.3658 171.75 34.9503 173.223 33.9342 171.962C33.8677 171.879 33.8084 171.779 33.7558 171.664C31.9897 167.809 33.504 163.215 33.9342 158.996V158.996C34.5926 152.54 36.0612 148.859 37.7014 142.811C38.3394 140.458 39.3901 137.853 40.485 135.462M72.8524 127.939V127.939C74.2443 127.939 75.649 128.088 76.9078 128.681C77.4921 128.957 78.0824 129.277 78.6641 129.623M72.8524 127.939C73.1194 128.155 73.381 128.36 73.6303 128.547C73.923 128.767 74.2814 128.878 74.6476 128.878V128.878C75.0138 128.878 75.3601 129.042 75.721 129.104C75.9764 129.148 76.1977 129.09 76.48 129.119C76.9595 129.169 77.4061 129.4 77.8808 129.484L78.6641 129.623M91.8807 126.413L91.902 126.343M91.8807 126.413C91.8878 126.39 91.8949 126.366 91.902 126.343M61.9207 87.7549C60.8946 88.7231 59.8431 89.7152 58.9463 90.4892L58.668 90.7583C53.4926 95.7622 48.7199 101.166 44.3942 106.921V106.921C44.0272 107.46 43.6769 107.969 43.3414 108.456M49.9219 167.09C48.5773 171.306 47.8052 177.655 47.4592 181.138C47.3107 182.633 46.8403 183.915 45.4365 184.193C43.732 184.531 42.3843 183.06 42.4858 180.863C42.5821 178.779 42.7857 176.321 43.2107 174.448C44.3425 169.459 45.5267 166.61 48.3112 163.043C49.557 161.447 51.136 163.706 50.3691 165.793C50.2055 166.239 50.0545 166.674 49.9219 167.09ZM82.6726 148.696C80.9797 149.423 81.0401 146.301 79.7197 145.017C77.6549 143.008 76.2913 141.851 73.5454 140.98C70.4479 139.996 64.5051 144.149 65.2235 140.98C65.3204 140.552 65.5619 140.155 65.8813 139.795C67.6457 137.805 70.612 137.659 73.2713 137.659V137.659C75.6177 137.659 78.0039 137.94 80.038 139.109C81.0678 139.702 82.0905 140.456 82.6726 141.338C83.6681 142.845 84.2982 143.963 84.054 145.752C83.8824 147.01 83.8394 148.194 82.6726 148.696ZM86.9298 126.256C88.4681 124.424 87.968 121.17 87.7414 120.185C87.5148 119.2 87.1625 118.574 85.3395 117.576C82.5387 116.044 79.1995 115.117 77.1634 117.576C76.151 118.799 75.9639 119.874 75.9682 121.462C75.976 124.303 77.2374 126.494 79.8479 127.617C82.4349 128.729 85.1189 128.412 86.9298 126.256ZM72.365 119.266C70.2266 117.352 63.4654 119.299 65.3517 121.462C66.1813 122.413 67.0378 122.597 68.2775 122.836C70.4127 123.246 73.8212 123.633 73.6736 121.464C73.6058 120.468 73.1094 119.932 72.365 119.266ZM51.1428 147.673C51.1036 149.214 42.3957 157.927 42.9014 159.422C43.4393 161.013 45.4973 158.712 46.8477 157.714C48.7269 156.325 57.694 147.254 58.1225 145.366C58.6122 143.207 55.6258 141.585 53.4777 142.118C51.1934 142.685 51.2028 145.321 51.1428 147.673ZM90.1819 108.596C90.6166 106.78 92.6368 106.927 94.426 106.39C96.5406 105.756 98.1584 104.89 100.066 106.001C101.045 106.571 101.634 107.067 102.046 108.123C102.45 109.159 102.526 109.968 102.046 110.971C101.191 112.757 99.1115 112.252 97.132 112.219V112.219C94.8802 112.181 92.2764 112.166 90.5884 110.675C90.3978 110.507 90.2539 110.307 90.1819 110.069C90.0148 109.519 90.048 109.156 90.1819 108.596ZM85.895 94.8647C87.3184 93.9462 87.8761 92.9823 89.4697 92.4076C91.6044 91.6378 93.7184 90.7619 95.2805 92.4076C96.1702 93.3449 96.4852 94.2478 96.3635 95.5342C96.351 95.6672 96.3235 95.8019 96.284 95.9369C95.6469 98.114 93.3733 99.3871 91.2499 100.185V100.185C89.0093 101.028 87.3456 102.321 85.2114 101.237C84.2696 100.759 83.8399 100.266 83.2095 99.4185C82.6223 98.6292 82.0578 98.1437 82.0927 97.1606C82.1542 95.4274 84.4375 95.8052 85.895 94.8647ZM84.5716 80.5562C85.3846 78.8788 87.8254 79.33 88.9767 78.7168C90.128 78.1037 91.3831 77.9152 92.5024 78.7168C93.6021 79.5043 93.8872 80.6485 93.6581 81.9814C93.3519 83.7624 91.8663 84.61 90.0864 84.9244C87.3807 85.4025 83.3735 83.0284 84.5716 80.5562ZM66.4629 23.2355C65.8668 20.8583 70.3295 22.8368 72.4418 21.3252C74.5542 19.8136 77.7967 19.6111 81.2276 21.3252C82.3989 21.9104 83.1488 22.4821 83.6284 22.9814C84.3876 23.7716 83.6636 24.7037 82.5698 24.6376V24.6376C80.0036 24.4827 78.781 22.5959 76.2258 22.8795C74.2078 23.1034 73.4832 24.8589 71.4547 24.9445C69.396 25.0314 66.9639 25.2338 66.4629 23.2355ZM48.2084 45.0606C47.3349 44.7944 46.2103 44.8615 45.2163 45.023C43.6045 45.2848 41.1081 45.3631 40.9602 46.9893V46.9893C40.8518 48.1813 42.8222 47.3198 43.9132 47.8128C45.9262 48.7224 46.2427 50.4852 48.2084 51.4931C49.7234 52.2699 51.0394 53.8024 52.3815 52.7549C53.6762 51.7445 52.9867 50.0766 52.3815 48.55C51.5986 46.5754 50.2406 45.6799 48.2084 45.0606Z" stroke="#398EB0"/>
</g>
<defs>
<filter id="filter0_d_3679_12" x="50.1855" y="4.41016" width="145.205" height="248.906" filterUnits="userSpaceOnUse" color-interpolation-filters="sRGB">
<feFlood flood-opacity="0" result="BackgroundImageFix"/>
<feColorMatrix in="SourceAlpha" type="matrix" values="0 0 0 0 0 0 0 0 0 0 0 0 0 0 0 0 0 0 127 0" result="hardAlpha"/>
<feOffset dy="4"/>
<feGaussianBlur stdDeviation="10"/>
<feComposite in2="hardAlpha" operator="out"/>
<feColorMatrix type="matrix" values="0 0 0 0 0 0 0 0 0 0 0 0 0 0 0 0 0 0 0.25 0"/>
<feBlend mode="normal" in2="BackgroundImageFix" result="effect1_dropShadow_3679_12"/>
<feBlend mode="normal" in="SourceGraphic" in2="effect1_dropShadow_3679_12" result="shape"/>
</filter>
<filter id="filter1_d_3679_12" x="5.37891" y="0.9375" width="127.643" height="255.836" filterUnits="userSpaceOnUse" color-interpolation-filters="sRGB">
<feFlood flood-opacity="0" result="BackgroundImageFix"/>
<feColorMatrix in="SourceAlpha" type="matrix" values="0 0 0 0 0 0 0 0 0 0 0 0 0 0 0 0 0 0 127 0" result="hardAlpha"/>
<feOffset dy="4"/>
<feGaussianBlur stdDeviation="10"/>
<feComposite in2="hardAlpha" operator="out"/>
<feColorMatrix type="matrix" values="0 0 0 0 0 0 0 0 0 0 0 0 0 0 0 0 0 0 0.25 0"/>
<feBlend mode="normal" in2="BackgroundImageFix" result="effect1_dropShadow_3679_12"/>
<feBlend mode="normal" in="SourceGraphic" in2="effect1_dropShadow_3679_12" result="shape"/>
</filter>
<filter id="filter2_d_3679_12" x="44.9531" y="4.40234" width="145.205" height="248.906" filterUnits="userSpaceOnUse" color-interpolation-filters="sRGB">
<feFlood flood-opacity="0" result="BackgroundImageFix"/>
<feColorMatrix in="SourceAlpha" type="matrix" values="0 0 0 0 0 0 0 0 0 0 0 0 0 0 0 0 0 0 127 0" result="hardAlpha"/>
<feOffset dy="4"/>
<feGaussianBlur stdDeviation="10"/>
<feComposite in2="hardAlpha" operator="out"/>
<feColorMatrix type="matrix" values="0 0 0 0 0 0 0 0 0 0 0 0 0 0 0 0 0 0 0.25 0"/>
<feBlend mode="normal" in2="BackgroundImageFix" result="effect1_dropShadow_3679_12"/>
<feBlend mode="normal" in="SourceGraphic" in2="effect1_dropShadow_3679_12" result="shape"/>
</filter>
<filter id="filter3_d_3679_12" x="0.146484" y="0.929688" width="127.643" height="255.836" filterUnits="userSpaceOnUse" color-interpolation-filters="sRGB">
<feFlood flood-opacity="0" result="BackgroundImageFix"/>
<feColorMatrix in="SourceAlpha" type="matrix" values="0 0 0 0 0 0 0 0 0 0 0 0 0 0 0 0 0 0 127 0" result="hardAlpha"/>
<feOffset dy="4"/>
<feGaussianBlur stdDeviation="10"/>
<feComposite in2="hardAlpha" operator="out"/>
<feColorMatrix type="matrix" values="0 0 0 0 0 0 0 0 0 0 0 0 0 0 0 0 0 0 0.25 0"/>
<feBlend mode="normal" in2="BackgroundImageFix" result="effect1_dropShadow_3679_12"/>
<feBlend mode="normal" in="SourceGraphic" in2="effect1_dropShadow_3679_12" result="shape"/>
</filter>
</defs>
</svg>
