<svg width="235" height="173" viewBox="0 0 235 173" fill="none" xmlns="http://www.w3.org/2000/svg">
<g filter="url(#filter0_d_3673_61)">
<path d="M106.037 105.912C106.037 105.912 106.396 116.164 103.093 122.045C99.5961 128.273 97.2902 132.054 89.2034 134.354C79.5766 137.092 69.8248 137.891 60.2596 132.377C49.6337 126.251 43.5298 117.802 40.5227 105.912C35.7284 86.9534 41.8636 71.057 54.9029 57.9472C54.9029 57.9472 67.4426 46.2157 75.7049 45.3594C83.7496 44.5257 93.8799 53.5068 93.8799 53.5068C95.5813 55.9266 96.3026 59.6496 96.5991 62.7563M106.037 105.912C106.037 105.912 101.912 123.107 91.3905 127.084C83.9602 129.892 76.953 130.92 68.4248 127.084C59.0598 122.872 54.3714 113.968 52.4055 104.296C50.7871 96.3331 53.5651 88.64 57.6146 82.8257C63.5171 74.3507 68.9547 71.8909 76.5122 70.019C88.0161 67.1697 93.2611 69.6137 102.314 74.3507C114.227 80.5846 119.122 87.268 122.465 99.964C125.654 112.07 123.052 122.425 117.192 133.487C111.508 144.219 106.262 148.416 96.0988 153.451C85.1848 158.858 77.3278 159.033 65.2121 157.782C55.1632 156.745 49.2292 153.866 40.5227 148.742C26.816 140.676 19.92 129.577 14.5505 115.031C9.90659 102.45 11.0819 95.9461 13.0435 83.9557C15.9751 66.0352 21.838 55.7141 34.5127 42.7107C46.2231 30.6965 55.3566 26.7968 71.0498 20.864C84.5559 15.758 92.4382 12.4318 106.644 13.1423C115.982 13.6093 121.21 15.2243 129.998 18.4157C140.641 22.2805 147.137 26.598 157.411 33.0587C166.497 38.772 179.718 49.114 179.718 49.114C179.718 49.114 197.929 60.5889 205.857 62.5327C211.857 64.0039 213.241 60.2257 213.241 60.2257L217.008 51.939C217.008 51.939 218.682 53.7216 220.43 56.3343M106.037 105.912L104.946 99.964C104.946 99.964 101.771 91.6011 97.5739 88.1346C90.6304 82.3993 82.334 80.153 74.7301 84.9785C70.057 87.9442 67.7719 91.2586 66.7648 96.701C65.9553 101.076 66.2959 104.066 68.4248 107.973C70.9066 112.527 78.9382 116.088 78.9382 116.088C74.0059 116.061 68.4248 112.254 66.0425 107.973C63.7424 103.839 62.5585 100.577 63.4987 96.0374C64.6262 90.5927 66.3719 87.0958 70.7325 83.716C76.4594 79.2772 81.7375 77.4319 89.2034 78.967C98.6814 80.9158 101.764 84.4383 106.644 92.7935C111.574 101.232 113.155 109.809 111.25 119.394C108.785 131.796 102.861 138.722 91.3905 144.042C80.8896 148.912 73.4777 149.305 61.8053 145.845C47.4929 141.602 38.7115 134.021 31.2969 120.747C22.5753 105.133 20.8866 92.9723 27.0888 75.2098C32.3038 60.2746 38.366 48.6084 51.359 42.146C61.5486 37.078 71.0498 39.6683 81.4931 42.7107C88.1148 44.6397 93.9847 48.7504 96.5991 55.1327C97.9785 58.5001 96.5991 62.7563 96.5991 62.7563M195.914 71.5257C195.914 71.5257 200.743 76.5723 204.766 78.1173C208.998 79.7426 211.815 80.742 216.339 79.0293C221.601 77.0368 223.22 73.5172 224.201 68.2357C224.947 64.2191 222.63 59.6202 220.43 56.3343M195.914 71.5257C195.914 71.5257 195.316 69.9479 194.899 68.9509C192.365 62.9036 186.498 54.4149 186.498 54.4149C186.498 54.4149 190.971 60.883 194.899 63.8853C199.547 67.4387 202.703 69.9451 208.554 70.0521C211.93 70.1138 214.293 70.2441 217.008 68.2357C218.746 66.9501 219.615 65.8875 220.43 63.8853C221.542 61.154 220.43 56.3343 220.43 56.3343M195.914 71.5257C195.914 71.5257 196.852 73.4987 197.924 76.3563C198.973 79.1563 200.151 82.8055 200.699 86.2803C200.933 87.7607 201.053 89.2094 200.999 90.5473C200.945 91.9239 200.755 93.5488 200.489 95.2618C199.461 101.879 197.284 109.811 197.284 109.811L187.816 97.3273C187.816 97.3273 189.57 113.519 186.498 123.129C183.847 131.419 181.554 134.683 175.164 140.592C172.175 143.357 167.483 146.28 163.74 148.415M96.5991 62.7563C96.737 64.2011 96.783 65.5126 96.7931 66.4977M96.7931 66.4977C96.8044 67.6116 96.7697 68.3081 96.7697 68.3081C96.7697 68.3081 102.351 70.8247 104.946 69.7883C107.525 68.7581 109.457 64.2906 109.457 64.2906C109.457 64.2906 113.023 67.7753 116.998 72.6076C118.944 74.9733 122.557 78.0325 124.779 79.8322M96.7931 66.4977C96.7931 66.4977 100.801 67.4506 103.051 66.4977C106.024 65.2392 107.917 59.8157 107.917 59.8157L117.503 69.7883C117.503 69.7883 122.381 73.7844 123.875 76.6582C124.674 78.196 124.779 79.8322 124.779 79.8322M124.779 79.8322C125.916 80.7529 126.689 81.3439 126.689 81.3439C126.689 81.3439 129.859 74.9533 131.024 69.7883C133.592 58.4088 133.21 49.7466 126.372 39.5512C122.647 33.9957 114.227 26.1544 114.227 26.1544C114.227 26.1544 128.524 35.1669 134.76 44.6259C138.891 50.8921 142.028 54.4123 143.923 62.2466C146.929 74.6767 146.165 83.1944 142.584 95.6555C141.124 100.736 139.059 107.708 139.059 107.708C139.059 107.708 146.114 108.863 150.149 106.932C155.359 104.44 160.319 96.1974 160.319 96.1974C160.319 96.1974 155.799 105.895 155.799 111.264C155.799 116.633 155.381 119.66 155.799 125.012C156.209 130.259 157.483 132.988 157.871 138.327C158.245 143.475 157.871 151.567 157.871 151.567C157.871 151.567 160.436 150.299 163.74 148.415M76.5122 20.864L86.0297 19.8109C86.0297 19.8109 97.5515 17.9769 104.946 18.4157C112.837 18.8839 117.341 19.7835 124.779 22.4601C135.78 26.4188 141.893 30.0771 150.149 38.355C154.023 42.2383 156.667 45.5064 159.638 50.1164M159.638 50.1164C163.08 54.387 165.68 59.1098 168.378 63.8853C171.075 68.6608 173.494 84.7995 173.073 98.3562C172.653 111.876 167.775 132.408 167.775 132.408C166.289 138.336 161.72 146.839 161.72 146.839C161.72 146.839 167.349 119.625 167.775 101.935C168.061 90.0479 168.636 83.1763 166.261 71.5257C164.436 62.5705 162.488 58.7999 159.638 50.1164ZM93.8799 19.8109C93.8799 19.8109 119.79 25.8449 126.689 28.8937C138.935 34.3053 144.417 42.1469 151.502 53.5068C156.1 60.8812 160.319 72.6076 160.319 72.6076M118.766 27.9476C118.766 27.9476 130.184 33.8856 135.985 39.5512C141.372 44.8115 144.125 48.3238 147.339 55.1327C149.642 60.0126 151.502 68.3081 151.502 68.3081M140.526 105.912C140.526 105.912 146.112 103.029 148.474 99.964C152.027 95.3532 153.323 90.5841 153.917 84.4019C154.753 75.7114 155.74 70.8508 153.394 62.7563C151.348 55.6966 143.923 46.4916 143.923 46.4916L139.059 39.5512M185.098 78.1173C185.098 78.1173 184.382 67.6019 179.718 61.0221C175.054 54.4424 171.396 50.7534 166.732 44.1736C162.068 37.5938 155.644 34.1525 155.644 34.1525L161.68 37.3225C161.68 37.3225 165.503 39.6703 167.775 41.4206C174.615 46.6891 177.535 50.8788 182.345 58.0489C188.133 66.6769 190.819 72.1487 193.577 82.1654C195.89 90.5642 196.44 104.288 196.44 104.288M179.718 121.919C179.718 121.919 176.58 131.797 173.073 137.336C170.047 142.116 163.74 148.415 163.74 148.415" stroke="#D87F7F"/>
<path d="M106.037 99.4858C106.037 99.4858 106.396 109.738 103.093 115.619C99.5961 121.848 97.2902 125.628 89.2034 127.928C79.5766 130.667 69.8248 131.465 60.2596 125.951C49.6337 119.826 43.5298 111.377 40.5227 99.4858C35.7284 80.5277 41.8636 64.6312 54.9029 51.5214C54.9029 51.5214 67.4426 39.7899 75.7049 38.9337C83.7496 38.0999 93.8799 47.081 93.8799 47.081C95.5813 49.5008 96.3026 53.2238 96.5991 56.3305C96.737 57.7753 96.783 59.0868 96.7931 60.0719C96.8044 61.1858 96.7697 61.8824 96.7697 61.8824C96.7697 61.8824 102.351 64.3989 104.946 63.3625C107.525 62.3324 109.457 57.8648 109.457 57.8648C109.457 57.8648 113.023 61.3496 116.998 66.1818C118.944 68.5476 122.557 71.6067 124.779 73.4064C125.916 74.3271 126.689 74.9182 126.689 74.9182C126.689 74.9182 129.859 68.5275 131.024 63.3625C133.592 51.9831 133.21 43.3208 126.372 33.1254C122.647 27.57 114.227 19.7286 114.227 19.7286C114.227 19.7286 128.524 28.7411 134.76 38.2001C138.891 44.4664 142.028 47.9865 143.923 55.8208C146.929 68.2509 146.165 76.7686 142.584 89.2297C141.124 94.3099 139.059 101.282 139.059 101.282C139.059 101.282 146.114 102.437 150.149 100.507C155.359 98.0143 160.319 89.7716 160.319 89.7716C160.319 89.7716 155.799 99.4692 155.799 104.838C155.799 110.207 155.381 113.234 155.799 118.587C156.209 123.833 157.483 126.562 157.871 131.901C158.245 137.049 157.871 145.142 157.871 145.142C157.871 145.142 160.436 143.873 163.74 141.989C167.483 139.855 172.175 136.931 175.164 134.166C181.554 128.257 183.847 124.993 186.498 116.703C189.57 107.093 187.816 90.9016 187.816 90.9016L197.284 103.385C197.284 103.385 199.461 95.4536 200.489 88.836C200.755 87.123 200.945 85.4981 200.999 84.1216C201.053 82.7837 200.933 81.3349 200.699 79.8545C200.151 76.3797 198.973 72.7305 197.924 69.9306C196.852 67.0729 195.914 65.0999 195.914 65.0999C195.914 65.0999 200.743 70.1465 204.766 71.6916C208.998 73.3168 211.815 74.3163 216.339 72.6035C221.601 70.611 223.22 67.0915 224.201 61.81C224.947 57.7933 222.63 53.1944 220.43 49.9085C218.682 47.2958 217.008 45.5132 217.008 45.5132L213.241 53.7999C213.241 53.7999 211.857 57.5781 205.857 56.1069C197.929 54.1631 179.718 42.6882 179.718 42.6882C179.718 42.6882 166.497 32.3462 157.411 26.6329C147.137 20.1722 140.641 15.8548 129.998 11.9899C121.21 8.79852 115.982 7.18347 106.644 6.71647C92.4382 6.00601 84.5559 9.33221 71.0498 14.4382C55.3566 20.371 46.2231 24.2707 34.5127 36.2849C21.838 49.2884 15.9751 59.6095 13.0435 77.5299C11.0819 89.5203 9.90659 96.0244 14.5505 108.605C19.92 123.151 26.816 134.25 40.5227 142.317C49.2292 147.441 55.1632 150.319 65.2121 151.357C77.3278 152.607 85.1848 152.432 96.0988 147.025C106.262 141.99 111.508 137.793 117.192 127.062C123.052 115.999 125.654 105.644 122.465 93.5382C119.122 80.8422 114.227 74.1588 102.314 67.9249C93.2611 63.1879 88.0161 60.7439 76.5122 63.5932C68.9547 65.4651 63.5171 67.9249 57.6146 76.3999C53.5651 82.2142 50.7871 89.9073 52.4055 97.8699C54.3714 107.542 59.0598 116.446 68.4248 120.658C76.953 124.494 83.9602 123.466 91.3905 120.658C101.912 116.682 106.037 99.4858 106.037 99.4858Z" fill="#D87F7F"/>
<path d="M106.037 99.4858C106.037 99.4858 106.396 109.738 103.093 115.619C99.5961 121.848 97.2902 125.628 89.2034 127.928C79.5766 130.667 69.8248 131.465 60.2596 125.951C49.6337 119.826 43.5298 111.377 40.5227 99.4858C35.7284 80.5277 41.8636 64.6312 54.9029 51.5214C54.9029 51.5214 67.4426 39.7899 75.7049 38.9336C83.7496 38.0999 93.8799 47.081 93.8799 47.081C95.5813 49.5008 96.3026 53.2238 96.5991 56.3305M106.037 99.4858C106.037 99.4858 101.912 116.682 91.3905 120.658C83.9602 123.466 76.953 124.494 68.4248 120.658C59.0598 116.446 54.3714 107.542 52.4055 97.8699C50.7871 89.9073 53.5651 82.2143 57.6146 76.3999C63.5171 67.9249 68.9547 65.4651 76.5122 63.5932C88.0161 60.7439 93.2611 63.1879 102.314 67.9249C114.227 74.1588 119.122 80.8422 122.465 93.5382C125.654 105.644 123.052 115.999 117.192 127.062C111.508 137.793 106.262 141.99 96.0988 147.025C85.1848 152.432 77.3278 152.607 65.2121 151.357C55.1632 150.319 49.2292 147.441 40.5227 142.317C26.816 134.25 19.92 123.151 14.5505 108.605C9.90659 96.0244 11.0819 89.5203 13.0435 77.5299C15.9751 59.6095 21.838 49.2884 34.5127 36.2849C46.2231 24.2707 55.3566 20.371 71.0498 14.4382C84.5559 9.33221 92.4382 6.00601 106.644 6.71647C115.982 7.18347 121.21 8.79852 129.998 11.9899C140.641 15.8548 147.137 20.1722 157.411 26.6329C166.497 32.3462 179.718 42.6882 179.718 42.6882C179.718 42.6882 197.929 54.1631 205.857 56.1069C211.857 57.5781 213.241 53.7999 213.241 53.7999L217.008 45.5132C217.008 45.5132 218.682 47.2959 220.43 49.9085M106.037 99.4858L104.946 93.5382C104.946 93.5382 101.771 85.1753 97.5739 81.7088C90.6304 75.9735 82.334 73.7272 74.7301 78.5527C70.057 81.5184 67.7719 84.8329 66.7648 90.2752C65.9553 94.6502 66.2959 97.6399 68.4248 101.547C70.9066 106.101 78.9382 109.662 78.9382 109.662C74.0059 109.635 68.4248 105.828 66.0425 101.547C63.7424 97.4133 62.5585 94.1516 63.4987 89.6116C64.6262 84.1669 66.3719 80.67 70.7325 77.2902C76.4594 72.8515 81.7375 71.0062 89.2034 72.5412C98.6814 74.49 101.764 78.0126 106.644 86.3677C111.574 94.8059 113.155 103.384 111.25 112.969C108.785 125.37 102.861 132.296 91.3905 137.616C80.8896 142.486 73.4777 142.88 61.8053 139.419C47.4929 135.176 38.7115 127.595 31.2969 114.321C22.5753 98.7074 20.8866 86.5465 27.0888 68.784C32.3038 53.8488 38.366 42.1826 51.359 35.7203C61.5486 30.6522 71.0498 33.2425 81.4931 36.2849C88.1148 38.2139 93.9847 42.3247 96.5991 48.7069C97.9785 52.0743 96.5991 56.3305 96.5991 56.3305M195.914 65.0999C195.914 65.0999 200.743 70.1465 204.766 71.6916C208.998 73.3168 211.815 74.3163 216.339 72.6035C221.601 70.611 223.22 67.0915 224.201 61.81C224.947 57.7933 222.63 53.1944 220.43 49.9085M195.914 65.0999C195.914 65.0999 195.316 63.5221 194.899 62.5251C192.365 56.4778 186.498 47.9891 186.498 47.9891C186.498 47.9891 190.971 54.4572 194.899 57.4595C199.547 61.0129 202.703 63.5194 208.554 63.6263C211.93 63.688 214.293 63.8183 217.008 61.81C218.746 60.5243 219.615 59.4617 220.43 57.4595C221.542 54.7283 220.43 49.9085 220.43 49.9085M195.914 65.0999C195.914 65.0999 196.852 67.0729 197.924 69.9306C198.973 72.7305 200.151 76.3797 200.699 79.8545C200.933 81.3349 201.053 82.7837 200.999 84.1216C200.945 85.4981 200.755 87.123 200.489 88.836C199.461 95.4536 197.284 103.385 197.284 103.385L187.816 90.9016C187.816 90.9016 189.57 107.093 186.498 116.703C183.847 124.993 181.554 128.257 175.164 134.166C172.175 136.931 167.483 139.855 163.74 141.989M96.5991 56.3305C96.737 57.7753 96.783 59.0868 96.7931 60.0719M96.7931 60.0719C96.8044 61.1858 96.7697 61.8824 96.7697 61.8824C96.7697 61.8824 102.351 64.3989 104.946 63.3625C107.525 62.3324 109.457 57.8648 109.457 57.8648C109.457 57.8648 113.023 61.3496 116.998 66.1818C118.944 68.5476 122.557 71.6067 124.779 73.4064M96.7931 60.0719C96.7931 60.0719 100.801 61.0248 103.051 60.0719C106.024 58.8134 107.917 53.3899 107.917 53.3899L117.503 63.3625C117.503 63.3625 122.381 67.3586 123.875 70.2324C124.674 71.7702 124.779 73.4064 124.779 73.4064M124.779 73.4064C125.916 74.3271 126.689 74.9182 126.689 74.9182C126.689 74.9182 129.859 68.5275 131.024 63.3625C133.592 51.9831 133.21 43.3208 126.372 33.1254C122.647 27.57 114.227 19.7286 114.227 19.7286C114.227 19.7286 128.524 28.7411 134.76 38.2001C138.891 44.4664 142.028 47.9865 143.923 55.8208C146.929 68.2509 146.165 76.7686 142.584 89.2297C141.124 94.3099 139.059 101.282 139.059 101.282C139.059 101.282 146.114 102.437 150.149 100.507C155.359 98.0143 160.319 89.7716 160.319 89.7716C160.319 89.7716 155.799 99.4692 155.799 104.838C155.799 110.207 155.381 113.234 155.799 118.587C156.209 123.833 157.483 126.562 157.871 131.901C158.245 137.049 157.871 145.142 157.871 145.142C157.871 145.142 160.436 143.873 163.74 141.989M76.5122 14.4382L86.0297 13.3852C86.0297 13.3852 97.5515 11.5511 104.946 11.9899C112.837 12.4581 117.341 13.3577 124.779 16.0343C135.78 19.993 141.893 23.6513 150.149 31.9292C154.023 35.8125 156.667 39.0807 159.638 43.6907M159.638 43.6907C163.08 47.9612 165.68 52.684 168.378 57.4595C171.075 62.235 173.494 78.3737 173.073 91.9305C172.653 105.451 167.775 125.982 167.775 125.982C166.289 131.911 161.72 140.413 161.72 140.413C161.72 140.413 167.349 113.199 167.775 95.5088C168.061 83.6221 168.636 76.7505 166.261 65.0999C164.436 56.1447 162.488 52.3741 159.638 43.6907ZM93.8799 13.3852C93.8799 13.3852 119.79 19.4192 126.689 22.468C138.935 27.8795 144.417 35.7211 151.502 47.081C156.1 54.4554 160.319 66.1818 160.319 66.1818M118.766 21.5218C118.766 21.5218 130.184 27.4598 135.985 33.1254C141.372 38.3857 144.125 41.898 147.339 48.7069C149.642 53.5869 151.502 61.8824 151.502 61.8824M140.526 99.4858C140.526 99.4858 146.112 96.6029 148.474 93.5382C152.027 88.9275 153.323 84.1583 153.917 77.9762C154.753 69.2856 155.74 64.425 153.394 56.3305C151.348 49.2708 143.923 40.0659 143.923 40.0659L139.059 33.1254M185.098 71.6916C185.098 71.6916 184.382 61.1761 179.718 54.5964C175.054 48.0166 171.396 44.3276 166.732 37.7478C162.068 31.168 155.644 27.7268 155.644 27.7268L161.68 30.8967C161.68 30.8967 165.503 33.2445 167.775 34.9948C174.615 40.2633 177.535 44.453 182.345 51.6231C188.133 60.2511 190.819 65.7229 193.577 75.7396C195.89 84.1384 196.44 97.862 196.44 97.862M179.718 115.493C179.718 115.493 176.58 125.371 173.073 130.91C170.047 135.69 163.74 141.989 163.74 141.989" stroke="#F4D1D1"/>
</g>
<defs>
<filter id="filter0_d_3673_61" x="0.818359" y="0.121094" width="234.025" height="172.801" filterUnits="userSpaceOnUse" color-interpolation-filters="sRGB">
<feFlood flood-opacity="0" result="BackgroundImageFix"/>
<feColorMatrix in="SourceAlpha" type="matrix" values="0 0 0 0 0 0 0 0 0 0 0 0 0 0 0 0 0 0 127 0" result="hardAlpha"/>
<feOffset dy="4"/>
<feGaussianBlur stdDeviation="5"/>
<feComposite in2="hardAlpha" operator="out"/>
<feColorMatrix type="matrix" values="0 0 0 0 0 0 0 0 0 0 0 0 0 0 0 0 0 0 0.25 0"/>
<feBlend mode="normal" in2="BackgroundImageFix" result="effect1_dropShadow_3673_61"/>
<feBlend mode="normal" in="SourceGraphic" in2="effect1_dropShadow_3673_61" result="shape"/>
</filter>
</defs>
</svg>
