<svg width="236" height="173" viewBox="0 0 236 173" fill="none" xmlns="http://www.w3.org/2000/svg">
<g filter="url(#filter0_d_3675_73)">
<path d="M129.791 105.912C129.791 105.912 129.432 116.164 132.735 122.045C136.232 128.273 138.538 132.054 146.625 134.354C156.252 137.092 166.003 137.891 175.569 132.377C186.194 126.251 192.298 117.802 195.305 105.912C200.1 86.9534 193.965 71.057 180.925 57.9472C180.925 57.9472 168.385 46.2157 160.123 45.3594C152.079 44.5257 141.948 53.5068 141.948 53.5068C140.247 55.9266 139.526 59.6496 139.229 62.7563M129.791 105.912C129.791 105.912 133.916 123.107 144.438 127.084C151.868 129.892 158.875 130.92 167.403 127.084C176.768 122.872 181.457 113.968 183.423 104.296C185.041 96.3331 182.263 88.64 178.214 82.8257C172.311 74.3507 166.873 71.8909 159.316 70.019C147.812 67.1697 142.567 69.6137 133.514 74.3507C121.601 80.5846 116.707 87.268 113.363 99.964C110.174 112.07 112.776 122.425 118.636 133.487C124.32 144.219 129.566 148.416 139.729 153.451C150.643 158.858 158.5 159.033 170.616 157.782C180.665 156.745 186.599 153.866 195.305 148.742C209.012 140.676 215.908 129.577 221.278 115.031C225.922 102.45 224.746 95.9461 222.785 83.9557C219.853 66.0352 213.99 55.7141 201.315 42.7107C189.605 30.6965 180.472 26.7968 164.778 20.864C151.272 15.758 143.39 12.4318 129.184 13.1423C119.846 13.6093 114.619 15.2243 105.83 18.4157C95.1875 22.2805 88.6916 26.598 78.4169 33.0587C69.3308 38.772 56.1104 49.114 56.1104 49.114C56.1104 49.114 37.899 60.5889 29.9712 62.5327C23.9708 64.0039 22.587 60.2257 22.587 60.2257L18.8204 51.939C18.8204 51.939 17.1464 53.7216 15.3978 56.3343M129.791 105.912L130.882 99.964C130.882 99.964 134.058 91.6011 138.254 88.1346C145.198 82.3993 153.494 80.153 161.098 84.9785C165.771 87.9442 168.056 91.2586 169.063 96.701C169.873 101.076 169.532 104.066 167.403 107.973C164.922 112.527 156.89 116.088 156.89 116.088C161.822 116.061 167.403 112.254 169.786 107.973C172.086 103.839 173.27 100.577 172.329 96.0374C171.202 90.5927 169.456 87.0958 165.096 83.716C159.369 79.2772 154.091 77.4319 146.625 78.967C137.147 80.9158 134.065 84.4383 129.184 92.7935C124.254 101.232 122.673 109.809 124.578 119.394C127.043 131.796 132.967 138.722 144.438 144.042C154.938 148.912 162.35 149.305 174.023 145.845C188.335 141.602 197.117 134.021 204.531 120.747C213.253 105.133 214.942 92.9723 208.739 75.2098C203.524 60.2746 197.462 48.6084 184.469 42.146C174.28 37.078 164.778 39.6683 154.335 42.7107C147.713 44.6397 141.843 48.7504 139.229 55.1327C137.85 58.5001 139.229 62.7563 139.229 62.7563M39.9137 71.5257C39.9137 71.5257 35.0855 76.5723 31.062 78.1173C26.8298 79.7426 24.0126 80.742 19.4891 79.0293C14.227 77.0368 12.608 73.5172 11.6272 68.2357C10.8812 64.2191 13.1986 59.6202 15.3978 56.3343M39.9137 71.5257C39.9137 71.5257 40.5119 69.9479 40.9296 68.9509C43.463 62.9036 49.3304 54.4149 49.3304 54.4149C49.3304 54.4149 44.8574 60.883 40.9296 63.8853C36.2809 67.4387 33.1248 69.9451 27.2746 70.0521C23.8982 70.1138 21.5352 70.2441 18.8204 68.2357C17.0825 66.9501 16.2128 65.8875 15.3978 63.8853C14.2861 61.154 15.3978 56.3343 15.3978 56.3343M39.9137 71.5257C39.9137 71.5257 38.9758 73.4987 37.9045 76.3563C36.855 79.1563 35.6774 82.8055 35.1288 86.2803C34.8951 87.7607 34.7756 89.2094 34.8287 90.5473C34.8834 91.9239 35.0727 93.5488 35.3389 95.2618C36.3675 101.879 38.5444 109.811 38.5444 109.811L48.0121 97.3273C48.0121 97.3273 46.2578 113.519 49.3304 123.129C51.981 131.419 54.2745 134.683 60.6644 140.592C63.6536 143.357 68.3453 146.28 72.088 148.415M139.229 62.7563C139.091 64.2011 139.045 65.5126 139.035 66.4977M139.035 66.4977C139.024 67.6116 139.058 68.3081 139.058 68.3081C139.058 68.3081 133.477 70.8247 130.882 69.7883C128.303 68.7581 126.372 64.2906 126.372 64.2906C126.372 64.2906 122.805 67.7753 118.83 72.6076C116.884 74.9733 113.271 78.0325 111.049 79.8322M139.035 66.4977C139.035 66.4977 135.027 67.4506 132.777 66.4977C129.804 65.2392 127.911 59.8157 127.911 59.8157L118.325 69.7883C118.325 69.7883 113.447 73.7844 111.953 76.6582C111.154 78.196 111.049 79.8322 111.049 79.8322M111.049 79.8322C109.912 80.7529 109.139 81.3439 109.139 81.3439C109.139 81.3439 105.969 74.9533 104.804 69.7883C102.236 58.4088 102.618 49.7466 109.456 39.5512C113.181 33.9957 121.601 26.1544 121.601 26.1544C121.601 26.1544 107.304 35.1669 101.068 44.6259C96.9374 50.8921 93.8002 54.4123 91.9054 62.2466C88.8992 74.6767 89.6634 83.1944 93.2446 95.6555C94.7046 100.736 96.7687 107.708 96.7687 107.708C96.7687 107.708 89.7145 108.863 85.6787 106.932C80.4693 104.44 75.5087 96.1974 75.5087 96.1974C75.5087 96.1974 80.0287 105.895 80.0287 111.264C80.0287 116.633 80.4468 119.66 80.0287 125.012C79.6189 130.259 78.3447 132.988 77.9571 138.327C77.5833 143.475 77.9571 151.567 77.9571 151.567C77.9571 151.567 75.3924 150.299 72.088 148.415M159.316 20.864L149.798 19.8109C149.798 19.8109 138.277 17.9769 130.882 18.4157C122.991 18.8839 118.487 19.7835 111.049 22.4601C100.048 26.4188 93.9352 30.0771 85.6787 38.355C81.8055 42.2383 79.1616 45.5064 76.1901 50.1164M76.1901 50.1164C72.7485 54.387 70.1476 59.1098 67.4502 63.8853C64.7527 68.6608 62.3339 84.7995 62.755 98.3562C63.1749 111.876 68.0533 132.408 68.0533 132.408C69.5388 138.336 74.1085 146.839 74.1085 146.839C74.1085 146.839 68.4791 119.625 68.0533 101.935C67.7671 90.0479 67.1926 83.1763 69.5671 71.5257C71.3922 62.5705 73.3397 58.7999 76.1901 50.1164ZM141.948 19.8109C141.948 19.8109 116.038 25.8449 109.139 28.8937C96.8936 34.3053 91.4108 42.1469 84.3266 53.5068C79.7278 60.8812 75.5087 72.6076 75.5087 72.6076M117.063 27.9476C117.063 27.9476 105.644 33.8856 99.843 39.5512C94.4566 44.8115 91.7028 48.3238 88.4896 55.1327C86.1866 60.0126 84.3266 68.3081 84.3266 68.3081M95.3016 105.912C95.3016 105.912 89.7159 103.029 87.3542 99.964C83.8011 95.3532 82.5055 90.5841 81.9111 84.4019C81.0755 75.7114 80.0884 70.8508 82.4344 62.7563C84.4804 55.6966 91.9054 46.4916 91.9054 46.4916L96.7687 39.5512M50.7304 78.1173C50.7304 78.1173 51.4464 67.6019 56.1104 61.0221C60.7744 54.4424 64.4319 50.7534 69.0958 44.1736C73.7598 37.5938 80.1842 34.1525 80.1842 34.1525L74.1483 37.3225C74.1483 37.3225 70.3256 39.6703 68.0533 41.4206C61.2132 46.6891 58.2932 50.8788 53.4834 58.0489C47.6956 66.6769 45.0092 72.1487 42.251 82.1654C39.9384 90.5642 39.3879 104.288 39.3879 104.288M56.1104 121.919C56.1104 121.919 59.2481 131.797 62.755 137.336C65.7809 142.116 72.088 148.415 72.088 148.415" stroke="#D87F7F"/>
<path d="M129.791 99.4858C129.791 99.4858 129.432 109.738 132.735 115.619C136.232 121.848 138.538 125.628 146.625 127.928C156.252 130.667 166.003 131.465 175.569 125.951C186.194 119.826 192.298 111.377 195.305 99.4858C200.1 80.5277 193.965 64.6312 180.925 51.5214C180.925 51.5214 168.385 39.7899 160.123 38.9337C152.079 38.0999 141.948 47.081 141.948 47.081C140.247 49.5008 139.526 53.2238 139.229 56.3305C139.091 57.7753 139.045 59.0868 139.035 60.0719C139.024 61.1858 139.058 61.8824 139.058 61.8824C139.058 61.8824 133.477 64.3989 130.882 63.3625C128.303 62.3324 126.372 57.8648 126.372 57.8648C126.372 57.8648 122.805 61.3496 118.83 66.1818C116.884 68.5476 113.271 71.6067 111.049 73.4064C109.912 74.3271 109.139 74.9182 109.139 74.9182C109.139 74.9182 105.969 68.5275 104.804 63.3625C102.236 51.9831 102.618 43.3208 109.456 33.1254C113.181 27.57 121.601 19.7286 121.601 19.7286C121.601 19.7286 107.304 28.7411 101.068 38.2001C96.9374 44.4664 93.8002 47.9865 91.9054 55.8208C88.8992 68.2509 89.6634 76.7686 93.2446 89.2297C94.7046 94.3099 96.7687 101.282 96.7687 101.282C96.7687 101.282 89.7145 102.437 85.6787 100.507C80.4693 98.0143 75.5087 89.7716 75.5087 89.7716C75.5087 89.7716 80.0287 99.4692 80.0287 104.838C80.0287 110.207 80.4469 113.234 80.0287 118.587C79.6189 123.833 78.3447 126.562 77.9571 131.901C77.5833 137.049 77.9571 145.142 77.9571 145.142C77.9571 145.142 75.3924 143.873 72.088 141.989C68.3453 139.855 63.6536 136.931 60.6644 134.166C54.2745 128.257 51.981 124.993 49.3304 116.703C46.2578 107.093 48.0121 90.9016 48.0121 90.9016L38.5444 103.385C38.5444 103.385 36.3675 95.4536 35.3389 88.836C35.0727 87.123 34.8834 85.4981 34.8287 84.1216C34.7756 82.7837 34.8951 81.3349 35.1288 79.8545C35.6774 76.3797 36.8549 72.7305 37.9045 69.9306C38.9758 67.0729 39.9137 65.0999 39.9137 65.0999C39.9137 65.0999 35.0855 70.1465 31.062 71.6916C26.8298 73.3168 24.0126 74.3163 19.4891 72.6035C14.227 70.611 12.608 67.0915 11.6272 61.81C10.8812 57.7933 13.1986 53.1944 15.3978 49.9085C17.1464 47.2958 18.8204 45.5132 18.8204 45.5132L22.587 53.7999C22.587 53.7999 23.9708 57.5781 29.9712 56.1069C37.899 54.1631 56.1104 42.6882 56.1104 42.6882C56.1104 42.6882 69.3308 32.3462 78.4169 26.6329C88.6916 20.1722 95.1875 15.8548 105.83 11.9899C114.619 8.79852 119.846 7.18347 129.184 6.71647C143.39 6.00601 151.272 9.33221 164.778 14.4382C180.472 20.371 189.605 24.2707 201.315 36.2849C213.99 49.2884 219.853 59.6095 222.785 77.5299C224.746 89.5203 225.922 96.0244 221.278 108.605C215.908 123.151 209.012 134.25 195.305 142.317C186.599 147.441 180.665 150.319 170.616 151.357C158.5 152.607 150.643 152.432 139.729 147.025C129.566 141.99 124.32 137.793 118.636 127.062C112.776 115.999 110.174 105.644 113.363 93.5382C116.707 80.8422 121.601 74.1588 133.514 67.9249C142.567 63.1879 147.812 60.7439 159.316 63.5932C166.873 65.4651 172.311 67.9249 178.214 76.3999C182.263 82.2142 185.041 89.9073 183.423 97.8699C181.457 107.542 176.768 116.446 167.403 120.658C158.875 124.494 151.868 123.466 144.438 120.658C133.916 116.682 129.791 99.4858 129.791 99.4858Z" fill="#D87F7F"/>
<path d="M129.791 99.4858C129.791 99.4858 129.432 109.738 132.735 115.619C136.232 121.848 138.538 125.628 146.625 127.928C156.252 130.667 166.003 131.465 175.569 125.951C186.194 119.826 192.298 111.377 195.305 99.4858C200.1 80.5277 193.965 64.6312 180.925 51.5214C180.925 51.5214 168.385 39.7899 160.123 38.9336C152.079 38.0999 141.948 47.081 141.948 47.081C140.247 49.5008 139.526 53.2238 139.229 56.3305M129.791 99.4858C129.791 99.4858 133.916 116.682 144.438 120.658C151.868 123.466 158.875 124.494 167.403 120.658C176.768 116.446 181.457 107.542 183.423 97.8699C185.041 89.9073 182.263 82.2143 178.214 76.3999C172.311 67.9249 166.873 65.4651 159.316 63.5932C147.812 60.7439 142.567 63.1879 133.514 67.9249C121.601 74.1588 116.707 80.8422 113.363 93.5382C110.174 105.644 112.776 115.999 118.636 127.062C124.32 137.793 129.566 141.99 139.729 147.025C150.643 152.432 158.5 152.607 170.616 151.357C180.665 150.319 186.599 147.441 195.305 142.317C209.012 134.25 215.908 123.151 221.278 108.605C225.922 96.0244 224.746 89.5203 222.785 77.5299C219.853 59.6095 213.99 49.2884 201.315 36.2849C189.605 24.2707 180.472 20.371 164.778 14.4382C151.272 9.33221 143.39 6.00601 129.184 6.71647C119.846 7.18347 114.619 8.79852 105.83 11.9899C95.1875 15.8548 88.6916 20.1722 78.4169 26.6329C69.3308 32.3462 56.1104 42.6882 56.1104 42.6882C56.1104 42.6882 37.899 54.1631 29.9712 56.1069C23.9708 57.5781 22.587 53.7999 22.587 53.7999L18.8204 45.5132C18.8204 45.5132 17.1464 47.2959 15.3978 49.9085M129.791 99.4858L130.882 93.5382C130.882 93.5382 134.058 85.1753 138.254 81.7088C145.198 75.9735 153.494 73.7272 161.098 78.5527C165.771 81.5184 168.056 84.8329 169.063 90.2752C169.873 94.6502 169.532 97.6399 167.403 101.547C164.922 106.101 156.89 109.662 156.89 109.662C161.822 109.635 167.403 105.828 169.786 101.547C172.086 97.4133 173.27 94.1516 172.329 89.6116C171.202 84.1669 169.456 80.67 165.096 77.2902C159.369 72.8515 154.091 71.0062 146.625 72.5412C137.147 74.49 134.065 78.0126 129.184 86.3677C124.254 94.8059 122.673 103.384 124.578 112.969C127.043 125.37 132.967 132.296 144.438 137.616C154.938 142.486 162.35 142.88 174.023 139.419C188.335 135.176 197.117 127.595 204.531 114.321C213.253 98.7074 214.942 86.5465 208.739 68.784C203.524 53.8488 197.462 42.1826 184.469 35.7203C174.28 30.6522 164.778 33.2425 154.335 36.2849C147.713 38.2139 141.843 42.3247 139.229 48.7069C137.85 52.0743 139.229 56.3305 139.229 56.3305M39.9137 65.0999C39.9137 65.0999 35.0855 70.1465 31.062 71.6916C26.8298 73.3168 24.0126 74.3163 19.4891 72.6035C14.227 70.611 12.608 67.0915 11.6272 61.81C10.8812 57.7933 13.1986 53.1944 15.3978 49.9085M39.9137 65.0999C39.9137 65.0999 40.5119 63.5221 40.9296 62.5251C43.463 56.4778 49.3304 47.9891 49.3304 47.9891C49.3304 47.9891 44.8574 54.4572 40.9296 57.4595C36.2809 61.0129 33.1248 63.5194 27.2746 63.6263C23.8982 63.688 21.5352 63.8183 18.8204 61.81C17.0825 60.5243 16.2128 59.4617 15.3978 57.4595C14.2861 54.7283 15.3978 49.9085 15.3978 49.9085M39.9137 65.0999C39.9137 65.0999 38.9758 67.0729 37.9045 69.9306C36.855 72.7305 35.6774 76.3797 35.1288 79.8545C34.8951 81.3349 34.7756 82.7837 34.8287 84.1216C34.8834 85.4981 35.0727 87.123 35.3389 88.836C36.3675 95.4536 38.5444 103.385 38.5444 103.385L48.0121 90.9016C48.0121 90.9016 46.2578 107.093 49.3304 116.703C51.981 124.993 54.2745 128.257 60.6644 134.166C63.6536 136.931 68.3453 139.855 72.088 141.989M139.229 56.3305C139.091 57.7753 139.045 59.0868 139.035 60.0719M139.035 60.0719C139.024 61.1858 139.058 61.8824 139.058 61.8824C139.058 61.8824 133.477 64.3989 130.882 63.3625C128.303 62.3324 126.372 57.8648 126.372 57.8648C126.372 57.8648 122.805 61.3496 118.83 66.1818C116.884 68.5476 113.271 71.6067 111.049 73.4064M139.035 60.0719C139.035 60.0719 135.027 61.0248 132.777 60.0719C129.804 58.8134 127.911 53.3899 127.911 53.3899L118.325 63.3625C118.325 63.3625 113.447 67.3586 111.953 70.2324C111.154 71.7702 111.049 73.4064 111.049 73.4064M111.049 73.4064C109.912 74.3271 109.139 74.9182 109.139 74.9182C109.139 74.9182 105.969 68.5275 104.804 63.3625C102.236 51.9831 102.618 43.3208 109.456 33.1254C113.181 27.57 121.601 19.7286 121.601 19.7286C121.601 19.7286 107.304 28.7411 101.068 38.2001C96.9374 44.4664 93.8002 47.9865 91.9054 55.8208C88.8992 68.2509 89.6634 76.7686 93.2446 89.2297C94.7046 94.3099 96.7687 101.282 96.7687 101.282C96.7687 101.282 89.7145 102.437 85.6787 100.507C80.4693 98.0143 75.5087 89.7716 75.5087 89.7716C75.5087 89.7716 80.0287 99.4692 80.0287 104.838C80.0287 110.207 80.4468 113.234 80.0287 118.587C79.6189 123.833 78.3447 126.562 77.9571 131.901C77.5833 137.049 77.9571 145.142 77.9571 145.142C77.9571 145.142 75.3924 143.873 72.088 141.989M159.316 14.4382L149.798 13.3852C149.798 13.3852 138.277 11.5511 130.882 11.9899C122.991 12.4581 118.487 13.3577 111.049 16.0343C100.048 19.993 93.9352 23.6513 85.6787 31.9292C81.8055 35.8125 79.1616 39.0807 76.1901 43.6907M76.1901 43.6907C72.7485 47.9612 70.1476 52.684 67.4502 57.4595C64.7527 62.235 62.3339 78.3737 62.755 91.9305C63.1749 105.451 68.0533 125.982 68.0533 125.982C69.5388 131.911 74.1085 140.413 74.1085 140.413C74.1085 140.413 68.4791 113.199 68.0533 95.5088C67.7671 83.6221 67.1926 76.7505 69.5671 65.0999C71.3922 56.1447 73.3397 52.3741 76.1901 43.6907ZM141.948 13.3852C141.948 13.3852 116.038 19.4192 109.139 22.468C96.8936 27.8795 91.4108 35.7211 84.3266 47.081C79.7278 54.4554 75.5087 66.1818 75.5087 66.1818M117.063 21.5218C117.063 21.5218 105.644 27.4598 99.843 33.1254C94.4566 38.3857 91.7028 41.898 88.4896 48.7069C86.1866 53.5869 84.3266 61.8824 84.3266 61.8824M95.3016 99.4858C95.3016 99.4858 89.7159 96.6029 87.3542 93.5382C83.8011 88.9275 82.5055 84.1583 81.9111 77.9762C81.0755 69.2856 80.0884 64.425 82.4344 56.3305C84.4804 49.2708 91.9054 40.0659 91.9054 40.0659L96.7687 33.1254M50.7304 71.6916C50.7304 71.6916 51.4464 61.1761 56.1104 54.5964C60.7744 48.0166 64.4319 44.3276 69.0958 37.7478C73.7598 31.168 80.1842 27.7268 80.1842 27.7268L74.1483 30.8967C74.1483 30.8967 70.3256 33.2445 68.0533 34.9948C61.2132 40.2633 58.2932 44.453 53.4834 51.6231C47.6956 60.2511 45.0092 65.7229 42.251 75.7396C39.9384 84.1384 39.3879 97.862 39.3879 97.862M56.1104 115.493C56.1104 115.493 59.2481 125.371 62.755 130.91C65.7809 135.69 72.088 141.989 72.088 141.989" stroke="#F4D1D1"/>
</g>
<defs>
<filter id="filter0_d_3675_73" x="0.984375" y="0.121094" width="234.025" height="172.801" filterUnits="userSpaceOnUse" color-interpolation-filters="sRGB">
<feFlood flood-opacity="0" result="BackgroundImageFix"/>
<feColorMatrix in="SourceAlpha" type="matrix" values="0 0 0 0 0 0 0 0 0 0 0 0 0 0 0 0 0 0 127 0" result="hardAlpha"/>
<feOffset dy="4"/>
<feGaussianBlur stdDeviation="5"/>
<feComposite in2="hardAlpha" operator="out"/>
<feColorMatrix type="matrix" values="0 0 0 0 0 0 0 0 0 0 0 0 0 0 0 0 0 0 0.25 0"/>
<feBlend mode="normal" in2="BackgroundImageFix" result="effect1_dropShadow_3675_73"/>
<feBlend mode="normal" in="SourceGraphic" in2="effect1_dropShadow_3675_73" result="shape"/>
</filter>
</defs>
</svg>
