<svg width="1294" height="5368" viewBox="0 0 1294 5368" fill="none" xmlns="http://www.w3.org/2000/svg">
<path fill-rule="evenodd" clip-rule="evenodd" d="M1124.62 5255.88C1131.41 5236.01 1139.53 5224.39 1157.28 5213.16C1166.61 5207.26 1170.87 5206.19 1182.19 5203.34C1183.87 5202.91 1185.72 5202.45 1187.75 5201.92C1194.21 5200.26 1200.83 5199.13 1206.65 5199.24C1208.54 5199.28 1210.37 5199.34 1212.16 5199.44C1217.89 5199.74 1223.15 5200.37 1228.1 5201.45C1232.4 5202.38 1236.47 5203.66 1240.42 5205.36C1242.7 5206.35 1251.48 5210.61 1253.7 5211.89C1256.67 5213.61 1257.37 5214.55 1258.45 5215.98C1259.22 5217.01 1260.19 5218.29 1262.32 5220.29C1264.64 5222.48 1266.73 5224.65 1268.61 5226.82C1271.79 5230.47 1274.39 5234.13 1276.55 5237.94C1278.41 5241.22 1279.94 5244.62 1281.22 5248.21C1282.89 5252.86 1284.15 5257.85 1285.18 5263.35C1285.27 5263.85 1285.37 5264.35 1285.46 5264.86C1285.77 5266.63 1286.07 5268.46 1286.35 5270.35C1286.46 5271.1 1286.56 5271.85 1286.66 5272.6C1286.98 5274.89 1287.24 5277.13 1287.44 5279.31C1287.82 5283.5 1287.98 5287.49 1287.89 5291.35C1287.75 5296.73 1287.11 5301.86 1285.86 5306.9C1284.89 5310.77 1283.57 5314.59 1281.83 5318.45C1279.88 5322.79 1277.4 5327.19 1274.34 5331.74C1272.78 5334.07 1271.18 5336.26 1269.54 5338.33C1262.73 5346.92 1255.2 5353.37 1246.67 5357.98C1243.7 5359.59 1240.62 5360.97 1237.41 5362.15C1234.95 5363.04 1232.42 5363.82 1229.81 5364.48C1226.72 5365.26 1223.51 5365.88 1220.18 5366.35C1216.1 5366.92 1211.84 5367.26 1207.37 5367.4C1203.04 5367.52 1198.88 5367.43 1194.87 5367.1C1192.99 5366.94 1191.15 5366.74 1189.34 5366.48C1185.43 5365.92 1181.67 5365.12 1178.06 5364.07C1173.13 5362.63 1168.47 5360.73 1164.05 5358.34C1160.25 5356.28 1156.62 5353.86 1153.14 5351.07C1149.01 5347.76 1145.1 5343.91 1141.37 5339.52C1139.46 5337.27 1137.6 5334.88 1135.77 5332.34C1130.7 5325.26 1126.82 5318.28 1124.09 5311.25C1122.08 5306.06 1120.7 5300.84 1119.94 5295.53C1118.88 5288.16 1119.01 5280.61 1120.3 5272.73C1121.19 5267.29 1122.64 5261.7 1124.62 5255.88Z" fill="#C6D7DE"/>
<path d="M1240.42 5205.36C1240.42 5205.36 1245.65 5200.17 1249.76 5198.02C1257.86 5193.78 1265.86 5186.67 1271.33 5190.04C1276.81 5193.41 1241.27 5056.09 1195.14 4979.07C1131.27 4872.44 1060.4 4838.82 964.628 4759.6C886.521 4694.99 834.625 4669.2 755.54 4605.79C609.024 4488.31 515.957 4428.21 404.656 4276.95C352.39 4205.92 344.336 4151.18 286.894 4084.27C242.318 4032.34 199.295 4020.4 157.115 3966.5C34.8069 3810.23 90.3488 3662.4 80.209 3464.21C75.061 3363.59 47.2766 3301.44 80.209 3206.22C108.724 3123.78 153.882 3091.21 209.988 3024.41C342.543 2866.59 469.346 2834.98 611.241 2685.5C746.641 2542.86 788.037 2432.91 918.965 2286.15C1002.89 2192.09 1092.17 2171.34 1147.28 2057.97C1214.98 1918.69 1219.46 1805.81 1162.7 1661.73C1119.57 1552.26 1065.92 1499.26 971.838 1428.61C878.711 1358.68 798.689 1369.12 697.86 1310.84C523.488 1210.06 439.574 1124.1 313.33 967.171C175.442 795.77 104.304 683.947 44.1603 472.347C-6.34092 294.672 0.900714 1.34399 0.900714 1.34399L26.1463 1.34392C26.1463 1.34392 14.8348 294.893 65.6404 472.347C123.978 676.109 194.595 782.616 327.472 947.74C454.049 1105.03 539.838 1188.74 713.637 1291.49C814.443 1351.08 894.278 1343.05 987.171 1414.36C1080.59 1486.06 1133.61 1539.05 1177.33 1648.4C1236.75 1797.01 1233.02 1914.19 1162.7 2057.96C1107.69 2170.45 1020.84 2192.75 937.438 2286.15C799.702 2440.4 760.665 2558.66 618.559 2708.89C480.432 2854.91 356.385 2888.96 226.543 3042.39C175.101 3103.18 131.095 3130.94 105.135 3206.22C77.015 3287.77 101.652 3340.91 105.135 3427.1C113.329 3629.87 54.1303 3779.23 175.346 3941.99C218.55 4000 262.952 4014.24 309.918 4069.25C372.276 4142.28 382.4 4201.31 441.566 4276.95C519.96 4377.18 577.749 4422.08 674.143 4505.14C785.534 4601.13 865.576 4632.92 976.931 4728.94C1081.87 4819.43 1164.22 4856.36 1228.58 4979.07C1266.11 5050.62 1291.07 5176.29 1291.07 5176.29C1291.07 5176.29 1296.3 5190.07 1291.07 5195.38C1287.51 5198.99 1288.66 5196.38 1278.64 5199.15C1268.61 5201.92 1265.93 5199.94 1257.86 5207.16C1256.03 5208.8 1253.7 5211.89 1253.7 5211.89C1251.48 5210.61 1242.7 5206.35 1240.42 5205.36Z" fill="#C6D7DE"/>
<path d="M1124.09 5311.25C1126.82 5318.28 1130.7 5325.26 1135.77 5332.34C1137.6 5334.88 1139.46 5337.27 1141.37 5339.52M1124.09 5311.25C1124.09 5311.25 1127.56 5294.62 1131.46 5284.51C1132.5 5281.81 1133.52 5279.28 1134.54 5276.89M1124.09 5311.25C1122.08 5306.06 1120.7 5300.84 1119.94 5295.53M1157.4 5242C1152.86 5246.94 1149.2 5251.36 1146.06 5255.79M1157.4 5242C1157.4 5242 1152.12 5261.27 1150.76 5273.93C1149.2 5288.38 1149.29 5296.7 1150.92 5311.13C1152.12 5321.81 1153.08 5327.84 1156.18 5338.13C1158.62 5346.24 1164.05 5358.34 1164.05 5358.34M1157.4 5242C1160.02 5239.15 1162.46 5236.65 1164.83 5234.41M1228.1 5201.45C1223.15 5200.37 1217.89 5199.74 1212.16 5199.44M1228.1 5201.45C1228.1 5201.45 1223.21 5202.87 1216.56 5205.17M1228.1 5201.45C1232.4 5202.38 1236.47 5203.66 1240.42 5205.36M1119.94 5295.53C1119.94 5295.53 1124.99 5277.47 1130.35 5266.82C1138.27 5251.08 1144.53 5242.76 1157.35 5230.68C1167 5221.59 1173.24 5217.18 1184.86 5210.8C1194.99 5205.24 1212.16 5199.44 1212.16 5199.44M1119.94 5295.53C1118.88 5288.16 1119.01 5280.61 1120.3 5272.73M1212.16 5199.44C1210.37 5199.34 1208.54 5199.28 1206.65 5199.24C1200.83 5199.13 1194.21 5200.26 1187.75 5201.92M1120.3 5272.73C1121.19 5267.29 1122.64 5261.7 1124.62 5255.88C1131.41 5236.01 1139.53 5224.39 1157.28 5213.16C1166.61 5207.26 1170.87 5206.19 1182.19 5203.34C1183.87 5202.91 1185.72 5202.45 1187.75 5201.92M1120.3 5272.73C1120.3 5272.73 1125.7 5259.97 1130.29 5252.41C1135.82 5243.3 1139.56 5238.49 1146.87 5230.72C1155.12 5221.96 1160.27 5217.29 1170.45 5210.86C1176.89 5206.8 1187.75 5201.92 1187.75 5201.92M1134.54 5276.89C1134.54 5276.89 1134.29 5289.31 1134.62 5297.26C1134.87 5303.22 1134.98 5306.57 1135.69 5312.49C1136.97 5323.2 1141.37 5339.52 1141.37 5339.52M1134.54 5276.89C1137.99 5268.79 1141.46 5262.29 1146.06 5255.79M1141.37 5339.52C1145.1 5343.91 1149.01 5347.76 1153.14 5351.07M1146.06 5255.79C1144.77 5265.06 1144.05 5270.26 1142.76 5279.52C1141.46 5288.79 1141.77 5298.86 1142.89 5311.17C1143.7 5320.09 1143.96 5325.22 1146.4 5333.85C1148.36 5340.8 1153.14 5351.07 1153.14 5351.07M1153.14 5351.07C1156.62 5353.86 1160.25 5356.28 1164.05 5358.34M1164.05 5358.34C1168.47 5360.73 1173.13 5362.63 1178.06 5364.07M1164.83 5234.41C1164.83 5234.41 1159.87 5250.88 1158.53 5261.75C1157.51 5269.98 1157.54 5274.67 1157.58 5282.96C1157.63 5295.7 1157.79 5302.96 1160.2 5315.47C1162.16 5325.64 1163.91 5331.25 1167.51 5340.96C1170.96 5350.26 1178.06 5364.07 1178.06 5364.07M1164.83 5234.41C1166.74 5232.59 1168.62 5230.93 1170.53 5229.37M1178.06 5364.07C1181.67 5365.12 1185.43 5365.92 1189.34 5366.48M1189.34 5366.48C1189.34 5366.48 1182.84 5357.31 1179.49 5350.96C1172.37 5337.46 1170.74 5328.68 1167.4 5313.79C1164.2 5299.56 1162.51 5291.36 1162.5 5276.77C1162.49 5258 1170.53 5229.37 1170.53 5229.37M1189.34 5366.48C1191.15 5366.74 1192.99 5366.94 1194.87 5367.1M1170.53 5229.37C1173.57 5226.89 1176.69 5224.64 1180.18 5222.38M1180.18 5222.38C1183.08 5220.49 1186.24 5218.6 1189.83 5216.54C1190.91 5215.93 1192.05 5215.31 1193.23 5214.71M1180.18 5222.38C1180.18 5222.38 1179.78 5223.43 1179.16 5225.15M1194.87 5367.1C1198.88 5367.43 1203.04 5367.52 1207.37 5367.4C1211.84 5367.26 1216.1 5366.92 1220.18 5366.35M1194.87 5367.1C1194.87 5367.1 1194.35 5366.19 1193.47 5364.63M1220.18 5366.35L1226.3 5347.78L1226.52 5344.56M1220.18 5366.35C1223.51 5365.88 1226.72 5365.26 1229.81 5364.48M1221.87 5284.13L1218.71 5277.45M1221.87 5284.13C1221.87 5284.13 1209.47 5303.85 1198.51 5313.66C1190.8 5320.56 1176.78 5328.83 1176.78 5328.83M1221.87 5284.13L1223.71 5292.64M1179.16 5225.15C1177.93 5228.55 1175.84 5234.56 1174.31 5240.15M1179.16 5225.15L1184.36 5230.56M1174.31 5240.15C1173.83 5241.92 1173.4 5243.64 1173.07 5245.23C1172.52 5247.91 1172.05 5251.17 1171.68 5254.23M1174.31 5240.15L1184.36 5230.56M1184.36 5230.56L1191.02 5237.5M1171.68 5254.23C1171.03 5259.61 1170.68 5264.38 1170.68 5264.38C1170.68 5264.38 1170.53 5265.85 1170.33 5268.24M1171.68 5254.23L1191.02 5237.5M1191.02 5237.5L1197.81 5244.57M1170.33 5268.24C1170.33 5268.24 1179.42 5257.63 1186.43 5252.17C1190.65 5248.88 1197.81 5244.57 1197.81 5244.57M1170.33 5268.24C1170.04 5271.73 1169.65 5277.17 1169.49 5282.91M1197.81 5244.57L1201.63 5248.55M1169.49 5282.91C1169.36 5287.78 1169.39 5292.85 1169.79 5297.11C1169.86 5297.79 1169.92 5298.45 1169.99 5299.1M1169.49 5282.91C1169.49 5282.91 1178.84 5270.2 1185.82 5262.93C1191.61 5256.92 1201.63 5248.55 1201.63 5248.55M1201.63 5248.55L1207.84 5255.01M1169.99 5299.1C1169.99 5299.1 1178.76 5282.67 1186.53 5273.78C1193.82 5265.43 1207.84 5255.01 1207.84 5255.01M1169.99 5299.1C1170.78 5306.63 1171.87 5312.39 1173.53 5318.43M1207.84 5255.01C1207.84 5255.01 1208.14 5255.32 1208.33 5255.53C1210.7 5258.11 1212.18 5263.65 1212.18 5263.65M1173.53 5318.43C1173.53 5318.43 1181.93 5298.7 1189.87 5287.64C1197.33 5277.25 1212.18 5263.65 1212.18 5263.65M1173.53 5318.43C1173.81 5319.47 1174.12 5320.52 1174.44 5321.59M1212.18 5263.65L1215.55 5270.77M1182.55 5316.44C1182.55 5316.44 1189.13 5301.33 1195.14 5292.76C1201.86 5283.16 1215.55 5270.77 1215.55 5270.77M1182.55 5316.44L1174.44 5321.59M1182.55 5316.44C1182.55 5316.44 1194.21 5307.94 1200.64 5301.38C1208.84 5293.02 1218.71 5277.45 1218.71 5277.45M1215.55 5270.77L1218.71 5277.45M1174.44 5321.59C1175.13 5323.89 1175.9 5326.26 1176.78 5328.83M1176.78 5328.83C1177.14 5329.91 1177.52 5331.01 1177.92 5332.16C1178.15 5332.83 1178.4 5333.52 1178.67 5334.21M1178.67 5334.21C1178.67 5334.21 1194.21 5324.77 1202.79 5317.01C1212.09 5308.59 1223.71 5292.64 1223.71 5292.64M1178.67 5334.21C1179.31 5335.91 1180.02 5337.66 1180.79 5339.45M1223.71 5292.64L1225.48 5300.81M1180.79 5339.45C1180.79 5339.45 1197.53 5329.65 1206.75 5321.46C1214.88 5314.22 1225.48 5300.81 1225.48 5300.81M1180.79 5339.45C1182.01 5342.27 1183.36 5345.16 1184.72 5347.96M1225.48 5300.81C1225.48 5300.81 1228.34 5309.44 1228.58 5315.18C1228.74 5318.97 1227.9 5324.88 1227.9 5324.88M1184.72 5347.96C1184.72 5347.96 1200.39 5338.22 1209.3 5330.54C1217.46 5323.52 1228.15 5311.38 1228.15 5311.38M1184.72 5347.96C1185.77 5350.12 1186.84 5352.23 1187.86 5354.2M1187.86 5354.2C1187.86 5354.2 1201.48 5347.25 1209.35 5341.48C1217.19 5335.74 1227.9 5324.88 1227.9 5324.88M1187.86 5354.2C1188.59 5355.62 1189.3 5356.97 1189.97 5358.23M1227.9 5324.88L1226.52 5344.56M1189.97 5358.23C1189.97 5358.23 1203.88 5352.14 1211.89 5346.72C1218.61 5342.17 1227.94 5333.5 1227.94 5333.5M1189.97 5358.23C1191.37 5360.85 1192.6 5363.07 1193.47 5364.63M1193.47 5364.63C1193.47 5364.63 1203.47 5360.59 1209.42 5357.13C1216.58 5352.95 1226.52 5344.56 1226.52 5344.56M1229.81 5364.48C1229.81 5364.48 1236.07 5343.99 1237.01 5330.43C1238.56 5307.99 1236.13 5294.44 1227.68 5273.6C1220.6 5256.12 1214.38 5246.81 1201.56 5232.97C1196.56 5227.56 1187.83 5220.04 1187.83 5220.04M1229.81 5364.48C1235.84 5362.95 1241.44 5360.81 1246.67 5357.98M1229.81 5364.48C1232.42 5363.82 1234.95 5363.04 1237.41 5362.15M1183.31 5220.06L1194.16 5220.01C1194.16 5220.01 1197.14 5220.41 1201.51 5221.08M1285.18 5263.35C1285.18 5263.35 1284.1 5262.3 1282.16 5260.55M1285.18 5263.35C1285.27 5263.85 1285.37 5264.35 1285.46 5264.86M1285.18 5263.35C1284.15 5257.85 1282.89 5252.86 1281.22 5248.21M1201.51 5221.08C1201.51 5221.08 1214.94 5234.48 1221.71 5244.47C1231.23 5258.55 1235.31 5267.66 1239.8 5284.05C1244.54 5301.31 1245.69 5311.82 1244.28 5329.67C1243.23 5342.97 1237.41 5362.15 1237.41 5362.15M1201.51 5221.08C1204.59 5221.56 1208.36 5222.16 1212.26 5222.87M1237.41 5362.15C1240.62 5360.97 1243.7 5359.59 1246.67 5357.98M1246.67 5357.98C1246.67 5357.98 1248.09 5352.94 1249.66 5345.85M1246.67 5357.98C1255.2 5353.37 1262.73 5346.92 1269.54 5338.33M1237.68 5255.4C1236.44 5253.15 1234.95 5250.79 1233.32 5248.41M1237.68 5255.4L1243.15 5232.49M1237.68 5255.4C1238.69 5257.22 1239.64 5259 1240.53 5260.73M1212.26 5222.87C1217.18 5223.75 1222.31 5224.78 1226.57 5225.87C1230.45 5226.86 1234.43 5228.35 1238.4 5230.17M1212.26 5222.87C1212.26 5222.87 1224.73 5235.88 1233.32 5248.41M1233.32 5248.41L1238.4 5230.17M1238.4 5230.17C1239.99 5230.89 1241.57 5231.67 1243.15 5232.49M1243.15 5232.49C1244.53 5233.22 1245.91 5233.97 1247.27 5234.75M1240.53 5260.73L1247.27 5234.75M1240.53 5260.73C1241.68 5262.94 1242.73 5265.09 1243.71 5267.2M1247.27 5234.75C1248.68 5235.55 1250.08 5236.39 1251.46 5237.24M1243.71 5267.2L1251.46 5237.24M1243.71 5267.2C1245.12 5270.26 1246.37 5273.24 1247.45 5276.19M1251.46 5237.24C1253.33 5238.38 1255.16 5239.57 1256.94 5240.77M1247.45 5276.19L1256.94 5240.77M1247.45 5276.19C1249.31 5281.24 1250.7 5286.23 1251.7 5291.5M1256.94 5240.77C1259.49 5242.48 1261.94 5244.22 1264.27 5245.94M1251.7 5291.5C1251.7 5291.5 1257.55 5277.72 1260.04 5268.49C1262.38 5259.84 1264.27 5245.94 1264.27 5245.94M1251.7 5291.5C1252.26 5294.46 1252.69 5297.5 1253.02 5300.7M1264.27 5245.94C1266.15 5247.32 1267.94 5248.7 1269.64 5250.03M1253.02 5300.7C1253.48 5305.15 1253.72 5309.88 1253.78 5315.07C1253.79 5316.07 1253.78 5317.09 1253.74 5318.15M1253.02 5300.7C1253.02 5300.7 1261.52 5284.98 1264.86 5274.12C1267.67 5264.95 1269.64 5250.03 1269.64 5250.03M1269.64 5250.03C1272.78 5252.5 1275.58 5254.82 1277.91 5256.82M1253.74 5318.15L1261.4 5303.32M1253.74 5318.15C1253.72 5318.65 1253.7 5319.17 1253.67 5319.68M1277.91 5256.82L1275.52 5267.06M1277.91 5256.82C1279.59 5258.26 1281.02 5259.53 1282.16 5260.55M1275.52 5267.06L1272.66 5279.37M1275.52 5267.06C1275.52 5267.06 1277.81 5265.4 1279.1 5264.13C1280.42 5262.85 1282.16 5260.55 1282.16 5260.55M1272.66 5279.37C1272.66 5279.37 1272.2 5281.81 1271.74 5283.33C1270.39 5287.86 1266.19 5294.07 1266.19 5294.07M1272.66 5279.37C1272.66 5279.37 1277.06 5275.05 1279.65 5272.09C1282.04 5269.36 1285.46 5264.86 1285.46 5264.86M1285.46 5264.86C1285.77 5266.63 1286.07 5268.46 1286.35 5270.35C1286.46 5271.1 1286.56 5271.85 1286.66 5272.6M1266.19 5294.07L1261.4 5303.32M1266.19 5294.07C1266.19 5294.07 1272.58 5287.36 1276.68 5283.06C1280.08 5279.5 1285.07 5274.27 1286.66 5272.6M1287.18 5272.06C1287.18 5272.06 1286.99 5272.25 1286.66 5272.6M1261.4 5303.32C1261.4 5303.32 1272.02 5295.45 1278.05 5289.55C1281.92 5285.75 1287.44 5279.31 1287.44 5279.31M1287.44 5279.31C1287.82 5283.5 1287.98 5287.49 1287.89 5291.35M1287.44 5279.31C1287.24 5277.13 1286.98 5274.89 1286.66 5272.6M1253.67 5319.68C1253.67 5319.68 1265.05 5311.9 1271.84 5306.26C1278.42 5300.79 1287.89 5291.35 1287.89 5291.35M1253.67 5319.68C1253.48 5323.11 1253.08 5326.75 1252.55 5330.36M1287.89 5291.35C1287.75 5296.73 1287.11 5301.86 1285.86 5306.9M1252.55 5330.36C1252.24 5332.51 1251.88 5334.65 1251.51 5336.73M1252.55 5330.36C1252.55 5330.36 1263.05 5324.11 1269.46 5319.62C1276.09 5314.96 1285.86 5306.9 1285.86 5306.9M1285.86 5306.9C1284.89 5310.77 1283.57 5314.59 1281.83 5318.45M1251.51 5336.73C1250.92 5339.97 1250.28 5343.07 1249.66 5345.85M1251.51 5336.73C1251.51 5336.73 1261.07 5331.82 1266.97 5328.27C1272.93 5324.68 1281.83 5318.45 1281.83 5318.45M1281.83 5318.45C1279.88 5322.79 1277.4 5327.19 1274.34 5331.74C1272.78 5334.07 1271.18 5336.26 1269.54 5338.33M1249.66 5345.85C1249.66 5345.85 1255.54 5344.14 1259.42 5342.67C1263.3 5341.21 1269.54 5338.33 1269.54 5338.33M1193.23 5214.71C1193.23 5214.71 1206.78 5214.39 1215.32 5215.66C1228.25 5217.59 1235.36 5220.31 1247.24 5225.78C1261.68 5232.43 1281.22 5248.21 1281.22 5248.21M1193.23 5214.71C1196.87 5212.85 1200.94 5211.08 1204.99 5209.46M1281.22 5248.21C1279.94 5244.62 1278.41 5241.22 1276.55 5237.94M1204.99 5209.46C1204.99 5209.46 1218.26 5211.09 1226.52 5213.26C1237.51 5216.14 1243.55 5218.53 1253.7 5223.64C1263.1 5228.36 1276.55 5237.94 1276.55 5237.94M1204.99 5209.46C1209.03 5207.84 1213.04 5206.38 1216.56 5205.17M1276.55 5237.94C1274.39 5234.13 1271.79 5230.47 1268.61 5226.82M1216.56 5205.17C1216.56 5205.17 1232.42 5208.13 1241.98 5211.89C1253.07 5216.26 1268.61 5226.82 1268.61 5226.82M1268.61 5226.82C1266.73 5224.65 1264.64 5222.48 1262.32 5220.29C1260.19 5218.29 1259.22 5217.01 1258.45 5215.98C1257.37 5214.55 1256.67 5213.61 1253.7 5211.89M1240.42 5205.36C1240.42 5205.36 1245.65 5200.17 1249.76 5198.02C1257.86 5193.78 1265.86 5186.67 1271.33 5190.04C1276.81 5193.41 1241.27 5056.09 1195.14 4979.07C1131.27 4872.44 1060.4 4838.82 964.628 4759.6C886.521 4694.99 834.625 4669.2 755.54 4605.79C609.024 4488.31 515.957 4428.21 404.656 4276.95C352.39 4205.92 344.336 4151.18 286.894 4084.27C242.318 4032.34 199.295 4020.4 157.115 3966.5C34.8069 3810.23 90.3488 3662.4 80.209 3464.21C75.061 3363.59 47.2766 3301.44 80.209 3206.22C108.724 3123.78 153.882 3091.21 209.988 3024.41C342.543 2866.59 469.346 2834.98 611.241 2685.5C746.641 2542.86 788.037 2432.91 918.965 2286.15C1002.89 2192.09 1092.17 2171.34 1147.28 2057.97C1214.98 1918.69 1219.46 1805.81 1162.7 1661.73C1119.57 1552.26 1065.92 1499.26 971.838 1428.61C878.711 1358.68 798.689 1369.12 697.86 1310.84C523.488 1210.06 439.574 1124.1 313.33 967.171C175.442 795.77 104.304 683.947 44.1603 472.347C-6.34092 294.672 0.900714 1.34399 0.900714 1.34399L26.1463 1.34392C26.1463 1.34392 14.8348 294.893 65.6404 472.347C123.978 676.109 194.595 782.616 327.472 947.74C454.049 1105.03 539.838 1188.74 713.637 1291.49C814.443 1351.08 894.278 1343.05 987.171 1414.36C1080.59 1486.06 1133.61 1539.05 1177.33 1648.4C1236.75 1797.01 1233.02 1914.19 1162.7 2057.96C1107.69 2170.45 1020.84 2192.75 937.438 2286.15C799.702 2440.4 760.665 2558.66 618.559 2708.89C480.432 2854.91 356.385 2888.96 226.543 3042.39C175.101 3103.18 131.095 3130.94 105.135 3206.22C77.015 3287.77 101.652 3340.91 105.135 3427.1C113.329 3629.87 54.1303 3779.23 175.346 3941.99C218.55 4000 262.952 4014.24 309.918 4069.25C372.276 4142.28 382.4 4201.31 441.566 4276.95C519.96 4377.18 577.749 4422.08 674.143 4505.14C785.534 4601.13 865.576 4632.92 976.931 4728.94C1081.87 4819.43 1164.22 4856.36 1228.58 4979.07C1266.11 5050.62 1291.07 5176.29 1291.07 5176.29C1291.07 5176.29 1296.3 5190.07 1291.07 5195.38C1287.51 5198.99 1288.66 5196.38 1278.64 5199.15C1268.61 5201.92 1265.93 5199.94 1257.86 5207.16C1256.03 5208.8 1253.7 5211.89 1253.7 5211.89M1240.42 5205.36C1242.7 5206.35 1251.48 5210.61 1253.7 5211.89" stroke="#4E98B6"/>
</svg>
