<svg width="983" height="6000" viewBox="0 0 983 6000" fill="none" xmlns="http://www.w3.org/2000/svg">
<path d="M237.359 5878.57C238.868 5907.66 232.221 5926.17 215.165 5949.79C210.177 5956.7 204.998 5962.82 199.558 5968.19C191.665 5975.97 183.224 5982.17 174.028 5986.88C167.404 5990.28 160.388 5992.89 152.901 5994.78C142.749 5997.33 131.733 5998.52 119.658 5998.45C115.321 5998.43 111.117 5998.24 107.039 5997.88C99.0728 5997.17 91.5865 5995.82 84.5268 5993.81C78.5766 5992.11 72.9294 5989.94 67.5533 5987.28C61.2971 5984.19 55.4078 5980.44 49.835 5976.01C45.7454 5972.77 41.8263 5969.15 38.0575 5965.17C36.3146 5963.33 34.6037 5961.4 32.9232 5959.4C29.3396 5955.13 25.8933 5950.5 22.5652 5945.49C19.1375 5940.33 16.1089 5935.23 13.487 5930.15C11.3459 5926 9.47599 5921.87 7.88132 5917.74C6.61778 5914.47 5.52707 5911.2 4.61119 5907.92C4.55123 5907.7 4.492 5907.49 4.43354 5907.27C3.18689 5902.69 2.28129 5898.09 1.72225 5893.45C0.113371 5880.09 1.37474 5866.39 5.63782 5851.8C6.66609 5848.28 7.86902 5844.71 9.2484 5841.08C11.9553 5833.96 14.9445 5827.64 18.296 5821.94C21.2749 5816.88 24.5398 5812.32 28.147 5808.12C32.8512 5802.66 38.1374 5797.83 44.1301 5793.36C48.4181 5790.16 53.0679 5787.14 58.1249 5784.22C60.7515 5782.7 63.4881 5781.2 66.3409 5779.71C67.2622 5779.23 68.1956 5778.75 69.1414 5778.27C71.5031 5777.07 73.8088 5775.94 76.0702 5774.87C76.7173 5774.57 77.3608 5774.27 78.0008 5773.98C85.0591 5770.74 91.7099 5768.16 98.3195 5766.32C103.414 5764.9 108.484 5763.91 113.696 5763.38C119.733 5762.77 125.962 5762.78 132.643 5763.45C136.612 5763.85 140.74 5764.48 145.083 5765.35C149.057 5766.15 151.281 5766.22 153.062 5766.27L153.064 5766.27C155.551 5766.34 158.802 5654.22 158.802 5654.22L158.802 5646.18C158.802 5634.8 156.073 5630.46 153.238 5616.6C150.403 5602.74 144.271 5542.13 145.507 5535.2C145.507 5535.2 145.503 5534.15 145.507 5533.47C145.726 5495.39 185.588 5419.49 185.588 5419.49C185.588 5419.49 226.407 5342.84 234.661 5289.05C245.073 5221.18 215.222 5114.31 215.222 5114.31L175.512 4913.94C175.512 4913.94 154.54 4808.26 160.522 4740.56C175.227 4574.15 314.239 4526.29 376.333 4371.2C452.73 4180.37 424.415 4054.6 485.71 3858.4C548.272 3658.15 623.628 3552.29 693.91 3362.36C733.104 3256.45 749.731 3152.78 761.038 3040.41C772.492 2926.57 751.772 2783.75 751.772 2783.75C744.299 2689.04 736.064 2632.61 693.91 2547.48C639.306 2437.2 556.859 2412.2 480.088 2316.03C345.306 2147.19 253.601 2050.69 192.441 1843.49C154.289 1714.24 127.952 1634.24 149.044 1501.14C169.483 1372.15 208.037 1299.93 288.877 1197.36C384.946 1075.47 473.383 1035.84 611.939 965.917C720.952 910.904 824.516 950.717 906.071 859.837C1038.22 712.576 913.074 539.63 833.743 358.367C792.048 263.098 768.205 204.51 693.911 131.742C624.068 63.3334 480.088 1.5523 480.088 1.5523L500.097 1.55209L703.801 120.01C783.352 166.271 809.333 257.72 853.543 358.367C933.16 539.62 1051.63 705.427 927.74 859.837C844.621 963.432 728.396 922.225 611.939 986.089C478.937 1059.03 390.033 1095.72 300.44 1218.12C229.649 1314.84 200.441 1382.76 181.726 1501.14C160.804 1633.48 183.657 1713.41 220.367 1841.81L220.847 1843.49C278.968 2046.78 368.608 2141.5 498.748 2308.14C576.434 2407.61 660.687 2434 715.942 2547.48C757.535 2632.9 760.737 2689.66 773.951 2783.75C805.551 3008.74 771.313 3142.7 713.244 3362.36C658.406 3569.8 574.177 3665.24 510.939 3868.49C450.174 4063.79 470.852 4189.55 393.524 4378.9C332.14 4529.21 208.928 4579.5 188.471 4740.56C179.935 4807.77 194.151 4913.94 194.151 4913.94L234.661 5114.31C234.661 5114.31 262.617 5225.22 250.068 5294.87C240.806 5346.27 201.501 5419.49 201.501 5419.49C201.501 5419.49 163.82 5494.26 160.926 5535.2C158.149 5574.5 171.904 5633.61 173.602 5646.18C174.464 5652.56 175.616 5657.56 176.85 5664.86C185.004 5713.1 189.341 5784.86 193.856 5788.99C199.04 5793.73 203.967 5799.18 208.905 5805.42C210.447 5807.37 211.989 5809.39 213.541 5811.5C218.339 5818.01 222.361 5826.41 225.653 5835.05C226.69 5837.77 227.64 5840.23 228.509 5842.47L228.515 5842.49L228.515 5842.49C234.362 5857.58 236.565 5863.27 237.359 5878.57Z" fill="#D87F7F"/>
<path d="M152.901 5994.78C142.749 5997.33 131.733 5998.52 119.658 5998.45C115.321 5998.43 111.117 5998.24 107.039 5997.88M152.901 5994.78C152.901 5994.78 168.958 5977.52 177.272 5965C179.499 5961.65 181.543 5958.48 183.429 5955.41M152.901 5994.78C160.388 5992.89 167.404 5990.28 174.028 5986.88M204.61 5901.55C202.661 5910.64 200.58 5918.34 198.079 5925.44M204.61 5901.55C204.61 5901.55 187.023 5922.97 173.778 5934.67C158.669 5948.01 149.18 5954.58 131.526 5964.31C118.475 5971.5 110.871 5975.25 96.7433 5979.99C85.6035 5983.73 67.5533 5987.28 67.5533 5987.28M204.61 5901.55C205.737 5896.29 206.609 5891.54 207.254 5887.05M193.856 5788.99C199.04 5793.73 203.967 5799.18 208.905 5805.42M193.856 5788.99C193.856 5788.99 196.157 5795.67 198.889 5805.04M193.856 5788.99C189.341 5784.86 185.004 5713.1 176.85 5664.86C175.616 5657.56 174.464 5652.56 173.602 5646.18C171.904 5633.61 158.149 5574.5 160.926 5535.2C163.82 5494.26 201.501 5419.49 201.501 5419.49C201.501 5419.49 240.806 5346.27 250.068 5294.87C262.617 5225.22 234.661 5114.31 234.661 5114.31L194.151 4913.94C194.151 4913.94 179.935 4807.77 188.471 4740.56C208.928 4579.5 332.14 4529.21 393.524 4378.9C470.852 4189.55 450.174 4063.79 510.939 3868.49C574.177 3665.24 658.406 3569.8 713.244 3362.36C771.313 3142.7 805.551 3008.74 773.951 2783.75C760.737 2689.66 757.535 2632.9 715.942 2547.48C660.687 2434 576.434 2407.61 498.748 2308.14C368.608 2141.5 278.968 2046.78 220.847 1843.49M174.028 5986.88C174.028 5986.88 190.43 5966.68 198.196 5952.07C209.663 5930.49 214.063 5916.73 217.467 5892.53C220.028 5874.32 220.011 5863.71 217.92 5845.44C216.098 5829.52 208.905 5805.42 208.905 5805.42M174.028 5986.88C183.224 5982.17 191.665 5975.97 199.558 5968.19M208.905 5805.42C210.447 5807.37 211.989 5809.39 213.541 5811.5C218.339 5818.01 222.361 5826.41 225.653 5835.05M199.558 5968.19C204.998 5962.82 210.177 5956.7 215.165 5949.79C232.221 5926.17 238.868 5907.66 237.359 5878.57C236.565 5863.27 234.362 5857.58 228.515 5842.49C227.644 5840.24 226.693 5837.78 225.653 5835.05M199.558 5968.19C199.558 5968.19 209.68 5951.84 214.559 5940.59C220.441 5927.02 222.889 5918.93 225.82 5904.43C229.131 5888.06 230.285 5878.49 229.4 5861.81C228.842 5851.27 225.653 5835.05 225.653 5835.05M183.429 5955.41C183.429 5955.41 169.563 5965.64 160.299 5971.64C153.355 5976.13 149.47 5978.69 142.202 5982.64C129.049 5989.78 107.039 5997.88 107.039 5997.88M183.429 5955.41C189.831 5945 194.408 5935.86 198.079 5925.44M107.039 5997.88C99.0728 5997.17 91.5865 5995.82 84.5268 5993.81M198.079 5925.44C188.622 5934.33 183.32 5939.32 173.862 5948.21C164.405 5957.1 152.756 5964.83 137.922 5973.43C127.165 5979.66 121.149 5983.48 109.431 5987.63C99.9878 5990.99 84.5268 5993.81 84.5268 5993.81M84.5268 5993.81C78.5766 5992.11 72.9294 5989.94 67.5533 5987.28M67.5533 5987.28C61.2971 5984.19 55.4078 5980.44 49.835 5976.01M207.254 5887.05C207.254 5887.05 192.575 5905.86 181.337 5916.11C172.838 5923.85 167.507 5927.58 158.091 5934.18C143.623 5944.33 135.27 5949.98 119.177 5957.28C106.092 5963.21 98.3332 5965.73 84.4503 5969.43C71.1549 5972.98 49.835 5976.01 49.835 5976.01M207.254 5887.05C207.774 5883.42 208.145 5879.97 208.384 5876.55M49.835 5976.01C45.7454 5972.77 41.8263 5969.15 38.0575 5965.17M38.0575 5965.17C38.0575 5965.17 53.6536 5965.17 63.5285 5963.88C84.5231 5961.12 95.7634 5955.93 115.307 5947.78C133.979 5939.99 144.624 5935.32 161.144 5923.65C182.416 5908.61 208.384 5876.55 208.384 5876.55M38.0575 5965.17C36.3146 5963.33 34.6037 5961.4 32.9232 5959.4M208.384 5876.55C208.762 5871.12 208.805 5865.79 208.569 5860.02M208.569 5860.02C208.373 5855.22 207.985 5850.13 207.439 5844.42C207.274 5842.71 207.053 5840.92 206.787 5839.09M208.569 5860.02C208.569 5860.02 207.698 5861.32 206.251 5863.4M32.9232 5959.4C29.3396 5955.13 25.8933 5950.5 22.5652 5945.49C19.1375 5940.33 16.1089 5935.23 13.487 5930.15M32.9232 5959.4C32.9232 5959.4 34.3664 5959.27 36.834 5959.01M13.487 5930.15L29.6029 5908.34L33.0655 5905.5M13.487 5930.15C11.3459 5926 9.47599 5921.87 7.88132 5917.74M105.225 5862.31C109.167 5861.62 115.318 5860.54 115.318 5860.54M105.225 5862.31C96.2234 5880.62 92.834 5892.17 90.5152 5912.45C88.8829 5926.71 90.7556 5949.22 90.7556 5949.22M105.225 5862.31C100.887 5864.16 94.1167 5867.05 94.1167 5867.05M206.251 5863.4C203.383 5867.52 198.253 5874.7 193.147 5880.92M206.251 5863.4L195.947 5861.85M193.147 5880.92C191.536 5882.88 189.928 5884.75 188.394 5886.39C185.801 5889.16 182.484 5892.3 179.311 5895.18M193.147 5880.92L195.947 5861.85M195.947 5861.85L182.762 5859.87M179.311 5895.18C173.746 5900.22 168.622 5904.45 168.622 5904.45C168.622 5904.45 167.082 5905.8 164.53 5907.94M179.311 5895.18L182.762 5859.87M182.762 5859.87L169.302 5857.85M164.53 5907.94C164.53 5907.94 169.256 5889.14 169.824 5876.82C170.165 5869.42 169.302 5857.85 169.302 5857.85M164.53 5907.94C160.818 5911.07 154.963 5915.88 148.596 5920.65M169.302 5857.85L161.742 5856.72M148.596 5920.65C143.193 5924.7 137.42 5928.73 132.274 5931.69C131.455 5932.16 130.651 5932.62 129.86 5933.06M148.596 5920.65C148.596 5920.65 155.496 5899.88 158.122 5886.15C160.297 5874.77 161.742 5856.72 161.742 5856.72M161.742 5856.72L149.441 5854.87M129.86 5933.06C129.86 5933.06 141.435 5909.97 145.278 5894.05C148.888 5879.09 149.441 5854.87 149.441 5854.87M129.86 5933.06C120.7 5938.2 113.313 5941.59 105.136 5944.56M149.441 5854.87C149.441 5854.87 148.847 5854.77 148.465 5854.72C143.634 5854.11 136.183 5856.88 136.183 5856.88M105.136 5944.56C105.136 5944.56 120.749 5919.23 126.907 5901.37C132.695 5884.59 136.183 5856.88 136.183 5856.88M105.136 5944.56C103.727 5945.07 102.296 5945.57 100.827 5946.06M136.183 5856.88L125.411 5858.77M100.161 5932.74C100.161 5932.74 111.991 5913.19 116.885 5899.51C122.36 5884.2 125.411 5858.77 125.411 5858.77M100.161 5932.74L100.827 5946.06M100.161 5932.74C100.161 5932.74 100.439 5912.73 102.713 5900.18C105.607 5884.2 115.318 5860.54 115.318 5860.54M125.411 5858.77L115.318 5860.54M100.827 5946.06C97.6806 5947.12 94.3664 5948.15 90.7556 5949.22M90.7556 5949.22C89.2504 5949.67 87.6936 5950.12 86.076 5950.59C85.1271 5950.86 84.1503 5951.13 83.1501 5951.39M83.1501 5951.39C83.1501 5951.39 81.3778 5926.22 83.2914 5910.28C85.3661 5893 94.1167 5867.05 94.1167 5867.05M83.1501 5951.39C80.7205 5952.02 78.1535 5952.62 75.5166 5953.18M94.1167 5867.05L83.4401 5871.61M75.5166 5953.18C75.5166 5953.18 73.1869 5926.37 75.0837 5909.37C76.758 5894.36 83.4401 5871.61 83.4401 5871.61M75.5166 5953.18C71.3405 5954.07 66.9892 5954.86 62.7317 5955.56M83.4401 5871.61C83.4401 5871.61 71.3759 5875.29 64.6886 5879.61C60.2623 5882.47 54.2474 5888.16 54.2474 5888.16M62.7317 5955.56C62.7317 5955.56 61.1961 5930.01 62.7443 5913.76C64.1616 5898.89 69.3334 5877.06 69.3334 5877.06M62.7317 5955.56C59.4391 5956.1 56.2025 5956.58 53.1463 5957.01M53.1463 5957.01C53.1463 5957.01 50.1006 5936.01 50.3211 5922.48C50.5409 5908.99 54.2474 5888.16 54.2474 5888.16M53.1463 5957.01C50.9559 5957.32 48.8583 5957.59 46.8989 5957.84M54.2474 5888.16L33.0655 5905.5M46.8989 5957.84C46.8989 5957.84 42.6335 5937.21 42.3533 5923.8C42.1179 5912.54 44.4589 5895.03 44.4589 5895.03M46.8989 5957.84C42.7979 5958.36 39.3031 5958.75 36.834 5959.01M36.834 5959.01C36.834 5959.01 33.3977 5944.45 32.556 5934.94C31.5422 5923.49 33.0655 5905.5 33.0655 5905.5M7.88132 5917.74C7.88132 5917.74 26.0673 5894.23 40.6689 5882.3C64.8271 5862.56 82.1143 5854.44 112.484 5847.3C137.962 5841.31 153.488 5840.88 179.436 5844.3C189.565 5845.64 205.078 5849.49 205.078 5849.49M7.88132 5917.74C4.77108 5909.69 2.70796 5901.63 1.72225 5893.45M7.88132 5917.74C6.53507 5914.26 5.38497 5910.77 4.43354 5907.27M208.68 5854.62L200.039 5842.3C200.039 5842.3 197.201 5839.25 192.932 5834.83M78.0008 5773.98C78.0008 5773.98 80.0561 5774.37 83.5919 5775.16M78.0008 5773.98C77.3608 5774.27 76.7173 5774.57 76.0702 5774.87M78.0008 5773.98C85.0591 5770.74 91.7099 5768.16 98.3195 5766.32M192.932 5834.83C192.932 5834.83 167 5830.36 150.263 5830.71C126.689 5831.22 113.102 5833.9 90.9387 5841.95C67.5952 5850.43 54.7706 5857.55 35.6951 5873.45C21.4746 5885.31 4.43354 5907.27 4.43354 5907.27M192.932 5834.83C189.93 5831.73 186.221 5827.95 182.295 5824.09M4.43354 5907.27C3.18693 5902.69 2.28125 5898.09 1.72225 5893.45M1.72225 5893.45C1.72225 5893.45 6.28981 5887.8 13.0596 5880.33M1.72225 5893.45C0.113374 5880.09 1.37474 5866.39 5.63782 5851.8M125.076 5821.39C128.62 5820.99 132.488 5820.78 136.488 5820.72M125.076 5821.39L146.635 5796.84M125.076 5821.39C122.206 5821.71 119.437 5822.06 116.756 5822.43M182.295 5824.09C177.357 5819.23 172.075 5814.24 167.425 5810.29C163.191 5806.7 158.314 5803.38 153.069 5800.34M182.295 5824.09C182.295 5824.09 157.573 5820.41 136.488 5820.72M136.488 5820.72L153.069 5800.34M153.069 5800.34C150.977 5799.13 148.826 5797.96 146.635 5796.84M146.635 5796.84C144.709 5795.85 142.751 5794.89 140.773 5793.97M116.756 5822.43L140.773 5793.97M116.756 5822.43C113.335 5822.91 110.057 5823.44 106.892 5824.02M140.773 5793.97C138.731 5793.02 136.668 5792.1 134.596 5791.22M106.892 5824.02L134.596 5791.22M106.892 5824.02C102.286 5824.87 97.9213 5825.85 93.7093 5826.99M134.596 5791.22C131.804 5790.03 128.996 5788.91 126.205 5787.85M93.7093 5826.99L126.205 5787.85M93.7093 5826.99C86.4957 5828.94 79.7302 5831.37 72.9673 5834.46M126.205 5787.85C122.232 5786.34 118.293 5784.95 114.478 5783.69M72.9673 5834.46C72.9673 5834.46 83.8804 5816.79 92.328 5806.56C100.249 5796.98 114.478 5783.69 114.478 5783.69M72.9673 5834.46C69.1687 5836.2 65.3709 5838.14 61.495 5840.33M114.478 5783.69C111.403 5782.68 108.41 5781.75 105.545 5780.9M61.495 5840.33C56.0906 5843.38 50.5343 5846.91 44.6123 5851C43.4736 5851.78 42.3208 5852.62 41.1595 5853.51M61.495 5840.33C61.495 5840.33 72.4738 5818.11 82.0974 5805.62C90.2222 5795.08 105.545 5780.9 105.545 5780.9M105.545 5780.9C100.225 5779.32 95.3499 5778.01 91.2291 5776.98M41.1595 5853.51L51.8006 5832.94M41.1595 5853.51C40.5995 5853.93 40.0376 5854.37 39.4742 5854.82M91.2291 5776.98L81.5396 5787.89M91.2291 5776.98C88.251 5776.23 85.6666 5775.63 83.5919 5775.16M81.5396 5787.89L69.8961 5800.99M81.5396 5787.89C81.5396 5787.89 81.5893 5783.96 81.9842 5781.49C82.3861 5778.97 83.5919 5775.16 83.5919 5775.16M69.8961 5800.99C69.8961 5800.99 67.5071 5803.48 66.1495 5805.21C62.1118 5810.37 58.4389 5820.11 58.4389 5820.11M69.8961 5800.99C69.8961 5800.99 71.2608 5792.56 72.5385 5787.24C73.7125 5782.36 76.0702 5774.87 76.0702 5774.87M76.0702 5774.87C73.8088 5775.94 71.5031 5777.07 69.1414 5778.27C68.1956 5778.75 67.2622 5779.23 66.3409 5779.71M58.4389 5820.11L51.8006 5832.94M58.4389 5820.11C58.4389 5820.11 60.9074 5807.49 62.4892 5799.4C63.8013 5792.69 65.7236 5782.87 66.3409 5779.71M66.5394 5778.69C66.5394 5778.69 66.4677 5779.06 66.3409 5779.71M51.8006 5832.94C51.8006 5832.94 52.2023 5814.62 54.0547 5803.06C55.2463 5795.63 58.1249 5784.22 58.1249 5784.22M58.1249 5784.22C53.0678 5787.14 48.4181 5790.16 44.1301 5793.36M58.1249 5784.22C60.7515 5782.7 63.4881 5781.2 66.3409 5779.71M39.4742 5854.82C39.4742 5854.82 39.1629 5835.69 40.1086 5823.48C41.0256 5811.65 44.1301 5793.36 44.1301 5793.36M39.4742 5854.82C35.7426 5857.78 31.9512 5861.15 28.2821 5864.64M44.1301 5793.36C38.1374 5797.83 32.8512 5802.66 28.147 5808.12M28.2821 5864.64C26.1007 5866.72 23.9625 5868.84 21.9057 5870.93M28.2821 5864.64C28.2821 5864.64 26.9398 5847.74 26.8958 5836.89C26.8503 5825.65 28.147 5808.12 28.147 5808.12M28.147 5808.12C24.5398 5812.32 21.2749 5816.88 18.296 5821.94M21.9057 5870.93C18.7131 5874.19 15.7167 5877.4 13.0596 5880.33M21.9057 5870.93C21.9057 5870.93 19.7965 5856.16 19.0906 5846.64C18.3775 5837.02 18.296 5821.94 18.296 5821.94M18.296 5821.94C14.9445 5827.64 11.9553 5833.96 9.2484 5841.08C7.86902 5844.71 6.66609 5848.28 5.63782 5851.8M13.0596 5880.33C13.0596 5880.33 10.2829 5872.31 8.83367 5866.74C7.38448 5861.17 5.63782 5851.8 5.63782 5851.8M206.787 5839.09C206.787 5839.09 196.287 5823.5 188.002 5814.86C175.451 5801.76 166.674 5795.89 150.959 5786.82C131.849 5775.8 98.3195 5766.32 98.3195 5766.32M206.787 5839.09C205.969 5833.49 204.718 5827.45 203.309 5821.58M98.3195 5766.32C103.414 5764.9 108.484 5763.91 113.696 5763.38M203.309 5821.58C203.309 5821.58 190.818 5807.86 181.747 5800.24C169.676 5790.11 162.122 5785.19 148.205 5777.79C135.313 5770.93 113.696 5763.38 113.696 5763.38M203.309 5821.58C201.9 5815.71 200.334 5810 198.889 5805.04M113.696 5763.38C119.733 5762.77 125.962 5762.78 132.643 5763.45M198.889 5805.04C198.889 5805.04 182.817 5789.45 170.899 5781.65C157.056 5772.59 132.643 5763.45 132.643 5763.45M132.643 5763.45C136.612 5763.85 140.74 5764.48 145.083 5765.35C149.058 5766.15 151.282 5766.22 153.064 5766.27C155.551 5766.34 158.802 5654.22 158.802 5654.22C158.802 5654.22 158.802 5649.66 158.802 5646.18C158.802 5634.8 156.073 5630.46 153.238 5616.6C150.403 5602.74 144.271 5542.13 145.507 5535.2C145.507 5535.2 145.503 5534.15 145.507 5533.47C145.726 5495.39 185.588 5419.49 185.588 5419.49C185.588 5419.49 226.407 5342.84 234.661 5289.05C245.074 5221.18 215.222 5114.31 215.222 5114.31L175.512 4913.94C175.512 4913.94 154.54 4808.26 160.522 4740.56C175.227 4574.15 314.239 4526.29 376.333 4371.2C452.73 4180.37 424.415 4054.6 485.71 3858.4C548.272 3658.15 623.628 3552.29 693.91 3362.36C733.104 3256.45 749.731 3152.78 761.038 3040.41C772.492 2926.57 751.772 2783.75 751.772 2783.75C744.299 2689.04 736.064 2632.61 693.91 2547.48C639.306 2437.2 556.859 2412.2 480.088 2316.03C345.306 2147.19 253.601 2050.69 192.441 1843.49C154.289 1714.24 127.952 1634.24 149.044 1501.14C169.483 1372.15 208.037 1299.93 288.877 1197.36C384.946 1075.47 473.383 1035.84 611.939 965.917C720.952 910.904 824.516 950.717 906.071 859.837C1038.22 712.576 913.074 539.63 833.743 358.367C792.048 263.098 768.204 204.51 693.911 131.742C624.068 63.3334 480.088 1.5523 480.088 1.5523L500.097 1.55209M500.097 1.55209C579.648 47.813 624.25 73.7496 703.801 120.01M500.097 1.55209L703.801 120.01M703.801 120.01C783.352 166.271 809.333 257.72 853.543 358.367C933.16 539.62 1051.63 705.427 927.74 859.837C844.621 963.432 728.396 922.226 611.939 986.089C478.938 1059.03 390.034 1095.72 300.44 1218.12C229.649 1314.84 200.441 1382.76 181.726 1501.14C160.804 1633.48 183.657 1713.41 220.367 1841.81M220.847 1843.49L220.367 1841.81M220.847 1843.49C220.687 1842.93 220.527 1842.37 220.367 1841.81" stroke="#FECACA" stroke-width="2"/>
</svg>
