<svg width="290" height="415" viewBox="0 0 290 415" fill="none" xmlns="http://www.w3.org/2000/svg">
<g filter="url(#filter0_d_3626_792)">
<path d="M54.5309 140.665C54.5309 140.665 65.0283 139.664 71.7236 140.199C75.8378 140.528 82.181 141.73 82.181 141.73M51.4058 138.494C51.4058 138.494 60.0042 136.468 65.5779 136.702C71.566 136.953 80.5474 140.084 80.5474 140.084M50.0173 136.533C50.0173 136.533 58.3558 134.746 63.7685 134.793C69.034 134.839 77.1211 136.669 77.1211 136.669M50.7848 133.585C50.7848 133.585 58.4844 131.343 63.4136 131.987C64.9203 132.184 67.2211 132.789 67.2211 132.789M35.4088 128.116C35.4088 128.116 41.4965 123.192 46.1356 121.627C50.375 120.196 53.0388 119.874 57.5019 120.189C62.4362 120.537 69.6473 123.785 69.6473 123.785M39.8996 127.548C39.8996 127.548 46.0641 124.296 50.3844 123.654C57.2781 122.63 67.9148 126.997 67.9148 126.997M37.1397 123.762C37.1397 123.762 42.6884 119.553 46.8504 118.256C52.0402 116.64 60.7613 117.78 60.7613 117.78L65.4994 119.177M38.0104 119.375C38.0104 119.375 45.7673 115.15 51.2296 114.566C56.2651 114.027 64.1095 116.073 64.1095 116.073M37.6199 116.287C37.6199 116.287 46.268 112.864 52.1049 112.461C56.2005 112.178 62.5961 113.128 62.5961 113.128M40.3182 113.952C40.3182 113.952 47.0623 110.388 51.7857 109.937C55.9194 109.542 62.3478 111.165 62.3478 111.165M35.9684 114.502C35.9684 114.502 43.0616 109.151 48.4323 108.221C51.3352 107.719 55.9755 108.121 55.9755 108.121M34.3665 110.854C34.3665 110.854 39.6282 108.399 43.2032 107.456C47.5291 106.314 54.569 106.018 54.569 106.018M37.2724 106.778C37.2724 106.778 43.5848 104.193 47.8639 103.728C51.7097 103.31 57.7589 104.187 57.7589 104.187" stroke="black"/>
<path d="M103.871 320.875C99.4542 321.77 96.3272 326.657 98.0321 330.828C99.3472 334.046 102.271 335.428 105.743 335.274C108.735 335.14 112.375 331.423 112.375 331.423C112.375 331.423 106.208 336.204 107.145 340.021C107.851 342.9 109.712 344.667 112.611 345.286C115.44 345.891 117.607 344.96 119.618 342.88C122.242 340.166 120.912 333.301 120.912 333.301C120.912 333.301 123.952 338.289 127.188 339.057C130.622 339.872 133.915 339.284 135.793 336.296C137.432 333.688 137.227 330.974 135.514 328.414C133.891 325.987 128.81 325.103 128.81 325.103C128.81 325.103 135.037 324.501 137.024 321.643C137.35 321.175 137.637 320.685 137.88 320.182M103.871 320.875C106.901 320.261 111.344 323.49 111.344 323.49C111.344 323.49 105.772 319.485 105.94 315.827C106.068 313.047 107.272 311.283 109.548 309.681C111.275 308.465 113.204 307.916 115.086 308.034M103.871 320.875C103.871 320.875 97.4373 321.662 93.7956 323.462C87.7668 326.441 81.8904 335.904 81.8904 335.904C81.8904 335.904 78.3609 338.702 75.882 337.363C73.13 335.877 74.4224 333.361 74.0191 330.26M155.448 291.011C155.448 291.011 160.346 287.749 161.45 283.174C162.734 277.857 163.679 274.902 159.427 267.618C157.577 264.447 145.077 256.062 140.055 260.395C138.088 262.092 138.482 263.62 139.444 265.583C140.64 268.024 144.777 263.521 146.384 266.118C148.998 270.343 142.02 284.103 138.61 286.145C130.302 291.118 125.679 299.619 125.679 299.619C125.679 299.619 132.565 284.86 128.395 276.423C124.907 269.364 118.861 262.255 112.798 263.94C111.482 264.305 110.62 266.813 110.62 266.813C110.62 266.813 100.525 253.138 91.358 255.439C83.4822 257.416 74.1821 264.572 75.5849 271.914C76.0056 274.116 77.028 275.193 78.6949 275.964M155.448 291.011C155.448 291.011 164.014 289.647 166.062 293.366C168.443 297.687 162.429 303.232 159.39 304.094C156.352 304.956 154.648 305.439 151.61 306.301M155.448 291.011L146.631 295.893C146.631 295.893 141.085 299.553 138.238 302.651C136.272 304.79 133.794 308.618 133.794 308.618M151.61 306.301C151.61 306.301 146.23 305.889 143.329 307.378C140.592 308.783 137.833 313.022 137.833 313.022M151.61 306.301C151.61 306.301 153.83 306.826 155.672 307.937M157.534 315.091C157.534 315.091 158.535 312.153 157.97 310.403C157.641 309.385 156.718 308.567 155.672 307.937M157.534 315.091C157.534 315.091 151.818 318.516 147.742 319.507C146.351 319.845 144.636 320.025 143.028 320.118M157.534 315.091C157.534 315.091 159.711 316.555 162.138 318.377M155.998 354.582C156.709 352.844 156.356 349.686 156.356 349.686C156.356 349.686 168.869 357.259 179.221 353.195C184.972 350.938 189.116 345.426 189.116 345.426C189.116 345.426 194.009 336.525 190.871 333.614C189.408 332.257 187.743 332.26 185.976 332.707M155.998 354.582C154.749 357.634 147.91 356.609 143.1 355.1C138.584 353.684 133.281 348 133.281 348C133.281 348 136.4 363.756 132.957 372.816C129.785 381.165 126.704 387.015 118.495 390.533C111.41 393.569 103.372 392.581 95.7011 389.888C91.4343 388.39 89.9904 386.433 89.426 384.044M155.998 354.582C155.998 354.582 151.836 354.009 149.287 353.192C142.553 351.035 134.273 343.071 134.273 343.071M50.3425 306.473C45.462 314.876 45.4854 319.769 46.4356 327.002C47.5412 335.417 51.1954 338.762 57.5977 342.729C60.4621 344.503 65.6106 345.929 65.6106 345.929C65.6106 345.929 64.3541 348.378 64.2312 350.083C64.1314 351.468 64.6897 353.608 64.6897 353.608C64.6897 353.608 71.646 355.472 79.131 351.73C83.53 349.531 88.4701 341.869 91.329 340.191C97.4356 336.606 98.9771 338.094 98.9771 338.094C98.9771 338.094 94.2305 346.732 90.775 352.009C86.3327 358.793 94.0332 370.458 96.1979 374.066C97.9124 376.923 96.2336 381.242 96.2336 381.242C96.2336 381.242 93.9279 382.093 92.5067 381.727C90.3778 381.177 88.7678 377.517 88.7678 377.517C89.0852 379.958 88.9758 382.138 89.426 384.044M50.3425 306.473C53.3757 301.25 62.0315 295.73 67.2647 298.745C71.0259 300.911 74.2599 304.515 72.5687 308.513C71.6619 310.656 69.0415 312.407 69.0415 312.407C69.0415 312.407 67.222 305.481 64.0874 306.478C60.9974 307.462 61.0163 311.446 62.2706 314.334C63.594 317.382 66.559 317.579 69.8057 318.284C77.226 319.894 79.9057 311.208 87.4052 310.019C91.0848 309.436 96.943 309.825 96.943 309.825C96.943 309.825 94.542 306.608 93.1503 300.906C92.2895 297.379 93.1062 279.64 91.2931 275.604C88.54 269.477 82.473 272.093 82.473 272.093C82.473 272.093 83.3071 277.611 79.9376 276.454C79.4894 276.3 79.0754 276.14 78.6949 275.964M50.3425 306.473C50.3425 306.473 48.0884 313.279 48.9238 317.565C49.8807 322.474 50.8084 326.222 54.5307 329.563C57.5306 332.256 60.7352 333.122 64.7544 333.433C68.5674 333.729 74.0191 330.26 74.0191 330.26M89.426 384.044C89.426 384.044 95.667 388.188 99.6094 386.941C104.273 385.467 106.136 381.186 106.207 376.295C106.274 371.723 98.8158 362.064 98.8158 362.064M98.8158 362.064L97.3962 351.148M98.8158 362.064C98.8158 362.064 104.549 370.365 107.285 369.415C110.162 368.415 110.018 362.11 110.018 362.11L105.014 342.57M64.0272 306.015C64.0272 306.015 61.7951 306.299 60.54 306.94C59.4008 307.521 58.6197 308.152 57.9642 308.955M56.5972 311.114C55.8428 312.539 55.4951 313.886 55.4446 315.222M56.5972 311.114C56.5972 311.114 58.6017 315.787 60.7736 318.114C62.4234 319.882 65.6699 321.904 65.6699 321.904M56.5972 311.114C57.0479 310.262 57.4704 309.56 57.9642 308.955M74.0191 330.26C71.5869 331.308 69.9133 331.526 67.2939 331.134C62.076 330.355 59.2818 327.01 57.1895 322.167C56.1145 319.679 55.3596 317.467 55.4446 315.222M74.0191 330.26C77.0313 327.195 81.7322 322.412 81.7322 322.412M78.6949 275.964C78.6949 275.964 77.9532 272.511 78.5 270.412C79.4433 266.789 81.6609 264.823 85.1746 263.533C89.7632 261.848 93.4602 263.609 97.3022 266.631C99.7233 268.535 100.87 270.083 102.054 272.926C104.402 278.565 100.14 288.45 100.14 288.45C100.14 288.45 103.464 277.883 108.357 277.211C112.342 276.664 112.614 289.022 112.614 289.022C112.614 289.022 110.481 294.267 111.134 298.567C111.736 302.528 115.086 308.034 115.086 308.034M115.086 308.034C116.96 308.152 118.786 308.931 120.32 310.37C122.366 312.291 122.981 317.047 122.981 317.047C122.981 317.047 125.597 312.407 128.501 311.248C131.516 310.046 134.377 309.647 136.792 311.815C137.207 312.187 137.552 312.592 137.833 313.022M137.833 313.022C139.199 315.113 139.035 317.794 137.88 320.182M137.88 320.182C137.88 320.182 140.299 320.276 143.028 320.118M143.028 320.118C143.028 320.118 146.838 322.922 148.505 325.374C150.568 328.408 149.113 331.557 151.618 334.238C153.681 336.448 155.535 338.517 158.478 337.826C162.958 336.774 156.959 326.141 156.959 326.141C156.959 326.141 162.19 334.957 167.577 338.138C172.371 340.968 176.205 343.827 181.368 341.746C184.621 340.435 188.704 338.9 187.825 335.505C187.497 334.237 185.976 332.707 185.976 332.707M185.976 332.707C183.043 333.449 179.827 335.41 176.777 334.4C170.783 332.415 171.128 326.211 166.49 321.926C165.251 320.781 163.646 319.51 162.138 318.377M115.666 266.702C115.666 266.702 119.436 274.044 120.771 279.111C122.749 286.617 121.972 298.95 121.972 298.95M122.525 275.368C122.525 275.368 124.049 283.76 124.324 289.2C124.533 293.338 124.223 299.808 124.223 299.808M116.888 276.102C116.888 276.102 118.168 283.786 118.534 288.756C118.824 292.704 118.827 298.889 118.827 298.889M114.871 279.878C114.871 279.878 116.17 287.445 116.492 292.343C116.708 295.635 116.684 300.788 116.684 300.788M152.321 275.008C152.321 275.008 149.632 281.034 147.275 284.515C144.827 288.13 142.931 289.767 140.016 293.018C136.86 296.539 131.698 301.818 131.698 301.818M155.15 279.398C155.15 279.398 153.425 283.381 151.822 285.624C149.618 288.706 147.619 289.785 144.865 292.388C140.614 296.404 133.757 302.431 133.757 302.431M148.259 276.508C145.93 280.303 144.34 284.131 140.848 288.302C137.868 291.86 132.214 296.468 132.214 296.468C129.478 299.055 130.471 299.512 130.471 299.512M159.3 298.229C159.3 298.229 152.236 298.836 148.127 300.562C144.084 302.26 138.774 306.775 138.774 306.775M156.747 301.001C152.492 302.547 150.106 303.414 145.85 304.96M153.982 294.937C153.982 294.937 149.278 297.217 146.395 298.912C143.741 300.472 139.785 303.207 139.785 303.207M96.3825 263.295C96.3825 263.295 100.297 266.11 102.265 268.445C104.08 270.598 106.101 274.553 106.101 274.553M96.0093 260.425C96.0093 260.425 101.342 264.024 104.01 267.094C106.195 269.61 108.713 274.213 108.713 274.213M100.572 261.531C100.572 261.531 104.927 265.034 107.134 267.811C109.338 270.584 111.764 275.609 111.764 275.609M106.593 286.961C106.593 286.961 104.61 293.751 105.322 298.052C106.072 302.594 110.532 308.627 110.532 308.627M108.627 293.981C108.627 293.981 107.641 298.907 108.529 301.849C109.329 304.498 112.338 307.823 112.338 307.823M104.138 316.901C104.138 316.901 97.1361 316.103 93.0213 317.507C86.2951 319.803 80.1845 330.408 80.1845 330.408M101.399 314.773C101.399 314.773 100.934 314.695 100.155 314.593M77.1163 321.751C77.1163 321.751 82.0445 315.952 87.9975 314.574C91.8893 313.673 97.6465 314.263 100.155 314.593M104.309 318.214C104.309 318.214 100.13 318.491 97.5298 319.096C95.0568 319.671 91.3641 321.159 91.3641 321.159M100.155 314.593C100.155 314.593 95.5793 314.807 92.7672 315.554C90.5461 316.143 87.2644 317.639 87.2644 317.639M55.4446 315.222C55.4446 315.222 58.2651 320.956 61.4398 323.236C63.2541 324.539 66.5903 325.724 66.5903 325.724M57.9642 308.955C57.9642 308.955 59.4123 313.52 61.3016 315.955C63.0398 318.195 66.9764 320.894 66.9764 320.894M69.5698 351.892C69.9031 351.849 75.1596 349.496 77.7463 348.325C80.3329 347.154 82.0625 344.029 82.0625 344.029M69.2496 349.43C69.2496 349.43 73.6419 348.558 76.2516 347.427C78.6637 346.382 82.0625 344.029 82.0625 344.029M82.0625 344.029L86.3787 339.733L89.7409 336.682C89.7409 336.682 85.1352 341.618 81.3202 343.38C77.6147 345.091 71.0779 345.458 71.0779 345.458M102.539 340.62C102.539 340.62 100.015 348.513 100.978 353.479C101.612 356.751 104.264 361.355 104.264 361.355M118.031 346.672C118.031 346.672 121.932 358.278 120.491 365.587C119.679 369.706 118.929 372.13 116.552 375.592C114.269 378.917 109.005 382.644 109.005 382.644M115.522 346.998C115.522 346.998 117.538 357.918 116.724 364.862C116.383 367.772 116.507 369.562 115.283 372.224C114.186 374.611 111.248 377.606 111.248 377.606M105.448 387.853C105.448 387.853 110.865 386.924 113.757 385.102C117.515 382.733 121.006 376.337 121.006 376.337M116.462 388.076C116.462 388.076 122.404 384.128 125.086 380.553C128.179 376.43 129.068 373.422 130.239 368.403C131.899 361.293 129.953 349.711 129.953 349.711L128.319 342.603M126.229 342.02C126.229 342.02 128.086 351.126 128.182 357.04C128.27 362.394 128.746 365.636 127.006 370.7C126.142 373.215 124.032 376.826 124.032 376.826M124.103 339.458C124.103 339.458 126.291 349.031 126.156 355.247C126.073 359.078 125.034 364.996 125.034 364.996M121.833 340.382C121.833 340.382 122.869 346.583 123.161 350.594C123.438 354.405 123.345 360.377 123.345 360.377M137.044 340.179C137.044 340.179 142.873 346.033 147.281 348.877C150.126 350.712 154.939 352.944 154.939 352.944M139.253 338.783C139.253 338.783 144.355 344.689 148.52 347.296C151.077 348.896 155.484 350.634 155.484 350.634M140.506 335.153C140.506 335.153 144.967 340.886 148.577 343.743C151.328 345.92 156.201 348.496 156.201 348.496M148.013 321.587C148.013 321.587 152.483 323.271 154.121 325.611C155.327 327.333 155.896 330.692 155.896 330.692M152.448 319.637C155.824 321.766 157.716 322.959 161.092 325.088M156.087 318.422C156.087 318.422 162.537 323.595 166.183 327.414C168.846 330.203 172.568 334.948 172.568 334.948M155.672 307.937C155.672 307.937 164.841 308.004 170.679 307.461C187.042 305.938 197.515 304.833 211.205 295.448C222.201 287.91 236.488 273.416 236.488 273.416M162.138 318.377L176.867 316.462C176.867 316.462 187.353 314.457 193.74 312.106C211.854 305.438 233.38 282.583 233.38 282.583M244.524 255.527C244.524 255.527 227.531 253.281 216.868 249.334C208.411 246.204 203.072 244.566 195.561 239.494C184.137 231.781 171.711 221.506 171.711 221.506M193.584 224.297C193.584 224.297 203.147 231.692 209.988 235.218C218.826 239.774 224.263 241.816 234.06 243.51C242.661 244.998 256.401 244.193 256.401 244.193M193.584 224.297C193.584 224.297 189.014 224.461 186.144 223.989C179.757 222.939 171.123 216.982 171.123 216.982M193.584 224.297L196.682 222.619C196.209 221.962 196.662 222.462 196.662 222.462C196.662 222.462 187.401 215.784 184.419 210.72C182.855 208.063 182.876 205.342 183.194 202.652M171.123 216.982C171.123 216.982 172.519 221.27 172.033 223.984C171.519 226.857 169.52 229.525 167.711 231.816C161.597 239.565 148.502 242.423 141.055 235.944C138.277 233.528 138.879 231.411 138.879 231.411C138.879 231.411 142.185 233.548 144.672 233.153C148.084 232.61 149.99 230.176 150.589 226.773C151.616 220.939 145.215 215.923 146.01 208.677C146.4 205.127 146.72 202.339 148.116 199.733M171.123 216.982C171.123 216.982 164.164 209.332 161.634 203.364C159.851 199.158 158.682 192.046 158.682 192.046M158.682 192.046C158.682 192.046 162.51 185.196 166.813 183.839C169.511 182.988 171.944 183.23 174.176 184.186M158.682 192.046C158.682 192.046 158.419 192.134 157.98 192.297C156.391 192.89 152.503 194.48 150.512 196.52C149.47 197.587 148.699 198.644 148.116 199.733M174.176 184.186C176.983 185.388 179.473 187.718 181.78 190.425C184.964 194.162 183.702 198.367 183.194 202.652M174.176 184.186C174.176 184.186 178.039 182.425 180.688 182.034C183.314 181.648 183.996 181.556 185.65 181.934M183.194 202.652C183.194 202.652 188.138 206.696 191.911 208.016C196.86 209.746 200.296 210.232 205.317 208.722C209.76 207.386 212.608 205.935 215.149 202.053C216.892 199.389 217.652 194.295 217.652 194.295C217.652 194.295 209.958 196.486 205.151 195.512C197.452 193.953 195.187 184.489 187.605 182.44C186.794 182.221 186.173 182.054 185.65 181.934M148.116 199.733C148.116 199.733 142.129 200.979 138.24 201.017C132.015 201.078 128.6 199.651 122.565 198.126C106.941 194.178 101.084 186.772 89.634 183.706C80.4561 181.248 74.398 180.038 66.9832 182.46C61.846 184.138 58.9809 189.531 59.5421 193.306C60.2826 198.287 70.6097 199.603 68.3476 204.102C68.3476 204.102 61.9725 206.006 57.7881 203.984C53.1474 201.741 51.8299 200.208 47.5766 195.622C43.3233 191.036 37.5138 179.32 39.2415 168.299C40.9127 157.639 45.5277 151.134 54.6433 145.36C63.3433 139.849 70.4429 139.431 80.6351 140.906C85.9052 141.669 93.646 144.987 93.646 144.987M93.646 144.987C93.646 144.987 85.3359 138.238 78.9618 136.295C70.2711 133.645 59.0723 139.215 49.7188 135.904C44.1398 133.93 41.5667 133.392 40.7137 129.057C39.5379 123.081 53.5113 120.145 53.5113 120.145C53.5113 120.145 48.4279 118.299 44.945 118.151C39.9579 117.939 36.479 118.435 33.2179 121.981C30.8095 124.601 29.2008 126.974 29.8926 130.464M93.646 144.987C93.646 144.987 97.5143 147.613 101.085 150.382M29.8926 130.464C30.5598 133.831 33.349 136.301 36.7806 136.355C38.5451 136.382 38.1294 135.668 39.4249 136.011C41.8411 136.65 37.9777 141.625 35.8092 141.907C31.2878 142.495 30.0498 142.228 27.2032 141.97C27.2032 141.97 18.6922 139.18 15.3138 132.36C12.4206 126.52 11.3748 115.844 12.3254 109.396C13.7529 99.7129 25.6201 91.8695 25.6201 91.8695C30.5557 88.097 37.7938 88.2536 41.0976 88.5664M29.8926 130.464C29.8926 130.464 27.5231 126.183 25.539 123.783C23.716 121.578 21.6533 121.178 20.31 118.651C18.7416 115.702 19.1174 113.508 19.2069 110.169C19.2907 107.041 20.5857 102.276 20.5857 102.276C20.5857 102.276 18.9234 115.933 25.3103 116.923C32.5264 118.04 22.6927 105.035 27.3452 99.4068C29.8091 96.4264 30.8252 94.8758 34.3436 93.2715M59.5173 76.8279C58.7633 77.8601 58.9211 79.1852 58.9211 79.1852C58.9211 79.1852 43.3929 75.3118 41.6061 79.1572C39.9892 82.6369 42.859 88.7916 42.859 88.7916C42.859 88.7916 42.1956 88.6704 41.0976 88.5664M59.5173 76.8279C61.8251 73.6684 69.4067 78.7804 69.4067 78.7804L79.6522 84.8427C79.6522 84.8427 75.813 77.2799 78.2064 73.7249C79.2948 72.1081 80.3341 72.0025 81.9767 71.7593C84.0491 71.4525 87.134 73.2364 87.134 73.2364C87.134 73.2364 85.1455 63.1263 81.8833 57.5508C79.6804 53.7858 79.2526 49.5735 74.9627 48.7831C72.9695 48.4158 71.5538 48.4092 69.8161 49.4524C68.018 50.5318 67.1809 51.8176 66.7677 53.8737M59.5173 76.8279C59.1053 80.6016 63.0786 82.336 65.3604 85.8653C65.3604 85.8653 62.1236 83.0593 59.2489 81.7052C53.4147 78.957 43.4569 75.7957 42.6765 82.2567C42.2453 85.8264 46.5681 88.3092 46.5681 88.3092L61.2366 96.9898L48.1815 92.9225L34.3436 93.2715M66.7677 53.8737C66.1299 57.0478 71.626 58.312 70.4196 61.3164C69.8985 62.6141 69.227 63.2221 68.0892 64.035M66.7677 53.8737C66.7677 53.8737 63.9934 50.0315 64.1 47.242C64.2279 43.8976 65.3881 42.0728 67.4378 39.4271C70.1687 35.9022 72.6316 33.5813 76.8088 32.0214C79.1869 31.1334 83.2548 31.1831 83.2548 31.1831C83.2548 31.1831 71.4369 37.1188 75.3801 39.9964C78.8498 42.5284 83.0679 35.5991 88.8084 33.8826C91.9654 32.9386 94.626 33.3474 98.24 33.4929C104.576 33.7479 113.297 38.1116 113.297 38.1116L112.487 36.4054M68.0892 64.035L64.0012 59.8764C64.0012 59.8764 60.2937 54.6347 59.8834 50.7441C59.465 46.7774 60.4573 44.4058 62.1114 40.7762C63.8813 36.8928 68.7258 32.077 68.7258 32.077M68.0892 64.035C66.9384 64.8572 65.1254 65.0749 63.6336 65.0921M142.913 54.3042C142.913 54.3042 139.527 41.0403 141.944 33.5699C143.311 29.3459 144.294 26.9169 147.685 24.7792C150.587 22.95 153.251 23.1038 156.076 24.4097C158.778 25.6586 159.595 29.8576 159.595 29.8576C159.595 29.8576 166.662 19.18 173.17 14.5384C178.536 10.711 182 8.62059 188.486 7.44711C196.201 6.05121 201.548 6.15385 208.405 9.95615C215.42 13.8465 219.537 21.2626 221.203 29.1095C222.358 34.547 221.448 37.4949 218.68 40.8556C216.487 43.5197 212.801 44.6681 209.89 44.0789C208.188 43.7343 208.08 42.8785 207.968 41.6848C207.875 40.6858 208.769 39.9193 209.215 38.8903M142.913 54.3042C142.913 54.3042 139.664 47.8954 136.945 44.2101C133.454 39.4762 127.826 35.406 127.826 35.406C127.826 35.406 121.869 32.3564 120.167 34.1801C118.593 35.8664 119.453 40.0434 119.453 40.0434L118.793 40.1292L112.703 33.5404C112.703 33.5404 111.643 32.5315 109.981 31.1291M142.913 54.3042C142.913 54.3042 145.97 61.204 147.238 65.8483C149.125 72.7607 149.604 84.0429 149.604 84.0429M201.104 62.1702C201.104 62.1702 204.432 58.9228 205.362 57.7885C206.292 56.6542 207.23 54.5805 205.746 52.4582C203.493 49.2372 200.59 49.7256 196.382 50.2624C194.266 50.5325 191.989 51.5797 189.879 52.8713M201.104 62.1702L191.405 70.1414M201.104 62.1702C201.104 62.1702 202.762 64.1337 203.179 66.0195C204.015 69.8068 200.999 72.2233 198.419 74.5323C193.209 79.1948 185.38 86.7602 185.38 86.7602C185.38 86.7602 195.899 80.8567 203.301 79.0618C211.765 77.0093 217.15 75.8541 225.58 78.0432C234.364 80.3245 240.487 84.5068 245.256 92.2291C248.927 98.1742 248.803 103.34 247.507 109.537C246.272 115.44 243.19 117.921 238.42 120.053C235.811 121.219 234.524 121.081 232.231 120.858C229.95 120.636 229.046 119.84 227.836 118.229C226.713 116.733 226.166 115.587 227.352 114.505C228.12 113.805 231.827 115.611 231.827 115.611C231.827 115.611 232.609 115.972 233.633 115.931C235.097 115.873 235.233 114.732 235.162 113.49M185.65 181.934C185.65 181.934 189.149 181.386 191.284 180.656C195.428 179.239 197.544 177.709 200.921 174.92C206.766 170.092 209.545 166.438 212.087 159.038C214.562 151.832 213.109 147.087 213.439 139.474C213.813 130.839 210.838 124.974 214.996 117.397C217.539 112.765 219.34 109.353 224.323 107.596C227.571 106.45 230.633 104.889 233.136 107.255C234.627 108.664 234.927 110.097 235.056 112.144C235.083 112.574 235.136 113.039 235.162 113.49M156.671 191.402C156.671 191.402 145.741 194.672 138.932 193.076C132.186 191.494 121.008 186.157 126.371 181.77C130.535 178.362 134.608 184.225 139.617 185.751C146.426 187.825 156.671 191.402 156.671 191.402ZM156.671 191.402C156.671 191.402 148.162 191.777 142.853 190.778C138.663 189.99 132.415 187.586 132.415 187.586M58.9356 183.507C64.2009 182.175 54.497 169.45 56.8572 162.384C59.5473 154.33 72.7289 152.221 72.7289 152.221C72.7289 152.221 60.5152 157.588 62.4455 165.282C65.0764 175.769 77.9577 162.699 87.3922 159.189C95.6465 156.119 113.474 162.676 113.474 162.676C113.474 162.676 111.413 160.247 108.92 157.588M58.9356 183.507C56.5038 184.122 54.0177 162.753 54.0177 162.753M58.9356 183.507C58.9356 183.507 59.77 186.033 59.4716 187.628C58.7336 191.573 53.2036 186.463 52.9678 179.67C52.732 172.877 52.5999 169.069 52.3641 162.276M41.0976 88.5664L43.0994 90.6399C43.0994 90.6399 37.5923 91.7902 34.3436 93.2715M109.981 31.1291C107.027 28.6375 102.033 25.7334 97.8263 24.2094C89.6165 21.2349 84.0096 20.4145 75.6094 22.7987C68.7948 24.7329 65.6174 26.5878 60.9604 31.9256C60.9604 31.9256 53.3437 40.5633 52.8114 47.6627C52.488 51.9744 53.9241 56.896 56.5363 60.8472C58.2787 63.4826 61.0951 64.9446 61.0951 64.9446C61.0951 64.9446 62.2201 65.1083 63.6336 65.0921M109.981 31.1291L111.234 33.7673M83.8781 115.974C83.8781 115.974 85.1698 124.804 83.2021 126.97C80.3539 130.106 75.8944 130.828 72.4453 128.369C69.062 125.956 67.3822 121.81 70.6811 119.283C73.0349 117.481 77.7043 118.37 77.7043 118.37C77.7043 118.37 69.4525 117.269 64.6427 115.589C59.8545 113.916 57.4857 107.223 60.4855 103.133C63.3565 99.2189 68.6357 101.429 73.1743 103.151C77.4427 104.769 80.0236 109.807 80.0236 109.807C80.0236 109.807 73.8226 102.818 76.221 99.6345C77.2554 98.2615 78.6263 97.9895 80.1454 98.2137M83.8781 115.974C83.8781 115.974 90.5484 115.7 91.4948 112.097C92.5154 108.212 90.8717 103.721 87.7311 101.258M83.8781 115.974C83.8781 115.974 95.5752 124.182 98.713 128.3C101.945 132.542 100.89 136.487 100.89 136.487C100.89 136.487 97.3305 129.493 94.2723 126.226C91.2141 122.958 83.8781 115.974 83.8781 115.974ZM83.8781 115.974C83.8781 115.974 80.8009 113.494 78.5725 112.332C76.0648 111.024 71.7562 109.886 71.7562 109.886M114.939 77.2143L119.322 91.9747L121.586 91.1328L114.939 77.2143ZM114.939 77.2143C114.939 77.2143 114.232 83.2238 112.607 84.544C108.217 88.1114 100.824 87.4721 98.2781 82.4204C96.5491 78.9896 96.2726 74.7824 99.472 72.6555C102.244 70.813 107.921 73.7717 107.921 73.7717C107.921 73.7717 101.536 69.0928 100.341 64.6035C99.0387 59.7106 98.5425 54.1901 103.073 51.9291C108.016 49.4621 112.73 54.4038 115.086 59.4008C116.416 62.2214 116.116 67.3195 116.116 67.3195C116.116 67.3195 117.752 60.8877 121.094 59.9883C125.62 58.7702 128.85 65.7633 129.115 70.443C129.435 76.0825 123.812 79.3872 118.684 78.6436C117.135 78.419 114.939 77.2143 114.939 77.2143ZM114.939 77.2143C114.939 77.2143 112.664 74.8988 111.527 72.7303C110.39 70.5619 109.115 66.1089 109.115 66.1089M159.158 84.8025L162.325 69.4144M159.158 84.8025L160.746 84.596L162.325 69.4144M159.158 84.8025C169.485 86.2772 174.905 93.506 177.877 100.863C180.095 106.354 180.345 107.37 177.533 109.064C174.028 111.176 172.791 103.56 169.002 102.017C165.018 100.395 164.522 102.418 160.28 101.706C154.011 100.655 151.108 94.9061 143.99 95.5291C139.052 95.9613 131.294 100.239 131.294 100.239C131.294 100.239 148.762 97.8143 155.287 104.768C159.23 108.969 165.2 116.457 159.833 118.555C156.5 119.858 155.001 116.37 152.124 115.734M159.158 84.8025C156.075 84.3622 152.856 84.0805 149.604 84.0429M162.325 69.4144C162.325 69.4144 158.265 70.0608 155.903 68.0487C152.896 65.4871 150.884 61.7497 153.267 57.7205C154.799 55.1318 157.587 51.3959 159.624 53.6088C161.2 55.3212 159.429 59.5655 159.429 59.5655C159.429 59.5655 162.317 53.1559 166 51.3019C168.905 49.8392 171.153 49.6498 173.601 51.7911C175.761 53.68 174.813 56.1716 174.469 58.4671C173.985 61.6978 169.424 63.5583 169.424 63.5583C169.424 63.5583 174.937 61.9367 176.517 64.2785C178.294 66.9121 174.504 70.1486 171.78 71.7384C168.591 73.5996 162.325 69.4144 162.325 69.4144ZM162.325 69.4144C162.325 69.4144 163.131 65.7782 164.198 63.6427C165.266 61.5072 167.793 58.4778 167.793 58.4778M104.449 153.147C105.147 153.769 105.886 154.477 106.629 155.219M104.449 153.147C104.449 153.147 94.6077 149.457 88.0502 148.055C82.9254 146.96 79.9963 145.925 74.7621 146.184C68.6222 146.486 59.5983 150.409 59.5983 150.409M104.449 153.147C103.47 152.273 102.294 151.319 101.085 150.382M152.124 115.734C148.809 115 147.081 115.95 144.014 114.494C140.629 112.886 140.866 109.504 137.654 107.978C134.22 106.347 127.937 107.358 127.937 107.358C127.937 107.358 143.634 111.778 140.993 117.181C139.817 119.587 137.756 119.76 135.267 120.199C130.921 120.965 129.167 117.077 124.946 116.973C119.935 116.85 119.324 118.685 114.6 120.613C109.876 122.542 109.89 129.945 109.89 129.945C109.89 129.945 116.767 119.321 123.085 120.887C126.135 121.642 128.392 121.694 129.377 124.312C130.597 127.555 124.491 131.717 124.491 131.717C124.491 131.717 116.555 133.194 113.239 136.666C109.256 140.838 109.118 150.849 109.118 150.849C109.006 149.984 106.707 140.332 104.905 131.715M152.124 115.734C152.124 115.734 152.393 123.031 155.112 126.392C161.952 134.845 165.831 135.353 170.267 142.897C173.995 149.238 176.803 160.562 176.803 160.562M176.803 160.562C177.025 163.574 177.659 166.735 176.998 169.687C175.955 174.352 172.883 179.764 172.883 179.764C172.883 179.764 173.736 179.41 174.941 178.842M176.803 160.562C176.614 158.012 176.722 155.568 178.16 153.447C179.672 151.218 180.207 150.464 182.848 149.938C185.401 149.429 186.292 149.398 188.159 151.211C191.099 154.067 188.218 165.328 188.218 165.328C188.218 165.328 186.028 171.389 181.007 175.34C180.395 175.821 179.67 176.3 178.909 176.756M149.604 84.0429C139.267 83.9233 128.592 86.2699 120.856 93.8298C112.667 101.832 105.223 114.679 104.188 124.024M170.052 133.791C170.052 133.791 173.346 121.01 178.226 114.396C181.75 109.62 183.536 105.677 189.19 103.872C194.589 102.147 200.399 106.219 206.001 105.362C210.304 104.703 211.846 105.494 214.008 101.716M214.008 101.716C214.953 100.064 214.022 103.619 214.008 101.716ZM214.008 101.716C213.953 94.2143 205.055 93.8835 195.132 93.2701M195.132 93.2701L184.162 101.012M195.132 93.2701C195.132 93.2701 205.468 87.068 212.284 88.4606C219.282 89.8905 222.692 103.99 228.028 99.2414C230.366 97.1598 230.411 96.4884 228.969 93.6368C226.381 88.5187 220.842 80.8266 220.842 80.8266C220.842 80.8266 227.438 84.7486 229.471 88.8044C231.032 91.9182 230.024 95.9624 231.411 98.8446C233.216 102.592 238.326 102.386 238.796 106.519M238.796 106.519C239.059 108.832 238.666 104.194 238.796 106.519ZM238.796 106.519C238.874 107.928 239.23 108.251 239.673 107.896M237.211 88.964C237.211 88.964 241.86 96.2195 241.856 100.699C241.853 103.593 240.58 107.168 239.673 107.896M239.673 107.896C239.673 107.896 239.223 110.624 238.342 111.716C237.462 112.808 235.162 113.49 235.162 113.49M156.399 53.7444C156.399 53.7444 155.624 42.244 158.028 36.3662C159.99 31.5663 161.693 28.7783 165.778 25.5837C171.519 21.0938 176.705 19.2137 183.818 20.8019C188.393 21.8232 193.161 25.4924 193.161 25.4924C193.161 25.4924 201.188 28.3303 201.113 25.1185C201.081 23.7718 200.775 22.5217 200.775 22.5217M199.159 18.0851C199.897 19.2119 200.775 22.5217 200.775 22.5217M199.159 18.0851C197.942 16.2274 195.496 14.9056 193.228 14.0233M199.159 18.0851C199.159 18.0851 201.748 18.2618 203.239 18.9083C205.662 19.9588 208.166 23.5411 208.166 23.5411M188.255 12.5765C188.255 12.5765 190.624 13.0102 193.228 14.0233M200.775 22.5217C200.775 22.5217 208.054 23.8509 211.078 27.2597C213.386 29.8623 216.071 31.7741 214.855 35.0333C213.922 37.5331 209.215 38.8903 209.215 38.8903M209.215 38.8903C209.391 38.4852 209.497 38.0395 209.447 37.5229C209.213 35.1476 207.582 35.1114 205.269 34.5208C202.357 33.777 200.509 34.6244 197.638 35.5133C186.976 38.8142 181.811 59.3114 181.811 59.3114C181.811 59.3114 185.484 55.5612 189.879 52.8713M163.281 189.909C163.281 189.909 162.823 195.584 163.46 199.129C164.356 204.109 165.473 207.018 168.522 211.057C170.873 214.171 175.928 217.763 175.928 217.763M166.941 187.646C166.941 187.646 164.937 197.319 167.424 202.611C168.472 204.84 171.021 207.792 171.021 207.792M169.56 187.305C169.56 187.305 170.142 197.898 172.736 204.012C174.076 207.172 177.034 211.68 177.034 211.68M172.156 188.755C172.156 188.755 173.709 197.263 175.819 202.335C176.826 204.758 178.781 208.367 178.781 208.367M174.499 186.663C174.499 186.663 175.723 193.331 177.345 197.323C178.688 200.629 181.641 205.388 181.641 205.388M182.347 185.642C182.347 185.642 186.302 192.656 190.302 195.638C192.945 197.61 194.624 198.681 197.825 199.473C200.237 200.07 204.172 199.923 204.172 199.923M184.891 194.95C184.891 194.95 188.532 199.8 191.848 201.526C193.895 202.591 195.182 203.075 197.475 203.329C200.223 203.634 204.496 202.416 204.496 202.416M185.492 199.568C185.492 199.568 189.221 203.57 192.303 205.024C195.552 206.557 197.879 207.786 201.331 206.791C202.809 206.364 204.83 204.98 204.83 204.98M187.038 187.453C187.038 187.453 190.454 193.05 193.876 195.173C197.322 197.311 203.905 197.867 203.905 197.867M168.712 216.717C168.712 216.717 168.483 223.92 166.396 227.833C164.824 230.778 163.585 232.414 160.869 234.353C157.195 236.976 149.768 237.574 149.768 237.574M166.479 214.499C166.479 214.499 166.412 224.129 163.387 228.224C160.062 232.726 150.466 234.721 150.466 234.721M149.828 202.707C149.828 202.707 149.136 208.507 149.73 212.145C150.213 215.101 152.007 219.468 152.007 219.468M152.51 202.358C152.51 202.358 153.121 207.058 153.513 210.069C154.043 214.143 154.87 220.502 154.87 220.502M155.161 200.208L157.084 214.995M159.006 209.354C159.006 209.354 159.86 215.912 158.997 219.965C158.301 223.239 155.836 227.931 155.836 227.931M161.277 211.999C161.277 211.999 162.624 216.594 162.258 219.541C161.836 222.937 158.718 227.556 158.718 227.556M185.338 157.469C185.338 157.469 184.998 163.714 183.769 167.472C182.497 171.362 178.909 176.756 178.909 176.756M178.909 176.756C177.556 177.566 176.089 178.301 174.941 178.842M182.095 162.938C182.095 162.938 180.845 170.095 178.552 174.015C177.364 176.047 174.941 178.842 174.941 178.842M153.639 168.085C153.639 168.085 155.904 172.956 158.026 175.618C160.495 178.717 165.598 182.372 165.598 182.372M165.598 182.372C165.315 183.432 165.013 184.073 165.013 184.073C165.013 184.073 155.654 180.636 151.996 175.869C148.796 171.7 146.366 165.787 149.395 161.493C151.076 159.11 153.182 159.85 156.113 161.27C161.405 163.833 163.282 169.593 165.186 174.153C166.118 176.385 166.195 178.576 165.989 180.329M165.598 182.372C165.751 181.801 165.898 181.108 165.989 180.329M159.92 171.908C159.92 171.908 162.19 176.333 164.308 178.655C164.933 179.339 165.989 180.329 165.989 180.329M117.077 146.717C117.077 146.717 116.272 152.793 117.154 156.517C118.508 162.235 125.425 169.089 125.425 169.089L137.104 179.018M137.104 179.018C135.13 178.079 133.216 176.954 131.49 175.606C124.053 169.794 113.864 162.86 112.949 153.466C112.371 147.536 111.351 141.757 117.208 140.664C119.951 140.152 122.151 140.927 123.296 143.472C127.131 151.994 123.488 157.935 129.011 166.449C135.754 176.844 155.665 183.664 155.665 183.664C155.665 183.664 149.797 183.361 143.12 181.324M137.104 179.018C139.092 179.964 141.142 180.72 143.12 181.324M121.017 152.417C121.017 152.417 121.811 159.991 124.079 164.146C126.07 167.796 131.047 172.196 131.047 172.196L143.12 181.324M69.4382 160.055C69.4382 160.055 75.3661 155.593 81.3246 154.463C87.811 153.234 99.8506 155.17 99.8506 155.17L108.92 157.588M108.92 157.588C108.18 156.799 107.403 155.99 106.629 155.219M83.6102 151.07C83.6102 151.07 89.8569 150.766 93.3792 151.384C98.3037 152.248 106.629 155.219 106.629 155.219M63.0403 145.349C63.0403 145.349 72.357 143.119 78.4023 143.351C84.5695 143.587 88.1456 144.306 93.8606 146.636C96.8034 147.836 101.085 150.382 101.085 150.382M53.7689 148.914C53.7689 148.914 45.6807 155.326 43.1667 161.116C40.0608 168.271 40.3055 173.625 42.5971 181.08C44.8216 188.317 52.1678 197.123 52.1678 197.123M60.2823 198.998C60.2823 198.998 51.1418 194.466 48.5161 189.053C46.465 184.824 46.9641 177.119 46.9641 177.119M65.31 180.745C65.31 180.745 76.186 178.769 83.1094 179.546C90.8083 180.409 94.8684 182.579 101.996 185.615C109.773 188.928 120.962 196.046 120.962 196.046M66.3932 177.924C66.3932 177.924 74.4239 175.993 79.6341 176.202C87.8832 176.534 92.1253 179.528 99.7634 182.661C108.868 186.396 122.077 194.37 122.077 194.37M63.0821 177.197C63.0821 177.197 73.5079 173.663 80.3859 173.872C88.9598 174.132 93.3478 177.35 101.33 180.492C111.463 184.48 126.286 192.933 126.286 192.933M63.4902 173.315C63.4902 173.315 74.9304 171.73 82.1979 172.536C91.6646 173.587 96.5582 176.495 105.431 179.958C113.049 182.932 124.499 188.615 124.499 188.615M86.9555 163.11C86.9555 163.11 94.7071 164.448 99.4539 166.069C106.15 168.355 115.645 174.199 115.645 174.199M82.129 165.763C82.685 165.947 92.9179 167.885 97.9648 168.832C103.012 169.778 116.212 178.556 116.212 178.556M78.7633 169.506C78.7633 169.506 90.159 169.78 97.1195 171.696C105.631 174.039 117.452 181.573 117.452 181.573M21.0532 124.367C21.0532 124.367 23.5887 128.594 25.7028 130.432C27.3298 131.847 30.2177 132.964 30.2177 132.964M21.5597 128.261C21.5597 128.261 23.8447 132.004 26.1016 133.499C28.1554 134.86 32.0517 135.597 32.0517 135.597M19.6579 130.666C19.6579 130.666 22.3467 134.967 25.0376 136.509C27.3554 137.838 31.6524 138.254 31.6524 138.254M50.9018 83.7527C50.9018 83.7527 57.9048 86.1756 62.2113 88.1544C66.598 90.1701 68.9238 91.5838 73.1105 93.9876C75.8899 95.5833 80.1454 98.2137 80.1454 98.2137M80.1454 98.2137C81.5858 98.4263 83.1594 99.085 84.7053 99.6742M54.2924 89.1843C54.2924 89.1843 59.509 91.7525 62.8843 93.3291C65.6598 94.6257 67.3489 95.0854 70.0252 96.576C71.0143 97.1268 72.5144 98.062 72.5144 98.062M52.2356 81.0135C52.2356 81.0135 60.4838 84.902 65.6008 87.7136C73.3152 91.9525 84.7053 99.6742 84.7053 99.6742M84.7053 99.6742C84.9101 99.7523 85.1144 99.8291 85.3178 99.9035C86.1931 100.224 87.0024 100.686 87.7311 101.258M64.3991 78.4728C64.3991 78.4728 71.9143 82.2471 76.3514 85.2719C80.6734 88.2183 82.9805 90.0806 86.7884 93.6668C90.0941 96.78 94.6942 102.193 94.6942 102.193M65.8718 82.3029C65.8718 82.3029 70.6746 83.986 73.449 85.6494C76.5707 87.5211 77.8728 89.213 80.6965 91.5098C83.8094 94.0417 85.9056 95.0883 88.6468 98.0185C90.0437 99.5118 91.958 102.075 91.958 102.075M73.244 89.6631C73.244 89.6631 77.6265 91.8221 80.128 93.6715C83.5008 96.1649 87.7311 101.258 87.7311 101.258M80.5919 78.9295C80.5919 78.9295 86.5813 81.7789 89.683 84.5818C94.6553 89.075 98.6119 99.2366 98.6119 99.2366M81.4956 74.9933C81.4956 74.9933 88.0911 78.7709 91.4693 82.1828C95.8449 86.602 99.9962 95.6321 99.9962 95.6321M93.0134 29.914C93.0134 29.914 98.8299 29.9457 102.355 30.9718C106.666 32.2266 112.487 36.4054 112.487 36.4054M112.487 36.4054L111.234 33.7673M96.1732 27.3463C96.1732 27.3463 102.116 28.1106 105.485 29.7759C107.935 30.9871 111.234 33.7673 111.234 33.7673M60.168 38.4441C60.168 38.4441 55.8595 44.8915 55.9653 49.5146C56.037 52.6485 56.8859 54.3763 58.1892 57.2272C59.7424 60.6245 63.6336 65.0921 63.6336 65.0921M73.226 45.0078C73.226 45.0078 81.3428 45.9494 85.0718 49.1242C89.1743 52.617 91.1399 61.5149 91.1399 61.5149M81.5469 51.9517C81.5469 51.9517 86.4371 57.5953 88.8207 61.8165C90.6346 65.0287 92.3661 70.9436 92.3661 70.9436M127.47 57.7904C127.47 57.7904 124.995 50.6302 121.851 47.1284C119.037 43.9955 113.068 40.8738 113.068 40.8738M116.195 49.6836C116.195 49.6836 112.89 44.9259 110.16 42.4666C106.496 39.1647 99.351 35.9333 99.351 35.9333M94.6898 35.883C94.6898 35.883 103.6 40.0711 107.856 44.5053C109.137 45.8393 110.898 48.1347 110.898 48.1347M124.763 36.9752C124.763 36.9752 129.61 41.6976 131.662 45.4343C132.961 47.7998 134.273 51.8327 134.273 51.8327M120.555 37.1677C120.555 37.1677 125.383 43.5755 127.616 48.1648C129.242 51.5052 131.03 57.0436 131.03 57.0436M134.539 53.8783C134.539 53.8783 140.804 63.7793 141.874 70.9599C142.502 75.1816 141.846 81.8895 141.846 81.8895M153.989 24.6812C153.989 24.6812 150.148 31.4099 149.168 36.179C148.335 40.2342 148.767 46.7725 148.767 46.7725L150.233 64.9579M150.325 25.1577C150.325 25.1577 146.779 29.7107 145.492 33.1086C143.097 39.4267 144.567 43.6838 145.23 50.4077C145.412 52.2535 145.843 55.1173 145.843 55.1173M156.968 28.2188C156.968 28.2188 152.984 34.3082 152.093 38.7524C151.363 42.3876 152.035 48.2462 152.035 48.2462M158.4 44.1949C158.4 44.1949 162.547 36.3342 166.695 32.6385C171.989 27.9223 183.081 24.8229 183.081 24.8229M158.288 50.7896C158.288 50.7896 162.004 43.5996 165.353 39.7119C169.907 34.4245 179.422 28.696 179.422 28.696M159.876 50.5831C159.876 50.5831 164.594 44.1239 167.803 41.1524C172.381 36.9124 179.876 32.1855 179.876 32.1855M163.948 50.0536C163.948 50.0536 169.432 43.8793 173.415 40.4226C177.02 37.2939 183.196 33.093 183.196 33.093M168.722 48.225C168.722 48.225 172.955 44.2298 175.855 41.8914C179.898 38.6312 186.737 34.2469 186.737 34.2469M174.334 47.4952C174.334 47.4952 177.448 44.4384 179.655 42.7345C182.658 40.4164 187.891 37.5847 187.891 37.5847M174.173 72.3825C174.173 72.3825 170.958 75.5926 169.51 78.2918C168.178 80.7741 167.061 85.6535 167.061 85.6535M169.259 86.3751C169.259 86.3751 170.666 81.1023 172.581 77.8925C174.262 75.0738 178.284 70.8926 178.284 70.8926M178.894 75.5786C178.894 75.5786 179.631 68.6084 181.167 64.7631C182.537 61.3301 184.194 59.9696 186.296 56.9291C187.498 55.1903 189.879 52.8713 189.879 52.8713M174.361 91.5794C174.361 91.5794 177.345 84.5512 179.489 80.1564C181.444 76.1496 182.298 73.7421 184.791 70.0464C186.962 66.8291 188.372 65.1258 191.115 62.38C194.322 59.1699 200.188 55.1224 200.188 55.1224M182.126 66.8393C182.126 66.8393 185.442 61.5217 188.056 58.4993C190.284 55.9238 194.275 52.3875 194.275 52.3875M188.8 69.5251C188.8 69.5251 183.653 77.1461 180.65 82.0076C179.342 84.1242 178.269 87.6851 178.269 87.6851M176.234 93.1488C176.234 93.1488 179.457 89.6695 181.336 87.2862C183.719 84.2635 186.952 79.1859 186.952 79.1859M190.962 76.4238C190.962 76.4238 194.444 74.1647 196.287 72.2817C198.449 70.0732 200.859 65.823 200.859 65.823M166.389 23.0685C166.389 23.0685 170.281 17.7341 174.743 16.4272C178.638 15.2862 185.136 16.4059 185.136 16.4059M170.878 20.9207C170.878 20.9207 174.033 19.0305 176.501 18.4792C179.676 17.7697 182.121 17.5409 185.343 17.9944C189.604 18.5942 195.017 23.2705 195.017 23.2705M196.679 9.0133C196.679 9.0133 203.296 9.71241 206.615 11.6171C211.389 14.3561 213.341 17.5114 215.454 22.5932C216.639 25.4413 217.304 30.2718 217.304 30.2718M193.228 14.0233C193.228 14.0233 198.902 13.6806 202.044 15.1572C204.025 16.0882 206.56 18.4763 206.56 18.4763M179.646 98.2732C179.646 98.2732 181.645 93.2003 184.515 90.5122C188.97 86.3392 193.759 84.8231 199.48 82.6943C204.517 80.8201 212.911 79.6908 212.911 79.6908M179.964 100.72C179.964 100.72 184.771 96.6872 187.933 94.2063C192.046 90.9804 193.891 88.3287 198.675 86.2235C201.238 85.0958 202.776 84.6155 205.535 84.1391C209.213 83.504 211.515 83.0262 215.093 84.0884C218.793 85.1866 223.29 89.6083 223.29 89.6083M209.051 86.1607L215.406 86.4949L222.615 94.4631M181.845 105.247C181.845 105.247 187.34 101.677 191.199 100.097C195.018 98.5333 197.244 97.3096 201.37 97.226C204.552 97.1616 209.396 98.6486 209.396 98.6486M150.844 131.776C150.844 131.776 155.908 138.39 158.784 142.878C159.633 144.204 160.908 146.306 160.908 146.306M151.338 124.555C151.338 124.555 152.824 130.149 154.43 133.464C156.977 138.723 160.122 140.608 163.336 145.488C164.235 146.854 165.584 149.021 165.584 149.021M157.232 130.945C157.232 130.945 160.2 135.474 162.002 138.438C163.887 141.539 165.047 143.229 166.658 146.481C168.003 149.196 169.722 153.609 169.722 153.609M164.171 138.156C164.171 138.156 166.87 142.136 168.341 144.837C170.407 148.632 171.446 150.859 172.805 154.96C173.315 156.5 173.969 158.947 173.969 158.947M182.852 112.989C182.852 112.989 175.989 120.729 174.706 126.888C173.917 130.676 174.63 136.796 174.63 136.796M190.091 110.796C190.091 110.796 182.782 117.384 180.102 122.892C178 127.213 176.833 129.955 176.853 134.76C176.863 136.994 177.591 140.432 177.591 140.432M196.583 109.952C196.583 109.952 187.66 114.846 184.699 120.216C183.271 122.805 182.979 124.511 182.203 127.364C181.484 130.01 180.888 131.504 180.808 134.245C180.706 137.724 182.476 142.999 182.476 142.999M197.072 113.712C197.072 113.712 190.607 118.981 187.94 123.466C186.36 126.124 185.328 127.685 184.791 130.73C184.101 134.65 183.478 137.165 183.991 141.112C184.267 143.23 186.811 146.26 186.811 146.26M187.136 171.299C187.136 171.299 192.619 163.556 194.634 157.914C196.809 151.824 196.161 147.937 197.304 141.572C198.575 134.485 198.055 130.109 200.876 123.484C203.788 116.646 211.887 107.961 211.887 107.961M189.292 173.587C189.292 173.587 194.905 165.473 197.426 159.725C201.701 149.975 199.829 143.182 203.194 133.081C204.822 128.196 205.762 125.44 208.01 120.808C209.871 116.971 213.4 111.312 213.4 111.312M191.126 174.024C191.126 174.024 196.728 167.167 199.269 162.151C203.302 154.191 205.101 140.057 205.101 140.057M194.594 174.629C194.594 174.629 199.627 169.204 201.921 165.112C205.014 159.593 206.931 149.705 206.931 149.705L207.795 138.016M198.194 173.105C198.194 173.105 202.381 168.29 204.433 164.785C207.199 160.061 209.58 151.747 209.58 151.747M164.578 155.041C164.578 155.041 167.536 161.656 168.658 166.132C169.881 171.009 170.319 178.899 170.319 178.899M107.95 141.868L110.989 131.881L122.314 125.231M104.905 131.715C104.7 130.737 104.502 129.772 104.314 128.835C104.024 127.389 103.995 125.768 104.188 124.024M104.905 131.715C104.905 131.715 106.963 122.268 110.779 117.745C114.283 113.592 122.321 109.972 122.321 109.972M104.188 124.024C104.188 124.024 107.448 117.66 110.309 114.13C114.456 109.013 123.155 103.202 123.155 103.202M106.665 113.233C106.665 113.233 112.055 106.86 116.196 103.536C119.95 100.522 122.072 98.5884 126.575 96.8866C130.075 95.5639 135.965 94.9848 135.965 94.9848M113.31 102.578C113.31 102.578 120.061 95.8778 125.418 93.2364C130.415 90.7725 133.636 90.142 139.157 89.3952C143.456 88.8137 145.984 88.3707 150.261 89.0952C152.465 89.4685 155.782 90.6095 155.782 90.6095M162.133 91.5816C162.133 91.5816 165.934 92.7822 167.988 94.2212C170.483 95.9689 173.196 100.026 173.196 100.026M125.826 91.1289C125.826 91.1289 134.084 87.703 139.68 86.7884C146.556 85.6643 157.519 87.0072 157.519 87.0072C157.519 87.0072 164.256 88.3906 167.737 90.8529C171.906 93.8022 175.623 101.285 175.623 101.285M130.266 103.273C130.266 103.273 139.103 101.674 144.569 102.835C149.195 103.817 154.301 108.409 154.301 108.409M126.111 106.15C126.111 106.15 136.395 103.231 142.743 104.716C148.842 106.142 156.559 112.862 156.559 112.862M116.542 319.228C112.731 321.062 111.659 325.916 113.163 328.861C115.048 332.552 119.284 332.998 123.033 331.231C126.21 329.734 127.112 327.847 126.656 324.364C126.034 319.614 120.858 317.149 116.542 319.228Z" stroke="#D87F7F"/>
<path d="M178.193 347.785C178.193 347.785 168.727 346.671 163.532 343.807C161.488 342.68 158.588 340.446 158.588 340.446M143.713 333.867C143.713 333.867 150.648 341.907 155.888 345.68C161.247 349.539 170.549 352.536 170.549 352.536M157.606 343.266C157.606 343.266 151.612 336.893 147.249 333.407C143.509 330.418 137.131 326.484 137.131 326.484" stroke="#D87F7F"/>
<path d="M103.381 317.777C103.381 317.777 100.991 314.551 99.6196 308.845C98.7711 305.315 99.65 287.579 97.851 283.537C95.1194 277.4 89.0432 279.995 89.0432 279.995C89.0432 279.995 89.858 285.515 86.4925 284.347C86.0449 284.192 85.6315 284.03 85.2516 283.853C83.5874 283.076 82.5688 281.995 82.1558 279.792C80.7787 272.445 90.1038 265.322 97.9865 263.372C107.162 261.103 117.209 274.814 117.209 274.814C117.209 274.814 118.079 272.309 119.396 271.948C125.465 270.284 131.486 277.415 134.95 284.485C139.091 292.937 132.153 307.671 132.153 307.671C132.153 307.671 136.806 299.187 145.131 294.243C148.547 292.214 155.574 278.477 152.975 274.244C151.377 271.641 147.224 276.13 146.036 273.684C145.082 271.718 144.693 270.188 146.666 268.498C151.703 264.183 164.173 272.612 166.013 275.789C170.238 283.088 169.284 286.039 167.981 291.353C166.861 295.923 161.952 299.169 161.952 299.169C161.952 299.169 170.522 297.834 172.558 301.56C174.923 305.89 168.889 311.413 165.848 312.264L158.06 314.445C158.06 314.445 160.278 314.977 162.116 316.095C162.116 316.095 171.285 316.194 177.125 315.671C193.493 314.205 203.97 313.137 217.693 303.8C228.715 296.301 243.053 281.857 243.053 281.857L239.913 291.013C239.913 291.013 218.306 313.793 200.169 320.397C193.775 322.726 183.281 324.694 183.281 324.694L168.546 326.558C170.05 327.696 171.651 328.972 172.885 330.121C177.508 334.423 177.141 340.626 183.129 342.632C186.175 343.653 189.398 341.702 192.333 340.971C194.102 340.53 195.766 340.532 197.225 341.895C200.353 344.817 195.428 353.701 195.428 353.701C195.428 353.701 191.266 359.198 185.507 361.435C175.14 365.462 162.654 357.846 162.654 357.846C162.654 357.846 162.996 361.005 162.279 362.741C161.019 365.788 154.184 364.739 149.379 363.214C144.869 361.782 139.585 356.079 139.585 356.079C139.585 356.079 142.649 371.846 139.175 380.894C135.973 389.232 132.872 395.071 124.65 398.56C117.555 401.571 109.52 400.555 101.859 397.836C97.5973 396.323 96.1602 394.36 95.6042 391.969C95.1607 390.062 95.2777 387.882 94.9689 385.441C94.9689 385.441 96.566 389.106 98.693 389.663C100.113 390.034 102.422 389.191 102.422 389.191C102.422 389.191 104.116 384.879 102.411 382.015C100.259 378.399 92.5994 366.708 97.0653 359.939C100.539 354.674 105.316 346.053 105.316 346.053C105.316 346.053 103.78 344.56 97.6607 348.123C94.796 349.791 89.8291 357.436 85.4224 359.62C77.9243 363.336 70.9746 361.448 70.9746 361.448C70.9746 361.448 70.4238 359.305 70.5285 357.92C70.6573 356.216 71.9224 353.771 71.9224 353.771C71.9224 353.771 66.779 352.328 63.9208 350.543C57.5324 346.554 53.8899 343.196 52.8138 334.777C51.8889 327.541 51.8827 322.648 56.7926 314.262C59.844 309.05 68.5191 303.56 73.7417 306.593C77.4953 308.773 80.7166 312.388 79.0114 316.379C78.0972 318.52 75.4707 320.262 75.4707 320.262C75.4707 320.262 73.6754 313.329 70.5374 314.315C67.4439 315.288 67.4489 319.272 68.6931 322.165C70.0058 325.217 72.9701 325.425 76.2143 326.141C83.6289 327.778 86.339 319.1 93.8426 317.938C97.5242 317.368 103.381 317.777 103.381 317.777Z" fill="#D87F7F"/>
<path d="M251.151 263.997C251.151 263.997 234.167 261.691 223.517 257.707C215.071 254.547 209.738 252.891 202.245 247.792C192.038 240.849 181.035 231.848 178.848 230.043C178.901 230.799 178.891 231.545 178.771 232.2C178.247 235.071 176.238 237.731 174.422 240.016C168.28 247.744 155.176 250.556 147.751 244.051C144.982 241.626 145.592 239.511 145.592 239.511C145.592 239.511 148.89 241.66 151.378 241.273C154.792 240.742 156.706 238.314 157.317 234.914C158.365 229.083 151.982 224.045 152.802 216.802C153.204 213.254 153.534 210.466 154.939 207.865C154.939 207.865 148.948 209.09 145.058 209.115C138.834 209.153 135.424 207.715 129.394 206.169C113.784 202.166 107.953 194.739 96.5137 191.633C87.3444 189.143 81.2905 187.913 73.8673 190.309C68.7243 191.969 65.8403 197.351 66.3883 201.128C67.1114 206.111 77.4338 207.464 75.1559 211.955C75.1559 211.955 68.7743 213.836 64.597 211.8C59.9641 209.541 58.652 208.003 54.4148 203.402C50.1776 198.801 44.4091 187.065 46.1754 176.05C47.8839 165.396 52.5216 158.907 61.6574 153.165C70.3766 147.685 77.4777 147.291 87.6646 148.802C92.9321 149.584 100.661 152.928 100.661 152.928C100.661 152.928 92.3747 146.151 86.0075 144.185C77.3261 141.505 66.1079 147.036 56.766 143.692C51.1939 141.698 48.6228 141.151 47.785 136.813C46.6301 130.834 60.6137 127.947 60.6137 127.947C60.6137 127.947 55.5368 126.082 52.0544 125.922C47.0681 125.692 43.5875 126.177 40.314 129.712C37.8964 132.322 36.2794 134.69 36.959 138.183C37.6144 141.552 40.3949 144.032 43.8264 144.097C45.5907 144.131 45.1775 143.415 46.4718 143.763C48.8858 144.41 45.005 149.371 42.8355 149.646C38.312 150.218 37.075 149.947 34.2293 149.679C34.2293 149.679 25.7282 146.859 22.3736 140.028C19.5009 134.177 18.4925 123.498 19.4656 117.053C20.927 107.375 32.8217 99.5733 32.8217 99.5733C37.7705 95.8182 45.008 96.0001 48.3107 96.3245C49.4082 96.4323 50.0712 96.5558 50.0712 96.5558C50.0712 96.5558 47.223 90.3912 48.852 86.9171C50.6523 83.078 66.1669 87.0058 66.1669 87.0058C66.1669 87.0058 66.0137 85.6801 66.7713 84.6505C69.0902 81.4992 76.6538 86.6377 76.6538 86.6377L86.8781 92.7357C86.8781 92.7357 83.0654 85.1596 85.4711 81.6129C86.5652 80 87.6049 79.898 89.2483 79.6606C91.3218 79.3611 94.4005 81.1557 94.4005 81.1557C94.4005 81.1557 92.4473 71.0387 89.2046 65.4519C87.015 61.6792 86.6019 57.4654 82.3148 56.66C80.3229 56.2857 78.9073 56.2742 77.1659 57.3113C75.364 58.3844 74.5224 59.6672 74.1021 61.7219C73.4532 64.8937 78.9448 66.1771 77.7279 69.1773C77.2023 70.4731 76.5286 71.0788 75.388 71.8877C74.2343 72.7059 72.4205 72.9172 70.9286 72.9292C69.5151 72.9405 68.3907 72.7728 68.3907 72.7728C68.3907 72.7728 65.5794 71.301 63.8463 68.6595C61.2479 64.6992 59.8291 59.7725 60.1675 55.462C60.7248 48.3645 68.3716 39.7536 68.3716 39.7536C73.0472 34.4321 76.2312 32.5884 83.0525 30.678C91.461 28.3232 97.065 29.1632 105.264 32.1665C109.465 33.7052 114.449 36.6268 117.394 39.1287C119.052 40.5369 120.108 41.5495 120.108 41.5495L126.175 48.1596L126.836 48.0761C126.836 48.0761 125.99 43.8961 127.57 42.2153C129.278 40.3977 135.225 43.468 135.225 43.468C135.225 43.468 140.838 47.558 144.313 52.304C147.019 55.9988 150.246 62.419 150.246 62.419C150.246 62.419 146.905 49.1432 149.349 41.6814C150.731 37.4622 151.723 35.0367 155.121 32.9108C158.029 31.0919 160.693 31.255 163.513 32.5707C166.21 33.8291 167.013 38.0309 167.013 38.0309C167.013 38.0309 174.118 27.3781 180.641 22.7593C186.021 18.9507 189.492 16.8725 195.982 15.7217C203.702 14.3528 209.049 14.4742 215.892 18.3005C222.894 22.2154 226.984 29.6458 228.623 37.4985C229.759 42.94 228.839 45.8847 226.059 49.2357C223.856 51.8921 220.167 53.0276 217.258 52.4282C215.557 52.0777 215.452 51.2214 215.344 50.0274C215.254 49.0281 216.151 48.2647 216.601 47.2372C216.778 46.8328 216.886 46.3874 216.837 45.8707C216.612 43.4945 214.981 43.4527 212.67 42.854C209.761 42.1 207.91 42.9409 205.035 43.8197C194.362 47.0833 189.125 67.5623 189.125 67.5623C189.125 67.5623 192.811 63.825 197.216 61.1505C199.331 59.8663 201.611 58.8271 203.729 58.5644C207.938 58.0423 210.843 57.5641 213.084 60.793C214.561 62.9204 213.615 64.9908 212.681 66.1219C211.747 67.2529 208.409 70.4887 208.409 70.4887C208.409 70.4887 210.06 72.4579 210.47 74.3452C211.293 78.1354 208.268 80.5413 205.68 82.8412C200.454 87.4855 192.599 95.0234 192.599 95.0234C192.599 95.0234 203.138 89.1568 210.546 87.3878C219.018 85.365 224.406 84.2286 232.828 86.4473C241.605 88.7593 247.713 92.9629 252.455 100.702C256.105 106.66 255.963 111.825 254.645 118.018C253.39 123.916 250.299 126.386 245.522 128.502C242.933 129.648 241.646 129.518 239.394 129.291L239.33 129.285C237.05 129.055 236.148 128.256 234.944 126.641C233.826 125.141 233.283 123.993 234.473 122.915C235.243 122.217 238.944 124.037 238.944 124.037C238.944 124.037 239.725 124.4 240.749 124.363C242.214 124.31 242.354 123.17 242.286 121.927C242.262 121.476 242.21 121.012 242.185 120.581C242.064 118.533 241.768 117.099 240.282 115.685C237.788 113.311 234.721 114.861 231.469 115.995C226.566 117.705 224.73 121.024 222.239 125.525L222.107 125.764C217.922 133.326 220.877 139.202 220.473 147.835C220.116 155.447 221.553 160.197 219.052 167.394C216.485 174.785 213.693 178.429 207.83 183.237C204.444 186.014 202.323 187.537 198.174 188.94C196.036 189.662 192.535 190.198 192.535 190.198C193.058 190.319 193.678 190.488 194.488 190.71C202.064 192.786 204.296 202.258 211.988 203.844C216.792 204.835 224.494 202.67 224.494 202.67C224.494 202.67 223.716 207.762 221.964 210.42C219.409 214.293 216.556 215.734 212.108 217.055C207.082 218.547 203.647 218.049 198.705 216.301C194.937 214.968 190.007 210.906 190.007 210.906C189.679 213.596 189.648 216.317 191.203 218.979C193.93 223.647 201.963 229.697 203.234 230.639C203.129 230.456 203.405 230.764 203.405 230.764C203.405 230.764 203.345 230.721 203.234 230.639C203.264 230.689 203.322 230.778 203.425 230.921L200.321 232.588C200.321 232.588 209.858 240.017 216.686 243.567C225.508 248.153 230.938 250.214 240.73 251.943C249.325 253.461 263.068 252.704 263.068 252.704L251.151 263.997Z" fill="#D87F7F"/>
<path d="M110.27 328.852C105.85 329.731 102.706 334.607 104.397 338.784C105.7 342.006 108.619 343.399 112.092 343.257C115.085 343.134 118.738 339.429 118.738 339.429C118.738 339.429 112.554 344.189 113.477 348.009C114.173 350.89 116.028 352.664 118.925 353.293C121.752 353.908 123.921 352.984 125.94 350.911C128.573 348.207 127.268 341.337 127.268 341.337C127.268 341.337 130.29 346.335 133.523 347.115C136.954 347.942 140.249 347.365 142.138 344.384C143.786 341.782 143.591 339.067 141.887 336.501C140.272 334.068 135.194 333.167 135.194 333.167C135.194 333.167 141.423 332.587 143.42 329.736C143.748 329.268 144.037 328.779 144.282 328.277M110.27 328.852C113.303 328.249 117.734 331.493 117.734 331.493C117.734 331.493 112.176 327.468 112.357 323.811C112.495 321.031 113.705 319.271 115.986 317.677C117.718 316.467 119.649 315.925 121.53 316.05M110.27 328.852C110.27 328.852 103.834 329.616 100.186 331.403C94.1467 334.361 88.2372 343.803 88.2372 343.803C88.2372 343.803 84.6979 346.589 82.2237 345.241C79.477 343.746 80.7782 341.235 80.3857 338.132M161.952 299.169C161.952 299.169 166.861 295.923 167.981 291.353C169.284 286.039 170.238 283.088 166.013 275.789C164.173 272.612 151.703 264.183 146.666 268.498C144.693 270.188 145.082 271.718 146.036 273.684C147.224 276.13 151.377 271.641 152.975 274.244C155.574 278.477 148.547 292.214 145.131 294.243C136.806 299.187 132.153 307.671 132.153 307.671C132.153 307.671 139.091 292.937 134.95 284.485C131.486 277.415 125.465 270.284 119.396 271.948C118.079 272.309 117.209 274.814 117.209 274.814C117.209 274.814 107.162 261.103 97.9865 263.372C90.1038 265.322 80.7787 272.445 82.1558 279.792C82.5688 281.995 83.5874 283.076 85.2516 283.853M161.952 299.169C161.952 299.169 170.522 297.834 172.558 301.56C174.923 305.89 168.889 311.413 165.848 312.264C162.807 313.116 161.102 313.593 158.06 314.445M161.952 299.169L153.117 304.019C153.117 304.019 147.559 307.66 144.701 310.748C142.727 312.88 140.236 316.699 140.236 316.699M158.06 314.445C158.06 314.445 152.682 314.014 149.775 315.492C147.033 316.888 144.26 321.118 144.26 321.118M158.06 314.445C158.06 314.445 160.278 314.977 162.116 316.095M163.953 323.256C163.953 323.256 164.964 320.321 164.406 318.569C164.081 317.55 163.16 316.728 162.116 316.095M163.953 323.256C163.953 323.256 158.226 326.66 154.146 327.637C152.754 327.97 151.038 328.145 149.43 328.232M163.953 323.256C163.953 323.256 166.125 324.727 168.546 326.558M162.279 362.741C162.996 361.005 162.654 357.846 162.654 357.846C162.654 357.846 175.14 365.462 185.507 361.435C191.266 359.198 195.428 353.701 195.428 353.701C195.428 353.701 200.353 344.817 197.225 341.895C195.766 340.532 194.102 340.53 192.333 340.971M162.279 362.741C161.019 365.788 154.184 364.739 149.379 363.214C144.869 361.782 139.585 356.079 139.585 356.079C139.585 356.079 142.649 371.846 139.175 380.894C135.973 389.232 132.872 395.071 124.65 398.56C117.555 401.571 109.52 400.555 101.859 397.836C97.5973 396.323 96.1602 394.36 95.6042 391.969M162.279 362.741C162.279 362.741 158.119 362.153 155.573 361.328C148.847 359.146 140.595 351.154 140.595 351.154M56.7926 314.262C51.8827 322.648 51.8889 327.541 52.8138 334.777C53.8899 343.196 57.5324 346.554 63.9208 350.543C66.779 352.328 71.9224 353.771 71.9224 353.771C71.9224 353.771 70.6573 356.216 70.5285 357.92C70.4238 359.305 70.9746 361.448 70.9746 361.448C70.9746 361.448 77.9243 363.336 85.4224 359.62C89.8291 357.436 94.796 349.791 97.6607 348.123C103.78 344.56 105.316 346.053 105.316 346.053C105.316 346.053 100.539 354.674 97.0653 359.939C92.5994 366.708 100.259 378.399 102.411 382.015C104.116 384.879 102.422 389.191 102.422 389.191C102.422 389.191 100.113 390.034 98.693 389.663C96.566 389.106 94.9689 385.441 94.9689 385.441C95.2777 387.882 95.1607 390.062 95.6042 391.969M56.7926 314.262C59.844 309.05 68.5191 303.56 73.7417 306.593C77.4953 308.773 80.7166 312.388 79.0114 316.379C78.0972 318.52 75.4707 320.262 75.4707 320.262C75.4707 320.262 73.6754 313.329 70.5374 314.315C67.4439 315.288 67.4489 319.272 68.6931 322.165C70.0058 325.217 72.9701 325.425 76.2143 326.141C83.6289 327.778 86.339 319.1 93.8426 317.938C97.5242 317.368 103.381 317.777 103.381 317.777C103.381 317.777 100.991 314.551 99.6196 308.845C98.7711 305.315 99.65 287.579 97.851 283.537C95.1194 277.4 89.0432 279.995 89.0432 279.995C89.0432 279.995 89.858 285.515 86.4925 284.347C86.0449 284.192 85.6315 284.03 85.2516 283.853M56.7926 314.262C56.7926 314.262 54.5146 321.06 55.335 325.349C56.2748 330.262 57.1893 334.012 60.8999 337.366C63.8903 340.07 67.0919 340.947 71.11 341.273C74.922 341.581 80.3857 338.132 80.3857 338.132M95.6042 391.969C95.6042 391.969 101.831 396.135 105.777 394.903C110.446 393.445 112.324 389.17 112.413 384.279C112.496 379.708 105.071 370.023 105.071 370.023M105.071 370.023L103.69 359.101M105.071 370.023C105.071 370.023 110.775 378.344 113.514 377.403C116.395 376.413 116.272 370.108 116.272 370.108L111.338 350.55M70.4788 313.852C70.4788 313.852 68.2457 314.129 66.9884 314.764C65.8471 315.341 65.0638 315.97 64.4055 316.771M63.0309 318.925C62.2716 320.347 61.9192 321.693 61.864 323.029M63.0309 318.925C63.0309 318.925 65.0191 323.605 67.1829 325.94C68.8264 327.713 72.0658 329.747 72.0658 329.747M63.0309 318.925C63.4846 318.075 63.9096 317.374 64.4055 316.771M80.3857 338.132C77.9499 339.171 76.2755 339.383 73.6575 338.983C68.4424 338.185 65.6599 334.831 63.5845 329.98C62.5183 327.488 61.7711 325.274 61.864 323.029M80.3857 338.132C83.4086 335.077 88.1263 330.31 88.1263 330.31M85.2516 283.853C85.2516 283.853 84.522 280.397 85.0762 278.3C86.0321 274.681 88.2566 272.722 91.7748 271.444C96.3692 269.775 100.06 271.549 103.891 274.585C106.306 276.497 107.447 278.049 108.621 280.897C110.949 286.544 106.653 296.413 106.653 296.413C106.653 296.413 110.014 285.858 114.909 285.203C118.896 284.67 119.124 297.03 119.124 297.03C119.124 297.03 116.973 302.266 117.611 306.569C118.199 310.532 121.53 316.05 121.53 316.05M121.53 316.05C123.404 316.174 125.227 316.959 126.756 318.404C128.796 320.333 129.394 325.091 129.394 325.091C129.394 325.091 132.026 320.459 134.934 319.311C137.953 318.119 140.815 317.731 143.223 319.907C143.636 320.281 143.981 320.687 144.26 321.118M144.26 321.118C145.618 323.213 145.444 325.893 144.282 328.277M144.282 328.277C144.282 328.277 146.701 328.38 149.43 328.232M149.43 328.232C149.43 328.232 153.23 331.049 154.889 333.507C156.941 336.547 155.475 339.691 157.97 342.381C160.026 344.598 161.872 346.674 164.818 345.994C169.302 344.958 163.339 334.304 163.339 334.304C163.339 334.304 168.539 343.138 173.916 346.337C178.7 349.184 182.523 352.057 187.694 349.994C190.951 348.694 195.039 347.173 194.173 343.775C193.849 342.506 192.333 340.971 192.333 340.971M192.333 340.971C189.398 341.702 186.175 343.653 183.129 342.632C177.141 340.626 177.508 334.423 172.885 330.121C171.651 328.972 170.05 327.696 168.546 326.558M122.255 274.72C122.255 274.72 125.999 282.075 127.316 287.146C129.268 294.659 128.448 306.99 128.448 306.99M129.084 283.41C129.084 283.41 130.578 291.807 130.834 297.248C131.029 301.386 130.696 307.856 130.696 307.856M123.444 284.124C123.444 284.124 124.698 291.812 125.045 296.784C125.322 300.733 125.303 306.917 125.303 306.917M121.413 287.893C121.413 287.893 122.686 295.464 122.991 300.364C123.195 303.656 123.153 308.81 123.153 308.81M158.881 283.154C158.881 283.154 156.17 289.171 153.801 292.643C151.341 296.25 149.439 297.881 146.513 301.121C143.344 304.631 138.164 309.892 138.164 309.892M161.694 287.554C161.694 287.554 159.955 291.531 158.344 293.769C156.13 296.843 154.127 297.915 151.364 300.508C147.099 304.51 140.22 310.512 140.22 310.512M154.813 284.64C152.471 288.427 150.868 292.25 147.361 296.408C144.369 299.955 138.699 304.544 138.699 304.544C135.953 307.121 136.945 307.582 136.945 307.582M165.778 306.399C165.778 306.399 158.712 306.982 154.597 308.694C150.548 310.378 145.222 314.873 145.222 314.873M163.216 309.163C158.955 310.694 156.566 311.552 152.305 313.083M160.471 303.089C160.471 303.089 155.76 305.352 152.871 307.037C150.211 308.588 146.246 311.31 146.246 311.31M102.983 271.246C102.983 271.246 106.888 274.074 108.847 276.416C110.655 278.576 112.662 282.537 112.662 282.537M102.62 268.374C102.62 268.374 107.94 271.991 110.597 275.072C112.774 277.595 115.275 282.207 115.275 282.207M107.179 269.496C107.179 269.496 111.522 273.014 113.719 275.799C115.913 278.58 118.322 283.614 118.322 283.614M113.111 294.948C113.111 294.948 111.105 301.73 111.801 306.034C112.536 310.579 116.974 316.626 116.974 316.626M115.121 301.974C115.121 301.974 114.117 306.897 114.995 309.842C115.786 312.493 118.783 315.829 118.783 315.829M110.551 324.879C110.551 324.879 103.552 324.056 99.4324 325.446C92.6983 327.718 86.5505 338.301 86.5505 338.301M107.82 322.741C107.82 322.741 107.355 322.662 106.577 322.556M83.5127 329.634C83.5127 329.634 88.4611 323.852 94.419 322.494C98.3138 321.607 104.069 322.218 106.577 322.556M110.718 326.192C110.718 326.192 106.538 326.455 103.935 327.05C101.46 327.617 97.7625 329.092 97.7625 329.092M106.577 322.556C106.577 322.556 102 322.755 99.1852 323.491C96.962 324.073 93.6752 325.557 93.6752 325.557M61.864 323.029C61.864 323.029 64.6644 328.773 67.8311 331.064C69.6408 332.373 72.9728 333.57 72.9728 333.57M64.4055 316.771C64.4055 316.771 65.8376 321.341 67.7184 323.782C69.4487 326.028 73.3759 328.742 73.3759 328.742M75.8607 359.748C76.1941 359.706 81.4589 357.372 84.0496 356.21C86.6403 355.048 88.3808 351.929 88.3808 351.929M75.5492 357.285C75.5492 357.285 79.9445 356.428 82.5582 355.306C84.9739 354.27 88.3808 351.929 88.3808 351.929M88.3808 351.929L92.7121 347.648L96.085 344.609C96.085 344.609 91.462 349.529 87.6408 351.277C83.9294 352.975 77.3914 353.319 77.3914 353.319M108.87 348.592C108.87 348.592 106.318 356.475 107.263 361.445C107.886 364.719 110.522 369.333 110.522 369.333M124.34 354.697C124.34 354.697 128.2 366.318 126.734 373.621C125.907 377.738 125.148 380.159 122.76 383.612C120.465 386.929 115.188 390.638 115.188 390.638M121.83 355.015C121.83 355.015 123.807 365.942 122.969 372.884C122.618 375.792 122.735 377.583 121.503 380.24C120.397 382.623 117.449 385.608 117.449 385.608M111.613 395.834C111.613 395.834 117.033 394.924 119.931 393.112C123.697 390.757 127.211 384.373 127.211 384.373M122.626 396.096C122.626 396.096 128.582 392.169 131.276 388.603C134.384 384.491 135.283 381.486 136.472 376.471C138.156 369.368 136.251 357.778 136.251 357.778L134.642 350.665M132.554 350.075C132.554 350.075 134.379 359.187 134.455 365.102C134.524 370.455 134.989 373.7 133.231 378.757C132.357 381.269 130.236 384.873 130.236 384.873M130.437 347.505C130.437 347.505 132.592 357.085 132.435 363.301C132.338 367.132 131.279 373.046 131.279 373.046M128.164 348.421C128.164 348.421 129.178 354.626 129.456 358.638C129.72 362.45 129.606 368.421 129.606 368.421M143.376 348.272C143.376 348.272 149.184 354.146 153.582 357.005C156.421 358.851 161.226 361.099 161.226 361.099M145.589 346.883C145.589 346.883 150.67 352.807 154.827 355.428C157.377 357.038 161.779 358.791 161.779 358.791M146.855 343.257C146.855 343.257 151.296 349.006 154.896 351.875C157.639 354.062 162.503 356.655 162.503 356.655M154.409 329.718C154.409 329.718 158.874 331.417 160.504 333.764C161.703 335.49 162.261 338.851 162.261 338.851M158.851 327.784C162.22 329.924 164.108 331.124 167.476 333.264M162.495 326.581C162.495 326.581 168.927 331.776 172.559 335.608C175.212 338.407 178.917 343.165 178.917 343.165M162.116 316.095C162.116 316.095 171.285 316.194 177.125 315.671C193.493 314.205 203.97 313.137 217.693 303.8C228.715 296.301 243.053 281.857 243.053 281.857L239.913 291.013C239.913 291.013 218.306 313.793 200.169 320.397C193.775 322.726 183.281 324.694 183.281 324.694L168.546 326.558M178.458 229.72C178.458 229.72 190.848 240.039 202.245 247.792C209.738 252.891 215.071 254.547 223.517 257.707C234.167 261.691 251.151 263.997 251.151 263.997L263.068 252.704C263.068 252.704 249.325 253.461 240.73 251.943C230.938 250.214 225.508 248.153 216.686 243.567C209.858 240.017 200.321 232.588 200.321 232.588M200.321 232.588C200.321 232.588 195.75 232.736 192.882 232.254C186.499 231.181 177.885 225.194 177.885 225.194M200.321 232.588L203.425 230.921C202.954 230.262 203.405 230.764 203.405 230.764C203.405 230.764 194.168 224.054 191.203 218.979C189.648 216.317 189.679 213.596 190.007 210.906M177.885 225.194C177.885 225.194 179.267 229.487 178.771 232.2C178.247 235.071 176.238 237.731 174.422 240.016C168.28 247.744 155.176 250.556 147.751 244.051C144.982 241.626 145.592 239.511 145.592 239.511C145.592 239.511 148.89 241.66 151.378 241.273C154.792 240.742 156.706 238.314 157.317 234.914C158.365 229.083 151.982 224.045 152.802 216.802C153.204 213.254 153.534 210.466 154.939 207.865M177.885 225.194C177.885 225.194 170.953 217.52 168.444 211.543C166.676 207.332 165.532 200.215 165.532 200.215M165.532 200.215C165.532 200.215 169.384 193.378 173.691 192.036C176.393 191.195 178.825 191.445 181.054 192.41M165.532 200.215C165.532 200.215 165.268 200.302 164.829 200.464C163.238 201.051 159.344 202.627 157.346 204.66C156.3 205.724 155.526 206.778 154.939 207.865M181.054 192.41C183.856 193.621 186.338 195.96 188.635 198.675C191.806 202.423 190.529 206.624 190.007 210.906M181.054 192.41C181.054 192.41 184.922 190.661 187.573 190.28C190.2 189.903 190.882 189.814 192.535 190.198M190.007 210.906C190.007 210.906 194.937 214.968 198.705 216.301C203.647 218.049 207.082 218.547 212.108 217.055C216.556 215.734 219.409 214.293 221.964 210.42C223.716 207.762 224.494 202.67 224.494 202.67C224.494 202.67 216.792 204.835 211.988 203.844C204.296 202.258 202.064 192.786 194.488 190.71C193.678 190.488 193.058 190.319 192.535 190.198M154.939 207.865C154.939 207.865 148.948 209.09 145.058 209.115C138.834 209.153 135.424 207.715 129.394 206.169C113.784 202.166 107.953 194.739 96.5137 191.633C87.3444 189.143 81.2905 187.913 73.8673 190.309C68.7243 191.969 65.8403 197.351 66.3883 201.128C67.1114 206.111 77.4338 207.464 75.1559 211.955C75.1559 211.955 68.7743 213.836 64.597 211.8C59.9641 209.541 58.652 208.003 54.4148 203.402C50.1776 198.801 44.4091 187.065 46.1754 176.05C47.8839 165.396 52.5216 158.907 61.6574 153.165C70.3766 147.685 77.4777 147.291 87.6646 148.802C92.9321 149.584 100.661 152.928 100.661 152.928M100.661 152.928C100.661 152.928 92.3747 146.151 86.0075 144.185C77.3261 141.505 66.1079 147.036 56.766 143.692C51.1939 141.698 48.6228 141.151 47.785 136.813C46.6301 130.834 60.6137 127.947 60.6137 127.947C60.6137 127.947 55.5368 126.082 52.0544 125.922C47.0681 125.692 43.5875 126.177 40.314 129.712C37.8964 132.322 36.2794 134.69 36.959 138.183M100.661 152.928C100.661 152.928 104.52 155.568 108.082 158.349M36.959 138.183C37.6144 141.552 40.3949 144.032 43.8264 144.097C45.5907 144.131 45.1775 143.415 46.4718 143.763C48.8858 144.41 45.005 149.371 42.8355 149.646C38.312 150.218 37.075 149.947 34.2293 149.679C34.2293 149.679 25.7282 146.859 22.3736 140.028C19.5009 134.177 18.4925 123.498 19.4656 117.053C20.927 107.375 32.8217 99.5733 32.8217 99.5733C37.7705 95.8182 45.008 96.0001 48.3107 96.3245M36.959 138.183C36.959 138.183 34.6045 133.894 32.6288 131.487C30.8136 129.275 28.7523 128.867 27.4178 126.336C25.8598 123.382 26.2432 121.189 26.3444 117.85C26.4392 114.723 27.7508 109.963 27.7508 109.963C27.7508 109.963 26.0408 123.614 32.4242 124.625C39.6363 125.768 29.8482 112.728 34.5204 107.117C36.9946 104.145 38.0162 102.598 41.5402 101.006M66.7713 84.6505C66.0137 85.6801 66.1669 87.0058 66.1669 87.0058C66.1669 87.0058 50.6523 83.078 48.852 86.9171C47.223 90.3912 50.0712 96.5558 50.0712 96.5558C50.0712 96.5558 49.4082 96.4323 48.3107 96.3245M66.7713 84.6505C69.0902 81.4992 76.6538 86.6377 76.6538 86.6377L86.8781 92.7357C86.8781 92.7357 83.0653 85.1596 85.4711 81.6129C86.5652 80 87.6049 79.898 89.2483 79.6606C91.3218 79.3611 94.4005 81.1557 94.4005 81.1557C94.4005 81.1557 92.4473 71.0387 89.2046 65.4519C87.015 61.6792 86.6019 57.4654 82.3148 56.66C80.3229 56.2857 78.9073 56.2742 77.1659 57.3113C75.364 58.3844 74.5224 59.6672 74.1021 61.7219M66.7713 84.6505C66.3461 88.4228 70.3133 90.171 72.5828 93.7083C72.5828 93.7083 69.3558 90.891 66.4858 89.5268C60.6613 86.7583 50.7146 83.5621 49.9116 90.0203C49.4679 93.5886 53.782 96.0864 53.782 96.0864L68.42 104.818L55.3792 100.705L41.5402 101.006M74.1021 61.7219C73.4532 64.8937 78.9448 66.1771 77.7279 69.1773C77.2023 70.4731 76.5286 71.0788 75.388 71.8877M74.1021 61.7219C74.1021 61.7219 71.3412 57.87 71.4576 55.0809C71.5971 51.737 72.7637 49.9162 74.8227 47.2777C77.5659 43.7624 80.0369 41.4501 84.2196 39.9048C86.6008 39.0251 90.6685 39.0891 90.6685 39.0891C90.6685 39.0891 78.8298 44.9834 82.763 47.8748C86.2238 50.4189 90.4662 43.5045 96.2126 41.808C99.3728 40.8751 102.032 41.2932 105.646 41.4513C111.98 41.7286 120.686 46.1227 120.686 46.1227L119.882 44.4137M75.388 71.8877L71.3145 67.7148C71.3145 67.7148 67.6254 62.4602 67.2287 58.5682C66.8242 54.6 67.8248 52.232 69.4917 48.6082C71.2751 44.7309 76.1364 39.9321 76.1364 39.9321M75.388 71.8877C74.2343 72.7059 72.4205 72.9172 70.9286 72.9292M150.246 62.419C150.246 62.419 146.905 49.1432 149.349 41.6814C150.731 37.4622 151.723 35.0367 155.121 32.9108C158.029 31.0919 160.693 31.255 163.513 32.5707C166.21 33.8291 167.013 38.0309 167.013 38.0309C167.013 38.0309 174.118 27.3781 180.641 22.7593C186.021 18.9507 189.492 16.8725 195.982 15.7217C203.702 14.3528 209.049 14.4742 215.892 18.3005C222.894 22.2154 226.984 29.6458 228.623 37.4985C229.759 42.94 228.839 45.8847 226.059 49.2357C223.856 51.8921 220.167 53.0276 217.258 52.4282C215.557 52.0777 215.452 51.2214 215.344 50.0274C215.254 49.0281 216.151 48.2647 216.601 47.2372M150.246 62.419C150.246 62.419 147.019 55.9988 144.313 52.304C140.838 47.558 135.225 43.468 135.225 43.468C135.225 43.468 129.278 40.3977 127.57 42.2153C125.99 43.8961 126.836 48.0761 126.836 48.0761L126.175 48.1596L120.108 41.5495C120.108 41.5495 119.052 40.5369 117.394 39.1287M150.246 62.419C150.246 62.419 153.279 69.3294 154.53 73.9782C156.393 80.8971 156.833 92.1809 156.833 92.1809M208.409 70.4887C208.409 70.4887 211.747 67.2529 212.681 66.1219C213.615 64.9908 214.561 62.9204 213.084 60.793C210.843 57.5641 207.938 58.0423 203.729 58.5644C201.611 58.8271 199.331 59.8663 197.216 61.1505M208.409 70.4887L198.682 78.4259M208.409 70.4887C208.409 70.4887 210.06 72.4579 210.47 74.3452C211.293 78.1354 208.268 80.5413 205.68 82.8412C200.454 87.4855 192.599 95.0234 192.599 95.0234C192.599 95.0234 203.138 89.1568 210.546 87.3878C219.018 85.365 224.406 84.2286 232.828 86.4473C241.605 88.7593 247.713 92.9629 252.455 100.702C256.105 106.66 255.963 111.825 254.645 118.018C253.39 123.916 250.299 126.386 245.522 128.502C242.908 129.659 241.622 129.516 239.33 129.285C237.05 129.055 236.148 128.256 234.944 126.641C233.826 125.141 233.283 123.993 234.473 122.915C235.243 122.217 238.944 124.037 238.944 124.037C238.944 124.037 239.725 124.4 240.749 124.363C242.214 124.31 242.354 123.17 242.286 121.927M192.535 190.198C192.535 190.198 196.036 189.662 198.174 188.94C202.323 187.537 204.444 186.014 207.83 183.237C213.693 178.429 216.485 174.785 219.052 167.394C221.553 160.197 220.116 155.447 220.473 147.835C220.877 139.202 217.922 133.326 222.107 125.764C224.666 121.141 226.479 117.735 231.469 115.995C234.721 114.861 237.788 113.311 240.282 115.685C241.768 117.099 242.064 118.533 242.185 120.581C242.21 121.012 242.262 121.476 242.286 121.927M163.523 199.564C163.523 199.564 152.582 202.796 145.778 201.175C139.038 199.57 127.879 194.194 133.257 189.826C137.433 186.432 141.486 192.31 146.489 193.853C153.291 195.952 163.523 199.564 163.523 199.564ZM163.523 199.564C163.523 199.564 155.013 199.909 149.707 198.892C145.521 198.089 139.281 195.663 139.281 195.663M65.8161 191.327C71.086 190.014 61.4268 177.255 63.8117 170.197C66.53 162.152 79.7189 160.089 79.7189 160.089C79.7189 160.089 67.4865 165.413 69.3898 173.114C71.9839 183.61 84.9109 170.586 94.3577 167.109C102.623 164.068 120.427 170.687 120.427 170.687C120.427 170.687 118.375 168.251 115.89 165.583M65.8161 191.327C63.3822 191.933 60.9709 170.556 60.9709 170.556M65.8161 191.327C65.8161 191.327 66.6416 193.856 66.3377 195.45C65.5859 199.393 60.0738 194.263 59.8618 187.469C59.6498 180.676 59.531 176.867 59.319 170.073M48.3107 96.3245L50.3051 98.405C50.3051 98.405 44.794 99.536 41.5402 101.006M117.394 39.1287C114.449 36.6268 109.465 33.7052 105.264 32.1665C97.065 29.1632 91.461 28.3232 83.0525 30.678C76.2312 32.5884 73.0472 34.4321 68.3716 39.7536C68.3716 39.7536 60.7248 48.3645 60.1675 55.462C59.8291 59.7725 61.2479 64.6992 63.8463 68.6595C65.5794 71.301 68.3907 72.7728 68.3907 72.7728C68.3907 72.7728 69.5151 72.9405 70.9286 72.9292M117.394 39.1287L118.638 41.7712M90.9949 123.882C90.9949 123.882 92.2557 132.716 90.2804 134.875C87.4212 138.001 82.9593 138.708 79.5188 136.237C76.144 133.812 74.4787 129.66 77.7864 127.145C80.1465 125.35 84.8127 126.256 84.8127 126.256C84.8127 126.256 76.5649 125.126 71.761 123.429C66.9787 121.74 64.6333 115.038 67.6474 110.959C70.5321 107.055 75.8035 109.284 80.3361 111.021C84.5988 112.655 87.1621 117.702 87.1621 117.702C87.1621 117.702 80.9855 110.69 83.395 107.515C84.4342 106.146 85.8061 105.879 87.3244 106.108M90.9949 123.882C90.9949 123.882 97.6661 123.631 98.6251 120.031C99.6593 116.15 98.0314 111.653 94.8994 109.179M90.9949 123.882C90.9949 123.882 102.663 132.13 105.787 136.26C109.003 140.513 107.935 144.454 107.935 144.454C107.935 144.454 104.4 137.447 101.353 134.17C98.3064 130.892 90.9949 123.882 90.9949 123.882ZM90.9949 123.882C90.9949 123.882 87.9264 121.391 85.7021 120.221C83.199 118.905 78.8944 117.751 78.8944 117.751M122.191 85.2309L126.523 100.007L128.789 99.1727L122.191 85.2309ZM122.191 85.2309C122.191 85.2309 121.463 91.238 119.834 92.5525C115.431 96.1045 108.04 95.4393 105.512 90.3787C103.795 86.9419 103.534 82.7338 106.74 80.6181C109.518 78.7852 115.186 81.7638 115.186 81.7638C115.186 81.7638 108.817 77.0626 107.638 72.5692C106.352 67.6717 105.876 62.1495 110.414 59.9044C115.366 57.4547 120.062 62.4129 122.401 67.4181C123.721 70.2433 123.403 75.3404 123.403 75.3404C123.403 75.3404 125.062 68.9143 128.407 68.0266C132.937 66.8243 136.142 73.8287 136.391 78.5094C136.691 84.15 131.057 87.4349 125.931 86.6733C124.383 86.4433 122.191 85.2309 122.191 85.2309ZM122.191 85.2309C122.191 85.2309 119.925 82.9075 118.795 80.7351C117.665 78.5627 116.406 74.1052 116.406 74.1052M166.384 92.9739L169.605 77.597M166.384 92.9739L167.973 92.773L169.605 77.597M166.384 92.9739C176.705 94.4848 182.1 101.732 185.046 109.1C187.245 114.599 187.491 115.615 184.673 117.299C181.161 119.399 179.951 111.78 176.167 110.223C172.189 108.586 171.686 110.608 167.446 109.881C161.181 108.808 158.298 103.049 151.178 103.647C146.238 104.062 138.466 108.313 138.466 108.313C138.466 108.313 155.942 105.949 162.442 112.925C166.37 117.141 172.314 124.649 166.941 126.729C163.603 128.02 162.116 124.527 159.241 123.88M166.384 92.9739C163.302 92.5229 160.084 92.2299 156.833 92.1809M169.605 77.597C169.605 77.597 165.542 78.2292 163.187 76.2088C160.189 73.6368 158.19 69.8923 160.588 65.8715C162.128 63.2881 164.929 59.562 166.959 61.782C168.529 63.4999 166.743 67.738 166.743 67.738C166.743 67.738 169.654 61.3386 173.343 59.4974C176.253 58.045 178.501 57.8634 180.942 60.0133C183.095 61.9098 182.138 64.398 181.787 66.6923C181.292 69.9213 176.724 71.7658 176.724 71.7658C176.724 71.7658 182.243 70.1636 183.814 72.5108C185.582 75.1506 181.781 78.3738 179.051 79.9541C175.856 81.8041 169.605 77.597 169.605 77.597ZM169.605 77.597C169.605 77.597 170.423 73.9636 171.498 71.8319C172.573 69.7002 175.111 66.6796 175.111 66.6796M111.435 161.126C112.131 161.751 112.868 162.461 113.609 163.206M111.435 161.126C111.435 161.126 101.607 157.402 95.0547 155.977C89.9338 154.864 87.0083 153.819 81.7732 154.059C75.6322 154.341 66.5947 158.231 66.5947 158.231M111.435 161.126C110.459 160.249 109.287 159.291 108.082 158.349M159.241 123.88C155.929 123.135 154.197 124.079 151.136 122.612C147.757 120.992 148.005 117.612 144.799 116.074C141.37 114.431 135.084 115.42 135.084 115.42C135.084 115.42 150.765 119.895 148.105 125.289C146.92 127.69 144.859 127.857 142.368 128.287C138.02 129.037 136.28 125.144 132.059 125.025C127.049 124.884 126.431 126.717 121.7 128.629C116.97 130.541 116.958 137.944 116.958 137.944C116.958 137.944 123.872 127.344 130.185 128.932C133.231 129.698 135.488 129.758 136.464 132.379C137.673 135.626 131.552 139.767 131.552 139.767C131.552 139.767 123.611 141.216 120.284 144.676C116.286 148.834 116.113 158.845 116.113 158.845C116.003 157.98 113.738 148.32 111.966 139.696M159.241 123.88C159.241 123.88 159.484 131.179 162.192 134.549C169.002 143.026 172.88 143.548 177.289 151.106C180.995 157.461 183.763 168.795 183.763 168.795M183.763 168.795C183.974 171.808 184.597 174.97 183.926 177.921C182.867 182.582 179.776 187.983 179.776 187.983C179.776 187.983 180.631 187.632 181.837 187.068M183.763 168.795C183.584 166.244 183.699 163.8 185.145 161.685C186.665 159.461 187.202 158.709 189.846 158.192C192.4 157.692 193.291 157.664 195.152 159.484C198.082 162.35 195.161 173.601 195.161 173.601C195.161 173.601 192.95 179.654 187.916 183.587C187.302 184.066 186.575 184.543 185.812 184.996M156.833 92.1809C146.496 92.0251 135.813 94.3343 128.05 101.867C119.833 109.84 112.344 122.662 111.276 132.003M177.105 142.001C177.105 142.001 180.445 129.231 185.348 122.634C188.888 117.87 190.689 113.934 196.349 112.148C201.753 110.443 207.549 114.535 213.154 113.697C217.459 113.053 218.998 113.849 221.174 110.079M221.174 110.079C222.125 108.431 221.181 111.982 221.174 110.079ZM221.174 110.079C221.145 102.578 212.249 102.216 202.328 101.567M202.328 101.567L191.33 109.271M202.328 101.567C202.328 101.567 212.686 95.4015 219.496 96.818C226.489 98.2724 229.85 112.384 235.202 107.654C237.548 105.58 237.595 104.909 236.163 102.053C233.593 96.9255 228.081 89.2141 228.081 89.2141C228.081 89.2141 234.663 93.1591 236.682 97.222C238.232 100.341 237.21 104.382 238.587 107.269C240.378 111.023 245.489 110.835 245.945 114.969M245.945 114.969C246.2 117.283 245.823 112.644 245.945 114.969ZM245.945 114.969C246.018 116.379 246.373 116.702 246.817 116.349M244.421 97.4087C244.421 97.4087 249.045 104.68 249.025 109.16C249.013 112.053 247.727 115.624 246.817 116.349M246.817 116.349C246.817 116.349 246.358 119.075 245.473 120.165C244.589 121.254 242.286 121.927 242.286 121.927M163.734 61.9064C163.734 61.9064 162.998 50.4034 165.423 44.5339C167.402 39.7409 169.115 36.959 173.211 33.7787C178.968 29.3089 184.16 27.447 191.268 29.0601C195.839 30.0974 200.594 33.7833 200.594 33.7833C200.594 33.7833 208.611 36.6493 208.547 33.4372C208.52 32.0904 208.219 30.8393 208.219 30.8393M206.618 26.397C207.352 27.5264 208.219 30.8393 208.219 30.8393M206.618 26.397C205.408 24.5351 202.965 23.2047 200.701 22.3144M206.618 26.397C206.618 26.397 209.206 26.5827 210.695 27.2344C213.114 28.2935 215.606 31.8845 215.606 31.8845M195.734 20.8503C195.734 20.8503 198.1 21.2922 200.701 22.3144M208.219 30.8393C208.219 30.8393 215.493 32.1939 218.504 35.6132C220.804 38.2239 223.482 40.1451 222.254 43.4C221.313 45.8966 216.601 47.2372 216.601 47.2372M216.601 47.2372C216.778 46.8328 216.886 46.3874 216.837 45.8707C216.612 43.4945 214.981 43.4527 212.67 42.854C209.761 42.1 207.91 42.9409 205.035 43.8197C194.362 47.0833 189.125 67.5623 189.125 67.5623C189.125 67.5623 192.811 63.825 197.216 61.1505M170.138 198.094C170.138 198.094 169.661 203.768 170.286 207.315C171.163 212.298 172.271 215.211 175.306 219.261C177.645 222.383 182.688 225.993 182.688 225.993M173.806 195.844C173.806 195.844 171.768 205.51 174.237 210.811C175.277 213.044 177.816 216.004 177.816 216.004M176.427 195.512C176.427 195.512 176.972 206.107 179.544 212.23C180.873 215.395 183.815 219.913 183.815 219.913M179.017 196.971C179.017 196.971 180.541 205.485 182.632 210.564C183.632 212.991 185.574 216.607 185.574 216.607M181.367 194.887C181.367 194.887 182.568 201.56 184.176 205.558C185.508 208.868 188.444 213.638 188.444 213.638M189.219 193.894C189.219 193.894 193.15 200.921 197.139 203.918C199.775 205.899 201.45 206.976 204.649 207.779C207.059 208.385 210.994 208.252 210.994 208.252M191.731 203.211C191.731 203.211 195.355 208.074 198.665 209.811C200.708 210.884 201.993 211.371 204.285 211.634C207.032 211.949 211.31 210.745 211.31 210.745M192.315 207.831C192.315 207.831 196.03 211.846 199.107 213.311C202.351 214.855 204.674 216.092 208.129 215.109C209.609 214.688 211.634 213.31 211.634 213.31M193.904 195.722C193.904 195.722 197.3 201.331 200.715 203.466C204.154 205.615 210.734 206.194 210.734 206.194M175.476 224.921C175.476 224.921 175.221 232.124 173.12 236.029C171.539 238.968 170.294 240.6 167.57 242.53C163.888 245.14 156.459 245.711 156.459 245.711M173.25 222.695C173.25 222.695 173.149 232.325 170.111 236.409C166.77 240.9 157.166 242.861 157.166 242.861M156.64 210.845C156.64 210.845 155.928 216.643 156.51 220.283C156.982 223.24 158.761 227.613 158.761 227.613M159.324 210.506C159.324 210.506 159.919 215.207 160.3 218.22C160.815 222.296 161.62 228.658 161.62 228.658M161.983 208.365L163.854 223.158M165.795 217.525C165.795 217.525 166.626 224.085 165.75 228.135C165.042 231.406 162.56 236.09 162.56 236.09M168.057 220.178C168.057 220.178 169.388 224.777 169.012 227.723C168.578 231.117 165.444 235.725 165.444 235.725M192.309 165.732C192.309 165.732 191.947 171.975 190.705 175.73C189.419 179.615 185.812 184.996 185.812 184.996M185.812 184.996C184.457 185.801 182.987 186.532 181.837 187.068M189.047 171.19C189.047 171.19 187.771 178.341 185.465 182.254C184.27 184.282 181.837 187.068 181.837 187.068M160.573 176.237C160.573 176.237 162.821 181.116 164.933 183.785C167.392 186.893 172.482 190.565 172.482 190.565M172.482 190.565C172.195 191.624 171.891 192.264 171.891 192.264C171.891 192.264 162.544 188.794 158.903 184.014C155.718 179.834 153.308 173.913 156.352 169.63C158.041 167.252 160.145 168 163.071 169.43C168.354 172.012 170.211 177.778 172.099 182.345C173.023 184.58 173.092 186.771 172.88 188.524M172.482 190.565C172.637 189.995 172.786 189.303 172.88 188.524M166.841 180.082C166.841 180.082 169.095 184.515 171.205 186.844C171.827 187.53 172.88 188.524 172.88 188.524M124.086 154.741C124.086 154.741 123.259 160.814 124.128 164.541C125.463 170.264 132.355 177.142 132.355 177.142L143.999 187.111M143.999 187.111C142.029 186.166 140.119 185.034 138.398 183.68C130.981 177.842 120.817 170.873 119.934 161.475C119.377 155.544 118.377 149.76 124.238 148.688C126.983 148.186 129.18 148.968 130.316 151.517C134.121 160.052 130.457 165.982 135.95 174.514C142.658 184.933 162.544 191.822 162.544 191.822C162.544 191.822 156.677 191.499 150.008 189.438M143.999 187.111C145.985 188.064 148.031 188.827 150.008 189.438M128.006 160.454C128.006 160.454 128.774 168.031 131.027 172.194C133.005 175.851 137.967 180.269 137.967 180.269L150.008 189.438M76.4008 167.912C76.4008 167.912 82.3443 163.47 88.3066 162.362C94.7973 161.155 106.83 163.133 106.83 163.133L115.89 165.583M115.89 165.583C115.154 164.792 114.379 163.98 113.609 163.206M90.6042 158.976C90.6042 158.976 96.8518 158.694 100.372 159.325C105.293 160.206 113.609 163.206 113.609 163.206M70.0543 153.183C70.0543 153.183 79.3788 150.986 85.4233 151.239C91.5896 151.497 95.1632 152.229 100.87 154.579C103.809 155.789 108.082 158.349 108.082 158.349M60.7706 156.716C60.7706 156.716 52.6599 163.099 50.1257 168.881C46.9948 176.025 47.2207 181.38 49.4863 188.843C51.6853 196.087 59.0007 204.92 59.0007 204.92M67.1086 206.822C67.1086 206.822 57.984 202.259 55.3773 196.836C53.341 192.6 53.867 184.897 53.867 184.897M72.2002 188.588C72.2002 188.588 83.083 186.65 90.0037 187.45C97.6994 188.341 101.752 190.525 108.869 193.586C116.634 196.926 127.798 204.083 127.798 204.083M73.2933 185.77C73.2933 185.77 81.3306 183.867 86.5401 184.095C94.788 184.455 99.0196 187.464 106.647 190.624C115.738 194.391 128.919 202.411 128.919 202.411M69.9846 185.031C69.9846 185.031 80.4228 181.534 87.3 181.767C95.8729 182.058 100.25 185.29 108.22 188.46C118.34 192.484 133.133 200.988 133.133 200.988M70.4064 181.151C70.4064 181.151 81.852 179.606 89.1167 180.438C98.5796 181.522 103.463 184.446 112.324 187.941C119.931 190.941 131.361 196.665 131.361 196.665M93.9073 171.028C93.9073 171.028 101.654 172.394 106.395 174.031C113.083 176.341 122.558 182.218 122.558 182.218M89.0715 173.664C89.6268 173.85 99.8529 175.824 104.896 176.788C109.94 177.752 123.109 186.577 123.109 186.577M85.6927 177.396C85.6927 177.396 97.0874 177.709 104.041 179.649C112.544 182.022 124.339 189.598 124.339 189.598M28.141 132.054C28.141 132.054 30.6617 136.29 32.7693 138.136C34.3913 139.557 37.2753 140.684 37.2753 140.684M28.6339 135.951C28.6339 135.951 30.9057 139.701 33.1574 141.205C35.2065 142.573 39.1001 143.323 39.1001 143.323M26.7237 138.349C26.7237 138.349 29.3973 142.659 32.0829 144.211C34.396 145.547 38.6915 145.979 38.6915 145.979M58.1316 91.5451C58.1316 91.5451 65.1261 93.9925 69.4256 95.9864C73.8052 98.0175 76.1261 99.4393 80.3043 101.858C83.0781 103.463 87.3244 106.108 87.3244 106.108M87.3244 106.108C88.7641 106.326 90.3353 106.99 91.8792 107.585M61.5032 96.9885C61.5032 96.9885 66.7108 99.575 70.0805 101.163C72.8515 102.47 74.5389 102.935 77.21 104.435C78.1972 104.99 79.694 105.93 79.694 105.93M59.475 88.8106C59.475 88.8106 67.7096 92.7279 72.8167 95.5575C80.5162 99.8234 91.8792 107.585 91.8792 107.585M91.8792 107.585C92.0837 107.664 92.2877 107.741 92.4908 107.816C93.365 108.14 94.1727 108.605 94.8994 109.179M71.6473 86.3125C71.6473 86.3125 79.1493 90.1131 83.5758 93.1534C87.8874 96.1149 90.188 97.9853 93.9833 101.585C97.2781 104.71 101.859 110.139 101.859 110.139M73.1066 90.1478C73.1066 90.1478 77.9035 91.8476 80.672 93.5207C83.7872 95.4034 85.0833 97.0998 87.899 99.4064C91.003 101.949 93.0955 103.003 95.8264 105.943C97.2181 107.441 99.1234 110.011 99.1234 110.011M80.453 97.5337C80.453 97.5337 84.8279 99.708 87.323 101.566C90.6869 104.071 94.8994 109.179 94.8994 109.179M87.8385 86.8259C87.8385 86.8259 93.8178 89.6962 96.9097 92.51C101.866 97.0206 105.787 107.196 105.787 107.196M88.7559 82.8929C88.7559 82.8929 95.3381 86.6935 98.7044 90.1173C103.065 94.5517 107.184 103.596 107.184 103.596M100.431 37.8542C100.431 37.8542 106.248 37.9063 109.769 38.9447C114.076 40.2146 119.882 44.4137 119.882 44.4137M119.882 44.4137L118.638 41.7712M103.6 35.2975C103.6 35.2975 109.54 36.0827 112.903 37.7598C115.349 38.9795 118.638 41.7712 118.638 41.7712M67.5564 46.2692C67.5564 46.2692 63.2253 52.7015 63.3149 57.325C63.3756 60.4591 64.2186 62.1899 65.5119 65.0453C67.0531 68.448 70.9286 72.9292 70.9286 72.9292M80.5913 52.8786C80.5913 52.8786 88.7048 53.8486 92.4227 57.0365C96.5129 60.5436 98.4473 69.4483 98.4473 69.4483M88.8879 59.8516C88.8879 59.8516 93.7583 65.5123 96.1271 69.7418C97.9298 72.9604 99.6405 78.8813 99.6405 78.8813M134.79 65.851C134.79 65.851 132.341 58.6823 129.208 55.1694C126.406 52.0267 120.448 48.8841 120.448 48.8841M123.544 57.7048C123.544 57.7048 120.255 52.9356 117.534 50.4668C113.882 47.1521 106.748 43.8956 106.748 43.8956M102.087 43.829C102.087 43.829 110.983 48.0483 115.223 52.4974C116.499 53.8359 118.252 56.1374 118.252 56.1374M132.156 45.0265C132.156 45.0265 136.987 49.7659 139.026 53.5097C140.316 55.8797 141.614 59.9173 141.614 59.9173M127.948 45.2043C127.948 45.2043 132.753 51.6289 134.97 56.226C136.584 59.5721 138.353 65.1168 138.353 65.1168M141.872 61.9637C141.872 61.9637 148.103 71.8866 149.148 79.0709C149.762 83.2948 149.081 90.0004 149.081 90.0004M161.425 32.8349C161.425 32.8349 157.561 39.5501 156.564 44.3158C155.716 48.368 156.126 54.9078 156.126 54.9078L157.528 73.0982M157.759 33.2986C157.759 33.2986 154.198 37.8391 152.898 41.2325C150.482 47.5422 151.937 51.8044 152.576 58.5306C152.752 60.377 153.172 63.2423 153.172 63.2423M164.392 36.3829C164.392 36.3829 160.387 42.4583 159.479 46.8994C158.737 50.532 159.389 56.3929 159.389 56.3929M165.767 52.364C165.767 52.364 169.943 44.5178 174.103 40.8367C179.413 36.139 190.516 33.0784 190.516 33.0784M165.633 58.9582C165.633 58.9582 169.374 51.7812 172.736 47.9053C177.309 42.6338 186.844 36.9387 186.844 36.9387M167.222 58.7572C167.222 58.7572 171.962 52.3146 175.181 49.3544C179.774 45.1304 187.286 40.4298 187.286 40.4298M171.295 58.242C171.295 58.242 176.8 52.0869 180.795 48.6442C184.411 45.5282 190.602 41.349 190.602 41.349M176.076 56.4302C176.076 56.4302 180.323 52.4498 183.23 50.1216C187.285 46.8756 194.14 42.5152 194.14 42.5152M181.69 55.72C181.69 55.72 184.815 52.6741 187.028 50.978C190.038 48.6704 195.281 45.857 195.281 45.857M181.442 80.6065C181.442 80.6065 178.216 83.8054 176.758 86.4995C175.418 88.9772 174.283 93.8526 174.283 93.8526M176.479 94.5819C176.479 94.5819 177.904 89.314 179.83 86.1109C181.522 83.2982 185.558 79.1311 185.558 79.1311M186.151 83.8192C186.151 83.8192 186.913 76.8516 188.462 73.0117C189.845 69.5835 191.506 68.2289 193.619 65.1957C194.827 63.4611 197.216 61.1505 197.216 61.1505M181.562 99.804C181.562 99.804 184.571 92.7863 186.731 88.3991C188.699 84.3991 189.562 81.9946 192.068 78.3076C194.25 75.098 195.667 73.3997 198.419 70.6634C201.637 67.4646 207.517 63.4377 207.517 63.4377M189.415 75.0912C189.415 75.0912 192.748 69.7853 195.373 66.7721C197.61 64.2044 201.614 60.6821 201.614 60.6821M196.079 77.8004C196.079 77.8004 190.905 85.4034 187.885 90.2543C186.57 92.3663 185.484 95.9234 185.484 95.9234M183.43 101.38C183.43 101.38 186.665 97.912 188.553 95.5352C190.946 92.5209 194.197 87.4547 194.197 87.4547M198.216 84.7066C198.216 84.7066 201.707 82.4597 203.556 80.5832C205.726 78.3823 208.151 74.1405 208.151 74.1405M173.831 31.2656C173.831 31.2656 177.741 25.9449 182.208 24.6536C186.107 23.5263 192.601 24.6687 192.601 24.6687M178.328 29.1336C178.328 29.1336 181.489 27.2544 183.958 26.7117C187.136 26.0134 189.582 25.7932 192.802 26.2579C197.062 26.8726 202.458 31.5679 202.458 31.5679M204.17 17.3166C204.17 17.3166 210.784 18.0388 214.097 19.9551C218.861 22.7109 220.802 25.8729 222.897 30.9622C224.071 33.8143 224.72 38.6471 224.72 38.6471M200.701 22.3144C200.701 22.3144 206.377 21.9916 209.513 23.4793C211.491 24.4172 214.018 26.8141 214.018 26.8141M186.824 106.516C186.824 106.516 188.841 101.45 191.721 98.7724C196.19 94.615 200.984 93.1156 206.713 91.007C211.757 89.1504 220.154 88.0504 220.154 88.0504M187.134 108.964C187.134 108.964 191.954 104.948 195.126 102.478C199.249 99.267 201.104 96.6217 205.896 94.5333C208.462 93.4146 210.002 92.9397 212.763 92.4729C216.443 91.8507 218.746 91.3809 222.321 92.4557C226.016 93.5668 230.498 98.0042 230.498 98.0042M216.272 94.5068L222.625 94.8632L229.807 102.857M188.999 113.498C188.999 113.498 194.506 109.947 198.371 108.381C202.196 106.83 204.425 105.614 208.552 105.545C211.734 105.492 216.572 106.996 216.572 106.996M157.905 139.918C157.905 139.918 162.946 146.55 165.806 151.048C166.651 152.377 167.918 154.483 167.918 154.483M158.425 132.699C158.425 132.699 159.891 138.298 161.485 141.618C164.014 146.886 167.152 148.782 170.349 153.674C171.243 155.043 172.585 157.214 172.585 157.214M164.296 139.109C164.296 139.109 167.248 143.649 169.04 146.619C170.914 149.727 172.068 151.421 173.667 154.679C175.003 157.398 176.706 161.817 176.706 161.817M171.21 146.344C171.21 146.344 173.895 150.334 175.356 153.041C177.409 156.842 178.44 159.073 179.784 163.179C180.289 164.721 180.935 167.17 180.935 167.17M189.978 121.243C189.978 121.243 183.088 128.959 181.784 135.113C180.982 138.899 181.673 145.021 181.673 145.021M197.225 119.076C197.225 119.076 189.894 125.638 187.194 131.137C185.077 135.45 183.9 138.188 183.904 142.993C183.906 145.227 184.622 148.668 184.622 148.668M203.72 118.254C203.72 118.254 194.78 123.117 191.8 128.477C190.363 131.061 190.065 132.765 189.28 135.616C188.551 138.259 187.95 139.752 187.86 142.492C187.746 145.971 189.497 151.252 189.497 151.252M204.196 122.016C204.196 122.016 197.712 127.262 195.03 131.738C193.441 134.39 192.403 135.948 191.856 138.991C191.151 142.908 190.52 145.421 191.02 149.37C191.288 151.489 193.821 154.528 193.821 154.528M194.059 179.568C194.059 179.568 199.569 171.845 201.603 166.209C203.799 160.127 203.166 156.238 204.33 149.877C205.627 142.794 205.121 138.416 207.966 131.802C210.901 124.974 219.031 116.317 219.031 116.317M196.206 181.863C196.206 181.863 201.848 173.77 204.389 168.03C208.698 158.295 206.85 151.495 210.25 141.406C211.895 136.527 212.845 133.774 215.109 129.15C216.984 125.32 220.532 119.674 220.532 119.674M198.039 182.307C198.039 182.307 203.665 175.469 206.223 170.463C210.284 162.516 212.133 148.389 212.133 148.389M201.505 182.924C201.505 182.924 206.557 177.516 208.865 173.432C211.977 167.924 213.929 158.044 213.929 158.044L214.834 146.357M205.11 181.412C205.11 181.412 209.314 176.612 211.378 173.115C214.16 168.4 216.571 160.095 216.571 160.095M171.558 163.231C171.558 163.231 174.492 169.856 175.599 174.336C176.805 179.218 177.215 187.109 177.215 187.109M114.976 149.859L118.05 139.883L129.399 133.273M111.966 139.696C111.765 138.717 111.57 137.752 111.386 136.814C111.101 135.367 111.077 133.746 111.276 132.003M111.966 139.696C111.966 139.696 114.057 130.257 117.889 125.747C121.408 121.606 129.459 118.015 129.459 118.015M111.276 132.003C111.276 132.003 114.559 125.65 117.432 122.13C121.597 117.028 130.316 111.247 130.316 111.247M113.792 121.22C113.792 121.22 119.204 114.866 123.356 111.557C127.121 108.557 129.25 106.63 133.758 104.944C137.263 103.633 143.155 103.075 143.155 103.075M120.473 110.589C120.473 110.589 127.248 103.912 132.614 101.29C137.62 98.8432 140.843 98.224 146.367 97.4965C150.668 96.9301 153.197 96.496 157.472 97.2355C159.675 97.6165 162.987 98.7691 162.987 98.7691M169.335 99.7634C169.335 99.7634 173.132 100.977 175.181 102.424C177.669 104.18 180.369 108.247 180.369 108.247M133.03 99.1836C133.03 99.1836 141.3 95.7867 146.898 94.8916C153.778 93.7916 164.737 95.1729 164.737 95.1729C164.737 95.1729 171.469 96.5799 174.941 99.0543C179.1 102.018 182.79 109.514 182.79 109.514M137.427 111.344C137.427 111.344 146.269 109.775 151.732 110.955C156.354 111.954 161.444 116.563 161.444 116.563M133.262 114.205C133.262 114.205 143.556 111.322 149.898 112.829C155.992 114.277 163.686 121.024 163.686 121.024M165.778 349.994C165.778 349.994 172.347 354.207 177.125 355.015C180.353 355.56 185.507 355.015 185.507 355.015M157.97 348.592C157.97 348.592 163.089 354.546 167.476 356.655C172.646 359.14 182.008 358.791 182.008 358.791M122.947 327.248C119.13 329.07 118.041 333.92 119.535 336.87C121.407 340.567 125.64 341.028 129.396 339.275C132.578 337.789 133.487 335.904 133.043 332.42C132.438 327.668 127.27 325.185 122.947 327.248Z" stroke="#F4D1D1"/>
</g>
<defs>
<filter id="filter0_d_3626_792" x="1.48438" y="0.125" width="272.918" height="414.77" filterUnits="userSpaceOnUse" color-interpolation-filters="sRGB">
<feFlood flood-opacity="0" result="BackgroundImageFix"/>
<feColorMatrix in="SourceAlpha" type="matrix" values="0 0 0 0 0 0 0 0 0 0 0 0 0 0 0 0 0 0 127 0" result="hardAlpha"/>
<feOffset dy="4"/>
<feGaussianBlur stdDeviation="5"/>
<feComposite in2="hardAlpha" operator="out"/>
<feColorMatrix type="matrix" values="0 0 0 0 0 0 0 0 0 0 0 0 0 0 0 0 0 0 0.25 0"/>
<feBlend mode="normal" in2="BackgroundImageFix" result="effect1_dropShadow_3626_792"/>
<feBlend mode="normal" in="SourceGraphic" in2="effect1_dropShadow_3626_792" result="shape"/>
</filter>
</defs>
</svg>
