<svg width="289" height="416" viewBox="0 0 289 416" fill="none" xmlns="http://www.w3.org/2000/svg">
<g filter="url(#filter0_d_3626_793)">
<path d="M185.723 321.317C190.14 322.212 193.267 327.098 191.562 331.27C190.247 334.487 187.323 335.87 183.851 335.715C180.859 335.582 177.218 331.865 177.218 331.865C177.218 331.865 183.385 336.646 182.449 340.463C181.742 343.341 179.881 345.108 176.983 345.728C174.154 346.333 171.987 345.401 169.976 343.321C167.352 340.608 168.682 333.742 168.682 333.742C168.682 333.742 165.642 338.73 162.406 339.498C158.972 340.314 155.679 339.725 153.801 336.737C152.162 334.13 152.367 331.415 154.079 328.855C155.703 326.428 160.784 325.544 160.784 325.544C160.784 325.544 154.557 324.942 152.57 322.085C152.244 321.616 151.957 321.126 151.714 320.623M185.723 321.317C182.693 320.703 178.25 323.932 178.25 323.932C178.25 323.932 183.822 319.927 183.654 316.269C183.526 313.488 182.322 311.724 180.046 310.122C178.319 308.906 176.39 308.357 174.508 308.476M185.723 321.317C185.723 321.317 192.156 322.103 195.798 323.903C201.827 326.883 207.703 336.345 207.703 336.345C207.703 336.345 211.233 339.143 213.712 337.805C216.464 336.318 215.171 333.803 215.575 330.701M134.146 291.453C134.146 291.453 129.248 288.19 128.143 283.616C126.86 278.298 125.915 275.344 130.166 268.059C132.017 264.889 144.517 256.503 149.539 260.836C151.505 262.533 151.112 264.062 150.15 266.024C148.954 268.465 144.816 263.962 143.209 266.56C140.595 270.784 147.574 284.545 150.984 286.586C159.291 291.56 163.915 300.06 163.915 300.06C163.915 300.06 157.028 285.301 161.198 276.864C164.687 269.806 170.733 262.696 176.796 264.381C178.112 264.747 178.973 267.255 178.973 267.255C178.973 267.255 189.069 253.579 198.236 255.881C206.112 257.858 215.412 265.013 214.009 272.356C213.588 274.558 212.566 275.635 210.899 276.406M134.146 291.453C134.146 291.453 125.58 290.088 123.531 293.807C121.151 298.129 127.165 303.673 130.203 304.535C133.242 305.397 134.945 305.88 137.984 306.742M134.146 291.453L142.963 296.334C142.963 296.334 148.508 299.994 151.356 303.093C153.322 305.232 155.799 309.059 155.799 309.059M137.984 306.742C137.984 306.742 143.363 306.33 146.265 307.819C149.002 309.224 151.761 313.464 151.761 313.464M137.984 306.742C137.984 306.742 135.764 307.267 133.922 308.378M132.06 315.533C132.06 315.533 131.059 312.595 131.624 310.845C131.952 309.827 132.876 309.008 133.922 308.378M132.06 315.533C132.06 315.533 137.775 318.957 141.851 319.948C143.242 320.287 144.958 320.467 146.566 320.56M132.06 315.533C132.06 315.533 129.883 316.996 127.456 318.819M133.596 355.023C132.885 353.285 133.238 350.128 133.238 350.128C133.238 350.128 120.725 357.7 110.372 353.637C104.622 351.38 100.478 345.867 100.478 345.867C100.478 345.867 95.5843 336.967 98.7231 334.055C100.186 332.698 101.851 332.702 103.618 333.148M133.596 355.023C134.845 358.075 141.684 357.05 146.494 355.542C151.009 354.126 156.313 348.441 156.313 348.441C156.313 348.441 153.194 364.197 156.636 373.258C159.808 381.607 162.889 387.457 171.099 390.974C178.184 394.01 186.222 393.022 193.893 390.33C198.159 388.832 199.603 386.874 200.168 384.485M133.596 355.023C133.596 355.023 137.758 354.45 140.307 353.634C147.041 351.476 155.32 343.512 155.32 343.512M239.251 306.914C244.132 315.318 244.108 320.211 243.158 327.443C242.053 335.858 238.398 339.204 231.996 343.17C229.132 344.945 223.983 346.371 223.983 346.371C223.983 346.371 225.24 348.819 225.363 350.524C225.462 351.909 224.904 354.05 224.904 354.05C224.904 354.05 217.948 355.914 210.463 352.172C206.064 349.973 201.124 342.311 198.265 340.632C192.158 337.047 190.617 338.536 190.617 338.536C190.617 338.536 195.363 347.173 198.819 352.45C203.261 359.234 195.561 370.899 193.396 374.507C191.681 377.365 193.36 381.683 193.36 381.683C193.36 381.683 195.666 382.534 197.087 382.168C199.216 381.619 200.826 377.959 200.826 377.959C200.509 380.399 200.618 382.58 200.168 384.485M239.251 306.914C236.218 301.692 227.562 296.171 222.329 299.186C218.568 301.353 215.334 304.956 217.025 308.954C217.932 311.097 220.552 312.849 220.552 312.849C220.552 312.849 222.372 305.922 225.506 306.92C228.596 307.903 228.577 311.887 227.323 314.776C226 317.823 223.035 318.02 219.788 318.725C212.368 320.336 209.688 311.649 202.189 310.461C198.509 309.877 192.651 310.267 192.651 310.267C192.651 310.267 195.052 307.049 196.443 301.347C197.304 297.821 196.488 280.082 198.301 276.046C201.054 269.918 207.121 272.535 207.121 272.535C207.121 272.535 206.287 278.052 209.656 276.896C210.104 276.742 210.518 276.582 210.899 276.406M239.251 306.914C239.251 306.914 241.505 313.72 240.67 318.006C239.713 322.916 238.785 326.663 235.063 330.004C232.063 332.697 228.859 333.563 224.839 333.875C221.026 334.17 215.575 330.701 215.575 330.701M200.168 384.485C200.168 384.485 193.927 388.629 189.984 387.383C185.321 385.908 183.458 381.627 183.386 376.737C183.319 372.165 190.778 362.505 190.778 362.505M190.778 362.505L192.198 351.589M190.778 362.505C190.778 362.505 185.045 370.807 182.309 369.856C179.432 368.856 179.576 362.551 179.576 362.551L184.579 343.011M225.567 306.457C225.567 306.457 227.799 306.741 229.054 307.381C230.193 307.962 230.974 308.593 231.63 309.396M232.997 311.555C233.751 312.98 234.099 314.328 234.149 315.663M232.997 311.555C232.997 311.555 230.992 316.228 228.82 318.555C227.17 320.323 223.924 322.345 223.924 322.345M232.997 311.555C232.546 310.703 232.123 310.001 231.63 309.396M215.575 330.701C218.007 331.749 219.68 331.967 222.3 331.576C227.518 330.796 230.312 327.452 232.404 322.609C233.479 320.12 234.234 317.909 234.149 315.663M215.575 330.701C212.562 327.636 207.862 322.853 207.862 322.853M210.899 276.406C210.899 276.406 211.641 272.953 211.094 270.853C210.15 267.231 207.933 265.265 204.419 263.974C199.831 262.289 196.134 264.05 192.292 267.072C189.87 268.977 188.724 270.524 187.54 273.368C185.192 279.007 189.454 288.891 189.454 288.891C189.454 288.891 186.13 278.325 181.237 277.652C177.252 277.105 176.98 289.464 176.98 289.464C176.98 289.464 179.113 294.708 178.46 299.009C177.858 302.969 174.508 308.476 174.508 308.476M174.508 308.476C172.634 308.593 170.807 309.372 169.274 310.812C167.227 312.733 166.612 317.489 166.612 317.489C166.612 317.489 163.996 312.848 161.092 311.69C158.078 310.487 155.217 310.089 152.802 312.256C152.387 312.629 152.041 313.034 151.761 313.464M151.761 313.464C150.395 315.554 150.559 318.235 151.714 320.623M151.714 320.623C151.714 320.623 149.294 320.717 146.566 320.56M146.566 320.56C146.566 320.56 142.755 323.364 141.088 325.815C139.025 328.849 140.48 331.998 137.976 334.679C135.912 336.889 134.059 338.959 131.115 338.268C126.635 337.216 132.635 326.583 132.635 326.583C132.635 326.583 127.404 335.398 122.016 338.579C117.223 341.41 113.389 344.269 108.226 342.187C104.973 340.876 100.89 339.342 101.768 335.946C102.096 334.678 103.618 333.148 103.618 333.148M103.618 333.148C106.551 333.89 109.767 335.852 112.817 334.842C118.811 332.857 118.466 326.652 123.104 322.367C124.342 321.222 125.947 319.951 127.456 318.819M173.928 267.143C173.928 267.143 170.158 274.485 168.823 279.552C166.845 287.058 167.622 299.392 167.622 299.392M167.068 275.81C167.068 275.81 165.544 284.201 165.27 289.641C165.061 293.779 165.371 300.249 165.371 300.249M172.706 276.543C172.706 276.543 171.425 284.227 171.06 289.197C170.77 293.145 170.767 299.33 170.767 299.33M174.723 280.319C174.723 280.319 173.424 287.886 173.102 292.784C172.886 296.076 172.91 301.23 172.91 301.23M137.273 275.449C137.273 275.449 139.962 281.476 142.319 284.956C144.767 288.572 146.663 290.209 149.577 293.46C152.734 296.981 157.896 302.26 157.896 302.26M134.444 279.839C134.444 279.839 136.169 283.823 137.772 286.065C139.976 289.148 141.975 290.227 144.729 292.829C148.979 296.846 155.837 302.872 155.837 302.872M141.335 276.949C143.664 280.745 145.253 284.573 148.746 288.743C151.725 292.301 157.379 296.91 157.379 296.91C160.116 299.496 159.122 299.954 159.122 299.954M130.294 298.67C130.294 298.67 137.357 299.277 141.467 301.003C145.51 302.702 150.82 307.216 150.82 307.216M132.846 301.443C137.102 302.988 139.488 303.855 143.743 305.401M135.612 295.378C135.612 295.378 140.315 297.658 143.199 299.353C145.853 300.913 149.809 303.649 149.809 303.649M193.211 263.736C193.211 263.736 189.297 266.552 187.329 268.886C185.514 271.04 183.493 274.994 183.493 274.994M193.584 260.867C193.584 260.867 188.252 264.465 185.584 267.536C183.399 270.051 180.881 274.655 180.881 274.655M189.022 261.972C189.022 261.972 184.666 265.475 182.459 268.253C180.256 271.025 177.83 276.051 177.83 276.051M183 287.403C183 287.403 184.983 294.192 184.272 298.494C183.521 303.036 179.062 309.068 179.062 309.068M180.967 294.422C180.967 294.422 181.952 299.348 181.064 302.29C180.265 304.939 177.256 308.265 177.256 308.265M185.455 317.343C185.455 317.343 192.458 316.544 196.572 317.949C203.299 320.244 209.409 330.849 209.409 330.849M188.194 315.214C188.194 315.214 188.66 315.137 189.439 315.034M212.477 322.192C212.477 322.192 207.549 316.393 201.596 315.015C197.704 314.114 191.947 314.704 189.439 315.034M185.285 318.656C185.285 318.656 189.464 318.933 192.064 319.538C194.537 320.113 198.23 321.6 198.23 321.6M189.439 315.034C189.439 315.034 194.014 315.249 196.827 315.995C199.048 316.585 202.329 318.08 202.329 318.08M234.149 315.663C234.149 315.663 231.329 321.398 228.154 323.678C226.34 324.98 223.003 326.165 223.003 326.165M231.63 309.396C231.63 309.396 230.181 313.962 228.292 316.396C226.554 318.636 222.617 321.336 222.617 321.336M220.024 352.334C219.691 352.29 214.434 349.938 211.847 348.767C209.261 347.596 207.531 344.47 207.531 344.47M220.344 349.872C220.344 349.872 215.952 348.999 213.342 347.868C210.93 346.823 207.531 344.47 207.531 344.47M207.531 344.47L203.215 340.174L199.853 337.123C199.853 337.123 204.459 342.06 208.274 343.821C211.979 345.532 218.516 345.899 218.516 345.899M187.054 341.062C187.054 341.062 189.578 348.954 188.616 353.92C187.982 357.192 185.329 361.797 185.329 361.797M171.563 347.113C171.563 347.113 167.662 358.72 169.103 366.028C169.915 370.148 170.665 372.571 173.042 376.033C175.325 379.358 180.589 383.085 180.589 383.085M174.072 347.439C174.072 347.439 172.056 358.359 172.87 365.304C173.21 368.213 173.087 370.004 174.31 372.666C175.407 375.052 178.345 378.047 178.345 378.047M184.146 388.294C184.146 388.294 178.729 387.365 175.837 385.543C172.079 383.175 168.588 376.778 168.588 376.778M173.132 388.517C173.132 388.517 167.19 384.569 164.508 380.994C161.415 376.871 160.526 373.863 159.354 368.844C157.695 361.735 159.641 350.152 159.641 350.152L161.275 343.045M163.365 342.462C163.365 342.462 161.508 351.567 161.411 357.482C161.324 362.835 160.848 366.078 162.588 371.141C163.452 373.656 165.561 377.268 165.561 377.268M165.491 339.9C165.491 339.9 163.303 349.472 163.438 355.688C163.521 359.52 164.56 365.437 164.56 365.437M167.761 340.824C167.761 340.824 166.725 347.024 166.433 351.035C166.155 354.846 166.248 360.818 166.248 360.818M152.549 340.62C152.549 340.62 146.721 346.475 142.313 349.318C139.467 351.154 134.655 353.386 134.655 353.386M150.341 339.225C150.341 339.225 145.239 345.13 141.074 347.737C138.517 349.337 134.109 351.075 134.109 351.075M149.088 335.594C149.088 335.594 144.627 341.328 141.017 344.184C138.266 346.361 133.393 348.937 133.393 348.937M141.581 322.028C141.581 322.028 137.111 323.712 135.472 326.053C134.267 327.774 133.698 331.133 133.698 331.133M137.146 320.079C133.77 322.207 131.877 323.401 128.502 325.529M133.507 318.863C133.507 318.863 127.057 324.036 123.411 327.855C120.748 330.645 117.026 335.389 117.026 335.389M133.922 308.378C133.922 308.378 124.753 308.445 118.915 307.902C102.552 306.379 92.0786 305.274 78.3883 295.889C67.3927 288.352 53.1057 273.857 53.1057 273.857M127.456 318.819L112.727 316.903C112.727 316.903 102.24 314.899 95.8539 312.548C77.7401 305.88 56.2137 283.025 56.2137 283.025M45.0698 255.969C45.0698 255.969 62.0623 253.723 72.7262 249.776C81.1826 246.646 86.5213 245.008 94.0328 239.936C105.457 232.222 117.883 221.947 117.883 221.947M96.0093 224.738C96.0093 224.738 86.4464 232.133 79.6058 235.66C70.7679 240.215 65.331 242.257 55.5335 243.952C46.9325 245.439 33.1926 244.634 33.1926 244.634M96.0093 224.738C96.0093 224.738 100.58 224.902 103.449 224.43C109.837 223.38 118.471 217.423 118.471 217.423M96.0093 224.738L92.9118 223.06C93.3847 222.403 92.9321 222.904 92.9321 222.904C92.9321 222.904 102.192 216.226 105.175 211.161C106.739 208.505 106.718 205.783 106.4 203.093M118.471 217.423C118.471 217.423 117.074 221.711 117.56 224.426C118.075 227.299 120.074 229.966 121.882 232.257C127.997 240.006 141.091 242.864 148.539 236.386C151.317 233.97 150.715 231.853 150.715 231.853C150.715 231.853 147.409 233.99 144.922 233.594C141.509 233.051 139.604 230.617 139.005 227.214C137.977 221.38 144.379 216.365 143.583 209.119C143.194 205.569 142.874 202.781 141.478 200.174M118.471 217.423C118.471 217.423 125.43 209.773 127.96 203.805C129.742 199.6 130.911 192.487 130.911 192.487M130.911 192.487C130.911 192.487 127.084 185.637 122.781 184.28C120.083 183.429 117.65 183.671 115.417 184.628M130.911 192.487C130.911 192.487 131.175 192.575 131.614 192.739C133.203 193.331 137.091 194.921 139.082 196.961C140.124 198.028 140.895 199.085 141.478 200.174M115.417 184.628C112.611 185.829 110.121 188.16 107.814 190.867C104.63 194.604 105.892 198.809 106.4 203.093M115.417 184.628C115.417 184.628 111.555 182.866 108.905 182.476C106.28 182.089 105.598 181.998 103.944 182.376M106.4 203.093C106.4 203.093 101.455 207.137 97.6825 208.457C92.7341 210.188 89.2974 210.674 84.2771 209.164C79.834 207.828 76.9855 206.377 74.4447 202.494C72.7014 199.831 71.9416 194.736 71.9416 194.736C71.9416 194.736 79.6355 196.928 84.4432 195.954C92.1413 194.395 94.4063 184.93 101.989 182.881C102.8 182.662 103.42 182.495 103.944 182.376M141.478 200.174C141.478 200.174 147.465 201.421 151.354 201.459C157.578 201.519 160.994 200.092 167.029 198.567C182.652 194.62 188.509 187.213 199.96 184.147C209.138 181.689 215.196 180.48 222.611 182.902C227.748 184.58 230.613 189.973 230.052 193.747C229.311 198.728 218.984 200.044 221.246 204.544C221.246 204.544 227.621 206.447 231.806 204.425C236.446 202.182 237.764 200.65 242.017 196.063C246.27 191.477 252.08 179.762 250.352 168.741C248.681 158.081 244.066 151.575 234.95 145.801C226.25 140.291 219.151 139.872 208.959 141.348C203.689 142.111 195.948 145.428 195.948 145.428M195.948 145.428C195.948 145.428 204.258 138.68 210.632 136.736C219.323 134.086 230.521 139.656 239.875 136.346C245.454 134.371 248.027 133.833 248.88 129.498C250.056 123.523 236.082 120.587 236.082 120.587C236.082 120.587 241.166 118.74 244.649 118.592C249.636 118.38 253.115 118.876 256.376 122.423C258.784 125.042 260.393 127.415 259.701 130.905M195.948 145.428C195.948 145.428 192.079 148.054 188.508 150.823M259.701 130.905C259.034 134.272 256.245 136.743 252.813 136.796C251.049 136.823 251.464 136.109 250.169 136.452C247.753 137.091 251.616 142.066 253.785 142.348C258.306 142.936 259.544 142.67 262.391 142.411C262.391 142.411 270.902 139.621 274.28 132.801C277.173 126.961 278.219 116.285 277.268 109.838C275.841 100.154 263.974 92.3109 263.974 92.3109C259.038 88.5384 251.8 88.695 248.496 89.0078M259.701 130.905C259.701 130.905 262.071 126.625 264.055 124.225C265.878 122.019 267.94 121.619 269.284 119.093C270.852 116.143 270.476 113.95 270.387 110.61C270.303 107.483 269.008 102.718 269.008 102.718C269.008 102.718 270.67 116.375 264.283 117.364C257.067 118.482 266.901 105.476 262.249 99.8482C259.785 96.8678 258.769 95.3172 255.25 93.7129M230.076 77.2693C230.83 78.3015 230.673 79.6266 230.673 79.6266C230.673 79.6266 246.201 75.7532 247.988 79.5986C249.605 83.0783 246.735 89.233 246.735 89.233C246.735 89.233 247.398 89.1118 248.496 89.0078M230.076 77.2693C227.769 74.1098 220.187 79.2218 220.187 79.2218L209.942 85.2841C209.942 85.2841 213.781 77.7213 211.387 74.1663C210.299 72.5495 209.26 72.4439 207.617 72.2007C205.545 71.8939 202.46 73.6778 202.46 73.6778C202.46 73.6778 204.448 63.5677 207.71 57.9922C209.913 54.2272 210.341 50.0149 214.631 49.2245C216.624 48.8572 218.04 48.8506 219.778 49.8938C221.576 50.9732 222.413 52.259 222.826 54.3151M230.076 77.2693C230.488 81.043 226.515 82.7774 224.233 86.3067C224.233 86.3067 227.47 83.5007 230.345 82.1466C236.179 79.3985 246.137 76.2371 246.917 82.6981C247.348 86.2679 243.026 88.7506 243.026 88.7506L228.357 97.4312L241.412 93.3639L255.25 93.7129M222.826 54.3151C223.464 57.4892 217.968 58.7534 219.174 61.7578C219.695 63.0555 220.367 63.6635 221.505 64.4764M222.826 54.3151C222.826 54.3151 225.6 50.4729 225.494 47.6834C225.366 44.3391 224.206 42.5142 222.156 39.8685C219.425 36.3436 216.962 34.0227 212.785 32.4628C210.407 31.5748 206.339 31.6245 206.339 31.6245C206.339 31.6245 218.157 37.5602 214.214 40.4378C210.744 42.9698 206.526 36.0405 200.785 34.324C197.628 33.38 194.968 33.7888 191.354 33.9343C185.018 34.1893 176.297 38.553 176.297 38.553L177.107 36.8468M221.505 64.4764L225.593 60.3178C225.593 60.3178 229.3 55.0761 229.71 51.1856C230.129 47.2188 229.136 44.8472 227.482 41.2176C225.712 37.3342 220.868 32.5184 220.868 32.5184M221.505 64.4764C222.655 65.2986 224.468 65.5163 225.96 65.5335M146.68 54.7456C146.68 54.7456 150.067 41.4817 147.649 34.0113C146.282 29.7874 145.299 27.3583 141.908 25.2206C139.007 23.3915 136.343 23.5452 133.518 24.8511C130.816 26.1 129.998 30.2991 129.998 30.2991C129.998 30.2991 122.931 19.6214 116.424 14.9798C111.058 11.1524 107.594 9.062 101.108 7.88852C93.393 6.49262 88.0457 6.59525 81.1891 10.3976C74.1736 14.2879 70.0572 21.704 68.3905 29.5509C67.2356 34.9884 68.1458 37.9363 70.9133 41.297C73.1072 43.9611 76.7926 45.1095 79.7038 44.5203C81.4062 44.1757 81.5135 43.3199 81.6255 42.1262C81.7192 41.1272 80.8249 40.3607 80.3785 39.3317M146.68 54.7456C146.68 54.7456 149.93 48.3368 152.648 44.6515C156.14 39.9176 161.768 35.8474 161.768 35.8474C161.768 35.8474 167.725 32.7979 169.427 34.6215C171.001 36.3078 170.141 40.4848 170.141 40.4848L170.8 40.5706L176.891 33.9818C176.891 33.9818 177.95 32.9729 179.613 31.5705M146.68 54.7456C146.68 54.7456 143.623 61.6454 142.356 66.2898C140.469 73.2021 139.989 84.4843 139.989 84.4843M88.4894 62.6116C88.4894 62.6116 85.1621 59.3642 84.2321 58.2299C83.3021 57.0956 82.3634 55.0219 83.8477 52.8996C86.1006 49.6786 89.0042 50.167 93.2113 50.7038C95.3278 50.9739 97.6047 52.0211 99.7151 53.3127M88.4894 62.6116L98.1885 70.5828M88.4894 62.6116C88.4894 62.6116 86.8317 64.5751 86.4152 66.4609C85.5785 70.2482 88.5952 72.6647 91.1751 74.9737C96.3847 79.6362 104.213 87.2016 104.213 87.2016C104.213 87.2016 93.695 81.2981 86.2926 79.5032C77.8286 77.4507 72.4439 76.2955 64.0142 78.4846C55.2295 80.7659 49.1066 84.9482 44.3379 92.6705C40.6666 98.6156 40.7905 103.782 42.087 109.979C43.3219 115.882 46.4034 118.362 51.1733 120.494C53.7829 121.661 55.0699 121.522 57.3623 121.299C59.6435 121.077 60.5478 120.282 61.7577 118.671C62.8812 117.175 63.4278 116.028 62.242 114.947C61.4741 114.246 57.7671 116.053 57.7671 116.053C57.7671 116.053 56.9845 116.413 55.9603 116.372C54.4964 116.314 54.3604 115.174 54.4319 113.931M103.944 182.376C103.944 182.376 100.444 181.828 98.3094 181.098C94.1654 179.681 92.0499 178.15 88.6731 175.361C82.8274 170.533 80.0485 166.879 77.5068 159.479C75.0315 152.273 76.4848 147.528 76.1548 139.915C75.7804 131.281 78.756 125.415 74.5973 117.839C72.0549 113.207 70.2534 109.794 65.2704 108.037C62.0223 106.892 58.9609 105.331 56.4577 107.696C54.967 109.105 54.6665 110.538 54.5381 112.585C54.5111 113.016 54.4578 113.48 54.4319 113.931M132.923 191.844C132.923 191.844 143.852 195.114 150.662 193.517C157.407 191.935 168.586 186.599 163.223 182.211C159.058 178.803 154.985 184.666 149.977 186.192C143.168 188.267 132.923 191.844 132.923 191.844ZM132.923 191.844C132.923 191.844 141.432 192.218 146.741 191.22C150.93 190.432 157.179 188.027 157.179 188.027M230.658 183.948C225.393 182.617 235.097 169.892 232.737 162.825C230.046 154.771 216.865 152.662 216.865 152.662C216.865 152.662 229.079 158.029 227.148 165.723C224.517 176.21 211.636 163.14 202.202 159.631C193.947 156.56 176.12 163.118 176.12 163.118C176.12 163.118 178.18 160.688 180.674 158.029M230.658 183.948C233.09 184.563 235.576 163.195 235.576 163.195M230.658 183.948C230.658 183.948 229.824 186.474 230.122 188.07C230.86 192.015 236.39 186.904 236.626 180.112C236.862 173.319 236.994 169.51 237.23 162.717M248.496 89.0078L246.494 91.0813C246.494 91.0813 252.001 92.2316 255.25 93.7129M179.613 31.5705C182.567 29.0789 187.561 26.1748 191.767 24.6508C199.977 21.6763 205.584 20.8559 213.984 23.2401C220.799 25.1743 223.976 27.0292 228.633 32.367C228.633 32.367 236.25 41.0047 236.782 48.1041C237.106 52.4158 235.67 57.3374 233.057 61.2886C231.315 63.924 228.499 65.386 228.499 65.386C228.499 65.386 227.374 65.5497 225.96 65.5335M179.613 31.5705L178.36 34.2087M205.716 116.416C205.716 116.416 204.424 125.245 206.392 127.412C209.24 130.547 213.699 131.27 217.148 128.81C220.532 126.398 222.212 122.252 218.913 119.725C216.559 117.922 211.889 118.812 211.889 118.812C211.889 118.812 220.141 117.711 224.951 116.03C229.739 114.358 232.108 107.664 229.108 103.574C226.237 99.6603 220.958 101.871 216.419 103.592C212.151 105.211 209.57 110.249 209.57 110.249C209.57 110.249 215.771 103.259 213.373 100.076C212.338 98.703 210.967 98.4309 209.448 98.6551M205.716 116.416C205.716 116.416 199.045 116.141 198.099 112.538C197.078 108.653 198.722 104.162 201.863 101.699M205.716 116.416C205.716 116.416 194.019 124.623 190.881 128.742C187.649 132.983 188.704 136.929 188.704 136.929C188.704 136.929 192.263 129.934 195.321 126.667C198.38 123.4 205.716 116.416 205.716 116.416ZM205.716 116.416C205.716 116.416 208.793 113.936 211.021 112.774C213.529 111.466 217.838 110.328 217.838 110.328M174.655 77.6557L170.271 92.4161L168.008 91.5743L174.655 77.6557ZM174.655 77.6557C174.655 77.6557 175.362 83.6653 176.987 84.9854C181.377 88.5528 188.77 87.9135 191.316 82.8618C193.045 79.431 193.321 75.2238 190.122 73.0969C187.35 71.2544 181.673 74.2131 181.673 74.2131C181.673 74.2131 188.058 69.5342 189.253 65.0449C190.555 60.152 191.051 54.6315 186.521 52.3705C181.577 49.9035 176.864 54.8452 174.507 59.8422C173.177 62.6628 173.478 67.7609 173.478 67.7609C173.478 67.7609 171.841 61.3291 168.5 60.4297C163.973 59.2116 160.744 66.2047 160.479 70.8844C160.159 76.5239 165.782 79.8286 170.91 79.085C172.459 78.8604 174.655 77.6557 174.655 77.6557ZM174.655 77.6557C174.655 77.6557 176.929 75.3402 178.067 73.1717C179.204 71.0033 180.479 66.5503 180.479 66.5503M130.436 85.2439L127.268 69.8558M130.436 85.2439L128.847 85.0374L127.268 69.8558M130.436 85.2439C120.109 86.7186 114.689 93.9474 111.717 101.304C109.499 106.795 109.249 107.811 112.061 109.505C115.565 111.617 116.802 104.002 120.592 102.459C124.576 100.836 125.072 102.859 129.314 102.148C135.583 101.096 138.485 95.3475 145.604 95.9705C150.542 96.4027 158.3 100.681 158.3 100.681C158.3 100.681 140.832 98.2557 134.307 105.209C130.364 109.411 124.394 116.898 129.76 118.996C133.094 120.3 134.593 116.812 137.47 116.175M130.436 85.2439C133.519 84.8036 136.737 84.5219 139.989 84.4843M127.268 69.8558C127.268 69.8558 131.329 70.5023 133.691 68.4901C136.698 65.9285 138.71 62.1911 136.327 58.1619C134.795 55.5732 132.007 51.8373 129.97 54.0502C128.394 55.7626 130.164 60.0069 130.164 60.0069C130.164 60.0069 127.276 53.5973 123.594 51.7433C120.689 50.2806 118.441 50.0912 115.993 52.2325C113.833 54.1214 114.781 56.613 115.125 58.9085C115.608 62.1392 120.169 63.9997 120.169 63.9997C120.169 63.9997 114.656 62.3781 113.077 64.7199C111.3 67.3535 115.089 70.59 117.813 72.1798C121.002 74.041 127.268 69.8558 127.268 69.8558ZM127.268 69.8558C127.268 69.8558 126.463 66.2196 125.395 64.0841C124.328 61.9486 121.801 58.9192 121.801 58.9192M185.145 153.588C184.447 154.211 183.708 154.918 182.964 155.66M185.145 153.588C185.145 153.588 194.986 149.898 201.544 148.497C206.668 147.401 209.597 146.367 214.832 146.625C220.972 146.928 229.995 150.85 229.995 150.85M185.145 153.588C186.124 152.714 187.299 151.761 188.508 150.823M137.47 116.175C140.784 115.441 142.513 116.392 145.58 114.935C148.964 113.327 148.728 109.946 151.939 108.42C155.374 106.788 161.657 107.799 161.657 107.799C161.657 107.799 145.959 112.219 148.601 117.623C149.777 120.028 151.838 120.202 154.327 120.641C158.673 121.406 160.426 117.519 164.648 117.415C169.658 117.291 170.27 119.126 174.994 121.055C179.717 122.983 179.704 130.386 179.704 130.386C179.704 130.386 172.827 119.763 166.508 121.328C163.459 122.084 161.202 122.135 160.217 124.754C158.997 127.997 165.103 132.159 165.103 132.159C165.103 132.159 173.039 133.636 176.354 137.108C180.338 141.279 180.475 151.29 180.475 151.29C180.588 150.426 182.887 140.774 184.689 132.156M137.47 116.175C137.47 116.175 137.201 123.473 134.482 126.833C127.642 135.286 123.763 135.795 119.327 143.338C115.599 149.679 112.791 161.004 112.791 161.004M112.791 161.004C112.569 164.015 111.935 167.176 112.596 170.129C113.639 174.793 116.711 180.205 116.711 180.205C116.711 180.205 115.857 179.852 114.652 179.284M112.791 161.004C112.979 158.453 112.872 156.009 111.434 153.888C109.922 151.659 109.387 150.905 106.745 150.379C104.192 149.87 103.302 149.839 101.435 151.653C98.4945 154.509 101.376 165.77 101.376 165.77C101.376 165.77 103.566 171.83 108.587 175.781C109.198 176.262 109.924 176.742 110.685 177.198M139.989 84.4843C150.327 84.3647 161.002 86.7113 168.738 94.2712C176.927 102.273 184.371 115.121 185.406 124.466M119.542 134.233C119.542 134.233 116.248 121.451 111.367 114.837C107.844 110.061 106.057 106.119 100.404 104.313C95.0052 102.589 89.1946 106.661 83.5929 105.803C79.2902 105.144 77.748 105.935 75.5859 102.157M75.5859 102.157C74.6406 100.506 75.5718 104.06 75.5859 102.157ZM75.5859 102.157C75.6412 94.6557 84.5384 94.3249 94.4613 93.7115M94.4613 93.7115L105.432 101.454M94.4613 93.7115C94.4613 93.7115 84.1253 87.5094 77.3097 88.902C70.3121 90.3319 66.9013 104.431 61.5662 99.6828C59.2275 97.6012 59.1832 96.9298 60.6249 94.0782C63.2125 88.9601 68.7517 81.2681 68.7517 81.2681C68.7517 81.2681 62.1561 85.19 60.1229 89.2458C58.5619 92.3596 59.57 96.4038 58.1824 99.286C56.3782 103.033 51.2682 102.828 50.7981 106.96M50.7981 106.96C50.5349 109.274 50.9278 104.635 50.7981 106.96ZM50.7981 106.96C50.7194 108.37 50.3638 108.692 49.9211 108.337M52.3831 89.4055C52.3831 89.4055 47.7337 96.6609 47.7377 101.14C47.7404 104.034 49.0136 107.609 49.9211 108.337M49.9211 108.337C49.9211 108.337 50.3705 111.065 51.2513 112.158C52.1321 113.25 54.4319 113.931 54.4319 113.931M133.194 54.1859C133.194 54.1859 133.97 42.6854 131.566 36.8076C129.603 32.0077 127.901 29.2197 123.816 26.0251C118.075 21.5352 112.889 19.6551 105.775 21.2433C101.201 22.2646 96.4326 25.9339 96.4326 25.9339C96.4326 25.9339 88.4057 28.7717 88.4808 25.5599C88.5123 24.2132 88.8185 22.9632 88.8185 22.9632M90.4345 18.5265C89.6963 19.6533 88.8185 22.9632 88.8185 22.9632M90.4345 18.5265C91.6515 16.6688 94.0982 15.347 96.3661 14.4647M90.4345 18.5265C90.4345 18.5265 87.8461 18.7032 86.3549 19.3497C83.9317 20.4002 81.4279 23.9825 81.4279 23.9825M101.338 13.018C101.338 13.018 98.9702 13.4516 96.3661 14.4647M88.8185 22.9632C88.8185 22.9632 81.5394 24.2923 78.5161 27.7011C76.2077 30.3037 73.5225 32.2155 74.7388 35.4747C75.6717 37.9745 80.3785 39.3317 80.3785 39.3317M80.3785 39.3317C80.2028 38.9266 80.0965 38.4809 80.1472 37.9643C80.3804 35.589 82.012 35.5528 84.3245 34.9622C87.2364 34.2184 89.0851 35.0658 91.9561 35.9547C102.618 39.2556 107.783 59.7529 107.783 59.7529C107.783 59.7529 104.11 56.0026 99.7151 53.3127M126.313 190.35C126.313 190.35 126.77 196.026 126.133 199.57C125.238 204.551 124.12 207.46 121.072 211.499C118.721 214.613 113.666 218.205 113.666 218.205M122.653 188.087C122.653 188.087 124.657 197.76 122.17 203.052C121.122 205.282 118.572 208.233 118.572 208.233M120.033 187.746C120.033 187.746 119.451 198.339 116.858 204.453C115.517 207.614 112.56 212.121 112.56 212.121M117.438 189.196C117.438 189.196 115.885 197.705 113.775 202.776C112.767 205.2 110.813 208.809 110.813 208.809M115.095 187.104C115.095 187.104 113.871 193.773 112.249 197.765C110.906 201.071 107.953 205.83 107.953 205.83M107.247 186.084C107.247 186.084 103.291 193.097 99.2922 196.08C96.6487 198.051 94.9701 199.122 91.769 199.914C89.3566 200.511 85.4214 200.365 85.4214 200.365M104.702 195.392C104.702 195.392 101.062 200.242 97.7456 201.968C95.6988 203.033 94.4122 203.516 92.1189 203.77C89.3706 204.075 85.0973 202.857 85.0973 202.857M104.102 200.01C104.102 200.01 100.373 204.012 97.2906 205.466C94.0417 206.998 91.7148 208.227 88.2631 207.232C86.7847 206.806 84.7639 205.421 84.7639 205.421M102.556 187.895C102.556 187.895 99.1402 193.492 95.7177 195.615C92.2715 197.752 85.6889 198.308 85.6889 198.308M120.882 217.158C120.882 217.158 121.111 224.362 123.198 228.274C124.77 231.219 126.009 232.855 128.725 234.795C132.398 237.418 139.825 238.015 139.825 238.015M123.115 214.94C123.115 214.94 123.182 224.57 126.207 228.665C129.532 233.168 139.128 235.162 139.128 235.162M139.766 203.148C139.766 203.148 140.458 208.949 139.864 212.587C139.381 215.542 137.586 219.909 137.586 219.909M137.084 202.8C137.084 202.8 136.473 207.499 136.081 210.51C135.551 214.585 134.724 220.943 134.724 220.943M134.432 200.649L132.509 215.436M130.588 209.796C130.588 209.796 129.734 216.354 130.596 220.407C131.293 223.68 133.758 228.372 133.758 228.372M128.317 212.441C128.317 212.441 126.97 217.035 127.336 219.983C127.757 223.378 130.876 227.997 130.876 227.997M104.256 157.91C104.256 157.91 104.596 164.155 105.825 167.914C107.097 171.803 110.685 177.198 110.685 177.198M110.685 177.198C112.038 178.007 113.505 178.743 114.652 179.284M107.499 163.38C107.499 163.38 108.749 170.536 111.042 174.457C112.23 176.489 114.652 179.284 114.652 179.284M135.955 168.527C135.955 168.527 133.69 173.398 131.568 176.06C129.098 179.159 123.996 182.813 123.996 182.813M123.996 182.813C124.279 183.873 124.581 184.514 124.581 184.514C124.581 184.514 133.939 181.077 137.598 176.31C140.797 172.141 143.228 166.229 140.199 161.934C138.518 159.551 136.412 160.291 133.481 161.711C128.189 164.274 126.312 170.034 124.408 174.595C123.476 176.826 123.399 179.017 123.604 180.77M123.996 182.813C123.843 182.242 123.696 181.55 123.604 180.77M129.673 172.35C129.673 172.35 127.404 176.775 125.285 179.096C124.661 179.781 123.604 180.77 123.604 180.77M172.517 147.159C172.517 147.159 173.322 153.234 172.44 156.958C171.085 162.677 164.169 169.53 164.169 169.53L152.49 179.459M152.49 179.459C154.464 178.521 156.378 177.395 158.103 176.047C165.541 170.235 175.73 163.302 176.645 153.908C177.223 147.978 178.243 142.198 172.386 141.105C169.643 140.593 167.443 141.368 166.298 143.913C162.463 152.435 166.106 158.377 160.583 166.89C153.839 177.285 133.929 184.105 133.929 184.105C133.929 184.105 139.797 183.803 146.474 181.765M152.49 179.459C150.501 180.405 148.452 181.161 146.474 181.765M168.577 152.858C168.577 152.858 167.783 160.432 165.515 164.588C163.523 168.238 158.547 172.638 158.547 172.638L146.474 181.765M220.156 160.497C220.156 160.497 214.228 156.034 208.269 154.905C201.783 153.675 189.743 155.611 189.743 155.611L180.674 158.029M180.674 158.029C181.414 157.241 182.191 156.432 182.964 155.66M205.984 151.511C205.984 151.511 199.737 151.207 196.215 151.825C191.29 152.689 182.964 155.66 182.964 155.66M226.553 145.79C226.553 145.79 217.237 143.56 211.191 143.792C205.024 144.029 201.448 144.748 195.733 147.078C192.79 148.278 188.508 150.823 188.508 150.823M235.825 149.355C235.825 149.355 243.913 155.767 246.427 161.558C249.533 168.712 249.288 174.066 246.997 181.521C244.772 188.758 237.426 197.565 237.426 197.565M229.311 199.439C229.311 199.439 238.452 194.908 241.078 189.494C243.129 185.266 242.63 177.56 242.63 177.56M224.284 181.187C224.284 181.187 213.408 179.211 206.484 179.987C198.785 180.85 194.725 183.02 187.598 186.056C179.821 189.369 168.632 196.488 168.632 196.488M223.201 178.366C223.201 178.366 215.17 176.434 209.96 176.644C201.711 176.975 197.468 179.97 189.83 183.103C180.726 186.838 167.517 194.811 167.517 194.811M226.512 177.638C226.512 177.638 216.086 174.104 209.208 174.313C200.634 174.574 196.246 177.791 188.264 180.933C178.131 184.922 163.308 193.374 163.308 193.374M226.104 173.756C226.104 173.756 214.663 172.171 207.396 172.978C197.929 174.028 193.036 176.936 184.163 180.4C176.545 183.373 165.095 189.057 165.095 189.057M202.638 163.551C202.638 163.551 194.887 164.89 190.14 166.51C183.444 168.797 173.949 174.641 173.949 174.641M207.465 166.205C206.909 166.388 196.676 168.327 191.629 169.273C186.582 170.219 173.382 178.997 173.382 178.997M210.83 169.948C210.83 169.948 199.435 170.221 192.474 172.137C183.963 174.48 172.142 182.015 172.142 182.015M268.541 124.808C268.541 124.808 266.005 129.035 263.891 130.874C262.264 132.288 259.376 133.405 259.376 133.405M268.034 128.703C268.034 128.703 265.749 132.445 263.492 133.941C261.438 135.302 257.542 136.038 257.542 136.038M269.936 131.108C269.936 131.108 267.247 135.408 264.556 136.951C262.238 138.279 257.941 138.695 257.941 138.695M238.692 84.1941C238.692 84.1941 231.689 86.617 227.382 88.5958C222.996 90.6116 220.67 92.0252 216.483 94.429C213.704 96.0247 209.448 98.6551 209.448 98.6551M209.448 98.6551C208.008 98.8677 206.434 99.5264 204.888 100.116M235.301 89.6257C235.301 89.6257 230.085 92.1939 226.709 93.7705C223.934 95.0671 222.245 95.5268 219.569 97.0174C218.579 97.5683 217.079 98.5034 217.079 98.5034M237.358 81.4549C237.358 81.4549 229.11 85.3434 223.993 88.155C216.279 92.3939 204.888 100.116 204.888 100.116M204.888 100.116C204.684 100.194 204.479 100.271 204.276 100.345C203.401 100.665 202.591 101.127 201.863 101.699M225.195 78.9142C225.195 78.9142 217.679 82.6885 213.242 85.7133C208.92 88.6597 206.613 90.522 202.805 94.1082C199.5 97.2214 194.9 102.635 194.9 102.635M223.722 82.7443C223.722 82.7443 218.919 84.4274 216.145 86.0908C213.023 87.9625 211.721 89.6544 208.897 91.9512C205.784 94.4831 203.688 95.5297 200.947 98.4599C199.55 99.9532 197.636 102.516 197.636 102.516M216.35 90.1045C216.35 90.1045 211.967 92.2635 209.466 94.1129C206.093 96.6063 201.863 101.699 201.863 101.699M209.002 79.3709C209.002 79.3709 203.012 82.2203 199.911 85.0232C194.938 89.5164 190.982 99.678 190.982 99.678M208.098 75.4348C208.098 75.4348 201.503 79.2123 198.124 82.6242C193.749 87.0434 189.598 96.0735 189.598 96.0735M196.58 30.3554C196.58 30.3554 190.764 30.3872 187.239 31.4133C182.928 32.668 177.107 36.8468 177.107 36.8468M177.107 36.8468L178.36 34.2087M193.421 27.7877C193.421 27.7877 187.478 28.552 184.109 30.2173C181.659 31.4285 178.36 34.2087 178.36 34.2087M229.426 38.8855C229.426 38.8855 233.734 45.3329 233.628 49.956C233.557 53.0899 232.708 54.8177 231.405 57.6686C229.851 61.0659 225.96 65.5335 225.96 65.5335M216.368 45.4492C216.368 45.4492 208.251 46.3908 204.522 49.5656C200.419 53.0584 198.454 61.9563 198.454 61.9563M208.047 52.3931C208.047 52.3931 203.157 58.0367 200.773 62.2579C198.959 65.4701 197.228 71.385 197.228 71.385M162.124 58.2318C162.124 58.2318 164.598 51.0716 167.743 47.5698C170.556 44.4369 176.526 41.3152 176.526 41.3152M173.399 50.125C173.399 50.125 176.704 45.3674 179.433 42.908C183.098 39.6061 190.243 36.3747 190.243 36.3747M194.904 36.3244C194.904 36.3244 185.994 40.5125 181.737 44.9467C180.457 46.2807 178.696 48.5761 178.696 48.5761M164.831 37.4166C164.831 37.4166 159.984 42.1391 157.932 45.8757C156.633 48.2412 155.321 52.2741 155.321 52.2741M169.038 37.6091C169.038 37.6091 164.21 44.0169 161.977 48.6062C160.352 51.9466 158.563 57.485 158.563 57.485M155.055 54.3197C155.055 54.3197 148.79 64.2207 147.72 71.4013C147.091 75.623 147.748 82.3309 147.748 82.3309M135.605 25.1226C135.605 25.1226 139.446 31.8513 140.426 36.6204C141.259 40.6756 140.826 47.2139 140.826 47.2139L139.361 65.3993M139.269 25.5991C139.269 25.5991 142.815 30.1521 144.102 33.55C146.496 39.8681 145.027 44.1252 144.364 50.8491C144.182 52.6949 143.751 55.5587 143.751 55.5587M132.626 28.6602C132.626 28.6602 136.609 34.7496 137.501 39.1938C138.231 42.829 137.559 48.6876 137.559 48.6876M131.194 44.6363C131.194 44.6363 127.046 36.7756 122.898 33.0799C117.605 28.3637 106.513 25.2643 106.513 25.2643M131.306 51.231C131.306 51.231 127.59 44.041 124.241 40.1533C119.687 34.8659 110.172 29.1374 110.172 29.1374M129.717 51.0245C129.717 51.0245 124.999 44.5653 121.791 41.5938C117.213 37.3538 109.718 32.6269 109.718 32.6269M125.646 50.495C125.646 50.495 120.162 44.3207 116.179 40.864C112.574 37.7353 106.398 33.5344 106.398 33.5344M120.871 48.6664C120.871 48.6664 116.639 44.6712 113.739 42.3328C109.696 39.0726 102.857 34.6884 102.857 34.6884M115.259 47.9366C115.259 47.9366 112.146 44.8798 109.939 43.176C106.936 40.8579 101.703 38.0261 101.703 38.0261M115.421 72.8239C115.421 72.8239 118.636 76.034 120.084 78.7332C121.416 81.2155 122.533 86.0949 122.533 86.0949M120.334 86.8165C120.334 86.8165 118.928 81.5437 117.013 78.3339C115.332 75.5152 111.31 71.334 111.31 71.334M110.7 76.02C110.7 76.02 109.963 69.0498 108.427 65.2045C107.056 61.7715 105.4 60.411 103.298 57.3705C102.096 55.6317 99.7151 53.3127 99.7151 53.3127M115.233 92.0208C115.233 92.0208 112.249 84.9926 110.105 80.5978C108.15 76.591 107.296 74.1835 104.802 70.4878C102.632 67.2705 101.221 65.5673 98.4785 62.8214C95.272 59.6113 89.4059 55.5638 89.4059 55.5638M107.467 67.2807C107.467 67.2807 104.152 61.9631 101.538 58.9407C99.3102 56.3652 95.3187 52.8289 95.3187 52.8289M100.794 69.9665C100.794 69.9665 105.941 77.5875 108.944 82.449C110.252 84.5656 111.325 88.1265 111.325 88.1265M113.359 93.5902C113.359 93.5902 110.137 90.1109 108.258 87.7276C105.874 84.7049 102.642 79.6273 102.642 79.6273M98.6319 76.8652C98.6319 76.8652 95.1493 74.6061 93.3064 72.7231C91.145 70.5146 88.7348 66.2644 88.7348 66.2644M123.205 23.5099C123.205 23.5099 119.313 18.1755 114.851 16.8686C110.956 15.7276 104.457 16.8473 104.457 16.8473M118.715 21.3621C118.715 21.3621 115.561 19.4719 113.093 18.9206C109.918 18.2111 107.472 17.9823 104.251 18.4358C99.9893 19.0356 94.5763 23.712 94.5763 23.712M92.9146 9.45471C92.9146 9.45471 86.2981 10.1538 82.9786 12.0585C78.205 14.7976 76.2523 17.9528 74.1394 23.0346C72.9552 25.8827 72.2898 30.7132 72.2898 30.7132M96.3661 14.4647C96.3661 14.4647 90.6913 14.122 87.5495 15.5987C85.5686 16.5297 83.0334 18.9177 83.0334 18.9177M109.948 98.7146C109.948 98.7146 107.949 93.6417 105.079 90.9536C100.623 86.7806 95.8348 85.2645 90.1136 83.1357C85.0764 81.2615 76.6829 80.1322 76.6829 80.1322M109.63 101.162C109.63 101.162 104.823 97.1286 101.661 94.6477C97.5482 91.4219 95.7023 88.7701 90.9184 86.6649C88.3557 85.5372 86.8177 85.0569 84.0587 84.5805C80.3804 83.9454 78.079 83.4676 74.5006 84.5298C70.801 85.628 66.3042 90.0497 66.3042 90.0497M80.5423 86.6021L74.1876 86.9363L66.9783 94.9045M107.749 105.689C107.749 105.689 102.254 102.119 98.3949 100.539C94.5754 98.9747 92.3502 97.751 88.2238 97.6674C85.0414 97.603 80.1982 99.09 80.1982 99.09M138.75 132.217C138.75 132.217 133.685 138.831 130.81 143.319C129.96 144.645 128.686 146.747 128.686 146.747M138.255 124.996C138.255 124.996 136.769 130.591 135.164 133.905C132.617 139.164 129.471 141.049 126.258 145.93C125.359 147.296 124.009 149.462 124.009 149.462M132.362 131.386C132.362 131.386 129.394 135.915 127.592 138.879C125.706 141.981 124.547 143.671 122.936 146.923C121.591 149.638 119.872 154.05 119.872 154.05M125.422 138.597C125.422 138.597 122.724 142.578 121.253 145.279C119.187 149.073 118.148 151.3 116.789 155.402C116.279 156.941 115.625 159.389 115.625 159.389M106.742 113.43C106.742 113.43 113.605 121.17 114.888 127.329C115.676 131.117 114.964 137.237 114.964 137.237M99.503 111.237C99.503 111.237 106.811 117.825 109.491 123.334C111.593 127.655 112.761 130.396 112.74 135.201C112.731 137.435 112.003 140.874 112.003 140.874M93.0112 110.393C93.0112 110.393 101.934 115.288 104.895 120.658C106.323 123.247 106.615 124.952 107.39 127.805C108.11 130.451 108.706 131.946 108.786 134.687C108.888 138.165 107.118 143.441 107.118 143.441M92.5222 114.154C92.5222 114.154 98.9871 119.422 101.654 123.907C103.234 126.565 104.266 128.127 104.802 131.172C105.493 135.091 106.116 137.606 105.602 141.553C105.327 143.671 102.783 146.702 102.783 146.702M102.457 171.74C102.457 171.74 96.9747 163.998 94.9598 158.356C92.785 152.266 93.4323 148.379 92.2901 142.014C91.0183 134.927 91.5389 130.55 88.7179 123.926C85.806 117.088 77.7071 108.403 77.7071 108.403M100.302 174.028C100.302 174.028 94.6886 165.915 92.168 160.167C87.8925 150.417 89.7643 143.623 86.3995 133.522C84.7722 128.637 83.8321 125.881 81.5842 121.249C79.7225 117.413 76.1938 111.754 76.1938 111.754M98.4681 174.465C98.4681 174.465 92.8659 167.608 90.3249 162.593C86.2917 154.632 84.4923 140.498 84.4923 140.498M94.9998 175.071C94.9998 175.071 89.9664 169.645 87.6731 165.553C84.5797 160.034 82.6626 150.147 82.6626 150.147L81.799 138.457M91.3999 173.546C91.3999 173.546 87.2127 168.731 85.1608 165.227C82.395 160.503 80.0133 152.189 80.0133 152.189M125.016 155.482C125.016 155.482 122.058 162.097 120.936 166.574C119.713 171.451 119.275 179.341 119.275 179.341M181.643 142.309L178.604 132.322L167.279 125.672M184.689 132.156C184.894 131.178 185.092 130.213 185.28 129.276C185.569 127.831 185.599 126.209 185.406 124.466M184.689 132.156C184.689 132.156 182.631 122.71 178.815 118.187C175.311 114.033 167.272 110.414 167.272 110.414M185.406 124.466C185.406 124.466 182.146 118.101 179.285 114.571C175.138 109.454 166.439 103.643 166.439 103.643M182.928 113.674C182.928 113.674 177.538 107.301 173.397 103.977C169.644 100.964 167.521 99.0298 163.019 97.328C159.519 96.0053 153.629 95.4262 153.629 95.4262M176.284 103.02C176.284 103.02 169.532 96.3192 164.176 93.6778C159.179 91.2139 155.957 90.5834 150.436 89.8366C146.138 89.2551 143.609 88.8121 139.332 89.5366C137.128 89.9099 133.812 91.0509 133.812 91.0509M127.46 92.023C127.46 92.023 123.66 93.2236 121.606 94.6627C119.111 96.4103 116.397 100.468 116.397 100.468M163.767 91.5703C163.767 91.5703 155.509 88.1444 149.914 87.2298C143.038 86.1057 132.074 87.4486 132.074 87.4486C132.074 87.4486 125.337 88.832 121.857 91.2943C117.688 94.2437 113.971 101.726 113.971 101.726M159.328 103.715C159.328 103.715 150.491 102.115 145.024 103.276C140.399 104.258 135.293 108.85 135.293 108.85M163.483 106.591C163.483 106.591 153.199 103.672 146.851 105.157C140.752 106.584 133.035 113.304 133.035 113.304M173.052 319.669C176.863 321.504 177.934 326.357 176.43 329.302C174.545 332.993 170.31 333.439 166.561 331.673C163.384 330.176 162.482 328.288 162.938 324.806C163.559 320.055 168.736 317.591 173.052 319.669Z" stroke="#D87F7F"/>
<path d="M186.211 318.219C186.211 318.219 188.601 314.993 189.972 309.286C190.821 305.757 189.942 288.021 191.741 283.978C194.472 277.841 200.549 280.437 200.549 280.437C200.549 280.437 199.734 285.957 203.099 284.788C203.547 284.633 203.96 284.472 204.34 284.294C206.004 283.517 207.023 282.437 207.436 280.233C208.813 272.886 199.488 265.763 191.605 263.814C182.43 261.544 172.383 275.255 172.383 275.255C172.383 275.255 171.512 272.75 170.195 272.389C164.126 270.725 158.106 277.856 154.642 284.927C150.501 293.378 157.439 308.113 157.439 308.113C157.439 308.113 152.786 299.629 144.461 294.684C141.044 292.655 134.018 278.919 136.617 274.685C138.215 272.082 142.368 276.571 143.555 274.125C144.51 272.16 144.899 270.63 142.926 268.94C137.889 264.624 125.418 273.053 123.579 276.231C119.353 283.53 120.308 286.481 121.61 291.794C122.731 296.365 127.64 299.61 127.64 299.61C127.64 299.61 119.069 298.275 117.034 302.002C114.669 306.331 120.702 311.855 123.744 312.706L131.532 314.886C131.532 314.886 129.314 315.419 127.475 316.536C127.475 316.536 118.307 316.635 112.467 316.112C96.0988 314.647 85.6217 313.578 71.8987 304.242C60.8768 296.742 46.5391 282.298 46.5391 282.298L49.6792 291.455C49.6792 291.455 71.2855 314.234 89.4225 320.839C95.8171 323.167 106.311 325.135 106.311 325.135L121.046 326.999C119.542 328.137 117.941 329.414 116.707 330.563C112.084 334.864 112.451 341.068 106.463 343.073C103.417 344.094 100.194 342.143 97.2587 341.412C95.4897 340.972 93.8253 340.974 92.367 342.336C89.2384 345.258 94.1634 354.142 94.1634 354.142C94.1634 354.142 98.3261 359.64 104.085 361.877C114.452 365.904 126.938 358.288 126.938 358.288C126.938 358.288 126.596 361.446 127.313 363.182C128.572 366.23 135.408 365.181 140.213 363.655C144.723 362.224 150.007 356.52 150.007 356.52C150.007 356.52 146.943 372.287 150.417 381.336C153.618 389.674 156.72 395.513 164.941 399.002C172.037 402.013 180.072 400.996 187.733 398.277C191.995 396.764 193.432 394.802 193.988 392.411C194.431 390.503 194.314 388.324 194.623 385.882C194.623 385.882 193.026 389.548 190.899 390.104C189.479 390.476 187.17 389.633 187.17 389.633C187.17 389.633 185.476 385.32 187.181 382.456C189.333 378.841 196.992 367.149 192.526 360.381C189.052 355.116 184.276 346.495 184.276 346.495C184.276 346.495 185.812 345.001 191.931 348.565C194.796 350.233 199.763 357.878 204.169 360.061C211.667 363.777 218.617 361.889 218.617 361.889C218.617 361.889 219.168 359.746 219.063 358.362C218.934 356.657 217.669 354.213 217.669 354.213C217.669 354.213 222.813 352.769 225.671 350.984C232.059 346.996 235.702 343.637 236.778 335.219C237.703 327.983 237.709 323.09 232.799 314.704C229.748 309.492 221.073 304.002 215.85 307.035C212.096 309.214 208.875 312.829 210.58 316.821C211.495 318.961 214.121 320.703 214.121 320.703C214.121 320.703 215.916 313.77 219.054 314.757C222.148 315.729 222.143 319.714 220.899 322.607C219.586 325.659 216.622 325.866 213.377 326.582C205.963 328.219 203.253 319.542 195.749 318.379C192.068 317.809 186.211 318.219 186.211 318.219Z" fill="#D87F7F"/>
<path d="M38.4406 264.438C38.4406 264.438 55.4252 262.132 66.0752 258.148C74.5206 254.989 79.8535 253.332 87.3472 248.234C97.5534 241.29 108.556 232.289 110.744 230.485C110.69 231.24 110.701 231.987 110.82 232.641C111.345 235.513 113.354 238.173 115.17 240.458C121.312 248.185 134.416 250.997 141.84 244.493C144.61 242.067 144 239.952 144 239.952C144 239.952 140.702 242.101 138.214 241.714C134.799 241.183 132.886 238.756 132.274 235.355C131.227 229.524 137.61 224.486 136.79 217.243C136.387 213.695 136.058 210.908 134.653 208.306C134.653 208.306 140.644 209.532 144.534 209.556C150.758 209.595 154.168 208.156 160.198 206.61C175.808 202.608 181.638 195.181 193.078 192.074C202.247 189.585 208.301 188.354 215.724 190.75C220.868 192.41 223.751 197.793 223.204 201.569C222.48 206.553 212.158 207.905 214.436 212.396C214.436 212.396 220.818 214.278 224.995 212.241C229.628 209.982 230.94 208.445 235.177 203.843C239.414 199.242 245.183 187.507 243.416 176.492C241.708 165.838 237.07 159.348 227.934 153.606C219.215 148.126 212.114 147.733 201.927 149.244C196.66 150.025 188.931 153.37 188.931 153.37C188.931 153.37 197.217 146.592 203.584 144.626C212.266 141.946 223.484 147.477 232.826 144.134C238.398 142.14 240.969 141.592 241.807 137.255C242.962 131.275 228.978 128.388 228.978 128.388C228.978 128.388 234.055 126.524 237.537 126.363C242.524 126.134 246.004 126.618 249.278 130.153C251.695 132.764 253.312 135.131 252.633 138.624C251.977 141.993 249.197 144.473 245.765 144.539C244.001 144.572 244.414 143.857 243.12 144.204C240.706 144.852 244.587 149.813 246.756 150.087C251.28 150.659 252.517 150.389 255.362 150.12C255.362 150.12 263.864 147.301 267.218 140.469C270.091 134.619 271.099 123.939 270.126 117.495C268.665 107.817 256.77 100.015 256.77 100.015C251.821 96.2596 244.584 96.4415 241.281 96.7659C240.184 96.8737 239.521 96.9972 239.521 96.9972C239.521 96.9972 242.369 90.8326 240.74 87.3586C238.939 83.5194 223.425 87.4472 223.425 87.4472C223.425 87.4472 223.578 86.1215 222.82 85.0919C220.502 81.9406 212.938 87.0791 212.938 87.0791L202.714 93.1771C202.714 93.1771 206.526 85.601 204.121 82.0544C203.027 80.4414 201.987 80.3394 200.344 80.102C198.27 79.8025 195.191 81.5971 195.191 81.5971C195.191 81.5971 197.145 71.4801 200.387 65.8933C202.577 62.1206 202.99 57.9068 207.277 57.1014C209.269 56.7271 210.685 56.7156 212.426 57.7527C214.228 58.8258 215.069 60.1086 215.49 62.1633C216.139 65.3352 210.647 66.6185 211.864 69.6187C212.39 70.9145 213.063 71.5202 214.204 72.3292C215.357 73.1473 217.171 73.3586 218.663 73.3706C220.077 73.3819 221.201 73.2142 221.201 73.2142C221.201 73.2142 224.012 71.7424 225.746 69.1009C228.344 65.1406 229.763 60.2139 229.424 55.9034C228.867 48.8059 221.22 40.195 221.22 40.195C216.545 34.8735 213.361 33.0298 206.539 31.1194C198.131 28.7646 192.527 29.6046 184.328 32.6079C180.127 34.1466 175.143 37.0682 172.197 39.5701C170.54 40.9783 169.484 41.9909 169.484 41.9909L163.416 48.601L162.756 48.5175C162.756 48.5175 163.602 44.3375 162.022 42.6567C160.314 40.8391 154.367 43.9095 154.367 43.9095C154.367 43.9095 148.754 47.9994 145.279 52.7454C142.573 56.4402 139.346 62.8604 139.346 62.8604C139.346 62.8604 142.686 49.5846 140.242 42.1228C138.861 37.9037 137.869 35.4781 134.471 33.3522C131.563 31.5333 128.899 31.6964 126.079 33.0121C123.381 34.2705 122.579 38.4724 122.579 38.4724C122.579 38.4724 115.474 27.8195 108.95 23.2007C103.571 19.3921 100.1 17.3139 93.61 16.1631C85.8901 14.7942 80.5432 14.9156 73.6999 18.7419C66.6981 22.6568 62.6077 30.0872 60.9685 37.9399C59.8326 43.3814 60.7532 46.3261 63.5324 49.6771C65.7356 52.3335 69.425 53.469 72.3341 52.8696C74.0352 52.5191 74.1396 51.6628 74.2474 50.4688C74.3376 49.4695 73.4406 48.7061 72.9907 47.6787C72.8135 47.2742 72.7057 46.8288 72.7546 46.3121C72.9794 43.9359 74.6109 43.8941 76.9213 43.2954C79.8306 42.5414 81.6823 43.3823 84.5563 44.2611C95.2299 47.5247 100.466 68.0038 100.466 68.0038C100.466 68.0038 96.7803 64.2664 92.376 61.5919C90.2611 60.3077 87.9806 59.2685 85.8631 59.0058C81.6542 58.4837 78.7489 58.0055 76.5074 61.2344C75.0304 63.3619 75.9764 65.4322 76.9104 66.5633C77.8443 67.6943 81.183 70.9301 81.183 70.9301C81.183 70.9301 79.5322 72.8993 79.1222 74.7866C78.2989 78.5768 81.324 80.9827 83.9119 83.2826C89.1379 87.9269 96.9928 95.4648 96.9928 95.4648C96.9928 95.4648 86.454 89.5982 79.0454 87.8292C70.5742 85.8064 65.1855 84.67 56.7635 86.8887C47.9868 89.2007 41.8787 93.4043 37.137 101.143C33.4865 107.101 33.6285 112.267 34.9467 118.459C36.2023 124.358 39.2924 126.828 44.0698 128.943C46.6591 130.089 47.9459 129.96 50.198 129.733L50.2616 129.726C52.542 129.496 53.4435 128.698 54.6477 127.082C55.766 125.582 56.3086 124.434 55.119 123.357C54.3486 122.659 50.648 124.478 50.648 124.478C50.648 124.478 49.8667 124.841 48.8423 124.804C47.3782 124.751 47.2383 123.611 47.3054 122.368C47.3297 121.917 47.3813 121.453 47.4069 121.022C47.5281 118.974 47.8236 117.541 49.3094 116.127C51.8043 113.752 54.8711 115.303 58.1232 116.437C63.0261 118.146 64.8621 121.465 67.3523 125.967L67.4843 126.205C71.6696 133.767 68.7145 139.643 69.1191 148.277C69.4758 155.888 68.0391 160.638 70.5396 167.836C73.1072 175.226 75.8989 178.871 81.7615 183.678C85.148 186.455 87.2688 187.979 91.4178 189.381C93.5554 190.103 97.0568 190.639 97.0568 190.639C96.5337 190.761 95.9133 190.93 95.1033 191.152C87.5281 193.227 85.2963 202.699 77.6037 204.286C72.7994 205.276 65.0978 203.112 65.0978 203.112C65.0978 203.112 65.8755 208.204 67.6282 210.861C70.1825 214.735 73.036 216.175 77.4838 217.496C82.5093 218.989 85.9443 218.49 90.8867 216.742C94.655 215.409 99.5849 211.348 99.5849 211.348C99.9129 214.037 99.9434 216.758 98.3885 219.42C95.6617 224.088 87.6292 230.139 86.3574 231.08C86.4632 230.898 86.1869 231.205 86.1869 231.205C86.1869 231.205 86.2464 231.162 86.3574 231.08C86.328 231.131 86.2693 231.219 86.1671 231.362L89.2704 233.029C89.2704 233.029 79.7335 240.458 72.9053 244.008C64.0834 248.595 58.6537 250.655 48.8622 252.384C40.2664 253.902 26.5238 253.145 26.5238 253.145L38.4406 264.438Z" fill="#D87F7F"/>
<path d="M179.322 329.293C183.741 330.172 186.886 335.048 185.195 339.226C183.891 342.448 180.973 343.84 177.5 343.698C174.507 343.575 170.854 339.871 170.854 339.871C170.854 339.871 177.038 344.63 176.115 348.451C175.418 351.331 173.563 353.105 170.667 353.735C167.84 354.349 165.67 353.426 163.652 351.353C161.019 348.648 162.324 341.778 162.324 341.778C162.324 341.778 159.301 346.777 156.069 347.556C152.638 348.384 149.342 347.807 147.454 344.825C145.806 342.223 146.001 339.509 147.705 336.943C149.32 334.51 154.398 333.608 154.398 333.608C154.398 333.608 148.169 333.028 146.171 330.177C145.844 329.71 145.555 329.221 145.31 328.719M179.322 329.293C176.289 328.69 171.858 331.934 171.858 331.934C171.858 331.934 177.415 327.91 177.235 324.252C177.097 321.472 175.887 319.713 173.605 318.118C171.874 316.909 169.943 316.367 168.062 316.491M179.322 329.293C179.322 329.293 185.758 330.057 189.406 331.844C195.445 334.803 201.355 344.245 201.355 344.245C201.355 344.245 204.894 347.03 207.368 345.683C210.115 344.187 208.814 341.676 209.206 338.573M127.64 299.61C127.64 299.61 122.731 296.365 121.61 291.794C120.308 286.481 119.353 283.53 123.579 276.231C125.418 273.053 137.889 264.624 142.926 268.94C144.899 270.63 144.51 272.16 143.555 274.125C142.368 276.571 138.215 272.082 136.617 274.685C134.018 278.919 141.044 292.655 144.461 294.684C152.786 299.629 157.439 308.113 157.439 308.113C157.439 308.113 150.501 293.378 154.642 284.927C158.106 277.856 164.126 270.725 170.195 272.389C171.512 272.75 172.383 275.255 172.383 275.255C172.383 275.255 182.43 261.544 191.605 263.814C199.488 265.763 208.813 272.886 207.436 280.233C207.023 282.437 206.004 283.517 204.34 284.294M127.64 299.61C127.64 299.61 119.069 298.275 117.034 302.002C114.669 306.331 120.702 311.855 123.744 312.706C126.785 313.557 128.49 314.035 131.532 314.886M127.64 299.61L136.474 304.461C136.474 304.461 142.033 308.101 144.891 311.189C146.864 313.322 149.355 317.14 149.355 317.14M131.532 314.886C131.532 314.886 136.91 314.455 139.817 315.934C142.559 317.329 145.332 321.559 145.332 321.559M131.532 314.886C131.532 314.886 129.314 315.419 127.475 316.536M125.639 323.697C125.639 323.697 124.628 320.763 125.186 319.011C125.511 317.991 126.432 317.17 127.475 316.536M125.639 323.697C125.639 323.697 131.366 327.102 135.446 328.078C136.838 328.412 138.554 328.586 140.162 328.673M125.639 323.697C125.639 323.697 123.467 325.168 121.046 326.999M127.313 363.182C126.596 361.446 126.938 358.288 126.938 358.288C126.938 358.288 114.452 365.904 104.085 361.877C98.3261 359.64 94.1634 354.142 94.1634 354.142C94.1634 354.142 89.2384 345.258 92.367 342.336C93.8253 340.974 95.4897 340.972 97.2587 341.412M127.313 363.182C128.572 366.23 135.408 365.181 140.213 363.655C144.723 362.224 150.007 356.52 150.007 356.52C150.007 356.52 146.943 372.287 150.417 381.336C153.618 389.674 156.72 395.513 164.941 399.002C172.037 402.013 180.072 400.996 187.733 398.277C191.995 396.764 193.432 394.802 193.988 392.411M127.313 363.182C127.313 363.182 131.473 362.595 134.019 361.769C140.745 359.588 148.997 351.595 148.997 351.595M232.799 314.704C237.709 323.09 237.703 327.983 236.778 335.219C235.702 343.637 232.059 346.996 225.671 350.984C222.813 352.769 217.669 354.213 217.669 354.213C217.669 354.213 218.934 356.657 219.063 358.362C219.168 359.746 218.617 361.889 218.617 361.889C218.617 361.889 211.667 363.777 204.169 360.061C199.763 357.878 194.796 350.233 191.931 348.565C185.812 345.001 184.276 346.495 184.276 346.495C184.276 346.495 189.052 355.116 192.526 360.381C196.992 367.149 189.333 378.841 187.181 382.456C185.476 385.32 187.17 389.633 187.17 389.633C187.17 389.633 189.479 390.476 190.899 390.104C193.026 389.548 194.623 385.882 194.623 385.882C194.314 388.324 194.431 390.503 193.988 392.411M232.799 314.704C229.748 309.492 221.073 304.002 215.85 307.035C212.096 309.214 208.875 312.829 210.58 316.821C211.495 318.961 214.121 320.703 214.121 320.703C214.121 320.703 215.916 313.77 219.054 314.757C222.148 315.729 222.143 319.714 220.899 322.607C219.586 325.659 216.622 325.866 213.377 326.582C205.963 328.219 203.253 319.542 195.749 318.379C192.068 317.809 186.211 318.219 186.211 318.219C186.211 318.219 188.601 314.993 189.972 309.286C190.821 305.757 189.942 288.021 191.741 283.978C194.472 277.841 200.549 280.437 200.549 280.437C200.549 280.437 199.734 285.957 203.099 284.788C203.547 284.633 203.96 284.472 204.34 284.294M232.799 314.704C232.799 314.704 235.077 321.501 234.257 325.79C233.317 330.703 232.403 334.454 228.692 337.808C225.701 340.511 222.5 341.389 218.482 341.714C214.67 342.023 209.206 338.573 209.206 338.573M193.988 392.411C193.988 392.411 187.761 396.576 183.814 395.344C179.145 393.886 177.268 389.611 177.179 384.721C177.096 380.149 184.521 370.464 184.521 370.464M184.521 370.464L185.902 359.543M184.521 370.464C184.521 370.464 178.817 378.785 176.078 377.844C173.197 376.855 173.319 370.549 173.319 370.549L178.254 350.991M219.113 314.294C219.113 314.294 221.346 314.57 222.603 315.206C223.745 315.783 224.528 316.411 225.186 317.212M226.561 319.366C227.32 320.788 227.673 322.135 227.728 323.47M226.561 319.366C226.561 319.366 224.573 324.046 222.409 326.381C220.765 328.155 217.526 330.188 217.526 330.188M226.561 319.366C226.107 318.516 225.682 317.815 225.186 317.212M209.206 338.573C211.642 339.613 213.316 339.825 215.934 339.424C221.149 338.626 223.932 335.272 226.007 330.422C227.074 327.93 227.821 325.715 227.728 323.47M209.206 338.573C206.183 335.519 201.465 330.752 201.465 330.752M204.34 284.294C204.34 284.294 205.07 280.839 204.516 278.741C203.56 275.122 201.335 273.164 197.817 271.886C193.223 270.217 189.532 271.99 185.7 275.026C183.286 276.939 182.145 278.49 180.971 281.338C178.643 286.985 182.939 296.855 182.939 296.855C182.939 296.855 179.578 286.3 174.683 285.645C170.696 285.111 170.467 297.471 170.467 297.471C170.467 297.471 172.619 302.708 171.98 307.011C171.392 310.974 168.062 316.491 168.062 316.491M168.062 316.491C166.188 316.616 164.364 317.401 162.836 318.846C160.796 320.774 160.198 325.532 160.198 325.532C160.198 325.532 157.566 320.901 154.658 319.752C151.639 318.56 148.777 318.172 146.369 320.348C145.955 320.722 145.611 321.128 145.332 321.559M145.332 321.559C143.974 323.654 144.147 326.335 145.31 328.719M145.31 328.719C145.31 328.719 142.891 328.821 140.162 328.673M140.162 328.673C140.162 328.673 136.362 331.491 134.703 333.948C132.651 336.989 134.117 340.133 131.622 342.823C129.566 345.04 127.72 347.116 124.774 346.435C120.29 345.399 126.252 334.745 126.252 334.745C126.252 334.745 121.052 343.579 115.676 346.779C110.892 349.626 107.069 352.498 101.898 350.435C98.6408 349.135 94.5523 347.615 95.4189 344.216C95.7425 342.947 97.2587 341.412 97.2587 341.412M97.2587 341.412C100.194 342.143 103.417 344.094 106.463 343.073C112.451 341.068 112.084 334.864 116.707 330.563C117.941 329.414 119.542 328.137 121.046 326.999M167.337 275.161C167.337 275.161 163.593 282.516 162.275 287.588C160.324 295.101 161.144 307.432 161.144 307.432M160.508 283.852C160.508 283.852 159.013 292.249 158.758 297.69C158.563 301.828 158.896 308.297 158.896 308.297M166.148 284.565C166.148 284.565 164.894 292.254 164.546 297.225C164.27 301.174 164.289 307.359 164.289 307.359M168.179 288.335C168.179 288.335 166.906 295.906 166.601 300.805C166.396 304.098 166.438 309.251 166.438 309.251M130.711 283.595C130.711 283.595 133.422 289.613 135.79 293.085C138.251 296.692 140.153 298.322 143.079 301.563C146.248 305.073 151.428 310.333 151.428 310.333M127.897 287.995C127.897 287.995 129.636 291.973 131.248 294.21C133.462 297.285 135.465 298.357 138.228 300.949C142.493 304.951 149.372 310.953 149.372 310.953M134.779 285.082C137.121 288.869 138.724 292.691 142.231 296.849C145.223 300.397 150.893 304.985 150.893 304.985C153.639 307.562 152.646 308.023 152.646 308.023M123.814 306.841C123.814 306.841 130.879 307.423 134.995 309.135C139.044 310.819 144.369 315.315 144.369 315.315M126.376 309.604C130.637 311.135 133.026 311.994 137.287 313.524M129.12 303.53C129.12 303.53 133.832 305.794 136.721 307.478C139.381 309.029 143.346 311.751 143.346 311.751M186.608 271.687C186.608 271.687 182.704 274.516 180.744 276.857C178.937 279.017 176.93 282.979 176.93 282.979M186.972 268.816C186.972 268.816 181.651 272.433 178.995 275.513C176.818 278.036 174.316 282.648 174.316 282.648M182.413 269.937C182.413 269.937 178.07 273.456 175.872 276.241C173.679 279.021 171.27 284.055 171.27 284.055M176.481 295.389C176.481 295.389 178.487 302.172 177.791 306.475C177.056 311.02 172.618 317.068 172.618 317.068M174.471 302.415C174.471 302.415 175.474 307.338 174.597 310.283C173.806 312.935 170.809 316.271 170.809 316.271M179.04 325.32C179.04 325.32 186.04 324.497 190.159 325.887C196.894 328.159 203.041 338.743 203.041 338.743M181.772 323.182C181.772 323.182 182.237 323.103 183.015 322.998M206.079 330.075C206.079 330.075 201.131 324.293 195.173 322.936C191.278 322.049 185.523 322.659 183.015 322.998M178.874 326.634C178.874 326.634 183.054 326.896 185.656 327.492C188.131 328.058 191.829 329.533 191.829 329.533M183.015 322.998C183.015 322.998 187.592 323.196 190.407 323.933C192.63 324.515 195.917 325.999 195.917 325.999M227.728 323.47C227.728 323.47 224.927 329.214 221.761 331.505C219.951 332.815 216.619 334.011 216.619 334.011M225.186 317.212C225.186 317.212 223.754 321.783 221.873 324.224C220.143 326.47 216.216 329.183 216.216 329.183M213.731 360.19C213.398 360.148 208.133 357.813 205.542 356.652C202.951 355.49 201.211 352.37 201.211 352.37M214.043 357.727C214.043 357.727 209.647 356.869 207.034 355.748C204.618 354.711 201.211 352.37 201.211 352.37M201.211 352.37L196.88 348.089L193.507 345.05C193.507 345.05 198.13 349.971 201.951 351.719C205.662 353.416 212.2 353.76 212.2 353.76M180.722 349.033C180.722 349.033 183.274 356.917 182.329 361.886C181.706 365.161 179.07 369.774 179.07 369.774M165.252 355.139C165.252 355.139 161.392 366.759 162.858 374.062C163.685 378.179 164.443 380.6 166.832 384.053C169.127 387.371 174.404 391.079 174.404 391.079M167.762 355.456C167.762 355.456 165.784 366.383 166.622 373.325C166.973 376.233 166.856 378.024 168.089 380.682C169.194 383.065 172.143 386.049 172.143 386.049M177.979 396.276C177.979 396.276 172.559 395.366 169.66 393.554C165.894 391.199 162.381 384.814 162.381 384.814M166.966 396.538C166.966 396.538 161.01 392.61 158.315 389.044C155.208 384.933 154.309 381.928 153.12 376.913C151.435 369.809 153.341 358.22 153.341 358.22L154.95 351.107M157.038 350.516C157.038 350.516 155.213 359.628 155.137 365.543C155.068 370.897 154.603 374.141 156.361 379.198C157.234 381.71 159.356 385.314 159.356 385.314M159.155 347.947C159.155 347.947 157 357.527 157.157 363.743C157.254 367.574 158.313 373.488 158.313 373.488M161.428 348.863C161.428 348.863 160.414 355.067 160.136 359.079C159.872 362.891 159.986 368.862 159.986 368.862M146.216 348.713C146.216 348.713 140.408 354.587 136.01 357.446C133.171 359.292 128.366 361.541 128.366 361.541M144.002 347.325C144.002 347.325 138.921 353.248 134.765 355.87C132.214 357.479 127.813 359.232 127.813 359.232M142.737 343.699C142.737 343.699 138.296 349.448 134.696 352.317C131.952 354.504 127.088 357.097 127.088 357.097M135.182 330.159C135.182 330.159 130.718 331.859 129.088 334.205C127.889 335.931 127.331 339.292 127.331 339.292M130.74 328.225C127.372 330.366 125.484 331.566 122.116 333.706M127.097 327.022C127.097 327.022 120.665 332.218 117.033 336.05C114.38 338.849 110.675 343.606 110.675 343.606M127.475 316.536C127.475 316.536 118.307 316.635 112.467 316.112C96.0988 314.647 85.6217 313.578 71.8987 304.242C60.8768 296.742 46.5391 282.298 46.5391 282.298L49.6792 291.455C49.6792 291.455 71.2855 314.234 89.4225 320.839C95.8171 323.167 106.311 325.135 106.311 325.135L121.046 326.999M111.134 230.162C111.134 230.162 98.7439 240.48 87.3472 248.234C79.8535 253.332 74.5206 254.989 66.0752 258.148C55.4252 262.132 38.4406 264.438 38.4406 264.438L26.5238 253.145C26.5238 253.145 40.2664 253.902 48.8622 252.384C58.6537 250.655 64.0834 248.595 72.9053 244.008C79.7335 240.458 89.2704 233.029 89.2704 233.029M89.2704 233.029C89.2704 233.029 93.8415 233.177 96.7093 232.696C103.093 231.623 111.706 225.636 111.706 225.636M89.2704 233.029L86.1671 231.362C86.6377 230.703 86.1869 231.205 86.1869 231.205C86.1869 231.205 95.4238 224.495 98.3885 219.42C99.9434 216.758 99.9129 214.037 99.5849 211.348M111.706 225.636C111.706 225.636 110.325 229.929 110.82 232.641C111.345 235.513 113.354 238.173 115.17 240.458C121.312 248.185 134.416 250.997 141.84 244.493C144.61 242.067 144 239.952 144 239.952C144 239.952 140.702 242.101 138.214 241.714C134.799 241.183 132.886 238.756 132.274 235.355C131.227 229.524 137.61 224.486 136.79 217.243C136.387 213.695 136.058 210.908 134.653 208.306M111.706 225.636C111.706 225.636 118.639 217.961 121.147 211.985C122.915 207.773 124.059 200.656 124.059 200.656M124.059 200.656C124.059 200.656 120.208 193.82 115.901 192.478C113.199 191.636 110.767 191.887 108.538 192.851M124.059 200.656C124.059 200.656 124.323 200.743 124.763 200.905C126.354 201.492 130.247 203.069 132.246 205.102C133.292 206.165 134.066 207.22 134.653 208.306M108.538 192.851C105.736 194.063 103.254 196.402 100.957 199.117C97.7857 202.865 99.0626 207.065 99.5849 211.348M108.538 192.851C108.538 192.851 104.67 191.103 102.019 190.722C99.3918 190.344 98.7097 190.256 97.0568 190.639M99.5849 211.348C99.5849 211.348 94.655 215.409 90.8867 216.742C85.9443 218.49 82.5093 218.989 77.4838 217.496C73.036 216.175 70.1825 214.735 67.6282 210.861C65.8755 208.204 65.0978 203.112 65.0978 203.112C65.0978 203.112 72.7994 205.276 77.6037 204.286C85.2963 202.699 87.5281 193.227 95.1033 191.152C95.9133 190.93 96.5337 190.761 97.0568 190.639M134.653 208.306C134.653 208.306 140.644 209.532 144.534 209.556C150.758 209.595 154.168 208.156 160.198 206.61C175.808 202.608 181.638 195.181 193.078 192.074C202.247 189.585 208.301 188.354 215.724 190.75C220.868 192.41 223.751 197.793 223.204 201.569C222.48 206.553 212.158 207.905 214.436 212.396C214.436 212.396 220.818 214.278 224.995 212.241C229.628 209.982 230.94 208.445 235.177 203.843C239.414 199.242 245.183 187.507 243.416 176.492C241.708 165.838 237.07 159.348 227.934 153.606C219.215 148.126 212.114 147.733 201.927 149.244C196.66 150.025 188.931 153.37 188.931 153.37M188.931 153.37C188.931 153.37 197.217 146.592 203.584 144.626C212.266 141.946 223.484 147.477 232.826 144.134C238.398 142.14 240.969 141.592 241.807 137.255C242.962 131.275 228.978 128.388 228.978 128.388C228.978 128.388 234.055 126.524 237.537 126.363C242.524 126.134 246.004 126.618 249.278 130.153C251.695 132.764 253.312 135.131 252.633 138.624M188.931 153.37C188.931 153.37 185.072 156.01 181.51 158.791M252.633 138.624C251.977 141.993 249.197 144.473 245.765 144.539C244.001 144.572 244.414 143.857 243.12 144.204C240.706 144.852 244.587 149.813 246.756 150.087C251.28 150.659 252.517 150.389 255.362 150.12C255.362 150.12 263.864 147.301 267.218 140.469C270.091 134.619 271.099 123.939 270.126 117.495C268.665 107.817 256.77 100.015 256.77 100.015C251.821 96.2596 244.584 96.4415 241.281 96.7659M252.633 138.624C252.633 138.624 254.987 134.335 256.963 131.928C258.778 129.716 260.839 129.309 262.174 126.778C263.732 123.823 263.349 121.631 263.247 118.292C263.153 115.164 261.841 110.404 261.841 110.404C261.841 110.404 263.551 124.055 257.168 125.067C249.956 126.21 259.744 113.17 255.071 107.558C252.597 104.586 251.576 103.039 248.052 101.447M222.82 85.0919C223.578 86.1215 223.425 87.4472 223.425 87.4472C223.425 87.4472 238.939 83.5194 240.74 87.3586C242.369 90.8326 239.521 96.9972 239.521 96.9972C239.521 96.9972 240.184 96.8737 241.281 96.7659M222.82 85.0919C220.502 81.9406 212.938 87.0791 212.938 87.0791L202.714 93.1771C202.714 93.1771 206.526 85.601 204.121 82.0544C203.027 80.4414 201.987 80.3394 200.344 80.102C198.27 79.8025 195.191 81.5971 195.191 81.5971C195.191 81.5971 197.145 71.4801 200.387 65.8933C202.577 62.1206 202.99 57.9068 207.277 57.1014C209.269 56.7271 210.685 56.7156 212.426 57.7527C214.228 58.8258 215.069 60.1086 215.49 62.1633M222.82 85.0919C223.246 88.8642 219.279 90.6124 217.009 94.1497C217.009 94.1497 220.236 91.3324 223.106 89.9682C228.93 87.1997 238.877 84.0035 239.68 90.4617C240.124 94.03 235.81 96.5278 235.81 96.5278L221.172 105.26L234.213 101.147L248.052 101.447M215.49 62.1633C216.139 65.3352 210.647 66.6185 211.864 69.6187C212.39 70.9145 213.063 71.5202 214.204 72.3292M215.49 62.1633C215.49 62.1633 218.251 58.3114 218.134 55.5223C217.995 52.1784 216.828 50.3576 214.769 47.7191C212.026 44.2038 209.555 41.8915 205.372 40.3463C202.991 39.4665 198.923 39.5305 198.923 39.5305C198.923 39.5305 210.762 45.4248 206.829 48.3162C203.368 50.8603 199.126 43.9459 193.379 42.2494C190.219 41.3165 187.56 41.7346 183.946 41.8928C177.611 42.17 168.905 46.5641 168.905 46.5641L169.71 44.8551M214.204 72.3292L218.277 68.1562C218.277 68.1562 221.966 62.9016 222.363 59.0096C222.768 55.0414 221.767 52.6734 220.1 49.0496C218.317 45.1723 213.455 40.3735 213.455 40.3735M214.204 72.3292C215.357 73.1473 217.171 73.3586 218.663 73.3706M139.346 62.8604C139.346 62.8604 142.686 49.5846 140.242 42.1228C138.861 37.9037 137.869 35.4781 134.471 33.3522C131.563 31.5333 128.899 31.6964 126.079 33.0121C123.381 34.2705 122.579 38.4724 122.579 38.4724C122.579 38.4724 115.474 27.8195 108.95 23.2007C103.571 19.3921 100.1 17.3139 93.61 16.1631C85.8901 14.7942 80.5432 14.9156 73.6999 18.7419C66.6981 22.6568 62.6077 30.0872 60.9685 37.9399C59.8326 43.3814 60.7532 46.3261 63.5324 49.6771C65.7356 52.3335 69.425 53.469 72.3341 52.8696C74.0352 52.5191 74.1396 51.6628 74.2474 50.4688C74.3376 49.4695 73.4406 48.7061 72.9907 47.6787M139.346 62.8604C139.346 62.8604 142.573 56.4402 145.279 52.7454C148.754 47.9994 154.367 43.9095 154.367 43.9095C154.367 43.9095 160.314 40.8391 162.022 42.6567C163.602 44.3375 162.756 48.5175 162.756 48.5175L163.416 48.601L169.484 41.9909C169.484 41.9909 170.54 40.9783 172.197 39.5701M139.346 62.8604C139.346 62.8604 136.313 69.7708 135.062 74.4196C133.199 81.3385 132.759 92.6223 132.759 92.6223M81.183 70.9301C81.183 70.9301 77.8443 67.6943 76.9104 66.5633C75.9764 65.4322 75.0304 63.3619 76.5074 61.2344C78.7489 58.0055 81.6542 58.4837 85.8631 59.0058C87.9807 59.2685 90.2611 60.3077 92.376 61.5919M81.183 70.9301L90.9099 78.8673M81.183 70.9301C81.183 70.9301 79.5322 72.8993 79.1222 74.7866C78.2988 78.5768 81.324 80.9827 83.9119 83.2826C89.1379 87.9269 96.9928 95.4648 96.9928 95.4648C96.9928 95.4648 86.454 89.5982 79.0454 87.8292C70.5742 85.8064 65.1855 84.67 56.7635 86.8887C47.9868 89.2007 41.8787 93.4043 37.137 101.143C33.4865 107.101 33.6285 112.267 34.9467 118.459C36.2023 124.358 39.2924 126.828 44.0698 128.943C46.6834 130.1 47.9699 129.957 50.2616 129.726C52.542 129.496 53.4435 128.698 54.6477 127.082C55.766 125.582 56.3086 124.434 55.119 123.357C54.3487 122.659 50.648 124.478 50.648 124.478C50.648 124.478 49.8667 124.841 48.8423 124.804C47.3782 124.751 47.2382 123.611 47.3054 122.368M97.0568 190.639C97.0568 190.639 93.5554 190.103 91.4178 189.381C87.2688 187.979 85.148 186.455 81.7615 183.678C75.8989 178.871 73.1072 175.226 70.5396 167.836C68.0391 160.638 69.4758 155.888 69.1191 148.277C68.7145 139.643 71.6696 133.767 67.4843 126.205C64.9257 121.582 63.1123 118.176 58.1232 116.437C54.8711 115.303 51.8042 113.752 49.3094 116.127C47.8236 117.541 47.5281 118.974 47.4069 121.022C47.3814 121.453 47.3297 121.917 47.3054 122.368M126.068 200.006C126.068 200.006 137.01 203.237 143.813 201.617C150.553 200.012 161.713 194.636 156.335 190.267C152.158 186.874 148.106 192.751 143.103 194.295C136.301 196.393 126.068 200.006 126.068 200.006ZM126.068 200.006C126.068 200.006 134.579 200.35 139.885 199.333C144.071 198.531 150.311 196.104 150.311 196.104M223.776 191.768C218.506 190.455 228.165 177.696 225.78 170.638C223.062 162.593 209.873 160.531 209.873 160.531C209.873 160.531 222.105 165.855 220.202 173.555C217.608 184.051 204.681 171.027 195.234 167.551C186.969 164.509 169.165 171.129 169.165 171.129C169.165 171.129 171.217 168.692 173.701 166.024M223.776 191.768C226.21 192.375 228.621 170.997 228.621 170.997M223.776 191.768C223.776 191.768 222.95 194.297 223.254 195.891C224.006 199.834 229.518 194.704 229.73 187.911C229.942 181.117 230.061 177.308 230.273 170.514M241.281 96.7659L239.287 98.8464C239.287 98.8464 244.798 99.9774 248.052 101.447M172.197 39.5701C175.143 37.0682 180.127 34.1466 184.328 32.6079C192.527 29.6046 198.131 28.7646 206.539 31.1194C213.361 33.0298 216.545 34.8735 221.22 40.195C221.22 40.195 228.867 48.8059 229.424 55.9034C229.763 60.2139 228.344 65.1406 225.746 69.1009C224.012 71.7424 221.201 73.2142 221.201 73.2142C221.201 73.2142 220.077 73.3819 218.663 73.3706M172.197 39.5701L170.954 42.2126M198.597 124.323C198.597 124.323 197.336 133.157 199.311 135.317C202.171 138.442 206.633 139.15 210.073 136.678C213.448 134.254 215.113 130.102 211.805 127.586C209.445 125.792 204.779 126.698 204.779 126.698C204.779 126.698 213.027 125.568 217.831 123.871C222.613 122.181 224.959 115.479 221.944 111.4C219.06 107.496 213.788 109.725 209.256 111.462C204.993 113.096 202.43 118.143 202.43 118.143C202.43 118.143 208.606 111.132 206.197 107.957C205.158 106.588 203.786 106.32 202.267 106.55M198.597 124.323C198.597 124.323 191.926 124.072 190.967 120.473C189.932 116.591 191.56 112.094 194.692 109.62M198.597 124.323C198.597 124.323 186.929 132.572 183.805 136.701C180.589 140.954 181.657 144.896 181.657 144.896C181.657 144.896 185.192 137.889 188.239 134.611C191.285 131.333 198.597 124.323 198.597 124.323ZM198.597 124.323C198.597 124.323 201.665 121.833 203.89 120.663C206.393 119.346 210.697 118.193 210.697 118.193M167.4 85.6723L163.069 100.448L160.803 99.6141L167.4 85.6723ZM167.4 85.6723C167.4 85.6723 168.129 91.6794 169.758 92.9939C174.161 96.5459 181.551 95.8807 184.08 90.8201C185.797 87.3833 186.058 83.1752 182.851 81.0595C180.073 79.2266 174.406 82.2052 174.406 82.2052C174.406 82.2052 180.775 77.504 181.954 73.0106C183.239 68.1131 183.716 62.5909 179.178 60.3458C174.226 57.8961 169.53 62.8543 167.191 67.8595C165.871 70.6847 166.189 75.7818 166.189 75.7818C166.189 75.7818 164.53 69.3557 161.185 68.468C156.655 67.2657 153.45 74.2701 153.201 78.9508C152.9 84.5914 158.535 87.8763 163.661 87.1148C165.209 86.8847 167.4 85.6723 167.4 85.6723ZM167.4 85.6723C167.4 85.6723 169.667 83.3489 170.797 81.1765C171.926 79.0041 173.186 74.5466 173.186 74.5466M123.208 93.4154L119.987 78.0384M123.208 93.4154L121.619 93.2144L119.987 78.0384M123.208 93.4154C112.887 94.9262 107.492 102.174 104.546 109.541C102.347 115.04 102.101 116.056 104.918 117.741C108.43 119.84 109.641 112.221 113.425 110.664C117.403 109.028 117.906 111.049 122.146 110.323C128.411 109.25 131.293 103.491 138.414 104.089C143.354 104.504 151.126 108.755 151.126 108.755C151.126 108.755 133.65 106.391 127.149 113.367C123.221 117.582 117.278 125.09 122.651 127.17C125.989 128.462 127.476 124.968 130.351 124.322M123.208 93.4154C126.29 92.9643 129.507 92.6713 132.759 92.6223M119.987 78.0384C119.987 78.0384 124.05 78.6707 126.405 76.6502C129.403 74.0782 131.402 70.3337 129.004 66.3129C127.464 63.7295 124.663 60.0034 122.633 62.2234C121.063 63.9413 122.849 68.1794 122.849 68.1794C122.849 68.1794 119.938 61.78 116.249 59.9389C113.339 58.4864 111.091 58.3048 108.65 60.4547C106.497 62.3512 107.453 64.8394 107.805 67.1337C108.3 70.3627 112.868 72.2072 112.868 72.2072C112.868 72.2072 107.349 70.605 105.777 72.9522C104.01 75.592 107.811 78.8153 110.54 80.3955C113.736 82.2455 119.987 78.0384 119.987 78.0384ZM119.987 78.0384C119.987 78.0384 119.169 74.4051 118.094 72.2733C117.019 70.1416 114.481 67.121 114.481 67.121M178.156 161.567C177.461 162.192 176.724 162.903 175.983 163.647M178.156 161.567C178.156 161.567 187.985 157.843 194.537 156.419C199.658 155.305 202.584 154.261 207.819 154.501C213.96 154.782 222.997 158.673 222.997 158.673M178.156 161.567C179.133 160.69 180.304 159.732 181.51 158.791M130.351 124.322C133.663 123.576 135.395 124.521 138.456 123.053C141.835 121.434 141.587 118.053 144.793 116.516C148.222 114.872 154.508 115.861 154.508 115.861C154.508 115.861 138.826 120.336 141.487 125.73C142.671 128.132 144.733 128.298 147.224 128.728C151.572 129.479 153.312 125.585 157.533 125.466C162.543 125.325 163.161 127.158 167.891 129.07C172.622 130.982 172.634 138.385 172.634 138.385C172.634 138.385 165.72 127.785 159.407 129.373C156.361 130.139 154.104 130.199 153.128 132.821C151.919 136.068 158.039 140.209 158.039 140.209C158.039 140.209 165.981 141.658 169.308 145.118C173.306 149.275 173.479 159.286 173.479 159.286C173.588 158.421 175.854 148.761 177.626 140.137M130.351 124.322C130.351 124.322 130.108 131.62 127.4 134.99C120.59 143.467 116.712 143.989 112.303 151.548C108.597 157.902 105.829 169.236 105.829 169.236M105.829 169.236C105.617 172.249 104.995 175.412 105.665 178.362C106.725 183.023 109.816 188.424 109.816 188.424C109.816 188.424 108.961 188.073 107.754 187.51M105.829 169.236C106.008 166.685 105.893 164.241 104.447 162.126C102.927 159.902 102.39 159.15 99.746 158.633C97.1914 158.133 96.301 158.105 94.4401 159.925C91.5097 162.791 94.4309 174.043 94.4309 174.043C94.4309 174.043 96.6421 180.095 101.676 184.028C102.29 184.508 103.017 184.985 103.78 185.438M132.759 92.6223C143.096 92.4665 153.779 94.7757 161.542 102.308C169.759 110.282 177.248 123.103 178.316 132.445M112.486 142.442C112.486 142.442 109.147 129.672 104.244 123.075C100.703 118.312 98.9031 114.375 93.2431 112.589C87.8387 110.884 82.0424 114.976 76.4377 114.138C72.1328 113.495 70.5934 114.291 68.418 110.521M68.418 110.521C67.467 108.872 68.4106 112.424 68.418 110.521ZM68.418 110.521C68.4471 103.019 77.3431 102.657 87.2637 102.009M87.2637 102.009L98.2614 109.713M87.2637 102.009C87.2637 102.009 76.9061 95.8429 70.0954 97.2594C63.1028 98.7138 59.7414 112.825 54.3898 108.095C52.0438 106.022 51.9971 105.351 53.4288 102.494C55.9985 97.3669 61.5107 89.6555 61.5107 89.6555C61.5107 89.6555 54.9289 93.6005 52.9099 97.6634C51.3598 100.783 52.3821 104.823 51.0046 107.71C49.2135 111.464 44.1028 111.276 43.6472 115.41M43.6472 115.41C43.3921 117.725 43.7688 113.085 43.6472 115.41ZM43.6472 115.41C43.5734 116.82 43.2189 117.144 42.775 116.79M45.1707 97.8501C45.1707 97.8501 40.5467 105.122 40.5665 109.601C40.5792 112.495 41.865 116.065 42.775 116.79M42.775 116.79C42.775 116.79 43.234 119.517 44.1186 120.606C45.0032 121.695 47.3054 122.368 47.3054 122.368M125.858 62.3478C125.858 62.3478 126.593 50.8448 124.169 44.9754C122.19 40.1824 120.477 37.4004 116.381 34.2201C110.624 29.7503 105.432 27.8884 98.3241 29.5015C93.7533 30.5388 88.9977 34.2247 88.9977 34.2247C88.9977 34.2247 80.9808 37.0907 81.0446 33.8786C81.0714 32.5318 81.3733 31.2807 81.3733 31.2807M82.9737 26.8384C82.2394 27.9678 81.3733 31.2807 81.3733 31.2807M82.9737 26.8384C84.1842 24.9765 86.6263 23.6461 88.8911 22.7558M82.9737 26.8384C82.9737 26.8384 80.386 27.0241 78.8971 27.6758C76.4775 28.7349 73.9863 32.3259 73.9863 32.3259M93.8583 21.2917C93.8583 21.2917 91.4916 21.7336 88.8911 22.7558M81.3733 31.2807C81.3733 31.2807 74.0988 32.6353 71.0875 36.0546C68.7883 38.6653 66.1097 40.5865 67.3375 43.8414C68.2791 46.338 72.9907 47.6787 72.9907 47.6787M72.9907 47.6787C72.8135 47.2742 72.7057 46.8288 72.7546 46.3121C72.9794 43.9359 74.6109 43.8941 76.9213 43.2954C79.8306 42.5414 81.6823 43.3823 84.5563 44.2611C95.2299 47.5247 100.466 68.0038 100.466 68.0038C100.466 68.0038 96.7804 64.2664 92.376 61.5919M119.454 198.536C119.454 198.536 119.931 204.209 119.306 207.756C118.428 212.74 117.321 215.653 114.286 219.702C111.946 222.824 106.904 226.434 106.904 226.434M115.786 196.285C115.786 196.285 117.824 205.951 115.355 211.252C114.315 213.485 111.776 216.445 111.776 216.445M113.165 195.954C113.165 195.954 112.62 206.548 110.048 212.671C108.718 215.836 105.777 220.355 105.777 220.355M110.575 197.413C110.575 197.413 109.051 205.926 106.959 211.005C105.96 213.432 104.018 217.048 104.018 217.048M108.224 195.329C108.224 195.329 107.024 202.001 105.416 205.999C104.084 209.31 101.148 214.079 101.148 214.079M100.372 194.336C100.372 194.336 96.4417 201.363 92.453 204.359C89.8164 206.34 88.1416 207.417 84.9432 208.221C82.533 208.826 78.5973 208.693 78.5973 208.693M97.8608 203.652C97.8608 203.652 94.2371 208.515 90.927 210.253C88.884 211.325 87.5991 211.813 85.3067 212.075C82.5594 212.39 78.2819 211.187 78.2819 211.187M97.2765 208.272C97.2765 208.272 93.5616 212.288 90.4843 213.752C87.2407 215.296 84.9182 216.534 81.4631 215.55C79.9831 215.129 77.9575 213.752 77.9575 213.752M95.6878 196.163C95.6878 196.163 92.292 201.772 88.8769 203.907C85.4382 206.057 78.8576 206.635 78.8576 206.635M114.116 225.362C114.116 225.362 114.371 232.565 116.472 236.47C118.053 239.41 119.298 241.041 122.021 242.971C125.704 245.581 133.133 246.153 133.133 246.153M116.342 223.137C116.342 223.137 116.442 232.766 119.481 236.851C122.822 241.341 132.426 243.302 132.426 243.302M132.952 211.286C132.952 211.286 133.663 217.084 133.082 220.724C132.61 223.682 130.83 228.055 130.83 228.055M130.268 210.947C130.268 210.947 129.673 215.649 129.292 218.661C128.777 222.737 127.972 229.099 127.972 229.099M127.609 208.806L125.738 223.6M123.797 217.966C123.797 217.966 122.966 224.527 123.842 228.577C124.55 231.848 127.032 236.531 127.032 236.531M121.534 220.619C121.534 220.619 120.204 225.218 120.58 228.164C121.014 231.558 124.148 236.166 124.148 236.166M97.2832 166.173C97.2832 166.173 97.6445 172.417 98.8869 176.171C100.173 180.056 103.78 185.438 103.78 185.438M103.78 185.438C105.135 186.243 106.605 186.973 107.754 187.51M100.545 171.631C100.545 171.631 101.82 178.783 104.127 182.695C105.322 184.723 107.754 187.51 107.754 187.51M129.019 176.678C129.019 176.678 126.771 181.557 124.659 184.227C122.2 187.334 117.11 191.007 117.11 191.007M117.11 191.007C117.397 192.065 117.701 192.706 117.701 192.706C117.701 192.706 127.048 189.236 130.689 184.456C133.874 180.276 136.284 174.355 133.24 170.071C131.55 167.694 129.447 168.441 126.521 169.871C121.238 172.453 119.381 178.219 117.493 182.787C116.569 185.021 116.5 187.213 116.712 188.965M117.11 191.007C116.955 190.436 116.806 189.744 116.712 188.965M122.751 180.523C122.751 180.523 120.497 184.956 118.387 187.285C117.765 187.972 116.712 188.965 116.712 188.965M165.506 155.182C165.506 155.182 166.332 161.255 165.463 164.982C164.129 170.706 157.237 177.583 157.237 177.583L145.592 187.553M145.592 187.553C147.563 186.607 149.473 185.475 151.194 184.121C158.611 178.283 168.775 171.314 169.658 161.917C170.214 155.985 171.215 150.202 165.354 149.129C162.609 148.627 160.412 149.41 159.276 151.959C155.471 160.494 159.134 166.423 153.641 174.955C146.934 185.374 127.048 192.264 127.048 192.264C127.048 192.264 132.914 191.941 139.584 189.88M145.592 187.553C143.607 188.506 141.56 189.269 139.584 189.88M161.586 160.896C161.586 160.896 160.818 168.472 158.565 172.636C156.586 176.293 151.625 180.71 151.625 180.71L139.584 189.88M213.191 168.354C213.191 168.354 207.248 163.912 201.285 162.803C194.794 161.597 182.762 163.574 182.762 163.574L173.701 166.024M173.701 166.024C174.438 165.233 175.213 164.422 175.983 163.647M198.988 159.418C198.988 159.418 192.74 159.136 189.22 159.766C184.298 160.647 175.983 163.647 175.983 163.647M219.537 153.625C219.537 153.625 210.213 151.428 204.168 151.681C198.002 151.939 194.429 152.67 188.722 155.02C185.783 156.23 181.51 158.791 181.51 158.791M228.821 157.157C228.821 157.157 236.932 163.541 239.466 169.323C242.597 176.466 242.371 181.821 240.106 189.284C237.906 196.528 230.591 205.361 230.591 205.361M222.483 207.264C222.483 207.264 231.608 202.7 234.214 197.278C236.251 193.042 235.725 185.338 235.725 185.338M217.392 189.029C217.392 189.029 206.509 187.091 199.588 187.892C191.892 188.782 187.84 190.966 180.723 194.027C172.958 197.367 161.794 204.525 161.794 204.525M216.299 186.212C216.299 186.212 208.261 184.309 203.052 184.536C194.804 184.896 190.572 187.906 182.945 191.066C173.854 194.832 160.673 202.852 160.673 202.852M219.607 185.473C219.607 185.473 209.169 181.975 202.292 182.208C193.719 182.499 189.342 185.732 181.371 188.901C171.252 192.925 156.458 201.43 156.458 201.43M219.185 181.592C219.185 181.592 207.74 180.047 200.475 180.879C191.012 181.963 186.129 184.888 177.268 188.382C169.66 191.383 158.231 197.106 158.231 197.106M195.685 171.469C195.685 171.469 187.938 172.835 183.197 174.472C176.509 176.782 167.034 182.659 167.034 182.659M200.52 174.106C199.965 174.291 189.739 176.266 184.695 177.23C179.652 178.194 166.482 187.018 166.482 187.018M203.899 177.837C203.899 177.837 192.504 178.151 185.551 180.091C177.048 182.463 165.253 190.04 165.253 190.04M261.451 132.496C261.451 132.496 258.93 136.732 256.822 138.578C255.2 139.998 252.316 141.125 252.316 141.125M260.958 136.392C260.958 136.392 258.686 140.142 256.434 141.646C254.385 143.014 250.492 143.764 250.492 143.764M262.868 138.79C262.868 138.79 260.194 143.1 257.509 144.652C255.196 145.989 250.9 146.42 250.9 146.42M231.46 91.9865C231.46 91.9865 224.466 94.4339 220.166 96.4278C215.787 98.4589 213.466 99.8807 209.287 102.299C206.514 103.905 202.267 106.55 202.267 106.55M202.267 106.55C200.828 106.767 199.256 107.432 197.713 108.026M228.089 97.43C228.089 97.43 222.881 100.016 219.511 101.605C216.74 102.911 215.053 103.377 212.382 104.877C211.395 105.431 209.898 106.371 209.898 106.371M230.117 89.252C230.117 89.252 221.882 93.1694 216.775 95.9989C209.076 100.265 197.713 108.026 197.713 108.026M197.713 108.026C197.508 108.105 197.304 108.183 197.101 108.258C196.227 108.581 195.419 109.046 194.692 109.62M217.945 86.7539C217.945 86.7539 210.443 90.5545 206.016 93.5948C201.704 96.5563 199.404 98.4267 195.608 102.026C192.314 105.151 187.733 110.58 187.733 110.58M216.485 90.5892C216.485 90.5892 211.688 92.289 208.92 93.9621C205.805 95.8448 204.508 97.5412 201.693 99.8479C198.589 102.391 196.496 103.445 193.765 106.384C192.374 107.883 190.468 110.452 190.468 110.452M209.139 97.9751C209.139 97.9751 204.764 100.149 202.269 102.008C198.905 104.513 194.692 109.62 194.692 109.62M201.753 87.2673C201.753 87.2673 195.774 90.1376 192.682 92.9514C187.726 97.462 183.805 107.637 183.805 107.637M200.836 83.3343C200.836 83.3343 194.254 87.135 190.887 90.5587C186.527 94.9931 182.408 104.038 182.408 104.038M189.16 38.2956C189.16 38.2956 183.344 38.3477 179.822 39.3861C175.516 40.656 169.71 44.8551 169.71 44.8551M169.71 44.8551L170.954 42.2126M185.992 35.7389C185.992 35.7389 180.052 36.5241 176.689 38.2012C174.243 39.4209 170.954 42.2126 170.954 42.2126M222.035 46.7106C222.035 46.7106 226.366 53.1429 226.277 57.7664C226.216 60.9005 225.373 62.6313 224.08 65.4867C222.539 68.8894 218.663 73.3706 218.663 73.3706M209 53.32C209 53.32 200.887 54.2901 197.169 57.4779C193.079 60.985 191.144 69.8897 191.144 69.8897M200.704 60.293C200.704 60.293 195.834 65.9537 193.465 70.1832C191.662 73.4018 189.951 79.3227 189.951 79.3227M154.802 66.2924C154.802 66.2924 157.251 59.1237 160.383 55.6108C163.186 52.4681 169.144 49.3255 169.144 49.3255M166.048 58.1462C166.048 58.1462 169.337 53.377 172.057 50.9082C175.71 47.5935 182.844 44.337 182.844 44.337M187.505 44.2704C187.505 44.2704 178.609 48.4897 174.368 52.9388C173.093 54.2773 171.34 56.5788 171.34 56.5788M157.436 45.4679C157.436 45.4679 152.605 50.2073 150.566 53.9511C149.275 56.3211 147.978 60.3587 147.978 60.3587M161.644 45.6457C161.644 45.6457 156.838 52.0703 154.621 56.6674C153.008 60.0135 151.239 65.5582 151.239 65.5582M147.719 62.4051C147.719 62.4051 141.488 72.328 140.444 79.5123C139.83 83.7362 140.51 90.4418 140.51 90.4418M128.167 33.2763C128.167 33.2763 132.031 39.9915 133.028 44.7572C133.876 48.8094 133.466 55.3492 133.466 55.3492L132.064 73.5396M131.833 33.74C131.833 33.74 135.394 38.2805 136.694 41.6739C139.11 47.9836 137.655 52.2458 137.016 58.972C136.84 60.8184 136.42 63.6837 136.42 63.6837M125.2 36.8244C125.2 36.8244 129.205 42.8997 130.112 47.3408C130.855 50.9734 130.203 56.8343 130.203 56.8343M123.825 52.8054C123.825 52.8054 119.649 44.9592 115.488 41.2781C110.178 36.5804 99.0753 33.5198 99.0753 33.5198M123.959 59.3996C123.959 59.3996 120.218 52.2227 116.856 48.3467C112.283 43.0752 102.748 37.3801 102.748 37.3801M122.37 59.1987C122.37 59.1987 117.63 52.756 114.411 49.7958C109.818 45.5718 102.306 40.8712 102.306 40.8712M118.297 58.6834C118.297 58.6834 112.791 52.5283 108.796 49.0856C105.18 45.9696 98.9894 41.7904 98.9894 41.7904M113.516 56.8716C113.516 56.8716 109.269 52.8912 106.361 50.563C102.307 47.317 95.4523 42.9567 95.4523 42.9567M107.901 56.1614C107.901 56.1614 104.777 53.1155 102.564 51.4194C99.5535 49.1118 94.3105 46.2984 94.3105 46.2984M108.15 81.048C108.15 81.048 111.376 84.2468 112.834 86.9409C114.174 89.4186 115.308 94.294 115.308 94.294M113.113 95.0233C113.113 95.0233 111.688 89.7554 109.762 86.5524C108.07 83.7396 104.034 79.5725 104.034 79.5725M103.441 84.2606C103.441 84.2606 102.679 77.293 101.13 73.4531C99.7469 70.0249 98.086 68.6703 95.973 65.6371C94.7647 63.9025 92.376 61.5919 92.376 61.5919M108.03 100.245C108.03 100.245 105.021 93.2277 102.861 88.8405C100.892 84.8405 100.03 82.436 97.5236 78.7491C95.3416 75.5394 93.9252 73.8411 91.1727 71.1049C87.955 67.906 82.0748 63.8791 82.0748 63.8791M100.177 75.5326C100.177 75.5326 96.8434 70.2267 94.2185 67.2135C91.9818 64.6458 87.978 61.1235 87.978 61.1235M93.5132 78.2418C93.5132 78.2418 98.6866 85.8448 101.707 90.6957C103.022 92.8077 104.108 96.3648 104.108 96.3648M106.161 101.821C106.161 101.821 102.927 98.3534 101.039 95.9767C98.6453 92.9623 95.3952 87.8961 95.3952 87.8961M91.3753 85.148C91.3753 85.148 87.8848 82.9011 86.0354 81.0246C83.8662 78.8237 81.4412 74.5819 81.4412 74.5819M115.761 31.7071C115.761 31.7071 111.85 26.3863 107.384 25.095C103.485 23.9677 96.9906 25.1101 96.9906 25.1101M111.264 29.575C111.264 29.575 108.103 27.6958 105.634 27.1531C102.456 26.4548 100.01 26.2346 96.7896 26.6993C92.5303 27.3141 87.1336 32.0093 87.1336 32.0093M85.422 17.758C85.422 17.758 78.808 18.4802 75.4952 20.3965C70.7313 23.1523 68.7896 26.3144 66.6945 31.4036C65.5203 34.2558 64.8718 39.0885 64.8718 39.0885M88.8911 22.7558C88.8911 22.7558 83.2151 22.4331 80.0785 23.9207C78.1009 24.8586 75.574 27.2555 75.574 27.2555M102.768 106.958C102.768 106.958 100.751 101.892 97.8713 99.2138C93.4014 95.0564 88.6076 93.557 82.879 91.4484C77.8353 89.5918 69.4379 88.4918 69.4379 88.4918M102.458 109.406C102.458 109.406 97.6374 105.39 94.4662 102.92C90.3426 99.7084 88.4874 97.0631 83.6962 94.9747C81.1296 93.856 79.5899 93.3811 76.8292 92.9143C73.1487 92.2921 70.8457 91.8223 67.271 92.8971C63.5753 94.0082 59.094 98.4456 59.094 98.4456M73.3199 94.9482L66.9665 95.3047L59.7851 103.298M100.593 113.94C100.593 113.94 95.0858 110.389 91.2212 108.822C87.3962 107.272 85.1668 106.056 81.0401 105.987C77.8575 105.933 73.0196 107.437 73.0196 107.437M131.687 140.359C131.687 140.359 126.646 146.991 123.786 151.489C122.941 152.818 121.674 154.924 121.674 154.924M131.167 133.14C131.167 133.14 129.701 138.74 128.107 142.06C125.578 147.328 122.439 149.224 119.243 154.116C118.348 155.484 117.007 157.656 117.007 157.656M125.296 139.551C125.296 139.551 122.344 144.09 120.552 147.06C118.678 150.168 117.524 151.862 115.924 155.12C114.589 157.84 112.886 162.258 112.886 162.258M118.382 146.786C118.382 146.786 115.697 150.776 114.236 153.482C112.183 157.284 111.152 159.514 109.808 163.62C109.303 165.162 108.657 167.612 108.657 167.612M99.6133 121.685C99.6133 121.685 106.504 129.4 107.808 135.555C108.61 139.34 107.919 145.462 107.919 145.462M92.3668 119.517C92.3668 119.517 99.698 126.079 102.397 131.578C104.514 135.892 105.692 138.629 105.688 143.434C105.686 145.668 104.97 149.109 104.97 149.109M85.8721 118.695C85.8721 118.695 94.8115 123.559 97.7918 128.918C99.2285 131.502 99.5265 133.207 100.312 136.057C101.041 138.701 101.642 140.193 101.732 142.934C101.846 146.412 100.094 151.693 100.094 151.693M85.3962 122.458C85.3962 122.458 91.8795 127.704 94.5617 132.179C96.1511 134.831 97.1884 136.389 97.7358 139.432C98.4404 143.35 99.0717 145.862 98.5723 149.811C98.3042 151.93 95.7705 154.969 95.7705 154.969M95.5331 180.009C95.5331 180.009 90.0232 172.286 87.9885 166.651C85.7924 160.569 86.4262 156.679 85.2617 150.318C83.965 143.236 84.4703 138.858 81.6262 132.243C78.6904 125.415 70.5611 116.759 70.5611 116.759M93.3858 182.305C93.3858 182.305 87.7438 174.211 85.2031 168.472C80.8935 158.737 82.7415 151.936 79.3413 141.848C77.697 136.969 76.7472 134.215 74.4831 129.591C72.608 125.762 69.0595 120.115 69.0595 120.115M91.5533 182.748C91.5533 182.748 85.927 175.911 83.3685 170.904C79.3074 162.958 77.4586 148.83 77.4586 148.83M88.0871 183.366C88.0871 183.366 83.0347 177.958 80.7271 173.874C77.6144 168.366 75.6627 158.485 75.6627 158.485L74.7582 146.799M84.4819 181.854C84.4819 181.854 80.2778 177.053 78.2137 173.556C75.4314 168.842 73.0205 160.536 73.0205 160.536M118.034 163.672C118.034 163.672 115.1 170.297 113.993 174.778C112.787 179.659 112.377 187.551 112.377 187.551M174.616 150.301L171.541 140.324L160.193 133.715M177.626 140.137C177.827 139.158 178.021 138.193 178.206 137.255C178.491 135.809 178.515 134.187 178.316 132.445M177.626 140.137C177.626 140.137 175.535 130.698 171.703 126.188C168.184 122.047 160.133 118.456 160.133 118.456M178.316 132.445C178.316 132.445 175.033 126.091 172.16 122.572C167.995 117.469 159.275 111.689 159.275 111.689M175.8 121.662C175.8 121.662 170.388 115.307 166.235 111.998C162.471 108.998 160.342 107.071 155.833 105.385C152.329 104.075 146.437 103.516 146.437 103.516M169.119 111.031C169.119 111.031 162.343 104.354 156.978 101.731C151.972 99.2846 148.748 98.6654 143.225 97.9379C138.924 97.3715 136.394 96.9374 132.12 97.6769C129.917 98.0579 126.605 99.2105 126.605 99.2105M120.257 100.205C120.257 100.205 116.46 101.419 114.411 102.865C111.923 104.621 109.223 108.688 109.223 108.688M156.562 99.625C156.562 99.625 148.292 96.2281 142.694 95.333C135.814 94.233 124.855 95.6143 124.855 95.6143C124.855 95.6143 118.122 97.0213 114.651 99.4957C110.492 102.46 106.801 109.955 106.801 109.955M152.165 111.785C152.165 111.785 143.322 110.216 137.86 111.396C133.238 112.395 128.148 117.004 128.148 117.004M156.33 114.647C156.33 114.647 146.036 111.764 139.693 113.271C133.599 114.719 125.906 121.466 125.906 121.466M123.814 350.435C123.814 350.435 117.245 354.649 112.467 355.456C109.239 356.002 104.085 355.456 104.085 355.456M131.622 349.033C131.622 349.033 126.503 354.988 122.116 357.097C116.946 359.582 107.584 359.232 107.584 359.232M166.645 327.69C170.462 329.511 171.551 334.361 170.057 337.311C168.185 341.008 163.951 341.47 160.196 339.716C157.014 338.23 156.105 336.346 156.549 332.862C157.154 328.11 162.321 325.627 166.645 327.69Z" stroke="#F4D1D1"/>
</g>
<defs>
<filter id="filter0_d_3626_793" x="15.1914" y="0.566406" width="272.918" height="414.77" filterUnits="userSpaceOnUse" color-interpolation-filters="sRGB">
<feFlood flood-opacity="0" result="BackgroundImageFix"/>
<feColorMatrix in="SourceAlpha" type="matrix" values="0 0 0 0 0 0 0 0 0 0 0 0 0 0 0 0 0 0 127 0" result="hardAlpha"/>
<feOffset dy="4"/>
<feGaussianBlur stdDeviation="5"/>
<feComposite in2="hardAlpha" operator="out"/>
<feColorMatrix type="matrix" values="0 0 0 0 0 0 0 0 0 0 0 0 0 0 0 0 0 0 0.25 0"/>
<feBlend mode="normal" in2="BackgroundImageFix" result="effect1_dropShadow_3626_793"/>
<feBlend mode="normal" in="SourceGraphic" in2="effect1_dropShadow_3626_793" result="shape"/>
</filter>
</defs>
</svg>
